<svg width="25" height="24" viewBox="0 0 25 24" fill="none" xmlns="http://www.w3.org/2000/svg">
<g id="1">
<g id="Group">
<path id="Vector" d="M19.6104 9.5L16.4104 7.7V4H17.9104V6.8L20.3104 8.2L19.6104 9.5ZM22.6104 11.7C23.1104 12.4 23.4104 13.2 23.4104 14V23H21.4104V20H3.4104V23H1.4104V8H3.4104V17H11.4104V10.6C10.8104 9.5 10.4104 8.3 10.4104 7C10.4104 3.1 13.5104 0 17.4104 0C21.3104 0 24.4104 3.1 24.4104 7C24.4104 8.8 23.7104 10.4 22.6104 11.7ZM12.4104 7C12.4104 9.8 14.6104 12 17.4104 12C20.2104 12 22.4104 9.8 22.4104 7C22.4104 4.2 20.2104 2 17.4104 2C14.6104 2 12.4104 4.2 12.4104 7ZM7.4104 16C9.1104 16 10.4104 14.7 10.4104 13C10.4104 11.3 9.1104 10 7.4104 10C5.7104 10 4.4104 11.3 4.4104 13C4.4104 14.7 5.7104 16 7.4104 16Z" fill="black"/>
</g>
</g>
</svg>
