<svg width="25" height="24" viewBox="0 0 25 24" fill="none" xmlns="http://www.w3.org/2000/svg">
<g id="10">
<path id="Vector" d="M6.41016 8C6.41016 5.79 8.20016 4 10.4102 4C12.6202 4 14.4102 5.79 14.4102 8C14.4102 10.21 12.6202 12 10.4102 12C8.20016 12 6.41016 10.21 6.41016 8ZM9.55016 19.75L9.26016 19L9.55016 18.25C10.2502 16.5 11.4902 15.14 13.0202 14.22C12.2002 14.08 11.3302 14 10.4102 14C5.99016 14 2.41016 15.79 2.41016 18V20H9.68016C9.64016 19.91 9.59016 19.83 9.55016 19.75ZM17.4102 18C16.8502 18 16.4102 18.44 16.4102 19C16.4102 19.56 16.8502 20 17.4102 20C17.9702 20 18.4102 19.56 18.4102 19C18.4102 18.44 17.9702 18 17.4102 18ZM23.4102 19C22.4702 21.34 20.1402 23 17.4102 23C14.6802 23 12.3502 21.34 11.4102 19C12.3502 16.66 14.6802 15 17.4102 15C20.1402 15 22.4702 16.66 23.4102 19ZM19.9102 19C19.9102 17.62 18.7902 16.5 17.4102 16.5C16.0302 16.5 14.9102 17.62 14.9102 19C14.9102 20.38 16.0302 21.5 17.4102 21.5C18.7902 21.5 19.9102 20.38 19.9102 19Z" fill="black"/>
</g>
</svg>
