<svg width="25" height="24" viewBox="0 0 25 24" fill="none" xmlns="http://www.w3.org/2000/svg">
<g id="101">
<path id="Vector" d="M12.4102 2C6.91016 2 2.41016 6.5 2.41016 12C2.41016 17.5 6.91016 22 12.4102 22C17.9102 22 22.4102 17.5 22.4102 12C22.4102 6.5 17.9102 2 12.4102 2ZM12.4102 20C8.02016 20 4.41016 16.39 4.41016 12C4.41016 7.61 8.02016 4 12.4102 4C16.8002 4 20.4102 7.61 20.4102 12C20.4102 16.39 16.8002 20 12.4102 20ZM13.4102 10.27L16.2402 8.63L17.2402 10.37L14.4102 12L17.2402 13.63L16.2402 15.37L13.4102 13.73V17H11.4102V13.73L8.58016 15.37L7.58016 13.63L10.4102 12L7.58016 10.37L8.58016 8.63L11.4102 10.27V7H13.4102V10.27Z" fill="black"/>
</g>
</svg>
