<svg width="25" height="24" viewBox="0 0 25 24" fill="none" xmlns="http://www.w3.org/2000/svg">
<g id="1013">
<path id="Vector" d="M22.4062 7.41991C22.3162 9.36991 20.9563 12.0399 18.3263 15.4399C15.6063 18.9999 13.3062 20.7499 11.4062 20.7499C10.2563 20.7499 9.26625 19.6699 8.45625 17.4999C7.90625 15.5399 7.40625 13.5599 6.84625 11.5799C6.24625 9.41991 5.60625 8.33991 4.90625 8.33991C4.76625 8.33991 4.24625 8.65991 3.34625 9.28991L2.40625 8.06991C3.40625 7.19991 4.36625 6.32991 5.32625 5.45991C6.64625 4.31991 7.63625 3.71991 8.28625 3.65991C9.84625 3.49991 10.8063 4.57991 11.1663 6.85991C11.5563 9.32991 11.8262 10.8599 11.9762 11.4599C12.4062 13.4999 12.9063 14.4999 13.4563 14.4999C13.8763 14.4999 14.5062 13.8599 15.3462 12.5299C16.1862 11.2099 16.6363 10.1999 16.6963 9.49991C16.8163 8.35991 16.3662 7.78991 15.3462 7.78991C14.8662 7.78991 14.3763 7.89991 13.8663 8.11991C14.8463 4.88991 16.7263 3.31991 19.4963 3.40991C21.5563 3.46991 22.5262 4.80991 22.4062 7.41991Z" fill="black"/>
</g>
</svg>
