<svg width="25" height="24" viewBox="0 0 25 24" fill="none" xmlns="http://www.w3.org/2000/svg">
<g id="1015">
<path id="Vector" d="M13.4062 5H10.4062C10.141 5 9.88668 5.10536 9.69914 5.29289C9.51161 5.48043 9.40625 5.73478 9.40625 6V18C9.40625 18.2652 9.51161 18.5196 9.69914 18.7071C9.88668 18.8946 10.141 19 10.4062 19H13.4062C13.6715 19 13.9258 18.8946 14.1134 18.7071C14.3009 18.5196 14.4062 18.2652 14.4062 18V6C14.4062 5.73478 14.3009 5.48043 14.1134 5.29289C13.9258 5.10536 13.6715 5 13.4062 5ZM20.4062 5H17.4062C17.141 5 16.8867 5.10536 16.6991 5.29289C16.5116 5.48043 16.4062 5.73478 16.4062 6V18C16.4062 18.2652 16.5116 18.5196 16.6991 18.7071C16.8867 18.8946 17.141 19 17.4062 19H20.4062C20.6715 19 20.9258 18.8946 21.1134 18.7071C21.3009 18.5196 21.4062 18.2652 21.4062 18V6C21.4062 5.73478 21.3009 5.48043 21.1134 5.29289C20.9258 5.10536 20.6715 5 20.4062 5ZM6.40625 5H3.40625C3.14103 5 2.88668 5.10536 2.69914 5.29289C2.51161 5.48043 2.40625 5.73478 2.40625 6V18C2.40625 18.2652 2.51161 18.5196 2.69914 18.7071C2.88668 18.8946 3.14103 19 3.40625 19H6.40625C6.67147 19 6.92582 18.8946 7.11336 18.7071C7.30089 18.5196 7.40625 18.2652 7.40625 18V6C7.40625 5.73478 7.30089 5.48043 7.11336 5.29289C6.92582 5.10536 6.67147 5 6.40625 5Z" fill="black"/>
</g>
</svg>
