<svg width="25" height="24" viewBox="0 0 25 24" fill="none" xmlns="http://www.w3.org/2000/svg">
<g id="1018">
<path id="Vector" d="M11.4062 2C11.141 2 10.8867 2.10536 10.6991 2.29289C10.5116 2.48043 10.4062 2.73478 10.4062 3V5V9C10.4062 9.13261 10.4589 9.25979 10.5527 9.35355C10.6465 9.44732 10.7736 9.5 10.9062 9.5H12.4062C12.5389 9.5 12.666 9.55268 12.7598 9.64645C12.8536 9.74021 12.9062 9.86739 12.9062 10C12.9062 10.1326 12.8536 10.2598 12.7598 10.3536C12.666 10.4473 12.5389 10.5 12.4062 10.5H10.9062C10.1363 10.5 9.40625 9.77 9.40625 9V5.16C7.67625 5.6 6.40625 7.13 6.40625 9V10.5C7.06929 10.5 7.70518 10.7634 8.17402 11.2322C8.64286 11.7011 8.90625 12.337 8.90625 13C8.90625 13.663 8.64286 14.2989 8.17402 14.7678C7.70518 15.2366 7.06929 15.5 6.40625 15.5V17C6.40625 19.77 8.63625 22 11.4062 22H13.4062C16.1762 22 18.4062 19.77 18.4062 17V15.5C17.7432 15.5 17.1073 15.2366 16.6385 14.7678C16.1696 14.2989 15.9062 13.663 15.9062 13C15.9062 12.337 16.1696 11.7011 16.6385 11.2322C17.1073 10.7634 17.7432 10.5 18.4062 10.5V9C18.4062 6.78 16.6263 5 14.4062 5V3C14.4062 2.73478 14.3009 2.48043 14.1134 2.29289C13.9258 2.10536 13.6715 2 13.4062 2H11.4062ZM11.1562 16.5H13.6562L13.1562 20H11.6562L11.1562 16.5Z" fill="black"/>
</g>
</svg>
