<svg width="25" height="24" viewBox="0 0 25 24" fill="none" xmlns="http://www.w3.org/2000/svg">
<g id="1019">
<path id="Vector" d="M5.40625 3C4.29625 3 3.40625 3.9 3.40625 5V19C3.40625 19.5304 3.61696 20.0391 3.99204 20.4142C4.36711 20.7893 4.87582 21 5.40625 21H19.4062C19.9367 21 20.4454 20.7893 20.8205 20.4142C21.1955 20.0391 21.4062 19.5304 21.4062 19V5C21.4062 4.46957 21.1955 3.96086 20.8205 3.58579C20.4454 3.21071 19.9367 3 19.4062 3H5.40625ZM6.40625 9H7.90625L8.90625 12.43L9.90625 9H11.4062L9.65625 15H8.15625L6.40625 9ZM13.4062 9H16.9062C17.7563 9 18.4062 9.65 18.4062 10.5V11.5C18.4062 12.1 18.0063 12.65 17.5063 12.9L18.4062 15H16.9062L16.0562 13H14.9062V15H13.4062V9ZM14.9062 10.5V11.5H16.9062V10.5H14.9062Z" fill="black"/>
</g>
</svg>
