<svg width="25" height="24" viewBox="0 0 25 24" fill="none" xmlns="http://www.w3.org/2000/svg">
<g id="1020">
<path id="Vector" d="M20.2272 14C20.5372 14.45 21.0672 14.75 21.6572 14.75C22.6272 14.75 23.4072 13.97 23.4072 13C23.4072 12.03 22.6272 11.25 21.6572 11.25C21.0672 11.25 20.5372 11.55 20.2272 12H19.4072C19.4072 10.43 18.9072 9 18.0072 7.81L19.3472 6.47C19.9072 6.57 20.4772 6.41 20.9072 6C21.5772 5.31 21.5772 4.2 20.9072 3.5C20.2172 2.83 19.1072 2.83 18.4072 3.5C17.9972 3.93 17.8372 4.5 17.9372 5.06L16.5972 6.4C15.6772 5.71 14.5972 5.25 13.4072 5.08V3.68C13.8572 3.37 14.1572 2.84 14.1572 2.25C14.1572 1.28 13.3772 0.5 12.4072 0.5C11.4372 0.5 10.6572 1.28 10.6572 2.25C10.6572 2.84 10.9572 3.37 11.4072 3.68V5.08C10.5072 5.21 9.66724 5.5 8.90724 5.94L7.79724 4.35C7.98724 3.83 7.93724 3.23 7.59724 2.75C7.03724 1.96 5.94724 1.76 5.15724 2.32C4.36724 2.87 4.16724 3.96 4.72724 4.75C5.06724 5.24 5.60724 5.5 6.15724 5.5L7.33724 7.18C6.90724 7.61 6.56724 8.09 6.27724 8.62C5.65724 8.38 4.90724 8.5 4.40724 9C3.73724 9.7 3.73724 10.8 4.40724 11.5C4.69724 11.77 5.04724 11.93 5.40724 12C5.40724 12.54 5.47724 13.06 5.58724 13.56L4.27724 13.91C3.85724 13.56 3.27724 13.41 2.69724 13.56C1.76724 13.81 1.21524 14.77 1.46724 15.71C1.71724 16.64 2.68724 17.19 3.61724 16.94C4.18724 16.78 4.61724 16.36 4.79724 15.84L6.30724 15.43C6.75724 16.22 7.35724 16.92 8.05724 17.5L6.95724 19.5C6.40724 19.58 5.90724 19.89 5.61724 20.42C5.15724 21.27 5.47724 22.33 6.32724 22.79C7.17724 23.25 8.23724 22.93 8.69724 22.08C8.97724 21.56 8.96724 20.96 8.71724 20.47L9.78724 18.5C10.5972 18.82 11.4772 19 12.4072 19C12.4672 19 12.5272 19 12.5872 19C12.4572 19.26 12.4072 19.56 12.4072 19.88C12.4872 20.85 13.3272 21.57 14.2872 21.5C15.2472 21.43 15.9772 20.58 15.9072 19.62C15.8672 19.12 15.6172 18.68 15.2572 18.39C15.7272 18.18 16.1772 17.91 16.5972 17.6L18.9372 19.94C18.8372 20.5 18.9972 21.07 19.4072 21.5C20.1072 22.17 21.2072 22.17 21.9072 21.5C22.6072 20.83 22.5772 19.7 21.9072 19C21.4772 18.59 20.9072 18.43 20.3472 18.53L18.0072 16.19C18.4972 15.54 18.8772 14.8 19.1172 14H20.2272ZM10.9072 12C10.0772 12 9.40724 11.33 9.40724 10.5C9.40724 9.67 10.0772 9 10.9072 9C11.7372 9 12.4072 9.67 12.4072 10.5C12.4072 11.33 11.7372 12 10.9072 12ZM14.4072 15C13.8572 15 13.4072 14.55 13.4072 14C13.4072 13.45 13.8572 13 14.4072 13C14.9572 13 15.4072 13.45 15.4072 14C15.4072 14.55 14.9572 15 14.4072 15Z" fill="black"/>
</g>
</svg>
