<svg width="25" height="24" viewBox="0 0 25 24" fill="none" xmlns="http://www.w3.org/2000/svg">
<g id="1021">
<path id="Vector" d="M7.82724 4.22L5.68724 2.08C6.37724 1.88 7.15724 2.12 7.59724 2.75C7.90724 3.19 7.96724 3.73 7.82724 4.22ZM21.6572 11.25C21.0672 11.25 20.5372 11.55 20.2272 12H19.4072C19.4072 10.43 18.9072 9 18.0072 7.81L19.3472 6.47C19.9072 6.57 20.4772 6.41 20.9072 6C21.5772 5.31 21.5772 4.2 20.9072 3.5C20.2172 2.83 19.1072 2.83 18.4072 3.5C17.9972 3.93 17.8372 4.5 17.9372 5.06L16.5972 6.4C15.6772 5.71 14.5972 5.25 13.4072 5.08V3.68C13.8572 3.37 14.1572 2.84 14.1572 2.25C14.1572 1.28 13.3772 0.5 12.4072 0.5C11.4372 0.5 10.6572 1.28 10.6572 2.25C10.6572 2.84 10.9572 3.37 11.4072 3.68V5.08C10.6672 5.19 9.97724 5.41 9.32724 5.72L18.6872 15.08C18.8572 14.73 19.0072 14.38 19.1172 14H20.2272C20.5372 14.45 21.0672 14.75 21.6572 14.75C22.6272 14.75 23.4072 13.97 23.4072 13C23.4072 12.03 22.6272 11.25 21.6572 11.25ZM22.5172 21.46L21.2472 22.73L20.5072 22C20.1072 21.96 19.7172 21.8 19.4072 21.5C19.1072 21.19 18.9472 20.8 18.9072 20.4L16.3072 17.79C15.9772 18 15.6272 18.23 15.2572 18.39C15.6172 18.68 15.8672 19.12 15.9072 19.62C15.9772 20.58 15.2472 21.43 14.2872 21.5C13.3272 21.57 12.4872 20.85 12.4072 19.88C12.4072 19.56 12.4572 19.26 12.5872 19H12.4072C11.4772 19 10.5972 18.82 9.78724 18.5L8.71724 20.47C8.96724 20.96 8.97724 21.56 8.69724 22.08C8.23724 22.93 7.17724 23.25 6.32724 22.79C5.47724 22.33 5.15724 21.27 5.61724 20.42C5.90724 19.89 6.40724 19.58 6.95724 19.5L8.05724 17.5C7.35724 16.92 6.75724 16.22 6.30724 15.43L4.79724 15.84C4.61724 16.36 4.18724 16.78 3.61724 16.94C2.68724 17.19 1.71724 16.64 1.46724 15.71C1.21524 14.77 1.76724 13.81 2.69724 13.56C3.27724 13.41 3.85724 13.56 4.27724 13.91L5.58724 13.56C5.47724 13.06 5.40724 12.54 5.40724 12C5.04724 11.93 4.69724 11.77 4.40724 11.5C3.73724 10.8 3.73724 9.7 4.40724 9C4.90724 8.5 5.65724 8.38 6.27724 8.62C6.37724 8.44 6.49724 8.27 6.60724 8.09L1.51724 3L2.79724 1.73L22.5172 21.46Z" fill="black"/>
</g>
</svg>
