<svg width="25" height="24" viewBox="0 0 25 24" fill="none" xmlns="http://www.w3.org/2000/svg">
<g id="1022">
<path id="Vector" d="M23.4069 13C23.4069 13.97 22.6269 14.75 21.6569 14.75C21.0669 14.75 20.5369 14.45 20.2269 14H19.1169C19.0069 14.38 18.8569 14.73 18.6869 15.08L17.1369 13.53C17.2969 13.05 17.4069 12.54 17.4069 12C17.4069 9.24 15.1669 7 12.4069 7C11.8669 7 11.3569 7.11 10.8769 7.27L9.3269 5.72C9.9769 5.41 10.6669 5.19 11.4069 5.08V3.68C10.9569 3.37 10.6569 2.84 10.6569 2.25C10.6569 1.28 11.4369 0.5 12.4069 0.5C13.3769 0.5 14.1569 1.28 14.1569 2.25C14.1569 2.84 13.8569 3.37 13.4069 3.68V5.08C14.5969 5.25 15.6769 5.71 16.5969 6.4L17.9369 5.06C17.8369 4.5 17.9969 3.93 18.4069 3.5C18.7569 3.17 19.2069 3 19.6569 3C20.1069 3 20.5569 3.17 20.9069 3.5C21.5769 4.2 21.5769 5.31 20.9069 6C20.5569 6.33 20.1069 6.5 19.6569 6.5C19.5569 6.5 19.4569 6.5 19.3469 6.47L18.0069 7.81C18.9069 9 19.4069 10.43 19.4069 12H20.2269C20.5369 11.55 21.0669 11.25 21.6569 11.25C22.6269 11.25 23.4069 12.03 23.4069 13ZM22.5169 21.46L21.2469 22.73L20.5069 22C20.1069 21.95 19.7169 21.79 19.4069 21.5C19.1069 21.19 18.9469 20.8 18.9069 20.4L16.3069 17.79C15.9769 18 15.6269 18.23 15.2569 18.39C15.6169 18.68 15.8669 19.12 15.9069 19.62C15.9769 20.58 15.2569 21.42 14.2869 21.5H14.1569C13.2469 21.5 12.4869 20.8 12.4069 19.88C12.4069 19.56 12.4569 19.26 12.5869 19H12.4069C11.4769 19 10.5969 18.82 9.7869 18.5L8.7169 20.47C8.9669 20.96 8.9769 21.56 8.6969 22.08C8.3769 22.67 7.7769 23 7.1569 23C6.8769 23 6.5869 22.93 6.3269 22.79C5.4769 22.33 5.1569 21.27 5.6169 20.42C5.9069 19.89 6.4069 19.58 6.9569 19.5L8.0569 17.5C7.3569 16.92 6.7569 16.22 6.3069 15.43L4.7969 15.84C4.6169 16.36 4.1869 16.78 3.6169 16.94C3.4569 17 3.3069 17 3.1569 17C2.4069 17 1.6769 16.5 1.4669 15.71C1.2159 14.77 1.7669 13.81 2.6969 13.56C2.8469 13.5 3.0069 13.5 3.1569 13.5C3.5669 13.5 3.9669 13.65 4.2769 13.91L5.5869 13.56C5.4769 13.06 5.4069 12.54 5.4069 12C5.0469 11.92 4.6969 11.77 4.4069 11.5C3.7369 10.8 3.7369 9.7 4.4069 9C4.7569 8.67 5.2069 8.5 5.6569 8.5C5.8669 8.5 6.0769 8.54 6.2769 8.62C6.3769 8.44 6.4969 8.27 6.6069 8.09L1.5169 3L2.7969 1.73L22.5169 21.46ZM14.8569 16.34L8.0669 9.55C7.6569 10.28 7.4069 11.11 7.4069 12C7.4069 14.76 9.6469 17 12.4069 17C13.3069 17 14.1369 16.75 14.8569 16.34ZM7.5969 2.75C7.2469 2.26 6.7069 2 6.1569 2C5.9969 2 5.8369 2.03 5.6769 2.07L7.8269 4.22C7.9669 3.73 7.9069 3.19 7.5969 2.75Z" fill="black"/>
</g>
</svg>
