<svg width="25" height="24" viewBox="0 0 25 24" fill="none" xmlns="http://www.w3.org/2000/svg">
<g id="1025">
<g id="Group">
<path id="Vector" d="M18.9062 15C17.978 15 17.0878 14.6313 16.4314 13.9749C15.775 13.3185 15.4062 12.4283 15.4062 11.5C15.4062 10.5717 15.775 9.6815 16.4314 9.02513C17.0878 8.36875 17.978 8 18.9062 8C19.8345 8 20.7247 8.36875 21.3811 9.02513C22.0375 9.6815 22.4063 10.5717 22.4062 11.5C22.4063 12.4283 22.0375 13.3185 21.3811 13.9749C20.7247 14.6313 19.8345 15 18.9062 15ZM5.90625 15C4.97799 15 4.08775 14.6313 3.43138 13.9749C2.775 13.3185 2.40625 12.4283 2.40625 11.5C2.40625 10.5717 2.775 9.6815 3.43138 9.02513C4.08775 8.36875 4.97799 8 5.90625 8C6.83451 8 7.72475 8.36875 8.38112 9.02513C9.0375 9.6815 9.40625 10.5717 9.40625 11.5C9.40625 12.4283 9.0375 13.3185 8.38112 13.9749C7.72475 14.6313 6.83451 15 5.90625 15ZM18.9062 6C17.4476 6 16.0486 6.57946 15.0172 7.61091C13.9857 8.64236 13.4062 10.0413 13.4062 11.5C13.4062 12.83 13.8763 14.05 14.6663 15H10.1462C10.9362 14.05 11.4062 12.83 11.4062 11.5C11.4062 10.0413 10.8268 8.64236 9.79534 7.61091C8.76389 6.57946 7.36494 6 5.90625 6C4.44756 6 3.04861 6.57946 2.01716 7.61091C0.985713 8.64236 0.40625 10.0413 0.40625 11.5C0.40625 12.9587 0.985713 14.3576 2.01716 15.3891C3.04861 16.4205 4.44756 17 5.90625 17H18.9062C20.3649 17 21.7639 16.4205 22.7953 15.3891C23.8268 14.3576 24.4062 12.9587 24.4062 11.5C24.4062 10.0413 23.8268 8.64236 22.7953 7.61091C21.7639 6.57946 20.3649 6 18.9062 6Z" fill="black"/>
</g>
</g>
</svg>
