<svg width="25" height="24" viewBox="0 0 25 24" fill="none" xmlns="http://www.w3.org/2000/svg">
<g id="1026">
<path id="Vector" d="M12.401 1C11.981 1 11.591 1.23 11.401 1.75L10.281 4.88C10.761 5.4 11.681 5.5 12.401 5.5C13.121 5.5 14.041 5.4 14.531 4.88L13.401 1.75C13.221 1.25 12.821 1 12.401 1ZM8.84102 8.91L7.40102 12.91C8.47102 14.27 10.661 14.5 12.401 14.5C14.141 14.5 16.331 14.27 17.401 12.91L15.961 8.91C15.161 9.83 13.641 10 12.401 10C11.161 10 9.64102 9.83 8.84102 8.91ZM5.84102 15C5.02102 15 4.16102 15.65 3.93102 16.44L2.46102 21.56C2.24102 22.35 2.70102 23 3.53102 23H21.281C22.101 23 22.561 22.35 22.341 21.56L20.871 16.44C20.641 15.65 19.781 15 18.961 15H18.151L18.491 15.97C18.611 16.29 18.691 16.69 18.491 16.97C17.241 18.7 14.541 19 12.401 19C10.261 19 7.56102 18.7 6.31102 16.97C6.11102 16.69 6.19102 16.29 6.31102 15.97L6.65102 15H5.84102Z" fill="black"/>
</g>
</svg>
