<svg width="25" height="24" viewBox="0 0 25 24" fill="none" xmlns="http://www.w3.org/2000/svg">
<g id="1027">
<path id="Vector" d="M12.4069 0.5C11.4369 0.5 10.6569 1.28 10.6569 2.25C10.6569 2.84 10.9569 3.37 11.4069 3.68V5.08C10.5069 5.21 9.6669 5.5 8.9069 5.94L7.7969 4.35C7.9869 3.83 7.9369 3.23 7.5969 2.75C7.2469 2.26 6.7069 2 6.1569 2C5.8069 2 5.4569 2.1 5.1569 2.32C4.3669 2.87 4.1669 3.96 4.7269 4.75C5.0669 5.24 5.6069 5.5 6.1569 5.5L7.3369 7.18C6.9069 7.61 6.5669 8.09 6.2769 8.62C6.0769 8.54 5.8669 8.5 5.6569 8.5C5.2069 8.5 4.7569 8.67 4.4069 9C3.7369 9.7 3.7369 10.8 4.4069 11.5C4.6969 11.77 5.0469 11.92 5.4069 12C5.4069 12.54 5.4769 13.06 5.5869 13.56L4.2769 13.91C3.9669 13.65 3.5669 13.5 3.1569 13.5C3.0069 13.5 2.8469 13.5 2.6969 13.56C1.7669 13.81 1.2159 14.77 1.4669 15.71C1.6769 16.5 2.4069 17 3.1569 17C3.3069 17 3.4569 17 3.6169 16.94C4.1869 16.78 4.6169 16.36 4.7969 15.84L6.3069 15.43C6.7569 16.22 7.3569 16.92 8.0569 17.5L6.9569 19.5C6.4069 19.58 5.9069 19.89 5.6169 20.42C5.1569 21.27 5.4769 22.33 6.3269 22.79C6.5869 22.93 6.8769 23 7.1569 23C7.7769 23 8.3769 22.67 8.6969 22.08C8.9769 21.56 8.9669 20.96 8.7169 20.47L9.7869 18.5C10.5969 18.82 11.4769 19 12.4069 19C12.4669 19 12.5269 19 12.5869 19C12.4569 19.26 12.4069 19.56 12.4069 19.88C12.4869 20.8 13.2469 21.5 14.1569 21.5C14.1969 21.5 14.2469 21.5 14.2869 21.5C15.2569 21.42 15.9769 20.58 15.9069 19.62C15.8669 19.12 15.6169 18.68 15.2569 18.39C15.7269 18.18 16.1769 17.91 16.5969 17.6L18.9369 19.94C18.8369 20.5 18.9969 21.07 19.4069 21.5C19.7569 21.83 20.2069 22 20.6569 22C21.1069 22 21.5569 21.83 21.9069 21.5C22.5769 20.8 22.5769 19.7 21.9069 19C21.5569 18.67 21.1069 18.5 20.6569 18.5C20.5569 18.5 20.4569 18.5 20.3469 18.53L18.0069 16.19C18.4969 15.54 18.8769 14.8 19.1169 14H20.2269C20.5369 14.45 21.0669 14.75 21.6569 14.75C22.6269 14.75 23.4069 13.97 23.4069 13C23.4069 12.03 22.6269 11.25 21.6569 11.25C21.0669 11.25 20.5369 11.55 20.2269 12H19.4069C19.4069 10.43 18.9069 9 18.0069 7.81L19.3469 6.47C19.4569 6.5 19.5569 6.5 19.6569 6.5C20.1069 6.5 20.5569 6.33 20.9069 6C21.5769 5.31 21.5769 4.2 20.9069 3.5C20.5569 3.17 20.1069 3 19.6569 3C19.2069 3 18.7569 3.17 18.4069 3.5C17.9969 3.93 17.8369 4.5 17.9369 5.06L16.5969 6.4C15.6769 5.71 14.5969 5.25 13.4069 5.08V3.68C13.8569 3.37 14.1569 2.84 14.1569 2.25C14.1569 1.28 13.3769 0.5 12.4069 0.5ZM12.4069 17C9.6469 17 7.4069 14.76 7.4069 12C7.4069 9.24 9.6469 7 12.4069 7C15.1669 7 17.4069 9.24 17.4069 12C17.4069 14.76 15.1669 17 12.4069 17ZM10.9069 9C10.0769 9 9.4069 9.67 9.4069 10.5C9.4069 11.33 10.0769 12 10.9069 12C11.7369 12 12.4069 11.33 12.4069 10.5C12.4069 9.67 11.7369 9 10.9069 9ZM14.4069 13C13.8569 13 13.4069 13.45 13.4069 14C13.4069 14.55 13.8569 15 14.4069 15C14.9569 15 15.4069 14.55 15.4069 14C15.4069 13.45 14.9569 13 14.4069 13Z" fill="black"/>
</g>
</svg>
