<svg width="25" height="24" viewBox="0 0 25 24" fill="none" xmlns="http://www.w3.org/2000/svg">
<g id="1028">
<path id="Vector" d="M19.4463 4.85C17.7463 3.2 15.7362 2.25 13.4062 2V5.62L22.4062 10.8C22.1262 8.5 21.1363 6.5 19.4463 4.85ZM12.4062 22C15.8463 22 18.5663 20.62 20.5763 17.86L17.4662 16L8.47625 21.2C9.72625 21.73 11.0462 22 12.4062 22ZM13.4062 11.41L21.5562 16.07C21.9962 15.13 22.2863 14.14 22.4062 13.11L13.4062 7.93V11.41ZM4.28625 17.81C4.94625 18.72 5.66625 19.46 6.45625 20L15.4462 14.9L12.4062 13.15L4.28625 17.81ZM11.4462 2C10.4062 2.09 9.40625 2.36 8.40625 2.8V13.15L11.4462 11.41V2ZM2.40625 12C2.40625 13.39 2.70625 14.77 3.29625 16.12L6.40625 14.28V4C3.73625 6 2.40625 8.65 2.40625 12Z" fill="black"/>
</g>
</svg>
