<svg width="25" height="24" viewBox="0 0 25 24" fill="none" xmlns="http://www.w3.org/2000/svg">
<g id="103">
<path id="Vector" d="M19.4102 2H5.41016C4.87972 2 4.37102 2.21071 3.99594 2.58579C3.62087 2.96086 3.41016 3.46957 3.41016 4V18C3.41016 18.5304 3.62087 19.0391 3.99594 19.4142C4.37102 19.7893 4.87972 20 5.41016 20H9.41016L12.4102 23L15.4102 20H19.4102C19.9406 20 20.4493 19.7893 20.8244 19.4142C21.1994 19.0391 21.4102 18.5304 21.4102 18V4C21.4102 3.46957 21.1994 2.96086 20.8244 2.58579C20.4493 2.21071 19.9406 2 19.4102 2ZM14.2902 12.88L12.4102 17L10.5302 12.88L6.41016 11L10.5302 9.12L12.4102 5L14.2902 9.12L18.4102 11" fill="black"/>
</g>
</svg>
