<svg width="25" height="24" viewBox="0 0 25 24" fill="none" xmlns="http://www.w3.org/2000/svg">
<g id="1035">
<path id="Vector" d="M12.4062 4L10.3162 6.09L12.4062 8.18M4.67625 3L3.40625 4.27L8.13625 9H3.40625V15H7.40625L12.4062 20V13.27L16.6562 17.53C15.9862 18.04 15.2362 18.46 14.4062 18.7V20.77C15.7862 20.45 17.0363 19.82 18.0863 18.96L20.1362 21L21.4062 19.73L12.4062 10.73M19.4062 12C19.4062 12.94 19.2062 13.82 18.8662 14.64L20.3762 16.15C21.0262 14.91 21.4062 13.5 21.4062 12C21.4062 7.72 18.4062 4.14 14.4062 3.23V5.29C17.2963 6.15 19.4062 8.83 19.4062 12ZM16.9062 12C16.9062 10.23 15.9062 8.71 14.4062 7.97V10.18L16.8563 12.63C16.9063 12.43 16.9062 12.21 16.9062 12Z" fill="black"/>
</g>
</svg>
