<svg width="25" height="24" viewBox="0 0 25 24" fill="none" xmlns="http://www.w3.org/2000/svg">
<g id="1040">
<path id="Vector" d="M18.4062 13H17.7262L15.7262 15H17.6362L19.4062 17H5.40625L7.18625 15H9.23625L7.23625 13H6.40625L3.40625 16V20C3.40625 20.5305 3.61696 21.0392 3.99204 21.4143C4.36711 21.7893 4.87582 22 5.40625 22H19.4062C19.9367 22 20.4454 21.7893 20.8205 21.4143C21.1955 21.0392 21.4062 20.5305 21.4062 20V16L18.4062 13ZM17.4062 7.95004L12.4563 12.9L8.90625 9.36004L13.8663 4.41004L17.4062 7.95004ZM13.1663 2.29004L6.79625 8.66004C6.40625 9.05004 6.40625 9.68004 6.79625 10.07L11.7463 15C12.1363 15.41 12.7663 15.41 13.1562 15L19.5163 8.66004C19.9063 8.27004 19.9063 7.64004 19.5163 7.25004L14.5662 2.30004C14.1862 1.90004 13.5563 1.90004 13.1663 2.29004Z" fill="black"/>
</g>
</svg>
