<svg width="25" height="24" viewBox="0 0 25 24" fill="none" xmlns="http://www.w3.org/2000/svg">
<g id="1041">
<path id="Vector" d="M18.4062 13L21.4062 16V20C21.4062 21.11 20.5063 22 19.4062 22H5.40625C4.29625 22 3.40625 21.1 3.40625 20V16L6.40625 13H7.23625L9.23625 15H7.18625L5.40625 17H19.4062L17.6362 15H15.7262L17.7262 13H18.4062ZM19.4062 20V19H5.40625V20H19.4062ZM11.7463 15L6.79625 10.07C6.40625 9.68004 6.40625 9.05004 6.79625 8.66004L13.1663 2.29004C13.5563 1.90004 14.1862 1.90004 14.5662 2.30004L19.5163 7.25004C19.9063 7.64004 19.9063 8.27004 19.5163 8.66004L13.1562 15C12.7663 15.41 12.1363 15.41 11.7463 15ZM13.8663 4.41004L8.90625 9.36004L12.4563 12.9L17.4062 7.95004L13.8663 4.41004Z" fill="black"/>
</g>
</svg>
