<svg width="25" height="24" viewBox="0 0 25 24" fill="none" xmlns="http://www.w3.org/2000/svg">
<g id="1042">
<path id="Vector" d="M9.40625 5H15.4062L12.4062 8L9.40625 5ZM10.9062 14.66C10.6062 15 10.4062 15.5 10.4062 16C10.4062 16.5304 10.617 17.0391 10.992 17.4142C11.3671 17.7893 11.8758 18 12.4062 18C12.9367 18 13.4454 17.7893 13.8205 17.4142C14.1955 17.0391 14.4062 16.5304 14.4062 16C14.4062 15.45 14.1862 14.95 13.8162 14.59L15.2362 13.17C15.9562 13.9 16.4062 14.9 16.4062 16C16.4062 17.0609 15.9848 18.0783 15.2347 18.8284C14.4845 19.5786 13.4671 20 12.4062 20C11.3454 20 10.328 19.5786 9.57782 18.8284C8.82768 18.0783 8.40625 17.0609 8.40625 16C8.40625 14.93 8.82625 13.96 9.50625 13.25L9.49625 13.24L16.5763 6.17C17.2963 5.45 18.2962 5 19.4062 5C20.4671 5 21.4845 5.42143 22.2347 6.17157C22.9848 6.92172 23.4062 7.93913 23.4062 9C23.4062 10.0609 22.9848 11.0783 22.2347 11.8284C21.4845 12.5786 20.4671 13 19.4062 13C18.3062 13 17.3063 12.55 16.5763 11.83L17.9963 10.41C18.3563 10.78 18.8562 11 19.4062 11C19.9367 11 20.4454 10.7893 20.8205 10.4142C21.1955 10.0391 21.4062 9.53043 21.4062 9C21.4062 8.46957 21.1955 7.96086 20.8205 7.58579C20.4454 7.21071 19.9367 7 19.4062 7C18.8562 7 18.3563 7.22 17.9963 7.59L10.9062 14.66ZM6.81625 7.59C6.45625 7.22 5.95625 7 5.40625 7C4.87582 7 4.36711 7.21071 3.99204 7.58579C3.61696 7.96086 3.40625 8.46957 3.40625 9C3.40625 9.53043 3.61696 10.0391 3.99204 10.4142C4.36711 10.7893 4.87582 11 5.40625 11C5.95625 11 6.45625 10.78 6.81625 10.41L8.23625 11.83C7.50625 12.55 6.50625 13 5.40625 13C4.34538 13 3.32797 12.5786 2.57782 11.8284C1.82768 11.0783 1.40625 10.0609 1.40625 9C1.40625 7.93913 1.82768 6.92172 2.57782 6.17157C3.32797 5.42143 4.34538 5 5.40625 5C6.51625 5 7.51625 5.45 8.23625 6.17L10.9963 8.93L9.57625 10.35L6.81625 7.59Z" fill="black"/>
</g>
</svg>
