<svg width="25" height="24" viewBox="0 0 25 24" fill="none" xmlns="http://www.w3.org/2000/svg">
<g id="1043">
<path id="Vector" d="M22.5462 15.34L22.5263 15.35C22.7563 15.63 22.9563 15.94 23.1063 16.27L23.1963 16.46C23.9063 18.15 23.4063 20.1 22.0963 21.32C20.9063 22.41 19.2462 22.7 17.7062 22.5C16.2462 22.32 14.9062 21.4 14.1362 20.13C13.9062 19.74 13.7062 19.3 13.6062 18.85C13.4762 18.5 13.4362 18.12 13.4062 17.75C13.3162 16.15 13.9563 14.45 15.1663 13.45C14.6163 14.66 14.7462 16.17 15.5562 17.22L15.6663 17.35C15.8063 17.47 15.9762 17.5 16.1362 17.44C16.2862 17.38 16.4062 17.23 16.4062 17.07L16.3363 16.83C15.4563 14.5 16.1962 11.8 18.0662 10.27C18.5762 9.85 19.2062 9.47 19.8662 9.3C19.1862 10.66 19.4063 12.44 20.4963 13.5C20.9563 14 21.5162 14.29 21.9862 14.73L22.5462 15.34ZM20.2663 20L20.2563 19.97C20.7063 19.58 20.9563 18.91 20.9363 18.31L20.9062 18C20.7062 17 19.8363 16.66 19.2763 15.93L18.8463 15.15C18.6263 15.65 18.6063 16.12 18.6963 16.66C18.7963 17.23 19.0162 17.72 18.9062 18.31C18.7463 18.96 18.2363 19.61 17.3463 19.82C17.8463 20.31 18.6562 20.7 19.4662 20.42C19.7262 20.35 20.0563 20.16 20.2663 20ZM3.40625 16H11.4663L11.4062 17C11.4062 18.41 11.7663 19.73 12.4062 20.88V21H3.40625V16ZM2.40625 10H8.40625V15H2.40625V10ZM9.40625 10H15.4062V10.07C13.5762 11.13 12.1963 12.9 11.6562 15H9.40625V10ZM3.40625 4H11.4062V9H3.40625V4ZM12.4062 4H21.4062V9H12.4062V4Z" fill="black"/>
</g>
</svg>
