<svg width="25" height="24" viewBox="0 0 25 24" fill="none" xmlns="http://www.w3.org/2000/svg">
<g id="1045">
<path id="Vector" d="M14.5262 9.99995H19.4062V8.19995H15.7863L13.7863 4.86995C13.4863 4.36995 12.9463 4.02995 12.3263 4.02995C12.1463 4.02995 11.9863 4.05995 11.8263 4.10995L6.40625 5.79995V11H8.20625V7.32995L10.3162 6.66995L6.40625 22H8.20625L11.0763 13.89L13.4062 17V22H15.2063V15.59L12.7163 11.05L13.4462 8.17995M14.4062 3.79995C15.4062 3.79995 16.2063 2.99995 16.2063 1.99995C16.2063 0.999951 15.4062 0.199951 14.4062 0.199951C13.4062 0.199951 12.6062 0.999951 12.6062 1.99995C12.6062 2.99995 13.4062 3.79995 14.4062 3.79995Z" fill="black"/>
</g>
</svg>
