<svg width="25" height="24" viewBox="0 0 25 24" fill="none" xmlns="http://www.w3.org/2000/svg">
<g id="1053">
<path id="Vector" d="M11.4062 5V8H13.4062V5H11.4062ZM5.31625 7.5L3.90625 8.91L5.67625 10.68L7.08625 9.27L5.31625 7.5ZM19.4963 7.5L17.7262 9.27L19.1362 10.68L20.9062 8.91L19.4963 7.5ZM18.0662 14C17.5962 15.33 16.6662 16.5 15.4062 17.19C14.4862 17.72 13.4462 18 12.4062 18C11.3663 18 10.3263 17.72 9.40625 17.19C8.14625 16.5 7.21625 15.33 6.74625 14H18.0662ZM20.4062 12H4.40625C4.40625 14.86 5.90625 17.5 8.40625 18.93C9.65625 19.65 11.0362 20 12.4062 20C13.7763 20 15.1562 19.65 16.4062 18.93C18.9062 17.5 20.4062 14.86 20.4062 12Z" fill="black"/>
</g>
</svg>
