<svg width="25" height="24" viewBox="0 0 25 24" fill="none" xmlns="http://www.w3.org/2000/svg">
<g id="1054">
<g id="Group">
<path id="Vector" d="M3.40625 0V3H0.40625V5H3.40625V8H5.40625V5H8.40625V3H5.40625V0H3.40625ZM9.40625 3V6H6.40625V9H3.40625V19C3.40625 20.1 4.29625 21 5.40625 21H19.4062C20.5163 21 21.4062 20.11 21.4062 19V18H12.4062C11.3062 18 10.4062 17.11 10.4062 16V8C10.4062 6.9 11.2962 6 12.4062 6H21.4062V5C21.4062 3.9 20.5163 3 19.4062 3H9.40625ZM12.4062 8V16H22.4062V8H12.4062ZM16.4062 10.5C17.2362 10.5 17.9062 11.17 17.9062 12C17.9062 12.83 17.2362 13.5 16.4062 13.5C15.5763 13.5 14.9062 12.83 14.9062 12C14.9062 11.17 15.5763 10.5 16.4062 10.5Z" fill="black"/>
</g>
</g>
</svg>
