<svg width="25" height="24" viewBox="0 0 25 24" fill="none" xmlns="http://www.w3.org/2000/svg">
<g id="1056">
<path id="Vector" d="M5.40625 3C4.29625 3 3.40625 3.9 3.40625 5V19C3.40625 19.5304 3.61696 20.0391 3.99204 20.4142C4.36711 20.7893 4.87582 21 5.40625 21H19.4062C19.9367 21 20.4454 20.7893 20.8205 20.4142C21.1955 20.0391 21.4062 19.5304 21.4062 19V16.72C21.9962 16.37 22.4062 15.74 22.4062 15V9C22.4062 8.26 21.9962 7.63 21.4062 7.28V5C21.4062 4.46957 21.1955 3.96086 20.8205 3.58579C20.4454 3.21071 19.9367 3 19.4062 3H5.40625ZM5.40625 5H19.4062V7H13.4062C12.8758 7 12.3671 7.21071 11.992 7.58579C11.617 7.96086 11.4062 8.46957 11.4062 9V15C11.4062 15.5304 11.617 16.0391 11.992 16.4142C12.3671 16.7893 12.8758 17 13.4062 17H19.4062V19H5.40625V5ZM13.4062 9H20.4062V15H13.4062V9ZM16.4062 10.5C16.0084 10.5 15.6269 10.658 15.3456 10.9393C15.0643 11.2206 14.9063 11.6022 14.9062 12C14.9063 12.3978 15.0643 12.7794 15.3456 13.0607C15.6269 13.342 16.0084 13.5 16.4062 13.5C16.8041 13.5 17.1856 13.342 17.4669 13.0607C17.7482 12.7794 17.9062 12.3978 17.9062 12C17.9062 11.6022 17.7482 11.2206 17.4669 10.9393C17.1856 10.658 16.8041 10.5 16.4062 10.5Z" fill="black"/>
</g>
</svg>
