<svg width="25" height="24" viewBox="0 0 25 24" fill="none" xmlns="http://www.w3.org/2000/svg">
<g id="1058">
<path id="Vector" d="M13.4062 19V16H11.4062V19H13.4062ZM19.4963 16.5L20.9062 15.09L19.1362 13.32L17.7262 14.73L19.4963 16.5ZM5.31625 16.5L7.08625 14.73L5.67625 13.32L3.90625 15.09L5.31625 16.5ZM12.4062 6C13.4462 6 14.4862 6.28 15.4062 6.81C16.6662 7.5 17.5962 8.67 18.0662 10H6.74625C7.21625 8.67 8.14625 7.5 9.40625 6.81C10.3263 6.28 11.3663 6 12.4062 6ZM12.4062 4C11.0362 4 9.65625 4.36 8.40625 5.07C5.90625 6.5 4.40625 9.14 4.40625 12H20.4062C20.4062 9.14 18.9062 6.5 16.4062 5.07C15.1562 4.36 13.7862 4 12.4062 4Z" fill="black"/>
</g>
</svg>
