<svg width="25" height="24" viewBox="0 0 25 24" fill="none" xmlns="http://www.w3.org/2000/svg">
<g id="1061">
<path id="Vector" d="M21.4062 18V19C21.4062 19.5304 21.1955 20.0391 20.8205 20.4142C20.4454 20.7893 19.9367 21 19.4062 21H5.40625C4.29625 21 3.40625 20.1 3.40625 19V5C3.40625 4.46957 3.61696 3.96086 3.99204 3.58579C4.36711 3.21071 4.87582 3 5.40625 3H19.4062C19.9367 3 20.4454 3.21071 20.8205 3.58579C21.1955 3.96086 21.4062 4.46957 21.4062 5V6H12.4062C11.2962 6 10.4062 6.9 10.4062 8V16C10.4062 16.5304 10.617 17.0391 10.992 17.4142C11.3671 17.7893 11.8758 18 12.4062 18M12.4062 16H22.4062V8H12.4062M16.4062 13.5C16.0084 13.5 15.6269 13.342 15.3456 13.0607C15.0643 12.7794 14.9063 12.3978 14.9062 12C14.9062 11.6022 15.0643 11.2206 15.3456 10.9393C15.6269 10.658 16.0084 10.5 16.4062 10.5C16.8041 10.5 17.1856 10.658 17.4669 10.9393C17.7482 11.2206 17.9062 11.6022 17.9062 12C17.9062 12.3978 17.7482 12.7794 17.4669 13.0607C17.1856 13.342 16.8041 13.5 16.4062 13.5Z" fill="black"/>
</g>
</svg>
