<svg width="25" height="24" viewBox="0 0 25 24" fill="none" xmlns="http://www.w3.org/2000/svg">
<g id="1062">
<path id="Vector" d="M20.4062 14H4.40625V8H9.48625L7.40625 10.83L9.02625 12L11.4062 8.76L12.4062 7.4L13.4062 8.76L15.7863 12L17.4062 10.83L15.3263 8H20.4062M20.4062 19H4.40625V17H20.4062M9.40625 4C9.67147 4 9.92582 4.10536 10.1134 4.29289C10.3009 4.48043 10.4062 4.73478 10.4062 5C10.4062 5.26522 10.3009 5.51957 10.1134 5.70711C9.92582 5.89464 9.67147 6 9.40625 6C9.14103 6 8.88668 5.89464 8.69914 5.70711C8.51161 5.51957 8.40625 5.26522 8.40625 5C8.40625 4.73478 8.51161 4.48043 8.69914 4.29289C8.88668 4.10536 9.14103 4 9.40625 4ZM15.4062 4C15.6715 4 15.9258 4.10536 16.1134 4.29289C16.3009 4.48043 16.4062 4.73478 16.4062 5C16.4062 5.26522 16.3009 5.51957 16.1134 5.70711C15.9258 5.89464 15.6715 6 15.4062 6C15.141 6 14.8867 5.89464 14.6991 5.70711C14.5116 5.51957 14.4062 5.26522 14.4062 5C14.4062 4.73478 14.5116 4.48043 14.6991 4.29289C14.8867 4.10536 15.141 4 15.4062 4ZM20.4062 6H18.2262C18.3362 5.69 18.4062 5.35 18.4062 5C18.4062 4.20435 18.0902 3.44129 17.5276 2.87868C16.965 2.31607 16.2019 2 15.4062 2C14.3563 2 13.4463 2.54 12.9062 3.35L12.4062 4L11.9062 3.34C11.3662 2.54 10.4562 2 9.40625 2C8.6106 2 7.84754 2.31607 7.28493 2.87868C6.72232 3.44129 6.40625 4.20435 6.40625 5C6.40625 5.35 6.47625 5.69 6.58625 6H4.40625C3.29625 6 2.40625 6.89 2.40625 8V19C2.40625 20.11 3.29625 21 4.40625 21H20.4062C21.5163 21 22.4062 20.11 22.4062 19V8C22.4062 6.89 21.5163 6 20.4062 6Z" fill="black"/>
</g>
</svg>
