<svg width="25" height="24" viewBox="0 0 25 24" fill="none" xmlns="http://www.w3.org/2000/svg">
<g id="1063">
<g id="Group">
<path id="Vector" d="M3.40625 0V3H0.40625V5H3.40625V8H5.40625V5H8.40625V3H5.40625V0H3.40625ZM10.4062 3V5H19.4062V7H13.4062C12.3062 7 11.4062 7.9 11.4062 9V15C11.4062 16.1 12.3062 17 13.4062 17H19.4062V19H5.40625V10H3.40625V19C3.40625 20.1 4.29625 21 5.40625 21H19.4062C20.5063 21 21.4062 20.1 21.4062 19V16.72C21.9962 16.37 22.4062 15.74 22.4062 15V9C22.4062 8.26 21.9962 7.63 21.4062 7.28V5C21.4062 3.9 20.5063 3 19.4062 3H10.4062ZM13.4062 9H20.4062V15H13.4062V9ZM16.4062 10.5C16.0084 10.5 15.6269 10.658 15.3456 10.9393C15.0643 11.2206 14.9063 11.6022 14.9062 12C14.9063 12.3978 15.0643 12.7794 15.3456 13.0607C15.6269 13.342 16.0084 13.5 16.4062 13.5C16.8041 13.5 17.1856 13.342 17.4669 13.0607C17.7482 12.7794 17.9062 12.3978 17.9062 12C17.9062 11.6022 17.7482 11.2206 17.4669 10.9393C17.1856 10.658 16.8041 10.5 16.4062 10.5Z" fill="black"/>
</g>
</g>
</svg>
