<svg width="25" height="24" viewBox="0 0 25 24" fill="none" xmlns="http://www.w3.org/2000/svg">
<g id="1064">
<path id="Vector" d="M20.4062 14H4.40625V8H7.40625V10H9.40625V8H15.4062V10H17.4062V8H20.4062M20.4062 19H4.40625V17H20.4062M9.40625 4H15.4062V6H9.40625M20.4062 6H17.4062V4C17.4062 2.89 16.5163 2 15.4062 2H9.40625C8.29625 2 7.40625 2.89 7.40625 4V6H4.40625C3.29625 6 2.40625 6.89 2.40625 8V19C2.40625 20.11 3.29625 21 4.40625 21H20.4062C21.5163 21 22.4062 20.11 22.4062 19V8C22.4062 6.89 21.5163 6 20.4062 6Z" fill="black"/>
</g>
</svg>
