<svg width="25" height="24" viewBox="0 0 25 24" fill="none" xmlns="http://www.w3.org/2000/svg">
<g id="1065">
<path id="Vector" d="M4.40625 4H11.4062V2H4.40625C3.87582 2 3.36711 2.21071 2.99204 2.58579C2.61696 2.96086 2.40625 3.46957 2.40625 4V11H4.40625V4ZM10.4062 13L6.40625 18H18.4062L15.4062 14L13.3763 16.71L10.4062 13ZM17.4062 8.5C17.4062 8.10218 17.2482 7.72064 16.9669 7.43934C16.6856 7.15804 16.3041 7 15.9062 7C15.5084 7 15.1269 7.15804 14.8456 7.43934C14.5643 7.72064 14.4063 8.10218 14.4062 8.5C14.4063 8.89782 14.5643 9.27936 14.8456 9.56066C15.1269 9.84196 15.5084 10 15.9062 10C16.3041 10 16.6856 9.84196 16.9669 9.56066C17.2482 9.27936 17.4062 8.89782 17.4062 8.5ZM20.4062 2H13.4062V4H20.4062V11H22.4062V4C22.4062 3.46957 22.1955 2.96086 21.8205 2.58579C21.4454 2.21071 20.9367 2 20.4062 2ZM20.4062 20H13.4062V22H20.4062C20.9367 22 21.4454 21.7893 21.8205 21.4142C22.1955 21.0391 22.4062 20.5304 22.4062 20V13H20.4062V20ZM4.40625 13H2.40625V20C2.40625 20.5304 2.61696 21.0391 2.99204 21.4142C3.36711 21.7893 3.87582 22 4.40625 22H11.4062V20H4.40625V13Z" fill="black"/>
</g>
</svg>
