<svg width="25" height="24" viewBox="0 0 25 24" fill="none" xmlns="http://www.w3.org/2000/svg">
<g id="1066">
<path id="Vector" d="M12.4062 2C10.2845 2 8.24969 2.84285 6.7494 4.34315C5.2491 5.84344 4.40625 7.87827 4.40625 10C4.40625 14.03 7.40625 17.42 11.4062 17.93V19H10.4062C10.141 19 9.88668 19.1054 9.69914 19.2929C9.51161 19.4804 9.40625 19.7348 9.40625 20H2.40625V22H9.40625C9.40625 22.2652 9.51161 22.5196 9.69914 22.7071C9.88668 22.8946 10.141 23 10.4062 23H14.4062C14.6715 23 14.9258 22.8946 15.1134 22.7071C15.3009 22.5196 15.4062 22.2652 15.4062 22H22.4062V20H15.4062C15.4062 19.7348 15.3009 19.4804 15.1134 19.2929C14.9258 19.1054 14.6715 19 14.4062 19H13.4062V17.93C17.4062 17.43 20.4062 14.03 20.4062 10C20.4062 7.87827 19.5634 5.84344 18.0631 4.34315C16.5628 2.84285 14.528 2 12.4062 2ZM12.4062 4C12.4062 4 13.1463 5.28 13.6663 7H11.1462C11.6662 5.28 12.4062 4 12.4062 4ZM10.1763 4.43C9.90625 4.93 9.49625 5.84 9.14625 7H7.21625C7.90625 5.84 8.90625 4.93 10.1763 4.43ZM14.6362 4.44C15.9062 4.94 16.9063 5.84 17.5963 7H15.6663C15.3163 5.84 14.9062 4.93 14.6362 4.44ZM6.49625 9H8.72625C8.68625 9.33 8.65625 9.66 8.65625 10C8.65625 10.34 8.68625 10.67 8.72625 11H6.49625C6.43625 10.67 6.40625 10.34 6.40625 10C6.40625 9.66 6.43625 9.33 6.49625 9ZM10.7262 9H14.0863C14.1263 9.33 14.1562 9.66 14.1562 10C14.1562 10.34 14.1263 10.67 14.0863 11H10.7262C10.6862 10.67 10.6562 10.34 10.6562 10C10.6562 9.66 10.6862 9.33 10.7262 9ZM16.0863 9H18.3162C18.3762 9.33 18.4062 9.66 18.4062 10C18.4062 10.34 18.3762 10.67 18.3162 11H16.0863C16.1263 10.67 16.1562 10.34 16.1562 10C16.1562 9.66 16.1263 9.33 16.0863 9ZM7.21625 13H9.14625C9.49625 14.16 9.90625 15.07 10.1763 15.56C8.90625 15.06 7.90625 14.16 7.21625 13ZM11.1462 13H13.6663C13.1463 14.72 12.4062 16 12.4062 16C12.4062 16 11.6662 14.72 11.1462 13ZM15.6663 13H17.5963C16.9063 14.16 15.9062 15.07 14.6362 15.57C14.9062 15.07 15.3163 14.16 15.6663 13Z" fill="black"/>
</g>
</svg>
