<svg width="25" height="24" viewBox="0 0 25 24" fill="none" xmlns="http://www.w3.org/2000/svg">
<g id="1068">
<path id="Vector" d="M22.5156 21.46L2.79563 1.72998L1.51562 2.99998L4.40563 5.88998V20C4.40563 21.11 5.29563 22 6.40563 22H18.4056C18.9856 22 19.5056 21.75 19.8656 21.35L21.2456 22.73L22.5156 21.46ZM12.4056 20C9.09563 20 6.40563 17.31 6.40563 14C6.40563 12.32 7.10563 10.8 8.22563 9.70998L12.4656 13.95L9.57563 16.83C11.1356 18.39 13.6756 18.39 15.2356 16.83C15.2556 16.81 15.2656 16.79 15.2856 16.77L16.6956 18.18C15.6056 19.3 14.0956 20 12.4056 20ZM11.6556 8.04998C11.9056 7.99998 12.1556 7.99998 12.4056 7.99998C15.7156 7.99998 18.4056 10.69 18.4056 14C18.4056 14.25 18.4056 14.5 18.3556 14.75L20.4056 16.8V3.99998C20.4056 2.89998 19.5156 1.99998 18.4056 1.99998H6.40563C6.16563 1.99998 5.94563 2.04998 5.73563 2.12998L11.6556 8.04998ZM10.4056 3.99998C10.9556 3.99998 11.4056 4.44998 11.4056 4.99998C11.4056 5.54998 10.9556 5.99998 10.4056 5.99998C9.85563 5.99998 9.40562 5.54998 9.40562 4.99998C9.40562 4.44998 9.85563 3.99998 10.4056 3.99998Z" fill="black"/>
</g>
</svg>
