<svg width="25" height="24" viewBox="0 0 25 24" fill="none" xmlns="http://www.w3.org/2000/svg">
<g id="1069">
<path id="Vector" d="M13.2362 11.17C14.7962 12.73 14.7962 15.27 13.2362 16.83C11.6762 18.39 9.13625 18.39 7.57625 16.83L13.2362 11.17ZM4.40625 2H16.4062C17.5163 2 18.4062 2.9 18.4062 4V20C18.4062 21.11 17.5163 22 16.4062 22H4.40625C3.30625 22 2.40625 21.11 2.40625 20V4C2.40625 2.9 3.30625 2 4.40625 2ZM5.40625 4C4.85625 4 4.40625 4.45 4.40625 5C4.40625 5.55 4.85625 6 5.40625 6C5.95625 6 6.40625 5.55 6.40625 5C6.40625 4.45 5.95625 4 5.40625 4ZM8.40625 4C7.85625 4 7.40625 4.45 7.40625 5C7.40625 5.55 7.85625 6 8.40625 6C8.95625 6 9.40625 5.55 9.40625 5C9.40625 4.45 8.95625 4 8.40625 4ZM10.4062 8C7.09625 8 4.40625 10.69 4.40625 14C4.40625 17.31 7.09625 20 10.4062 20C13.7162 20 16.4062 17.31 16.4062 14C16.4062 10.69 13.7162 8 10.4062 8ZM20.4062 15H22.4062V17H20.4062V15ZM20.4062 7H22.4062V13H20.4062V7Z" fill="black"/>
</g>
</svg>
