<svg width="25" height="24" viewBox="0 0 25 24" fill="none" xmlns="http://www.w3.org/2000/svg">
<g id="107">
<path id="Vector" d="M12.4095 14L16.4095 10L20.4095 14H17.3095C16.8495 18.56 14.8295 22 12.4095 22C10.5295 22 8.87953 19.92 8.02953 16.84L9.77953 15.83C10.2795 18.31 11.2695 20 12.4095 20C13.8095 20 14.9795 17.45 15.3195 14H12.4095ZM1.51953 17.13L14.2995 9.75L14.3695 10.54L10.9095 14H10.9495L2.51953 18.87L1.51953 17.13ZM22.2995 5.13L23.2995 6.87L18.2895 9.76C18.1995 9.03 18.0795 8.33 17.9095 7.66L22.2995 5.13ZM12.4095 2C14.7095 2 16.6395 5.1 17.2295 9.32L16.4095 8.5L15.2795 9.63C14.9095 6.37 13.7595 4 12.4095 4C10.8295 4 9.52953 7.27 9.40953 11.42L7.40953 12.57V12C7.40953 6.5 9.64953 2 12.4095 2Z" fill="black"/>
</g>
</svg>
