<svg width="25" height="24" viewBox="0 0 25 24" fill="none" xmlns="http://www.w3.org/2000/svg">
<g id="1070">
<path id="Vector" d="M15.2362 11.17C16.7962 12.73 16.7962 15.27 15.2362 16.83C13.6762 18.39 11.1363 18.39 9.57625 16.83L15.2362 11.17ZM6.40625 2H18.4062C18.9367 2 19.4454 2.21071 19.8205 2.58579C20.1955 2.96086 20.4062 3.46957 20.4062 4V20C20.4062 20.5304 20.1955 21.0391 19.8205 21.4142C19.4454 21.7893 18.9367 22 18.4062 22H6.40625C5.87582 22 5.36711 21.7893 4.99204 21.4142C4.61696 21.0391 4.40625 20.5304 4.40625 20V4C4.40625 3.46957 4.61696 2.96086 4.99204 2.58579C5.36711 2.21071 5.87582 2 6.40625 2ZM7.40625 4C7.14103 4 6.88668 4.10536 6.69914 4.29289C6.51161 4.48043 6.40625 4.73478 6.40625 5C6.40625 5.26522 6.51161 5.51957 6.69914 5.70711C6.88668 5.89464 7.14103 6 7.40625 6C7.67147 6 7.92582 5.89464 8.11336 5.70711C8.30089 5.51957 8.40625 5.26522 8.40625 5C8.40625 4.73478 8.30089 4.48043 8.11336 4.29289C7.92582 4.10536 7.67147 4 7.40625 4ZM10.4062 4C10.141 4 9.88668 4.10536 9.69914 4.29289C9.51161 4.48043 9.40625 4.73478 9.40625 5C9.40625 5.26522 9.51161 5.51957 9.69914 5.70711C9.88668 5.89464 10.141 6 10.4062 6C10.6715 6 10.9258 5.89464 11.1134 5.70711C11.3009 5.51957 11.4062 5.26522 11.4062 5C11.4062 4.73478 11.3009 4.48043 11.1134 4.29289C10.9258 4.10536 10.6715 4 10.4062 4ZM12.4062 8C10.815 8 9.28883 8.63214 8.16361 9.75736C7.03839 10.8826 6.40625 12.4087 6.40625 14C6.40625 15.5913 7.03839 17.1174 8.16361 18.2426C9.28883 19.3679 10.815 20 12.4062 20C13.9975 20 15.5237 19.3679 16.6489 18.2426C17.7741 17.1174 18.4062 15.5913 18.4062 14C18.4062 12.4087 17.7741 10.8826 16.6489 9.75736C15.5237 8.63214 13.9975 8 12.4062 8Z" fill="black"/>
</g>
</svg>
