<svg width="25" height="24" viewBox="0 0 25 24" fill="none" xmlns="http://www.w3.org/2000/svg">
<g id="1073">
<path id="Vector" d="M6.40625 12C6.40625 10.4087 7.03839 8.88258 8.16361 7.75736C9.28883 6.63214 10.815 6 12.4062 6C13.9975 6 15.5237 6.63214 16.6489 7.75736C17.7741 8.88258 18.4062 10.4087 18.4062 12C18.4062 13.5913 17.7741 15.1174 16.6489 16.2426C15.5237 17.3679 13.9975 18 12.4062 18C10.815 18 9.28883 17.3679 8.16361 16.2426C7.03839 15.1174 6.40625 13.5913 6.40625 12ZM20.4062 12C20.4062 9.45 19.2163 7.19 17.3563 5.73L16.4062 0H8.40625L7.45625 5.73C5.59625 7.19 4.40625 9.45 4.40625 12C4.40625 14.54 5.59625 16.81 7.45625 18.27L8.40625 24H16.4062L17.3563 18.27C19.2163 16.81 20.4062 14.54 20.4062 12Z" fill="black"/>
</g>
</svg>
