<svg width="25" height="24" viewBox="0 0 25 24" fill="none" xmlns="http://www.w3.org/2000/svg">
<g id="1074">
<path id="Vector" d="M14.4062 11H19.4062L16.9062 8.5L18.3263 7.08L23.2463 12L18.3263 16.92L16.9062 15.5L19.4062 13H14.4062V11ZM12.4062 18C10.815 18 9.28883 17.3679 8.16361 16.2426C7.03839 15.1174 6.40625 13.5913 6.40625 12C6.40625 10.4087 7.03839 8.88258 8.16361 7.75736C9.28883 6.63214 10.815 6 12.4062 6C13.8062 6 15.0963 6.5 16.1163 7.29L17.5362 5.87L17.3563 5.73L16.4062 0H8.40625L7.45625 5.73C5.59625 7.19 4.40625 9.46 4.40625 12C4.40625 14.55 5.59625 16.81 7.45625 18.27L8.40625 24H16.4062L17.3563 18.27L17.5362 18.13L16.1163 16.71C15.0963 17.5 13.8062 18 12.4062 18Z" fill="black"/>
</g>
</svg>
