<svg width="25" height="24" viewBox="0 0 25 24" fill="none" xmlns="http://www.w3.org/2000/svg">
<g id="1075">
<path id="Vector" d="M2.40625 11H7.40625L4.90625 8.5L6.32625 7.08L11.2463 12L6.32625 16.92L4.90625 15.5L7.40625 13H2.40625V11ZM12.4062 18C13.9975 18 15.5237 17.3679 16.6489 16.2426C17.7741 15.1174 18.4062 13.5913 18.4062 12C18.4062 10.4087 17.7741 8.88258 16.6489 7.75736C15.5237 6.63214 13.9975 6 12.4062 6C11.0063 6 9.71625 6.5 8.69625 7.29L7.27625 5.87L7.45625 5.73L8.40625 0H16.4062L17.3563 5.73C19.2163 7.19 20.4062 9.45 20.4062 12C20.4062 14.54 19.2163 16.81 17.3563 18.27L16.4062 24H8.40625L7.45625 18.27L7.27625 18.13L8.69625 16.71C9.71625 17.5 11.0063 18 12.4062 18Z" fill="black"/>
</g>
</svg>
