<svg width="25" height="24" viewBox="0 0 25 24" fill="none" xmlns="http://www.w3.org/2000/svg">
<g id="1076">
<path id="Vector" d="M14.4062 11H19.4062L16.9062 8.5L18.3263 7.08L23.2463 12L18.3263 16.92L16.9062 15.5L19.4062 13H14.4062V11ZM8.40625 0H16.4062L17.2362 5H17.4062C17.6863 5 17.9463 5.06 18.1863 5.16L16.3462 7H7.40625V17H16.3462L18.1863 18.84C17.9463 18.94 17.6863 19 17.4062 19H17.2362L16.4062 24H8.40625L7.57625 19H7.40625C6.87582 19 6.36711 18.7893 5.99204 18.4142C5.61696 18.0391 5.40625 17.5304 5.40625 17V7C5.40625 5.89 6.30625 5 7.40625 5H7.57625L8.40625 0Z" fill="black"/>
</g>
</svg>
