<svg width="25" height="24" viewBox="0 0 25 24" fill="none" xmlns="http://www.w3.org/2000/svg">
<g id="1077">
<path id="Vector" d="M1.40625 11H6.40625L3.90625 8.5L5.32625 7.08L10.2463 12L5.32625 16.92L3.90625 15.5L6.40625 13H1.40625V11ZM8.40625 0H16.4062L17.2362 5H17.4062C17.9367 5 18.4454 5.21071 18.8205 5.58579C19.1955 5.96086 19.4062 6.46957 19.4062 7V17C19.4062 18.11 18.5063 19 17.4062 19H17.2362L16.4062 24H8.40625L7.57625 19H7.40625C6.86625 19 6.40625 18.79 6.02625 18.44L7.46625 17H17.4062V7H7.46625L6.02625 5.56C6.40625 5.21 6.86625 5 7.40625 5H7.57625L8.40625 0Z" fill="black"/>
</g>
</svg>
