<svg width="25" height="24" viewBox="0 0 25 24" fill="none" xmlns="http://www.w3.org/2000/svg">
<g id="1079">
<g id="Group">
<path id="Vector" d="M0.40625 8.99998H2.40625V15H0.40625V8.99998ZM12.4062 7.49998C14.8763 7.49998 16.8762 9.52998 16.8662 12C16.8562 12.38 16.8062 12.76 16.7062 13.13L17.9062 14.31C18.2163 13.58 18.4062 12.8 18.4062 12C18.4062 10.17 17.5663 8.43998 16.1263 7.30998L15.4062 2.99998H9.40625L8.99625 5.38998L11.2662 7.65998C11.6362 7.54998 12.0163 7.49998 12.4062 7.49998ZM21.4062 17V6.99998H19.4062V15.8L20.6063 17H21.4062ZM16.9062 15.86L22.5163 21.46L21.2463 22.73L15.9563 17.44L15.4062 21H9.40625L8.67625 16.72C6.25625 14.82 5.67625 11.4 7.31625 8.79998L1.51625 2.99998L2.79625 1.72998L8.49625 7.43998L9.57625 8.49998L15.8462 14.79L16.9062 15.86ZM14.4563 15.94L8.45625 9.93998C8.10625 10.57 7.90625 11.28 7.90625 12C7.90625 14.47 9.93625 16.47 12.4062 16.46C13.1263 16.46 13.8263 16.28 14.4563 15.94ZM22.4062 8.99998V15H24.4062V8.99998H22.4062ZM3.40625 17H5.40625V6.99998H3.40625V17Z" fill="black"/>
</g>
</g>
</svg>
