<svg width="25" height="24" viewBox="0 0 25 24" fill="none" xmlns="http://www.w3.org/2000/svg">
<g id="108">
<path id="Vector" d="M12.4095 10L16.4095 14L20.4095 10H17.3095C16.8495 5.44 14.8295 2 12.4095 2C10.5295 2 8.87953 4.08 8.02953 7.16L9.77953 8.17C10.2795 5.69 11.2695 4 12.4095 4C13.8095 4 14.9795 6.55 15.3195 10H12.4095ZM1.51953 6.87L14.2995 14.25L14.3695 13.46L10.9095 10H10.9495L2.51953 5.13L1.51953 6.87ZM22.2995 18.87L23.2995 17.13L18.2895 14.24C18.1995 14.97 18.0795 15.67 17.9095 16.34L22.2995 18.87ZM12.4095 22C14.7095 22 16.6395 18.9 17.2295 14.68L16.4095 15.5L15.2795 14.37C14.9095 17.63 13.7595 20 12.4095 20C10.8295 20 9.52953 16.73 9.40953 12.58L7.40953 11.43V12C7.40953 17.5 9.64953 22 12.4095 22Z" fill="black"/>
</g>
</svg>
