<svg width="25" height="24" viewBox="0 0 25 24" fill="none" xmlns="http://www.w3.org/2000/svg">
<g id="1081">
<g id="Group">
<path id="Vector" d="M3.40625 17V7H5.40625V17H3.40625ZM19.4062 17V7H21.4062V17H19.4062ZM22.4062 9H24.4062V15H22.4062V9ZM0.40625 15V9H2.40625V15H0.40625ZM18.3662 11.97C18.3662 13.87 17.4763 15.57 16.0863 16.67L15.3763 20.95H9.40625L8.67625 16.67C7.28625 15.57 6.40625 13.87 6.40625 11.97C6.40625 10.07 7.28625 8.37 8.67625 7.28L9.40625 3H15.3763L16.0863 7.28C17.4763 8.37 18.3662 10.07 18.3662 11.97ZM7.90625 11.97C7.90625 14.45 9.90625 16.46 12.3763 16.46C13.5663 16.4574 14.7068 15.9835 15.5482 15.142C16.3897 14.3005 16.8636 13.16 16.8662 11.97C16.8662 9.5 14.8563 7.5 12.3763 7.5C11.1907 7.5 10.0538 7.97095 9.21548 8.80923C8.3772 9.64752 7.90625 10.7845 7.90625 11.97Z" fill="black"/>
</g>
</g>
</svg>
