<svg width="25" height="24" viewBox="0 0 25 24" fill="none" xmlns="http://www.w3.org/2000/svg">
<g id="1082">
<path id="Vector" d="M8.40625 0L7.57625 5H7.40625C6.87582 5 6.36711 5.21071 5.99204 5.58579C5.61696 5.96086 5.40625 6.46957 5.40625 7V17C5.40625 18.11 6.30625 19 7.40625 19H7.57625L8.40625 24H16.4062L17.2362 19H17.4062C17.9367 19 18.4454 18.7893 18.8205 18.4142C19.1955 18.0391 19.4062 17.5304 19.4062 17V7C19.4062 5.89 18.5063 5 17.4062 5H17.2362L16.4062 0H8.40625ZM7.40625 7H17.4062V17H7.40625V7Z" fill="black"/>
</g>
</svg>
