<svg width="25" height="24" viewBox="0 0 25 24" fill="none" xmlns="http://www.w3.org/2000/svg">
<g id="1083">
<path id="Vector" d="M10.4062 3.25C10.4062 3.25 4.40625 10 4.40625 14C4.40625 17.31 7.09625 20 10.4062 20C13.7162 20 16.4062 17.31 16.4062 14C16.4062 10 10.4062 3.25 10.4062 3.25ZM10.4062 18C8.19625 18 6.40625 16.21 6.40625 14C6.40625 12.23 8.40625 8.96 10.4062 6.39C12.4062 8.95 14.4062 12.23 14.4062 14C14.4062 16.21 12.6163 18 10.4062 18ZM20.4062 7V13H18.4062V7H20.4062ZM18.4062 17H20.4062V15H18.4062V17Z" fill="black"/>
</g>
</svg>
