<svg width="25" height="24" viewBox="0 0 25 24" fill="none" xmlns="http://www.w3.org/2000/svg">
<g id="1084">
<path id="Vector" d="M8.40625 2C7.29625 2 6.40625 2.89 6.40625 4V16C6.40625 17.11 7.29625 18 8.40625 18H9.40625V20H6.40625V22H9.40625C10.5163 22 11.4062 21.11 11.4062 20V18H13.4062V20C13.4062 21.11 14.2962 22 15.4062 22H18.4062V20H15.4062V18H16.4062C17.5163 18 18.4062 17.11 18.4062 16V4C18.4062 2.89 17.5163 2 16.4062 2H8.40625ZM12.4062 4.97C12.9367 4.97 13.4454 5.18071 13.8205 5.55579C14.1955 5.93086 14.4062 6.43957 14.4062 6.97C14.4062 7.23264 14.3545 7.49272 14.254 7.73537C14.1535 7.97802 14.0062 8.1985 13.8205 8.38421C13.6347 8.56993 13.4143 8.71725 13.1716 8.81776C12.929 8.91827 12.6689 8.97 12.4062 8.97C11.8758 8.97 11.3671 8.75929 10.992 8.38421C10.617 8.00914 10.4062 7.50043 10.4062 6.97C10.4062 6.43957 10.617 5.93086 10.992 5.55579C11.3671 5.18071 11.8758 4.97 12.4062 4.97ZM10.4062 14.5H14.4062V16H10.4062V14.5Z" fill="black"/>
</g>
</svg>
