<svg width="25" height="24" viewBox="0 0 25 24" fill="none" xmlns="http://www.w3.org/2000/svg">
<g id="1085">
<path id="Vector" d="M6.40625 2C5.29625 2 4.40625 2.89 4.40625 4V16C4.40625 17.11 5.29625 18 6.40625 18H7.40625V20H4.40625V22H7.40625C8.51625 22 9.40625 21.11 9.40625 20V18H11.4062V20C11.4062 21.11 12.2962 22 13.4062 22H16.4062V20H13.4062V18H14.4062C15.5163 18 16.4062 17.11 16.4062 16V4C16.4062 2.89 15.5163 2 14.4062 2H6.40625ZM10.4062 4.97C11.5163 4.97 12.4062 5.87 12.4062 6.97C12.4062 8.07 11.5163 8.97 10.4062 8.97C9.30625 8.97 8.40625 8.07 8.40625 6.97C8.40625 5.87 9.30625 4.97 10.4062 4.97ZM8.40625 14.5H12.4062V16H8.40625V14.5ZM18.4062 15H20.4062V17H18.4062V15ZM18.4062 7H20.4062V13H18.4062V7Z" fill="black"/>
</g>
</svg>
