<svg width="25" height="24" viewBox="0 0 25 24" fill="none" xmlns="http://www.w3.org/2000/svg">
<g id="1086">
<path id="Vector" d="M4.40625 2C3.29625 2 2.40625 2.89 2.40625 4V16C2.40625 17.11 3.29625 18 4.40625 18H5.40625V20H2.40625V22H5.40625C6.51625 22 7.40625 21.11 7.40625 20V18H9.40625V20C9.40625 21.11 10.2962 22 11.4062 22H13.4062L14.1562 20H11.4062V18H12.4062C13.5163 18 14.4062 17.11 14.4062 16V4C14.4062 2.89 13.5163 2 12.4062 2H4.40625ZM8.40625 4.97C9.51625 4.97 10.4062 5.87 10.4062 6.97C10.4062 8.07 9.51625 8.97 8.40625 8.97C7.30625 8.97 6.40625 8.07 6.40625 6.97C6.40625 5.87 7.30625 4.97 8.40625 4.97ZM6.40625 14.5H10.4062V16H6.40625V14.5ZM20.2062 13H18.2062L15.0063 22H16.9062L17.6063 20H20.8062L21.5063 22H23.4062L20.2062 13ZM18.0063 18.7L19.2062 15L20.4062 18.7H18.0063Z" fill="black"/>
</g>
</svg>
