<svg width="25" height="24" viewBox="0 0 25 24" fill="none" xmlns="http://www.w3.org/2000/svg">
<g id="1087">
<path id="Vector" d="M10.4056 6.81998L6.65563 3.04998C6.99563 2.41998 7.64562 1.99998 8.40562 1.99998H16.4056C17.5156 1.99998 18.4056 2.88998 18.4056 3.99998V14.8L12.5656 8.95998C13.5956 8.86998 14.4056 7.99998 14.4056 6.96998C14.4056 5.86998 13.5156 4.96998 12.4056 4.96998C11.3556 4.96998 10.5056 5.77998 10.4056 6.81998ZM15.4056 18V20H18.4056V22H15.4056C14.2956 22 13.4056 21.11 13.4056 20V18H11.4056V20C11.4056 21.11 10.5156 22 9.40562 22H6.40563V20H9.40562V18H8.40562C7.29562 18 6.40563 17.11 6.40563 16V7.88998L1.51562 2.99998L2.79563 1.72998L22.5156 21.46L21.2456 22.73L16.5056 18C16.4656 18 16.4356 18 16.4056 18H15.4056ZM14.4056 16V15.89L13.0156 14.5H10.4056V16H14.4056Z" fill="black"/>
</g>
</svg>
