<svg width="25" height="24" viewBox="0 0 25 24" fill="none" xmlns="http://www.w3.org/2000/svg">
<g id="1088">
<path id="Vector" d="M22.4062 17V19H14.4062V17H22.4062ZM8.40625 14C8.40625 12.23 10.4062 8.96 12.4062 6.39C13.9062 8.33 15.4063 10.67 16.0763 12.47C16.6763 12.21 17.3363 12.06 18.0263 12C16.7163 8.1 12.4062 3.25 12.4062 3.25C12.4062 3.25 6.40625 10 6.40625 14C6.40625 17.31 9.09625 20 12.4062 20C12.5262 20 12.6363 20 12.7463 20C12.5263 19.36 12.4062 18.7 12.4062 18C10.1962 18 8.40625 16.21 8.40625 14Z" fill="black"/>
</g>
</svg>
