<svg width="25" height="24" viewBox="0 0 25 24" fill="none" xmlns="http://www.w3.org/2000/svg">
<g id="109">
<path id="Vector" d="M22.2101 5C22.8101 5 23.4101 5.6 23.4101 6.3V9.8C23.4101 10.4 22.8101 11 22.1101 11H16.6101C16.0101 11 15.4101 10.4 15.4101 9.7V6.2C15.4101 5.6 16.0101 5 16.6101 5V3.5C16.6101 2.1 18.0101 1 19.4101 1C20.8101 1 22.2101 2.1 22.2101 3.5V5ZM20.9101 5V3.5C20.9101 2.7 20.2101 2.2 19.4101 2.2C18.6101 2.2 17.9101 2.7 17.9101 3.5V5H20.9101ZM10.4101 2L14.4101 6H11.4101V13.82L20.8001 19.25L19.8001 21L10.4101 15.56L3.58008 19.5L2.58008 17.77L9.41008 13.82V6H6.41008L10.4101 2Z" fill="black"/>
</g>
</svg>
