<svg width="25" height="24" viewBox="0 0 25 24" fill="none" xmlns="http://www.w3.org/2000/svg">
<g id="1094">
<path id="Vector" d="M22.5156 21.46L2.79563 1.72998L1.51562 2.99998L8.05562 9.53998C7.14562 11.03 6.40563 12.65 6.40563 14.23C6.40563 17.54 9.09563 20.23 12.4056 20.23C14.1456 20.23 15.7056 19.5 16.8056 18.29L21.2456 22.73L22.5156 21.46ZM12.4056 18.23C10.1856 18.23 8.40562 16.45 8.40562 14.23C8.40562 13.5 8.90564 12.27 9.54564 11.03L15.4056 16.88C14.6656 17.71 13.6056 18.23 12.4056 18.23ZM11.5456 7.93998L10.1156 6.49998C10.9756 5.37998 11.6556 4.60998 11.6556 4.60998L12.4056 3.76998L13.1556 4.60998C13.1556 4.60998 14.4356 6.05998 15.7256 7.93998C17.0156 9.81998 18.4056 12.07 18.4056 14.23C18.4056 14.41 18.4056 14.59 18.3756 14.77L15.8656 12.26C15.4056 11.23 14.7756 10.07 14.0856 9.06998C13.2456 7.84998 12.8456 7.41998 12.4056 6.89998C12.1356 7.20998 11.9056 7.49998 11.5456 7.93998Z" fill="black"/>
</g>
</svg>
