<svg width="25" height="24" viewBox="0 0 25 24" fill="none" xmlns="http://www.w3.org/2000/svg">
<g id="1095">
<path id="Vector" d="M16.4062 14V12H18.0163C18.2563 12.71 18.4062 13.39 18.4062 14H16.4062ZM15.9862 8C15.5262 7.29 15.0562 6.61 14.6062 6H14.4062V8H15.9862ZM16.4062 12V10H14.4062V12H16.4062ZM16.4062 8.68V10H17.1462C16.9062 9.56 16.6662 9.11 16.4062 8.68ZM12.4062 16V14H14.4062V12H12.4062V10H14.4062V8H12.4062V6H14.4062V5.73C13.3062 4.26 12.4062 3.25 12.4062 3.25C12.4062 3.25 6.40625 10 6.40625 14C6.40625 17.31 9.09625 20 12.4062 20V18H14.4062V16H12.4062ZM14.4062 19.65C15.1562 19.39 15.8263 19 16.4062 18.46V18H14.4062V19.65ZM14.4062 16H16.4062V14H14.4062V16ZM16.4062 18H16.8662C17.4062 17.42 17.7962 16.75 18.0562 16H16.4062V18Z" fill="black"/>
</g>
</svg>
