<svg width="25" height="24" viewBox="0 0 25 24" fill="none" xmlns="http://www.w3.org/2000/svg">
<g id="1096">
<path id="Vector" d="M12.4062 3.25C12.4062 3.25 6.40625 10 6.40625 14C6.40625 17.32 9.09625 20 12.4062 20C13.9975 20 15.5237 19.3679 16.6489 18.2426C17.7741 17.1174 18.4062 15.5913 18.4062 14C18.4062 10 12.4062 3.25 12.4062 3.25ZM14.8763 9.97L15.9362 11.03L9.93625 17.03L8.87625 15.97M10.1562 10C10.4878 10 10.8057 10.1317 11.0401 10.3661C11.2746 10.6005 11.4062 10.9185 11.4062 11.25C11.4062 11.5815 11.2746 11.8995 11.0401 12.1339C10.8057 12.3683 10.4878 12.5 10.1562 12.5C9.82473 12.5 9.50679 12.3683 9.27237 12.1339C9.03795 11.8995 8.90625 11.5815 8.90625 11.25C8.90625 10.9185 9.03795 10.6005 9.27237 10.3661C9.50679 10.1317 9.82473 10 10.1562 10ZM14.6562 14.5C14.9878 14.5 15.3057 14.6317 15.5401 14.8661C15.7746 15.1005 15.9062 15.4185 15.9062 15.75C15.9062 16.0815 15.7746 16.3995 15.5401 16.6339C15.3057 16.8683 14.9878 17 14.6562 17C14.3247 17 14.0068 16.8683 13.7724 16.6339C13.5379 16.3995 13.4062 16.0815 13.4062 15.75C13.4062 15.4185 13.5379 15.1005 13.7724 14.8661C14.0068 14.6317 14.3247 14.5 14.6562 14.5Z" fill="black"/>
</g>
</svg>
