<svg width="25" height="24" viewBox="0 0 25 24" fill="none" xmlns="http://www.w3.org/2000/svg">
<g id="1097">
<path id="Vector" d="M12.4062 3.77002L11.6562 4.61002C11.6562 4.61002 10.3763 6.06002 9.08625 7.94002C7.79625 9.82002 6.40625 12.07 6.40625 14.23C6.40625 15.8213 7.03839 17.3474 8.16361 18.4727C9.28883 19.5979 10.815 20.23 12.4062 20.23C13.9975 20.23 15.5237 19.5979 16.6489 18.4727C17.7741 17.3474 18.4062 15.8213 18.4062 14.23C18.4062 12.07 17.0162 9.82002 15.7262 7.94002C14.4362 6.06002 13.1562 4.61002 13.1562 4.61002L12.4062 3.77002ZM12.4062 6.90002C12.8462 7.42002 13.2463 7.85002 14.0863 9.07002C15.2963 10.83 16.4062 13.07 16.4062 14.23C16.4062 16.45 14.6263 18.23 12.4062 18.23C10.1862 18.23 8.40625 16.45 8.40625 14.23C8.40625 13.07 9.51625 10.83 10.7262 9.07002C11.5662 7.85002 11.9663 7.42002 12.4062 6.90002Z" fill="black"/>
</g>
</svg>
