<svg width="25" height="24" viewBox="0 0 25 24" fill="none" xmlns="http://www.w3.org/2000/svg">
<g id="1098">
<path id="Vector" d="M19.4062 14.5C19.4062 14.5 21.4062 16.67 21.4062 18C21.4062 18.5304 21.1955 19.0391 20.8205 19.4142C20.4454 19.7893 19.9367 20 19.4062 20C18.8758 20 18.3671 19.7893 17.992 19.4142C17.617 19.0391 17.4062 18.5304 17.4062 18C17.4062 16.67 19.4062 14.5 19.4062 14.5ZM5.40625 18V9C4.87582 9 4.36711 8.78929 3.99204 8.41421C3.61696 8.03914 3.40625 7.53043 3.40625 7C3.40625 6.46957 3.61696 5.96086 3.99204 5.58579C4.36711 5.21071 4.87582 5 5.40625 5V4C5.40625 3.46957 5.61696 2.96086 5.99204 2.58579C6.36711 2.21071 6.87582 2 7.40625 2H9.40625C9.93668 2 10.4454 2.21071 10.8205 2.58579C11.1955 2.96086 11.4062 3.46957 11.4062 4V5H19.4062C19.9367 5 20.4454 5.21071 20.8205 5.58579C21.1955 5.96086 21.4062 6.46957 21.4062 7V9V11C21.6715 11 21.9258 11.1054 22.1134 11.2929C22.3009 11.4804 22.4062 11.7348 22.4062 12C22.4062 12.2652 22.3009 12.5196 22.1134 12.7071C21.9258 12.8946 21.6715 13 21.4062 13H17.4062C17.141 13 16.8867 12.8946 16.6991 12.7071C16.5116 12.5196 16.4062 12.2652 16.4062 12C16.4062 11.7348 16.5116 11.4804 16.6991 11.2929C16.8867 11.1054 17.141 11 17.4062 11V9H11.4062V18H12.4062C12.9367 18 13.4454 18.2107 13.8205 18.5858C14.1955 18.9609 14.4062 19.4696 14.4062 20V22H2.40625V20C2.40625 19.4696 2.61696 18.9609 2.99204 18.5858C3.36711 18.2107 3.87582 18 4.40625 18H5.40625Z" fill="black"/>
</g>
</svg>
