<svg width="25" height="24" viewBox="0 0 25 24" fill="none" xmlns="http://www.w3.org/2000/svg">
<g id="1099">
<path id="Vector" d="M20.4062 16.0001H22.4062V18.0001H20.4062C19.0063 18.0001 17.6063 17.6001 16.4062 17.0001C13.9062 18.3001 10.9062 18.3001 8.40625 17.0001C7.20625 17.6001 5.80625 18.0001 4.40625 18.0001H2.40625V16.0001H4.40625C5.80625 16.0001 7.20625 15.5001 8.40625 14.7001C10.8063 16.4001 14.0062 16.4001 16.4062 14.7001C17.6063 15.5001 19.0063 16.0001 20.4062 16.0001ZM13.4062 10.6001C14.0063 10.3001 14.7063 10.0001 15.4062 9.90006V10.2001C15.7063 11.2001 15.7062 12.1001 15.6062 13.1001C14.7062 13.6001 13.6062 13.9001 12.6062 13.9001C13.1062 12.9001 13.4062 11.7001 13.4062 10.6001ZM13.3062 3.60006C11.9062 4.00006 10.7063 4.70006 9.70625 5.70006C9.30625 4.70006 9.10625 3.70006 9.10625 2.70006C11.3062 1.70006 13.8063 1.80006 16.0063 2.90006C16.3063 3.00006 16.6062 3.10006 16.8062 3.30006C15.6062 3.20006 14.4062 3.30006 13.3062 3.60006ZM7.20625 13.3001C6.60625 13.6001 6.00625 13.8001 5.40625 13.9001C4.70625 12.6001 4.40625 11.2001 4.40625 9.80006C4.90625 10.8001 5.60625 11.8001 6.40625 12.6001C6.70625 12.8001 6.90625 13.1001 7.20625 13.3001ZM19.4062 13.9001C18.8062 13.8001 18.2062 13.6001 17.7062 13.4001C17.9062 12.2001 17.8063 11.0001 17.5063 9.80006C18.6063 9.90006 19.6063 10.2001 20.5063 10.8001C20.4063 11.8001 20.1063 12.7001 19.6063 13.6001L19.4062 13.9001ZM7.80625 11.2001C6.60625 10.1001 5.90625 8.50006 5.60625 6.90006L5.50625 6.00006C6.00625 5.20006 6.50625 4.60006 7.20625 4.00006C7.30625 5.40006 7.80625 6.70006 8.60625 7.80006C9.30625 8.90006 10.3062 9.90006 11.4062 10.5001C11.4062 11.3001 11.2063 12.1001 10.9062 12.9001C9.70625 12.6001 8.70625 12.0001 7.80625 11.2001ZM13.9062 5.50006C15.4062 5.10006 17.1063 5.20006 18.6063 5.70006L19.4062 6.10006C19.8063 6.80006 20.0062 7.60006 20.2062 8.40006C17.7062 7.30006 14.8063 7.50006 12.4062 8.80006C11.7063 8.50006 11.2063 8.00006 10.7063 7.40006L10.8062 7.30006C11.7062 6.50006 12.7062 5.80006 13.9062 5.50006ZM16.4062 18.7001C17.6063 19.5001 19.0063 20.0001 20.4062 20.0001H22.4062V22.0001H20.4062C19.0063 22.0001 17.6063 21.6001 16.4062 21.0001C13.9062 22.3001 10.9062 22.3001 8.40625 21.0001C7.20625 21.6001 5.80625 22.0001 4.40625 22.0001H2.40625V20.0001H4.40625C5.80625 20.0001 7.20625 19.5001 8.40625 18.7001C10.8063 20.4001 14.0062 20.4001 16.4062 18.7001Z" fill="black"/>
</g>
</svg>
