<svg width="25" height="24" viewBox="0 0 25 24" fill="none" xmlns="http://www.w3.org/2000/svg">
<g id="11">
<path id="Vector" d="M15.4102 14C12.7402 14 7.41016 15.33 7.41016 18V20H23.4102V18C23.4102 15.33 18.0802 14 15.4102 14ZM1.41016 10V12H9.41016V10M15.4102 12C16.471 12 17.4884 11.5786 18.2386 10.8284C18.9887 10.0783 19.4102 9.06087 19.4102 8C19.4102 6.93913 18.9887 5.92172 18.2386 5.17157C17.4884 4.42143 16.471 4 15.4102 4C14.3493 4 13.3319 4.42143 12.5817 5.17157C11.8316 5.92172 11.4102 6.93913 11.4102 8C11.4102 9.06087 11.8316 10.0783 12.5817 10.8284C13.3319 11.5786 14.3493 12 15.4102 12Z" fill="black"/>
</g>
</svg>
