<svg width="25" height="24" viewBox="0 0 25 24" fill="none" xmlns="http://www.w3.org/2000/svg">
<g id="1102">
<path id="Vector" d="M20.4062 7V13H18.4062V7H20.4062ZM18.4062 17H20.4062V15H18.4062V17ZM10.4062 3.25C10.4062 3.25 4.40625 10 4.40625 14C4.40625 17.32 7.09625 20 10.4062 20C13.7162 20 16.4062 17.31 16.4062 14C16.4062 10 10.4062 3.25 10.4062 3.25ZM8.15625 10C8.84625 10 9.40625 10.56 9.40625 11.25C9.40625 11.94 8.84625 12.5 8.15625 12.5C7.46625 12.5 6.90625 11.94 6.90625 11.25C6.90625 10.56 7.46625 10 8.15625 10ZM12.6562 17C11.9663 17 11.4062 16.44 11.4062 15.75C11.4062 15.06 11.9663 14.5 12.6562 14.5C13.3462 14.5 13.9062 15.06 13.9062 15.75C13.9062 16.44 13.3462 17 12.6562 17ZM7.93625 17.03L6.87625 15.97L12.8763 9.97L13.9362 11.03L7.93625 17.03Z" fill="black"/>
</g>
</svg>
