<svg width="25" height="24" viewBox="0 0 25 24" fill="none" xmlns="http://www.w3.org/2000/svg">
<g id="1103">
<path id="Vector" d="M6.10563 2.49998C6.46506 2.18293 6.92639 2.0055 7.40563 1.99998H9.40562C9.93606 1.99998 10.4448 2.21069 10.8198 2.58577C11.1949 2.96084 11.4056 3.46955 11.4056 3.99998V4.99998H19.4056C19.9361 4.99998 20.4448 5.21069 20.8198 5.58577C21.1949 5.96084 21.4056 6.46955 21.4056 6.99998V11C21.6708 11 21.9252 11.1053 22.1127 11.2929C22.3003 11.4804 22.4056 11.7348 22.4056 12C22.4056 12.2652 22.3003 12.5196 22.1127 12.7071C21.9252 12.8946 21.6708 13 21.4056 13H17.4056C17.1404 13 16.8861 12.8946 16.6985 12.7071C16.511 12.5196 16.4056 12.2652 16.4056 12C16.4056 11.7348 16.511 11.4804 16.6985 11.2929C16.8861 11.1053 17.1404 11 17.4056 11V8.99998H12.6056M21.2456 22.73L22.5156 21.46L11.4056 10.34L2.79563 1.72998L1.51562 2.99998L4.05563 5.53998C3.7638 5.81317 3.56053 6.16755 3.47205 6.55738C3.38357 6.94721 3.41395 7.35462 3.55925 7.72702C3.70456 8.09943 3.95812 8.41975 4.28723 8.64665C4.61635 8.87355 5.0059 8.99662 5.40563 8.99998V18H4.40563C3.8752 18 3.36649 18.2107 2.99142 18.5858C2.61635 18.9608 2.40563 19.4695 2.40563 20V22H14.4056V20C14.4056 19.4695 14.1949 18.9608 13.8198 18.5858C13.4448 18.2107 12.9361 18 12.4056 18H11.4056V12.89L21.2456 22.73Z" fill="black"/>
</g>
</svg>
