<svg width="25" height="24" viewBox="0 0 25 24" fill="none" xmlns="http://www.w3.org/2000/svg">
<g id="1105">
<path id="Vector" d="M12.4062 18C12.4062 18.7 12.5263 19.36 12.7463 20C12.6363 20 12.5262 20 12.4062 20C9.09625 20 6.40625 17.31 6.40625 14C6.40625 10 12.4062 3.25 12.4062 3.25C12.4062 3.25 16.7163 8.1 18.0263 12C17.3363 12.06 16.6863 12.22 16.0763 12.47C15.4063 10.68 13.9062 8.33 12.4062 6.39C10.4062 8.96 8.40625 12.23 8.40625 14C8.40625 16.21 10.1962 18 12.4062 18ZM21.9463 15.88L20.5362 14.47L18.4062 16.59L16.2863 14.47L14.8763 15.88L16.9963 18L14.8763 20.12L16.2863 21.53L18.4062 19.41L20.5263 21.53L21.9363 20.12L19.8162 18L21.9463 15.88Z" fill="black"/>
</g>
</svg>
