<svg width="25" height="24" viewBox="0 0 25 24" fill="none" xmlns="http://www.w3.org/2000/svg">
<g id="1106">
<path id="Vector" d="M12.4062 3.19995C12.4062 3.19995 6.40625 9.99995 6.40625 14C6.40625 17.3 9.10625 20 12.4062 20C15.7062 20 18.4062 17.3 18.4062 14C18.4062 9.99995 12.4062 3.19995 12.4062 3.19995ZM12.4062 8.49995V9.99995C14.6063 9.99995 16.4062 11.8 16.4062 14C16.4062 14.8 16.2063 15.6 15.7063 16.2L14.6062 15.1C14.8062 14.8 14.9062 14.4 14.9062 14C14.9062 12.6 13.8062 11.5 12.4062 11.5V13L10.2063 10.8L12.4062 8.49995ZM9.10625 11.8L10.2063 12.9C10.0063 13.2 9.90625 13.6 9.90625 14C9.90625 15.4 11.0063 16.5 12.4062 16.5V15L14.6062 17.2L12.4062 19.5V18C10.2062 18 8.40625 16.2 8.40625 14C8.40625 13.2 8.60625 12.4 9.10625 11.8Z" fill="black"/>
</g>
</svg>
