<svg width="25" height="24" viewBox="0 0 25 24" fill="none" xmlns="http://www.w3.org/2000/svg">
<g id="1107">
<path id="Vector" d="M19.4062 5C18.2962 5 17.4062 5.89 17.4062 7V13.76C16.7663 14.33 16.4062 15.15 16.4062 16C16.4062 17.66 17.7463 19 19.4062 19C21.0662 19 22.4062 17.66 22.4062 16C22.4062 15.15 22.0462 14.33 21.4062 13.77V7C21.4062 5.89 20.5163 5 19.4062 5ZM19.4062 6C19.9563 6 20.4062 6.45 20.4062 7V8H18.4062V7C18.4062 6.45 18.8562 6 19.4062 6ZM8.40625 20C5.09625 20 2.40625 17.31 2.40625 14C2.40625 10 8.40625 3.25 8.40625 3.25C8.40625 3.25 14.4062 10 14.4062 14C14.4062 17.31 11.7162 20 8.40625 20Z" fill="black"/>
</g>
</svg>
