<svg width="25" height="24" viewBox="0 0 25 24" fill="none" xmlns="http://www.w3.org/2000/svg">
<g id="1108">
<path id="Vector" d="M18.9062 7.47C18.1662 8.2 17.9763 9.25 18.3263 10.15L15.4062 13.07V11C15.4062 10.45 14.9563 10 14.4062 10H13.3763C13.4063 9.83 13.4062 9.67 13.4062 9.5C13.4062 6.46 10.9462 4 7.90625 4C4.86625 4 2.40625 6.46 2.40625 9.5C2.40625 11.21 3.18625 12.73 4.40625 13.74V20C4.40625 20.55 4.85625 21 5.40625 21H14.4062C14.9563 21 15.4062 20.55 15.4062 20V15.89L19.7362 11.56C20.6362 11.91 21.6862 11.73 22.4062 11L18.9062 7.47ZM4.45625 10C4.43625 9.83 4.40625 9.67 4.40625 9.5C4.40625 7.57 5.97625 6 7.90625 6C9.83625 6 11.4062 7.57 11.4062 9.5C11.4062 9.67 11.3762 9.83 11.3562 10H4.45625Z" fill="black"/>
</g>
</svg>
