<svg width="25" height="24" viewBox="0 0 25 24" fill="none" xmlns="http://www.w3.org/2000/svg">
<g id="1109">
<path id="Vector" d="M20.4062 20C19.0163 20 17.6263 19.53 16.4062 18.67C13.9662 20.38 10.8463 20.38 8.40625 18.67C7.18625 19.53 5.79625 20 4.40625 20H2.40625V22H4.40625C5.77625 22 7.14625 21.65 8.40625 21C10.9062 22.3 13.9062 22.3 16.4062 21C17.6662 21.65 19.0263 22 20.4062 22H22.4062V20M20.4062 16C19.0163 16 17.6263 15.53 16.4062 14.67C13.9662 16.38 10.8463 16.38 8.40625 14.67C7.18625 15.53 5.79625 16 4.40625 16H2.40625V18H4.40625C5.77625 18 7.14625 17.65 8.40625 17C10.9062 18.3 13.9062 18.3 16.4062 17C17.6662 17.65 19.0263 18 20.4062 18H22.4062V16M22.4062 2H2.40625V4H6.40625V16H18.4062V4H22.4062M9.40625 4H11.4062V10H9.40625M13.4062 8H15.4062V14H13.4062V8Z" fill="black"/>
</g>
</svg>
