<svg width="25" height="24" viewBox="0 0 25 24" fill="none" xmlns="http://www.w3.org/2000/svg">
<g id="111">
<path id="Vector" d="M22.4102 19H2.41016V21H22.4102V19ZM4.41016 15C4.41016 15.5 4.61016 16 5.01016 16.4C5.41016 16.8 5.91016 17 6.41016 17V6C5.91016 6 5.41016 6.2 5.01016 6.6C4.61016 7 4.41016 7.5 4.41016 8V15ZM13.9102 6H10.9102C10.9102 5.6 11.0102 5.2 11.3102 4.9C11.6102 4.6 11.9102 4.5 12.4102 4.5C12.8102 4.5 13.2102 4.6 13.5102 4.9C13.7102 5.2 13.9102 5.6 13.9102 6ZM7.41016 6V17H17.4102V6H15.4102C15.4102 5.2 15.1102 4.5 14.5102 3.9C13.9102 3.3 13.2102 3 12.4102 3C11.6102 3 10.9102 3.3 10.3102 3.9C9.71016 4.5 9.41016 5.2 9.41016 6H7.41016ZM18.4102 17C18.9102 17 19.4102 16.8 19.8102 16.4C20.2102 16 20.4102 15.5 20.4102 15V8C20.4102 7.5 20.2102 7 19.8102 6.6C19.4102 6.2 18.9102 6 18.4102 6V17Z" fill="black"/>
</g>
</svg>
