<svg width="25" height="24" viewBox="0 0 25 24" fill="none" xmlns="http://www.w3.org/2000/svg">
<g id="1110">
<path id="Vector" d="M4.02625 8H5.40625V15H7.40625V8H11.4062V10H13.4062V8H17.4062V15H19.4062V8H21.0163C21.5663 8 22.0163 7.56 22.0163 7C22.0163 6.89 22.0062 6.78 21.9662 6.68L19.4062 2H5.40625L3.12625 6.55C2.87625 7.04 3.07625 7.64 3.56625 7.89C3.71625 7.96 3.86625 8 4.02625 8ZM6.64625 4H18.1663L19.1663 6H5.64625L6.64625 4ZM2.40625 16V18H4.40625V22H20.4062V18H22.4062V16H2.40625ZM18.4062 20H6.40625V18H18.4062V20ZM14.3363 11C14.6163 11 14.8363 11.22 14.8363 11.5C14.8363 11.5 14.8363 11.54 14.8363 11.56L14.4563 14.56C14.4063 14.81 14.2163 15 13.9663 15H10.8462C10.5962 15 10.4062 14.81 10.3562 14.56L9.97625 11.56C9.94625 11.29 10.1362 11.04 10.4062 11C10.4362 11 10.4562 11 10.4762 11H14.3363Z" fill="black"/>
</g>
</svg>
