<svg width="25" height="24" viewBox="0 0 25 24" fill="none" xmlns="http://www.w3.org/2000/svg">
<g id="1111">
<path id="Vector" d="M22.4062 16H2.40625V18H4.40625V22H20.4062V18H22.4062V16ZM10.8462 15C10.5962 15 10.4062 14.81 10.3562 14.56L9.97625 11.56C9.97625 11.54 9.97625 11.5 9.97625 11.5C9.97625 11.22 10.1962 11 10.4762 11H14.3363C14.3563 11 14.3763 11 14.4062 11C14.6763 11.04 14.8663 11.29 14.8363 11.56L14.4563 14.56C14.4063 14.81 14.2163 15 13.9663 15H10.8462ZM19.4062 2L21.9662 6.68C22.0062 6.78 22.0163 6.89 22.0163 7C22.0163 7.56 21.5663 8 21.0163 8H19.4062V15H17.4062V8H13.4062V10H11.4062V8H7.40625V15H5.40625V8H4.02625C3.86625 8 3.71625 7.96 3.56625 7.89C3.07625 7.64 2.87625 7.04 3.12625 6.55L5.40625 2H19.4062Z" fill="black"/>
</g>
</svg>
