<svg width="25" height="24" viewBox="0 0 25 24" fill="none" xmlns="http://www.w3.org/2000/svg">
<g id="1112">
<path id="Vector" d="M19.4062 5.00004C18.2962 5.00004 17.4062 5.89004 17.4062 7.00004V13.76C16.7663 14.33 16.4062 15.15 16.4062 16C16.4062 17.66 17.7463 19 19.4062 19C21.0662 19 22.4062 17.66 22.4062 16C22.4062 15.15 22.0462 14.33 21.4062 13.77V7.00004C21.4062 5.89004 20.5163 5.00004 19.4062 5.00004ZM19.4062 6.00004C19.9563 6.00004 20.4062 6.45004 20.4062 7.00004V8.00004H18.4062V7.00004C18.4062 6.45004 18.8562 6.00004 19.4062 6.00004ZM8.40625 3.54004L7.65625 4.38004C7.65625 4.38004 6.37625 5.83004 5.08625 7.71004C3.79625 9.59004 2.40625 11.84 2.40625 14C2.40625 17.31 5.09625 20 8.40625 20C11.7162 20 14.4062 17.31 14.4062 14C14.4062 11.84 13.0162 9.59004 11.7262 7.71004C10.4362 5.83004 9.15625 4.38004 9.15625 4.38004L8.40625 3.54004ZM8.40625 6.67004C8.84625 7.19004 9.24625 7.62004 10.0863 8.84004C11.2963 10.6 12.4062 12.84 12.4062 14C12.4062 16.22 10.6263 18 8.40625 18C6.18625 18 4.40625 16.22 4.40625 14C4.40625 12.84 5.51625 10.6 6.72625 8.84004C7.56625 7.62004 7.96625 7.19004 8.40625 6.67004Z" fill="black"/>
</g>
</svg>
