<svg width="25" height="24" viewBox="0 0 25 24" fill="none" xmlns="http://www.w3.org/2000/svg">
<g id="1114">
<path id="Vector" d="M21.4062 3H3.40625C2.87582 3 2.36711 3.21071 1.99204 3.58579C1.61696 3.96086 1.40625 4.46957 1.40625 5V19C1.40625 19.5304 1.61696 20.0391 1.99204 20.4142C2.36711 20.7893 2.87582 21 3.40625 21H21.4062C21.9367 21 22.4454 20.7893 22.8205 20.4142C23.1955 20.0391 23.4062 19.5304 23.4062 19V5C23.4062 4.46957 23.1955 3.96086 22.8205 3.58579C22.4454 3.21071 21.9367 3 21.4062 3ZM21.4062 19H12.4062V13H21.4062V19Z" fill="black"/>
</g>
</svg>
