<svg width="25" height="24" viewBox="0 0 25 24" fill="none" xmlns="http://www.w3.org/2000/svg">
<g id="1116">
<path id="Vector" d="M22.4062 12L20.4062 13L19.4062 14L18.4062 13L17.4062 16L16.4062 13L15.4062 21L14.4062 13L13.4062 15L12.4062 13L11.4062 17L10.4062 13L9.40625 22L8.40625 13L7.40625 19L6.40625 13L5.40625 14L4.40625 13L2.40625 12L4.40625 11L5.40625 10L6.40625 11L7.40625 5L8.40625 11L9.40625 2L10.4062 11L11.4062 7L12.4062 11L13.4062 9L14.4062 11L15.4062 3L16.4062 11L17.4062 8L18.4062 11L19.4062 10L20.4062 11L22.4062 12Z" fill="black"/>
</g>
</svg>
