<svg width="25" height="24" viewBox="0 0 25 24" fill="none" xmlns="http://www.w3.org/2000/svg">
<g id="1117">
<path id="Vector" d="M20.4062 11.9999H22.4062V13.9999H20.4062C19.0263 13.9999 17.6662 13.6499 16.4062 12.9999C13.9062 14.2999 10.9062 14.2999 8.40625 12.9999C7.14625 13.6499 5.77625 13.9999 4.40625 13.9999H2.40625V11.9999H4.40625C5.79625 11.9999 7.18625 11.5299 8.40625 10.6699C10.8463 12.3799 13.9662 12.3799 16.4062 10.6699C17.6263 11.5299 19.0163 11.9999 20.4062 11.9999ZM20.4062 5.99992H22.4062V7.99992H20.4062C19.0263 7.99992 17.6662 7.64992 16.4062 6.99992C13.9062 8.29992 10.9062 8.29992 8.40625 6.99992C7.14625 7.64992 5.77625 7.99992 4.40625 7.99992H2.40625V5.99992H4.40625C5.79625 5.99992 7.18625 5.52992 8.40625 4.66992C10.8463 6.37992 13.9662 6.37992 16.4062 4.66992C17.6263 5.52992 19.0163 5.99992 20.4062 5.99992ZM20.4062 17.9999H22.4062V19.9999H20.4062C19.0263 19.9999 17.6662 19.6499 16.4062 18.9999C13.9062 20.2999 10.9062 20.2999 8.40625 18.9999C7.14625 19.6499 5.77625 19.9999 4.40625 19.9999H2.40625V17.9999H4.40625C5.79625 17.9999 7.18625 17.5299 8.40625 16.6699C10.8463 18.3799 13.9662 18.3799 16.4062 16.6699C17.6263 17.5299 19.0163 17.9999 20.4062 17.9999Z" fill="black"/>
</g>
</svg>
