<svg width="25" height="24" viewBox="0 0 25 24" fill="none" xmlns="http://www.w3.org/2000/svg">
<g id="1119">
<path id="Vector" d="M20.9503 6.63C21.6403 7.57 22.1003 8.67 22.3003 9.82C22.5103 11.07 22.4103 12.34 21.9903 13.54C21.5903 14.71 20.9103 15.76 19.9903 16.6C19.3203 17.24 18.5603 17.77 17.7303 18.18C18.1403 19.25 17.6003 20.45 16.5303 20.86C16.2903 20.95 16.0403 21 15.7903 21C14.6803 21 13.7603 20.11 13.7203 19C13.4603 19 11.1403 19 10.6503 19C10.5403 20.14 9.52034 21 8.38034 20.87C7.32034 20.77 6.52034 19.89 6.50034 18.83C6.51034 18.64 6.54034 18.44 6.60034 18.26C5.01034 17.73 3.62034 16.74 2.60034 15.41C2.27034 14.97 2.37034 14.34 2.83034 14C3.01034 13.86 3.23034 13.78 3.46034 13.78C4.18034 13.78 4.46034 13.53 4.63034 13.15C4.87034 12.43 5.01034 11.68 5.02034 10.92C5.05034 10.39 5.11034 9.87 5.19034 9.35C5.54034 7.62 6.51034 6.07 7.91034 5C9.57034 3.7 11.6003 3 13.7003 3C15.1303 3 16.5403 3.35 17.8103 4C19.0503 4.62 20.1203 5.5 20.9503 6.63ZM17.1303 17.31C18.9103 16.5 20.3103 15.04 21.0003 13.21C22.6203 8.27 18.4103 4.05 13.7003 4.05C13.3503 4.05 12.9903 4.07 12.6403 4.12C9.77034 4.5 6.81034 6.5 6.22034 9.5C5.84034 11.5 6.41034 14.79 3.46034 14.79C4.41034 16 5.73034 16.93 7.22034 17.37C8.07034 16.61 9.38034 16.69 10.1503 17.55C10.2603 17.67 10.3503 17.8 10.4103 17.94C11.0003 17.94 13.6103 17.94 13.9603 17.94C14.4803 16.92 15.7403 16.5 16.7603 17.04C16.9103 17.12 17.0103 17.21 17.1303 17.31ZM11.3803 10.31C10.8003 10.34 10.2903 9.9 10.2603 9.31C10.2303 8.73 10.6803 8.23 11.2603 8.19C11.8403 8.16 12.3503 8.61 12.3803 9.25C12.4103 9.8 11.9703 10.27 11.4103 10.29L11.3803 10.31ZM16.0703 10.31C15.4903 10.34 14.9803 9.9 14.9503 9.31C14.9103 8.73 15.3703 8.23 15.9503 8.19C16.5303 8.16 17.0403 8.61 17.0703 9.25C17.0903 9.8 16.6603 10.27 16.0703 10.29V10.31ZM10.1203 12.07C10.0603 11.79 10.2503 11.5 10.5303 11.45C10.8103 11.4 11.0903 11.58 11.1503 11.86C11.5003 12.97 12.5703 13.69 13.7303 13.6C14.8703 13.66 15.9103 12.96 16.3003 11.88C16.4403 11.62 16.7603 11.5 17.0103 11.65C17.1903 11.75 17.3003 11.92 17.3003 12.12C17.1103 12.83 16.6703 13.45 16.0703 13.88C15.3803 14.36 14.5703 14.63 13.7303 14.64H13.6203C11.9903 14.71 10.5203 13.64 10.0903 12.06L10.1203 12.07Z" fill="black"/>
</g>
</svg>
