<svg width="25" height="24" viewBox="0 0 25 24" fill="none" xmlns="http://www.w3.org/2000/svg">
<g id="112">
<path id="Vector" d="M12.7102 2.00004C11.7402 2.03004 10.9902 2.84004 11.0202 3.80004C11.0302 4.04004 11.0802 4.27004 11.1802 4.50004L11.4702 5.14004C11.5102 5.27004 11.4402 5.41004 11.3002 5.45004C11.2102 5.50004 11.1102 5.45004 11.0402 5.37004L10.6202 4.82004C10.2902 4.40004 9.79016 4.14004 9.26016 4.13004C8.29016 4.11004 7.49016 4.88004 7.47016 5.84004C7.46016 6.26004 7.60016 6.66004 7.86016 7.00004L8.28016 7.50004H8.29016C8.37016 7.63004 8.34016 7.79004 8.23016 7.87004C8.14016 7.94004 8.02016 7.94004 7.94016 7.87004L7.41016 7.45004C7.07016 7.19004 6.66016 7.05004 6.25016 7.06004C5.29016 7.08004 4.52016 7.88004 4.54016 8.85004C4.55016 9.38004 4.81016 9.88004 5.23016 10.21L5.80016 10.65C5.91016 10.75 5.91016 10.91 5.79016 11C5.72016 11.07 5.62016 11.09 5.53016 11.05H5.52016L4.91016 10.77C4.68016 10.68 4.45016 10.62 4.21016 10.61C3.25016 10.58 2.44016 11.34 2.41016 12.31C2.41016 13.03 2.81016 13.69 3.47016 13.97L14.8602 19.04L19.4502 14.45L14.3802 3.06004C14.1002 2.39004 13.4102 1.97004 12.7102 2.00004ZM13.5402 6.10004C13.9602 6.09004 14.3402 6.33004 14.5002 6.71004L17.5502 13.55L13.6002 9.61004L12.6702 7.50004C12.3702 6.87004 12.8302 6.12004 13.5402 6.10004ZM10.2602 8.85004C10.5302 8.85004 10.7802 8.95004 10.9702 9.15004L15.7802 13.96C16.1802 14.34 16.1902 14.97 15.8102 15.37C15.4102 15.77 14.7902 15.78 14.3702 15.37L9.56016 10.56C9.16016 10.18 9.15016 9.54004 9.54016 9.15004C9.73016 8.95004 9.99016 8.85004 10.2602 8.85004ZM7.54016 12.17C7.67016 12.17 7.81016 12.21 7.91016 12.26L10.0402 13.2L13.9802 17.14L7.12016 14.09C6.10016 13.65 6.44016 12.14 7.54016 12.17ZM20.6902 16.04L16.4502 20.28L17.3002 21.13C18.0602 21.88 19.1602 22.17 20.1902 21.9C21.2202 21.62 22.0302 20.81 22.3102 19.78C22.5802 18.75 22.2902 17.65 21.5402 16.89L20.6902 16.04Z" fill="black"/>
</g>
</svg>
