<svg width="25" height="24" viewBox="0 0 25 24" fill="none" xmlns="http://www.w3.org/2000/svg">
<g id="1122">
<path id="Vector" d="M20.4062 14H22.4062V16H20.4062C19.0263 16 17.6662 15.65 16.4062 15C13.9062 16.3 10.9062 16.3 8.40625 15C7.14625 15.65 5.77625 16 4.40625 16H2.40625V14H4.40625C5.79625 14 7.18625 13.53 8.40625 12.67C10.8463 14.38 13.9662 14.38 16.4062 12.67C17.6263 13.53 19.0163 14 20.4062 14ZM20.4062 20H22.4062V22H20.4062C19.0263 22 17.6662 21.65 16.4062 21C13.9062 22.3 10.9062 22.3 8.40625 21C7.14625 21.65 5.77625 22 4.40625 22H2.40625V20H4.40625C5.79625 20 7.18625 19.53 8.40625 18.67C10.8463 20.38 13.9662 20.38 16.4062 18.67C17.6263 19.53 19.0163 20 20.4062 20ZM22.4062 6L18.4062 2V5H13.4062V7H18.4062V10" fill="black"/>
</g>
</svg>
