<svg width="25" height="24" viewBox="0 0 25 24" fill="none" xmlns="http://www.w3.org/2000/svg">
<g id="1123">
<path id="Vector" d="M6.40625 19C5.74964 19 5.09946 18.8707 4.49283 18.6194C3.8862 18.3681 3.33501 17.9998 2.87072 17.5355C1.93303 16.5979 1.40625 15.3261 1.40625 14C1.40625 12.6739 1.93303 11.4021 2.87072 10.4645C3.8084 9.52678 5.08017 9 6.40625 9C7.40625 6.65 9.70625 5 12.4062 5C15.8363 5 18.6463 7.66 18.9062 11.03L19.4062 11C20.4671 11 21.4845 11.4214 22.2347 12.1716C22.9848 12.9217 23.4062 13.9391 23.4062 15C23.4062 16.0609 22.9848 17.0783 22.2347 17.8284C21.4845 18.5786 20.4671 19 19.4062 19H6.40625ZM19.4062 13H17.4062V12C17.4063 10.6739 16.8795 9.40215 15.9418 8.46447C15.0041 7.52678 13.7323 7 12.4062 7C9.90625 7 7.85625 8.82 7.46625 11.19C7.13625 11.07 6.77625 11 6.40625 11C5.6106 11 4.84754 11.3161 4.28493 11.8787C3.72232 12.4413 3.40625 13.2044 3.40625 14C3.40625 14.7956 3.72232 15.5587 4.28493 16.1213C4.84754 16.6839 5.6106 17 6.40625 17H19.4062C19.9367 17 20.4454 16.7893 20.8205 16.4142C21.1955 16.0391 21.4062 15.5304 21.4062 15C21.4062 14.4696 21.1955 13.9609 20.8205 13.5858C20.4454 13.2107 19.9367 13 19.4062 13ZM13.4062 12H11.4062V8H13.4062V12ZM13.4062 16H11.4062V14H13.4062" fill="black"/>
</g>
</svg>
