<svg width="25" height="24" viewBox="0 0 25 24" fill="none" xmlns="http://www.w3.org/2000/svg">
<g id="1124">
<path id="Vector" d="M6.40625 7L7.09625 7.06C7.72625 4.72 9.86625 3 12.4062 3C13.8649 3 15.2639 3.57946 16.2953 4.61091C17.3268 5.64236 17.9062 7.04131 17.9062 8.5L17.8263 9.45C18.2863 9.16 18.8263 9 19.4062 9C20.2019 9 20.965 9.31607 21.5276 9.87868C22.0902 10.4413 22.4062 11.2044 22.4062 12C22.4062 12.7956 22.0902 13.5587 21.5276 14.1213C20.965 14.6839 20.2019 15 19.4062 15H6.40625C5.34538 15 4.32797 14.5786 3.57782 13.8284C2.82768 13.0783 2.40625 12.0609 2.40625 11C2.40625 9.93913 2.82768 8.92172 3.57782 8.17157C4.32797 7.42143 5.34538 7 6.40625 7ZM6.40625 9C5.87582 9 5.36711 9.21071 4.99204 9.58579C4.61696 9.96086 4.40625 10.4696 4.40625 11C4.40625 11.5304 4.61696 12.0391 4.99204 12.4142C5.36711 12.7893 5.87582 13 6.40625 13H19.4062C19.6715 13 19.9258 12.8946 20.1134 12.7071C20.3009 12.5196 20.4062 12.2652 20.4062 12C20.4062 11.7348 20.3009 11.4804 20.1134 11.2929C19.9258 11.1054 19.6715 11 19.4062 11H15.9062V8.5C15.9062 7.57174 15.5375 6.6815 14.8811 6.02513C14.2247 5.36875 13.3345 5 12.4062 5C11.478 5 10.5878 5.36875 9.93138 6.02513C9.275 6.6815 8.90625 7.57174 8.90625 8.5V9H6.40625ZM22.4062 19L19.4062 22V20H2.40625V18H19.4062V16L22.4062 19Z" fill="black"/>
</g>
</svg>
