<svg width="25" height="24" viewBox="0 0 25 24" fill="none" xmlns="http://www.w3.org/2000/svg">
<g id="1125">
<path id="Vector" d="M15.4062 13H16.9062V15.82L19.3463 17.23L18.5963 18.53L15.4062 16.69V13ZM18.5362 9.33C17.6362 6.81 15.2362 5 12.4062 5C9.70625 5 7.40625 6.65 6.40625 9C3.64625 9 1.40625 11.24 1.40625 14C1.40625 16.76 3.64625 19 6.40625 19H10.0863C11.2163 21.36 13.6163 23 16.4062 23C20.2762 23 23.4062 19.87 23.4062 16C23.4062 12.88 21.3662 10.24 18.5362 9.33ZM6.40625 17C4.74625 17 3.40625 15.66 3.40625 14C3.40625 12.34 4.74625 11 6.40625 11C6.77625 11 7.13625 11.07 7.46625 11.19C7.85625 8.82 9.90625 7 12.4062 7C14.0362 7 15.4762 7.79 16.4062 9C12.5262 9 9.40625 12.14 9.40625 16C9.40625 16.34 9.43625 16.67 9.48625 17H6.40625ZM16.4062 21C13.6463 21 11.4062 18.76 11.4062 16C11.4062 13.24 13.6463 11 16.4062 11C19.1662 11 21.4062 13.24 21.4062 16C21.4062 18.76 19.1662 21 16.4062 21Z" fill="black"/>
</g>
</svg>
