<svg width="25" height="24" viewBox="0 0 25 24" fill="none" xmlns="http://www.w3.org/2000/svg">
<g id="1126">
<path id="Vector" d="M12.4062 2L14.7963 5.42C14.0563 5.15 13.2462 5 12.4062 5C11.5663 5 10.7562 5.15 10.0162 5.42L12.4062 2ZM3.74625 7L7.90625 6.65C7.30625 7.16 6.76625 7.78 6.34625 8.5C5.90625 9.24 5.65625 10 5.51625 10.79L3.74625 7ZM21.0562 7L19.2862 10.79C19.1462 10 18.8762 9.23 18.4562 8.5C18.0362 7.78 17.5063 7.15 16.9062 6.64M14.4062 15C14.4062 14.7348 14.3009 14.4804 14.1134 14.2929C13.9258 14.1054 13.6715 14 13.4062 14H3.40625C3.14103 14 2.88668 14.1054 2.69914 14.2929C2.51161 14.4804 2.40625 14.7348 2.40625 15C2.40625 15.2652 2.51161 15.5196 2.69914 15.7071C2.88668 15.8946 3.14103 16 3.40625 16H13.4062C13.6715 16 13.9258 15.8946 14.1134 15.7071C14.3009 15.5196 14.4062 15.2652 14.4062 15ZM22.4062 15C22.4062 14.7348 22.3009 14.4804 22.1134 14.2929C21.9258 14.1054 21.6715 14 21.4062 14H17.4062C17.141 14 16.8867 14.1054 16.6991 14.2929C16.5116 14.4804 16.4062 14.7348 16.4062 15C16.4062 15.2652 16.5116 15.5196 16.6991 15.7071C16.8867 15.8946 17.141 16 17.4062 16H21.4062C21.6715 16 21.9258 15.8946 22.1134 15.7071C22.3009 15.5196 22.4062 15.2652 22.4062 15ZM10.4062 19C10.4062 19.2652 10.5116 19.5196 10.6991 19.7071C10.8867 19.8946 11.141 20 11.4062 20H20.4062C20.6715 20 20.9258 19.8946 21.1134 19.7071C21.3009 19.5196 21.4062 19.2652 21.4062 19C21.4062 18.7348 21.3009 18.4804 21.1134 18.2929C20.9258 18.1054 20.6715 18 20.4062 18H11.4062C11.141 18 10.8867 18.1054 10.6991 18.2929C10.5116 18.4804 10.4062 18.7348 10.4062 19ZM3.40625 19C3.40625 19.2652 3.51161 19.5196 3.69914 19.7071C3.88668 19.8946 4.14103 20 4.40625 20H7.40625C7.67147 20 7.92582 19.8946 8.11336 19.7071C8.30089 19.5196 8.40625 19.2652 8.40625 19C8.40625 18.7348 8.30089 18.4804 8.11336 18.2929C7.92582 18.1054 7.67147 18 7.40625 18H4.40625C4.14103 18 3.88668 18.1054 3.69914 18.2929C3.51161 18.4804 3.40625 18.7348 3.40625 19ZM12.4062 9C13.2019 9 13.965 9.31607 14.5276 9.87868C15.0902 10.4413 15.4062 11.2044 15.4062 12H17.4062C17.4063 10.6739 16.8795 9.40215 15.9418 8.46447C15.0041 7.52678 13.7323 7 12.4062 7C11.0802 7 9.8084 7.52678 8.87072 8.46447C7.93303 9.40215 7.40625 10.6739 7.40625 12H9.40625C9.40625 11.2044 9.72232 10.4413 10.2849 9.87868C10.8475 9.31607 11.6106 9 12.4062 9Z" fill="black"/>
</g>
</svg>
