<svg width="25" height="24" viewBox="0 0 25 24" fill="none" xmlns="http://www.w3.org/2000/svg">
<g id="1127">
<path id="Vector" d="M3.40625 5C3.40625 4.4 3.80625 4 4.40625 4H5.40625C6.00625 4 6.40625 4.4 6.40625 5C6.40625 5.6 6.00625 6 5.40625 6H4.40625C3.80625 6 3.40625 5.6 3.40625 5ZM4.40625 13C4.40625 12.4 4.80625 12 5.40625 12H6.40625C7.00625 12 7.40625 12.4 7.40625 13C7.40625 13.6 7.00625 14 6.40625 14H5.40625C4.80625 14 4.40625 13.6 4.40625 13ZM4.40625 16C3.80625 16 3.40625 16.4 3.40625 17C3.40625 17.6 3.80625 18 4.40625 18H9.40625C10.0063 18 10.4062 17.6 10.4062 17C10.4062 16.4 10.0063 16 9.40625 16H4.40625ZM18.4062 5C18.4062 4.4 18.8062 4 19.4062 4H21.4062C22.0063 4 22.4062 4.4 22.4062 5C22.4062 5.6 22.0063 6 21.4062 6H19.4062C18.8062 6 18.4062 5.6 18.4062 5ZM7.40625 20C6.80625 20 6.40625 20.4 6.40625 21C6.40625 21.6 6.80625 22 7.40625 22H11.4062C12.0063 22 12.4062 21.6 12.4062 21C12.4062 20.4 12.0063 20 11.4062 20H7.40625ZM3.40625 10C2.80625 10 2.40625 9.6 2.40625 9C2.40625 8.4 2.80625 8 3.40625 8H12.4062C13.5063 8 14.4062 7.1 14.4062 6C14.4062 4.9 13.5063 4 12.4062 4C11.8062 4 11.3063 4.2 11.0063 4.6C10.6063 5 10.0062 5 9.60625 4.6C9.20625 4.2 9.20625 3.6 9.60625 3.2C10.3062 2.5 11.3062 2 12.4062 2C14.6063 2 16.4062 3.8 16.4062 6C16.4062 8.2 14.6063 10 12.4062 10H3.40625ZM19.4062 12C20.0063 12 20.4062 11.6 20.4062 11C20.4062 10.4 20.0063 10 19.4062 10C19.1062 10 18.9062 10.1 18.7062 10.3C18.3062 10.7 17.7062 10.7 17.3062 10.3C16.9062 9.9 16.9062 9.3 17.3062 8.9C17.8062 8.3 18.6062 8 19.4062 8C21.1063 8 22.4062 9.3 22.4062 11C22.4062 12.7 21.1063 14 19.4062 14H10.4062C9.80625 14 9.40625 13.6 9.40625 13C9.40625 12.4 9.80625 12 10.4062 12H19.4062ZM18.4062 18H13.4062C12.8062 18 12.4062 17.6 12.4062 17C12.4062 16.4 12.8062 16 13.4062 16H18.4062C20.1063 16 21.4062 17.3 21.4062 19C21.4062 20.7 20.1063 22 18.4062 22C17.6062 22 16.8062 21.7 16.3062 21.1C15.9062 20.7 15.9062 20.1 16.3062 19.7C16.7062 19.3 17.3062 19.3 17.7062 19.7C17.9062 19.9 18.1062 20 18.4062 20C19.0063 20 19.4062 19.6 19.4062 19C19.4062 18.4 19.0063 18 18.4062 18Z" fill="black"/>
</g>
</svg>
