<svg width="25" height="24" viewBox="0 0 25 24" fill="none" xmlns="http://www.w3.org/2000/svg">
<g id="1128">
<path id="Vector" d="M3.40625 15H13.4062C13.6715 15 13.9258 15.1054 14.1134 15.2929C14.3009 15.4804 14.4062 15.7348 14.4062 16C14.4062 16.2652 14.3009 16.5196 14.1134 16.7071C13.9258 16.8946 13.6715 17 13.4062 17H3.40625C3.14103 17 2.88668 16.8946 2.69914 16.7071C2.51161 16.5196 2.40625 16.2652 2.40625 16C2.40625 15.7348 2.51161 15.4804 2.69914 15.2929C2.88668 15.1054 3.14103 15 3.40625 15ZM16.4062 15H21.4062C21.6715 15 21.9258 15.1054 22.1134 15.2929C22.3009 15.4804 22.4062 15.7348 22.4062 16C22.4062 16.2652 22.3009 16.5196 22.1134 16.7071C21.9258 16.8946 21.6715 17 21.4062 17H16.4062C16.141 17 15.8867 16.8946 15.6991 16.7071C15.5116 16.5196 15.4062 16.2652 15.4062 16C15.4062 15.7348 15.5116 15.4804 15.6991 15.2929C15.8867 15.1054 16.141 15 16.4062 15ZM1.40625 12C1.40625 10.6739 1.93303 9.40215 2.87072 8.46447C3.8084 7.52678 5.08017 7 6.40625 7C7.40625 4.65 9.70625 3 12.4062 3C15.8363 3 18.6463 5.66 18.9062 9.03L19.4062 9C21.5963 9 23.3763 10.76 23.4062 13H21.4062C21.4062 12.4696 21.1955 11.9609 20.8205 11.5858C20.4454 11.2107 19.9367 11 19.4062 11H17.4062V10C17.4063 8.67392 16.8795 7.40215 15.9418 6.46447C15.0041 5.52678 13.7323 5 12.4062 5C9.90625 5 7.85625 6.82 7.46625 9.19C7.13625 9.07 6.77625 9 6.40625 9C5.6106 9 4.84754 9.31607 4.28493 9.87868C3.72232 10.4413 3.40625 11.2044 3.40625 12C3.40625 12.35 3.46625 12.69 3.57625 13H1.50625L1.40625 12ZM3.40625 19H5.40625C5.67147 19 5.92582 19.1054 6.11336 19.2929C6.30089 19.4804 6.40625 19.7348 6.40625 20C6.40625 20.2652 6.30089 20.5196 6.11336 20.7071C5.92582 20.8946 5.67147 21 5.40625 21H3.40625C3.14103 21 2.88668 20.8946 2.69914 20.7071C2.51161 20.5196 2.40625 20.2652 2.40625 20C2.40625 19.7348 2.51161 19.4804 2.69914 19.2929C2.88668 19.1054 3.14103 19 3.40625 19ZM8.40625 19H21.4062C21.6715 19 21.9258 19.1054 22.1134 19.2929C22.3009 19.4804 22.4062 19.7348 22.4062 20C22.4062 20.2652 22.3009 20.5196 22.1134 20.7071C21.9258 20.8946 21.6715 21 21.4062 21H8.40625C8.14103 21 7.88668 20.8946 7.69914 20.7071C7.51161 20.5196 7.40625 20.2652 7.40625 20C7.40625 19.7348 7.51161 19.4804 7.69914 19.2929C7.88668 19.1054 8.14103 19 8.40625 19Z" fill="black"/>
</g>
</svg>
