<svg width="25" height="24" viewBox="0 0 25 24" fill="none" xmlns="http://www.w3.org/2000/svg">
<g id="1129">
<path id="Vector" d="M4.90625 13.59C5.40625 13.87 5.54625 14.5 5.27625 14.96C4.99625 15.44 4.40625 15.6 3.90625 15.33C2.40625 14.47 1.40625 12.85 1.40625 11C1.40625 9.67392 1.93303 8.40215 2.87072 7.46447C3.8084 6.52678 5.08017 6 6.40625 6C7.40625 3.65 9.70625 2 12.4062 2C15.8363 2 18.6463 4.66 18.9062 8.03L19.4062 8C20.4671 8 21.4845 8.42143 22.2347 9.17157C22.9848 9.92172 23.4062 10.9391 23.4062 12C23.4062 13.0609 22.9848 14.0783 22.2347 14.8284C21.4845 15.5786 20.4671 16 19.4062 16C19.141 16 18.8867 15.8946 18.6991 15.7071C18.5116 15.5196 18.4062 15.2652 18.4062 15C18.4062 14.7348 18.5116 14.4804 18.6991 14.2929C18.8867 14.1054 19.141 14 19.4062 14C19.9367 14 20.4454 13.7893 20.8205 13.4142C21.1955 13.0391 21.4062 12.5304 21.4062 12C21.4062 11.4696 21.1955 10.9609 20.8205 10.5858C20.4454 10.2107 19.9367 10 19.4062 10H17.4062V9C17.4063 7.67392 16.8795 6.40215 15.9418 5.46447C15.0041 4.52678 13.7323 4 12.4062 4C9.90625 4 7.85625 5.82 7.46625 8.19C7.13625 8.07 6.77625 8 6.40625 8C5.6106 8 4.84754 8.31607 4.28493 8.87868C3.72232 9.44129 3.40625 10.2044 3.40625 11C3.40625 12.11 4.00625 13.08 4.90625 13.6V13.59ZM9.90625 11H12.9062L10.9062 15H12.9062L9.15625 22L9.90625 17H7.40625L9.90625 11ZM17.9062 18.67C17.9062 19.96 16.9062 21 15.6562 21C14.4062 21 13.4062 19.96 13.4062 18.67C13.4062 17.12 15.6562 14.5 15.6562 14.5C15.6562 14.5 17.9062 17.12 17.9062 18.67Z" fill="black"/>
</g>
</svg>
