<svg width="25" height="24" viewBox="0 0 25 24" fill="none" xmlns="http://www.w3.org/2000/svg">
<g id="113">
<path id="Vector" d="M16.4102 5V4C16.4102 3.46957 16.1994 2.96086 15.8244 2.58579C15.4493 2.21071 14.9406 2 14.4102 2H10.4102C9.87972 2 9.37102 2.21071 8.99594 2.58579C8.62087 2.96086 8.41016 3.46957 8.41016 4V5C7.34929 5 6.33187 5.42143 5.58173 6.17157C4.83158 6.92172 4.41016 7.93913 4.41016 9V20C4.41016 20.5304 4.62087 21.0391 4.99594 21.4142C5.37102 21.7893 5.87972 22 6.41016 22H18.4102C18.9406 22 19.4493 21.7893 19.8244 21.4142C20.1994 21.0391 20.4102 20.5304 20.4102 20V9C20.4102 7.93913 19.9887 6.92172 19.2386 6.17157C18.4884 5.42143 17.471 5 16.4102 5ZM10.4102 4H14.4102V5H10.4102V4ZM12.4102 9L14.4102 11L12.4102 13L10.4102 11L12.4102 9ZM18.4102 16H9.41016V18H8.41016V16H6.41016V15H18.4102V16Z" fill="black"/>
</g>
</svg>
