<svg width="25" height="24" viewBox="0 0 25 24" fill="none" xmlns="http://www.w3.org/2000/svg">
<g id="1131">
<path id="Vector" d="M15.4062 6.79C17.2663 7.86 18.4062 9.85 18.4062 12C18.4062 22 6.40625 22 6.40625 22C7.65625 21.06 8.78625 19.95 9.74625 18.71C9.78625 18.66 9.81625 18.61 9.84625 18.55C10.0962 18.06 9.90625 17.46 9.40625 17.21C7.54625 16.14 6.40625 14.15 6.40625 12C6.40625 2 18.4062 2 18.4062 2C17.1562 2.94 16.0262 4.05 15.0662 5.29C15.0262 5.34 14.9963 5.39 14.9663 5.45C14.7163 5.94 14.9062 6.54 15.4062 6.79ZM12.4062 14C12.9367 14 13.4454 13.7893 13.8205 13.4142C14.1955 13.0391 14.4062 12.5304 14.4062 12C14.4062 11.4696 14.1955 10.9609 13.8205 10.5858C13.4454 10.2107 12.9367 10 12.4062 10C11.8758 10 11.3671 10.2107 10.992 10.5858C10.617 10.9609 10.4062 11.4696 10.4062 12C10.4062 12.5304 10.617 13.0391 10.992 13.4142C11.3671 13.7893 11.8758 14 12.4062 14Z" fill="black"/>
</g>
</svg>
