<svg width="25" height="24" viewBox="0 0 25 24" fill="none" xmlns="http://www.w3.org/2000/svg">
<g id="1132">
<path id="Vector" d="M6.40625 14C6.67147 14 6.92582 14.1054 7.11336 14.2929C7.30089 14.4804 7.40625 14.7348 7.40625 15C7.40625 15.2652 7.30089 15.5196 7.11336 15.7071C6.92582 15.8946 6.67147 16 6.40625 16C5.74964 16 5.09946 15.8707 4.49283 15.6194C3.8862 15.3681 3.33501 14.9998 2.87072 14.5355C1.93303 13.5979 1.40625 12.3261 1.40625 11C1.40625 9.67392 1.93303 8.40215 2.87072 7.46447C3.8084 6.52678 5.08017 6 6.40625 6C7.40625 3.65 9.70625 2 12.4062 2C15.8363 2 18.6463 4.66 18.9062 8.03L19.4062 8C20.4671 8 21.4845 8.42143 22.2347 9.17157C22.9848 9.92172 23.4062 10.9391 23.4062 12C23.4062 13.0609 22.9848 14.0783 22.2347 14.8284C21.4845 15.5786 20.4671 16 19.4062 16H18.4062C18.141 16 17.8867 15.8946 17.6991 15.7071C17.5116 15.5196 17.4062 15.2652 17.4062 15C17.4062 14.7348 17.5116 14.4804 17.6991 14.2929C17.8867 14.1054 18.141 14 18.4062 14H19.4062C19.9367 14 20.4454 13.7893 20.8205 13.4142C21.1955 13.0391 21.4062 12.5304 21.4062 12C21.4062 11.4696 21.1955 10.9609 20.8205 10.5858C20.4454 10.2107 19.9367 10 19.4062 10H17.4062V9C17.4063 7.67392 16.8795 6.40215 15.9418 5.46447C15.0041 4.52678 13.7323 4 12.4062 4C9.90625 4 7.85625 5.82 7.46625 8.19C7.13625 8.07 6.77625 8 6.40625 8C5.6106 8 4.84754 8.31607 4.28493 8.87868C3.72232 9.44129 3.40625 10.2044 3.40625 11C3.40625 11.7956 3.72232 12.5587 4.28493 13.1213C4.84754 13.6839 5.6106 14 6.40625 14ZM10.4062 18C10.9367 18 11.4454 18.2107 11.8205 18.5858C12.1955 18.9609 12.4062 19.4696 12.4062 20C12.4062 20.5304 12.1955 21.0391 11.8205 21.4142C11.4454 21.7893 10.9367 22 10.4062 22C9.87582 22 9.36711 21.7893 8.99204 21.4142C8.61696 21.0391 8.40625 20.5304 8.40625 20C8.40625 19.4696 8.61696 18.9609 8.99204 18.5858C9.36711 18.2107 9.87582 18 10.4062 18ZM14.9062 16C15.3041 16 15.6856 16.158 15.9669 16.4393C16.2482 16.7206 16.4062 17.1022 16.4062 17.5C16.4062 17.8978 16.2482 18.2794 15.9669 18.5607C15.6856 18.842 15.3041 19 14.9062 19C14.5084 19 14.1269 18.842 13.8456 18.5607C13.5643 18.2794 13.4063 17.8978 13.4062 17.5C13.4062 17.1022 13.5643 16.7206 13.8456 16.4393C14.1269 16.158 14.5084 16 14.9062 16ZM10.9062 12C11.3041 12 11.6856 12.158 11.9669 12.4393C12.2482 12.7206 12.4062 13.1022 12.4062 13.5C12.4062 13.8978 12.2482 14.2794 11.9669 14.5607C11.6856 14.842 11.3041 15 10.9062 15C10.5084 15 10.1269 14.842 9.84559 14.5607C9.56429 14.2794 9.40625 13.8978 9.40625 13.5C9.40625 13.1022 9.56429 12.7206 9.84559 12.4393C10.1269 12.158 10.5084 12 10.9062 12Z" fill="black"/>
</g>
</svg>
