<svg width="25" height="24" viewBox="0 0 25 24" fill="none" xmlns="http://www.w3.org/2000/svg">
<g id="1133">
<path id="Vector" d="M18.1488 4.09L15.6188 6.03L16.5287 9.09L13.8988 7.28L11.2688 9.09L12.1788 6.03L9.64875 4.09L12.8387 4L13.8988 1L14.9588 4L18.1488 4.09ZM21.6488 11L20.0088 12.25L20.5988 14.23L18.8988 13.06L17.1987 14.23L17.7887 12.25L16.1488 11L18.2087 10.95L18.8988 9L19.5888 10.95L21.6488 11ZM19.3687 15.95C20.1987 15.87 21.0888 17.05 20.5588 17.8C20.2388 18.25 19.8988 18.67 19.4788 19.07C15.5688 23 9.23875 23 5.33875 19.07C1.42875 15.17 1.42875 8.83 5.33875 4.93C5.73875 4.53 6.15875 4.17 6.60875 3.85C7.35875 3.32 8.53875 4.21 8.45875 5.04C8.18875 7.9 9.14875 10.87 11.3488 13.06C13.5388 15.26 16.4987 16.22 19.3687 15.95ZM17.7288 17.97C14.8988 17.81 12.0987 16.64 9.92875 14.5C7.75875 12.31 6.59875 9.5 6.43875 6.68C3.62875 9.82 3.73875 14.64 6.74875 17.66C9.76875 20.67 14.5888 20.78 17.7288 17.97Z" fill="black"/>
</g>
</svg>
