<svg width="25" height="24" viewBox="0 0 25 24" fill="none" xmlns="http://www.w3.org/2000/svg">
<g id="1134">
<path id="Vector" d="M22.4062 10.28C22.1463 10.3 21.9063 10.31 21.6663 10.31C19.7263 10.31 17.7962 9.57 16.3162 8.09C14.6562 6.44 13.9063 4.19 14.1263 2C14.1763 1.53 13.6263 1 13.1163 1C12.9763 1 12.8462 1.04 12.7262 1.12C12.4062 1.36 12.0662 1.64 11.7662 1.94C9.45625 4.24 8.95625 7.66 10.2463 10.46C8.71625 11.11 7.53625 12.43 7.09625 14.06L6.40625 14C5.34538 14 4.32797 14.4214 3.57782 15.1716C2.82768 15.9217 2.40625 16.9391 2.40625 18C2.40625 19.0609 2.82768 20.0783 3.57782 20.8284C4.32797 21.5786 5.34538 22 6.40625 22H19.4062C20.2019 22 20.965 21.6839 21.5276 21.1213C22.0902 20.5587 22.4062 19.7956 22.4062 19C22.4062 18.2044 22.0902 17.4413 21.5276 16.8787C20.965 16.3161 20.2019 16 19.4062 16C18.8263 16 18.2863 16.16 17.8263 16.45L17.9062 15.5C17.9062 15.28 17.9062 15.05 17.8662 14.83C19.5462 14.67 21.1762 13.94 22.4662 12.64C22.7862 12.34 23.0462 12 23.2862 11.68C23.6762 11.13 23.0563 10.28 22.4463 10.28M19.4062 18C19.6715 18 19.9258 18.1054 20.1134 18.2929C20.3009 18.4804 20.4062 18.7348 20.4062 19C20.4062 19.2652 20.3009 19.5196 20.1134 19.7071C19.9258 19.8946 19.6715 20 19.4062 20H6.40625C5.87582 20 5.36711 19.7893 4.99204 19.4142C4.61696 19.0391 4.40625 18.5304 4.40625 18C4.40625 17.4696 4.61696 16.9609 4.99204 16.5858C5.36711 16.2107 5.87582 16 6.40625 16H8.90625V15.5C8.90625 13.94 9.93625 12.64 11.3462 12.18C11.5062 12.13 11.6663 12.09 11.8363 12.06C12.0163 12.03 12.2062 12 12.4062 12C12.6363 12 12.8562 12.03 13.0662 12.07C13.1362 12.08 13.2062 12.1 13.2762 12.13C13.4062 12.16 13.5562 12.2 13.6862 12.25C13.7662 12.28 13.8463 12.32 13.9062 12.36C14.0362 12.41 14.1463 12.47 14.2463 12.54C14.3263 12.59 14.4062 12.64 14.4762 12.7C14.5762 12.77 14.6563 12.84 14.7463 12.92C14.8163 13 14.9063 13.05 14.9563 13.12C15.0363 13.2 15.0963 13.29 15.1663 13.37C15.2263 13.45 15.2962 13.53 15.3462 13.62C15.4062 13.71 15.4463 13.8 15.4963 13.9C15.5463 14 15.6062 14.08 15.6462 14.18C15.8162 14.59 15.9062 15.03 15.9062 15.5V18M17.2362 12.86C16.3062 11.16 14.4862 10 12.4062 10H12.2762C11.8162 9.19 11.5463 8.26 11.5463 7.29C11.5463 6.31 11.7962 5.37 12.2662 4.55C12.6162 6.41 13.5263 8.14 14.9062 9.5C16.2663 10.88 17.9863 11.79 19.8563 12.14C19.0663 12.6 18.1662 12.84 17.2362 12.86Z" fill="black"/>
</g>
</svg>
