<svg width="25" height="24" viewBox="0 0 25 24" fill="none" xmlns="http://www.w3.org/2000/svg">
<g id="1135">
<path id="Vector" d="M13.1488 5.47007C15.5088 6.50007 16.7588 9.03007 16.3288 11.4601C17.5988 12.5601 18.4088 14.1901 18.4088 16.0001V16.1701C18.7188 16.0601 19.0588 16.0001 19.4088 16.0001C20.2044 16.0001 20.9675 16.3161 21.5301 16.8787C22.0927 17.4414 22.4088 18.2044 22.4088 19.0001C22.4088 19.7957 22.0927 20.5588 21.5301 21.1214C20.9675 21.684 20.2044 22.0001 19.4088 22.0001H6.40875C5.34788 22.0001 4.33047 21.5786 3.58032 20.8285C2.83018 20.0783 2.40875 19.0609 2.40875 18.0001C2.40875 16.9392 2.83018 15.9218 3.58032 15.1716C4.33047 14.4215 5.34788 14.0001 6.40875 14.0001H6.67875C5.40875 12.4501 5.00875 10.2401 5.90875 8.26007C7.12875 5.50007 10.3788 4.24007 13.1488 5.47007ZM12.3388 7.30007C10.5688 6.50007 8.49875 7.31007 7.71875 9.07007C7.25875 10.0901 7.33875 11.2201 7.81875 12.1301C8.90875 10.8301 10.5688 10.0001 12.4088 10.0001C13.1088 10.0001 13.7888 10.1201 14.4088 10.3401C14.3488 9.06007 13.5888 7.86007 12.3388 7.30007ZM13.9587 3.64007C13.4087 3.40007 12.8587 3.23007 12.2887 3.12007L14.7787 1.82007L15.6788 4.71007C15.1688 4.29007 14.5987 3.93007 13.9587 3.64007ZM6.49875 4.44007C6.00875 4.79007 5.57875 5.19007 5.20875 5.63007L5.31875 2.82007L8.27875 3.50007C7.65875 3.71007 7.05875 4.03007 6.49875 4.44007ZM18.4088 9.71007C18.3188 9.12007 18.1888 8.55007 17.9988 8.00007L20.3787 9.50007L18.3288 11.7301C18.4388 11.0801 18.4588 10.4001 18.4088 9.71007ZM3.44875 11.3001C3.51875 11.9001 3.64875 12.4701 3.83875 13.0001L1.46875 11.5001L3.50875 9.28007C3.40875 9.93007 3.37875 10.6101 3.44875 11.3001ZM19.4088 18.0001H16.4088V16.0001C16.4088 14.9392 15.9873 13.9218 15.2372 13.1716C14.487 12.4215 13.4696 12.0001 12.4088 12.0001C11.3479 12.0001 10.3305 12.4215 9.58032 13.1716C8.83018 13.9218 8.40875 14.9392 8.40875 16.0001H6.40875C5.87832 16.0001 5.36961 16.2108 4.99454 16.5859C4.61946 16.9609 4.40875 17.4696 4.40875 18.0001C4.40875 18.5305 4.61946 19.0392 4.99454 19.4143C5.36961 19.7894 5.87832 20.0001 6.40875 20.0001H19.4088C19.674 20.0001 19.9283 19.8947 20.1159 19.7072C20.3034 19.5196 20.4088 19.2653 20.4088 19.0001C20.4088 18.7349 20.3034 18.4805 20.1159 18.293C19.9283 18.1054 19.674 18.0001 19.4088 18.0001Z" fill="black"/>
</g>
</svg>
