<svg width="25" height="24" viewBox="0 0 25 24" fill="none" xmlns="http://www.w3.org/2000/svg">
<g id="1137" clip-path="url(#clip0_5605_222880)">
<g id="Group">
<path id="Vector" d="M13.1588 4.47007C15.5088 5.50007 16.7588 8.03007 16.3288 10.4601C17.5988 11.5601 18.4088 13.1901 18.4088 15.0001V15.1701C18.7188 15.0601 19.0588 15.0001 19.4088 15.0001C20.2044 15.0001 20.9675 15.3161 21.5301 15.8787C22.0927 16.4414 22.4088 17.2044 22.4088 18.0001C22.4088 18.7957 22.0927 19.5588 21.5301 20.1214C20.9675 20.684 20.2044 21.0001 19.4088 21.0001H17.4088C17.4088 21.0001 16.4088 21.0001 16.4088 20.0001C16.4088 19.0001 17.4088 19.0001 17.4088 19.0001H19.4088C19.674 19.0001 19.9283 18.8947 20.1159 18.7072C20.3034 18.5196 20.4088 18.2653 20.4088 18.0001C20.4088 17.7349 20.3034 17.4805 20.1159 17.293C19.9283 17.1054 19.674 17.0001 19.4088 17.0001H16.4088V15.0001C16.4088 13.9392 15.9873 12.9218 15.2372 12.1716C14.487 11.4215 13.4696 11.0001 12.4088 11.0001C11.3479 11.0001 10.3305 11.4215 9.58032 12.1716C8.83018 12.9218 8.40875 13.9392 8.40875 15.0001H6.40875C5.87832 15.0001 5.36961 15.2108 4.99454 15.5859C4.61946 15.9609 4.40875 16.4696 4.40875 17.0001C4.40875 17.5305 4.61946 18.0392 4.99454 18.4143C5.36961 18.7894 5.87832 19.0001 6.40875 19.0001H7.40875C7.40875 19.0001 8.40875 19.0001 8.40875 20.0001C8.40875 21.0001 7.40875 21.0001 7.40875 21.0001H6.40875C5.34788 21.0001 4.33047 20.5786 3.58032 19.8285C2.83018 19.0783 2.40875 18.0609 2.40875 17.0001C2.40875 15.9392 2.83018 14.9218 3.58032 14.1716C4.33047 13.4215 5.34788 13.0001 6.40875 13.0001H6.67875C5.40875 11.4501 5.00875 9.24007 5.90875 7.25007C7.12875 4.50007 10.3788 3.24007 13.1588 4.47007ZM12.3388 6.30007C10.5688 5.50007 8.49875 6.31007 7.71875 8.07007C7.25875 9.09007 7.33875 10.2201 7.81875 11.1301C8.90875 9.83007 10.5688 9.00007 12.4088 9.00007C13.1088 9.00007 13.7888 9.12007 14.4088 9.34007C14.3488 8.06007 13.5888 6.86007 12.3388 6.30007ZM13.9587 2.63007C13.4087 2.40007 12.8587 2.23007 12.2887 2.12007L14.7787 0.820068L15.6788 3.71007C15.1688 3.29007 14.5987 2.93007 13.9587 2.63007ZM6.49875 3.44007C6.00875 3.79007 5.57875 4.19007 5.20875 4.63007L5.31875 1.82007L8.27875 2.50007C7.65875 2.71007 7.05875 3.03007 6.49875 3.44007ZM18.4088 8.71007C18.3188 8.12007 18.1888 7.55007 17.9988 7.00007L20.3787 8.50007L18.3288 10.7301C18.4388 10.0801 18.4588 9.40007 18.4088 8.71007ZM3.44875 10.3001C3.51875 10.9001 3.65875 11.4701 3.83875 12.0001L1.46875 10.5001L3.50875 8.28007C3.40875 8.93007 3.37875 9.61007 3.44875 10.3001ZM12.4088 18.9101C12.9988 19.8201 13.4088 20.6301 13.4088 21.0001C13.4088 21.2653 13.3034 21.5196 13.1159 21.7072C12.9283 21.8947 12.674 22.0001 12.4088 22.0001C12.1435 22.0001 11.8892 21.8947 11.7016 21.7072C11.5141 21.5196 11.4088 21.2653 11.4088 21.0001C11.4088 20.6301 11.8188 19.8201 12.4088 18.9101ZM12.4088 15.6201C12.4088 15.6201 9.40875 19.0001 9.40875 21.0001C9.40875 21.7957 9.72482 22.5588 10.2874 23.1214C10.85 23.684 11.6131 24.0001 12.4088 24.0001C13.2044 24.0001 13.9675 23.684 14.5301 23.1214C15.0927 22.5588 15.4088 21.7957 15.4088 21.0001C15.4088 19.0001 12.4088 15.6201 12.4088 15.6201Z" fill="black"/>
</g>
</g>
<defs>
<clipPath id="clip0_5605_222880">
<rect width="25" height="24" fill="white"/>
</clipPath>
</defs>
</svg>
