<svg width="25" height="24" viewBox="0 0 25 24" fill="none" xmlns="http://www.w3.org/2000/svg">
<g id="1139">
<path id="Vector" d="M6.40625 14.03C6.67147 14.03 6.92582 14.1354 7.11336 14.3229C7.30089 14.5105 7.40625 14.7648 7.40625 15.03C7.40625 15.58 6.95625 16.03 6.40625 16.03C3.64625 16.03 1.40625 13.79 1.40625 11.03C1.40625 8.27003 3.64625 6.03003 6.40625 6.03003C7.40625 3.68003 9.70625 2.03003 12.4062 2.03003C15.8363 2.03003 18.6463 4.69003 18.9062 8.06003L19.4062 8.03003C20.4671 8.03003 21.4845 8.45146 22.2347 9.2016C22.9848 9.95175 23.4062 10.9692 23.4062 12.03C23.4062 14.23 21.6163 16.03 19.4062 16.03H18.4062C17.8562 16.03 17.4062 15.58 17.4062 15.03C17.4062 14.47 17.8562 14.03 18.4062 14.03H19.4062C19.9367 14.03 20.4454 13.8193 20.8205 13.4442C21.1955 13.0692 21.4062 12.5605 21.4062 12.03C21.4062 11.4996 21.1955 10.9909 20.8205 10.6158C20.4454 10.2407 19.9367 10.03 19.4062 10.03H17.4062V9.03003C17.4062 6.27003 15.1662 4.03003 12.4062 4.03003C9.90625 4.03003 7.85625 5.84003 7.46625 8.21003C7.13625 8.09003 6.77625 8.03003 6.40625 8.03003C5.6106 8.03003 4.84754 8.3461 4.28493 8.90871C3.72232 9.47132 3.40625 10.2344 3.40625 11.03C3.40625 11.8257 3.72232 12.5887 4.28493 13.1514C4.84754 13.714 5.6106 14.03 6.40625 14.03ZM12.4062 14.15C12.5863 14.39 12.7763 14.66 12.9663 14.94C13.4063 15.56 14.4062 17.03 14.4062 18C14.4062 19.11 13.5063 20 12.4062 20C11.8758 20 11.3671 19.7893 10.992 19.4142C10.617 19.0392 10.4062 18.5305 10.4062 18C10.4062 17.03 11.4062 15.56 11.8462 14.94C12.0362 14.66 12.2262 14.4 12.4062 14.15ZM12.4062 11.03L11.9062 11.59C11.9062 11.59 11.0562 12.55 10.1962 13.81C9.33625 15.06 8.40625 16.56 8.40625 18C8.40625 19.0609 8.82768 20.0783 9.57782 20.8285C10.328 21.5786 11.3454 22 12.4062 22C13.4671 22 14.4845 21.5786 15.2347 20.8285C15.9848 20.0783 16.4062 19.0609 16.4062 18C16.4062 16.56 15.4763 15.06 14.6163 13.81C13.7563 12.55 12.9062 11.59 12.9062 11.59" fill="black"/>
</g>
</svg>
