<svg width="25" height="24" viewBox="0 0 25 24" fill="none" xmlns="http://www.w3.org/2000/svg">
<g id="114">
<path id="Vector" d="M15.4102 3H12.4102V5H15.4102V21H5.41016V5H8.41016V3H5.41016C4.87972 3 4.37102 3.21071 3.99594 3.58579C3.62087 3.96086 3.41016 4.46957 3.41016 5V21C3.41016 21.5304 3.62087 22.0391 3.99594 22.4142C4.37102 22.7893 4.87972 23 5.41016 23H15.4102C15.9406 23 16.4493 22.7893 16.8244 22.4142C17.1994 22.0391 17.4102 21.5304 17.4102 21V5C17.4102 4.46957 17.1994 3.96086 16.8244 3.58579C16.4493 3.21071 15.9406 3 15.4102 3ZM10.4102 7C10.9406 7 11.4493 7.21071 11.8244 7.58579C12.1994 7.96086 12.4102 8.46957 12.4102 9C12.4102 9.53043 12.1994 10.0391 11.8244 10.4142C11.4493 10.7893 10.9406 11 10.4102 11C9.87972 11 9.37102 10.7893 8.99594 10.4142C8.62087 10.0391 8.41016 9.53043 8.41016 9C8.41016 8.46957 8.62087 7.96086 8.99594 7.58579C9.37102 7.21071 9.87972 7 10.4102 7ZM14.4102 15H6.41016V14C6.41016 12.67 9.08016 12 10.4102 12C11.7402 12 14.4102 12.67 14.4102 14V15ZM14.4102 18H6.41016V17H14.4102V18ZM10.4102 20H6.41016V19H10.4102V20ZM11.4102 5H9.41016V1H11.4102V5ZM19.4102 13V7H21.4102V13H19.4102ZM19.4102 17V15H21.4102V17H19.4102Z" fill="black"/>
</g>
</svg>
