<svg width="25" height="24" viewBox="0 0 25 24" fill="none" xmlns="http://www.w3.org/2000/svg">
<g id="1140">
<path id="Vector" d="M9.40625 12C9.93625 12.14 10.2563 12.69 10.1163 13.22L8.81625 18.05C8.67625 18.59 8.12625 18.9 7.59625 18.76C7.05625 18.62 6.74625 18.07 6.90625 17.54L8.18625 12.71C8.32625 12.17 8.87625 11.86 9.40625 12ZM13.4062 12C13.9362 12.14 14.2563 12.69 14.1163 13.22L12.0463 20.95C11.9063 21.5 11.3562 21.8 10.8162 21.66C10.2862 21.5 9.96625 20.97 10.1062 20.43L12.1862 12.71C12.3262 12.17 12.8763 11.86 13.4062 12ZM17.4062 12C17.9362 12.14 18.2562 12.69 18.1162 13.22L16.8162 18.05C16.6762 18.59 16.1262 18.9 15.5962 18.76C15.0562 18.62 14.7463 18.07 14.9062 17.54L16.1862 12.71C16.3262 12.17 16.8763 11.86 17.4062 12ZM17.4062 10V9C17.4063 7.67392 16.8795 6.40215 15.9418 5.46447C15.0041 4.52678 13.7323 4 12.4062 4C9.90625 4 7.85625 5.82 7.46625 8.19C7.13625 8.07 6.77625 8 6.40625 8C5.6106 8 4.84754 8.31607 4.28493 8.87868C3.72232 9.44129 3.40625 10.2044 3.40625 11C3.40625 12.11 4.00625 13.08 4.90625 13.6V13.59C5.40625 13.87 5.54625 14.5 5.27625 14.96C4.99625 15.43 4.40625 15.6 3.90625 15.32V15.33C2.40625 14.47 1.40625 12.85 1.40625 11C1.40625 9.67392 1.93303 8.40215 2.87072 7.46447C3.8084 6.52678 5.08017 6 6.40625 6C7.40625 3.65 9.70625 2 12.4062 2C15.8363 2 18.6463 4.66 18.9062 8.03L19.4062 8C20.4671 8 21.4845 8.42143 22.2347 9.17157C22.9848 9.92172 23.4062 10.9391 23.4062 12C23.4062 13.5 22.6063 14.77 21.4062 15.46C20.9062 15.73 20.3162 15.57 20.0362 15.09C19.7662 14.61 19.9062 14 20.4062 13.72V13.73C21.0063 13.39 21.4062 12.74 21.4062 12C21.4062 11.4696 21.1955 10.9609 20.8205 10.5858C20.4454 10.2107 19.9367 10 19.4062 10H17.4062Z" fill="black"/>
</g>
</svg>
