<svg width="25" height="24" viewBox="0 0 25 24" fill="none" xmlns="http://www.w3.org/2000/svg">
<g id="1141" clip-path="url(#clip0_5605_222889)">
<g id="Group">
<path id="Vector" d="M13.9587 2.66009C13.4087 2.42009 12.8587 2.26009 12.2887 2.15009L14.7787 0.840088L15.6788 3.73009C15.1688 3.31009 14.5987 2.95009 13.9587 2.66009ZM6.49875 3.46009C6.00875 3.81009 5.57875 4.21009 5.20875 4.66009L5.31875 1.84009L8.27875 2.53009C7.65875 2.73009 7.05875 3.05009 6.49875 3.46009ZM18.4088 8.73009C18.3188 8.15009 18.1888 7.57009 17.9988 7.03009L20.3787 8.53009L18.3288 10.7601C18.4388 10.1001 18.4588 9.42009 18.4088 8.73009ZM3.44875 10.3201C3.51875 10.9201 3.65875 11.5001 3.83875 12.0301L1.46875 10.5301L3.50875 8.30009C3.40875 8.95009 3.37875 9.64009 3.44875 10.3201ZM17.0888 22.2101C17.0888 23.2001 16.3187 24.0001 15.3587 24.0001C14.4087 24.0001 13.6388 23.2001 13.6388 22.2101C13.6388 21.0301 15.3587 19.0301 15.3587 19.0301C15.3587 19.0301 17.0888 21.0301 17.0888 22.2101ZM6.43875 21.4501C6.33875 21.0701 6.55875 20.6801 6.94875 20.5801L8.53875 20.1501L7.36875 19.0001C7.08875 18.7201 7.08875 18.2701 7.36875 18.0001C7.63875 17.7001 8.10875 17.7001 8.40875 18.0001L9.54875 19.1401L9.95875 17.5601C10.0587 17.1701 10.4588 16.9401 10.8388 17.0501C11.2288 17.1501 11.4588 17.5501 11.3388 17.9301L10.9088 19.5001L12.5088 19.1001C12.9088 19.0001 13.2888 19.2101 13.4088 19.6001C13.4888 19.9701 13.2687 20.3701 12.8787 20.4701L11.2987 20.8901L12.4587 22.0501C12.7387 22.3201 12.7387 22.7901 12.4587 23.0701C12.1787 23.3501 11.7187 23.3501 11.4387 23.0701L10.2787 21.9001L9.85875 23.5001C9.75875 23.8801 9.35875 24.1001 8.97875 24.0001C8.58875 23.9001 8.37875 23.5001 8.46875 23.1201L8.90875 21.5501L7.31875 21.9601C6.90875 22.0601 6.53875 21.8401 6.43875 21.4501ZM19.4088 15.0301C19.0588 15.0301 18.7188 15.0801 18.4088 15.1901V15.0301C18.4088 13.2101 17.5988 11.5801 16.3288 10.5001C16.7588 8.05009 15.5088 5.53009 13.1588 4.50009C10.3788 3.27009 7.12875 4.53009 5.90875 7.28009C5.00875 9.27009 5.40875 11.4701 6.67875 13.0301H6.40875C4.19875 13.0301 2.40875 14.8101 2.40875 17.0301C2.40875 18.1701 2.90875 19.2001 3.67875 19.9301C3.67875 19.9301 4.37875 20.6401 5.08875 19.9301C5.79875 19.2201 5.08875 18.5001 5.08875 18.5001C4.67875 18.1501 4.40875 17.6201 4.40875 17.0301C4.40875 15.9201 5.30875 15.0301 6.40875 15.0301H8.40875C8.40875 12.8101 10.1988 11.0301 12.4088 11.0301C13.4696 11.0301 14.487 11.4515 15.2372 12.2017C15.9873 12.9518 16.4088 13.9692 16.4088 15.0301V17.0301H19.4088C19.674 17.0301 19.9283 17.1354 20.1159 17.323C20.3034 17.5105 20.4088 17.7649 20.4088 18.0301C20.4088 18.5701 19.9588 19.0301 19.4088 19.0301H18.4088C18.4088 19.0301 17.4088 19.0301 17.4088 20.0301C17.4088 21.0301 18.4088 21.0301 18.4088 21.0301H19.4088C20.2044 21.0301 20.9675 20.714 21.5301 20.1514C22.0927 19.5888 22.4088 18.8257 22.4088 18.0301C22.4088 16.3701 21.0688 15.0301 19.4088 15.0301ZM12.4088 9.03009C10.5688 9.03009 8.90875 9.85009 7.81875 11.1601C7.33875 10.2501 7.25875 9.11009 7.71875 8.09009C8.49875 6.33009 10.5688 5.53009 12.3388 6.32009C13.5888 6.89009 14.3488 8.08009 14.4088 9.37009C13.7888 9.15009 13.1088 9.03009 12.4088 9.03009Z" fill="black"/>
</g>
</g>
<defs>
<clipPath id="clip0_5605_222889">
<rect width="25" height="24" fill="white"/>
</clipPath>
</defs>
</svg>
