<svg width="25" height="24" viewBox="0 0 25 24" fill="none" xmlns="http://www.w3.org/2000/svg">
<g id="1142" clip-path="url(#clip0_5605_222892)">
<g id="Group">
<path id="Vector" d="M6.40875 19.0301C5.87832 19.0301 5.36961 18.8194 4.99454 18.4443C4.61946 18.0692 4.40875 17.5605 4.40875 17.0301C4.40875 15.9201 5.30875 15.0301 6.40875 15.0301H8.40875C8.40875 12.8101 10.1988 11.0301 12.4088 11.0301C13.4696 11.0301 14.487 11.4515 15.2372 12.2017C15.9873 12.9518 16.4088 13.9692 16.4088 15.0301V17.0301H19.4088C19.674 17.0301 19.9283 17.1354 20.1159 17.323C20.3034 17.5105 20.4088 17.7649 20.4088 18.0301C20.4088 18.5701 19.9588 19.0301 19.4088 19.0301H17.4088C17.4088 19.0301 16.4088 19.0301 16.4088 20.0301C16.4088 21.0301 17.4088 21.0301 17.4088 21.0301H19.4088C20.2044 21.0301 20.9675 20.714 21.5301 20.1514C22.0927 19.5888 22.4088 18.8257 22.4088 18.0301C22.4088 16.3701 21.0688 15.0301 19.4088 15.0301C19.0588 15.0301 18.7188 15.0801 18.4088 15.1901V15.0301C18.4088 13.2101 17.5988 11.5801 16.3288 10.5001C16.7588 8.05009 15.5088 5.53009 13.1588 4.50009C10.3788 3.27009 7.12875 4.53009 5.90875 7.28009C5.00875 9.27009 5.40875 11.4701 6.67875 13.0301H6.40875C4.19875 13.0301 2.40875 14.8101 2.40875 17.0301C2.40875 18.091 2.83018 19.1084 3.58032 19.8585C4.33047 20.6087 5.34788 21.0301 6.40875 21.0301C6.40875 21.0301 7.40875 21.0301 7.40875 20.0301C7.40875 19.0301 6.40875 19.0301 6.40875 19.0301ZM12.4088 9.03009C10.5688 9.03009 8.90875 9.85009 7.81875 11.1601C7.33875 10.2501 7.25875 9.11009 7.71875 8.09009C8.49875 6.33009 10.5688 5.53009 12.3388 6.32009C13.5888 6.89009 14.3488 8.08009 14.4088 9.37009C13.7888 9.15009 13.1088 9.03009 12.4088 9.03009ZM13.9587 2.66009C13.4087 2.42009 12.8587 2.26009 12.2887 2.15009L14.7787 0.840088L15.6788 3.73009C15.1688 3.31009 14.5987 2.95009 13.9587 2.66009ZM6.49875 3.46009C6.00875 3.81009 5.57875 4.21009 5.20875 4.66009L5.31875 1.84009L8.27875 2.53009C7.65875 2.73009 7.05875 3.05009 6.49875 3.46009ZM18.4088 8.73009C18.3188 8.15009 18.1888 7.57009 17.9988 7.03009L20.3787 8.53009L18.3288 10.7601C18.4388 10.1001 18.4588 9.42009 18.4088 8.73009ZM3.44875 10.3201C3.51875 10.9201 3.65875 11.5001 3.83875 12.0301L1.46875 10.5301L3.50875 8.30009C3.40875 8.95009 3.37875 9.64009 3.44875 10.3201ZM8.43875 21.4501C8.53875 21.8401 8.93875 22.0601 9.31875 21.9601L10.9088 21.5401L10.4688 23.1101C10.3687 23.5001 10.5988 23.9001 10.9788 24.0001C11.3588 24.1001 11.7587 23.8701 11.8587 23.5001L12.2787 21.9101L13.4387 23.0701C13.7087 23.3501 14.1787 23.3501 14.4587 23.0701C14.7387 22.7901 14.7387 22.3201 14.4587 22.0501L13.2987 20.8801L14.8787 20.4701C15.2587 20.3701 15.4888 19.9701 15.4088 19.5901C15.2888 19.2101 14.9088 19.0001 14.4988 19.0801L12.9088 19.5001L13.3487 17.9301C13.4487 17.5401 13.2288 17.1501 12.8388 17.0501C12.4588 16.9501 12.0687 17.1701 11.9587 17.5601L11.5487 19.1401L10.4088 17.9701C10.1088 17.6901 9.63875 17.6901 9.35875 17.9701C9.08875 18.2701 9.08875 18.7201 9.35875 19.0001L10.5187 20.1601L8.94875 20.5701C8.55875 20.6801 8.33875 21.0701 8.43875 21.4501Z" fill="black"/>
</g>
</g>
<defs>
<clipPath id="clip0_5605_222892">
<rect width="25" height="24" fill="white"/>
</clipPath>
</defs>
</svg>
