<svg width="25" height="24" viewBox="0 0 25 24" fill="none" xmlns="http://www.w3.org/2000/svg">
<g id="1144">
<path id="Vector" d="M4.40625 16.36C4.26625 15.82 4.58625 15.25 5.13625 15.11L7.40625 14.5L5.73625 12.86C5.33625 12.46 5.33625 11.81 5.73625 11.4C6.13625 11 6.80625 11 7.19625 11.4L8.85625 13.05L9.44625 10.8C9.58625 10.24 10.1562 9.92 10.6962 10.07C11.2562 10.21 11.5763 10.78 11.4062 11.33L10.8263 13.58L13.0763 13C13.6263 12.83 14.1963 13.15 14.3363 13.71C14.4863 14.25 14.1662 14.82 13.6062 14.96L11.3562 15.55L13.0063 17.21C13.4063 17.6 13.4063 18.27 13.0063 18.67C12.6063 19.07 11.9462 19.07 11.5562 18.67L9.90625 17L9.29625 19.27C9.15625 19.83 8.58625 20.14 8.04625 20C7.48625 19.86 7.17625 19.29 7.31625 18.74L7.90625 16.5L5.66625 17.09C5.11625 17.23 4.54625 16.92 4.40625 16.36ZM1.40625 10C1.40625 8.67392 1.93303 7.40215 2.87072 6.46447C3.8084 5.52678 5.08017 5 6.40625 5C7.40625 2.65 9.70625 1 12.4062 1C15.8363 1 18.6463 3.66 18.9062 7.03L19.4062 7C20.4671 7 21.4845 7.42143 22.2347 8.17157C22.9848 8.92172 23.4062 9.93913 23.4062 11C23.4062 12.0609 22.9848 13.0783 22.2347 13.8284C21.4845 14.5786 20.4671 15 19.4062 15C19.141 15 18.8867 14.8946 18.6991 14.7071C18.5116 14.5196 18.4062 14.2652 18.4062 14C18.4062 13.7348 18.5116 13.4804 18.6991 13.2929C18.8867 13.1054 19.141 13 19.4062 13C19.9367 13 20.4454 12.7893 20.8205 12.4142C21.1955 12.0391 21.4062 11.5304 21.4062 11C21.4062 10.4696 21.1955 9.96086 20.8205 9.58579C20.4454 9.21071 19.9367 9 19.4062 9H17.4062V8C17.4063 6.67392 16.8795 5.40215 15.9418 4.46447C15.0041 3.52678 13.7323 3 12.4062 3C9.90625 3 7.85625 4.82 7.46625 7.19C7.13625 7.07 6.77625 7 6.40625 7C5.6106 7 4.84754 7.31607 4.28493 7.87868C3.72232 8.44129 3.40625 9.20435 3.40625 10C3.40625 10.85 3.75625 11.61 4.31625 12.16C4.67625 12.55 4.66625 13.16 4.28625 13.54C3.90625 13.93 3.25625 13.93 2.87625 13.54C1.96625 12.63 1.40625 11.38 1.40625 10ZM14.4362 20.43C14.5362 20.82 14.9062 21.04 15.3162 20.94L16.9062 20.5L16.4662 22.09C16.3662 22.5 16.5862 22.87 16.9762 22.97C17.3562 23.08 17.7563 22.85 17.8563 22.46L18.2663 20.89L19.4363 22.05C19.7063 22.33 20.1762 22.33 20.4562 22.05C20.7362 21.77 20.7362 21.3 20.4562 21.03L19.2962 19.86L20.8662 19.45C21.2562 19.35 21.4862 18.95 21.3762 18.57C21.2762 18.18 20.9063 17.96 20.4963 18.06L18.9062 18.5L19.3463 16.91C19.4463 16.5 19.2263 16.13 18.8363 16.03C18.4563 15.92 18.0562 16.15 17.9562 16.54L17.5462 18.11L16.3763 16.95C16.1063 16.67 15.6362 16.67 15.3562 16.95C15.0762 17.24 15.0762 17.7 15.3562 17.97L16.5163 19.14L14.9462 19.55C14.5562 19.65 14.3262 20.05 14.4362 20.43Z" fill="black"/>
</g>
</svg>
