<svg width="25" height="24" viewBox="0 0 25 24" fill="none" xmlns="http://www.w3.org/2000/svg">
<g id="1145">
<path id="Vector" d="M18.9062 18.67C18.9062 19.96 17.9062 21 16.6562 21C15.4062 21 14.4062 19.96 14.4062 18.67C14.4062 17.12 16.6562 14.5 16.6562 14.5C16.6562 14.5 18.9062 17.12 18.9062 18.67ZM4.40625 17.36C4.26625 16.82 4.58625 16.25 5.13625 16.11L7.40625 15.5L5.73625 13.86C5.33625 13.46 5.33625 12.81 5.73625 12.4C6.13625 12 6.80625 12 7.19625 12.4L8.85625 14.05L9.44625 11.8C9.58625 11.24 10.1562 10.92 10.6962 11.07C11.2562 11.21 11.5763 11.78 11.4062 12.33L10.8263 14.58L13.0763 14C13.6263 13.83 14.1963 14.15 14.3363 14.71C14.4863 15.25 14.1662 15.82 13.6062 15.96L11.3562 16.55L13.0063 18.21C13.4063 18.6 13.4063 19.27 13.0063 19.67C12.6063 20.07 11.9462 20.07 11.5562 19.67L9.90625 18L9.29625 20.27C9.15625 20.83 8.58625 21.14 8.04625 21C7.48625 20.86 7.17625 20.29 7.31625 19.74L7.90625 17.5L5.66625 18.09C5.11625 18.23 4.54625 17.92 4.40625 17.36ZM1.40625 11C1.40625 9.67392 1.93303 8.40215 2.87072 7.46447C3.8084 6.52678 5.08017 6 6.40625 6C7.40625 3.65 9.70625 2 12.4062 2C15.8363 2 18.6463 4.66 18.9062 8.03L19.4062 8C20.4671 8 21.4845 8.42143 22.2347 9.17157C22.9848 9.92172 23.4062 10.9391 23.4062 12C23.4062 13.0609 22.9848 14.0783 22.2347 14.8284C21.4845 15.5786 20.4671 16 19.4062 16C19.141 16 18.8867 15.8946 18.6991 15.7071C18.5116 15.5196 18.4062 15.2652 18.4062 15C18.4062 14.7348 18.5116 14.4804 18.6991 14.2929C18.8867 14.1054 19.141 14 19.4062 14C19.9367 14 20.4454 13.7893 20.8205 13.4142C21.1955 13.0391 21.4062 12.5304 21.4062 12C21.4062 11.4696 21.1955 10.9609 20.8205 10.5858C20.4454 10.2107 19.9367 10 19.4062 10H17.4062V9C17.4063 7.67392 16.8795 6.40215 15.9418 5.46447C15.0041 4.52678 13.7323 4 12.4062 4C9.90625 4 7.85625 5.82 7.46625 8.19C7.13625 8.07 6.77625 8 6.40625 8C5.6106 8 4.84754 8.31607 4.28493 8.87868C3.72232 9.44129 3.40625 10.2044 3.40625 11C3.40625 11.85 3.75625 12.61 4.31625 13.16C4.67625 13.55 4.66625 14.16 4.28625 14.54C3.90625 14.93 3.25625 14.93 2.87625 14.54C1.96625 13.63 1.40625 12.38 1.40625 11Z" fill="black"/>
</g>
</svg>
