<svg width="25" height="24" viewBox="0 0 25 24" fill="none" xmlns="http://www.w3.org/2000/svg">
<g id="1146">
<path id="Vector" d="M12.41 7C11.0839 7 9.81215 7.52678 8.87447 8.46447C7.93678 9.40215 7.41 10.6739 7.41 12C7.41 13.3261 7.93678 14.5979 8.87447 15.5355C9.81215 16.4732 11.0839 17 12.41 17C13.7361 17 15.0079 16.4732 15.9455 15.5355C16.8832 14.5979 17.41 13.3261 17.41 12C17.41 10.6739 16.8832 9.40215 15.9455 8.46447C15.0079 7.52678 13.7361 7 12.41 7ZM12.41 15C11.6144 15 10.8513 14.6839 10.2887 14.1213C9.72607 13.5587 9.41 12.7956 9.41 12C9.41 11.2044 9.72607 10.4413 10.2887 9.87868C10.8513 9.31607 11.6144 9 12.41 9C13.2056 9 13.9687 9.31607 14.5313 9.87868C15.0939 10.4413 15.41 11.2044 15.41 12C15.41 12.7956 15.0939 13.5587 14.5313 14.1213C13.9687 14.6839 13.2056 15 12.41 15ZM12.41 2L14.8 5.42C14.06 5.15 13.25 5 12.41 5C11.57 5 10.76 5.15 10.02 5.42L12.41 2ZM3.75 7L7.91 6.65C7.31 7.16 6.77 7.78 6.35 8.5C5.91 9.24 5.66 10 5.52 10.79L3.75 7ZM3.77 17L5.53 13.23C5.67 14 5.94 14.78 6.36 15.5C6.78 16.24 7.32 16.86 7.91 17.37L3.77 17ZM12.41 22L10 18.56C10.74 18.83 11.55 19 12.41 19C13.23 19 14.04 18.83 14.78 18.56M19.41 13V7H21.41V13H19.41ZM19.41 17V15H21.41V17" fill="black"/>
</g>
</svg>
