<svg width="25" height="24" viewBox="0 0 25 24" fill="none" xmlns="http://www.w3.org/2000/svg">
<g id="1147">
<path id="Vector" d="M22.5156 21.46L2.79563 1.72998L1.51562 2.99998L5.37562 6.85998L3.74564 6.99998L5.51562 10.79C5.65563 9.99998 5.90562 9.23998 6.34562 8.49998C6.40562 8.35998 6.53562 8.23998 6.62562 8.10998L8.06563 9.54998C7.65563 10.27 7.40563 11.11 7.40563 12C7.40563 14.76 9.64563 17 12.4056 17C13.3056 17 14.1356 16.75 14.8556 16.34L21.2456 22.73L22.5156 21.46ZM12.4056 15C10.7456 15 9.40562 13.66 9.40562 12C9.40562 11.67 9.47563 11.36 9.57563 11.06L13.3456 14.83C13.0456 14.93 12.7356 15 12.4056 15ZM18.4556 8.49998C18.0356 7.77998 17.5056 7.14998 16.9056 6.63998L21.0556 6.99998L19.2856 10.79C19.1456 9.99998 18.8756 9.22998 18.4556 8.49998ZM12.4056 6.99998C15.1656 6.99998 17.4056 9.23998 17.4056 12C17.4056 12.54 17.2956 13.05 17.1456 13.54L15.4056 11.78C15.2756 10.3 14.1056 9.12998 12.6256 8.99998L10.8756 7.26998C11.3556 7.10998 11.8656 6.99998 12.4056 6.99998ZM12.4056 4.99998C11.5656 4.99998 10.7556 5.14998 10.0156 5.41998L12.4056 1.99998L14.7956 5.41998C14.0556 5.14998 13.2456 4.99998 12.4056 4.99998ZM19.2756 13.21L21.0456 17L20.6456 17.04L18.6556 15.05C18.9456 14.45 19.1656 13.84 19.2756 13.21ZM12.4056 19C13.2256 19 14.0356 18.83 14.7756 18.56L12.4056 22L9.99564 18.56C10.7356 18.83 11.5456 19 12.4056 19ZM6.35563 15.5C6.77563 16.24 7.31563 16.86 7.90563 17.37L3.76562 17L5.52563 13.23C5.66563 14 5.93563 14.78 6.35563 15.5Z" fill="black"/>
</g>
</svg>
