<svg width="25" height="24" viewBox="0 0 25 24" fill="none" xmlns="http://www.w3.org/2000/svg">
<g id="1148">
<path id="Vector" d="M4.40625 10C4.14103 10 3.88668 9.89464 3.69914 9.70711C3.51161 9.51957 3.40625 9.26522 3.40625 9C3.40625 8.73478 3.51161 8.48043 3.69914 8.29289C3.88668 8.10536 4.14103 8 4.40625 8H12.4062C12.9367 8 13.4454 7.78929 13.8205 7.41421C14.1955 7.03914 14.4062 6.53043 14.4062 6C14.4062 5.46957 14.1955 4.96086 13.8205 4.58579C13.4454 4.21071 12.9367 4 12.4062 4C11.8562 4 11.3563 4.22 10.9963 4.59C10.6063 5 9.96625 5 9.57625 4.59C9.18625 4.2 9.18625 3.56 9.57625 3.17C10.3063 2.45 11.3062 2 12.4062 2C13.4671 2 14.4845 2.42143 15.2347 3.17157C15.9848 3.92172 16.4062 4.93913 16.4062 6C16.4062 7.06087 15.9848 8.07828 15.2347 8.82843C14.4845 9.57857 13.4671 10 12.4062 10H4.40625ZM19.4062 12C19.6715 12 19.9258 11.8946 20.1134 11.7071C20.3009 11.5196 20.4062 11.2652 20.4062 11C20.4062 10.7348 20.3009 10.4804 20.1134 10.2929C19.9258 10.1054 19.6715 10 19.4062 10C19.1262 10 18.8763 10.11 18.6963 10.29C18.3063 10.68 17.6762 10.68 17.2862 10.29C16.9062 9.9 16.9062 9.27 17.2862 8.88C17.8262 8.34 18.5763 8 19.4062 8C20.2019 8 20.965 8.31607 21.5276 8.87868C22.0902 9.44129 22.4062 10.2044 22.4062 11C22.4062 11.7956 22.0902 12.5587 21.5276 13.1213C20.965 13.6839 20.2019 14 19.4062 14H5.40625C5.14103 14 4.88668 13.8946 4.69914 13.7071C4.51161 13.5196 4.40625 13.2652 4.40625 13C4.40625 12.7348 4.51161 12.4804 4.69914 12.2929C4.88668 12.1054 5.14103 12 5.40625 12H19.4062ZM18.4062 18H4.40625C4.14103 18 3.88668 17.8946 3.69914 17.7071C3.51161 17.5196 3.40625 17.2652 3.40625 17C3.40625 16.7348 3.51161 16.4804 3.69914 16.2929C3.88668 16.1054 4.14103 16 4.40625 16H18.4062C19.2019 16 19.965 16.3161 20.5276 16.8787C21.0902 17.4413 21.4062 18.2044 21.4062 19C21.4062 19.7956 21.0902 20.5587 20.5276 21.1213C19.965 21.6839 19.2019 22 18.4062 22C17.5763 22 16.8263 21.66 16.2863 21.12C15.9063 20.73 15.9063 20.1 16.2863 19.71C16.6763 19.32 17.3063 19.32 17.6963 19.71C17.8763 19.89 18.1262 20 18.4062 20C18.6715 20 18.9258 19.8946 19.1134 19.7071C19.3009 19.5196 19.4062 19.2652 19.4062 19C19.4062 18.7348 19.3009 18.4804 19.1134 18.2929C18.9258 18.1054 18.6715 18 18.4062 18Z" fill="black"/>
</g>
</svg>
