<svg width="25" height="24" viewBox="0 0 25 24" fill="none" xmlns="http://www.w3.org/2000/svg">
<g id="1149">
<path id="Vector" d="M21.4062 5H3.40625C3.14103 5 2.88668 4.89464 2.69914 4.70711C2.51161 4.51957 2.40625 4.26522 2.40625 4C2.40625 3.73478 2.51161 3.48043 2.69914 3.29289C2.88668 3.10536 3.14103 3 3.40625 3H21.4062C21.6715 3 21.9258 3.10536 22.1134 3.29289C22.3009 3.48043 22.4062 3.73478 22.4062 4C22.4062 4.26522 22.3009 4.51957 22.1134 4.70711C21.9258 4.89464 21.6715 5 21.4062 5ZM20.4062 8C20.4062 7.73478 20.3009 7.48043 20.1134 7.29289C19.9258 7.10536 19.6715 7 19.4062 7H5.40625C5.14103 7 4.88668 7.10536 4.69914 7.29289C4.51161 7.48043 4.40625 7.73478 4.40625 8C4.40625 8.26522 4.51161 8.51957 4.69914 8.70711C4.88668 8.89464 5.14103 9 5.40625 9H19.4062C19.6715 9 19.9258 8.89464 20.1134 8.70711C20.3009 8.51957 20.4062 8.26522 20.4062 8ZM21.4062 12C21.4062 11.7348 21.3009 11.4804 21.1134 11.2929C20.9258 11.1054 20.6715 11 20.4062 11H10.4062C10.141 11 9.88668 11.1054 9.69914 11.2929C9.51161 11.4804 9.40625 11.7348 9.40625 12C9.40625 12.2652 9.51161 12.5196 9.69914 12.7071C9.88668 12.8946 10.141 13 10.4062 13H20.4062C20.6715 13 20.9258 12.8946 21.1134 12.7071C21.3009 12.5196 21.4062 12.2652 21.4062 12ZM16.4062 16C16.4062 15.7348 16.3009 15.4804 16.1134 15.2929C15.9258 15.1054 15.6715 15 15.4062 15H9.40625C9.14103 15 8.88668 15.1054 8.69914 15.2929C8.51161 15.4804 8.40625 15.7348 8.40625 16C8.40625 16.2652 8.51161 16.5196 8.69914 16.7071C8.88668 16.8946 9.14103 17 9.40625 17H15.4062C15.6715 17 15.9258 16.8946 16.1134 16.7071C16.3009 16.5196 16.4062 16.2652 16.4062 16ZM13.4062 20C13.4062 19.7348 13.3009 19.4804 13.1134 19.2929C12.9258 19.1054 12.6715 19 12.4062 19H10.4062C10.141 19 9.88668 19.1054 9.69914 19.2929C9.51161 19.4804 9.40625 19.7348 9.40625 20C9.40625 20.2652 9.51161 20.5196 9.69914 20.7071C9.88668 20.8946 10.141 21 10.4062 21H12.4062C12.6715 21 12.9258 20.8946 13.1134 20.7071C13.3009 20.5196 13.4062 20.2652 13.4062 20Z" fill="black"/>
</g>
</svg>
