<svg width="25" height="24" viewBox="0 0 25 24" fill="none" xmlns="http://www.w3.org/2000/svg">
<g id="115">
<path id="Vector" d="M15.0102 21.4C15.4102 21.8 15.8102 22 16.4102 22C17.0102 22 17.4102 21.8 17.8102 21.4C18.2102 21 18.4102 20.6 18.4102 20C18.4102 19.4 18.2102 19 17.8102 18.6C17.4102 18.2 16.9102 18 16.4102 18C15.9102 18 15.4102 18.2 15.0102 18.6C14.6102 19 14.4102 19.4 14.4102 20C14.4102 20.6 14.6102 21 15.0102 21.4ZM6.41016 19C6.41016 19.5 6.61016 20 7.01016 20.4C7.41016 20.8 7.91016 21 8.41016 21V7C7.91016 7 7.41016 7.2 7.01016 7.6C6.61016 8 6.41016 8.5 6.41016 9V19ZM16.4102 2H12.4102C12.4102 2.5 12.6102 3 13.0102 3.4C13.4102 3.8 13.9102 4 14.4102 4V7H9.41016V21H13.6102C13.4102 20.5 13.4102 20.2 13.4102 20C13.4102 19.2 13.7102 18.5 14.3102 17.9C14.9102 17.3 15.6102 17 16.4102 17V2Z" fill="black"/>
</g>
</svg>
