<svg width="25" height="24" viewBox="0 0 25 24" fill="none" xmlns="http://www.w3.org/2000/svg">
<g id="1150">
<path id="Vector" d="M3.40625 12H7.40625C7.40625 10.6739 7.93303 9.40215 8.87072 8.46447C9.8084 7.52678 11.0802 7 12.4062 7C13.7323 7 15.0041 7.52678 15.9418 8.46447C16.8795 9.40215 17.4063 10.6739 17.4062 12H21.4062C21.6715 12 21.9258 12.1054 22.1134 12.2929C22.3009 12.4804 22.4062 12.7348 22.4062 13C22.4062 13.2652 22.3009 13.5196 22.1134 13.7071C21.9258 13.8946 21.6715 14 21.4062 14H3.40625C3.14103 14 2.88668 13.8946 2.69914 13.7071C2.51161 13.5196 2.40625 13.2652 2.40625 13C2.40625 12.7348 2.51161 12.4804 2.69914 12.2929C2.88668 12.1054 3.14103 12 3.40625 12ZM15.4062 12C15.4062 11.2044 15.0902 10.4413 14.5276 9.87868C13.965 9.31607 13.2019 9 12.4062 9C11.6106 9 10.8475 9.31607 10.2849 9.87868C9.72232 10.4413 9.40625 11.2044 9.40625 12H15.4062ZM12.4062 2L14.7963 5.42C14.0563 5.15 13.2462 5 12.4062 5C11.5663 5 10.7562 5.15 10.0162 5.42L12.4062 2ZM3.74625 7L7.90625 6.65C7.30625 7.16 6.76625 7.78 6.34625 8.5C5.90625 9.24 5.65625 10 5.51625 10.79L3.74625 7ZM21.0562 7L19.2862 10.79C19.1462 10 18.8762 9.23 18.4562 8.5C18.0362 7.78 17.5063 7.15 16.9062 6.64L21.0562 7ZM13.1163 16.3L16.2262 19.41C16.6162 19.8 16.6162 20.43 16.2262 20.82C15.8362 21.21 15.2062 21.21 14.8162 20.82L12.4062 18.41L9.99625 20.82C9.60625 21.21 8.97625 21.21 8.58625 20.82C8.19625 20.43 8.19625 19.8 8.58625 19.41L11.6962 16.3C11.9062 16.1 12.1463 16 12.4062 16C12.6662 16 12.9063 16.1 13.1163 16.3Z" fill="black"/>
</g>
</svg>
