<svg width="25" height="24" viewBox="0 0 25 24" fill="none" xmlns="http://www.w3.org/2000/svg">
<g id="1153">
<path id="Vector" d="M14.2262 14H10.0662C9.96625 13.34 9.90625 12.68 9.90625 12C9.90625 11.32 9.96625 10.65 10.0662 10H14.7463C14.8363 10.65 14.9062 11.32 14.9062 12C14.9062 12.5 14.8662 13 14.8062 13.46C15.4062 12.96 16.1263 12.57 16.9062 12.32C16.9062 12.21 16.9062 12.11 16.9062 12C16.9062 11.32 16.8463 10.66 16.7663 10H20.1462C20.3062 10.64 20.4062 11.31 20.4062 12C20.4062 12.06 20.4062 12.12 20.4062 12.18C21.1062 12.35 21.7563 12.63 22.3563 13C22.4063 12.68 22.4062 12.34 22.4062 12C22.4062 6.5 17.9062 2 12.4062 2C6.87625 2 2.40625 6.5 2.40625 12C2.40625 17.5 6.90625 22 12.4062 22C12.7463 22 13.0863 22 13.4062 21.95C12.9963 21.29 12.6963 20.55 12.5363 19.75C12.4963 19.82 12.4563 19.89 12.4062 19.96C11.5763 18.76 10.9063 17.43 10.4963 16H12.9062C13.2163 15.25 13.6662 14.58 14.2262 14ZM19.3263 8H16.3763C16.0563 6.75 15.5963 5.55 14.9963 4.44C16.8363 5.07 18.3663 6.34 19.3263 8ZM12.4062 4.03C13.2362 5.23 13.9062 6.57 14.3162 8H10.4963C10.9063 6.57 11.5763 5.23 12.4062 4.03ZM4.66625 14C4.50625 13.36 4.40625 12.69 4.40625 12C4.40625 11.31 4.50625 10.64 4.66625 10H8.04625C7.96625 10.66 7.90625 11.32 7.90625 12C7.90625 12.68 7.96625 13.34 8.04625 14H4.66625ZM5.48625 16H8.40625C8.75625 17.25 9.20625 18.45 9.80625 19.56C7.97625 18.93 6.43625 17.65 5.48625 16ZM8.40625 8H5.48625C6.43625 6.34 7.97625 5.06 9.80625 4.44C9.20625 5.55 8.75625 6.75 8.40625 8ZM21.2362 15.67L22.4062 14.5V18.5H18.4062L20.1763 16.73C19.7263 16.28 19.0962 16 18.4062 16C17.0263 16 15.9062 17.12 15.9062 18.5C15.9062 19.88 17.0263 21 18.4062 21C19.2262 21 19.9462 20.61 20.4062 20H22.1162C21.5262 21.47 20.0862 22.5 18.4062 22.5C16.1962 22.5 14.4062 20.71 14.4062 18.5C14.4062 16.29 16.1962 14.5 18.4062 14.5C19.5163 14.5 20.5162 14.95 21.2362 15.67Z" fill="black"/>
</g>
</svg>
