<svg width="25" height="24" viewBox="0 0 25 24" fill="none" xmlns="http://www.w3.org/2000/svg">
<g id="1154">
<path id="Vector" d="M16.9062 12C16.9062 11.32 16.8463 10.66 16.7663 10H20.1462C20.3062 10.64 20.4062 11.31 20.4062 12C20.4062 12.37 20.3763 12.73 20.3263 13.08C21.0163 13.18 21.6563 13.4 22.2463 13.72C22.3463 13.16 22.4062 12.59 22.4062 12C22.4062 6.5 17.9062 2 12.4062 2C6.87625 2 2.40625 6.5 2.40625 12C2.40625 17.5 6.90625 22 12.4062 22C12.9962 22 13.5663 21.94 14.1263 21.84C13.6663 21 13.4062 20.03 13.4062 19C13.4062 18.71 13.4362 18.43 13.4762 18.15C13.1562 18.78 12.8063 19.39 12.4062 19.96C11.5763 18.76 10.9063 17.43 10.4963 16H14.2163C14.8163 14.96 15.7162 14.12 16.8062 13.6C16.8662 13.07 16.9062 12.54 16.9062 12ZM12.4062 4.03C13.2362 5.23 13.9062 6.57 14.3162 8H10.4963C10.9063 6.57 11.5763 5.23 12.4062 4.03ZM4.66625 14C4.50625 13.36 4.40625 12.69 4.40625 12C4.40625 11.31 4.50625 10.64 4.66625 10H8.04625C7.96625 10.66 7.90625 11.32 7.90625 12C7.90625 12.68 7.96625 13.34 8.04625 14H4.66625ZM5.48625 16H8.40625C8.75625 17.25 9.20625 18.45 9.80625 19.56C7.97625 18.93 6.43625 17.65 5.48625 16ZM8.40625 8H5.48625C6.43625 6.34 7.97625 5.06 9.80625 4.44C9.20625 5.55 8.75625 6.75 8.40625 8ZM14.7463 14H10.0662C9.96625 13.34 9.90625 12.68 9.90625 12C9.90625 11.32 9.96625 10.65 10.0662 10H14.7463C14.8363 10.65 14.9062 11.32 14.9062 12C14.9062 12.68 14.8363 13.34 14.7463 14ZM14.9963 4.44C16.8363 5.07 18.3663 6.34 19.3263 8H16.3763C16.0563 6.75 15.5963 5.55 14.9963 4.44ZM23.4062 18V20H20.4062V23H18.4062V20H15.4062V18H18.4062V15H20.4062V18H23.4062Z" fill="black"/>
</g>
</svg>
