<svg width="25" height="24" viewBox="0 0 25 24" fill="none" xmlns="http://www.w3.org/2000/svg">
<g id="1155">
<path id="Vector" d="M9.80562 4.43998C9.59562 4.82998 9.40564 5.22998 9.24564 5.63998L10.7756 7.16998C11.1856 6.04998 11.7356 4.99998 12.4056 4.02998C13.2356 5.22998 13.9056 6.56998 14.3156 7.99998H11.6056L13.6056 9.99998H14.7456C14.8056 10.41 14.8456 10.84 14.8756 11.27L16.8456 13.24C16.8756 12.83 16.9056 12.42 16.9056 12C16.9056 11.32 16.8456 10.66 16.7656 9.99998H20.1456C20.3056 10.64 20.4056 11.31 20.4056 12C20.4056 12.69 20.3056 13.36 20.1456 14H17.6056L20.9056 17.28C21.8456 15.75 22.4056 13.94 22.4056 12C22.4056 6.49998 17.9056 1.99998 12.4056 1.99998C10.4656 1.99998 8.65562 2.55998 7.12562 3.49998L8.58564 4.99998C8.97564 4.76998 9.40562 4.57998 9.80562 4.43998ZM19.3256 7.99998H16.3756C16.0556 6.74998 15.5956 5.54998 14.9956 4.43998C16.8356 5.06998 18.3656 6.33998 19.3256 7.99998ZM2.79563 1.72998L1.51562 2.99998L4.46563 5.94998C3.17563 7.62998 2.40563 9.72998 2.40563 12C2.40563 17.5 6.90563 22 12.4056 22C14.6856 22 16.7756 21.23 18.4656 19.95L21.2456 22.73L22.5156 21.46L2.79563 1.72998ZM5.90563 7.36998L6.51562 7.99998H5.48563C5.60563 7.77998 5.74563 7.57998 5.90563 7.36998ZM4.66563 14C4.50563 13.36 4.40563 12.69 4.40563 12C4.40563 11.31 4.50563 10.64 4.66563 9.99998H8.04562C7.96562 10.66 7.90563 11.32 7.90563 12C7.90563 12.68 7.96562 13.34 8.04562 14H4.66563ZM5.48563 16H8.40562C8.75562 17.25 9.20562 18.45 9.80562 19.56C7.97562 18.93 6.43563 17.65 5.48563 16ZM9.90563 12C9.90563 11.8 9.90563 11.61 9.93563 11.42L12.5156 14H10.0656C9.96564 13.34 9.90563 12.68 9.90563 12ZM12.4056 19.96C11.5756 18.76 10.9056 17.43 10.4956 16H14.3156C13.9056 17.43 13.2356 18.76 12.4056 19.96ZM14.9956 19.56C15.3656 18.88 15.6656 18.15 15.9056 17.41L17.0256 18.5C16.4056 18.95 15.7256 19.31 14.9956 19.56Z" fill="black"/>
</g>
</svg>
