<svg width="25" height="24" viewBox="0 0 25 24" fill="none" xmlns="http://www.w3.org/2000/svg">
<g id="1157">
<path id="Vector" d="M15.4062 12.5V16.5L18.4062 18.5L19.1562 17.25L16.9062 15.75V12.5H15.4062ZM22.4062 12.39C22.4062 12.26 22.4062 12.13 22.4062 12C22.4062 6.5 17.9062 2 12.4062 2C6.87625 2 2.40625 6.5 2.40625 12C2.40625 17.5 6.90625 22 12.4062 22C12.5362 22 12.6462 22 12.7762 21.97C13.8362 22.62 15.0762 23 16.4062 23C20.2662 23 23.4062 19.86 23.4062 16C23.4062 14.68 23.0263 13.44 22.4062 12.39ZM20.1663 10.11C20.1063 10.07 20.0563 10.04 19.9963 10H20.1462C20.1562 10.03 20.1563 10.07 20.1663 10.11ZM19.3263 8H16.3763C16.0563 6.75 15.5963 5.55 14.9963 4.44C16.8363 5.07 18.3663 6.34 19.3263 8ZM12.4062 4.03C13.2362 5.23 13.9062 6.57 14.3162 8H10.4963C10.9063 6.57 11.5763 5.23 12.4062 4.03ZM10.0662 10H12.8162C11.5662 10.75 10.5562 11.88 9.97625 13.24C9.93625 12.83 9.90625 12.42 9.90625 12C9.90625 11.32 9.96625 10.65 10.0662 10ZM9.80625 4.44C9.20625 5.55 8.75625 6.75 8.40625 8H5.48625C6.43625 6.34 7.97625 5.06 9.80625 4.44ZM4.66625 14C4.50625 13.36 4.40625 12.69 4.40625 12C4.40625 11.31 4.50625 10.64 4.66625 10H8.04625C7.96625 10.66 7.90625 11.32 7.90625 12C7.90625 12.68 7.96625 13.34 8.04625 14H4.66625ZM5.48625 16H8.40625C8.75625 17.25 9.20625 18.45 9.80625 19.56C7.97625 18.93 6.43625 17.65 5.48625 16ZM16.4062 21C13.6463 21 11.4062 18.76 11.4062 16C11.4062 13.24 13.6463 11 16.4062 11C19.1662 11 21.4062 13.24 21.4062 16C21.4062 18.76 19.1662 21 16.4062 21Z" fill="black"/>
</g>
</svg>
