<svg width="25" height="24" viewBox="0 0 25 24" fill="none" xmlns="http://www.w3.org/2000/svg">
<g id="1159">
<path id="Vector" d="M16.9062 11.74C16.9062 11.15 16.8363 10.58 16.7663 10H20.1462C20.2262 10.33 20.2963 10.67 20.3363 11C21.0563 11.07 21.7462 11.23 22.4062 11.5C22.1163 6.21 17.7562 2 12.4062 2C6.87625 2 2.40625 6.5 2.40625 12C2.40625 17.5 6.90625 22 12.4062 22C13.2763 22 14.1162 21.88 14.9062 21.67C14.1162 20.71 13.5862 19.5 13.4462 18.2C13.1362 18.81 12.7962 19.4 12.4062 19.96C11.5763 18.76 10.9063 17.43 10.4963 16H13.5863C13.7563 15.28 14.0462 14.61 14.4362 14H10.0662C9.96625 13.34 9.90625 12.68 9.90625 12C9.90625 11.32 9.96625 10.65 10.0662 10H14.7463C14.8363 10.65 14.9062 11.32 14.9062 12C14.9062 12.5 14.8662 13 14.8062 13.5C15.3762 12.76 16.0863 12.17 16.9062 11.74ZM4.66625 14C4.50625 13.36 4.40625 12.69 4.40625 12C4.40625 11.31 4.50625 10.64 4.66625 10H8.04625C7.96625 10.66 7.90625 11.32 7.90625 12C7.90625 12.68 7.96625 13.34 8.04625 14H4.66625ZM5.48625 16H8.40625C8.75625 17.25 9.20625 18.45 9.80625 19.56C7.97625 18.93 6.43625 17.65 5.48625 16ZM8.40625 8H5.48625C6.43625 6.34 7.97625 5.06 9.80625 4.44C9.20625 5.55 8.75625 6.75 8.40625 8ZM10.4963 8C10.9063 6.57 11.5763 5.23 12.4062 4.03C13.2362 5.23 13.9062 6.57 14.3162 8H10.4963ZM19.3263 8H16.3763C16.0563 6.75 15.5963 5.55 14.9963 4.44C16.8363 5.07 18.3663 6.34 19.3263 8ZM23.4062 17.5C23.4062 18.32 23.1562 19.08 22.7362 19.71L21.6462 18.62C21.8162 18.28 21.9062 17.9 21.9062 17.5C21.9062 16.12 20.7862 15 19.4062 15V16.5L17.1562 14.25L19.4062 12V13.5C21.6163 13.5 23.4062 15.29 23.4062 17.5ZM19.4062 18.5L21.6562 20.75L19.4062 23V21.5C17.1962 21.5 15.4062 19.71 15.4062 17.5C15.4062 16.68 15.6563 15.92 16.0763 15.29L17.1663 16.38C16.9963 16.72 16.9062 17.1 16.9062 17.5C16.9062 18.88 18.0263 20 19.4062 20V18.5Z" fill="black"/>
</g>
</svg>
