<svg width="25" height="24" viewBox="0 0 25 24" fill="none" xmlns="http://www.w3.org/2000/svg">
<g id="116">
<g id="Group">
<path id="Vector" d="M22.4102 4H14.4102V7H10.4102V4H2.41016C1.87972 4 1.37102 4.21071 0.995943 4.58579C0.62087 4.96086 0.410156 5.46957 0.410156 6V20C0.410156 20.5304 0.62087 21.0391 0.995943 21.4142C1.37102 21.7893 1.87972 22 2.41016 22H22.4102C22.9406 22 23.4493 21.7893 23.8244 21.4142C24.1994 21.0391 24.4102 20.5304 24.4102 20V6C24.4102 5.46957 24.1994 4.96086 23.8244 4.58579C23.4493 4.21071 22.9406 4 22.4102 4ZM8.41016 9C8.94059 9 9.4493 9.21071 9.82437 9.58579C10.1994 9.96086 10.4102 10.4696 10.4102 11C10.4102 11.5304 10.1994 12.0391 9.82437 12.4142C9.4493 12.7893 8.94059 13 8.41016 13C7.87972 13 7.37102 12.7893 6.99594 12.4142C6.62087 12.0391 6.41016 11.5304 6.41016 11C6.41016 10.4696 6.62087 9.96086 6.99594 9.58579C7.37102 9.21071 7.87972 9 8.41016 9ZM12.4102 17H4.41016V16C4.41016 14.67 7.08016 14 8.41016 14C9.74016 14 12.4102 14.67 12.4102 16V17ZM20.4102 18H14.4102V16H20.4102V18ZM20.4102 14H14.4102V12H20.4102V14ZM20.4102 10H14.4102V8H20.4102V10ZM13.4102 6H11.4102V2H13.4102V6Z" fill="black"/>
</g>
</g>
</svg>
