<svg width="25" height="24" viewBox="0 0 25 24" fill="none" xmlns="http://www.w3.org/2000/svg">
<g id="1160">
<path id="Vector" d="M12.4062 2C14.2628 2 16.0432 2.7375 17.356 4.05025C18.6688 5.36301 19.4062 7.14348 19.4062 9C19.4062 10.8565 18.6688 12.637 17.356 13.9497C16.0432 15.2625 14.2628 16 12.4062 16C10.5497 16 8.76926 15.2625 7.4565 13.9497C6.14375 12.637 5.40625 10.8565 5.40625 9C5.40625 7.14348 6.14375 5.36301 7.4565 4.05025C8.76926 2.7375 10.5497 2 12.4062 2ZM12.4062 4C11.0802 4 9.8084 4.52678 8.87072 5.46447C7.93303 6.40215 7.40625 7.67392 7.40625 9C7.40625 10.3261 7.93303 11.5979 8.87072 12.5355C9.8084 13.4732 11.0802 14 12.4062 14C13.0629 14 13.713 13.8707 14.3197 13.6194C14.9263 13.3681 15.4775 12.9998 15.9418 12.5355C16.4061 12.0712 16.7744 11.52 17.0256 10.9134C17.2769 10.3068 17.4063 9.65661 17.4062 9C17.4063 7.67392 16.8795 6.40215 15.9418 5.46447C15.0041 4.52678 13.7323 4 12.4062 4ZM12.4062 6C13.2019 6 13.965 6.31607 14.5276 6.87868C15.0902 7.44129 15.4062 8.20435 15.4062 9C15.4062 9.79565 15.0902 10.5587 14.5276 11.1213C13.965 11.6839 13.2019 12 12.4062 12C11.6106 12 10.8475 11.6839 10.2849 11.1213C9.72232 10.5587 9.40625 9.79565 9.40625 9C9.40625 8.20435 9.72232 7.44129 10.2849 6.87868C10.8475 6.31607 11.6106 6 12.4062 6ZM6.40625 22C5.87582 22 5.36711 21.7893 4.99204 21.4142C4.61696 21.0391 4.40625 20.5304 4.40625 20C4.40625 19.62 4.50625 19.27 4.69625 18.97L6.51625 15.81C8.09625 17.17 10.1562 18 12.4062 18C14.6562 18 16.7162 17.17 18.2962 15.81L20.1162 18.97C20.3062 19.27 20.4062 19.62 20.4062 20C20.4062 20.5304 20.1955 21.0391 19.8205 21.4142C19.4454 21.7893 18.9367 22 18.4062 22H6.40625Z" fill="black"/>
</g>
</svg>
