<svg width="25" height="24" viewBox="0 0 25 24" fill="none" xmlns="http://www.w3.org/2000/svg">
<g id="1161">
<path id="Vector" d="M12.4056 5.99998C14.0656 5.99998 15.4056 7.33998 15.4056 8.99998C15.4056 9.77998 15.1056 10.5 14.6156 11L10.4056 6.78998C10.9056 6.29998 11.6256 5.99998 12.4056 5.99998ZM12.4056 3.99998C15.1656 3.99998 17.4056 6.23998 17.4056 8.99998C17.4056 10.33 16.8756 11.53 16.0256 12.42L17.4456 13.84C18.6556 12.59 19.4056 10.88 19.4056 8.99998C19.4056 5.12998 16.2756 1.99998 12.4056 1.99998C10.5256 1.99998 8.81563 2.74998 7.56563 3.95998L8.98562 5.37998C9.87562 4.52998 11.0756 3.99998 12.4056 3.99998ZM22.5156 21.46L21.2456 22.73L19.8656 21.35C19.5056 21.75 18.9856 22 18.4056 22H6.40563C5.29563 22 4.40563 21.11 4.40563 20C4.40563 19.62 4.50563 19.27 4.69563 18.97L6.51562 15.81C8.09564 17.17 10.1556 18 12.4056 18C13.6156 18 14.7756 17.75 15.8356 17.32L14.2556 15.74C13.6656 15.91 13.0456 16 12.4056 16C8.53563 16 5.40563 12.87 5.40563 8.99998C5.40563 8.35998 5.49564 7.73998 5.66564 7.14998L1.51562 2.99998L2.79563 1.72998L22.5156 21.46ZM12.5056 14L7.40563 8.89998C7.40563 8.92998 7.40563 8.96998 7.40563 8.99998C7.40563 11.76 9.64563 14 12.4056 14C12.4356 14 12.4756 14 12.5056 14Z" fill="black"/>
</g>
</svg>
