<svg width="25" height="24" viewBox="0 0 25 24" fill="none" xmlns="http://www.w3.org/2000/svg">
<g id="1162">
<path id="Vector" d="M10.8676 18.9999C9.4076 21.0699 6.5576 21.5899 4.4976 20.1499C2.4476 18.7099 1.9676 15.8399 3.4076 13.7499C4.2776 12.4999 5.6176 11.8299 6.9876 11.7699L7.0376 13.1999C6.1276 13.2699 5.2476 13.7399 4.6776 14.5599C3.6776 15.9999 3.9876 17.9399 5.3576 18.9099C6.7376 19.8699 8.6676 19.4999 9.6676 18.0699C9.9776 17.6199 10.1576 17.1299 10.2276 16.6299V15.6199L15.8076 15.5799L15.8776 15.4699C16.4076 14.5499 17.5576 14.2299 18.4576 14.7499C19.3576 15.2699 19.6676 16.4299 19.1376 17.3499C18.6076 18.2599 17.4476 18.5799 16.5476 18.0599C16.1376 17.8299 15.8476 17.4599 15.7176 17.0399L11.6476 17.0599C11.5376 17.7299 11.2776 18.3799 10.8676 18.9999ZM18.1476 11.8599C20.6776 12.1699 22.4776 14.4399 22.1676 16.9299C21.8576 19.4299 19.5576 21.1999 17.0276 20.8899C15.5376 20.7099 14.3076 19.8599 13.5976 18.6799L14.8376 17.9599C15.3276 18.7299 16.1576 19.2799 17.1576 19.4099C18.9076 19.6199 20.4576 18.4299 20.6676 16.7599C20.8776 15.0899 19.6376 13.5599 17.9076 13.3499C17.3676 13.2899 16.8476 13.3599 16.3776 13.5299L15.5276 13.9699L12.9476 9.19989H12.7276C11.6676 9.15989 10.8476 8.28989 10.8776 7.24989C10.9076 6.20989 11.8076 5.39989 12.8576 5.43989C13.9076 5.49989 14.7376 6.34989 14.7076 7.38989C14.6876 7.82989 14.5176 8.22989 14.2476 8.53989L16.1476 12.0499C16.7676 11.8499 17.4476 11.7799 18.1476 11.8599ZM8.6576 9.13989C7.6576 6.78989 8.7176 4.09989 11.0276 3.11989C13.3476 2.13989 16.0276 3.24989 17.0276 5.59989C17.6176 6.96989 17.4976 8.46989 16.8276 9.66989L15.5876 8.94989C16.0076 8.13989 16.0776 7.14989 15.6776 6.21989C14.9976 4.61989 13.1876 3.84989 11.6376 4.49989C10.0776 5.15989 9.3776 6.99989 10.0576 8.59989C10.3376 9.25989 10.8076 9.76989 11.3776 10.1099L11.7676 10.3199L8.6976 15.3099C8.7276 15.3599 8.7676 15.4199 8.7976 15.4999C9.2876 16.4099 8.9476 17.5599 8.0276 18.0499C7.1176 18.5399 5.9676 18.1799 5.4676 17.2399C4.9776 16.3099 5.3176 15.1599 6.2376 14.6699C6.6276 14.4599 7.0576 14.4099 7.4676 14.4999L9.7776 10.7299C9.3076 10.2999 8.9076 9.75989 8.6576 9.13989Z" fill="black"/>
</g>
</svg>
