<svg width="25" height="24" viewBox="0 0 25 24" fill="none" xmlns="http://www.w3.org/2000/svg">
<g id="1163">
<path id="Vector" d="M18.4062 15.5C19.2362 15.5 19.9062 16.17 19.9062 17C19.9062 17.83 19.2362 18.5 18.4062 18.5C17.5763 18.5 16.9062 17.83 16.9062 17C16.9062 16.17 17.5763 15.5 18.4062 15.5ZM18.4062 14C16.7463 14 15.4062 15.34 15.4062 17C15.4062 18.66 16.7463 20 18.4062 20C20.0662 20 21.4062 18.66 21.4062 17C21.4062 15.34 20.0662 14 18.4062 14ZM7.40625 8L5.40625 5H2.40625V7H5.53625L8.40625 11.3V20H10.4062L12.9762 15H14.9563C15.6563 13.81 16.9062 13 18.4062 13C19.2862 13 20.0963 13.29 20.7563 13.78L22.4062 8H7.40625ZM9.79625 19H9.40625V12.8L10.2762 14.11C10.6362 14.64 11.2262 14.96 11.8562 15L9.79625 19Z" fill="black"/>
</g>
</svg>
