<svg width="25" height="24" viewBox="0 0 25 24" fill="none" xmlns="http://www.w3.org/2000/svg">
<g id="1164">
<path id="Vector" d="M20.3563 10.56C20.1563 9.67 19.3562 9 18.4062 9H15.8663C16.2163 8.41 16.4062 7.73 16.4062 7C16.4062 5.93913 15.9848 4.92172 15.2347 4.17157C14.4845 3.42143 13.4671 3 12.4062 3C11.3454 3 10.328 3.42143 9.57782 4.17157C8.82768 4.92172 8.40625 5.93913 8.40625 7C8.40625 7.73 8.59625 8.41 8.94625 9H6.40625C5.45625 9 4.65625 9.67 4.45625 10.56C2.44625 18.57 2.40625 18.78 2.40625 19C2.40625 19.5304 2.61696 20.0391 2.99204 20.4142C3.36711 20.7893 3.87582 21 4.40625 21H20.4062C20.9367 21 21.4454 20.7893 21.8205 20.4142C22.1955 20.0391 22.4062 19.5304 22.4062 19C22.4062 18.78 22.3663 18.57 20.3563 10.56ZM12.4062 5C12.9367 5 13.4454 5.21071 13.8205 5.58579C14.1955 5.96086 14.4062 6.46957 14.4062 7C14.4062 7.53043 14.1955 8.03914 13.8205 8.41421C13.4454 8.78929 12.9367 9 12.4062 9C11.8758 9 11.3671 8.78929 10.992 8.41421C10.617 8.03914 10.4062 7.53043 10.4062 7C10.4062 6.46957 10.617 5.96086 10.992 5.58579C11.3671 5.21071 11.8758 5 12.4062 5ZM15.4062 13H11.4062V17H13.4062V14H15.4062V19H11.4062C10.2962 19 9.40625 18.11 9.40625 17V13C9.40625 11.89 10.2962 11 11.4062 11H15.4062V13Z" fill="black"/>
</g>
</svg>
