<svg width="25" height="24" viewBox="0 0 25 24" fill="none" xmlns="http://www.w3.org/2000/svg">
<g id="1165">
<path id="Vector" d="M12.4062 3C13.4671 3 14.4845 3.42143 15.2347 4.17157C15.9848 4.92172 16.4062 5.93913 16.4062 7C16.4062 7.73 16.2163 8.41 15.8663 9H18.4062C19.3562 9 20.1563 9.67 20.3563 10.56C22.3663 18.57 22.4062 18.78 22.4062 19C22.4062 19.5304 22.1955 20.0391 21.8205 20.4142C21.4454 20.7893 20.9367 21 20.4062 21H4.40625C3.87582 21 3.36711 20.7893 2.99204 20.4142C2.61696 20.0391 2.40625 19.5304 2.40625 19C2.40625 18.78 2.44625 18.57 4.45625 10.56C4.65625 9.67 5.45625 9 6.40625 9H8.94625C8.59625 8.41 8.40625 7.73 8.40625 7C8.40625 5.93913 8.82768 4.92172 9.57782 4.17157C10.328 3.42143 11.3454 3 12.4062 3ZM12.4062 5C11.8758 5 11.3671 5.21071 10.992 5.58579C10.617 5.96086 10.4062 6.46957 10.4062 7C10.4062 7.53043 10.617 8.03914 10.992 8.41421C11.3671 8.78929 11.8758 9 12.4062 9C12.9367 9 13.4454 8.78929 13.8205 8.41421C14.1955 8.03914 14.4062 7.53043 14.4062 7C14.4062 6.46957 14.1955 5.96086 13.8205 5.58579C13.4454 5.21071 12.9367 5 12.4062 5Z" fill="black"/>
</g>
</svg>
