<svg width="25" height="24" viewBox="0 0 25 24" fill="none" xmlns="http://www.w3.org/2000/svg">
<g id="1166">
<path id="Vector" d="M12.4431 2C6.98312 2 2.53313 6.45 2.53313 11.91C2.53313 13.66 2.99314 15.36 3.85314 16.86L2.45312 22L7.70312 20.62C9.15313 21.41 10.7831 21.83 12.4431 21.83C17.9031 21.83 22.3531 17.38 22.3531 11.92C22.3531 9.27 21.3231 6.78 19.4531 4.91C17.5831 3.03 15.0931 2 12.4431 2ZM12.4531 3.67C14.6531 3.67 16.7131 4.53 18.2731 6.09C19.8231 7.65 20.6831 9.72 20.6831 11.92C20.6831 16.46 16.9831 20.15 12.4431 20.15C10.9631 20.15 9.51313 19.76 8.25313 19L7.95312 18.83L4.83312 19.65L5.66313 16.61L5.46312 16.29C4.64312 15 4.20313 13.47 4.20313 11.91C4.21313 7.37 7.90312 3.67 12.4531 3.67ZM8.93312 7.33C8.77312 7.33 8.50312 7.39 8.27312 7.64C8.05312 7.89 7.40312 8.5 7.40312 9.71C7.40312 10.93 8.29312 12.1 8.40312 12.27C8.54312 12.44 10.1631 14.94 12.6531 16C13.2431 16.27 13.7031 16.42 14.0631 16.53C14.6531 16.72 15.1931 16.69 15.6231 16.63C16.1031 16.56 17.0831 16.03 17.2931 15.45C17.5031 14.87 17.5031 14.38 17.4431 14.27C17.3731 14.17 17.2131 14.11 16.9631 14C16.7131 13.86 15.4931 13.26 15.2731 13.18C15.0431 13.1 14.9031 13.06 14.7131 13.3C14.5531 13.55 14.0731 14.11 13.9331 14.27C13.7831 14.44 13.6431 14.46 13.4031 14.34C13.1431 14.21 12.3431 13.95 11.4031 13.11C10.6631 12.45 10.1731 11.64 10.0231 11.39C9.90312 11.15 10.0131 11 10.1331 10.89C10.2431 10.78 10.4031 10.6 10.5031 10.45C10.6331 10.31 10.6731 10.2 10.7531 10.04C10.8331 9.87 10.7931 9.73 10.7331 9.61C10.6731 9.5 10.1731 8.26 9.96313 7.77C9.76313 7.29 9.56312 7.35 9.40312 7.34C9.26312 7.34 9.10312 7.33 8.93312 7.33Z" fill="black"/>
</g>
</svg>
