<svg width="25" height="24" viewBox="0 0 25 24" fill="none" xmlns="http://www.w3.org/2000/svg">
<g id="1168">
<path id="Vector" d="M20.8563 17.39L12.7662 21.97V18.4L17.8062 15.63L20.8563 17.39ZM21.4062 16.89V7.31L18.4463 9V15.18L21.4062 16.89ZM3.95625 17.39L12.0463 21.96V18.4L7.00625 15.63L3.95625 17.39ZM3.40625 16.89V7.31L6.36625 9V15.18L3.40625 16.89ZM3.75625 6.69L12.0463 2V5.45L6.73625 8.37L6.68625 8.39L3.75625 6.69ZM21.0562 6.69L12.7662 2V5.45L18.0763 8.38L18.1162 8.4L21.0562 6.69ZM12.0463 17.59L7.07625 14.85V9.44L12.0463 12.31V17.59ZM12.7662 17.59L17.7362 14.86V9.44L12.7662 12.31V17.59ZM7.40625 8.81L12.4062 6.06L17.4062 8.81L12.4062 11.69L7.40625 8.81Z" fill="black"/>
</g>
</svg>
