<svg width="25" height="24" viewBox="0 0 25 24" fill="none" xmlns="http://www.w3.org/2000/svg">
<g id="1169">
<path id="Vector" d="M12.4062 2C14.8463 2 16.9062 3.75 17.3162 6.07L18.1562 6C20.9062 6 23.1562 8.24 23.1562 11C23.1562 12.89 22.1062 14.53 20.5662 15.38C20.9462 16.09 21.1562 16.89 21.1562 17.75C21.1562 20.5 18.9062 22.75 16.1562 22.75C14.6662 22.75 13.3263 22.1 12.4062 21.06C11.4862 22.1 10.1463 22.75 8.65625 22.75C5.90625 22.75 3.65625 20.5 3.65625 17.75C3.65625 16.89 3.87625 16.09 4.24625 15.38C2.70625 14.53 1.65625 12.89 1.65625 11C1.65625 8.24 3.90625 6 6.65625 6L7.49625 6.07C7.90625 3.75 9.96625 2 12.4062 2ZM7.15625 20.25L14.0662 17H17.4062C17.9563 17 18.4062 16.55 18.4062 16V9C18.4062 8.45 17.9563 8 17.4062 8H7.40625C6.85625 8 6.40625 8.45 6.40625 9V16C6.40625 16.55 6.85625 17 7.40625 17H8.17625L7.15625 20.25Z" fill="black"/>
</g>
</svg>
