<svg width="25" height="24" viewBox="0 0 25 24" fill="none" xmlns="http://www.w3.org/2000/svg">
<g id="117">
<path id="Vector" d="M15.6902 16.69L18.5502 13.88L19.2502 14.58L15.6902 18.14L13.5802 16L14.2902 15.28L15.6902 16.69ZM8.41016 21C7.87972 21 7.37102 20.7893 6.99594 20.4142C6.62087 20.0391 6.41016 19.5304 6.41016 19V9C6.41016 8.46957 6.62087 7.96086 6.99594 7.58579C7.37102 7.21071 7.87972 7 8.41016 7V21ZM9.41016 7H14.4102V4C13.8797 4 13.371 3.78929 12.9959 3.41421C12.6209 3.03914 12.4102 2.53043 12.4102 2H16.4102V10C18.0015 10 19.5276 10.6321 20.6528 11.7574C21.778 12.8826 22.4102 14.4087 22.4102 16C22.4102 17.5913 21.778 19.1174 20.6528 20.2426C19.5276 21.3679 18.0015 22 16.4102 22C15.1802 22 14.0402 21.63 13.0902 21H9.41016V7ZM16.4102 12C15.3493 12 14.3319 12.4214 13.5817 13.1716C12.8316 13.9217 12.4102 14.9391 12.4102 16C12.4102 17.0609 12.8316 18.0783 13.5817 18.8284C14.3319 19.5786 15.3493 20 16.4102 20C17.471 20 18.4884 19.5786 19.2386 18.8284C19.9887 18.0783 20.4102 17.0609 20.4102 16C20.4102 14.9391 19.9887 13.9217 19.2386 13.1716C18.4884 12.4214 17.471 12 16.4102 12Z" fill="black"/>
</g>
</svg>
