<svg width="25" height="24" viewBox="0 0 25 24" fill="none" xmlns="http://www.w3.org/2000/svg">
<g id="1170">
<path id="Vector" d="M12.4062 5C11.2962 5 10.4062 5.89 10.4062 7C10.4062 8.11 11.2962 9 12.4062 9C13.5163 9 14.4062 8.11 14.4062 7C14.4062 5.89 13.5163 5 12.4062 5ZM22.4062 1V6H20.4062V4H4.40625V6H2.40625V1H4.40625V3H20.4062V1H22.4062ZM15.4062 11.26V23H13.4062V18H11.4062V23H9.40625V11.26C7.33625 10.17 5.90625 8 5.90625 5.5V5H7.90625V5.5C7.90625 8 9.90625 10 12.4062 10C14.9062 10 16.9062 8 16.9062 5.5V5H18.9062V5.5C18.9062 8 17.4762 10.17 15.4062 11.26Z" fill="black"/>
</g>
</svg>
