<svg width="25" height="24" viewBox="0 0 25 24" fill="none" xmlns="http://www.w3.org/2000/svg">
<g id="1173">
<g id="Group">
<path id="Vector" d="M12.4125 3C8.2125 3 4.1125 4.4 0.8125 7C4.8125 12.1 8.3125 16.4 12.4125 21.5C14.8125 18.5 17.1125 15.7 19.4125 12.8V9.6L17.9125 11.4C16.7125 10.7 14.8125 10 12.4125 10C10.0125 10 8.1125 10.8 6.9125 11.4L3.7125 7.4C6.3125 5.8 9.3125 5 12.4125 5C15.5125 5 18.5125 5.9 21.1125 7.4L20.7125 8H23.3125C23.5125 7.7 23.9125 7.3 24.1125 7C20.7125 4.4 16.6125 3 12.4125 3ZM21.4125 10V16H23.4125V10M21.4125 18V20H23.4125V18" fill="black"/>
</g>
</g>
</svg>
