<svg width="25" height="24" viewBox="0 0 25 24" fill="none" xmlns="http://www.w3.org/2000/svg">
<g id="1175">
<path id="Vector" d="M12.4094 6C9.00938 6 5.90936 7.1 3.40936 9L1.60938 6.6C4.60938 4.3 8.40938 3 12.4094 3C16.4094 3 20.2094 4.3 23.2094 6.6L21.4094 9C18.9094 7.1 15.8094 6 12.4094 6ZM13.4094 19C13.4094 17.7 13.8094 16.4 14.6094 15.4C13.9094 15.2 13.2094 15 12.4094 15C11.1094 15 9.80937 15.5 8.80937 16.2L12.4094 21L13.4094 19.6C13.4094 19.4 13.4094 19.2 13.4094 19ZM17.2094 13.4C17.5094 13.3 17.9094 13.2 18.3094 13.1L19.6094 11.4C17.6094 9.9 15.1094 9 12.4094 9C9.70938 9 7.20938 9.9 5.20938 11.4L7.00937 13.8C8.50937 12.7 10.4094 12 12.4094 12C14.2094 12 15.8094 12.5 17.2094 13.4ZM16.9094 22.6L17.6094 19.8L15.4094 17.9L18.3094 17.7L19.4094 15L20.5094 17.6L23.4094 17.8L21.2094 19.7L21.9094 22.5L19.4094 21.1L16.9094 22.6Z" fill="black"/>
</g>
</svg>
