<svg width="25" height="24" viewBox="0 0 25 24" fill="none" xmlns="http://www.w3.org/2000/svg">
<g id="1177">
<path id="Vector" d="M15.3763 18.95L12.8162 12.92C11.7962 14.91 10.6763 17 9.71625 18.95C9.70625 18.96 9.24625 18.95 9.24625 18.95C7.77625 15.5 6.25625 12.1 4.77625 8.68005C4.43625 7.84005 3.23625 6.50005 2.40625 6.50005C2.40625 6.40005 2.40625 6.18005 2.40625 6.05005H7.46625V6.50005C6.86625 6.50005 5.84625 6.90005 6.10625 7.55005C6.82625 9.09005 9.34625 15.06 10.0363 16.58C10.5063 15.64 11.8363 13.16 12.4062 12.11C11.9563 11.23 10.5363 7.93005 10.1163 7.11005C9.79625 6.57005 8.98625 6.50005 8.36625 6.50005C8.36625 6.35005 8.37625 6.25005 8.36625 6.06005L12.8263 6.07005V6.47005C12.2163 6.50005 11.6463 6.71005 11.9062 7.29005C12.5063 8.53005 12.8562 9.42005 13.4062 10.57C13.5763 10.23 14.4762 8.38005 14.9062 7.41005C15.1662 6.76005 14.7763 6.50005 13.6962 6.50005C13.7062 6.38005 13.7063 6.17005 13.7063 6.07005C15.0963 6.06005 17.1862 6.06005 17.5562 6.05005V6.47005C16.8462 6.50005 16.1162 6.88005 15.7362 7.46005L13.9062 11.3C14.0863 11.81 15.8662 15.76 16.0562 16.2L19.9062 7.37005C19.6062 6.65005 18.7463 6.50005 18.4062 6.50005C18.4062 6.37005 18.4062 6.20005 18.4062 6.05005L22.4062 6.08005V6.10005V6.50005C21.5263 6.50005 20.9762 7.00005 20.6562 7.75005C19.8562 9.54005 17.4062 15.24 15.8062 18.95H15.3763Z" fill="black"/>
</g>
</svg>
