<svg width="25" height="24" viewBox="0 0 25 24" fill="none" xmlns="http://www.w3.org/2000/svg">
<g id="1178">
<path id="Vector" d="M12.4094 6C9.02938 6 5.90936 7.12 3.40936 9L1.60938 6.6C4.61936 4.34 8.35938 3 12.4094 3C16.4594 3 20.1994 4.34 23.2094 6.6L21.4094 9C18.9094 7.12 15.7894 6 12.4094 6ZM12.4094 15C11.0594 15 9.80937 15.45 8.80937 16.2L12.4094 21L13.6694 19.32C13.5094 18.74 13.4094 18.13 13.4094 17.5C13.4094 16.69 13.5694 15.91 13.8394 15.19C13.3794 15.08 12.9094 15 12.4094 15ZM15.6394 12.61C16.5994 11.77 17.7894 11.22 19.1094 11.05C17.1894 9.76 14.9094 9 12.4094 9C9.70938 9 7.21938 9.89 5.20938 11.4L7.00937 13.8C8.50937 12.67 10.3794 12 12.4094 12C13.5494 12 14.6394 12.22 15.6394 12.61ZM19.4094 20C18.0294 20 16.9094 18.88 16.9094 17.5C16.9094 17.1 16.9994 16.72 17.1694 16.38L16.0794 15.29C15.6594 15.92 15.4094 16.68 15.4094 17.5C15.4094 19.71 17.1994 21.5 19.4094 21.5V23L21.6594 20.75L19.4094 18.5V20ZM19.4094 13.5V12L17.1594 14.25L19.4094 16.5V15C20.7894 15 21.9094 16.12 21.9094 17.5C21.9094 17.9 21.8194 18.28 21.6494 18.62L22.7394 19.71C23.1594 19.08 23.4094 18.32 23.4094 17.5C23.4094 15.29 21.6194 13.5 19.4094 13.5Z" fill="black"/>
</g>
</svg>
