<svg width="25" height="24" viewBox="0 0 25 24" fill="none" xmlns="http://www.w3.org/2000/svg">
<g id="1179">
<g id="Group">
<path id="Vector" d="M24.0606 7H24.0506C23.3306 7.9 22.6106 8.79 21.9106 9.69C21.2806 9.33 20.5806 9.11 19.8406 9.04L21.1206 7.45C18.5006 5.86 15.4806 5 12.4106 5C9.32063 5 6.31063 5.85 3.68062 7.44L12.4106 18.3L13.4106 17C13.4106 17.08 13.4106 17.14 13.4106 17.2V20.25L12.4106 21.5C8.54063 16.66 4.65062 11.83 0.765625 7H0.785625C4.11063 4.41 8.20063 3 12.4106 3C16.6306 3 20.7306 4.41 24.0606 7ZM22.2106 16H17.9106V13.5C17.9106 12.7 18.6106 12.2 19.4106 12.2C20.2106 12.2 20.9106 12.7 20.9106 13.5V14H22.2106V13.5C22.2106 12.1 20.8106 11 19.4106 11C18.0106 11 16.6106 12.1 16.6106 13.5V16C16.0106 16 15.4106 16.6 15.4106 17.2V20.7C15.4106 21.4 16.0106 22 16.6106 22H22.1106C22.8106 22 23.4106 21.4 23.4106 20.8V17.3C23.4106 16.6 22.8106 16 22.2106 16Z" fill="black"/>
</g>
</g>
</svg>
