<svg width="25" height="24" viewBox="0 0 25 24" fill="none" xmlns="http://www.w3.org/2000/svg">
<g id="1181">
<g id="Group">
<path id="Vector" d="M14.6006 13.5V14.74C13.9006 15.34 13.4006 16.24 13.4006 17.2V20.24L12.4006 21.5C8.28063 16.37 4.79063 12.06 0.765625 7C4.09063 4.41 8.18063 3 12.4006 3C16.6006 3 20.7106 4.41 24.0406 7L21.9006 9.69C21.1506 9.26 20.3006 9 19.4006 9C16.8006 9 14.6006 11.06 14.6006 13.5ZM22.2006 16H17.9006V13.5C17.9006 12.7 18.6006 12.2 19.4006 12.2C20.2006 12.2 20.9006 12.7 20.9006 13.5V14H22.2006V13.5C22.2006 12.1 20.8006 11 19.4006 11C18.0006 11 16.6006 12.1 16.6006 13.5V16C16.0006 16 15.4006 16.6 15.4006 17.2V20.7C15.4006 21.4 16.0006 22 16.6006 22H22.1006C22.8006 22 23.4006 21.4 23.4006 20.8V17.3C23.4006 16.6 22.8006 16 22.2006 16Z" fill="black"/>
</g>
</g>
</svg>
