<svg width="25" height="24" viewBox="0 0 25 24" fill="none" xmlns="http://www.w3.org/2000/svg">
<g id="1182">
<g id="Group">
<path id="Vector" d="M14.6006 14.5V14.74C13.9006 15.34 13.4006 16.24 13.4006 17.2V20.24L12.4006 21.5C8.28063 16.37 4.79063 12.06 0.765625 7C4.09063 4.41 8.18063 3 12.4006 3C16.6006 3 20.7106 4.41 24.0406 7L21.3106 10.39C20.7206 10.14 20.0806 10 19.4006 10C16.8006 10 14.6006 12.06 14.6006 14.5ZM23.4006 17.3V20.8C23.4006 21.4 22.8006 22 22.1006 22H16.6006C16.0006 22 15.4006 21.4 15.4006 20.7V17.2C15.4006 16.6 16.0006 16 16.6006 16V14.5C16.6006 13.1 18.0006 12 19.4006 12C20.8006 12 22.2006 13.1 22.2006 14.5V16C22.8006 16 23.4006 16.6 23.4006 17.3ZM20.9006 14.5C20.9006 13.7 20.2006 13.2 19.4006 13.2C18.6006 13.2 17.9006 13.7 17.9006 14.5V16H20.9006V14.5Z" fill="black"/>
</g>
</g>
</svg>
