<svg width="25" height="24" viewBox="0 0 25 24" fill="none" xmlns="http://www.w3.org/2000/svg">
<g id="1184">
<g id="Group">
<path id="Vector" d="M3.67125 1.43994L2.40125 2.71994L4.45125 4.76994C3.15125 5.36994 1.90125 6.10994 0.78125 6.99994C4.60125 11.7999 8.54125 16.6699 12.4012 21.4999L16.3112 16.6299L19.6313 19.9499L20.9013 18.6799C15.2713 13.0399 3.67125 1.43994 3.67125 1.43994ZM12.4012 2.99994C11.0012 2.99994 9.61125 3.16994 8.26125 3.49994L9.96125 5.18994C10.7713 5.06994 11.5812 4.99994 12.4012 4.99994C15.4712 4.99994 18.4913 5.85994 21.1112 7.44994L17.1613 12.3799L18.5813 13.7999C20.4813 11.4299 22.4013 8.99994 24.0513 6.99994C20.7213 4.40994 16.6212 2.99994 12.4012 2.99994ZM5.97125 6.28994L14.9012 15.2099L12.4012 18.2999L3.67125 7.43994C4.40125 6.99994 5.18125 6.60994 5.97125 6.28994Z" fill="black"/>
</g>
</g>
</svg>
