<svg width="25" height="24" viewBox="0 0 25 24" fill="none" xmlns="http://www.w3.org/2000/svg">
<g id="1186">
<path id="Vector" d="M13.7381 11.6699L16.6181 14.5799C18.0281 13.1599 16.6181 11.7499 16.6181 11.7499L15.1281 10.2399C15.3081 9.85989 15.4081 9.43989 15.4081 8.99989C15.4081 7.94989 14.8681 7.02989 14.0481 6.49989L15.4081 2.10989C13.4981 1.52989 12.9081 3.43989 12.9081 3.43989L12.0981 6.02989C10.8681 6.15989 9.86813 6.99989 9.53813 8.17989L5.07812 9.62989C5.71812 11.5299 7.60812 10.8999 7.60812 10.8999L9.67813 10.2299C10.0181 10.9699 10.6381 11.5399 11.4081 11.8199V18.9999C11.4081 18.9999 9.40812 18.9999 9.40812 20.9999C9.40812 21.4999 9.40812 21.8099 9.40812 21.9999H15.4081V20.9999C15.4081 20.9999 15.4081 18.9999 13.4081 18.9999V11.8199C13.5281 11.7799 13.6381 11.7199 13.7381 11.6699ZM10.9081 8.99989C10.9081 8.60206 11.0662 8.22053 11.3475 7.93923C11.6288 7.65792 12.0103 7.49989 12.4081 7.49989C12.8059 7.49989 13.1875 7.65792 13.4688 7.93923C13.7501 8.22053 13.9081 8.60206 13.9081 8.99989C13.9081 9.39771 13.7501 9.77924 13.4688 10.0605C13.1875 10.3419 12.8059 10.4999 12.4081 10.4999C12.0103 10.4999 11.6288 10.3419 11.3475 10.0605C11.0662 9.77924 10.9081 9.39771 10.9081 8.99989Z" fill="black"/>
</g>
</svg>
