<svg width="25" height="24" viewBox="0 0 25 24" fill="none" xmlns="http://www.w3.org/2000/svg">
<g id="1187">
<path id="Vector" d="M4.40625 3H10.4062V5H4.40625V3ZM1.40625 7H6.40625V9H1.40625V7ZM3.40625 19H8.40625V21H3.40625V19ZM22.6162 18.61L20.3363 14.5C20.0663 14.03 19.6063 13.68 19.0763 13.54L16.4062 12.87C16.3663 12.4 16.2462 11.95 16.0162 11.54L19.9762 4.95C20.6262 3.87 20.2763 2.47 19.1963 1.82C18.8363 1.6 18.4063 1.5 18.0263 1.5C17.4663 1.5 16.9062 1.71 16.4662 2.12L13.0363 5.33C12.6363 5.7 12.4062 6.23 12.4062 6.78V10.18C11.9363 10.35 11.5163 10.63 11.1763 11H3.68625C2.40625 11 1.40625 12 1.40625 13.28C1.40625 14.3 2.07625 15.19 3.05625 15.47L7.56625 16.76C7.74625 16.81 7.93625 16.84 8.11625 16.84C8.47625 16.84 8.83625 16.74 9.14625 16.55L11.4062 15.21C11.6763 15.47 12.0163 15.68 12.4062 15.82V21C11.3062 21 10.4062 21.9 10.4062 23H16.4062C16.4062 21.9 15.5063 21 14.4062 21V16.72L19.0163 21.33C19.4663 21.78 20.0462 22 20.6262 22C21.2062 22 21.7962 21.78 22.2362 21.33C22.9562 20.61 23.1162 19.5 22.6162 18.61ZM8.12625 14.84L3.60625 13.55C3.48625 13.5 3.40625 13.4 3.40625 13.28C3.40625 13.13 3.53625 13 3.68625 13H10.4062C10.4062 13.15 10.4062 13.3 10.4462 13.44L8.12625 14.84ZM13.4062 14C12.8562 14 12.4062 13.55 12.4062 13C12.4062 12.45 12.8562 12 13.4062 12C13.9563 12 14.4062 12.45 14.4062 13C14.4062 13.55 13.9563 14 13.4062 14ZM14.4062 10.14V6.78L17.8363 3.57C17.9063 3.5 18.0263 3.45 18.1763 3.53C18.3063 3.61 18.3563 3.78 18.2763 3.91L14.5363 10.15L14.4062 10.14ZM20.8263 19.92C20.7763 19.97 20.5863 20.08 20.4062 19.92L15.5763 15.07C15.6563 15 15.7362 14.89 15.8162 14.79L18.5963 15.5L20.8762 19.58C20.9362 19.69 20.9063 19.83 20.8263 19.92Z" fill="black"/>
</g>
</svg>
