<svg width="25" height="24" viewBox="0 0 25 24" fill="none" xmlns="http://www.w3.org/2000/svg">
<g id="1188">
<path id="Vector" d="M4.40625 2.9999H10.4062V4.9999H4.40625V2.9999ZM1.40625 6.9999H6.40625V8.9999H1.40625V6.9999ZM3.40625 18.9999H8.40625V20.9999H3.40625V18.9999ZM14.1362 10.6099C14.9062 10.8399 15.4363 11.3899 15.7063 12.0699L19.9762 4.9599C20.6262 3.8799 20.2763 2.4999 19.1963 1.8299C18.3263 1.3099 17.2062 1.4199 16.4662 2.1199L13.0363 5.3299C12.6363 5.6999 12.4062 6.2299 12.4062 6.7799V10.7099C12.7663 10.5599 13.4062 10.3799 14.1362 10.6099ZM11.0162 12.2699C11.1762 11.7499 11.4963 11.3099 11.9062 10.9999H3.68625C2.40625 10.9999 1.40625 11.9999 1.40625 13.2799C1.40625 14.2999 2.07625 15.1899 3.05625 15.4699L7.56625 16.7599C8.09625 16.9099 8.66625 16.8399 9.14625 16.5499L11.8363 14.9399C11.0663 14.3199 10.7062 13.2699 11.0162 12.2699ZM22.6162 18.6099L20.3363 14.4999C20.0663 14.0299 19.6063 13.6799 19.0763 13.5399L15.9062 12.7399C15.9062 13.0599 15.9063 13.3999 15.7963 13.7299C15.4763 14.7899 14.5163 15.4999 13.4062 15.4999C12.7962 15.4999 12.4062 15.2799 12.4062 15.2799V20.9999C11.3062 20.9999 10.4062 21.8999 10.4062 22.9999H16.4062C16.4062 21.8999 15.5063 20.9999 14.4062 20.9999V16.7199L19.0163 21.3299C19.9063 22.2199 21.3462 22.2199 22.2362 21.3299C22.9562 20.6099 23.1162 19.4999 22.6162 18.6099ZM12.9663 14.4299C13.7563 14.6699 14.5963 14.2299 14.8363 13.4299C15.0763 12.6399 14.6363 11.7999 13.8363 11.5599C13.0463 11.3199 12.2063 11.7599 11.9663 12.5599C11.7263 13.3499 12.1763 14.1899 12.9663 14.4299Z" fill="black"/>
</g>
</svg>
