<svg width="25" height="24" viewBox="0 0 25 24" fill="none" xmlns="http://www.w3.org/2000/svg">
<g id="119">
<path id="Vector" d="M2.50977 4.9L6.40977 8.9V19C6.40977 19.5 6.60977 20 7.00977 20.4C7.40977 20.8 7.90977 21 8.40977 21V10.8L9.40977 11.8V21H13.6098C13.5098 20.6 13.4098 20.2 13.4098 20C13.4098 18.8 13.9098 18 15.0098 17.4L15.8098 18.2C14.9098 18.5 14.5098 19.2 14.5098 20.1C14.5098 20.6 14.7098 21.1 15.1098 21.5C15.4098 21.8 15.9098 22 16.4098 22C17.3098 22 18.0098 21.6 18.3098 20.7L19.5098 21.9L20.9098 20.5L3.90977 3.5L2.50977 4.9ZM12.4098 2C12.4098 2.5 12.6098 3 13.0098 3.4C13.4098 3.8 13.9098 4 14.4098 4V7H10.2098L16.4098 13.2V2H12.4098Z" fill="black"/>
</g>
</svg>
