<svg width="25" height="24" viewBox="0 0 25 24" fill="none" xmlns="http://www.w3.org/2000/svg">
<g id="1190">
<path id="Vector" d="M6.40625 8H10.4062V6H14.4062V8H18.4062V4H6.40625V8ZM18.4062 10H6.40625V15H18.4062V10ZM6.40625 20H18.4062V17H6.40625V20ZM6.40625 2H18.4062C18.9367 2 19.4454 2.21071 19.8205 2.58579C20.1955 2.96086 20.4062 3.46957 20.4062 4V20C20.4062 20.5304 20.1955 21.0391 19.8205 21.4142C19.4454 21.7893 18.9367 22 18.4062 22H6.40625C5.87582 22 5.36711 21.7893 4.99204 21.4142C4.61696 21.0391 4.40625 20.5304 4.40625 20V4C4.40625 3.46957 4.61696 2.96086 4.99204 2.58579C5.36711 2.21071 5.87582 2 6.40625 2Z" fill="black"/>
</g>
</svg>
