<svg width="25" height="24" viewBox="0 0 25 24" fill="none" xmlns="http://www.w3.org/2000/svg">
<g id="1191">
<path id="Vector" d="M20.4062 14H18.4062L15.2063 23H17.1063L17.8062 21H21.0063L21.7062 23H23.6063L20.4062 14ZM18.2062 19.7L19.4062 16L20.6063 19.7H18.2062ZM7.40625 9H15.4062V11H7.40625V9ZM7.40625 12H15.4062V14H7.40625V12ZM7.40625 15H15.4062V16.5L15.2063 17H7.40625V15ZM14.1062 20H7.40625V18H14.9062L14.1062 20ZM16.4062 8H6.40625V20H4.40625V8H2.40625V4H20.4062V8H18.4062V12H17.0063L16.5063 13.3L16.4062 13.7V8Z" fill="black"/>
</g>
</svg>
