<svg width="25" height="24" viewBox="0 0 25 24" fill="none" xmlns="http://www.w3.org/2000/svg">
<g id="1192">
<path id="Vector" d="M12.4062 4C5.40625 4 2.40625 9 2.40625 9L9.40625 16C9.40625 16 9.90625 15.1 10.8062 14.5L11.1062 16.5C10.7062 16.8 10.4062 17.4 10.4062 18C10.4062 18.5304 10.617 19.0391 10.992 19.4142C11.3671 19.7893 11.8758 20 12.4062 20C12.9367 20 13.4454 19.7893 13.8205 19.4142C14.1955 19.0391 14.4062 18.5304 14.4062 18C14.4062 17.1 13.9062 16.4 13.1062 16.1L12.7063 14C14.5063 14.2 15.4062 16 15.4062 16L22.4062 9C22.4062 9 19.4062 4 12.4062 4ZM15.5063 13.1C14.7063 12.5 13.7062 12 12.4062 12L11.4062 6.1C11.7063 6 12.1062 6 12.4062 6C16.1063 6 18.5062 7.7 19.7062 8.9L15.5063 13.1ZM9.30625 13.1L5.10625 8.9C5.90625 8 7.40625 7 9.40625 6.4L10.4062 12.4C10.0062 12.6 9.60625 12.8 9.30625 13.1Z" fill="black"/>
</g>
</svg>
