<svg width="25" height="24" viewBox="0 0 25 24" fill="none" xmlns="http://www.w3.org/2000/svg">
<g id="1196">
<path id="Vector" d="M9.40625 2C11.2062 2.6 12.4062 4.3 12.4062 6.2C12.4062 8.2 11.2062 9.9 9.40625 10.5V21.5C9.40625 21.8 9.20625 22 8.90625 22H6.90625C6.60625 22 6.40625 21.8 6.40625 21.4V10.4C4.60625 9.8 3.40625 8.1 3.40625 6.2C3.40625 4.3 4.60625 2.6 6.40625 2V5.7H9.40625V2ZM21.0063 13L22.4062 14.41L15.8763 21L12.4062 17.5L13.8062 16.09L15.8763 18.17L21.0063 13Z" fill="black"/>
</g>
</svg>
