<svg width="25" height="24" viewBox="0 0 25 24" fill="none" xmlns="http://www.w3.org/2000/svg">
<g id="1197">
<path id="Vector" d="M9.40625 1.09009V6.00009H7.40625V1.09009C4.56625 1.57009 2.40625 4.03009 2.40625 7.00009C2.40625 9.22009 3.61625 11.1501 5.40625 12.1901V21.0001C5.40625 21.5501 5.85625 22.0001 6.40625 22.0001H10.4062C10.9563 22.0001 11.4062 21.5501 11.4062 21.0001V12.1901C13.1962 11.1501 14.4062 9.22009 14.4062 7.00009C14.4062 4.03009 12.2462 1.57009 9.40625 1.09009ZM10.4062 10.4601L9.40625 11.0401V20.0001H7.40625V11.0401L6.40625 10.4601C5.17625 9.74009 4.40625 8.42009 4.40625 7.00009C4.40625 6.00009 4.77625 5.06009 5.40625 4.35009V8.00009H11.4062V4.35009C12.0362 5.06009 12.4062 6.00009 12.4062 7.00009C12.4062 8.42009 11.6363 9.74009 10.4062 10.4601ZM22.0063 13.0001L23.4062 14.4101L16.8762 21.0001L13.4062 17.5001L14.8062 16.0901L16.8762 18.1701L22.0063 13.0001Z" fill="black"/>
</g>
</svg>
