<svg width="25" height="24" viewBox="0 0 25 24" fill="none" xmlns="http://www.w3.org/2000/svg">
<g id="1198">
<path id="Vector" d="M3.82625 12C3.82625 10.76 4.09625 9.58 4.56625 8.5L8.66625 19.72C5.79625 18.33 3.82625 15.4 3.82625 12ZM18.1963 11.57C18.1963 12.3 17.9062 13.15 17.5462 14.34L16.6863 17.2L13.5863 8L14.5662 7.9C15.0362 7.84 14.9762 7.16 14.5162 7.19C14.5162 7.19 13.1262 7.3 12.2262 7.3L9.96625 7.19C9.50625 7.16 9.45625 7.87 9.90625 7.9L10.8162 8L12.1562 11.64L10.2762 17.27L7.14625 8L8.13625 7.9C8.59625 7.84 8.53625 7.16 8.07625 7.19C8.07625 7.19 6.68625 7.3 5.78625 7.3L5.23625 7.29C6.77625 4.96 9.40625 3.42 12.4062 3.42C14.6363 3.42 16.6763 4.28 18.1963 5.67H18.0863C17.2463 5.67 16.6462 6.4 16.6462 7.19C16.6462 7.9 17.0562 8.5 17.4862 9.2C17.8162 9.77 18.1963 10.5 18.1963 11.57ZM12.5562 12.75L15.1962 19.97L15.2563 20.09C14.3663 20.41 13.4062 20.58 12.4062 20.58C11.5663 20.58 10.7562 20.46 9.98625 20.23L12.5562 12.75ZM19.9363 7.88C20.6063 9.11 20.9862 10.5 20.9862 12C20.9862 15.16 19.2662 17.93 16.7162 19.41L19.3363 11.84C19.8263 10.62 19.9963 9.64 19.9963 8.77L19.9363 7.88ZM12.4062 2C13.7195 2 15.0198 2.25866 16.2331 2.7612C17.4463 3.26375 18.5487 4.00035 19.4773 4.92893C20.4059 5.85752 21.1425 6.95991 21.645 8.17317C22.1476 9.38642 22.4062 10.6868 22.4062 12C22.4062 14.6522 21.3527 17.1957 19.4773 19.0711C17.602 20.9464 15.0584 22 12.4062 22C11.093 22 9.79267 21.7413 8.57942 21.2388C7.36616 20.7362 6.26377 19.9997 5.33518 19.0711C3.45982 17.1957 2.40625 14.6522 2.40625 12C2.40625 9.34784 3.45982 6.8043 5.33518 4.92893C7.21055 3.05357 9.75409 2 12.4062 2ZM12.4062 21.54C17.6663 21.54 21.9463 17.26 21.9463 12C21.9463 6.74 17.6663 2.46 12.4062 2.46C7.14625 2.46 2.86625 6.74 2.86625 12C2.86625 17.26 7.14625 21.54 12.4062 21.54Z" fill="black"/>
</g>
</svg>
