<svg width="25" height="24" viewBox="0 0 25 24" fill="none" xmlns="http://www.w3.org/2000/svg">
<g id="1199">
<path id="Vector" d="M21.4062 22H3.40625V20H21.4062V22ZM19.4062 19H5.40625L11.5063 2.6C11.7063 2.2 12.0062 2 12.4062 2L18.4062 5H14.3062L19.4062 19ZM10.4062 7.5L11.4462 7.97L11.9062 9L12.3763 7.97L13.4062 7.5L12.3763 7.03L11.9062 6L11.4462 7.03L10.4062 7.5ZM13.4062 15L11.3462 14.07L10.4062 12L9.47625 14.07L7.40625 15L9.47625 15.93L10.4062 18L11.3462 15.93L13.4062 15ZM14.3763 11.97L15.4062 11.5L14.3763 11.03L13.9062 10L13.4462 11.03L12.4062 11.5L13.4462 11.97L13.9062 13L14.3763 11.97ZM16.3763 15.97L17.4062 15.5L16.3763 15.03L15.9062 14L15.4462 15.03L14.4062 15.5L15.4462 15.97L15.9062 17L16.3763 15.97Z" fill="black"/>
</g>
</svg>
