<svg width="25" height="24" viewBox="0 0 25 24" fill="none" xmlns="http://www.w3.org/2000/svg">
<g id="12">
<g id="Group">
<path id="Vector" d="M11.4102 10V12H9.41016V14H7.41016V12H6.21016C5.81016 13.2 4.71016 14 3.41016 14C1.71016 14 0.410156 12.7 0.410156 11C0.410156 9.3 1.71016 8 3.41016 8C4.71016 8 5.81016 8.8 6.21016 10H11.4102ZM3.41016 10C2.81016 10 2.41016 10.4 2.41016 11C2.41016 11.6 2.81016 12 3.41016 12C4.01016 12 4.41016 11.6 4.41016 11C4.41016 10.4 4.01016 10 3.41016 10ZM16.4102 14C19.1102 14 24.4102 15.3 24.4102 18V20H8.41016V18C8.41016 15.3 13.7102 14 16.4102 14ZM16.4102 12C14.2102 12 12.4102 10.2 12.4102 8C12.4102 5.8 14.2102 4 16.4102 4C18.6102 4 20.4102 5.8 20.4102 8C20.4102 10.2 18.6102 12 16.4102 12Z" fill="black"/>
</g>
</g>
</svg>
