<svg width="25" height="24" viewBox="0 0 25 24" fill="none" xmlns="http://www.w3.org/2000/svg">
<g id="1200">
<g id="Group">
<path id="Vector" d="M11.4062 6C11.4062 5.7 11.5063 4.6 12.2063 3.8L10.4062 2.4L8.60625 3.9C9.30625 4.6 9.40625 5.7 9.40625 6C3.10625 6.4 0.40625 11 0.40625 11L7.40625 18C7.40625 18 8.10625 16.7 9.40625 16.2V18.3C8.80625 18.6 8.40625 19.3 8.40625 20C8.40625 21.11 9.30625 22 10.4062 22C11.5063 22 12.4062 21.11 12.4062 20C12.4062 19.3 12.0063 18.6 11.4062 18.3V16.2C12.7062 16.7 13.4062 18 13.4062 18L20.4062 11C20.4062 11 17.7063 6.5 11.4062 6ZM9.40625 14.1C8.60625 14.3 7.90625 14.6 7.30625 15.1L3.10625 10.9C4.20625 9.8 6.20625 8.3 9.40625 8.1V14.1ZM13.5063 15.1C12.9063 14.7 12.2063 14.3 11.4062 14.1V8.1C14.6063 8.4 16.6062 9.8 17.7062 10.9L13.5063 15.1ZM16.4062 1.3L15.7063 3.2C15.0063 2.9 13.9062 2.9 13.1062 3.2L12.4062 1.3C13.6063 0.9 15.2062 0.9 16.4062 1.3ZM19.4062 6H17.4062C17.4062 6 17.4063 4.7 16.6063 3.9L18.1063 2.6C19.4063 4 19.4062 5.9 19.4062 6ZM2.60625 2.6L4.10625 3.9C3.40625 4.7 3.40625 6 3.40625 6H1.40625C1.40625 5.9 1.40625 4 2.60625 2.6ZM8.40625 1.3L7.70625 3.2C7.00625 2.9 5.90625 2.9 5.10625 3.2L4.40625 1.3C5.60625 0.9 7.20625 0.9 8.40625 1.3ZM22.4062 12V7H24.4062V13H22.4062M22.4062 17H24.4062V15H22.4062" fill="black"/>
</g>
</g>
</svg>
