<svg width="25" height="24" viewBox="0 0 25 24" fill="none" xmlns="http://www.w3.org/2000/svg">
<g id="1202">
<path id="Vector" d="M22.1063 18.6V17.6L23.2062 16.8C23.3062 16.7 23.4062 16.6 23.3062 16.5L22.3062 14.8C22.3062 14.7 22.1063 14.7 22.0063 14.7L20.8062 15.2C20.5062 15 20.2063 14.8 19.9062 14.7L19.7062 13.4C19.7062 13.3 19.6063 13.2 19.5063 13.2H17.5063C17.3063 13.2 17.2062 13.3 17.2062 13.4L17.0063 14.7C16.7063 14.9 16.5063 15 16.2063 15.2L15.0063 14.7C14.9063 14.7 14.8063 14.7 14.7063 14.8L13.7063 16.5C13.7063 16.6 13.7062 16.7 13.8062 16.8L14.9062 17.6V18.6L13.8062 19.4C13.7062 19.5 13.6063 19.6 13.7063 19.7L14.7063 21.4C14.8063 21.5 14.9063 21.5 15.0063 21.5L16.2063 21C16.4063 21.2 16.7063 21.4 17.0063 21.5L17.2062 22.8C17.3062 22.9 17.4063 23 17.5063 23H19.5063C19.6063 23 19.7062 22.9 19.7062 22.8L19.9062 21.5C20.2063 21.3 20.4062 21.2 20.7062 21L21.9062 21.4C22.0063 21.4 22.1062 21.4 22.2062 21.3L23.2062 19.6C23.3062 19.5 23.3062 19.4 23.2062 19.4L22.1063 18.6ZM18.4062 19.5C17.6062 19.5 16.9062 18.8 16.9062 18C16.9062 17.2 17.6062 16.5 18.4062 16.5C19.2063 16.5 19.9062 17.2 19.9062 18C19.9062 18.8 19.2063 19.5 18.4062 19.5ZM8.40625 9H16.4062V11H8.40625V9ZM17.4062 8H7.40625V20H5.40625V8H3.40625V4H21.4062V8H19.4062V11.1C19.1062 11.1 18.7063 11 18.4062 11C18.1062 11 17.7063 11 17.4062 11.1V8ZM11.7063 20H8.40625V18H11.4062C11.4062 18.7 11.5063 19.4 11.7063 20ZM8.40625 12H14.8062C14.0062 12.5 13.2063 13.2 12.7063 14H8.40625V12ZM8.40625 15H12.1062C11.8062 15.6 11.6063 16.3 11.5063 17H8.40625V15Z" fill="black"/>
</g>
</svg>
