<svg width="25" height="24" viewBox="0 0 25 24" fill="none" xmlns="http://www.w3.org/2000/svg">
<g id="1203">
<path id="Vector" d="M10.4093 15L15.4093 12L10.4093 9V15ZM19.8593 13L21.9693 14.63C22.1893 14.78 22.2193 15 22.0693 15.28L20.0493 18.75C19.9093 18.97 19.7193 19.03 19.4393 18.94L16.9593 17.95C16.2993 18.42 15.7393 18.75 15.2693 18.94L14.9093 21.56C14.8293 21.84 14.6793 22 14.4093 22H10.4093C10.1393 22 9.98929 21.84 9.90929 21.56L9.54929 18.94C8.95929 18.69 8.40929 18.36 7.85929 17.95L5.37929 18.94C5.09929 19.03 4.90929 18.97 4.76929 18.75L2.74929 15.28C2.59929 15 2.62929 14.78 2.84929 14.63L4.95929 13C4.90929 12.77 4.90929 12.44 4.90929 12C4.90929 11.56 4.90929 11.23 4.95929 11L2.84929 9.38C2.62929 9.22 2.59929 9 2.74929 8.72L4.76929 5.25C4.90929 5.03 5.09929 4.97 5.37929 5.06L7.85929 6.05C8.51929 5.58 9.07929 5.25 9.54929 5.06L9.90929 2.44C9.98929 2.16 10.1393 2 10.4093 2H14.4093C14.6793 2 14.8293 2.16 14.9093 2.44L15.2693 5.06C15.8593 5.31 16.4093 5.64 16.9593 6.05L19.4393 5.06C19.7193 4.97 19.9093 5.03 20.0493 5.25L22.0693 8.72C22.2193 9 22.1893 9.22 21.9693 9.38L19.8593 11C19.9093 11.23 19.9093 11.56 19.9093 12C19.9093 12.44 19.9093 12.77 19.8593 13Z" fill="black"/>
</g>
</svg>
