<svg width="25" height="24" viewBox="0 0 25 24" fill="none" xmlns="http://www.w3.org/2000/svg">
<g id="1204">
<path id="Vector" d="M22.4062 13V8L17.4062 5L12.4062 8L7.40625 5L2.40625 8V13L12.4062 19L22.4062 13ZM9.40625 11H7.40625V13H6.40625V11H4.40625V10H6.40625V8H7.40625V10H9.40625V11ZM15.4062 13C14.8562 13 14.4062 12.55 14.4062 12C14.4062 11.45 14.8562 11 15.4062 11C15.9563 11 16.4062 11.45 16.4062 12C16.4062 12.55 15.9563 13 15.4062 13ZM18.4062 11C17.8562 11 17.4062 10.55 17.4062 10C17.4062 9.45 17.8562 9 18.4062 9C18.9563 9 19.4062 9.45 19.4062 10C19.4062 10.55 18.9563 11 18.4062 11Z" fill="black"/>
</g>
</svg>
