<svg width="25" height="24" viewBox="0 0 25 24" fill="none" xmlns="http://www.w3.org/2000/svg">
<g id="1205">
<path id="Vector" d="M10.4062 15L15.5962 12L10.4062 9V15ZM21.9662 7.17C22.0962 7.64 22.1863 8.27 22.2463 9.07C22.3163 9.87 22.3463 10.56 22.3463 11.16L22.4062 12C22.4062 14.19 22.2462 15.8 21.9662 16.83C21.7162 17.73 21.1362 18.31 20.2362 18.56C19.7662 18.69 18.9063 18.78 17.5863 18.84C16.2863 18.91 15.0963 18.94 13.9963 18.94L12.4062 19C8.21625 19 5.60625 18.84 4.57625 18.56C3.67625 18.31 3.09625 17.73 2.84625 16.83C2.71625 16.36 2.62625 15.73 2.56625 14.93C2.49625 14.13 2.46625 13.44 2.46625 12.84L2.40625 12C2.40625 9.81 2.56625 8.2 2.84625 7.17C3.09625 6.27 3.67625 5.69 4.57625 5.44C5.04625 5.31 5.90625 5.22 7.22625 5.16C8.52625 5.09 9.71625 5.06 10.8162 5.06L12.4062 5C16.5963 5 19.2062 5.16 20.2362 5.44C21.1362 5.69 21.7162 6.27 21.9662 7.17Z" fill="black"/>
</g>
</svg>
