<svg width="25" height="24" viewBox="0 0 25 24" fill="none" xmlns="http://www.w3.org/2000/svg">
<g id="1207">
<path id="Vector" d="M12.4062 2C13.7195 2 15.0198 2.25866 16.2331 2.7612C17.4463 3.26375 18.5487 4.00035 19.4773 4.92893C20.4059 5.85752 21.1425 6.95991 21.645 8.17317C22.1476 9.38642 22.4062 10.6868 22.4062 12C22.4062 14.6522 21.3527 17.1957 19.4773 19.0711C17.602 20.9464 15.0584 22 12.4062 22C11.093 22 9.79267 21.7413 8.57942 21.2388C7.36616 20.7362 6.26377 19.9997 5.33518 19.0711C3.45982 17.1957 2.40625 14.6522 2.40625 12C2.40625 9.34784 3.45982 6.8043 5.33518 4.92893C7.21055 3.05357 9.75409 2 12.4062 2ZM12.4062 4C10.2845 4 8.24969 4.84285 6.7494 6.34315C5.2491 7.84344 4.40625 9.87827 4.40625 12C4.40625 14.1217 5.2491 16.1566 6.7494 17.6569C8.24969 19.1571 10.2845 20 12.4062 20C11.3454 20 10.328 19.5786 9.57782 18.8284C8.82768 18.0783 8.40625 17.0609 8.40625 16C8.40625 14.9391 8.82768 13.9217 9.57782 13.1716C10.328 12.4214 11.3454 12 12.4062 12C13.4671 12 14.4845 11.5786 15.2347 10.8284C15.9848 10.0783 16.4062 9.06087 16.4062 8C16.4062 6.93913 15.9848 5.92172 15.2347 5.17157C14.4845 4.42143 13.4671 4 12.4062 4ZM12.4062 6.5C12.8041 6.5 13.1856 6.65804 13.4669 6.93934C13.7482 7.22064 13.9062 7.60218 13.9062 8C13.9062 8.39782 13.7482 8.77936 13.4669 9.06066C13.1856 9.34196 12.8041 9.5 12.4062 9.5C12.0084 9.5 11.6269 9.34196 11.3456 9.06066C11.0643 8.77936 10.9063 8.39782 10.9062 8C10.9062 7.60218 11.0643 7.22064 11.3456 6.93934C11.6269 6.65804 12.0084 6.5 12.4062 6.5ZM12.4062 14.5C12.0084 14.5 11.6269 14.658 11.3456 14.9393C11.0643 15.2206 10.9063 15.6022 10.9062 16C10.9063 16.3978 11.0643 16.7794 11.3456 17.0607C11.6269 17.342 12.0084 17.5 12.4062 17.5C12.8041 17.5 13.1856 17.342 13.4669 17.0607C13.7482 16.7794 13.9062 16.3978 13.9062 16C13.9062 15.6022 13.7482 15.2206 13.4669 14.9393C13.1856 14.658 12.8041 14.5 12.4062 14.5Z" fill="black"/>
</g>
</svg>
