<svg width="25" height="24" viewBox="0 0 25 24" fill="none" xmlns="http://www.w3.org/2000/svg">
<g id="1208">
<path id="Vector" d="M20.4062 8H4.40625V6H20.4062V8ZM18.4062 2H6.40625V4H18.4062V2ZM22.4062 12V20C22.4062 20.5304 22.1955 21.0391 21.8205 21.4142C21.4454 21.7893 20.9367 22 20.4062 22H4.40625C3.87582 22 3.36711 21.7893 2.99204 21.4142C2.61696 21.0391 2.40625 20.5304 2.40625 20V12C2.40625 11.4696 2.61696 10.9609 2.99204 10.5858C3.36711 10.2107 3.87582 10 4.40625 10H20.4062C20.9367 10 21.4454 10.2107 21.8205 10.5858C22.1955 10.9609 22.4062 11.4696 22.4062 12ZM16.4062 16L10.4062 12.73V19.26L16.4062 16Z" fill="black"/>
</g>
</svg>
