<svg width="25" height="24" viewBox="0 0 25 24" fill="none" xmlns="http://www.w3.org/2000/svg">
<g id="1209">
<path id="Vector" d="M2.90625 4.5H21.9062C22.7462 4.5 23.4062 5.15 23.4062 6V17.5C23.4062 18.35 22.7462 19 21.9062 19H2.90625C2.05625 19 1.40625 18.35 1.40625 17.5V6C1.40625 5.15 2.05625 4.5 2.90625 4.5ZM10.1163 8.5V15L15.8263 11.7L10.1163 8.5ZM17.6562 21H7.05625C6.75625 21 6.55625 20.8 6.55625 20.5C6.55625 20.2 6.75625 20 7.05625 20H17.7563C18.0563 20 18.2563 20.2 18.2563 20.5C18.2563 20.8 17.9563 21 17.6562 21Z" fill="black"/>
</g>
</svg>
