<svg width="25" height="24" viewBox="0 0 25 24" fill="none" xmlns="http://www.w3.org/2000/svg">
<g id="121">
<path id="Vector" d="M20.4095 19.35L2.78953 1.72998L1.51953 2.99998L5.17953 6.65998C4.67953 7.33998 4.40953 8.15998 4.40953 8.99998V20C4.40953 20.5304 4.62024 21.0391 4.99532 21.4142C5.37039 21.7893 5.8791 22 6.40953 22H18.4095C18.9695 22 19.4895 21.76 19.8695 21.35L21.2495 22.73L22.5195 21.46L20.4095 19.35ZM6.40953 8.99998C6.40953 8.68998 6.48953 8.37998 6.62953 8.10998L13.5195 15H6.40953V8.99998ZM18.4095 20H6.40953V16H8.40953V18H9.40953V16H14.5195L18.4095 19.89V20ZM16.4095 6.99998C16.94 6.99998 17.4487 7.21069 17.8237 7.58577C18.1988 7.96084 18.4095 8.46955 18.4095 8.99998V14.8L20.4095 16.8V8.99998C20.4095 7.93911 19.9881 6.9217 19.238 6.17155C18.4878 5.42141 17.4704 4.99998 16.4095 4.99998V3.99998C16.4095 3.46955 16.1988 2.96084 15.8237 2.58577C15.4487 2.21069 14.94 1.99998 14.4095 1.99998H10.4095C9.8791 1.99998 9.37039 2.21069 8.99532 2.58577C8.62025 2.96084 8.40953 3.46955 8.40953 3.99998V4.79998L10.6095 6.99998H16.4095ZM10.4095 3.99998H14.4095V4.99998H10.4095V3.99998Z" fill="black"/>
</g>
</svg>
