<svg width="25" height="24" viewBox="0 0 25 24" fill="none" xmlns="http://www.w3.org/2000/svg">
<g id="1210">
<path id="Vector" d="M22.4062 14.87V22H14.4062V16H10.4062V22H2.40625V14.87C2.40625 14.33 2.69625 13.83 3.16625 13.57L9.06625 10.2C9.28625 10.07 9.54625 10 9.80625 10H12.9062V9H14.4062V10H14.9963C15.2563 10 15.5162 10.07 15.7362 10.2L21.6362 13.57C22.1162 13.84 22.4062 14.33 22.4062 14.87ZM8.26625 6.25H9.80625C11.1362 6.25 12.3263 6.95 12.9062 8H14.4062C14.0062 6.2 12.4063 4.85 10.5063 4.85V3.35C11.5063 3.35 12.3562 2.5 12.3562 1.5V1H8.26625V2.5C7.26625 2.5 6.40625 3.23 6.40625 4.25C6.40625 5.27 7.26625 6.25 8.26625 6.25Z" fill="black"/>
</g>
</svg>
