<svg width="25" height="24" viewBox="0 0 25 24" fill="none" xmlns="http://www.w3.org/2000/svg">
<g id="1211">
<path id="Vector" d="M16.7062 10.58C13.5462 10.58 11.0063 13.13 11.0063 16.28C11.0063 19.43 13.5562 22 16.7062 22C19.8562 22 22.4062 19.43 22.4062 16.28C22.4062 13.13 19.8562 10.58 16.7062 10.58ZM18.4062 19.08H13.5962L16.2163 15H13.7163L14.8062 13.23H19.5863L17.0362 17.28H19.5863L18.4062 19.08ZM16.7062 3.93V2C8.81625 2 2.40625 8.42 2.40625 16.31H4.32625C4.34625 9.46 9.90625 3.93 16.7062 3.93ZM16.7062 7.74V5.82C10.9062 5.82 6.21625 10.53 6.21625 16.31H8.13625C8.15625 11.58 11.9962 7.74 16.7062 7.74Z" fill="black"/>
</g>
</svg>
