<svg width="25" height="24" viewBox="0 0 25 24" fill="none" xmlns="http://www.w3.org/2000/svg">
<g id="1212">
<path id="Vector" d="M11.6844 9.81C11.6844 9.81 11.6844 7 14.4944 7H22.9044C22.9044 7 22.9044 9.81 20.1144 9.81H11.6844ZM11.6844 13.41C11.6844 13.41 11.6844 10.6 14.4944 10.6H18.7144C18.7144 10.6 18.7144 13.41 15.9044 13.41H11.6844ZM11.6844 17C11.6844 17 11.6844 14.19 14.4944 14.19H15.9044C15.9044 14.19 15.9044 17 13.0844 17H11.6844ZM10.8644 14.8V17H1.98438L7.70438 9.21H2.80437V7H12.0644L6.36438 14.8H10.8644Z" fill="black"/>
</g>
</svg>
