<svg width="25" height="24" viewBox="0 0 25 24" fill="none" xmlns="http://www.w3.org/2000/svg">
<g id="1213">
<path id="Vector" d="M15.4131 12.4101L12.4131 9.41009L9.41313 12.4101L6.41313 9.41009L4.12313 11.7101L2.70312 10.2901L6.41313 6.59009L9.41313 9.59009L12.4131 6.59009L15.4131 9.59009L18.4131 6.59009L22.1231 10.2901L20.7031 11.7101L18.4131 9.41009L15.4131 12.4101ZM18.4131 15.4101L20.7031 17.7101L22.1231 16.2901L18.4131 12.5901L15.4131 15.5901L12.4131 12.5901L9.41313 15.5901L6.41313 12.5901L2.70312 16.2901L4.12313 17.7101L6.41313 15.4101L9.41313 18.4101L12.4131 15.4101L15.4131 18.4101L18.4131 15.4101Z" fill="black"/>
</g>
</svg>
