<svg width="25" height="24" viewBox="0 0 25 24" fill="none" xmlns="http://www.w3.org/2000/svg">
<g id="1214">
<path id="Vector" d="M7.40625 3L3.40625 5V19C3.40625 19.5304 3.61696 20.0391 3.99204 20.4142C4.36711 20.7893 4.87582 21 5.40625 21H19.4062C19.9367 21 20.4454 20.7893 20.8205 20.4142C21.1955 20.0391 21.4062 19.5304 21.4062 19V5L17.4062 3V5C17.4062 5.26522 17.3009 5.51957 17.1134 5.70711C16.9258 5.89464 16.6715 6 16.4062 6H10.4062C10.141 6 9.88668 5.89464 9.69914 5.70711C9.51161 5.51957 9.40625 5.26522 9.40625 5V3H7.40625ZM8.40625 10H16.4062C16.6715 10 16.9258 10.1054 17.1134 10.2929C17.3009 10.4804 17.4062 10.7348 17.4062 11V19H7.40625V11C7.40625 10.7348 7.51161 10.4804 7.69914 10.2929C7.88668 10.1054 8.14103 10 8.40625 10Z" fill="black"/>
</g>
</svg>
