<svg width="25" height="24" viewBox="0 0 25 24" fill="none" xmlns="http://www.w3.org/2000/svg">
<g id="1215">
<path id="Vector" d="M12.4062 17V15H14.4062V17H12.4062ZM14.4062 13V11H12.4062V13H14.4062ZM14.4062 9V7H12.4062V9H14.4062ZM10.4062 11H12.4062V9H10.4062V11ZM10.4062 15H12.4062V13H10.4062V15ZM21.4062 5V19C21.4062 20.1 20.5063 21 19.4062 21H5.40625C4.30625 21 3.40625 20.1 3.40625 19V5C3.40625 3.9 4.30625 3 5.40625 3H19.4062C20.5063 3 21.4062 3.9 21.4062 5ZM19.4062 5H12.4062V7H10.4062V5H5.40625V19H19.4062V5Z" fill="black"/>
</g>
</svg>
