<svg width="25" height="24" viewBox="0 0 25 24" fill="none" xmlns="http://www.w3.org/2000/svg">
<g id="1216">
<path id="Vector" d="M14.4062 17H12.4062V15H10.4062V13H12.4062V15H14.4062M14.4062 9H12.4062V11H14.4062V13H12.4062V11H10.4062V9H12.4062V7H10.4062V5H12.4062V7H14.4062M19.4062 3H5.40625C4.29625 3 3.40625 3.89 3.40625 5V19C3.40625 19.5304 3.61696 20.0391 3.99204 20.4142C4.36711 20.7893 4.87582 21 5.40625 21H19.4062C19.9367 21 20.4454 20.7893 20.8205 20.4142C21.1955 20.0391 21.4062 19.5304 21.4062 19V5C21.4062 3.89 20.5063 3 19.4062 3Z" fill="black"/>
</g>
</svg>
