<svg width="25" height="24" viewBox="0 0 25 24" fill="none" xmlns="http://www.w3.org/2000/svg">
<g id="1217">
<path id="Vector" d="M4.46625 6.15C4.37625 6.17 4.28625 6.22 4.20625 6.28C3.06625 7.9 2.40625 9.87 2.40625 12C2.40625 14.6522 3.45982 17.1957 5.33518 19.0711C6.26377 19.9997 7.36616 20.7362 8.57942 21.2388C9.79267 21.7413 11.093 22 12.4062 22C15.4062 22 18.0862 20.68 19.9062 18.6L17.4062 18.85C14.6562 19.15 11.8562 19.19 9.06625 18.96C8.35625 18.94 7.64625 18.76 6.99625 18.45C6.13625 18.06 5.55625 17.23 5.47625 16.29C5.46625 16.13 5.52625 16 5.63625 15.87L7.82625 13.6L15.4362 5.7V5.6H11.2463C8.97625 5.64 6.71625 5.82 4.46625 6.15ZM20.5763 17.5C20.6663 17.47 20.7563 17.44 20.8363 17.39C21.8263 15.83 22.4062 14 22.4062 12C22.4062 10.6868 22.1476 9.38642 21.645 8.17317C21.1425 6.95991 20.4059 5.85752 19.4773 4.92893C18.5487 4.00035 17.4463 3.26375 16.2331 2.7612C15.0198 2.25866 13.7195 2 12.4062 2C9.62625 2 7.10625 3.13 5.29625 4.97H5.57625C8.68625 4.57 11.8363 4.47 14.9663 4.65C15.9063 4.64 16.8562 4.82 17.7362 5.17C18.6562 5.53 19.2963 6.38 19.4062 7.37C19.4062 7.53 19.3362 7.7 19.2262 7.82L10.1163 17.19L9.40625 17.95V18.06H13.5463C15.9063 18 18.2463 17.81 20.5763 17.5Z" fill="black"/>
</g>
</svg>
