<svg width="25" height="24" viewBox="0 0 25 24" fill="none" xmlns="http://www.w3.org/2000/svg">
<g id="1218">
<path id="Vector" d="M16.4062 2C15.3563 2 14.3163 2.27 13.4062 2.81C13.0462 3 12.7063 3.26 12.4062 3.54C12.1062 3.26 11.7663 3 11.4062 2.81C10.4962 2.27 9.45625 2 8.40625 2C6.81495 2 5.28883 2.63214 4.16361 3.75736C3.03839 4.88258 2.40625 6.4087 2.40625 8C2.40625 9.5913 3.03839 11.1174 4.16361 12.2426C5.28883 13.3679 6.81495 14 8.40625 14V12C7.34538 12 6.32797 11.5786 5.57782 10.8284C4.82768 10.0783 4.40625 9.06087 4.40625 8C4.40625 6.93913 4.82768 5.92172 5.57782 5.17157C6.32797 4.42143 7.34538 4 8.40625 4C9.40625 4 10.4062 4.39 11.1562 5.1C11.2463 5.18 11.3263 5.27 11.4062 5.36V22H13.4062V5.36C13.4862 5.27 13.5662 5.18 13.6562 5.1C15.2563 3.58 17.7862 3.64 19.3162 5.25C20.8362 6.85 20.7663 9.38 19.1663 10.9C18.4063 11.61 17.4362 12 16.4062 12V14C17.9975 14 19.5237 13.3679 20.6489 12.2426C21.7741 11.1174 22.4062 9.5913 22.4062 8C22.4062 6.4087 21.7741 4.88258 20.6489 3.75736C19.5237 2.63214 17.9975 2 16.4062 2Z" fill="black"/>
</g>
</svg>
