<svg width="25" height="24" viewBox="0 0 25 24" fill="none" xmlns="http://www.w3.org/2000/svg">
<g id="1219">
<path id="Vector" d="M12.4062 4.00008C6.90625 4.00008 2.40625 7.58008 2.40625 12.0001C2.40625 14.1201 4.05625 15.8701 6.16625 16.0001H6.40625C7.46712 16.0001 8.48453 15.5787 9.23468 14.8285C9.98482 14.0784 10.4062 13.0609 10.4062 12.0001C10.4062 10.9392 9.98482 9.9218 9.23468 9.17165C8.48453 8.42151 7.46712 8.00008 6.40625 8.00008H6.16625C7.84625 6.41008 10.0963 5.55008 12.4062 5.60008C14.1762 5.58008 15.9062 6.07008 17.4062 7.00008L18.6562 5.75008C16.7862 4.58008 14.6163 3.97008 12.4062 4.00008ZM6.40625 10.0001C6.93668 10.0001 7.44539 10.2108 7.82046 10.5859C8.19554 10.9609 8.40625 11.4696 8.40625 12.0001C8.40625 13.1101 7.48625 14.0001 6.40625 14.0001C5.36625 14.0001 4.50625 13.2201 4.40625 12.2001C4.40625 12.0701 4.40625 11.9301 4.40625 11.8001C4.50625 10.7701 5.37625 10.0001 6.40625 10.0001ZM18.6462 8.00008H18.4062C17.3454 8.00008 16.328 8.42151 15.5778 9.17165C14.8277 9.9218 14.4063 10.9392 14.4062 12.0001C14.4063 13.0609 14.8277 14.0784 15.5778 14.8285C16.328 15.5787 17.3454 16.0001 18.4062 16.0001H18.6462C16.9662 17.5901 14.7162 18.4501 12.4062 18.4001C10.6363 18.4201 8.90625 17.9301 7.40625 17.0001L6.16625 18.2401C8.03625 19.4101 10.1962 20.0001 12.4062 20.0001C17.9062 20.0001 22.4062 16.4201 22.4062 12.0001C22.4062 9.88008 20.7562 8.13008 18.6462 8.00008ZM18.4062 14.0001C17.8758 14.0001 17.3671 13.7894 16.992 13.4143C16.617 13.0392 16.4062 12.5305 16.4062 12.0001C16.4062 10.8901 17.3262 10.0001 18.4062 10.0001C19.4462 10.0001 20.3062 10.7801 20.4062 11.8001C20.4062 11.9301 20.4062 12.0701 20.4062 12.2001C20.3062 13.2301 19.4362 14.0001 18.4062 14.0001Z" fill="black"/>
</g>
</svg>
