<svg width="25" height="24" viewBox="0 0 25 24" fill="none" xmlns="http://www.w3.org/2000/svg">
<g id="122">
<path id="Vector" d="M2.41016 4.77L3.69016 3.5L21.4102 21.22L20.1402 22.5L18.4102 20.76C18.1202 20.93 17.7902 21 17.4402 21C17.4402 21.58 16.9702 22 16.4102 22C15.9102 22 15.4102 21.58 15.4102 21H9.41016C9.41016 21.58 8.91016 22 8.41016 22C7.85016 22 7.38016 21.58 7.38016 21C6.30016 21 5.41016 20.13 5.41016 19V7.77L2.41016 4.77ZM17.4402 6C18.5202 6 19.4102 6.88 19.4102 8V16.68L16.4102 13.68V9H14.9102V12.18L13.1602 10.43V9H11.7302L8.72016 6H9.41016V3C9.41016 2.42 9.87016 2 10.4102 2H14.4102C14.9502 2 15.4102 2.42 15.4102 3V6H17.4402ZM8.41016 18H9.91016V12.27L8.41016 10.77V18ZM11.6602 18H13.1602V15.5L11.6602 14V18ZM14.9102 18H15.6402L14.9102 17.27V18ZM13.9102 6V3.5H10.9102V6H13.9102Z" fill="black"/>
</g>
</svg>
