<svg width="25" height="24" viewBox="0 0 25 24" fill="none" xmlns="http://www.w3.org/2000/svg">
<g id="1220">
<path id="Vector" d="M15.4062 13C14.7063 13 14.0163 13.19 13.4062 13.55V6C13.4062 5.20435 13.0902 4.44129 12.5276 3.87868C11.965 3.31607 11.2019 3 10.4062 3C9.65625 3 8.95625 3.29 8.40625 3.78C7.85625 3.28 7.14625 3 6.40625 3V5C6.67147 5 6.92582 5.10536 7.11336 5.29289C7.30089 5.48043 7.40625 5.73478 7.40625 6V16H9.40625V6C9.40625 5.73478 9.51161 5.48043 9.69914 5.29289C9.88668 5.10536 10.141 5 10.4062 5C10.6715 5 10.9258 5.10536 11.1134 5.29289C11.3009 5.48043 11.4062 5.73478 11.4062 6V17C11.4062 17.5304 11.1955 18.0391 10.8205 18.4142C10.4454 18.7893 9.93668 19 9.40625 19V21C10.5562 21 11.6562 20.5 12.4062 19.62C13.8563 21.29 16.3762 21.47 18.0462 20C19.7162 18.58 19.9063 16.05 18.4463 14.38C17.6863 13.5 16.5762 13 15.4062 13ZM15.4062 19C14.8758 19 14.3671 18.7893 13.992 18.4142C13.617 18.0391 13.4062 17.5304 13.4062 17C13.4062 16.4696 13.617 15.9609 13.992 15.5858C14.3671 15.2107 14.8758 15 15.4062 15C15.9367 15 16.4454 15.2107 16.8205 15.5858C17.1955 15.9609 17.4062 16.4696 17.4062 17C17.4062 17.5304 17.1955 18.0391 16.8205 18.4142C16.4454 18.7893 15.9367 19 15.4062 19Z" fill="black"/>
</g>
</svg>
