<svg width="25" height="24" viewBox="0 0 25 24" fill="none" xmlns="http://www.w3.org/2000/svg">
<g id="1221">
<path id="Vector" d="M18.4088 5.29989C19.7588 4.96989 21.0688 4.53989 22.3488 3.99989L21.5888 2.13989C18.6788 3.35989 15.5588 3.99989 12.4088 3.99989C9.25875 3.99989 6.13875 3.37989 3.22875 2.16989L2.46875 3.99989C3.74875 4.53989 5.05875 4.96989 6.40875 5.29989V18.6999C5.05875 19.0299 3.74875 19.4599 2.46875 19.9999L3.22875 21.8599C9.10875 19.4199 15.7088 19.4199 21.5888 21.8599L22.3488 19.9999C21.0688 19.4599 19.7588 19.0299 18.4088 18.6999V5.29989ZM8.40875 18.2999V5.68989C9.72875 5.88989 11.0688 5.99989 12.4088 5.99989C13.7488 5.99989 15.0888 5.88989 16.4088 5.68989V18.3099C13.7588 17.8999 11.0588 17.8999 8.40875 18.3099V18.2999Z" fill="black"/>
</g>
</svg>
