<svg width="25" height="24" viewBox="0 0 25 24" fill="none" xmlns="http://www.w3.org/2000/svg">
<g id="1222">
<path id="Vector" d="M20.4136 17C20.4136 17.7956 20.0975 18.5587 19.5349 19.1213C18.9723 19.6839 18.2092 20 17.4136 20C15.7936 19.92 14.4936 18.62 14.4136 17C14.5736 15.39 14.9136 13.8 15.4136 12.26C15.9536 10.55 16.2836 8.79 16.4136 7C16.3436 4.27 14.1436 2.07 11.4136 2C8.68356 2.07 6.48356 4.27 6.41356 7C6.56356 8.53 6.91356 10.03 7.41356 11.5L7.62356 12.2C5.51356 11.53 3.27356 12.7 2.60356 14.8C1.91356 16.91 3.09356 19.16 5.20356 19.83C7.31356 20.5 9.55356 19.33 10.2236 17.22C10.3536 16.83 10.4136 16.41 10.4136 16C10.2536 14.27 9.91355 12.56 9.32355 10.92C8.88355 9.65 8.57356 8.34 8.41356 7C8.49356 5.38 9.79356 4.08 11.4136 4C13.0336 4.08 14.3336 5.38 14.4136 7C14.2536 8.61 13.9136 10.2 13.4136 11.74C12.8736 13.45 12.5436 15.21 12.4136 17C12.4836 19.73 14.6836 21.93 17.4136 22C18.7396 22 20.0114 21.4732 20.9491 20.5355C21.8868 19.5979 22.4136 18.3261 22.4136 17H20.4136ZM6.41356 18C5.88312 18 5.37441 17.7893 4.99934 17.4142C4.62427 17.0391 4.41356 16.5304 4.41356 16C4.41356 15.4696 4.62427 14.9609 4.99934 14.5858C5.37441 14.2107 5.88312 14 6.41356 14C6.94399 14 7.4527 14.2107 7.82777 14.5858C8.20284 14.9609 8.41356 15.4696 8.41356 16C8.41356 16.5304 8.20284 17.0391 7.82777 17.4142C7.4527 17.7893 6.94399 18 6.41356 18Z" fill="black"/>
</g>
</svg>
