<svg width="25" height="24" viewBox="0 0 25 24" fill="none" xmlns="http://www.w3.org/2000/svg">
<g id="1223">
<path id="Vector" d="M15.9984 9C18.1084 7.74 19.4084 5.46 19.4084 3H17.4084C17.4084 4.32608 16.8817 5.59785 15.944 6.53553C15.0063 7.47322 13.7345 8 12.4084 8C11.0824 8 9.81059 7.47322 8.87291 6.53553C7.93522 5.59785 7.40844 4.32608 7.40844 3H5.40844C5.40844 5.46 6.70844 7.74 8.81844 9C5.49844 11 4.40844 15.28 6.40844 18.6C8.37844 21.92 12.6784 23 15.9984 21C19.3184 19.04 20.4084 14.74 18.4084 11.42C17.8284 10.43 16.9884 9.59 15.9984 9ZM12.4084 20C11.0824 20 9.81059 19.4732 8.87291 18.5355C7.93522 17.5979 7.40844 16.3261 7.40844 15C7.40844 13.6739 7.93522 12.4021 8.87291 11.4645C9.81059 10.5268 11.0824 10 12.4084 10C13.7345 10 15.0063 10.5268 15.944 11.4645C16.8817 12.4021 17.4084 13.6739 17.4084 15C17.4084 16.3261 16.8817 17.5979 15.944 18.5355C15.0063 19.4732 13.7345 20 12.4084 20Z" fill="black"/>
</g>
</svg>
