<svg width="25" height="24" viewBox="0 0 25 24" fill="none" xmlns="http://www.w3.org/2000/svg">
<g id="1224">
<path id="Vector" d="M18.1162 15.29L16.6963 16.71L17.9963 18H16.4062C15.8758 18 15.3671 17.7893 14.992 17.4142C14.617 17.0391 14.4062 16.5304 14.4062 16V6C14.4062 5.20435 14.0902 4.44129 13.5276 3.87868C12.965 3.31607 12.2019 3 11.4062 3C10.6562 3 9.95625 3.29 9.40625 3.78C8.26625 2.76 6.54625 2.76 5.40625 3.78C4.85625 3.28 4.14625 3 3.40625 3V5C3.67147 5 3.92582 5.10536 4.11336 5.29289C4.30089 5.48043 4.40625 5.73478 4.40625 6V16H6.40625V6C6.40625 5.73478 6.51161 5.48043 6.69914 5.29289C6.88668 5.10536 7.14103 5 7.40625 5C7.67147 5 7.92582 5.10536 8.11336 5.29289C8.30089 5.48043 8.40625 5.73478 8.40625 6V16H10.4062V6C10.4062 5.73478 10.5116 5.48043 10.6991 5.29289C10.8867 5.10536 11.141 5 11.4062 5C11.6715 5 11.9258 5.10536 12.1134 5.29289C12.3009 5.48043 12.4062 5.73478 12.4062 6V16C12.4063 17.0609 12.8277 18.0783 13.5778 18.8284C14.328 19.5786 15.3454 20 16.4062 20H17.9963L16.6963 21.29L18.1162 22.71L21.8162 19L18.1162 15.29Z" fill="black"/>
</g>
</svg>
