<svg width="25" height="24" viewBox="0 0 25 24" fill="none" xmlns="http://www.w3.org/2000/svg">
<g id="1226">
<path id="Vector" d="M20.4062 11.0001H18.4062C18.5162 8.19006 19.1362 5.42006 20.2162 2.82006L18.4062 2.06006C17.2162 4.90006 16.5362 7.92006 16.4062 11.0001H8.40625C8.27625 7.92006 7.59625 4.90006 6.40625 2.06006L4.54625 2.82006C5.64625 5.41006 6.27625 8.18006 6.40625 11.0001H4.40625V13.0001H6.40625C6.29625 15.8101 5.67625 18.5801 4.59625 21.1801L6.40625 21.9401C7.59625 19.1001 8.27625 16.0801 8.40625 13.0001H16.4062C16.5362 16.0801 17.2162 19.1001 18.4062 21.9401L20.2663 21.1801C19.1663 18.5901 18.5362 15.8201 18.4062 13.0001H20.4062V11.0001Z" fill="black"/>
</g>
</svg>
