<svg width="25" height="24" viewBox="0 0 25 24" fill="none" xmlns="http://www.w3.org/2000/svg">
<g id="1227">
<path id="Vector" d="M20.4062 16V18H13.4062V15.91C16.4062 15.36 18.3662 12.5 17.8162 9.5C17.2662 6.5 14.4062 4.54 11.4062 5.09C8.40625 5.65 6.44625 8.5 6.99625 11.5C7.40625 13.74 9.16625 15.5 11.4062 15.91V18H4.40625V16H7.32625C5.77625 14.59 4.90625 12.59 4.90625 10.5C4.90625 8.51088 5.69643 6.60322 7.10295 5.1967C8.50947 3.79018 10.4171 3 12.4062 3C14.3954 3 16.303 3.79018 17.7096 5.1967C19.1161 6.60322 19.9062 8.51088 19.9062 10.5C19.9062 12.59 19.0362 14.59 17.4862 16H20.4062ZM20.4062 19H4.40625V21H20.4062V19Z" fill="black"/>
</g>
</svg>
