<svg width="25" height="24" viewBox="0 0 25 24" fill="none" xmlns="http://www.w3.org/2000/svg">
<g id="123">
<path id="Vector" d="M17.4402 6C18.5202 6 19.4102 6.88 19.4102 8V19C19.4102 20.13 18.5202 21 17.4402 21C17.4402 21.58 16.9702 22 16.4102 22C15.9102 22 15.4102 21.58 15.4102 21H9.41016C9.41016 21.58 8.91016 22 8.41016 22C7.85016 22 7.38016 21.58 7.38016 21C6.30016 21 5.41016 20.13 5.41016 19V8C5.41016 6.88 6.30016 6 7.38016 6H9.41016V3C9.41016 2.42 9.87016 2 10.4102 2H14.4102C14.9502 2 15.4102 2.42 15.4102 3V6H17.4402ZM13.9102 6V3.5H10.9102V6H13.9102ZM8.41016 9V18H9.91016V9H8.41016ZM14.9102 9V18H16.4102V9H14.9102ZM11.6602 9V18H13.1602V9H11.6602Z" fill="black"/>
</g>
</svg>
