<svg width="25" height="24" viewBox="0 0 25 24" fill="none" xmlns="http://www.w3.org/2000/svg">
<g id="124">
<path id="Vector" d="M10.4102 10V12H8.41016V10H10.4102ZM16.4102 12V10H14.4102V12H16.4102ZM21.4102 14V22H3.41016V14H4.41016V10C4.41016 5.58 7.99016 2 12.4102 2C16.8302 2 20.4102 5.58 20.4102 10V14H21.4102ZM7.41016 16H5.41016V20H7.41016V16ZM11.4102 16H9.41016V20H11.4102V16ZM11.4102 4.08C8.57016 4.56 6.41016 7.03 6.41016 10V14H11.4102V4.08ZM13.4102 14H18.4102V10C18.4102 7.03 16.2502 4.56 13.4102 4.08V14ZM15.4102 16H13.4102V20H15.4102V16ZM19.4102 16H17.4102V20H19.4102V16Z" fill="black"/>
</g>
</svg>
