<svg width="25" height="24" viewBox="0 0 25 24" fill="none" xmlns="http://www.w3.org/2000/svg">
<g id="125">
<path id="Vector" d="M5.41053 22.0001C4.09053 22.0001 3.56053 19.6401 3.45053 18.7001C3.3321 17.7875 3.44206 16.8598 3.77053 16.0001C3.91489 15.591 4.16321 15.2266 4.49107 14.9426C4.81894 14.6585 5.21507 14.4647 5.64053 14.3801C6.81053 14.1801 7.64053 14.8801 8.70053 15.1201C8.89964 15.184 9.11192 15.1952 9.31666 15.1526C9.5214 15.1101 9.71162 15.0152 9.86874 14.8772C10.0259 14.7392 10.1446 14.5628 10.2132 14.3653C10.2819 14.1678 10.2982 13.9558 10.2605 13.7501C9.82053 12.0301 6.69053 12.0001 5.41053 12.0001C5.41053 10.1401 7.45053 9.90011 8.91053 10.0401C9.77666 10.1238 10.6295 10.3118 11.4505 10.6001C11.9505 10.7701 12.5305 11.2001 13.0805 11.1601C13.9105 11.0901 14.0805 10.2301 13.7205 9.60011C12.8505 8.12011 10.3805 8.00011 8.91053 8.00011C8.91053 6.00011 10.6405 5.62011 12.3005 5.92011C13.1577 6.08868 13.993 6.3537 14.7905 6.71011C15.3005 6.93011 15.9105 7.35011 16.4705 7.16011C17.9105 6.72011 16.4105 5.18011 15.7705 4.81011C15.3213 4.56224 14.8448 4.36759 14.3505 4.23011C13.8105 4.07011 13.1505 4.13011 13.6405 3.50011C14.4067 2.82412 15.3573 2.39234 16.3705 2.26011C18.2605 1.82011 20.8705 1.74011 21.3305 4.12011C21.4838 5.37666 21.1823 6.64657 20.4805 7.70011C18.6175 10.8867 16.3112 13.7925 13.6305 16.3301C12.2107 17.7856 10.672 19.1202 9.03053 20.3201C8.03053 21.0401 6.71053 22.0001 5.41053 22.0001Z" fill="black"/>
</g>
</svg>
