<svg width="25" height="24" viewBox="0 0 25 24" fill="none" xmlns="http://www.w3.org/2000/svg">
<g id="127">
<path id="Vector" d="M6.20016 12.79L2.41016 9C2.41016 9 6.41016 3 12.4102 3C18.4102 3 22.4102 9 22.4102 9L18.6202 12.79L12.4102 6.59L6.20016 12.79ZM13.9102 18H10.9102V20L12.4102 21L13.9102 20V18ZM17.2002 14.21L14.6102 16.8C14.0102 16.31 13.2502 16 12.4102 16C11.5702 16 10.8102 16.31 10.2102 16.8L7.62016 14.21L12.4102 9.41L17.2002 14.21ZM13.4102 14C13.4102 13.45 12.9602 13 12.4102 13C11.8602 13 11.4102 13.45 11.4102 14C11.4102 14.55 11.8602 15 12.4102 15C12.9602 15 13.4102 14.55 13.4102 14Z" fill="black"/>
</g>
</svg>
