<svg width="25" height="24" viewBox="0 0 25 24" fill="none" xmlns="http://www.w3.org/2000/svg">
<g id="128">
<path id="Vector" d="M12.4102 2C5.41016 2 1.41016 9 1.41016 9L9.71016 17.3C10.1502 16.77 10.7302 16.37 11.4102 16.17L8.24016 13L12.4102 8.83L16.5802 13L13.4102 16.17C14.0902 16.37 14.6802 16.77 15.1102 17.3L23.4102 9C23.4102 9 19.4102 2 12.4102 2ZM18.0002 11.59L12.4102 6L6.82016 11.59L4.00016 8.76C5.36016 7 8.30016 4 12.4102 4C16.4902 4 19.4402 7 20.8102 8.77L18.0002 11.59ZM13.4102 13C13.4102 13.55 12.9602 14 12.4102 14C11.8602 14 11.4102 13.55 11.4102 13C11.4102 12.45 11.8602 12 12.4102 12C12.9602 12 13.4102 12.45 13.4102 13ZM13.9102 20L12.4102 21L10.9102 20V18H13.9102V20Z" fill="black"/>
</g>
</svg>
