<svg width="25" height="24" viewBox="0 0 25 24" fill="none" xmlns="http://www.w3.org/2000/svg">
<g id="129">
<path id="Vector" d="M5.41016 9H7.72016L8.04016 6H10.0402L9.72016 9H11.7202L12.0402 6H14.0402L13.7202 9H15.4102V11H13.5102L13.3102 13H15.4102V15H13.1002L12.7802 18H10.7802L11.1002 15H9.10016L8.78016 18H6.78016L7.10016 15H5.41016V13H7.31016L7.51016 11H5.41016V9ZM9.51016 11L9.31016 13H11.3102L11.5102 11M19.4102 6H17.4102V14H19.4102M19.4102 16H17.4102V18H19.4102V16Z" fill="black"/>
</g>
</svg>
