<svg width="25" height="24" viewBox="0 0 25 24" fill="none" xmlns="http://www.w3.org/2000/svg">
<g id="13">
<path id="Vector" d="M15.4102 4C16.471 4 17.4884 4.42143 18.2386 5.17157C18.9887 5.92172 19.4102 6.93913 19.4102 8C19.4102 9.06087 18.9887 10.0783 18.2386 10.8284C17.4884 11.5786 16.471 12 15.4102 12C14.3493 12 13.3319 11.5786 12.5817 10.8284C11.8316 10.0783 11.4102 9.06087 11.4102 8C11.4102 6.93913 11.8316 5.92172 12.5817 5.17157C13.3319 4.42143 14.3493 4 15.4102 4ZM15.4102 5.9C14.8532 5.9 14.3191 6.12125 13.9252 6.51508C13.5314 6.9089 13.3102 7.44305 13.3102 8C13.3102 8.55695 13.5314 9.0911 13.9252 9.48492C14.3191 9.87875 14.8532 10.1 15.4102 10.1C16.5702 10.1 17.5102 9.16 17.5102 8C17.5102 6.84 16.5702 5.9 15.4102 5.9ZM15.4102 13C18.0802 13 23.4102 14.33 23.4102 17V20H7.41016V17C7.41016 14.33 12.7402 13 15.4102 13ZM15.4102 14.9C12.4102 14.9 9.31016 16.36 9.31016 17V18.1H21.5102V17C21.5102 16.36 18.3802 14.9 15.4102 14.9ZM5.41016 13.28L2.91016 14.77L3.59016 11.96L1.41016 10.08L4.28016 9.83L5.41016 7.19L6.52016 9.83L9.41016 10.08L7.21016 11.96L7.86016 14.77L5.41016 13.28Z" fill="black"/>
</g>
</svg>
