<svg width="25" height="24" viewBox="0 0 25 24" fill="none" xmlns="http://www.w3.org/2000/svg">
<g id="130">
<path id="Vector" d="M5.91016 21C5.13016 21 4.45016 20.55 4.12016 19.9L1.51016 10.44L1.41016 10C1.41016 9.73478 1.51551 9.48043 1.70305 9.29289C1.89059 9.10536 2.14494 9 2.41016 9H6.99016L11.5902 2.43C11.7702 2.17 12.0702 2 12.4102 2C12.7502 2 13.0602 2.17 13.2402 2.44L17.8302 9H22.4102C22.6754 9 22.9297 9.10536 23.1173 9.29289C23.3048 9.48043 23.4102 9.73478 23.4102 10L23.3702 10.29L20.7002 19.9C20.3702 20.55 19.6902 21 18.9102 21H5.91016ZM12.4102 4.74L9.41016 9H15.4102L12.4102 4.74ZM12.4102 13C11.8797 13 11.371 13.2107 10.9959 13.5858C10.6209 13.9609 10.4102 14.4696 10.4102 15C10.4102 15.5304 10.6209 16.0391 10.9959 16.4142C11.371 16.7893 11.8797 17 12.4102 17C12.9406 17 13.4493 16.7893 13.8244 16.4142C14.1994 16.0391 14.4102 15.5304 14.4102 15C14.4102 14.4696 14.1994 13.9609 13.8244 13.5858C13.4493 13.2107 12.9406 13 12.4102 13Z" fill="black"/>
</g>
</svg>
