<svg width="25" height="24" viewBox="0 0 25 24" fill="none" xmlns="http://www.w3.org/2000/svg">
<g id="131">
<path id="Vector" d="M22.0402 16.27L18.1702 20.17L16.8202 18.8L15.4102 20.22L18.1602 23L23.4402 17.68L22.0402 16.27ZM13.4102 20C13.4102 16.69 16.1002 14 19.4102 14C20.4102 14 21.3302 14.24 22.1502 14.67L23.3702 10.29L23.4102 10C23.4102 9.45 22.9602 9 22.4102 9H17.8302L13.2402 2.44C13.0602 2.17 12.7502 2 12.4102 2C12.0702 2 11.7702 2.17 11.5902 2.43L6.99016 9H2.41016C1.86016 9 1.41016 9.45 1.41016 10L1.51016 10.44L4.12016 19.9C4.45016 20.55 5.13016 21 5.91016 21H13.5002C13.4502 20.67 13.4102 20.34 13.4102 20ZM12.4102 4.74L15.4102 9H9.41016L12.4102 4.74ZM10.4102 15C10.4102 13.9 11.3102 13 12.4102 13C13.5102 13 14.4102 13.9 14.4102 15C14.4102 16.1 13.5202 17 12.4102 17C11.3002 17 10.4102 16.11 10.4102 15Z" fill="black"/>
</g>
</svg>
