<svg width="25" height="24" viewBox="0 0 25 24" fill="none" xmlns="http://www.w3.org/2000/svg">
<g id="132">
<path id="Vector" d="M23.4102 9.99998L23.3702 10.29L21.3102 17.7L12.6102 8.99998H15.4102L12.4102 4.73998L10.7302 7.11998L9.30016 5.68998L11.5902 2.42998C11.7702 2.16998 12.0702 1.99998 12.4102 1.99998C12.7502 1.99998 13.0602 2.16998 13.2402 2.43998L17.8302 8.99998H22.4102C22.9602 8.99998 23.4102 9.44998 23.4102 9.99998ZM22.5202 21.46L21.2502 22.73L19.4402 20.92C19.2702 20.97 19.0902 21 18.9102 21H5.91016C5.13016 21 4.45016 20.55 4.12016 19.9L1.51016 10.44L1.41016 9.99998C1.41016 9.44998 1.86016 8.99998 2.41016 8.99998H6.99016L7.21016 8.68998L1.52016 2.99998L2.80016 1.72998L22.5202 21.46ZM14.2602 15.74L11.6702 13.15C10.9102 13.44 10.4102 14.16 10.4102 15C10.4102 16.11 11.3102 17 12.4102 17C13.2502 17 13.9702 16.5 14.2602 15.74Z" fill="black"/>
</g>
</svg>
