<svg width="25" height="24" viewBox="0 0 25 24" fill="none" xmlns="http://www.w3.org/2000/svg">
<g id="133">
<path id="Vector" d="M23.4102 18V20H15.4102V18H23.4102ZM12.4102 13C11.3102 13 10.4102 13.9 10.4102 15C10.4102 16.1 11.3102 17 12.4102 17C13.5102 17 14.4102 16.1 14.4102 15C14.4102 13.9 13.5102 13 12.4102 13ZM13.7602 21H5.91016C4.99016 21 4.22016 20.38 3.99016 19.54L1.45016 10.27C1.41016 10.18 1.41016 10.09 1.41016 10C1.41016 9.45 1.86016 9 2.41016 9H7.20016L11.5802 2.45C11.7702 2.16 12.0902 2 12.4102 2C12.7302 2 13.0502 2.16 13.2402 2.44L17.6202 9H22.4102C22.9602 9 23.4102 9.45 23.4102 10L23.3802 10.27L22.4102 13.81C21.8402 13.5 21.2002 13.24 20.5302 13.11L21.1102 11H3.72016L5.91016 19H13.4102C13.4102 19.7 13.5402 20.37 13.7602 21ZM9.61016 9H15.2102L12.4102 4.8L9.61016 9Z" fill="black"/>
</g>
</svg>
