<svg width="25" height="24" viewBox="0 0 25 24" fill="none" xmlns="http://www.w3.org/2000/svg">
<g id="134">
<path id="Vector" d="M23.4102 18V20H15.4102V18H23.4102ZM23.4102 10L23.3702 10.29L22.4102 13.8C21.5202 13.29 20.5002 13 19.4102 13C16.1002 13 13.4102 15.69 13.4102 19C13.4102 19.7 13.5402 20.37 13.7602 21H5.91016C5.13016 21 4.45016 20.55 4.12016 19.9L1.51016 10.44L1.41016 10C1.41016 9.45 1.86016 9 2.41016 9H6.99016L11.5902 2.43C11.7702 2.17 12.0702 2 12.4102 2C12.7502 2 13.0602 2.17 13.2402 2.44L17.8302 9H22.4102C22.9602 9 23.4102 9.45 23.4102 10ZM14.4102 15C14.4102 13.9 13.5202 13 12.4102 13C11.3002 13 10.4102 13.9 10.4102 15C10.4102 16.1 11.3102 17 12.4102 17C13.5102 17 14.4102 16.11 14.4102 15ZM15.4102 9L12.4102 4.74L9.41016 9H15.4102Z" fill="black"/>
</g>
</svg>
