<svg width="25" height="24" viewBox="0 0 25 24" fill="none" xmlns="http://www.w3.org/2000/svg">
<g id="136">
<path id="Vector" d="M22.0402 16.27L18.1702 20.17L16.8202 18.8L15.4102 20.22L18.1602 23L23.4402 17.68L22.0402 16.27ZM14.4102 15C14.4102 16.1 13.5102 17 12.4102 17C11.3102 17 10.4102 16.1 10.4102 15C10.4102 13.9 11.3102 13 12.4102 13C13.5102 13 14.4102 13.9 14.4102 15ZM13.4102 20C13.4102 19.66 13.4502 19.33 13.5002 19H5.91016L3.72016 11H21.1102L20.2702 14.07C20.9502 14.17 21.5902 14.37 22.1702 14.68L23.3802 10.27L23.4102 10C23.4102 9.45 22.9602 9 22.4102 9H17.6202L13.2402 2.44C13.0502 2.16 12.7302 2 12.4102 2C12.0902 2 11.7702 2.16 11.5802 2.45L7.20016 9H2.41016C1.86016 9 1.41016 9.45 1.41016 10C1.41016 10.09 1.41016 10.18 1.45016 10.27L3.99016 19.54C4.22016 20.38 4.99016 21 5.91016 21H13.5002C13.4502 20.67 13.4102 20.34 13.4102 20ZM12.4102 4.8L15.2102 9H9.61016L12.4102 4.8Z" fill="black"/>
</g>
</svg>
