<svg width="25" height="24" viewBox="0 0 25 24" fill="none" xmlns="http://www.w3.org/2000/svg">
<g id="137">
<path id="Vector" d="M2.80016 1.72998L1.52016 2.99998L7.33016 8.80998L7.20016 8.99998H2.41016C1.86016 8.99998 1.41016 9.44998 1.41016 9.99998C1.41016 10.09 1.41016 10.18 1.45016 10.27L3.99016 19.54C4.22016 20.38 4.99016 21 5.91016 21H18.9102C19.0902 21 19.2702 20.96 19.4402 20.92L21.2502 22.73L22.5202 21.46L2.80016 1.72998ZM5.91016 19L3.72016 11H9.52016L11.6702 13.15C10.9102 13.44 10.4102 14.16 10.4102 15C10.4102 16.1 11.3102 17 12.4102 17C13.2502 17 13.9702 16.5 14.2602 15.74L17.5202 19H5.91016ZM23.4102 9.99998L23.3802 10.27L21.3402 17.73L19.7102 16.1L21.1102 11H14.6102L12.6102 8.99998H15.2102L12.4102 4.79998L10.8102 7.19998L9.37016 5.75998L11.5802 2.44998C11.7702 2.15998 12.0902 1.99998 12.4102 1.99998C12.7302 1.99998 13.0502 2.15998 13.2402 2.43998L17.6202 8.99998H22.4102C22.9602 8.99998 23.4102 9.44998 23.4102 9.99998Z" fill="black"/>
</g>
</svg>
