<svg width="25" height="24" viewBox="0 0 25 24" fill="none" xmlns="http://www.w3.org/2000/svg">
<g id="14">
<path id="Vector" d="M16.9102 12C17.2385 12 17.5636 11.9353 17.8669 11.8097C18.1702 11.6841 18.4458 11.4999 18.6779 11.2678C18.9101 11.0356 19.0942 10.76 19.2199 10.4567C19.3455 10.1534 19.4102 9.8283 19.4102 9.5C19.4102 8.83696 19.1468 8.20107 18.6779 7.73223C18.2091 7.26339 17.5732 7 16.9102 7C16.2471 7 15.6112 7.26339 15.1424 7.73223C14.6735 8.20107 14.4102 8.83696 14.4102 9.5C14.4102 9.8283 14.4748 10.1534 14.6005 10.4567C14.7261 10.76 14.9102 11.0356 15.1424 11.2678C15.6112 11.7366 16.2471 12 16.9102 12ZM9.41016 11C10.2058 11 10.9689 10.6839 11.5315 10.1213C12.0941 9.55871 12.4102 8.79565 12.4102 8C12.4102 7.20435 12.0941 6.44129 11.5315 5.87868C10.9689 5.31607 10.2058 5 9.41016 5C8.61451 5 7.85145 5.31607 7.28884 5.87868C6.72623 6.44129 6.41016 7.20435 6.41016 8C6.41016 8.79565 6.72623 9.55871 7.28884 10.1213C7.85145 10.6839 8.61451 11 9.41016 11ZM16.9102 14C15.0802 14 11.4102 14.92 11.4102 16.75V19H22.4102V16.75C22.4102 14.92 18.7402 14 16.9102 14ZM9.41016 13C7.08016 13 2.41016 14.17 2.41016 16.5V19H9.41016V16.75C9.41016 15.9 9.74016 14.41 11.7802 13.28C10.9102 13.1 10.0702 13 9.41016 13Z" fill="black"/>
</g>
</svg>
