<svg width="25" height="24" viewBox="0 0 25 24" fill="none" xmlns="http://www.w3.org/2000/svg">
<g id="143">
<path id="Vector" d="M21.4102 2H3.41016C2.87972 2 2.37102 2.21071 1.99594 2.58579C1.62087 2.96086 1.41016 3.46957 1.41016 4V16C1.41016 16.5304 1.62087 17.0391 1.99594 17.4142C2.37102 17.7893 2.87972 18 3.41016 18H5.41016V14H19.4102V18H21.4102C21.9406 18 22.4493 17.7893 22.8244 17.4142C23.1994 17.0391 23.4102 16.5304 23.4102 16V4C23.4102 3.46957 23.1994 2.96086 22.8244 2.58579C22.4493 2.21071 21.9406 2 21.4102 2ZM17.4102 12H15.4102V9H9.41016V12H7.41016V9C7.41016 8.46957 7.62087 7.96086 7.99594 7.58579C8.37102 7.21071 8.87972 7 9.41016 7H15.4102C15.9406 7 16.4493 7.21071 16.8244 7.58579C17.1994 7.96086 17.4102 8.46957 17.4102 9V12ZM7.41016 16V19.5L8.41016 23L10.4102 21L12.4102 23L14.4102 21L16.4102 23L17.4102 19.5V16H7.41016Z" fill="black"/>
</g>
</svg>
