<svg width="25" height="24" viewBox="0 0 25 24" fill="none" xmlns="http://www.w3.org/2000/svg">
<g id="144">
<path id="Vector" d="M2.75016 14.6301C3.35016 14.4101 3.97016 14.3001 4.63016 14.3001C5.97016 14.3001 7.14016 14.7201 8.14016 15.5601L5.00016 18.7001C3.94016 17.5001 3.19016 16.1301 2.75016 14.6301ZM15.9702 9.80008C17.9402 11.2701 20.0702 11.6301 22.3502 10.8801C22.3802 11.0901 22.4102 11.4701 22.4102 12.0001C22.4102 13.0301 22.1602 14.1801 21.6902 15.4501C21.2202 16.7101 20.6402 17.7301 19.9602 18.5001L13.6302 12.1901L15.9702 9.80008ZM9.18016 16.6401C10.2402 18.1701 10.4602 19.8401 9.83016 21.6601C8.41016 21.2501 7.14016 20.6101 6.08016 19.7301L9.18016 16.6401ZM12.6002 13.2201L18.9102 19.5501C16.7402 21.4501 14.1902 22.2501 11.2902 21.9401C11.5002 21.2801 11.6102 20.5601 11.6102 19.7801C11.6102 19.1601 11.4702 18.4301 11.1902 17.6001C10.9102 16.7701 10.5802 16.0901 10.2102 15.5601L12.6002 13.2201ZM9.22016 14.5001C8.29016 13.6701 7.21016 13.1501 5.99016 12.9101C4.77016 12.6801 3.60016 12.7501 2.47016 13.1301C2.44016 12.9101 2.41016 12.5301 2.41016 12.0001C2.41016 10.9701 2.66016 9.82008 3.13016 8.55008C3.60016 7.29008 4.18016 6.27008 4.86016 5.50008L11.5202 12.1901L9.22016 14.5001ZM15.9702 7.73008C14.6302 6.08008 14.3202 4.28008 15.0402 2.34008C15.6602 2.50008 16.3702 2.80008 17.1702 3.26008C17.9602 3.71008 18.6102 4.16008 19.1102 4.59008L15.9702 7.73008ZM22.0702 9.38008C21.4702 9.59008 20.8502 9.70008 20.1902 9.70008C19.1002 9.70008 18.0502 9.38008 17.0502 8.72008L20.1402 5.67008C21.0202 6.77008 21.6602 8.00008 22.0702 9.38008ZM12.6002 11.1101L5.91016 4.45008C8.08016 2.55008 10.6302 1.75008 13.5402 2.06008C13.3202 2.72008 13.2102 3.44008 13.2102 4.22008C13.2102 4.94008 13.3702 5.75008 13.7002 6.66008C14.0302 7.56008 14.4102 8.28008 14.9102 8.81008L12.6002 11.1101Z" fill="black"/>
</g>
</svg>
