<svg width="25" height="24" viewBox="0 0 25 24" fill="none" xmlns="http://www.w3.org/2000/svg">
<g id="145">
<path id="Vector" d="M3.41016 10H6.41016V7H3.41016V10ZM5.41016 5H8.41016V2H5.41016V5ZM8.41016 10H11.4102V7H8.41016V10ZM17.4102 1L12.4102 6H15.4102V10H19.4102V6H22.4102L17.4102 1ZM7.91016 22C7.13016 22 6.45016 21.55 6.12016 20.9L3.51016 13.44L3.41016 13C3.41016 12.7348 3.51551 12.4804 3.70305 12.2929C3.89059 12.1054 4.14494 12 4.41016 12H20.4102C20.6754 12 20.9297 12.1054 21.1173 12.2929C21.3048 12.4804 21.4102 12.7348 21.4102 13L21.3702 13.29L18.7002 20.9C18.3702 21.55 17.6902 22 16.9102 22H7.91016ZM8.02016 20H16.8002L18.9802 14H5.83016L8.02016 20Z" fill="black"/>
</g>
</svg>
