<svg width="25" height="24" viewBox="0 0 25 24" fill="none" xmlns="http://www.w3.org/2000/svg">
<g id="15">
<path id="Vector" d="M11.4102 4C9.21016 4 7.41016 5.8 7.41016 8C7.41016 10.2 9.21016 12 11.4102 12C13.6102 12 15.4102 10.2 15.4102 8C15.4102 5.8 13.6102 4 11.4102 4ZM11.4102 14C7.01016 14 3.41016 15.8 3.41016 18V20H12.9102C12.6102 19.2 12.4102 18.4 12.4102 17.5C12.4102 16.3 12.7102 15.2 13.3102 14.1C12.7102 14.1 12.1102 14 11.4102 14ZM18.4102 20C17.0102 20 15.9102 18.9 15.9102 17.5C15.9102 17.1 16.0102 16.7 16.2102 16.4L15.1102 15.3C14.7102 15.9 14.4102 16.7 14.4102 17.5C14.4102 19.7 16.2102 21.5 18.4102 21.5V23L20.6102 20.8L18.4102 18.5V20ZM18.4102 13.5V12L16.2102 14.2L18.4102 16.4V15C19.8102 15 20.9102 16.1 20.9102 17.5C20.9102 17.9 20.8102 18.3 20.6102 18.6L21.7102 19.7C22.1102 19.1 22.4102 18.3 22.4102 17.5C22.4102 15.3 20.6102 13.5 18.4102 13.5Z" fill="black"/>
</g>
</svg>
