<svg width="25" height="24" viewBox="0 0 25 24" fill="none" xmlns="http://www.w3.org/2000/svg">
<g id="150">
<path id="Vector" d="M5.41016 2V4H3.71016C3.01016 4 2.41016 4.6 2.41016 5.3V20.6C2.41016 21.4 3.01016 22 3.71016 22H13.0102C13.7102 22 14.3102 21.4 14.3102 20.7V5.3C14.4102 4.6 13.8102 4 13.1102 4H11.4102V2H5.41016ZM19.4102 8V11.8L17.1102 9.5L16.4102 10.2L19.2102 13L16.4102 15.8L17.1102 16.5L19.4102 14.2V18H19.9102L22.8102 15.1L20.6102 13L22.7102 10.9L19.9102 8H19.4102ZM7.41016 8H9.41016V14H7.41016M20.4102 9.9L21.3102 10.8L20.4102 11.8V9.9ZM20.4102 14.2L21.3102 15.1L20.4102 16.1V14.2ZM7.41016 16H9.41016V18H7.41016V16Z" fill="black"/>
</g>
</svg>
