<svg width="25" height="24" viewBox="0 0 25 24" fill="none" xmlns="http://www.w3.org/2000/svg">
<g id="157">
<path id="Vector" d="M5.41016 2V4H3.74016C3.38742 4 3.04913 4.14012 2.7997 4.38955C2.55028 4.63897 2.41016 4.97726 2.41016 5.33V20.67C2.41016 21.4 3.01016 22 3.74016 22H13.0802C13.8102 22 14.4102 21.4 14.4102 20.67V5.33C14.4102 4.97726 14.27 4.63897 14.0206 4.38955C13.7712 4.14012 13.4329 4 13.0802 4H11.4102V2H5.41016ZM19.4102 8V11.79L17.1202 9.5L16.4102 10.21L19.2002 13L16.4102 15.79L17.1202 16.5L19.4102 14.21V18H19.9102L22.7602 15.14L20.6202 13L22.7602 10.85L19.9102 8H19.4102ZM20.4102 9.91L21.3502 10.85L20.4102 11.79V9.91ZM20.4102 14.21L21.3502 15.14L20.4102 16.08V14.21Z" fill="black"/>
</g>
</svg>
