<svg width="25" height="24" viewBox="0 0 25 24" fill="none" xmlns="http://www.w3.org/2000/svg">
<g id="158">
<path id="Vector" d="M9.41016 2V4H7.74016C7.38742 4 7.04913 4.14012 6.7997 4.38955C6.55028 4.63897 6.41016 4.97726 6.41016 5.33V20.67C6.41016 21.4 7.01016 22 7.74016 22H17.0802C17.4329 22 17.7712 21.8599 18.0206 21.6105C18.27 21.361 18.4102 21.0227 18.4102 20.67V5.33C18.4102 4.6 17.8102 4 17.0802 4H15.4102V2H9.41016ZM12.2402 8H12.7402L15.5902 10.85L13.4502 13L15.5802 15.14L12.7402 18H12.2402V14.21L9.95016 16.5L9.24016 15.79L12.0302 13L9.24016 10.21L9.95016 9.5L12.2402 11.79V8ZM13.2402 9.91V11.79L14.1802 10.85L13.2402 9.91ZM13.2402 14.21V16.08L14.1802 15.14L13.2402 14.21Z" fill="black"/>
</g>
</svg>
