<svg width="25" height="24" viewBox="0 0 25 24" fill="none" xmlns="http://www.w3.org/2000/svg">
<g id="16">
<path id="Vector" d="M16.4102 14.5C16.4102 15.6 16.1102 18 14.2102 20.8L13.4102 16L14.3102 14.1C13.7102 14.1 13.1102 14 12.4102 14C11.7102 14 11.1102 14.1 10.5102 14.1L11.4102 16L10.6102 20.8C8.71016 18.1 8.41016 15.6 8.41016 14.5C6.01016 15.2 4.41016 16.5 4.41016 18V22H20.4102V18C20.4102 16.5 18.8102 15.2 16.4102 14.5ZM6.41016 4.5C6.41016 3.1 9.11016 2 12.4102 2C15.7102 2 18.4102 3.1 18.4102 4.5C18.4102 4.9 18.2102 5.2 17.9102 5.5C17.0102 4.6 14.9102 4 12.4102 4C9.91016 4 7.81016 4.6 6.91016 5.5C6.61016 5.2 6.41016 4.9 6.41016 4.5ZM16.3102 7.4C16.4102 7.6 16.4102 7.8 16.4102 8C16.4102 10.2 14.6102 12 12.4102 12C10.2102 12 8.41016 10.2 8.41016 8C8.41016 7.8 8.41016 7.6 8.51016 7.4C9.51016 7.8 10.9102 8 12.4102 8C13.9102 8 15.3102 7.8 16.3102 7.4ZM17.0102 6.1C15.9102 6.6 14.3102 7 12.4102 7C10.5102 7 8.91016 6.6 7.81016 6.1C8.51016 5.5 10.2102 5 12.4102 5C14.6102 5 16.3102 5.5 17.0102 6.1Z" fill="black"/>
</g>
</svg>
