<svg width="25" height="24" viewBox="0 0 25 24" fill="none" xmlns="http://www.w3.org/2000/svg">
<g id="160">
<path id="Vector" d="M23.4609 11H20.4609V4L15.4609 14H18.4609V22M12.4109 18H4.41094L4.46094 6H12.4609M13.1309 4H11.4609V2H5.46094V4H3.79094C3.4382 4 3.09991 4.14012 2.85049 4.38955C2.60106 4.63897 2.46094 4.97726 2.46094 5.33V20.67C2.46094 21.4 3.06094 22 3.79094 22H13.1309C13.8609 22 14.4609 21.4 14.4609 20.67V5.33C14.4609 4.97726 14.3208 4.63897 14.0714 4.38955C13.822 4.14012 13.4837 4 13.1309 4Z" fill="black"/>
</g>
</svg>
