<svg width="25" height="24" viewBox="0 0 25 24" fill="none" xmlns="http://www.w3.org/2000/svg">
<g id="166">
<path id="Vector" d="M12.0802 4C12.4329 4 12.7712 4.14012 13.0206 4.38955C13.27 4.63897 13.4102 4.97726 13.4102 5.33V20.67C13.4102 21.4 12.8102 22 12.0802 22H2.74016C2.01016 22 1.41016 21.4 1.41016 20.67V5.33C1.41016 4.97726 1.55028 4.63897 1.7997 4.38955C2.04913 4.14012 2.38742 4 2.74016 4H4.41016V2H10.4102V4H12.0802ZM15.4102 12H23.4102V14H15.4102V12ZM3.41016 13H11.4102V6H3.41016V13Z" fill="black"/>
</g>
</svg>
