<svg width="25" height="24" viewBox="0 0 25 24" fill="none" xmlns="http://www.w3.org/2000/svg">
<g id="17">
<path id="Vector" d="M12.9102 10C12.9102 8.34 11.5702 7 9.91016 7C8.27016 7 6.91016 8.34 6.91016 10C6.91016 11.64 8.27016 13 9.91016 13C11.5702 13 12.9102 11.64 12.9102 10ZM9.91016 11C9.37016 11 8.91016 10.54 8.91016 10C8.91016 9.44 9.37016 9 9.91016 9C10.4702 9 10.9102 9.44 10.9102 10C10.9102 10.54 10.4702 11 9.91016 11ZM16.4102 13C17.5302 13 18.4102 12.1 18.4102 11C18.4102 9.88 17.5302 9 16.4102 9C15.3102 9 14.4102 9.88 14.4102 11C14.4102 12.1 15.3102 13 16.4102 13ZM12.4102 2C6.91016 2 2.41016 6.5 2.41016 12C2.41016 17.5 6.91016 22 12.4102 22C17.9102 22 22.4102 17.5 22.4102 12C22.4102 6.5 17.9102 2 12.4102 2ZM6.26016 17.11C6.94016 16.57 8.53016 16 9.91016 16C9.99016 16 10.0702 16 10.1502 16C10.4102 15.37 10.8202 14.72 11.4502 14.15C10.9102 14.05 10.3602 14 9.91016 14C8.62016 14 6.53016 14.44 5.19016 15.42C4.69016 14.38 4.41016 13.22 4.41016 12C4.41016 7.58 8.00016 4 12.4102 4C16.8202 4 20.4102 7.58 20.4102 12C20.4102 13.19 20.1402 14.33 19.6602 15.36C18.6602 14.77 17.3002 14.5 16.4102 14.5C14.9102 14.5 11.9102 15.3 11.9102 17.19V19.97C9.65016 19.84 7.63016 18.76 6.26016 17.11Z" fill="black"/>
</g>
</svg>
