<svg width="25" height="24" viewBox="0 0 25 24" fill="none" xmlns="http://www.w3.org/2000/svg">
<g id="171">
<path id="Vector" d="M18.4095 14.8L7.61953 4H9.40953V2H15.4095V4H17.0795C17.4315 4.00262 17.7682 4.14358 18.0171 4.39244C18.2659 4.6413 18.4069 4.97807 18.4095 5.33M18.4095 17.35L3.78953 2.73L2.51953 4L6.40953 7.89V20.67C6.41215 21.0219 6.55311 21.3587 6.80197 21.6076C7.05083 21.8564 7.3876 21.9974 7.73953 22H17.0795C17.4315 21.9974 17.7682 21.8564 18.0171 21.6076C18.2659 21.3587 18.4069 21.0219 18.4095 20.67V19.89L21.2495 22.73L22.5195 21.46L18.4095 17.35Z" fill="black"/>
</g>
</svg>
