<svg width="25" height="24" viewBox="0 0 25 24" fill="none" xmlns="http://www.w3.org/2000/svg">
<g id="172">
<path id="Vector" d="M17.0802 4C17.8102 4 18.4102 4.6 18.4102 5.33V20.67C18.4102 21.0227 18.27 21.361 18.0206 21.6105C17.7712 21.8599 17.4329 22 17.0802 22H7.74016C7.01016 22 6.41016 21.4 6.41016 20.67V5.33C6.41016 4.97726 6.55028 4.63897 6.7997 4.38955C7.04913 4.14012 7.38742 4 7.74016 4H9.41016V2H15.4102V4H17.0802ZM16.4102 14V12H13.4102V9H11.4102V12H8.41016V14H11.4102V17H13.4102V14H16.4102Z" fill="black"/>
</g>
</svg>
