<svg width="25" height="24" viewBox="0 0 25 24" fill="none" xmlns="http://www.w3.org/2000/svg">
<g id="174">
<path id="Vector" d="M13.9502 22H7.74016C7.01016 22 6.41016 21.4 6.41016 20.67V5.33C6.41016 4.6 7.01016 4 7.74016 4H9.41016V2H15.4102V4H17.0802C17.8102 4 18.4102 4.6 18.4102 5.33V12C15.1002 12 12.4102 14.69 12.4102 18C12.4102 19.54 12.9902 20.94 13.9502 22ZM21.9502 20.12L20.5302 21.54L18.4102 19.41L16.2902 21.54L14.8802 20.12L17.0002 18L14.8802 15.88L16.2902 14.47L18.4102 16.59L20.5302 14.47L21.9502 15.88L19.8202 18L21.9502 20.12Z" fill="black"/>
</g>
</svg>
