<svg width="25" height="24" viewBox="0 0 25 24" fill="none" xmlns="http://www.w3.org/2000/svg">
<g id="175">
<g id="Group">
<path id="Vector" d="M0.410156 3H18.4102V5C17.3102 5 16.4102 5.9 16.4102 7V19C16.4102 20.11 15.5202 21 14.4102 21H4.41016C3.31016 21 2.41016 20.11 2.41016 19V7C2.41016 5.9 1.52016 5 0.410156 5V3ZM4.41016 5V7H9.41016V8H4.41016V9H7.41016V10H4.41016V11H7.41016V12H4.41016V13H9.41016V14H4.41016V15H7.41016V16H4.41016V19H14.4102V5H4.41016ZM21.9102 15.5V17H20.4102V15.5H21.9102ZM19.9102 10.5H18.4102V10C18.4102 8.34 19.7502 7 21.4102 7C23.0702 7 24.4102 8.34 24.4102 10C24.4102 10.97 23.9102 11.88 23.1202 12.41L22.8202 12.6C22.2502 13 21.9102 13.62 21.9102 14.3V14.5H20.4102V14.3C20.4102 13.11 21.0102 12 22.0002 11.35L22.2902 11.16C22.6802 10.9 22.9102 10.47 22.9102 10C22.9102 9.18 22.2402 8.5 21.4102 8.5C20.5802 8.5 19.9102 9.17 19.9102 10V10.5Z" fill="black"/>
</g>
</g>
</svg>
