<svg width="25" height="24" viewBox="0 0 25 24" fill="none" xmlns="http://www.w3.org/2000/svg">
<g id="177">
<path id="Vector" d="M3.41016 3H21.4102V5C20.8797 5 20.371 5.21071 19.9959 5.58579C19.6209 5.96086 19.4102 6.46957 19.4102 7V19C19.4102 19.5304 19.1994 20.0391 18.8244 20.4142C18.4493 20.7893 17.9406 21 17.4102 21H7.41016C6.87972 21 6.37102 20.7893 5.99594 20.4142C5.62087 20.0391 5.41016 19.5304 5.41016 19V7C5.41016 6.46957 5.19944 5.96086 4.82437 5.58579C4.4493 5.21071 3.94059 5 3.41016 5V3ZM7.41016 5V7H12.4102V8H7.41016V9H10.4102V10H7.41016V11H10.4102V12H7.41016V13H12.4102V14H7.41016V15H10.4102V16H7.41016V19H17.4102V5H7.41016Z" fill="black"/>
</g>
</svg>
