<svg width="25" height="24" viewBox="0 0 25 24" fill="none" xmlns="http://www.w3.org/2000/svg">
<g id="178">
<path id="Vector" d="M15.8702 15.88L17.2902 14.46L19.4102 16.59L21.5302 14.47L22.9402 15.88L20.8202 18L22.9502 20.12L21.5302 21.54L19.4102 19.41L17.2902 21.53L15.8802 20.12L18.0002 18L15.8702 15.88ZM3.41016 3H21.4102V5C20.3102 5 19.4102 5.9 19.4102 7V12C16.1002 12 13.4102 14.69 13.4102 18C13.4102 19.09 13.7002 20.12 14.2102 21H7.41016C6.31016 21 5.41016 20.1 5.41016 19V7C5.41016 5.9 4.51016 5 3.41016 5V3ZM7.41016 9V10H10.4102V9H7.41016ZM7.41016 11V12H10.4102V11H7.41016ZM10.4102 16V15H7.41016V16H10.4102ZM12.4102 14V13H7.41016V14H12.4102ZM12.4102 8V7H7.41016V8H12.4102Z" fill="black"/>
</g>
</svg>
