<svg width="25" height="24" viewBox="0 0 25 24" fill="none" xmlns="http://www.w3.org/2000/svg">
<g id="18">
<path id="Vector" d="M11.4102 23C10.8797 23 10.371 22.7893 9.99594 22.4142C9.62087 22.0391 9.41016 21.5304 9.41016 21V19H15.4102V21C15.4102 21.5304 15.1994 22.0391 14.8244 22.4142C14.4493 22.7893 13.9406 23 13.4102 23H11.4102ZM12.4102 1C13.1202 1 13.8002 1.09 14.4602 1.26C15.6302 2.83 16.4102 5.71 16.4102 9C16.4102 11.28 16.0302 13.37 15.4102 16C15.4102 16.5304 15.1994 17.0391 14.8244 17.4142C14.4493 17.7893 13.9406 18 13.4102 18H11.4102C10.8797 18 10.371 17.7893 9.99594 17.4142C9.62087 17.0391 9.41016 16.5304 9.41016 16C8.79016 13.37 8.41016 11.28 8.41016 9C8.41016 5.71 9.19016 2.83 10.3602 1.26C11.0202 1.09 11.7002 1 12.4102 1ZM20.4102 8C20.4102 11.18 18.5602 15.92 15.8702 17.21C16.8202 15.39 17.4102 11.83 17.4102 9C17.4102 6.17 16.8202 3.61 15.8702 1.79C18.5602 3.08 20.4102 4.82 20.4102 8ZM4.41016 8C4.41016 4.82 6.26016 3.08 8.95016 1.79C8.00016 3.61 7.41016 6.17 7.41016 9C7.41016 11.83 8.00016 15.39 8.95016 17.21C6.26016 15.92 4.41016 11.18 4.41016 8Z" fill="black"/>
</g>
</svg>
