<svg width="25" height="24" viewBox="0 0 25 24" fill="none" xmlns="http://www.w3.org/2000/svg">
<g id="180">
<path id="Vector" d="M15.8702 15.88L17.2902 14.46L19.4102 16.59L21.5302 14.47L22.9402 15.88L20.8202 18L22.9502 20.12L21.5302 21.54L19.4102 19.41L17.2902 21.53L15.8802 20.12L18.0002 18L15.8702 15.88ZM3.41016 3H21.4102V5C20.3102 5 19.4102 5.9 19.4102 7V12C18.7102 12 18.0402 12.12 17.4102 12.34V5H7.41016V7H12.4102V8H7.41016V9H10.4102V10H7.41016V11H10.4102V12H7.41016V13H12.4102V14H7.41016V15H10.4102V16H7.41016V19H13.4902C13.6102 19.72 13.8602 20.39 14.2102 21H7.41016C6.31016 21 5.41016 20.11 5.41016 19V7C5.41016 5.9 4.52016 5 3.41016 5V3Z" fill="black"/>
</g>
</svg>
