<svg width="25" height="24" viewBox="0 0 25 24" fill="none" xmlns="http://www.w3.org/2000/svg">
<g id="181">
<path id="Vector" d="M18.4102 14H20.4102V17H23.4102V19H20.4102V22H18.4102V19H15.4102V17H18.4102V14ZM3.41016 3H21.4102V5C20.3102 5 19.4102 5.9 19.4102 7V12C18.7102 12 18.0402 12.12 17.4102 12.34V5H7.41016V7H12.4102V8H7.41016V9H10.4102V10H7.41016V11H10.4102V12H7.41016V13H12.4102V14H7.41016V15H10.4102V16H7.41016V19H13.4902C13.6102 19.72 13.8602 20.39 14.2102 21H7.41016C6.31016 21 5.41016 20.11 5.41016 19V7C5.41016 5.9 4.52016 5 3.41016 5V3Z" fill="black"/>
</g>
</svg>
