<svg width="25" height="24" viewBox="0 0 25 24" fill="none" xmlns="http://www.w3.org/2000/svg">
<g id="182">
<path id="Vector" d="M19.4102 7H11.4102V14H3.41016V5H1.41016V20H3.41016V17H21.4102V20H23.4102V11C23.4102 9.93913 22.9887 8.92172 22.2386 8.17157C21.4884 7.42143 20.471 7 19.4102 7ZM7.41016 13C8.20581 13 8.96887 12.6839 9.53148 12.1213C10.0941 11.5587 10.4102 10.7956 10.4102 10C10.4102 9.20435 10.0941 8.44129 9.53148 7.87868C8.96887 7.31607 8.20581 7 7.41016 7C6.61451 7 5.85145 7.31607 5.28884 7.87868C4.72623 8.44129 4.41016 9.20435 4.41016 10C4.41016 10.7956 4.72623 11.5587 5.28884 12.1213C5.85145 12.6839 6.61451 13 7.41016 13Z" fill="black"/>
</g>
</svg>
