<svg width="25" height="24" viewBox="0 0 25 24" fill="none" xmlns="http://www.w3.org/2000/svg">
<g id="184">
<g id="Group">
<path id="Vector" d="M7.71016 9.2001C8.51016 9.6001 9.41016 10.5001 9.41016 12.0001C9.41016 13.5001 8.51016 14.4001 7.71016 14.8001C7.31016 13.4001 7.31016 10.6001 7.71016 9.2001ZM6.91016 7.0001C4.91016 7.0001 4.91016 17.0001 6.91016 17.0001C8.91016 17.0001 11.4102 15.1001 11.4102 12.0001C11.4102 8.9001 8.91016 7.0001 6.91016 7.0001ZM17.1102 9.2001C17.4102 10.6001 17.4102 13.4001 17.1102 14.8001C16.3102 14.4001 15.4102 13.5001 15.4102 12.0001C15.4102 10.5001 16.3102 9.6001 17.1102 9.2001ZM17.9102 7.0001C15.9102 7.0001 13.4102 8.9001 13.4102 12.0001C13.4102 15.1001 15.9102 17.0001 17.9102 17.0001C19.9102 17.0001 19.9102 7.0001 17.9102 7.0001ZM5.31016 6.2001L2.91016 4.6001L1.81016 6.3001L4.41016 8.0001C4.61016 7.3001 4.91016 6.6001 5.31016 6.2001ZM20.4102 8.0001L23.0102 6.3001L21.9102 4.6001L19.5102 6.2001C19.8102 6.6001 20.2102 7.2001 20.4102 8.0001ZM4.41016 16.0001L1.81016 17.7001L2.91016 19.4001L5.31016 17.8001C5.01016 17.4001 4.61016 16.8001 4.41016 16.0001ZM20.9102 11.0001C20.9102 11.3001 20.9102 11.7001 20.9102 12.0001C20.9102 12.3001 20.9102 12.6001 20.9102 13.0001H24.4102V11.0001H20.9102ZM19.5102 17.8001L21.9102 19.4001L23.0102 17.7001L20.4102 16.0001C20.2102 16.7001 19.9102 17.4001 19.5102 17.8001ZM3.91016 12.0001C3.91016 11.7001 3.91016 11.4001 3.91016 11.0001H0.410156V13.0001H3.91016C3.91016 12.7001 3.91016 12.3001 3.91016 12.0001Z" fill="black"/>
</g>
</g>
</svg>
