<svg width="25" height="24" viewBox="0 0 25 24" fill="none" xmlns="http://www.w3.org/2000/svg">
<g id="185">
<path id="Vector" d="M20.4102 10V7C20.4102 6.46957 20.1994 5.96086 19.8244 5.58579C19.4493 5.21071 18.9406 5 18.4102 5H6.41016C5.87972 5 5.37102 5.21071 4.99594 5.58579C4.62087 5.96086 4.41016 6.46957 4.41016 7V10C3.87972 10 3.37102 10.2107 2.99594 10.5858C2.62087 10.9609 2.41016 11.4696 2.41016 12V17H3.74016L4.41016 19H5.41016L6.08016 17H18.7402L19.4102 19H20.4102L21.0802 17H22.4102V12C22.4102 11.4696 22.1994 10.9609 21.8244 10.5858C21.4493 10.2107 20.9406 10 20.4102 10ZM13.4102 7H18.4102V10H13.4102M6.41016 7H11.4102V10H6.41016M20.4102 15H4.41016V12H20.4102V15Z" fill="black"/>
</g>
</svg>
