<svg width="25" height="24" viewBox="0 0 25 24" fill="none" xmlns="http://www.w3.org/2000/svg">
<g id="186">
<path id="Vector" d="M6.41016 5C5.88016 5 5.41016 5.21 5.00016 5.6C4.59016 5.99 4.41016 6.45 4.41016 7V10C3.86016 10 3.41016 10.19 3.01016 10.59C2.61016 10.99 2.41016 11.47 2.41016 12V17H3.74016L4.41016 19H5.41016L6.08016 17H18.7402L19.4102 19H20.4102L21.0802 17H22.4102V12C22.4102 11.47 22.2002 11 21.8102 10.59C21.4102 10.19 20.9602 10 20.4102 10V7C20.4102 6.45 20.2202 6 19.8202 5.6C19.4202 5.2 18.9402 5 18.4102 5M6.41016 7H11.4102V10H6.41016M13.4102 7H18.4102V10H13.4102V7Z" fill="black"/>
</g>
</svg>
