<svg width="25" height="24" viewBox="0 0 25 24" fill="none" xmlns="http://www.w3.org/2000/svg">
<g id="188">
<path id="Vector" d="M8.41016 5C7.91016 5 7.41016 5.21 7.02016 5.6C6.63016 5.99 6.41016 6.45 6.41016 7V10C5.88016 10 5.41016 10.19 5.00016 10.59C4.59016 10.99 4.41016 11.47 4.41016 12V17H5.75016L6.41016 19H7.41016L8.10016 17H16.7702L17.4102 19H18.4102L19.0702 17H20.4102V12C20.4102 11.47 20.2202 11 19.8202 10.59C19.4202 10.18 18.9402 10 18.4102 10V7C18.4102 6.45 18.2102 6 17.8002 5.6C17.3902 5.2 16.9102 5 16.4102 5M8.41016 7H11.4102V10H8.41016M13.4102 7H16.4102V10H13.4102M6.41016 12H18.4102V15H6.41016V12Z" fill="black"/>
</g>
</svg>
