<svg width="25" height="24" viewBox="0 0 25 24" fill="none" xmlns="http://www.w3.org/2000/svg">
<g id="189">
<path id="Vector" d="M18.4102 10V7C18.4102 6.46957 18.1994 5.96086 17.8244 5.58579C17.4493 5.21071 16.9406 5 16.4102 5H8.41016C7.87972 5 7.37102 5.21071 6.99594 5.58579C6.62087 5.96086 6.41016 6.46957 6.41016 7V10C5.87972 10 5.37102 10.2107 4.99594 10.5858C4.62087 10.9609 4.41016 11.4696 4.41016 12V17H5.74016L6.41016 19H7.41016L8.08016 17H16.7402L17.4102 19H18.4102L19.0802 17H20.4102V12C20.4102 11.4696 20.1994 10.9609 19.8244 10.5858C19.4493 10.2107 18.9406 10 18.4102 10ZM11.4102 10H8.41016V7H11.4102M16.4102 10H13.4102V7H16.4102V10Z" fill="black"/>
</g>
</svg>
