<svg width="25" height="24" viewBox="0 0 25 24" fill="none" xmlns="http://www.w3.org/2000/svg">
<g id="19">
<path id="Vector" d="M11.4102 9C12.471 9 13.4884 9.42143 14.2386 10.1716C14.9887 10.9217 15.4102 11.9391 15.4102 13C15.4102 14.0609 14.9887 15.0783 14.2386 15.8284C13.4884 16.5786 12.471 17 11.4102 17C10.3493 17 9.33187 16.5786 8.58173 15.8284C7.83158 15.0783 7.41016 14.0609 7.41016 13C7.41016 11.9391 7.83158 10.9217 8.58173 10.1716C9.33187 9.42143 10.3493 9 11.4102 9ZM11.4102 11C10.8797 11 10.371 11.2107 9.99594 11.5858C9.62087 11.9609 9.41016 12.4696 9.41016 13C9.41016 13.5304 9.62087 14.0391 9.99594 14.4142C10.371 14.7893 10.8797 15 11.4102 15C11.9406 15 12.4493 14.7893 12.8244 14.4142C13.1994 14.0391 13.4102 13.5304 13.4102 13C13.4102 12.4696 13.1994 11.9609 12.8244 11.5858C12.4493 11.2107 11.9406 11 11.4102 11ZM7.41016 4H14.4102C15.471 4 16.4884 4.42143 17.2386 5.17157C17.9887 5.92172 18.4102 6.93913 18.4102 8V9H16.4102V8C16.4102 7.46957 16.1994 6.96086 15.8244 6.58579C15.4493 6.21071 14.9406 6 14.4102 6H7.41016C6.87972 6 6.37102 6.21071 5.99594 6.58579C5.62087 6.96086 5.41016 7.46957 5.41016 8V20H16.4102V18H18.4102V22H3.41016V8C3.41016 6.93913 3.83158 5.92172 4.58173 5.17157C5.33187 4.42143 6.34929 4 7.41016 4ZM16.4102 11C18.9102 11 18.9102 9 21.4102 9V11C18.9102 11 18.9102 13 16.4102 13V11ZM16.4102 15C18.9102 15 18.9102 13 21.4102 13V15C18.9102 15 18.9102 17 16.4102 17V15Z" fill="black"/>
</g>
</svg>
