<svg width="25" height="24" viewBox="0 0 25 24" fill="none" xmlns="http://www.w3.org/2000/svg">
<g id="190">
<path id="Vector" d="M7.41016 14C9.07016 14 10.4102 12.66 10.4102 11C10.4102 9.34 9.07016 8 7.41016 8C5.75016 8 4.41016 9.34 4.41016 11C4.41016 12.66 5.75016 14 7.41016 14ZM7.41016 10C7.96016 10 8.41016 10.45 8.41016 11C8.41016 11.55 7.96016 12 7.41016 12C6.86016 12 6.41016 11.55 6.41016 11C6.41016 10.45 6.86016 10 7.41016 10ZM19.4102 7H11.4102V15H3.41016V5H1.41016V20H3.41016V17H21.4102V20H23.4102V11C23.4102 8.79 21.6202 7 19.4102 7ZM21.4102 15H13.4102V9H19.4102C20.5102 9 21.4102 9.9 21.4102 11V15Z" fill="black"/>
</g>
</svg>
