<svg width="25" height="24" viewBox="0 0 25 24" fill="none" xmlns="http://www.w3.org/2000/svg">
<g id="192">
<path id="Vector" d="M19.4102 10V7C19.4102 6.46957 19.1994 5.96086 18.8244 5.58579C18.4493 5.21071 17.9406 5 17.4102 5H7.41016C6.87972 5 6.37102 5.21071 5.99594 5.58579C5.62087 5.96086 5.41016 6.46957 5.41016 7V10C4.87972 10 4.37102 10.2107 3.99594 10.5858C3.62087 10.9609 3.41016 11.4696 3.41016 12V17H4.74016L5.41016 19H6.41016L7.08016 17H17.7402L18.4102 19H19.4102L20.0802 17H21.4102V12C21.4102 11.4696 21.1994 10.9609 20.8244 10.5858C20.4493 10.2107 19.9406 10 19.4102 10ZM7.41016 7H17.4102V10H7.41016M19.4102 15H5.41016V12H19.4102V15Z" fill="black"/>
</g>
</svg>
