<svg width="25" height="24" viewBox="0 0 25 24" fill="none" xmlns="http://www.w3.org/2000/svg">
<g id="195">
<path id="Vector" d="M17.4102 14V17H14.4102V19H17.4102V22H19.4102V19H22.4102V17H19.4102V14M12.4102 2C11.8797 2 11.371 2.21071 10.9959 2.58579C10.6209 2.96086 10.4102 3.46957 10.4102 4C10.4031 4.09654 10.4031 4.19346 10.4102 4.29C7.53016 5.14 5.41016 7.82 5.41016 11V17L3.41016 19V20H12.7602C12.5307 19.3581 12.4124 18.6817 12.4102 18C12.4102 16.4087 13.0423 14.8826 14.1675 13.7574C15.2927 12.6321 16.8189 12 18.4102 12C18.7454 12.002 19.0799 12.0321 19.4102 12.09V11C19.4102 7.82 17.2902 5.14 14.4102 4.29C14.4172 4.19346 14.4172 4.09654 14.4102 4C14.4102 3.46957 14.1994 2.96086 13.8244 2.58579C13.4493 2.21071 12.9406 2 12.4102 2ZM10.4102 21C10.4102 21.5304 10.6209 22.0391 10.9959 22.4142C11.371 22.7893 11.8797 23 12.4102 23C12.7352 23 13.0553 22.9207 13.3428 22.7691C13.6303 22.6175 13.8765 22.3982 14.0602 22.13C13.7368 21.7876 13.4548 21.4083 13.2202 21H10.4102Z" fill="black"/>
</g>
</svg>
