<svg width="25" height="24" viewBox="0 0 25 24" fill="none" xmlns="http://www.w3.org/2000/svg">
<g id="196">
<path id="Vector" d="M22.4102 19V17H14.4102V19H22.4102ZM12.4102 2C11.3102 2 10.4102 2.9 10.4102 4C10.4102 4.1 10.4102 4.19 10.4102 4.29C7.53016 5.14 5.41016 7.82 5.41016 11V17L3.41016 19V20H12.7602C12.5302 19.36 12.4102 18.68 12.4102 18C12.4102 14.69 15.1002 12 18.4102 12C18.7502 12 19.0802 12.03 19.4102 12.09V11C19.4102 7.82 17.2902 5.14 14.4102 4.29C14.4102 4.19 14.4102 4.1 14.4102 4C14.4102 2.9 13.5202 2 12.4102 2ZM10.4102 21C10.4102 22.11 11.3102 23 12.4102 23C13.0702 23 13.6902 22.67 14.0602 22.13C13.7402 21.79 13.4602 21.41 13.2202 21H10.4102Z" fill="black"/>
</g>
</svg>
