<svg width="25" height="24" viewBox="0 0 25 24" fill="none" xmlns="http://www.w3.org/2000/svg">
<g id="2">
<path id="Vector" d="M5.34016 3.92993C3.53016 5.73993 2.41016 8.23993 2.41016 10.9999C2.41016 13.7599 3.53016 16.2599 5.34016 18.0699L6.75016 16.6599C5.30016 15.2199 4.41016 13.2199 4.41016 10.9999C4.41016 8.78993 5.30016 6.77993 6.75016 5.33993L5.34016 3.92993ZM19.4802 3.92993L18.0702 5.33993C19.5202 6.77993 20.4102 8.78993 20.4102 10.9999C20.4102 13.2199 19.5202 15.2199 18.0702 16.6599L19.4802 18.0699C21.2902 16.2599 22.4102 13.7599 22.4102 10.9999C22.4102 8.23993 21.2902 5.73993 19.4802 3.92993ZM8.17016 6.75993C7.08016 7.84993 6.41016 9.34993 6.41016 10.9999C6.41016 12.6499 7.08016 14.1499 8.17016 15.2399L9.58016 13.8299C8.86016 13.1099 8.41016 12.1099 8.41016 10.9999C8.41016 9.88993 8.86016 8.88993 9.58016 8.16993L8.17016 6.75993ZM16.6502 6.75993L15.2402 8.16993C15.9602 8.88993 16.4102 9.88993 16.4102 10.9999C16.4102 12.1099 15.9602 13.1099 15.2402 13.8299L16.6502 15.2399C17.7402 14.1499 18.4102 12.6499 18.4102 10.9999C18.4102 9.34993 17.7402 7.84993 16.6502 6.75993ZM12.4102 8.99993C11.8797 8.99993 11.371 9.21065 10.9959 9.58572C10.6209 9.96079 10.4102 10.4695 10.4102 10.9999C10.4102 11.5304 10.6209 12.0391 10.9959 12.4141C11.371 12.7892 11.8797 12.9999 12.4102 12.9999C12.9406 12.9999 13.4493 12.7892 13.8244 12.4141C14.1994 12.0391 14.4102 11.5304 14.4102 10.9999C14.4102 10.4695 14.1994 9.96079 13.8244 9.58572C13.4493 9.21065 12.9406 8.99993 12.4102 8.99993ZM11.4102 14.9999V18.9999H10.4102C10.1449 18.9999 9.89059 19.1053 9.70305 19.2928C9.51551 19.4804 9.41016 19.7347 9.41016 19.9999H2.41016V21.9999H9.41016C9.41016 22.2651 9.51551 22.5195 9.70305 22.707C9.89059 22.8946 10.1449 22.9999 10.4102 22.9999H14.4102C14.6754 22.9999 14.9297 22.8946 15.1173 22.707C15.3048 22.5195 15.4102 22.2651 15.4102 21.9999H22.4102V19.9999H15.4102C15.4102 19.7347 15.3048 19.4804 15.1173 19.2928C14.9297 19.1053 14.6754 18.9999 14.4102 18.9999H13.4102V14.9999H11.4102Z" fill="black"/>
</g>
</svg>
