<svg width="25" height="24" viewBox="0 0 25 24" fill="none" xmlns="http://www.w3.org/2000/svg">
<g id="20">
<path id="Vector" d="M19.4102 18.31V20C19.4102 20.5304 19.1994 21.0391 18.8244 21.4142C18.4493 21.7893 17.9406 22 17.4102 22H7.41016C6.87972 22 6.37102 21.7893 5.99594 21.4142C5.62087 21.0391 5.41016 20.5304 5.41016 20V16.3C4.95016 16.12 4.36016 16 3.41016 16C3.14494 16 2.89059 15.8946 2.70305 15.7071C2.51551 15.5196 2.41016 15.2652 2.41016 15C2.41016 14.7348 2.51551 14.4804 2.70305 14.2929C2.89059 14.1054 3.14494 14 3.41016 14C4.23016 14 4.88016 14.08 5.41016 14.21V12.3C4.95016 12.12 4.36016 12 3.41016 12C3.14494 12 2.89059 11.8946 2.70305 11.7071C2.51551 11.5196 2.41016 11.2652 2.41016 11C2.41016 10.7348 2.51551 10.4804 2.70305 10.2929C2.89059 10.1054 3.14494 10 3.41016 10C4.23016 10 4.88016 10.08 5.41016 10.21V8.3C4.95016 8.12 4.36016 8 3.41016 8C3.14494 8 2.89059 7.89464 2.70305 7.70711C2.51551 7.51957 2.41016 7.26522 2.41016 7C2.41016 6.73478 2.51551 6.48043 2.70305 6.29289C2.89059 6.10536 3.14494 6 3.41016 6C4.23016 6 4.88016 6.08 5.41016 6.21V4C5.41016 3.46957 5.62087 2.96086 5.99594 2.58579C6.37102 2.21071 6.87972 2 7.41016 2H17.4102C17.9406 2 18.4493 2.21071 18.8244 2.58579C19.1994 2.96086 19.4102 3.46957 19.4102 4V6.16C21.1902 6.47 21.9502 7.13 22.1202 7.29C22.5102 7.68 22.5102 8.32 22.1202 8.71C21.7302 9.1 21.2102 9.09 20.7002 8.71C20.7002 8.71 19.6602 8 17.4102 8C16.1502 8 15.3202 8.41 14.3602 8.9C13.3202 9.41 12.1502 10 10.4102 10C10.0502 10 9.72016 10 9.41016 9.96V7.95C9.71016 8 10.0402 8 10.4102 8C11.6702 8 12.5002 7.59 13.4602 7.11C14.5002 6.59 15.6802 6 17.4102 6V4H7.41016V20H17.4102V18C18.9102 18 19.3802 18.29 19.4102 18.31ZM17.4102 10C15.6802 10 14.5002 10.59 13.4602 11.11C12.5002 11.59 11.6702 12 10.4102 12C10.0402 12 9.71016 12 9.41016 11.95V13.96C9.72016 14 10.0502 14 10.4102 14C12.1502 14 13.3202 13.41 14.3602 12.9C15.3202 12.42 16.1502 12 17.4102 12C19.6602 12 20.7002 12.71 20.7002 12.71C21.2102 13.1 21.7302 13.1 22.1202 12.71C22.5102 12.32 22.5102 11.69 22.1202 11.29C21.9102 11.08 20.6602 10 17.4102 10ZM17.4102 14C15.6802 14 14.5002 14.59 13.4602 15.11C12.5002 15.59 11.6702 16 10.4102 16C10.0402 16 9.71016 16 9.41016 15.95V17.96C9.72016 18 10.0502 18 10.4102 18C12.1502 18 13.3202 17.41 14.3602 16.9C15.3202 16.42 16.1502 16 17.4102 16C19.6602 16 20.7002 16.71 20.7002 16.71C21.2102 17.1 21.7302 17.1 22.1202 16.71C22.5102 16.32 22.5102 15.69 22.1202 15.29C21.9102 15.08 20.6602 14 17.4102 14Z" fill="black"/>
</g>
</svg>
