<svg width="25" height="24" viewBox="0 0 25 24" fill="none" xmlns="http://www.w3.org/2000/svg">
<g id="200">
<path id="Vector" d="M21.2495 22.73L18.5195 20H3.40953V19L5.40953 17V11C5.40953 9.85998 5.69953 8.72998 6.23953 7.71998L1.51953 2.99998L2.79953 1.72998L22.5195 21.46L21.2495 22.73ZM19.4095 15.8V11C19.4095 7.89998 17.3795 5.16998 14.4095 4.28998C14.4095 4.18998 14.4095 4.09998 14.4095 3.99998C14.4095 3.46955 14.1988 2.96084 13.8237 2.58577C13.4487 2.21069 12.94 1.99998 12.4095 1.99998C11.8791 1.99998 11.3704 2.21069 10.9953 2.58577C10.6202 2.96084 10.4095 3.46955 10.4095 3.99998C10.4095 4.09998 10.4095 4.18998 10.4095 4.28998C9.79953 4.46998 9.20953 4.73998 8.66953 5.08998L19.4095 15.8ZM12.4095 23C12.94 23 13.4487 22.7893 13.8237 22.4142C14.1988 22.0391 14.4095 21.5304 14.4095 21H10.4095C10.4095 21.5304 10.6202 22.0391 10.9953 22.4142C11.3704 22.7893 11.8791 23 12.4095 23Z" fill="black"/>
</g>
</svg>
