<svg width="25" height="24" viewBox="0 0 25 24" fill="none" xmlns="http://www.w3.org/2000/svg">
<g id="201">
<path id="Vector" d="M22.5195 21.46L2.79953 1.72998L1.51953 2.99998L6.23953 7.71998C5.69953 8.72998 5.40953 9.85998 5.40953 11V17L3.40953 19V20H18.5195L21.2495 22.73L22.5195 21.46ZM7.40953 18V11C7.40953 10.39 7.51953 9.78998 7.74953 9.22998L16.5195 18H7.40953ZM10.4095 21H14.4095C14.4095 21.5304 14.1988 22.0391 13.8237 22.4142C13.4487 22.7893 12.94 23 12.4095 23C11.8791 23 11.3704 22.7893 10.9953 22.4142C10.6202 22.0391 10.4095 21.5304 10.4095 21ZM8.69953 5.08998C9.22953 4.74998 9.80953 4.49998 10.4095 4.28998C10.4095 4.18998 10.4095 4.09998 10.4095 3.99998C10.4095 3.46955 10.6202 2.96084 10.9953 2.58577C11.3704 2.21069 11.8791 1.99998 12.4095 1.99998C12.94 1.99998 13.4487 2.21069 13.8237 2.58577C14.1988 2.96084 14.4095 3.46955 14.4095 3.99998C14.4095 4.09998 14.4095 4.18998 14.4095 4.28998C17.3795 5.16998 19.4095 7.89998 19.4095 11V15.8L17.4095 13.8V11C17.4095 9.6739 16.8827 8.40213 15.9451 7.46445C15.0074 6.52676 13.7356 5.99998 12.4095 5.99998C11.6295 5.99998 10.8595 6.19998 10.1695 6.55998L8.69953 5.08998Z" fill="black"/>
</g>
</svg>
