<svg width="25" height="24" viewBox="0 0 25 24" fill="none" xmlns="http://www.w3.org/2000/svg">
<g id="204">
<path id="Vector" d="M10.4102 21H14.4102C14.4102 22.1 13.5102 23 12.4102 23C11.3102 23 10.4102 22.1 10.4102 21ZM21.4102 19V20H3.41016V19L5.41016 17V11C5.41016 7.9 7.41016 5.2 10.4102 4.3V4C10.4102 2.9 11.3102 2 12.4102 2C13.5102 2 14.4102 2.9 14.4102 4V4.3C17.4102 5.2 19.4102 7.9 19.4102 11V17L21.4102 19ZM17.4102 11C17.4102 8.2 15.2102 6 12.4102 6C9.61016 6 7.41016 8.2 7.41016 11V18H17.4102V11Z" fill="black"/>
</g>
</svg>
