<svg width="25" height="24" viewBox="0 0 25 24" fill="none" xmlns="http://www.w3.org/2000/svg">
<g id="205">
<path id="Vector" d="M4.41016 5C3.87972 5 3.37102 5.21071 2.99594 5.58579C2.62087 5.96086 2.41016 6.46957 2.41016 7V17C2.41016 17.5304 2.62087 18.0391 2.99594 18.4142C3.37102 18.7893 3.87972 19 4.41016 19H20.4102C20.9406 19 21.4493 18.7893 21.8244 18.4142C22.1994 18.0391 22.4102 17.5304 22.4102 17V7C22.4102 6.46957 22.1994 5.96086 21.8244 5.58579C21.4493 5.21071 20.9406 5 20.4102 5H4.41016ZM8.41016 9C9.47102 9 10.4884 9.42143 11.2386 10.1716C11.9887 10.9217 12.4102 11.9391 12.4102 13C12.4102 14.0609 11.9887 15.0783 11.2386 15.8284C10.4884 16.5786 9.47102 17 8.41016 17C7.34929 17 6.33187 16.5786 5.58173 15.8284C4.83158 15.0783 4.41016 14.0609 4.41016 13C4.41016 11.9391 4.83158 10.9217 5.58173 10.1716C6.33187 9.42143 7.34929 9 8.41016 9ZM13.4102 9H20.4102V17H13.4102V9ZM8.41016 11C7.87972 11 7.37102 11.2107 6.99594 11.5858C6.62087 11.9609 6.41016 12.4696 6.41016 13C6.41016 13.5304 6.62087 14.0391 6.99594 14.4142C7.37102 14.7893 7.87972 15 8.41016 15C8.94059 15 9.4493 14.7893 9.82437 14.4142C10.1994 14.0391 10.4102 13.5304 10.4102 13C10.4102 12.4696 10.1994 11.9609 9.82437 11.5858C9.4493 11.2107 8.94059 11 8.41016 11Z" fill="black"/>
</g>
</svg>
