<svg width="25" height="24" viewBox="0 0 25 24" fill="none" xmlns="http://www.w3.org/2000/svg">
<g id="206">
<path id="Vector" d="M9.64102 17.59V23.12H7.29102V6.72C7.29102 5.27 7.72102 4.13 8.57102 3.28C9.41102 2.43 10.581 2 12.021 2C13.411 2 14.481 2.34 15.281 3C16.071 3.68 16.461 4.62 16.461 5.81C16.461 6.63 16.201 7.4 15.681 8.11C15.161 8.82 14.491 9.31 13.661 9.58V9.62C14.911 9.82 15.881 10.27 16.541 11C17.201 11.71 17.531 12.62 17.531 13.74C17.531 15.06 17.071 16.14 16.161 16.97C15.241 17.8 14.041 18.21 12.541 18.21C11.481 18.21 10.511 18 9.64102 17.59ZM11.131 10.75V8.83C12.001 8.72 12.711 8.4 13.281 7.86C13.841 7.31 14.121 6.7 14.121 6C14.121 4.62 13.411 3.92 12.011 3.92C11.251 3.92 10.661 4.16 10.251 4.65C9.84102 5.14 9.64102 5.82 9.64102 6.71V15.5C10.551 16.03 11.441 16.29 12.301 16.29C13.141 16.29 13.801 16.07 14.271 15.64C14.741 15.2 14.971 14.58 14.971 13.79C14.971 12 13.691 11 11.131 10.75Z" fill="black"/>
</g>
</svg>
