<svg width="25" height="24" viewBox="0 0 25 24" fill="none" xmlns="http://www.w3.org/2000/svg">
<g id="208">
<path id="Vector" d="M10.4102 21H14.4102C14.4102 21.5304 14.1994 22.0391 13.8244 22.4142C13.4493 22.7893 12.9406 23 12.4102 23C11.8797 23 11.371 22.7893 10.9959 22.4142C10.6209 22.0391 10.4102 21.5304 10.4102 21ZM21.4102 19V20H3.41016V19L5.41016 17V11C5.41016 7.9 7.44016 5.17 10.4102 4.29C10.4102 4.19 10.4102 4.1 10.4102 4C10.4102 3.46957 10.6209 2.96086 10.9959 2.58579C11.371 2.21071 11.8797 2 12.4102 2C12.9406 2 13.4493 2.21071 13.8244 2.58579C14.1994 2.96086 14.4102 3.46957 14.4102 4C14.4102 4.1 14.4102 4.19 14.4102 4.29C17.3802 5.17 19.4102 7.9 19.4102 11V17L21.4102 19ZM15.4102 9H9.41016V11H12.6502L9.41016 13.7V16H15.4102V14H12.1702L15.4102 11.3V9Z" fill="black"/>
</g>
</svg>
