<svg width="25" height="24" viewBox="0 0 25 24" fill="none" xmlns="http://www.w3.org/2000/svg">
<g id="21">
<path id="Vector" d="M21.4103 11C19.0103 11 18.9103 12.9 16.6103 13L16.4103 12.8V11C18.9103 11 18.9103 8.99995 21.4103 8.99995V11ZM22.5103 21.5L21.2103 22.7999L18.4103 19.9V22H3.41025V7.99995C3.41025 7.09995 3.71025 6.29995 4.21025 5.69995L1.51025 2.99995L2.81025 1.69995L22.5103 21.5ZM9.41025 13C9.41025 14.1 10.3103 15 11.4103 15C12.0103 15 12.5103 14.7 12.9103 14.4L10.1103 11.6C9.71025 11.9 9.41025 12.4 9.41025 13ZM16.4103 17.9L14.3103 15.8C13.6103 16.5 12.5103 17 11.4103 17C9.21025 17 7.41025 15.2 7.41025 13C7.41025 11.9 7.91025 10.8 8.61025 10.1L5.61025 7.09995C5.51025 7.39995 5.41025 7.69995 5.41025 7.99995V20H16.4103V17.9ZM21.4103 15V13C19.7103 13 19.1103 14 18.1103 14.5L19.2103 15.6C19.8103 15.3 20.4103 15 21.4103 15ZM14.4103 5.99995C15.5103 5.99995 16.4103 6.89995 16.4103 7.99995V8.99995H18.4103V7.99995C18.4103 5.79995 16.6103 3.99995 14.4103 3.99995H7.61025L9.61025 5.99995H14.4103Z" fill="black"/>
</g>
</svg>
