<svg width="25" height="24" viewBox="0 0 25 24" fill="none" xmlns="http://www.w3.org/2000/svg">
<g id="210">
<path id="Vector" d="M13.2902 3.64004C14.0602 3.64004 14.6902 4.27004 14.6902 5.04004C14.6902 5.81004 14.0602 6.44004 13.2902 6.44004C12.5202 6.44004 11.9102 5.81004 11.9102 5.04004C11.9102 4.27004 12.5202 3.64004 13.2902 3.64004ZM15.4102 13H16.9102V19H15.4102V13ZM15.4102 8.50004H16.9102V10H15.4102V8.50004ZM10.4502 2.60004L8.41016 2.04004L6.47016 8.58004L4.31016 11.42L7.58016 12.37L10.4502 2.60004ZM20.0802 18.55C19.7202 18.93 19.2902 19.5 18.8102 19.7C18.3202 19.92 17.9502 20 17.4102 20H13.9102L13.8402 17C13.8302 16.83 13.7802 16.67 13.6902 16.5L11.2902 12.24L12.1702 9.50004C12.7502 10.55 13.4102 11.73 13.4702 11.83C13.6202 12 13.8602 12.13 14.1002 12.13H16.3102C16.525 12.13 16.731 12.0447 16.8829 11.8928C17.0348 11.7409 17.1202 11.5349 17.1202 11.32C17.1202 10.9 16.7902 10.56 16.3702 10.53L14.7002 10.4L12.8102 7.00004C12.8102 7.00004 12.4102 6.42004 11.5502 6.42004C10.6802 6.42004 10.4102 6.84004 10.2402 7.42004L6.41016 20H3.41016V22H17.4102C18.7802 22 19.9402 21.34 20.9102 20.37L20.0802 18.55ZM10.1602 14.39L12.0302 17.39L12.1602 20H8.16016L10.1602 14.39Z" fill="black"/>
</g>
</svg>
