<svg width="25" height="24" viewBox="0 0 25 24" fill="none" xmlns="http://www.w3.org/2000/svg">
<g id="211">
<g id="Group">
<path id="Vector" d="M19.4102 10C18.8502 10 18.3202 10.11 17.8202 10.28L14.8702 4.5H11.4102V6H13.9502L14.8302 7.72L12.4102 13.13L10.6402 8.95C10.9102 8.85 11.1502 8.58 11.1502 8.25C11.1502 7.84 10.8202 7.5 10.4102 7.5H8.41016C7.99016 7.5 7.65016 7.84 7.65016 8.25C7.65016 8.66 7.99016 9 8.41016 9H9.02016L11.2702 14.25H10.3302C9.97016 11.85 7.91016 10 5.41016 10C2.65016 10 0.410156 12.24 0.410156 15C0.410156 17.76 2.65016 20 5.41016 20C7.91016 20 9.97016 18.15 10.3302 15.75H12.9102L15.7002 9.43L16.4902 10.96C15.2302 11.87 14.4102 13.34 14.4102 15C14.4102 17.76 16.6502 20 19.4102 20C22.1702 20 24.4102 17.76 24.4102 15C24.4102 12.24 22.1702 10 19.4102 10ZM5.41016 18.5C3.48016 18.5 1.91016 16.93 1.91016 15C1.91016 13.07 3.48016 11.5 5.41016 11.5C7.08016 11.5 8.48016 12.68 8.82016 14.25H4.41016V15.75H8.82016C8.48016 17.32 7.08016 18.5 5.41016 18.5ZM19.4102 18.5C17.4802 18.5 15.9102 16.93 15.9102 15C15.9102 13.92 16.4102 12.97 17.1802 12.33L18.9802 15.85L20.3002 15.13L18.5102 11.63C18.8002 11.56 19.1002 11.5 19.4102 11.5C21.3402 11.5 22.9102 13.07 22.9102 15C22.9102 16.93 21.3402 18.5 19.4102 18.5Z" fill="black"/>
</g>
</g>
</svg>
