<svg width="25" height="24" viewBox="0 0 25 24" fill="none" xmlns="http://www.w3.org/2000/svg">
<g id="212">
<g id="Group">
<path id="Vector" d="M12.1502 13.36L14.5502 7.71L13.4702 5.5H10.9102V4H14.4102L15.1402 5.5H22.1602L21.1602 9H16.8502L17.5202 10.37C18.1002 10.13 18.7402 10 19.4102 10C22.1702 10 24.4102 12.24 24.4102 15C24.4102 17.76 22.1702 20 19.4102 20C16.6502 20 14.4102 17.76 14.4102 15C14.4102 13.45 15.1202 12.06 16.2302 11.15L15.4102 9.5L12.6602 16H10.3102C9.85016 18.28 7.83016 20 5.41016 20C2.65016 20 0.410156 17.76 0.410156 15C0.410156 12.24 2.65016 10 5.41016 10C8.00016 10 10.1302 11.97 10.4102 14.5H10.9902L8.71016 9H7.91016C7.50016 9 7.16016 8.66 7.16016 8.25C7.16016 7.84 7.50016 7.5 7.91016 7.5H10.6602C11.0702 7.5 11.4102 7.84 11.4102 8.25C11.4102 8.66 11.0702 9 10.6602 9H10.3802L12.1502 13.36ZM5.41016 11.5C3.48016 11.5 1.91016 13.07 1.91016 15C1.91016 16.93 3.48016 18.5 5.41016 18.5C7.00016 18.5 8.34016 17.45 8.77016 16H4.41016V14.5H8.88016C8.63016 12.8 7.17016 11.5 5.41016 11.5ZM19.4102 11.5C18.9802 11.5 18.5602 11.58 18.1802 11.72L20.1102 15.68L18.7602 16.34L16.9102 12.55C16.2902 13.18 15.9102 14.05 15.9102 15C15.9102 16.93 17.4802 18.5 19.4102 18.5C21.3402 18.5 22.9102 16.93 22.9102 15C22.9102 13.07 21.3402 11.5 19.4102 11.5Z" fill="black"/>
</g>
</g>
</svg>
