<svg width="25" height="24" viewBox="0 0 25 24" fill="none" xmlns="http://www.w3.org/2000/svg">
<g id="213">
<g id="Group">
<path id="Vector" d="M21.4102 11.5V10L13.9102 9V5H9.41016V6.5H12.4102V14.3H11.4102L9.41016 10C9.71016 9.9 9.91016 9.6 9.91016 9.3C9.91016 8.9 9.61016 8.5 9.21016 8.5H7.21016C6.71016 8.5 6.41016 8.8 6.41016 9.2C6.41016 9.6 6.71016 10 7.21016 10H7.81016L9.81016 14.2H8.31016C8.01016 12.4 6.41016 11 4.41016 11C2.21016 11 0.410156 12.8 0.410156 15C0.410156 17.2 2.21016 19 4.41016 19C6.41016 19 8.01016 17.6 8.31016 15.8H16.9102C17.1102 13.4 19.0102 11.5 21.4102 11.5ZM6.81016 15.8C6.51016 16.8 5.51016 17.6 4.41016 17.6C3.01016 17.6 1.91016 16.5 1.91016 15.1C1.91016 13.7 3.01016 12.6 4.41016 12.6C5.51016 12.6 6.51016 13.3 6.81016 14.4H4.41016V15.9H6.81016M21.4102 13C19.7102 13 18.4102 14.3 18.4102 16C18.4102 17.7 19.7102 19 21.4102 19C23.1102 19 24.4102 17.7 24.4102 16C24.4102 14.3 23.1102 13 21.4102 13ZM21.4102 17.5C20.6102 17.5 19.9102 16.8 19.9102 16C19.9102 15.2 20.6102 14.5 21.4102 14.5C22.2102 14.5 22.9102 15.2 22.9102 16C22.9102 16.8 22.2102 17.5 21.4102 17.5Z" fill="black"/>
</g>
</g>
</svg>
