<svg width="25" height="24" viewBox="0 0 25 24" fill="none" xmlns="http://www.w3.org/2000/svg">
<g id="214">
<g id="Group">
<path id="Vector" d="M19.4102 7C18.8502 7 18.3202 7.11 17.8202 7.28L14.8702 1.5H11.4102V3H13.9502L14.8302 4.72L12.4102 10.13L10.6402 5.95C10.9102 5.85 11.1502 5.58 11.1502 5.25C11.1502 4.84 10.8202 4.5 10.4102 4.5H8.41016C7.99016 4.5 7.65016 4.84 7.65016 5.25C7.65016 5.66 7.99016 6 8.41016 6H9.02016L11.2702 11.25H10.3302C9.97016 8.85 7.91016 7 5.41016 7C2.65016 7 0.410156 9.24 0.410156 12C0.410156 14.76 2.65016 17 5.41016 17C7.91016 17 9.97016 15.15 10.3302 12.75H12.9102L15.7002 6.43L16.4902 7.96C15.2302 8.87 14.4102 10.34 14.4102 12C14.4102 14.76 16.6502 17 19.4102 17C22.1702 17 24.4102 14.76 24.4102 12C24.4102 9.24 22.1702 7 19.4102 7ZM5.41016 15.5C3.48016 15.5 1.91016 13.93 1.91016 12C1.91016 10.07 3.48016 8.5 5.41016 8.5C7.08016 8.5 8.48016 9.68 8.82016 11.25H4.41016V12.75H8.82016C8.48016 14.32 7.08016 15.5 5.41016 15.5ZM19.4102 15.5C17.4802 15.5 15.9102 13.93 15.9102 12C15.9102 10.92 16.4102 9.97 17.1802 9.33L18.9802 12.85L20.3002 12.13L18.5102 8.63C18.8002 8.56 19.1002 8.5 19.4102 8.5C21.3402 8.5 22.9102 10.07 22.9102 12C22.9102 13.93 21.3402 15.5 19.4102 15.5ZM11.4102 20H7.41016L13.4102 23V21H17.4102L11.4102 18V20Z" fill="black"/>
</g>
</g>
</svg>
