<svg width="25" height="24" viewBox="0 0 25 24" fill="none" xmlns="http://www.w3.org/2000/svg">
<g id="215">
<path id="Vector" d="M11.4102 13H13.4102V15H11.4102M11.4102 9H13.4102V11H11.4102M11.4102 17H13.4102C13.9406 17 14.4493 16.7893 14.8244 16.4142C15.1994 16.0391 15.4102 15.5304 15.4102 15V13.5C15.4102 13.1022 15.2521 12.7206 14.9708 12.4393C14.6895 12.158 14.308 12 13.9102 12C14.308 12 14.6895 11.842 14.9708 11.5607C15.2521 11.2794 15.4102 10.8978 15.4102 10.5V9C15.4102 8.46957 15.1994 7.96086 14.8244 7.58579C14.4493 7.21071 13.9406 7 13.4102 7H11.4102C10.8797 7 10.371 7.21071 9.99594 7.58579C9.62087 7.96086 9.41016 8.46957 9.41016 9V10.5C9.41016 10.8978 9.56819 11.2794 9.8495 11.5607C10.1308 11.842 10.5123 12 10.9102 12C10.5123 12 10.1308 12.158 9.8495 12.4393C9.56819 12.7206 9.41016 13.1022 9.41016 13.5V15C9.41016 15.5304 9.62087 16.0391 9.99594 16.4142C10.371 16.7893 10.8797 17 11.4102 17ZM12.4102 1C6.33016 1 1.41016 5.92 1.41016 12C1.41016 18.08 6.33016 23 12.4102 23C18.4902 23 23.4102 18.08 23.4102 12C23.4102 5.92 18.4902 1 12.4102 1ZM12.4102 19C10.5536 19 8.77316 18.2625 7.46041 16.9497C6.14765 15.637 5.41016 13.8565 5.41016 12C5.41016 10.1435 6.14765 8.36301 7.46041 7.05025C8.77316 5.7375 10.5536 5 12.4102 5C14.2667 5 16.0471 5.7375 17.3599 7.05025C18.6727 8.36301 19.4102 10.1435 19.4102 12C19.4102 13.8565 18.6727 15.637 17.3599 16.9497C16.0471 18.2625 14.2667 19 12.4102 19Z" fill="black"/>
</g>
</svg>
