<svg width="25" height="24" viewBox="0 0 25 24" fill="none" xmlns="http://www.w3.org/2000/svg">
<g id="216">
<path id="Vector" d="M20.4102 22H18.4102V17H20.4102M6.41016 22H4.41016V17H6.41016M23.4102 4V13C23.4102 13.5304 23.1994 14.0391 22.8244 14.4142C22.4493 14.7893 21.9406 15 21.4102 15H3.41016C2.87972 15 2.37102 14.7893 1.99594 14.4142C1.62087 14.0391 1.41016 13.5304 1.41016 13V4C1.41016 3.46957 1.62087 2.96086 1.99594 2.58579C2.37102 2.21071 2.87972 2 3.41016 2H21.4102C21.9406 2 22.4493 2.21071 22.8244 2.58579C23.1994 2.96086 23.4102 3.46957 23.4102 4ZM21.4102 4H3.41016V13H21.4102M20.4102 6H15.4102V8H20.4102M18.4102 9H15.4102V11H18.4102M14.4102 11H4.41016L7.14016 7.36L9.14016 10.09L9.87016 9.55L8.61016 7.82L10.3202 5.55L14.4102 11Z" fill="black"/>
</g>
</svg>
