<svg width="25" height="24" viewBox="0 0 25 24" fill="none" xmlns="http://www.w3.org/2000/svg">
<g id="217">
<g id="Group">
<path id="Vector" d="M16.4102 1.2C15.4102 1.2 14.6102 2 14.6102 3C14.6102 4 15.4102 4.8 16.4102 4.8C17.4102 4.8 18.2102 4 18.2102 3C18.2102 2 17.4102 1.2 16.4102 1.2ZM12.8102 4.1C12.3402 4.1 11.9102 4.29 11.6102 4.6L7.91016 8.29C7.60016 8.6 7.41016 9 7.41016 9.5C7.41016 10.13 7.74016 10.66 8.26016 10.97L11.6102 13V18H13.4102V11.5L11.1602 9.85L13.4802 7.5L15.2102 10H19.4102V8.2H16.2102L14.2702 4.93C13.9802 4.43 13.4102 4.1 12.8102 4.1ZM10.4102 3H3.41016C2.86016 3 2.41016 2.55 2.41016 2C2.41016 1.45 2.86016 1 3.41016 1H13.2002C12.9902 1.34 12.8202 1.71 12.7302 2.11C11.8702 2.13 11.0602 2.45 10.4102 3ZM5.41016 12C2.65016 12 0.410156 14.24 0.410156 17C0.410156 19.76 2.65016 22 5.41016 22C8.17016 22 10.4102 19.76 10.4102 17C10.4102 14.24 8.17016 12 5.41016 12ZM5.41016 20.5C3.48016 20.5 1.91016 18.93 1.91016 17C1.91016 15.07 3.48016 13.5 5.41016 13.5C7.34016 13.5 8.91016 15.07 8.91016 17C8.91016 18.93 7.34016 20.5 5.41016 20.5ZM19.4102 12C16.6502 12 14.4102 14.24 14.4102 17C14.4102 19.76 16.6502 22 19.4102 22C22.1702 22 24.4102 19.76 24.4102 17C24.4102 14.24 22.1702 12 19.4102 12ZM19.4102 20.5C17.4802 20.5 15.9102 18.93 15.9102 17C15.9102 15.07 17.4802 13.5 19.4102 13.5C21.3402 13.5 22.9102 15.07 22.9102 17C22.9102 18.93 21.3402 20.5 19.4102 20.5ZM5.73016 11H1.41016C0.858156 11 0.410156 10.55 0.410156 10C0.410156 9.45 0.858156 9 1.41016 9H5.46016C5.44016 9.16 5.41016 9.33 5.41016 9.5C5.41016 10.03 5.53016 10.54 5.73016 11ZM6.41016 7H2.41016C1.86016 7 1.41016 6.55 1.41016 6C1.41016 5.45 1.86016 5 2.41016 5H8.38016L6.50016 6.87C6.46016 6.91 6.41016 6.96 6.41016 7Z" fill="black"/>
</g>
</g>
</svg>
