<svg width="25" height="24" viewBox="0 0 25 24" fill="none" xmlns="http://www.w3.org/2000/svg">
<g id="218">
<g id="Group">
<path id="Vector" d="M5.41016 20.5C4.4819 20.5 3.59166 20.1312 2.93528 19.4748C2.27891 18.8184 1.91016 17.9282 1.91016 17C1.91016 16.0717 2.27891 15.1815 2.93528 14.5251C3.59166 13.8687 4.4819 13.5 5.41016 13.5C6.33841 13.5 7.22865 13.8687 7.88503 14.5251C8.54141 15.1815 8.91016 16.0717 8.91016 17C8.91016 17.9282 8.54141 18.8184 7.88503 19.4748C7.22865 20.1312 6.33841 20.5 5.41016 20.5ZM5.41016 12C4.08407 12 2.8123 12.5267 1.87462 13.4644C0.93694 14.4021 0.410156 15.6739 0.410156 17C0.410156 18.326 0.93694 19.5978 1.87462 20.5355C2.8123 21.4732 4.08407 22 5.41016 22C6.73624 22 8.00801 21.4732 8.94569 20.5355C9.88337 19.5978 10.4102 18.326 10.4102 17C10.4102 15.6739 9.88337 14.4021 8.94569 13.4644C8.00801 12.5267 6.73624 12 5.41016 12ZM15.2102 9.99995H19.4102V8.19995H16.2102L14.2702 4.92995C13.9802 4.42995 13.4102 4.09995 12.8102 4.09995C12.3402 4.09995 11.9102 4.28995 11.6102 4.59995L7.91016 8.28995C7.60016 8.59995 7.41016 8.99995 7.41016 9.49995C7.41016 10.13 7.74016 10.66 8.26016 10.97L11.6102 13V18H13.4102V11.5L11.1602 9.84995L13.4802 7.49995M19.4102 20.5C18.4819 20.5 17.5917 20.1312 16.9353 19.4748C16.2789 18.8184 15.9102 17.9282 15.9102 17C15.9102 16.0717 16.2789 15.1815 16.9353 14.5251C17.5917 13.8687 18.4819 13.5 19.4102 13.5C20.3384 13.5 21.2287 13.8687 21.885 14.5251C22.5414 15.1815 22.9102 16.0717 22.9102 17C22.9102 17.9282 22.5414 18.8184 21.885 19.4748C21.2287 20.1312 20.3384 20.5 19.4102 20.5ZM19.4102 12C18.0841 12 16.8123 12.5267 15.8746 13.4644C14.9369 14.4021 14.4102 15.6739 14.4102 17C14.4102 18.326 14.9369 19.5978 15.8746 20.5355C16.8123 21.4732 18.0841 22 19.4102 22C20.0668 22 20.7169 21.8706 21.3236 21.6193C21.9302 21.3681 22.4814 20.9998 22.9457 20.5355C23.41 20.0712 23.7783 19.52 24.0296 18.9134C24.2808 18.3067 24.4102 17.6566 24.4102 17C24.4102 16.3433 24.2808 15.6932 24.0296 15.0865C23.7783 14.4799 23.41 13.9287 22.9457 13.4644C22.4814 13.0001 21.9302 12.6318 21.3236 12.3806C20.7169 12.1293 20.0668 12 19.4102 12ZM16.4102 4.79995C17.4102 4.79995 18.2102 3.99995 18.2102 2.99995C18.2102 1.99995 17.4102 1.19995 16.4102 1.19995C15.4102 1.19995 14.6102 1.99995 14.6102 2.99995C14.6102 3.99995 15.4102 4.79995 16.4102 4.79995Z" fill="black"/>
</g>
</g>
</svg>
