<svg width="25" height="24" viewBox="0 0 25 24" fill="none" xmlns="http://www.w3.org/2000/svg">
<g id="219">
<path id="Vector" d="M15.9102 5.06V2H12.4102V4H13.9102V5.04C13.1202 5.11 12.3502 5.27 11.6102 5.5C11.4402 5.2 11.1302 5 10.7702 5H7.41016C6.86016 5 6.41016 5.45 6.41016 6C6.41016 6.55 6.86016 7 7.41016 7H8.46016C5.50016 9 3.53016 12.36 3.41016 16.18C2.26016 16.59 1.41016 17.69 1.41016 19C1.41016 20.66 2.75016 22 4.41016 22C6.07016 22 7.41016 20.66 7.41016 19C7.41016 17.7 6.58016 16.61 5.41016 16.19C5.48016 14.67 5.87016 13.25 6.55016 12C6.46016 12.5 6.41016 13 6.41016 13.5C6.41016 18.19 10.2202 22 14.9102 22C19.6002 22 23.4102 18.19 23.4102 13.5C23.4102 9.14 20.1302 5.56 15.9102 5.06ZM4.41016 20C3.86016 20 3.41016 19.55 3.41016 19C3.41016 18.45 3.86016 18 4.41016 18C4.96016 18 5.41016 18.45 5.41016 19C5.41016 19.55 4.96016 20 4.41016 20ZM14.9102 20C11.3302 20 8.41016 17.08 8.41016 13.5C8.41016 10.26 10.8002 7.57 13.9102 7.09V15H15.9102V7.09C19.0202 7.57 21.4102 10.26 21.4102 13.5C21.4102 17.08 18.4902 20 14.9102 20Z" fill="black"/>
</g>
</svg>
