<svg width="25" height="24" viewBox="0 0 25 24" fill="none" xmlns="http://www.w3.org/2000/svg">
<g id="22">
<path id="Vector" d="M12.6102 8.99995L10.6102 6.99995H13.4102C14.5102 6.99995 15.4102 7.89995 15.4102 8.99995V11.8L13.4102 9.79995V8.99995H12.6102ZM23.4102 8.99995V6.99995H19.4102C18.3102 6.99995 17.4102 7.89995 17.4102 8.99995V11C17.4102 12.1 18.3102 13 19.4102 13H21.4102V15H18.6102L20.6102 17H21.4102C22.5102 17 23.4102 16.1 23.4102 15V13C23.4102 11.9 22.5102 11 21.4102 11H19.4102V8.99995H23.4102ZM22.5102 21.5L21.2102 22.7999L14.8102 16.4C14.5102 16.7 14.0102 17 13.4102 17H9.41016V10.9L7.41016 8.89995V17H5.41016V13H3.41016V17H1.41016V8.99995C1.41016 7.89995 2.31016 6.99995 3.41016 6.99995H5.51016L1.51016 2.99995L2.81016 1.69995L22.5102 21.5ZM5.41016 8.99995H3.41016V11H5.41016V8.99995ZM13.4102 14.9L11.4102 12.9V15H13.4102V14.9Z" fill="black"/>
</g>
</svg>
