<svg width="25" height="24" viewBox="0 0 25 24" fill="none" xmlns="http://www.w3.org/2000/svg">
<g id="220">
<path id="Vector" d="M18.4102 2H12.4102V9L9.91016 7.5L7.41016 9V2H6.41016C5.87972 2 5.37102 2.21071 4.99594 2.58579C4.62087 2.96086 4.41016 3.46957 4.41016 4V20C4.41016 20.5304 4.62087 21.0391 4.99594 21.4142C5.37102 21.7893 5.87972 22 6.41016 22H18.4102C18.9406 22 19.4493 21.7893 19.8244 21.4142C20.1994 21.0391 20.4102 20.5304 20.4102 20V4C20.4102 3.46957 20.1994 2.96086 19.8244 2.58579C19.4493 2.21071 18.9406 2 18.4102 2ZM14.4102 12C14.8057 12 15.1924 12.1173 15.5213 12.3371C15.8502 12.5568 16.1065 12.8692 16.2579 13.2346C16.4093 13.6001 16.4489 14.0022 16.3717 14.3902C16.2946 14.7781 16.1041 15.1345 15.8244 15.4142C15.5447 15.6939 15.1883 15.8844 14.8003 15.9616C14.4124 16.0387 14.0102 15.9991 13.6448 15.8478C13.2793 15.6964 12.967 15.44 12.7472 15.1111C12.5275 14.7822 12.4102 14.3956 12.4102 14C12.4102 13.4696 12.6209 12.9609 12.9959 12.5858C13.371 12.2107 13.8797 12 14.4102 12ZM18.4102 20H10.4102V19C10.4102 17.67 13.0802 17 14.4102 17C15.7402 17 18.4102 17.67 18.4102 19V20Z" fill="black"/>
</g>
</svg>
