<svg width="25" height="24" viewBox="0 0 25 24" fill="none" xmlns="http://www.w3.org/2000/svg">
<g id="221">
<path id="Vector" d="M18.4102 2C18.9406 2 19.4493 2.21071 19.8244 2.58579C20.1994 2.96086 20.4102 3.46957 20.4102 4V20C20.4102 20.5304 20.1994 21.0391 19.8244 21.4142C19.4493 21.7893 18.9406 22 18.4102 22H6.41016C5.87972 22 5.37102 21.7893 4.99594 21.4142C4.62087 21.0391 4.41016 20.5304 4.41016 20V4C4.41016 3.46957 4.62087 2.96086 4.99594 2.58579C5.37102 2.21071 5.87972 2 6.41016 2H18.4102ZM18.4102 4H13.4102V9L10.9102 6.7L8.41016 9V4H6.41016V20H18.4102M13.4102 11C13.8057 11 14.1924 11.1173 14.5213 11.3371C14.8502 11.5568 15.1065 11.8692 15.2579 12.2346C15.4093 12.6001 15.4489 13.0022 15.3717 13.3902C15.2946 13.7781 15.1041 14.1345 14.8244 14.4142C14.5447 14.6939 14.1883 14.8844 13.8003 14.9616C13.4124 15.0387 13.0102 14.9991 12.6448 14.8478C12.2793 14.6964 11.967 14.44 11.7472 14.1111C11.5275 13.7822 11.4102 13.3956 11.4102 13C11.4102 12.4696 11.6209 11.9609 11.9959 11.5858C12.371 11.2107 12.8797 11 13.4102 11ZM17.4102 19H9.41016V18C9.41016 16.67 12.0802 16 13.4102 16C14.7402 16 17.4102 16.67 17.4102 18V19Z" fill="black"/>
</g>
</svg>
