<svg width="25" height="24" viewBox="0 0 25 24" fill="none" xmlns="http://www.w3.org/2000/svg">
<g id="228">
<path id="Vector" d="M6.22016 2C5.24016 2.09 4.41016 3 4.41016 4V20C4.41016 21.05 5.36016 22 6.41016 22H18.4102C19.4602 22 20.4102 21.05 20.4102 20V4C20.4102 2.89 19.5102 2 18.4102 2H12.4102V9L9.91016 7.5L7.41016 9V2H6.41016C6.35016 2 6.28016 2 6.22016 2ZM12.4102 13H13.4102C13.6754 13 13.9297 13.1054 14.1173 13.2929C14.3048 13.4804 14.4102 13.7348 14.4102 14V18H13.4102V16H12.4102V18H11.4102V14C11.4102 13.7348 11.5155 13.4804 11.703 13.2929C11.8906 13.1054 12.1449 13 12.4102 13ZM12.4102 14V15H13.4102V14H12.4102ZM15.4102 15H18.4102V16L16.4102 19H18.4102V20H15.4102V19L17.4102 16H15.4102V15Z" fill="black"/>
</g>
</svg>
