<svg width="25" height="24" viewBox="0 0 25 24" fill="none" xmlns="http://www.w3.org/2000/svg">
<g id="23">
<path id="Vector" d="M16.3802 13.8301C15.4902 14.3501 14.7502 15.0901 14.2302 16.0001L11.9602 11.6301L8.07016 15.5001L8.41016 18.0001L7.36016 19.0601L5.59016 15.8701L2.41016 14.1101L3.47016 13.0501L5.95016 13.4001L9.84016 9.50006L2.41016 5.62006L3.82016 4.21006L13.0202 6.33006L16.9102 2.44006C17.4902 1.85006 18.4402 1.85006 19.0302 2.44006C19.6102 3.03006 19.6102 4.00006 19.0302 4.56006L15.1402 8.45006L16.3802 13.8301ZM20.4102 18.0001V15.0001H18.4102V18.0001H15.4102V20.0001H18.4102V23.0001H20.4102V20.0001H23.4102V18.0001H20.4102Z" fill="black"/>
</g>
</svg>
