<svg width="25" height="24" viewBox="0 0 25 24" fill="none" xmlns="http://www.w3.org/2000/svg">
<g id="230">
<path id="Vector" d="M12.4102 18.5C12.4102 19.79 12.8002 21 13.4502 22H6.41016C5.30016 22 4.41016 21.11 4.41016 20V4C4.41016 2.9 5.30016 2 6.41016 2H7.41016V9L9.91016 7.5L12.4102 9V2H18.4102C19.5102 2 20.4102 2.89 20.4102 4V12.18C19.9102 12.07 19.4102 12 18.9102 12C15.3202 12 12.4102 14.91 12.4102 18.5ZM23.4102 18.5C23.4102 21 21.4102 23 18.9102 23C16.4102 23 14.4102 21 14.4102 18.5C14.4102 16 16.4102 14 18.9102 14C21.4102 14 23.4102 16 23.4102 18.5ZM20.4102 21.08L16.3302 17C16.0602 17.42 15.9102 17.94 15.9102 18.5C15.9102 20.16 17.2502 21.5 18.9102 21.5C19.4702 21.5 19.9902 21.35 20.4102 21.08ZM21.9102 18.5C21.9102 16.84 20.5702 15.5 18.9102 15.5C18.3502 15.5 17.8302 15.65 17.4102 15.92L21.4902 20C21.7602 19.58 21.9102 19.06 21.9102 18.5Z" fill="black"/>
</g>
</svg>
