<svg width="25" height="24" viewBox="0 0 25 24" fill="none" xmlns="http://www.w3.org/2000/svg">
<g id="231">
<path id="Vector" d="M13.5002 20C13.6202 20.72 13.8702 21.39 14.2202 22H6.41016C5.30016 22 4.41016 21.11 4.41016 20V4C4.41016 2.9 5.30016 2 6.41016 2H18.4102C19.5202 2 20.4102 2.9 20.4102 4V13.09C20.0802 13.04 19.7502 13 19.4102 13C19.0702 13 18.7402 13.04 18.4102 13.09V4H13.4102V12L10.9102 9.75L8.41016 12V4H6.41016V20H13.5002ZM19.4102 15L16.4102 18H18.4102V22H20.4102V18H22.4102L19.4102 15Z" fill="black"/>
</g>
</svg>
