<svg width="25" height="24" viewBox="0 0 25 24" fill="none" xmlns="http://www.w3.org/2000/svg">
<g id="232">
<path id="Vector" d="M13.4102 19C13.4102 20.1 13.7102 21.12 14.2202 22H6.41016C5.30016 22 4.41016 21.11 4.41016 20V4C4.41016 2.9 5.30016 2 6.41016 2H7.41016V9L9.91016 7.5L12.4102 9V2H18.4102C19.5102 2 20.4102 2.89 20.4102 4V13.09C20.0802 13.04 19.7502 13 19.4102 13C16.1002 13 13.4102 15.69 13.4102 19ZM19.4102 15L16.4102 18H18.4102V22H20.4102V18H22.4102L19.4102 15Z" fill="black"/>
</g>
</svg>
