<svg width="25" height="24" viewBox="0 0 25 24" fill="none" xmlns="http://www.w3.org/2000/svg">
<g id="234">
<g id="Group">
<path id="Vector" d="M6.41016 20H13.4102V22H6.41016C5.30016 22 4.41016 21.11 4.41016 20V4C4.41016 2.9 5.30016 2 6.41016 2H18.4102C19.5202 2 20.4102 2.9 20.4102 4V12.54L18.9102 11.72L18.4102 12V4H13.4102V12L10.9102 9.75L8.41016 12V4H6.41016V20ZM24.4102 17L18.9102 14L13.4102 17L18.9102 20L24.4102 17ZM15.4102 19.09V21.09L18.9102 23L22.4102 21.09V19.09L18.9102 21L15.4102 19.09Z" fill="black"/>
</g>
</g>
</svg>
