<svg width="25" height="24" viewBox="0 0 25 24" fill="none" xmlns="http://www.w3.org/2000/svg">
<g id="235">
<g id="Group">
<path id="Vector" d="M18.4102 4H13.4102V12L10.9102 9.75L8.41016 12V4H6.41016V20H12.4902C12.5902 20.71 12.8002 21.38 13.1002 22H6.41016C5.30016 22 4.41016 21.11 4.41016 20V4C4.41016 2.9 5.30016 2 6.41016 2H18.4102C19.5202 2 20.4102 2.9 20.4102 4V12.08C20.0802 12.03 19.7502 12 19.4102 12C19.0702 12 18.7402 12.03 18.4102 12.08V4ZM24.2102 20.4C24.3102 20.4 24.3102 20.5 24.2102 20.6L23.2102 22.3C23.1102 22.4 23.0102 22.4 22.9102 22.4L21.7102 22C21.4102 22.2 21.2102 22.3 20.9102 22.5L20.7102 23.8C20.7102 23.9 20.6102 24 20.5102 24H18.5102C18.4102 24 18.3102 23.9 18.2102 23.8L18.0102 22.5C17.7102 22.4 17.4102 22.2 17.2102 22L16.0102 22.5C15.9102 22.5 15.8102 22.5 15.7102 22.4L14.7102 20.7C14.6102 20.6 14.7102 20.5 14.8102 20.4L15.9102 19.6V18.6L14.8102 17.8C14.7102 17.7 14.7102 17.6 14.7102 17.5L15.7102 15.8C15.8102 15.7 15.9102 15.7 16.0102 15.7L17.2102 16.2C17.5102 16 17.7102 15.9 18.0102 15.7L18.2102 14.4C18.2102 14.3 18.3102 14.2 18.5102 14.2H20.5102C20.6102 14.2 20.7102 14.3 20.7102 14.4L20.9102 15.7C21.2102 15.8 21.5102 16 21.8102 16.2L23.0102 15.7C23.1102 15.7 23.3102 15.7 23.3102 15.8L24.3102 17.5C24.4102 17.6 24.3102 17.7 24.2102 17.8L23.1102 18.6V19.6L24.2102 20.4ZM20.9102 19C20.9102 18.2 20.2102 17.5 19.4102 17.5C18.6102 17.5 17.9102 18.2 17.9102 19C17.9102 19.8 18.6102 20.5 19.4102 20.5C20.2102 20.5 20.9102 19.8 20.9102 19Z" fill="black"/>
</g>
</g>
</svg>
