<svg width="25" height="24" viewBox="0 0 25 24" fill="none" xmlns="http://www.w3.org/2000/svg">
<g id="237">
<path id="Vector" d="M19.4102 23.3L18.8102 22.8C16.8102 20.9 15.4102 19.7 15.4102 18.2C15.4102 17 16.4102 16 17.6102 16C18.3102 16 19.0102 16.3 19.4102 16.8C19.8102 16.3 20.5102 16 21.2102 16C22.4102 16 23.4102 16.9 23.4102 18.2C23.4102 19.7 22.0102 20.9 20.0102 22.8L19.4102 23.3ZM6.41016 22C5.30016 22 4.41016 21.1 4.41016 20V4C4.41016 2.89 5.30016 2 6.41016 2H7.41016V9L9.91016 7.5L12.4102 9V2H18.4102C19.5102 2 20.4102 2.89 20.4102 4V13.08L19.4102 13C16.1002 13 13.4102 15.69 13.4102 19C13.4102 20.09 13.7002 21.12 14.2102 22H6.41016Z" fill="black"/>
</g>
</svg>
