<svg width="25" height="24" viewBox="0 0 25 24" fill="none" xmlns="http://www.w3.org/2000/svg">
<g id="239">
<path id="Vector" d="M19.8002 10.74L11.4102 19.13V22H6.41016C5.30016 22 4.41016 21.11 4.41016 20V4C4.41016 2.9 5.30016 2 6.41016 2H7.41016V9L9.91016 7.5L12.4102 9V2H18.4102C19.5102 2 20.4102 2.89 20.4102 4V10.3C20.1902 10.42 19.9802 10.56 19.8002 10.74ZM13.4102 19.96V22H15.4502L21.5802 15.88L19.5402 13.83L13.4102 19.96ZM23.2602 13.47L21.9402 12.15C21.7402 11.95 21.4102 11.95 21.2202 12.15L20.2402 13.13L22.2802 15.17L23.2602 14.19C23.4602 14 23.4602 13.67 23.2602 13.47Z" fill="black"/>
</g>
</svg>
