<svg width="25" height="24" viewBox="0 0 25 24" fill="none" xmlns="http://www.w3.org/2000/svg">
<g id="24">
<path id="Vector" d="M12.4102 20.0001C10.5536 20.0001 8.77316 19.2626 7.46041 17.9499C6.14765 16.6371 5.41016 14.8566 5.41016 13.0001C5.41016 11.1436 6.14765 9.36311 7.46041 8.05036C8.77316 6.73761 10.5536 6.00011 12.4102 6.00011C14.2667 6.00011 16.0471 6.73761 17.3599 8.05036C18.6727 9.36311 19.4102 11.1436 19.4102 13.0001C19.4102 14.8566 18.6727 16.6371 17.3599 17.9499C16.0471 19.2626 14.2667 20.0001 12.4102 20.0001ZM12.4102 4.00011C10.0232 4.00011 7.73402 4.94832 6.0462 6.63615C4.35837 8.32397 3.41016 10.6132 3.41016 13.0001C3.41016 15.3871 4.35837 17.6762 6.0462 19.3641C7.73402 21.0519 10.0232 22.0001 12.4102 22.0001C14.7971 22.0001 17.0863 21.0519 18.7741 19.3641C20.4619 17.6762 21.4102 15.3871 21.4102 13.0001C21.4102 10.6132 20.4619 8.32397 18.7741 6.63615C17.0863 4.94832 14.7971 4.00011 12.4102 4.00011ZM12.9102 8.00011H11.4102V14.0001L16.1602 16.8501L16.9102 15.6201L12.9102 13.2501V8.00011ZM8.29016 3.39011L7.01016 1.86011L2.41016 5.71011L3.70016 7.24011L8.29016 3.39011ZM22.4102 5.72011L17.8102 1.86011L16.5202 3.39011L21.1202 7.25011L22.4102 5.72011Z" fill="black"/>
</g>
</svg>
