<svg width="25" height="24" viewBox="0 0 25 24" fill="none" xmlns="http://www.w3.org/2000/svg">
<g id="241">
<path id="Vector" d="M18.4102 2H12.4102V9L9.91016 7.5L7.41016 9V2H6.41016C5.31016 2 4.41016 2.9 4.41016 4V20C4.41016 21.1 5.31016 22 6.41016 22H18.4102C19.5102 22 20.4102 21.1 20.4102 20V4C20.4102 2.89 19.5102 2 18.4102 2ZM18.0902 18.41C17.9802 18.5 16.8802 19.25 16.4602 19.5C16.0402 19.79 14.4102 20.72 14.6702 18.92C15.3002 15.28 16.5202 13.12 15.0602 14.06C14.6802 14.29 14.4602 14.43 14.3202 14.5C14.1902 14.61 14.2002 14.6 14.0902 14.41C13.9802 14.22 13.9402 14.23 14.0802 14.13C14.0802 14.13 16.3102 12.34 17.1302 12.28C17.9102 12.21 17.7202 13.17 17.6502 13.61C17.1902 15.46 16.3502 18.15 16.4802 18.54C16.5902 18.93 17.4102 18.31 17.8502 18C17.8502 18 17.9102 17.93 18.0202 18.05C18.1302 18.22 18.2402 18.3 18.0902 18.41ZM17.3802 11.06C16.8102 11.06 16.3502 10.6 16.3502 10.03C16.3502 9.46 16.8102 9 17.3802 9C17.9502 9 18.4102 9.46 18.4102 10.03C18.4102 10.6 17.9502 11.06 17.3802 11.06Z" fill="black"/>
</g>
</svg>
