<svg width="25" height="24" viewBox="0 0 25 24" fill="none" xmlns="http://www.w3.org/2000/svg">
<g id="242">
<path id="Vector" d="M14.6102 14.5V14.74C13.9102 15.34 13.4102 16.24 13.4102 17.2V20.7C13.4102 21.16 13.5102 21.6 13.6802 22H6.41016C5.30016 22 4.41016 21.11 4.41016 20V4C4.41016 2.9 5.30016 2 6.41016 2H7.41016V9L9.91016 7.5L12.4102 9V2H18.4102C19.5102 2 20.4102 2.89 20.4102 4V10.11C20.0902 10.04 19.7502 10 19.4102 10C16.8102 10 14.6102 12.06 14.6102 14.5ZM23.4102 17.3V20.8C23.4102 21.4 22.8102 22 22.1102 22H16.6102C16.0102 22 15.4102 21.4 15.4102 20.7V17.2C15.4102 16.6 16.0102 16 16.6102 16V14.5C16.6102 13.1 18.0102 12 19.4102 12C20.8102 12 22.2102 13.1 22.2102 14.5V16C22.8102 16 23.4102 16.6 23.4102 17.3ZM20.9102 14.5C20.9102 13.7 20.2102 13.2 19.4102 13.2C18.6102 13.2 17.9102 13.7 17.9102 14.5V16H20.9102V14.5Z" fill="black"/>
</g>
</svg>
