<svg width="25" height="24" viewBox="0 0 25 24" fill="none" xmlns="http://www.w3.org/2000/svg">
<g id="243">
<g id="Group">
<path id="Vector" d="M9.23016 17L13.4102 19.28V22H6.41016C5.30016 22 4.41016 21.11 4.41016 20V4C4.41016 2.9 5.30016 2 6.41016 2H7.41016V9L9.91016 7.5L12.4102 9V2H18.4102C19.5102 2 20.4102 2.89 20.4102 4V12.54L18.9102 11.72L9.23016 17ZM24.4102 17L18.9102 14L13.4102 17L18.9102 20L24.4102 17ZM15.4102 19.09V21.09L18.9102 23L22.4102 21.09V19.09L18.9102 21L15.4102 19.09Z" fill="black"/>
</g>
</g>
</svg>
