<svg width="25" height="24" viewBox="0 0 25 24" fill="none" xmlns="http://www.w3.org/2000/svg">
<g id="244">
<path id="Vector" d="M14.9602 20C15.4102 20.76 15.9102 21.44 16.3202 22H6.41016C5.30016 22 4.41016 21.11 4.41016 20V4C4.41016 2.9 5.30016 2 6.41016 2H18.4102C19.5202 2 20.4102 2.9 20.4102 4V10.22C19.9102 10.08 19.4102 10 18.9102 10C18.7402 10 18.5802 10 18.4102 10.03V4H13.4102V12L10.9102 9.75L8.41016 12V4H6.41016V20H14.9602ZM22.4102 15.5C22.4102 18.1 18.9102 22 18.9102 22C18.9102 22 15.4102 18.1 15.4102 15.5C15.4102 13.6 17.0102 12 18.9102 12C20.8102 12 22.4102 13.6 22.4102 15.5ZM20.1102 15.6C20.1102 15 19.5102 14.4 18.9102 14.4C18.3102 14.4 17.7102 14.9 17.7102 15.6C17.7102 16.2 18.2102 16.8 18.9102 16.8C19.6102 16.8 20.2102 16.2 20.1102 15.6Z" fill="black"/>
</g>
</svg>
