<svg width="25" height="24" viewBox="0 0 25 24" fill="none" xmlns="http://www.w3.org/2000/svg">
<g id="245">
<path id="Vector" d="M13.4102 15.5C13.4102 17.78 15.1102 20.41 16.3202 22H6.41016C5.30016 22 4.41016 21.11 4.41016 20V4C4.41016 2.9 5.30016 2 6.41016 2H7.41016V9L9.91016 7.5L12.4102 9V2H18.4102C19.5102 2 20.4102 2.89 20.4102 4V10.22C19.9102 10.08 19.4102 10 18.9102 10C15.9102 10 13.4102 12.5 13.4102 15.5ZM22.4102 15.5C22.4102 18.1 18.9102 22 18.9102 22C18.9102 22 15.4102 18.1 15.4102 15.5C15.4102 13.6 17.0102 12 18.9102 12C20.8102 12 22.4102 13.6 22.4102 15.5ZM20.1102 15.6C20.1102 15 19.5102 14.4 18.9102 14.4C18.3102 14.4 17.7102 14.9 17.7102 15.6C17.7102 16.2 18.2102 16.8 18.9102 16.8C19.6102 16.8 20.2102 16.2 20.1102 15.6Z" fill="black"/>
</g>
</svg>
