<svg width="25" height="24" viewBox="0 0 25 24" fill="none" xmlns="http://www.w3.org/2000/svg">
<g id="247">
<path id="Vector" d="M13.5002 20H5.41016V6H3.41016V20C3.41016 21.11 4.31016 22 5.41016 22H14.2202C13.8502 21.39 13.6102 20.71 13.5002 20ZM19.4102 2H9.41016C8.31016 2 7.41016 2.9 7.41016 4V16C7.41016 17.11 8.31016 18 9.41016 18H13.5002C13.6102 17.29 13.8502 16.61 14.2202 16H9.41016V4H11.4102V10L13.9102 7.75L16.4102 10V4H19.4102V13C20.0902 13 20.7702 13.11 21.4102 13.34V4C21.4102 2.9 20.5202 2 19.4102 2ZM23.4102 18V20H15.4102V18H23.4102Z" fill="black"/>
</g>
</svg>
