<svg width="25" height="24" viewBox="0 0 25 24" fill="none" xmlns="http://www.w3.org/2000/svg">
<g id="25">
<path id="Vector" d="M15.4102 18.66V22H5.41016V18.66C8.50016 20.45 12.3202 20.45 15.4102 18.66ZM22.4102 4C22.4102 3.46957 22.1994 2.96086 21.8244 2.58579C21.4493 2.21071 20.9406 2 20.4102 2C20.1002 2 19.8002 2.07 19.5302 2.21C19.2302 2.36 18.9702 2.58 18.7702 2.85C18.1302 3.75 18.3502 5 19.2602 5.64C19.5902 5.87 20.0002 6 20.4102 6C20.4902 6 20.5702 6 20.6502 6C22.3802 10.43 21.0702 15.46 17.4102 18.5C17.0902 18.75 16.7602 19 16.4102 19.22V21H17.4102V19.74C20.5502 17.5 22.4102 13.86 22.4102 10C22.4102 8.5 22.1302 7 21.5802 5.62C22.1002 5.24 22.4102 4.64 22.4102 4ZM18.4102 10C18.4102 12.1217 17.5673 14.1566 16.067 15.6569C14.5667 17.1571 12.5319 18 10.4102 18C8.28842 18 6.25359 17.1571 4.7533 15.6569C3.25301 14.1566 2.41016 12.1217 2.41016 10C2.41016 7.87827 3.25301 5.84344 4.7533 4.34315C6.25359 2.84285 8.28842 2 10.4102 2C12.5319 2 14.5667 2.84285 16.067 4.34315C17.5673 5.84344 18.4102 7.87827 18.4102 10Z" fill="black"/>
</g>
</svg>
