<svg width="25" height="24" viewBox="0 0 25 24" fill="none" xmlns="http://www.w3.org/2000/svg">
<g id="250">
<path id="Vector" d="M6.41016 4H11.4102V12L8.91016 10.5L6.41016 12M18.4102 2H6.41016C5.87972 2 5.37102 2.21071 4.99594 2.58579C4.62087 2.96086 4.41016 3.46957 4.41016 4V20C4.41016 20.5304 4.62087 21.0391 4.99594 21.4142C5.37102 21.7893 5.87972 22 6.41016 22H18.4102C18.9406 22 19.4493 21.7893 19.8244 21.4142C20.1994 21.0391 20.4102 20.5304 20.4102 20V4C20.4102 3.46957 20.1994 2.96086 19.8244 2.58579C19.4493 2.21071 18.9406 2 18.4102 2Z" fill="black"/>
</g>
</svg>
