<svg width="25" height="24" viewBox="0 0 25 24" fill="none" xmlns="http://www.w3.org/2000/svg">
<g id="252">
<path id="Vector" d="M9.41016 1H19.4102C19.9406 1 20.4493 1.21071 20.8244 1.58579C21.1994 1.96086 21.4102 2.46957 21.4102 3V19L19.4102 18.13V3H7.41016C7.41016 2.46957 7.62087 1.96086 7.99594 1.58579C8.37102 1.21071 8.87972 1 9.41016 1ZM15.4102 20V7H5.41016V20L10.4102 17.82L15.4102 20ZM15.4102 5C16.5202 5 17.4102 5.9 17.4102 7V23L10.4102 20L3.41016 23V7C3.41016 6.46957 3.62087 5.96086 3.99594 5.58579C4.37102 5.21071 4.87972 5 5.41016 5H15.4102Z" fill="black"/>
</g>
</svg>
