<svg width="25" height="24" viewBox="0 0 25 24" fill="none" xmlns="http://www.w3.org/2000/svg">
<g id="253">
<path id="Vector" d="M17.4102 3C17.9406 3 18.4493 3.21071 18.8244 3.58579C19.1994 3.96086 19.4102 4.46957 19.4102 5V21L12.4102 18L5.41016 21V5C5.41016 3.89 6.31016 3 7.41016 3H17.4102ZM11.4102 11C10.8797 11 10.371 11.2107 9.99594 11.5858C9.62087 11.9609 9.41016 12.4696 9.41016 13C9.41016 13.5304 9.62087 14.0391 9.99594 14.4142C10.371 14.7893 10.8797 15 11.4102 15C11.9406 15 12.4493 14.7893 12.8244 14.4142C13.1994 14.0391 13.4102 13.5304 13.4102 13V8H16.4102V6H12.4102V11.27C12.1202 11.1 11.7702 11 11.4102 11Z" fill="black"/>
</g>
</svg>
