<svg width="25" height="24" viewBox="0 0 25 24" fill="none" xmlns="http://www.w3.org/2000/svg">
<g id="260">
<path id="Vector" d="M18.4102 0H6.41016C5.30016 0 4.41016 0.895 4.41016 2V18C4.41016 19.11 5.30016 20 6.41016 20H18.4102C19.5202 20 20.4102 19.11 20.4102 18V2C20.4102 0.895 19.5202 0 18.4102 0ZM18.4102 18H6.41016V2H8.41016V10L10.9102 7.75L13.4102 10V2H18.4102V18ZM7.41016 22H9.41016V24H7.41016V22ZM11.4102 22H13.4102V24H11.4102V22ZM15.4102 22H17.4102V24H15.4102V22Z" fill="black"/>
</g>
</svg>
