<svg width="25" height="24" viewBox="0 0 25 24" fill="none" xmlns="http://www.w3.org/2000/svg">
<g id="261">
<path id="Vector" d="M13.5002 20H5.41016V6H3.41016V20C3.41016 20.5304 3.62087 21.0391 3.99594 21.4142C4.37102 21.7893 4.87972 22 5.41016 22H14.2202C13.8524 21.3865 13.6078 20.7071 13.5002 20ZM19.4102 2H9.41016C8.87972 2 8.37102 2.21071 7.99594 2.58579C7.62087 2.96086 7.41016 3.46957 7.41016 4V16C7.41016 16.5304 7.62087 17.0391 7.99594 17.4142C8.37102 17.7893 8.87972 18 9.41016 18H13.5002C13.6078 17.2929 13.8524 16.6135 14.2202 16H9.41016V4H11.4102V10L13.9102 7.75L16.4102 10V4H19.4102V13C20.0913 12.999 20.7676 13.114 21.4102 13.34V4C21.4102 3.46957 21.1994 2.96086 20.8244 2.58579C20.4493 2.21071 19.9406 2 19.4102 2ZM22.9502 16.88L20.8202 19L22.9502 21.12L21.5302 22.54L19.4102 20.41L17.2902 22.54L15.8702 21.12L18.0002 19L15.8702 16.88L17.2902 15.46L19.4102 17.59L21.5302 15.46L22.9502 16.88Z" fill="black"/>
</g>
</svg>
