<svg width="25" height="24" viewBox="0 0 25 24" fill="none" xmlns="http://www.w3.org/2000/svg">
<g id="262">
<path id="Vector" d="M13.5002 20C13.6202 20.72 13.8702 21.39 14.2202 22H6.41016C5.30016 22 4.41016 21.11 4.41016 20V4C4.41016 2.9 5.30016 2 6.41016 2H18.4102C19.5202 2 20.4102 2.9 20.4102 4V13.09C20.0802 13.04 19.7502 13 19.4102 13C19.0702 13 18.7402 13.04 18.4102 13.09V4H13.4102V12L10.9102 9.75L8.41016 12V4H6.41016V20H13.5002ZM22.9502 16.88L21.5302 15.47L19.4102 17.59L17.2902 15.47L15.8802 16.88L18.0002 19L15.8802 21.12L17.2902 22.54L19.4102 20.41L21.5302 22.54L22.9502 21.12L20.8202 19L22.9502 16.88Z" fill="black"/>
</g>
</svg>
