<svg width="25" height="24" viewBox="0 0 25 24" fill="none" xmlns="http://www.w3.org/2000/svg">
<g id="266">
<path id="Vector" d="M5.41016 15H3.41016V17H5.41016M3.41016 21H21.4102V19H3.41016M5.41016 11H3.41016V13H5.41016M19.4102 9H21.4102V7H19.4102M19.4102 5H21.4102V3H19.4102M5.41016 7H3.41016V9H5.41016M19.4102 17H21.4102V15H19.4102M19.4102 13H21.4102V11H19.4102M17.4102 3H15.4102V5H17.4102M13.4102 3H11.4102V5H13.4102M17.4102 11H15.4102V13H17.4102M13.4102 7H11.4102V9H13.4102M5.41016 3H3.41016V5H5.41016M13.4102 11H11.4102V13H13.4102M9.41016 3H7.41016V5H9.41016M13.4102 15H11.4102V17H13.4102M9.41016 11H7.41016V13H9.41016V11Z" fill="black"/>
</g>
</svg>
