<svg width="25" height="24" viewBox="0 0 25 24" fill="none" xmlns="http://www.w3.org/2000/svg">
<g id="267">
<path id="Vector" d="M7.41016 5L5.41016 7V8H3.41016C3.14494 8 2.89059 8.10536 2.70305 8.29289C2.51551 8.48043 2.41016 8.73478 2.41016 9V17C2.41016 17.2652 2.51551 17.5196 2.70305 17.7071C2.89059 17.8946 3.14494 18 3.41016 18H21.4102C21.6754 18 21.9297 17.8946 22.1173 17.7071C22.3048 17.5196 22.4102 17.2652 22.4102 17V9C22.4102 8.73478 22.3048 8.48043 22.1173 8.29289C21.9297 8.10536 21.6754 8 21.4102 8H19.4102V7L17.4102 5H7.41016ZM7.41016 7H17.4102V8H7.41016V7ZM11.4102 9H13.4102C13.5428 9 13.6699 9.05268 13.7637 9.14645C13.8575 9.24021 13.9102 9.36739 13.9102 9.5C13.9102 9.63261 13.8575 9.75979 13.7637 9.85355C13.6699 9.94732 13.5428 10 13.4102 10H11.4102C11.2775 10 11.1504 9.94732 11.0566 9.85355C10.9628 9.75979 10.9102 9.63261 10.9102 9.5C10.9102 9.36739 10.9628 9.24021 11.0566 9.14645C11.1504 9.05268 11.2775 9 11.4102 9ZM7.91016 10.5C8.70581 10.5 9.46887 10.8161 10.0315 11.3787C10.5941 11.9413 10.9102 12.7044 10.9102 13.5C10.9102 14.2956 10.5941 15.0587 10.0315 15.6213C9.46887 16.1839 8.70581 16.5 7.91016 16.5C7.11451 16.5 6.35145 16.1839 5.78884 15.6213C5.22623 15.0587 4.91016 14.2956 4.91016 13.5C4.91016 12.7044 5.22623 11.9413 5.78884 11.3787C6.35145 10.8161 7.11451 10.5 7.91016 10.5ZM16.9102 10.5C17.7058 10.5 18.4689 10.8161 19.0315 11.3787C19.5941 11.9413 19.9102 12.7044 19.9102 13.5C19.9102 14.2956 19.5941 15.0587 19.0315 15.6213C18.4689 16.1839 17.7058 16.5 16.9102 16.5C16.1145 16.5 15.3514 16.1839 14.7888 15.6213C14.2262 15.0587 13.9102 14.2956 13.9102 13.5C13.9102 12.7044 14.2262 11.9413 14.7888 11.3787C15.3514 10.8161 16.1145 10.5 16.9102 10.5ZM7.91016 12C7.51233 12 7.1308 12.158 6.8495 12.4393C6.56819 12.7206 6.41016 13.1022 6.41016 13.5C6.41016 13.8978 6.56819 14.2794 6.8495 14.5607C7.1308 14.842 7.51233 15 7.91016 15C8.30798 15 8.68951 14.842 8.97082 14.5607C9.25212 14.2794 9.41016 13.8978 9.41016 13.5C9.41016 13.1022 9.25212 12.7206 8.97082 12.4393C8.68951 12.158 8.30798 12 7.91016 12ZM16.9102 12C16.5123 12 16.1308 12.158 15.8495 12.4393C15.5682 12.7206 15.4102 13.1022 15.4102 13.5C15.4102 13.8978 15.5682 14.2794 15.8495 14.5607C16.1308 14.842 16.5123 15 16.9102 15C17.308 15 17.6895 14.842 17.9708 14.5607C18.2521 14.2794 18.4102 13.8978 18.4102 13.5C18.4102 13.1022 18.2521 12.7206 17.9708 12.4393C17.6895 12.158 17.308 12 16.9102 12Z" fill="black"/>
</g>
</svg>
