<svg width="25" height="24" viewBox="0 0 25 24" fill="none" xmlns="http://www.w3.org/2000/svg">
<g id="27">
<path id="Vector" d="M10.9103 7.3L9.41025 5.8C10.3103 5.3 11.3103 5 12.4103 5C15.7103 5 18.4103 7.7 18.4103 11V14.8L16.4103 12.8V11C16.4103 8.8 14.6103 7 12.4103 7C11.9103 7 11.4103 7.1 10.9103 7.3ZM20.5103 4.8L19.1103 3.4L17.0103 5.5L18.4103 6.9L20.5103 4.8ZM19.9103 10.5V12.5H22.9103V10.5H19.9103ZM4.91025 10.5H1.91025V12.5H4.91025V10.5ZM2.81025 1.7L22.5103 21.4L21.2103 22.7L20.5103 22H4.41025C4.41025 20.9 5.31025 20 6.41025 20H18.5103L17.5103 19H6.41025V11C6.41025 10.1 6.61025 9.2 7.01025 8.5L1.51025 3L2.81025 1.7ZM8.41025 17H15.5103L8.51025 10C8.51025 10.3 8.41025 10.7 8.41025 11V17ZM13.4103 1H11.4103V4H13.4103V1Z" fill="black"/>
</g>
</svg>
