<svg width="25" height="24" viewBox="0 0 25 24" fill="none" xmlns="http://www.w3.org/2000/svg">
<g id="270">
<path id="Vector" d="M15.4102 5H17.4102V3H15.4102M19.4102 21H21.4102V19H19.4102M19.4102 13H21.4102V11H19.4102M19.4102 5H21.4102V3H19.4102M19.4102 17H21.4102V15H19.4102M15.4102 21H17.4102V19H15.4102M19.4102 9H21.4102V7H19.4102M3.41016 21H5.41016V3H3.41016M7.41016 5H9.41016V3H7.41016M7.41016 21H9.41016V19H7.41016M11.4102 5H13.4102V3H11.4102M11.4102 21H13.4102V19H11.4102V21Z" fill="black"/>
</g>
</svg>
