<svg width="25" height="24" viewBox="0 0 25 24" fill="none" xmlns="http://www.w3.org/2000/svg">
<g id="272">
<path id="Vector" d="M3.41016 16C3.41016 18.8 5.61016 21 8.41016 21H10.4102V19H8.41016C6.71016 19 5.41016 17.7 5.41016 16V14H3.41016V16ZM21.4102 8C21.4102 5.2 19.2102 3 16.4102 3H14.4102V5H16.4102C18.1102 5 19.4102 6.3 19.4102 8V10H21.4102V8ZM16.4102 21C19.2102 21 21.4102 18.8 21.4102 16V14H19.4102V16C19.4102 17.7 18.1102 19 16.4102 19H14.4102V21H16.4102ZM8.41016 3C5.61016 3 3.41016 5.2 3.41016 8V10H5.41016V8C5.41016 6.3 6.71016 5 8.41016 5H10.4102V3H8.41016Z" fill="black"/>
</g>
</svg>
