<svg width="25" height="24" viewBox="0 0 25 24" fill="none" xmlns="http://www.w3.org/2000/svg">
<g id="276">
<path id="Vector" d="M12.4102 2C17.9102 2 22.4102 5.36 22.4102 9.5C22.4102 11.19 21.6702 12.75 20.4102 14V22H4.41016V14C3.15016 12.75 2.41016 11.19 2.41016 9.5C2.41016 5.36 6.91016 2 12.4102 2ZM18.4102 13.14C19.6502 12.17 20.4102 10.89 20.4102 9.5C20.4102 6.46 16.8302 4 12.4102 4C7.99016 4 4.41016 6.46 4.41016 9.5C4.41016 10.89 5.17016 12.17 6.41016 13.14V20H18.4102V13.14ZM8.41016 18V14H12.4102V18H8.41016Z" fill="black"/>
</g>
</svg>
