<svg width="25" height="24" viewBox="0 0 25 24" fill="none" xmlns="http://www.w3.org/2000/svg">
<g id="278">
<path id="Vector" d="M10.4102 2H14.4102C15.5202 2 16.4102 2.9 16.4102 4V6H20.4102C21.5202 6 22.4102 6.9 22.4102 8V13.53C21.8302 13 21.1602 12.6 20.4102 12.34V8H4.41016V19H12.4902C12.6102 19.72 12.8602 20.39 13.2102 21H4.41016C3.31016 21 2.41016 20.11 2.41016 19V8C2.41016 6.9 3.31016 6 4.41016 6H8.41016V4C8.41016 2.9 9.31016 2 10.4102 2ZM14.4102 6V4H10.4102V6H14.4102ZM19.4102 18.5V17H15.4102V15H19.4102V13.5L22.4102 16L19.4102 18.5ZM17.4102 19H21.4102V21H17.4102V22.5L14.4102 20L17.4102 17.5V19Z" fill="black"/>
</g>
</svg>
