<svg width="25" height="24" viewBox="0 0 25 24" fill="none" xmlns="http://www.w3.org/2000/svg">
<g id="279">
<path id="Vector" d="M21.4102 11.11V7C21.4102 6.46957 21.1994 5.96086 20.8244 5.58579C20.4493 5.21071 19.9406 5 19.4102 5H15.4102V3C15.4102 2.46957 15.1994 1.96086 14.8244 1.58579C14.4493 1.21071 13.9406 1 13.4102 1H9.41016C8.87972 1 8.37102 1.21071 7.99594 1.58579C7.62087 1.96086 7.41016 2.46957 7.41016 3V5H3.41016C2.87972 5 2.37102 5.21071 1.99594 5.58579C1.62087 5.96086 1.41016 6.46957 1.41016 7V18C1.41016 18.5304 1.62087 19.0391 1.99594 19.4142C2.37102 19.7893 2.87972 20 3.41016 20H10.6702C11.2198 20.8028 11.9308 21.4821 12.7577 21.9948C13.5846 22.5074 14.5093 22.842 15.4727 22.9773C16.4362 23.1126 17.4173 23.0455 18.3534 22.7804C19.2895 22.5153 20.16 22.058 20.9095 21.4376C21.6589 20.8173 22.2709 20.0475 22.7062 19.1774C23.1415 18.3073 23.3907 17.356 23.4378 16.3842C23.4849 15.4125 23.3289 14.4416 22.9798 13.5334C22.6307 12.6253 22.0961 11.8 21.4102 11.11ZM9.41016 3H13.4102V5H9.41016M19.4102 20C18.5447 20.6491 17.492 21 16.4102 21C15.3283 21 14.2756 20.6491 13.4102 20C12.5706 19.3704 11.9505 18.4925 11.6376 17.4908C11.3247 16.4892 11.3349 15.4144 11.6667 14.4189C11.9986 13.4233 12.6353 12.5574 13.4866 11.9438C14.3379 11.3302 15.3607 11 16.4102 11C17.4596 11 18.4824 11.3302 19.3337 11.9438C20.185 12.5574 20.8217 13.4233 21.1536 14.4189C21.4854 15.4144 21.4956 16.4892 21.1827 17.4908C20.8698 18.4925 20.2497 19.3704 19.4102 20ZM15.4102 13H16.9102V15.82L19.3502 17.23L18.6002 18.53L15.4102 16.69V13Z" fill="black"/>
</g>
</svg>
