<svg width="25" height="24" viewBox="0 0 25 24" fill="none" xmlns="http://www.w3.org/2000/svg">
<g id="28">
<path id="Vector" d="M18.4103 14.8L9.41025 5.8C10.3103 5.3 11.3103 5 12.4103 5C15.7103 5 18.4103 7.7 18.4103 11V14.8ZM20.5103 4.8L19.1103 3.4L17.0103 5.5L18.4103 6.9L20.5103 4.8ZM19.9103 10.5V12.5H22.9103V10.5H19.9103ZM4.91025 10.5H1.91025V12.5H4.91025V10.5ZM1.51025 3L7.01025 8.5C6.61025 9.2 6.41025 10.1 6.41025 11V19H17.5103L18.5103 20H6.41025C5.31025 20 4.41025 20.9 4.41025 22H20.5103L21.2103 22.7L22.5103 21.4L2.81025 1.7L1.51025 3ZM13.4103 1H11.4103V4H13.4103V1Z" fill="black"/>
</g>
</svg>
