<svg width="25" height="24" viewBox="0 0 25 24" fill="none" xmlns="http://www.w3.org/2000/svg">
<g id="280">
<path id="Vector" d="M20.4102 6C20.9902 6 21.4602 6.2 21.8302 6.59C22.2102 7 22.4102 7.45 22.4102 8V19C22.4102 19.55 22.2102 20 21.8302 20.41C21.4602 20.8 20.9902 21 20.4102 21H4.41016C3.83016 21 3.36016 20.8 2.99016 20.41C2.61016 20 2.41016 19.55 2.41016 19V8C2.41016 7.45 2.61016 7 2.99016 6.59C3.36016 6.2 3.83016 6 4.41016 6H8.41016V4C8.41016 3.42 8.61016 2.95 8.99016 2.58C9.36016 2.2 9.83016 2 10.4102 2H14.4102C14.9902 2 15.4602 2.2 15.8302 2.58C16.2102 2.95 16.4102 3.42 16.4102 4V6H20.4102ZM4.41016 8V19H20.4102V8H4.41016ZM14.4102 6V4H10.4102V6H14.4102ZM10.8702 17.5L17.4602 10.91L16.0502 9.5L10.8702 14.67L8.78016 12.59L7.37016 14L10.8702 17.5Z" fill="black"/>
</g>
</svg>
