<svg width="25" height="24" viewBox="0 0 25 24" fill="none" xmlns="http://www.w3.org/2000/svg">
<g id="282">
<path id="Vector" d="M21.4102 11.11V7C21.4106 6.47185 21.2021 5.96498 20.8302 5.59C20.6488 5.39662 20.4284 5.24401 20.1836 5.14229C19.9388 5.04057 19.6751 4.99207 19.4102 5H15.4102V3C15.4175 2.73599 15.3697 2.47336 15.2698 2.22887C15.17 1.98437 15.0202 1.76338 14.8302 1.58C14.6468 1.38994 14.4258 1.2402 14.1813 1.14033C13.9368 1.04047 13.6742 0.992674 13.4102 0.999998H9.41016C9.14615 0.992674 8.88352 1.04047 8.63903 1.14033C8.39453 1.2402 8.17354 1.38994 7.99016 1.58C7.8001 1.76338 7.65036 1.98437 7.55049 2.22887C7.45063 2.47336 7.40283 2.73599 7.41016 3V5H3.41016C3.14517 4.99207 2.88152 5.04057 2.63671 5.14229C2.39189 5.24401 2.1715 5.39662 1.99016 5.59C1.61824 5.96498 1.40974 6.47185 1.41016 7V18C1.40974 18.5281 1.61824 19.035 1.99016 19.41C2.1715 19.6034 2.39189 19.756 2.63671 19.8577C2.88152 19.9594 3.14517 20.0079 3.41016 20H10.6702C11.2198 20.8028 11.9308 21.4821 12.7577 21.9948C13.5846 22.5074 14.5093 22.842 15.4727 22.9773C16.4362 23.1126 17.4173 23.0455 18.3534 22.7804C19.2895 22.5153 20.16 22.058 20.9095 21.4376C21.6589 20.8172 22.2709 20.0475 22.7062 19.1774C23.1415 18.3073 23.3907 17.356 23.4378 16.3842C23.4849 15.4125 23.3289 14.4416 22.9798 13.5334C22.6307 12.6253 22.0961 11.8 21.4102 11.11ZM9.41016 3H13.4102V5H9.41016M3.41016 18V7H19.4102V9.68C18.4748 9.22849 17.4488 8.99595 16.4102 9C14.5536 9 12.7732 9.7375 11.4604 11.0503C10.1477 12.363 9.41016 14.1435 9.41016 16C9.40829 16.6773 9.506 17.3511 9.70016 18M19.4102 20C18.5447 20.6491 17.492 21 16.4102 21C15.3283 21 14.2756 20.6491 13.4102 20C12.7857 19.5375 12.2791 18.9343 11.9316 18.2393C11.5841 17.5443 11.4054 16.777 11.4102 16C11.4102 14.6739 11.9369 13.4021 12.8746 12.4645C13.8123 11.5268 15.0841 11 16.4102 11C17.4927 10.9956 18.5467 11.347 19.4102 12C20.0311 12.4657 20.5352 13.0697 20.8823 13.7639C21.2294 14.4582 21.4102 15.2238 21.4102 16C21.4102 16.7762 21.2294 17.5418 20.8823 18.2361C20.5352 18.9303 20.0311 19.5343 19.4102 20ZM15.4102 13H16.9102V15.82L19.3502 17.23L18.6002 18.53L15.4102 16.69V13Z" fill="black"/>
</g>
</svg>
