<svg width="25" height="24" viewBox="0 0 25 24" fill="none" xmlns="http://www.w3.org/2000/svg">
<g id="284">
<path id="Vector" d="M10.4102 2H14.4102C14.9406 2 15.4493 2.21071 15.8244 2.58579C16.1994 2.96086 16.4102 3.46957 16.4102 4V6H20.4102C20.9406 6 21.4493 6.21071 21.8244 6.58579C22.1994 6.96086 22.4102 7.46957 22.4102 8V19C22.4102 19.5304 22.1994 20.0391 21.8244 20.4142C21.4493 20.7893 20.9406 21 20.4102 21H4.41016C3.30016 21 2.41016 20.1 2.41016 19V8C2.41016 6.89 3.30016 6 4.41016 6H8.41016V4C8.41016 2.89 9.30016 2 10.4102 2ZM14.4102 6V4H10.4102V6H14.4102ZM12.4102 19L17.4102 14H14.4102V10H10.4102V14H7.41016L12.4102 19Z" fill="black"/>
</g>
</svg>
