<svg width="25" height="24" viewBox="0 0 25 24" fill="none" xmlns="http://www.w3.org/2000/svg">
<g id="286">
<path id="Vector" d="M20.4102 6H16.4102V4C16.4102 3.46957 16.1994 2.96086 15.8244 2.58579C15.4493 2.21071 14.9406 2 14.4102 2H10.4102C9.30016 2 8.41016 2.89 8.41016 4V6H4.41016C3.30016 6 2.41016 6.89 2.41016 8V19C2.41016 19.5304 2.62087 20.0391 2.99594 20.4142C3.37102 20.7893 3.87972 21 4.41016 21H20.4102C20.9406 21 21.4493 20.7893 21.8244 20.4142C22.1994 20.0391 22.4102 19.5304 22.4102 19V8C22.4102 7.46957 22.1994 6.96086 21.8244 6.58579C21.4493 6.21071 20.9406 6 20.4102 6ZM10.4102 4H14.4102V6H10.4102V4ZM12.4102 9C13.0732 9 13.7091 9.26339 14.1779 9.73223C14.6468 10.2011 14.9102 10.837 14.9102 11.5C14.9102 12.163 14.6468 12.7989 14.1779 13.2678C13.7091 13.7366 13.0732 14 12.4102 14C11.7471 14 11.1112 13.7366 10.6424 13.2678C10.1735 12.7989 9.91016 12.163 9.91016 11.5C9.91016 10.837 10.1735 10.2011 10.6424 9.73223C11.1112 9.26339 11.7471 9 12.4102 9ZM17.4102 19H7.41016V17.75C7.41016 16.37 9.65016 15.25 12.4102 15.25C15.1702 15.25 17.4102 16.37 17.4102 17.75V19Z" fill="black"/>
</g>
</svg>
