<svg width="25" height="24" viewBox="0 0 25 24" fill="none" xmlns="http://www.w3.org/2000/svg">
<g id="287">
<path id="Vector" d="M21.7392 12.9101C21.8292 14.4601 21.1192 15.9501 19.8492 16.8601L20.6192 18.3501C20.8492 18.8001 20.8792 19.3301 20.6792 19.8001C20.4892 20.2701 20.0992 20.6401 19.6192 20.8001L18.8292 21.0501C18.6592 21.1101 18.4692 21.1401 18.2892 21.1401C17.7792 21.1401 17.2992 20.9101 16.9692 20.5001L14.8492 18.0001C13.9592 17.8501 13.1192 17.4701 12.4092 16.9001C11.9092 17.0501 11.4092 17.1301 10.9092 17.1301C10.0292 17.1301 9.14924 16.8601 8.40924 16.3401C7.87924 16.5001 7.33924 16.5701 6.78924 16.5601C5.99924 16.5701 5.21924 16.4101 4.48924 16.1101C3.05924 15.4701 2.10924 14.0701 2.05924 12.5001C1.97924 11.7801 2.09924 11.0501 2.40924 10.3901C2.11924 9.64007 2.08924 8.82007 2.33924 8.06007C2.70924 7.11007 3.40924 6.32007 4.27924 5.82007C4.85924 4.13007 6.48924 3.00007 8.27924 3.12007C9.87924 1.62007 12.3292 1.46007 14.1092 2.75007C14.5292 2.64007 14.9692 2.58007 15.4092 2.58007C16.7692 2.55007 18.0592 3.15007 18.9092 4.22007C20.9492 4.75007 22.4092 6.57007 22.4892 8.69007C22.5392 9.80007 22.2392 10.8901 21.6292 11.8201C21.6992 12.1801 21.7392 12.5401 21.7392 12.9101ZM16.7392 11.5001C17.3092 11.5701 17.7592 12.0001 17.7592 12.5701C17.7592 12.8353 17.6539 13.0896 17.4663 13.2772C17.2788 13.4647 17.0245 13.5701 16.7592 13.5701H16.1292C15.8092 14.4701 15.2492 15.2601 14.5092 15.8601C14.7592 15.9501 15.0192 16.0001 15.2792 16.0701C20.4092 16.0001 19.8092 12.8701 19.8092 12.8201C19.7492 11.3901 18.5492 10.2701 17.1192 10.3301C16.854 10.3301 16.5997 10.2247 16.4121 10.0372C16.2246 9.84964 16.1192 9.59529 16.1192 9.33007C16.1192 9.06485 16.2246 8.8105 16.4121 8.62296C16.5997 8.43543 16.854 8.33007 17.1192 8.33007C18.3492 8.36007 19.5292 8.82007 20.4492 9.63007C20.4992 9.34007 20.5292 9.04007 20.5292 8.74007C20.4692 7.50007 19.9092 6.42007 17.6592 6.21007C16.4092 3.25007 13.2592 4.89007 13.2592 5.81007C13.2292 6.04007 13.4692 6.53007 13.5092 6.56007C13.7745 6.56007 14.0288 6.66543 14.2163 6.85296C14.4039 7.0405 14.5092 7.29485 14.5092 7.56007C14.5092 8.11007 14.0592 8.56007 13.5092 8.56007C12.9792 8.54007 12.4792 8.34007 12.0792 8.00007C11.5992 8.31007 11.0492 8.50007 10.4792 8.56007C9.90924 8.61007 9.43924 8.21007 9.40924 7.66007C9.32924 7.10007 9.73924 6.61007 10.2892 6.56007C10.4492 6.54007 11.2292 6.42007 11.2292 5.79007C11.2292 5.13007 11.4792 4.50007 11.9092 4.00007C10.9892 3.75007 9.99924 4.08007 8.99924 5.29007C7.15924 5.00007 6.40924 5.25007 5.85924 7.20007C4.90924 7.67007 4.40924 8.00007 4.18924 9.00007C5.26924 8.78007 6.37924 8.87007 7.40924 9.25007C7.90924 9.44007 8.18924 10.0001 7.99924 10.5401C7.80924 11.0601 7.22924 11.3201 6.70924 11.1301C5.97924 10.8101 5.15924 10.7901 4.40924 11.0701C4.08924 11.3401 4.08924 11.9001 4.08924 12.3401C4.08924 13.0801 4.45924 13.7701 5.08924 14.1701C5.61924 14.4401 6.20924 14.5801 6.79924 14.5701C6.64924 14.3101 6.51924 14.0401 6.40924 13.7601C6.21924 13.2201 6.50924 12.6301 7.04924 12.4401C7.58924 12.2501 8.17924 12.5401 8.36924 13.0801C8.76924 14.2201 9.78924 15.0001 10.9892 15.1301C12.3592 15.0601 13.5792 14.2501 14.1792 13.0001C14.4092 11.6201 15.5192 11.5001 16.7392 11.5001ZM18.7392 18.9701L18.1192 17.6701L17.4092 17.8301L18.4092 19.0801L18.7392 18.9701ZM14.0892 10.3601C14.1092 9.83007 13.7092 9.38007 13.1792 9.33007C12.4692 9.29007 11.7792 9.53007 11.2492 10.0001C10.6792 10.5801 10.3792 11.3801 10.4092 12.1901C10.4092 12.4553 10.5146 12.7096 10.7021 12.8972C10.8897 13.0847 11.144 13.1901 11.4092 13.1901C11.9792 13.1901 12.4092 12.7401 12.4092 12.1901C12.4092 11.9201 12.4792 11.6501 12.6392 11.4301C12.7592 11.3301 12.9092 11.2801 13.0692 11.2801C13.6192 11.3101 14.0892 10.9001 14.0892 10.3601Z" fill="black"/>
</g>
</svg>
