<svg width="25" height="24" viewBox="0 0 25 24" fill="none" xmlns="http://www.w3.org/2000/svg">
<g id="288">
<path id="Vector" d="M7.41172 8C7.41172 7.73478 7.51708 7.48043 7.70461 7.29289C7.89215 7.10536 8.1465 7 8.41172 7C8.67694 7 8.93129 7.10536 9.11883 7.29289C9.30636 7.48043 9.41172 7.73478 9.41172 8V12.47L10.6217 12.6L15.5617 14.79C16.0817 15.03 16.4117 15.56 16.4117 16.14V20.5C16.3817 21.32 15.7317 21.97 14.9117 22H8.41172C8.03172 22 7.67172 21.85 7.41172 21.57L2.51172 17.37L3.25172 16.6C3.44172 16.39 3.71172 16.28 3.99172 16.28H4.21172L7.41172 18V8ZM19.9117 2C19.5139 2 19.1324 2.15804 18.8511 2.43934C18.5698 2.72064 18.4117 3.10218 18.4117 3.5C18.4117 3.89782 18.5698 4.27936 18.8511 4.56066C19.1324 4.84196 19.5139 5 19.9117 5C20.3095 5 20.6911 4.84196 20.9724 4.56066C21.2537 4.27936 21.4117 3.89782 21.4117 3.5C21.4117 3.10218 21.2537 2.72064 20.9724 2.43934C20.6911 2.15804 20.3095 2 19.9117 2ZM19.9117 7C19.5139 7 19.1324 7.15804 18.8511 7.43934C18.5698 7.72064 18.4117 8.10218 18.4117 8.5C18.4117 8.89782 18.5698 9.27936 18.8511 9.56066C19.1324 9.84196 19.5139 10 19.9117 10C20.3095 10 20.6911 9.84196 20.9724 9.56066C21.2537 9.27936 21.4117 8.89782 21.4117 8.5C21.4117 8.10218 21.2537 7.72064 20.9724 7.43934C20.6911 7.15804 20.3095 7 19.9117 7ZM14.9117 7C14.5139 7 14.1324 7.15804 13.8511 7.43934C13.5698 7.72064 13.4117 8.10218 13.4117 8.5C13.4117 8.89782 13.5698 9.27936 13.8511 9.56066C14.1324 9.84196 14.5139 10 14.9117 10C15.3095 10 15.6911 9.84196 15.9724 9.56066C16.2537 9.27936 16.4117 8.89782 16.4117 8.5C16.4117 8.10218 16.2537 7.72064 15.9724 7.43934C15.6911 7.15804 15.3095 7 14.9117 7ZM19.9117 12C19.5139 12 19.1324 12.158 18.8511 12.4393C18.5698 12.7206 18.4117 13.1022 18.4117 13.5C18.4117 13.8978 18.5698 14.2794 18.8511 14.5607C19.1324 14.842 19.5139 15 19.9117 15C20.3095 15 20.6911 14.842 20.9724 14.5607C21.2537 14.2794 21.4117 13.8978 21.4117 13.5C21.4117 13.1022 21.2537 12.7206 20.9724 12.4393C20.6911 12.158 20.3095 12 19.9117 12Z" fill="black"/>
</g>
</svg>
