<svg width="25" height="24" viewBox="0 0 25 24" fill="none" xmlns="http://www.w3.org/2000/svg">
<g id="29">
<path id="Vector" d="M6.41016 6.9L4.28016 4.78L5.69016 3.37L7.81016 5.5L6.41016 6.9ZM13.4102 1V4H11.4102V1H13.4102ZM20.5402 4.78L18.4102 6.9L17.0102 5.5L19.1302 3.37L20.5402 4.78ZM4.91016 10.5V12.5H1.91016V10.5H4.91016ZM19.9102 10.5H22.9102V12.5H19.9102V10.5ZM6.41016 20H18.4102C18.9406 20 19.4493 20.2107 19.8244 20.5858C20.1994 20.9609 20.4102 21.4696 20.4102 22H4.41016C4.41016 21.4696 4.62087 20.9609 4.99594 20.5858C5.37102 20.2107 5.87972 20 6.41016 20ZM12.4102 5C14.0015 5 15.5276 5.63214 16.6528 6.75736C17.778 7.88258 18.4102 9.4087 18.4102 11V19H6.41016V11C6.41016 9.4087 7.0423 7.88258 8.16752 6.75736C9.29273 5.63214 10.8189 5 12.4102 5Z" fill="black"/>
</g>
</svg>
