<svg width="25" height="24" viewBox="0 0 25 24" fill="none" xmlns="http://www.w3.org/2000/svg">
<g id="291">
<path id="Vector" d="M10.4102 2C8.59016 2 6.88016 2.5 5.41016 3.35C8.41016 5.08 10.4102 8.3 10.4102 12C10.4102 15.7 8.41016 18.92 5.41016 20.65C6.88016 21.5 8.59016 22 10.4102 22C13.0623 22 15.6059 20.9464 17.4812 19.0711C19.3566 17.1957 20.4102 14.6522 20.4102 12C20.4102 10.6868 20.1515 9.38642 19.649 8.17317C19.1464 6.95991 18.4098 5.85752 17.4812 4.92893C16.5526 4.00035 15.4502 3.26375 14.237 2.7612C13.0237 2.25866 11.7234 2 10.4102 2Z" fill="black"/>
</g>
</svg>
