<svg width="25" height="24" viewBox="0 0 25 24" fill="none" xmlns="http://www.w3.org/2000/svg">
<g id="293">
<path id="Vector" d="M12.4116 17.9999C10.8203 17.9999 9.29414 17.3678 8.16892 16.2426C7.0437 15.1174 6.41156 13.5912 6.41156 11.9999C6.41156 10.4086 7.0437 8.88252 8.16892 7.7573C9.29414 6.63208 10.8203 5.99994 12.4116 5.99994C14.0029 5.99994 15.529 6.63208 16.6542 7.7573C17.7794 8.88252 18.4116 10.4086 18.4116 11.9999C18.4116 13.5912 17.7794 15.1174 16.6542 16.2426C15.529 17.3678 14.0029 17.9999 12.4116 17.9999ZM20.4116 15.3099L23.7216 11.9999L20.4116 8.68994V3.99994H15.7216L12.4116 0.689941L9.10156 3.99994H4.41156V8.68994L1.10156 11.9999L4.41156 15.3099V19.9999H9.10156L12.4116 23.3099L15.7216 19.9999H20.4116V15.3099Z" fill="black"/>
</g>
</svg>
