<svg width="25" height="24" viewBox="0 0 25 24" fill="none" xmlns="http://www.w3.org/2000/svg">
<g id="294">
<path id="Vector" d="M12.4116 17.9999C11.5216 17.9999 10.6716 17.7999 9.91156 17.4499C11.9716 16.4999 13.4116 14.4199 13.4116 11.9999C13.4116 9.57994 11.9716 7.49994 9.91156 6.54994C10.6716 6.19994 11.5216 5.99994 12.4116 5.99994C14.0029 5.99994 15.529 6.63208 16.6542 7.7573C17.7794 8.88252 18.4116 10.4086 18.4116 11.9999C18.4116 13.5912 17.7794 15.1174 16.6542 16.2426C15.529 17.3678 14.0029 17.9999 12.4116 17.9999ZM20.4116 8.68994V3.99994H15.7216L12.4116 0.689941L9.10156 3.99994H4.41156V8.68994L1.10156 11.9999L4.41156 15.3099V19.9999H9.10156L12.4116 23.3099L15.7216 19.9999H20.4116V15.3099L23.7216 11.9999L20.4116 8.68994Z" fill="black"/>
</g>
</svg>
