<svg width="25" height="24" viewBox="0 0 25 24" fill="none" xmlns="http://www.w3.org/2000/svg">
<g id="295">
<path id="Vector" d="M20.4516 8.70994V3.99994H15.7516L12.4116 0.689941L9.12156 3.99994H4.41156V8.70994L1.10156 11.9999L4.41156 15.3399V20.0399H9.12156L12.4116 23.3499L15.7516 20.0399H20.4516V15.3399L23.7616 11.9999L20.4516 8.70994ZM9.24156 7.04994C10.2216 7.04994 11.0116 7.83994 11.0116 8.82994C11.0116 9.29937 10.8251 9.74958 10.4931 10.0815C10.1612 10.4135 9.711 10.5999 9.24156 10.5999C8.25156 10.5999 7.46156 9.80994 7.46156 8.82994C7.46156 7.83994 8.25156 7.04994 9.24156 7.04994ZM15.6316 16.9999C14.6516 16.9999 13.8616 16.1999 13.8616 15.2199C13.8616 14.7505 14.048 14.3003 14.38 13.9684C14.7119 13.6364 15.1621 13.4499 15.6316 13.4499C16.6116 13.4499 17.4116 14.2399 17.4116 15.2199C17.4116 15.692 17.224 16.1448 16.8902 16.4786C16.5564 16.8124 16.1036 16.9999 15.6316 16.9999ZM8.91156 17.0299L7.41156 15.5299L15.9416 6.99994L17.4416 8.49994L8.91156 17.0299Z" fill="black"/>
</g>
</svg>
