<svg width="25" height="24" viewBox="0 0 25 24" fill="none" xmlns="http://www.w3.org/2000/svg">
<g id="296">
<path id="Vector" d="M12.4102 10C11.3102 10 10.4102 10.9 10.4102 12C10.4102 13.1 11.3102 14 12.4102 14C13.5102 14 14.4102 13.1 14.4102 12C14.4102 10.9 13.5102 10 12.4102 10ZM18.4102 12C18.4102 8.7 15.7102 6 12.4102 6C9.11016 6 6.41016 8.7 6.41016 12C6.41016 14.2 7.61016 16.1 9.41016 17.2L10.4102 15.5C9.21016 14.8 8.41016 13.5 8.41016 12.1C8.41016 9.9 10.2102 8.1 12.4102 8.1C14.6102 8.1 16.4102 9.9 16.4102 12.1C16.4102 13.6 15.6102 14.9 14.4102 15.5L15.4102 17.2C17.2102 16.2 18.4102 14.2 18.4102 12ZM12.4102 2C6.91016 2 2.41016 6.5 2.41016 12C2.41016 15.7 4.41016 18.9 7.41016 20.6L8.41016 18.9C6.01016 17.5 4.41016 14.9 4.41016 12C4.41016 7.6 8.01016 4 12.4102 4C16.8102 4 20.4102 7.6 20.4102 12C20.4102 15 18.8102 17.5 16.4102 18.9L17.4102 20.6C20.4102 18.9 22.4102 15.7 22.4102 12C22.4102 6.5 17.9102 2 12.4102 2Z" fill="black"/>
</g>
</svg>
