<svg width="25" height="24" viewBox="0 0 25 24" fill="none" xmlns="http://www.w3.org/2000/svg">
<g id="297">
<path id="Vector" d="M18.0102 14.2C18.3102 13.5 18.4102 12.8 18.4102 12C18.4102 8.7 15.7102 6 12.4102 6C11.6102 6 10.8102 6.2 10.2102 6.4L11.8102 8H12.4102C14.6102 8 16.4102 9.8 16.4102 12C16.4102 12.2 16.4102 12.4 16.3102 12.6L18.0102 14.2ZM12.4102 4C16.8102 4 20.4102 7.6 20.4102 12C20.4102 13.4 20.0102 14.6 19.4102 15.7L20.9102 17.2C21.8102 15.7 22.4102 13.9 22.4102 12C22.4102 6.5 17.9102 2 12.4102 2C10.5102 2 8.71016 2.5 7.21016 3.5L8.71016 5C9.81016 4.3 11.0102 4 12.4102 4ZM3.71016 2.5L2.41016 3.8L4.51016 5.9C3.21016 7.6 2.41016 9.7 2.41016 12C2.41016 15.7 4.41016 18.9 7.41016 20.6L8.41016 18.9C6.01016 17.5 4.41016 14.9 4.41016 12C4.41016 10.2 5.01016 8.6 5.91016 7.3L7.41016 8.8C6.81016 9.7 6.41016 10.8 6.41016 12C6.41016 14.2 7.61016 16.1 9.41016 17.2L10.4102 15.5C9.21016 14.8 8.41016 13.5 8.41016 12.1C8.41016 11.5 8.61016 10.9 8.81016 10.3L10.4102 11.9V12.1C10.4102 13.2 11.3102 14.1 12.4102 14.1H12.6102L20.1102 21.6L21.4102 20.3L4.71016 3.5L3.71016 2.5Z" fill="black"/>
</g>
</svg>
