<svg width="25" height="24" viewBox="0 0 25 24" fill="none" xmlns="http://www.w3.org/2000/svg">
<g id="299">
<path id="Vector" d="M21.1202 4.63006L19.7802 3.29006C19.4102 2.90006 18.7602 2.90006 18.3702 3.29006L9.41016 12.2501L12.1602 15.0001L21.1202 6.04006C21.5102 5.65006 21.5102 5.00006 21.1202 4.63006ZM7.41016 14.0001C6.61451 14.0001 5.85145 14.3161 5.28884 14.8787C4.72623 15.4413 4.41016 16.2044 4.41016 17.0001C4.41016 18.3101 3.25016 19.0001 2.41016 19.0001C3.33016 20.2201 4.91016 21.0001 6.41016 21.0001C7.47102 21.0001 8.48844 20.5786 9.23858 19.8285C9.98873 19.0783 10.4102 18.0609 10.4102 17.0001C10.4102 16.2044 10.0941 15.4413 9.53148 14.8787C8.96887 14.3161 8.20581 14.0001 7.41016 14.0001Z" fill="black"/>
</g>
</svg>
