<svg width="25" height="24" viewBox="0 0 25 24" fill="none" xmlns="http://www.w3.org/2000/svg">
<g id="3">
<path id="Vector" d="M17.4102 17V21H19.4102V17H21.4102L18.4102 14L15.4102 17H17.4102ZM11.4102 4C9.21016 4 7.41016 5.8 7.41016 8C7.41016 10.2 9.21016 12 11.4102 12C13.6102 12 15.4102 10.2 15.4102 8C15.4102 5.8 13.6102 4 11.4102 4ZM11.4102 14C7.01016 14 3.41016 15.8 3.41016 18V20H12.9102C12.6102 19.2 12.4102 18.4 12.4102 17.5C12.4102 16.3 12.7102 15.2 13.3102 14.1C12.7102 14.1 12.1102 14 11.4102 14Z" fill="black"/>
</g>
</svg>
