<svg width="25" height="24" viewBox="0 0 25 24" fill="none" xmlns="http://www.w3.org/2000/svg">
<g id="300">
<path id="Vector" d="M12.4502 2.5L9.94016 5H14.9402L12.4502 2.5ZM4.41016 7V20H20.4102V7H4.41016ZM12.4102 0L17.4102 5H20.4102C20.9406 5 21.4493 5.21071 21.8244 5.58579C22.1994 5.96086 22.4102 6.46957 22.4102 7V20C22.4102 20.5304 22.1994 21.0391 21.8244 21.4142C21.4493 21.7893 20.9406 22 20.4102 22H4.41016C3.87972 22 3.37102 21.7893 2.99594 21.4142C2.62087 21.0391 2.41016 20.5304 2.41016 20V7C2.41016 6.46957 2.62087 5.96086 2.99594 5.58579C3.37102 5.21071 3.87972 5 4.41016 5H7.41016L12.4102 0ZM7.41016 18V14H12.4102V18H7.41016ZM14.4102 17V10H18.4102V17H14.4102ZM6.41016 12V9H11.4102V12H6.41016Z" fill="black"/>
</g>
</svg>
