<svg width="25" height="24" viewBox="0 0 25 24" fill="none" xmlns="http://www.w3.org/2000/svg">
<g id="301">
<path id="Vector" d="M19.4102 7H16.6002C16.1502 6.2 15.5302 5.5 14.7802 5L16.4102 3.41L15.0002 2L12.8302 4.17C12.3702 4.06 11.9102 4 11.4102 4C10.9102 4 10.4602 4.06 10.0002 4.17L7.82016 2L6.41016 3.41L8.03016 5C7.28016 5.5 6.67016 6.21 6.22016 7H3.41016V9H5.50016C5.44016 9.33 5.41016 9.66 5.41016 10V11H3.41016V13H5.41016V14C5.41016 14.34 5.44016 14.67 5.50016 15H3.41016V17H6.22016C7.67016 19.5 10.6902 20.61 13.4102 19.65V19C13.4102 18.43 13.5002 17.86 13.6602 17.31C13.0002 17.76 12.2102 18 11.4102 18C9.20016 18 7.41016 16.21 7.41016 14V10C7.41016 7.79 9.20016 6 11.4102 6C13.6202 6 15.4102 7.79 15.4102 10V14C15.4102 14.19 15.4102 14.39 15.3602 14.58C15.9502 14.04 16.6502 13.62 17.4102 13.35V13H19.4102V11H17.4102V10C17.4102 9.66 17.3802 9.33 17.3202 9H19.4102V7ZM13.4102 9V11H9.41016V9H13.4102ZM13.4102 13V15H9.41016V13H13.4102ZM16.4102 16H22.4102V22H16.4102V16Z" fill="black"/>
</g>
</svg>
