<svg width="25" height="24" viewBox="0 0 25 24" fill="none" xmlns="http://www.w3.org/2000/svg">
<g id="302">
<path id="Vector" d="M21.4102 6C21.4102 11 12.4102 11 12.4102 11C12.4102 11 6.41016 11 5.41016 11C4.41016 11 3.41016 10 3.41016 10H2.41016V14H3.41016C3.41016 14 4.41016 13 5.41016 13C5.61016 13 6.11016 13 6.71016 13C5.91016 13.5 5.41016 14.2 5.41016 15C5.41016 16.8 7.71016 18 10.9102 18C14.1102 18 16.4102 16.8 16.4102 15C16.4102 14.4 16.1102 13.8 15.6102 13.3C18.2102 13.8 21.4102 15 21.4102 18H22.4102V6H21.4102ZM10.9102 16.7C8.61016 16.7 6.81016 15.9 6.81016 15C6.81016 14.1 8.61016 13.3 10.9102 13.3C13.2102 13.3 15.0102 14.1 15.0102 15C15.0102 15.9 13.2102 16.7 10.9102 16.7Z" fill="black"/>
</g>
</svg>
