<svg width="25" height="24" viewBox="0 0 25 24" fill="none" xmlns="http://www.w3.org/2000/svg">
<g id="304">
<path id="Vector" d="M12.4102 8H4.41016C3.87972 8 3.37102 8.21071 2.99594 8.58579C2.62087 8.96086 2.41016 9.46957 2.41016 10V14C2.41016 14.5304 2.62087 15.0391 2.99594 15.4142C3.37102 15.7893 3.87972 16 4.41016 16H5.41016V20C5.41016 20.2652 5.51551 20.5196 5.70305 20.7071C5.89059 20.8946 6.14494 21 6.41016 21H8.41016C8.67537 21 8.92973 20.8946 9.11726 20.7071C9.3048 20.5196 9.41016 20.2652 9.41016 20V16H12.4102L17.4102 20V4L12.4102 8ZM15.4102 15.6L13.4102 14H4.41016V10H13.4102L15.4102 8.4V15.6ZM21.9102 12C21.9102 13.71 20.9502 15.26 19.4102 16V8C20.9402 8.75 21.9102 10.3 21.9102 12Z" fill="black"/>
</g>
</svg>
