<svg width="25" height="24" viewBox="0 0 25 24" fill="none" xmlns="http://www.w3.org/2000/svg">
<g id="305">
<path id="Vector" d="M13.4114 2.09C13.4114 2.06 13.4114 2.03 13.4114 2C13.4114 1.45 12.9614 1 12.4114 1C11.8614 1 11.4114 1.45 11.4114 2C11.4114 2.03 11.4114 2.06 11.4114 2.09C8.60141 2.56 6.44141 5 6.44141 7.97V16C6.44141 19 8.60141 21.44 11.4114 21.91C11.4114 21.94 11.4114 21.97 11.4114 22C11.4114 22.55 11.8614 23 12.4114 23C12.9614 23 13.4114 22.55 13.4114 22C13.4114 21.97 13.4114 21.94 13.4114 21.91C16.2214 21.44 18.3814 19 18.3814 16V7.97C18.4114 5 16.2214 2.56 13.4114 2.09ZM16.4114 8H15.4114V5.4C16.0114 6.09 16.4114 7 16.4114 8ZM14.4114 19.44C13.8214 19.79 13.1414 20 12.4114 20C11.6814 20 11.0014 19.79 10.4114 19.44V16H14.4114V19.44ZM10.4114 15V9H14.4114V15H10.4114ZM9.41141 15H8.44141V9H9.41141V15ZM10.4114 4.56C11.0014 4.21 11.6814 4 12.4114 4C13.1414 4 13.8214 4.21 14.4114 4.56V8H10.4114V4.56ZM15.4114 9H16.4114V15H15.4114V9ZM9.41141 5.4V8H8.44141V7.97C8.44141 7 8.81141 6.09 9.41141 5.4ZM8.44141 16H9.41141V18.6C8.81141 17.91 8.44141 17 8.44141 16.03V16ZM15.4114 18.6V16H16.4114C16.4114 17 16.0114 17.91 15.4114 18.6Z" fill="black"/>
</g>
</svg>
