<svg width="25" height="24" viewBox="0 0 25 24" fill="none" xmlns="http://www.w3.org/2000/svg">
<g id="306">
<path id="Vector" d="M4.41016 4C4.14494 4 3.89059 4.10536 3.70305 4.29289C3.51551 4.48043 3.41016 4.73478 3.41016 5V10C2.95016 10 2.55016 10.31 2.44016 10.76V13.97H2.70016C3.06016 13.37 3.71016 13 4.41016 13H13.4102C14.1102 13 14.7602 13.37 15.1202 13.97H16.4402L16.4102 11C16.4102 10.7348 16.3048 10.4804 16.1173 10.2929C15.9297 10.1054 15.6754 10 15.4102 10H13.4102V8C13.4102 7.73478 13.3048 7.48043 13.1173 7.29289C12.9297 7.10536 12.6754 7 12.4102 7C12.1449 7 11.8906 7.10536 11.703 7.29289C11.5155 7.48043 11.4102 7.73478 11.4102 8V10H9.41016V5C9.41016 4.73478 9.3048 4.48043 9.11726 4.29289C8.92973 4.10536 8.67537 4 8.41016 4H4.41016ZM5.41016 6H7.41016V10V11H5.41016V6ZM17.4102 11V19H22.4102V18L19.4102 17L18.4102 11H17.4102ZM4.41016 15C3.87972 15 3.37102 15.2107 2.99594 15.5858C2.62087 15.9609 2.41016 16.4696 2.41016 17C2.41016 17.5304 2.62087 18.0391 2.99594 18.4142C3.37102 18.7893 3.87972 19 4.41016 19H13.4102C13.9406 19 14.4493 18.7893 14.8244 18.4142C15.1994 18.0391 15.4102 17.5304 15.4102 17C15.4102 16.4696 15.1994 15.9609 14.8244 15.5858C14.4493 15.2107 13.9406 15 13.4102 15H4.41016Z" fill="black"/>
</g>
</svg>
