<svg width="25" height="24" viewBox="0 0 25 24" fill="none" xmlns="http://www.w3.org/2000/svg">
<g id="308">
<path id="Vector" d="M1.41016 2V23H3.41016V21H21.4102V23H23.4102V7C23.4102 4.79 21.6202 3 19.4102 3H10.4102V8H3.41016V2M6.91016 2C6.24712 2 5.61123 2.26339 5.14239 2.73223C4.67355 3.20107 4.41016 3.83696 4.41016 4.5C4.41016 5.16304 4.67355 5.79893 5.14239 6.26777C5.61123 6.73661 6.24712 7 6.91016 7C7.23846 7 7.56355 6.93534 7.86686 6.8097C8.17018 6.68406 8.44578 6.49991 8.67792 6.26777C8.91007 6.03562 9.09422 5.76002 9.21986 5.45671C9.34549 5.15339 9.41016 4.8283 9.41016 4.5C9.41016 3.83696 9.14676 3.20107 8.67792 2.73223C8.20908 2.26339 7.5732 2 6.91016 2ZM3.41016 11H21.4102V13.56C20.8202 13.21 20.1402 13 19.4102 13H10.4102V18H3.41016M6.91016 12C6.24712 12 5.61123 12.2634 5.14239 12.7322C4.67355 13.2011 4.41016 13.837 4.41016 14.5C4.41016 15.163 4.67355 15.7989 5.14239 16.2678C5.61123 16.7366 6.24712 17 6.91016 17C7.5732 17 8.20908 16.7366 8.67792 16.2678C9.14676 15.7989 9.41016 15.163 9.41016 14.5C9.41016 13.837 9.14676 13.2011 8.67792 12.7322C8.20908 12.2634 7.5732 12 6.91016 12Z" fill="black"/>
</g>
</svg>
