<svg width="25" height="24" viewBox="0 0 25 24" fill="none" xmlns="http://www.w3.org/2000/svg">
<g id="310">
<path id="Vector" d="M12.4102 2C11.0969 2 9.79658 2.25866 8.58332 2.7612C7.37007 3.26375 6.26767 4.00035 5.33909 4.92893C3.46372 6.8043 2.41016 9.34784 2.41016 12C2.41016 14.6522 3.46372 17.1957 5.33909 19.0711C6.26767 19.9997 7.37007 20.7362 8.58332 21.2388C9.79658 21.7413 11.0969 22 12.4102 22C15.0623 22 17.6059 20.9464 19.4812 19.0711C21.3566 17.1957 22.4102 14.6522 22.4102 12C22.4102 10.84 22.2002 9.69 21.8002 8.61L20.2002 10.21C20.3402 10.8 20.4102 11.4 20.4102 12C20.4102 14.1217 19.5673 16.1566 18.067 17.6569C16.5667 19.1571 14.5319 20 12.4102 20C10.2884 20 8.25359 19.1571 6.7533 17.6569C5.25301 16.1566 4.41016 14.1217 4.41016 12C4.41016 9.87827 5.25301 7.84344 6.7533 6.34315C8.25359 4.84285 10.2884 4 12.4102 4C13.0102 4 13.6102 4.07 14.2002 4.21L15.8102 2.6C14.7202 2.21 13.5702 2 12.4102 2ZM19.4102 2L15.4102 6V7.5L12.8602 10.05C12.7102 10 12.5602 10 12.4102 10C11.8797 10 11.371 10.2107 10.9959 10.5858C10.6209 10.9609 10.4102 11.4696 10.4102 12C10.4102 12.5304 10.6209 13.0391 10.9959 13.4142C11.371 13.7893 11.8797 14 12.4102 14C12.9406 14 13.4493 13.7893 13.8244 13.4142C14.1994 13.0391 14.4102 12.5304 14.4102 12C14.4102 11.85 14.4102 11.7 14.3602 11.55L16.9102 9H18.4102L22.4102 5H19.4102V2ZM12.4102 6C10.8189 6 9.29273 6.63214 8.16752 7.75736C7.0423 8.88258 6.41016 10.4087 6.41016 12C6.41016 13.5913 7.0423 15.1174 8.16752 16.2426C9.29273 17.3679 10.8189 18 12.4102 18C14.0015 18 15.5276 17.3679 16.6528 16.2426C17.778 15.1174 18.4102 13.5913 18.4102 12H16.4102C16.4102 13.0609 15.9887 14.0783 15.2386 14.8284C14.4884 15.5786 13.471 16 12.4102 16C11.3493 16 10.3319 15.5786 9.58173 14.8284C8.83158 14.0783 8.41016 13.0609 8.41016 12C8.41016 10.9391 8.83158 9.92172 9.58173 9.17157C10.3319 8.42143 11.3493 8 12.4102 8V6Z" fill="black"/>
</g>
</svg>
