<svg width="25" height="24" viewBox="0 0 25 24" fill="none" xmlns="http://www.w3.org/2000/svg">
<g id="311">
<path id="Vector" d="M16.4102 1C18.2667 1 20.0471 1.7375 21.3599 3.05025C22.6727 4.36301 23.4102 6.14348 23.4102 8C23.4102 11.53 20.8002 14.45 17.4102 14.93V18C17.4102 18.84 17.0602 19.58 16.3702 20.2V22C16.3702 22.27 16.2802 22.5 16.0902 22.71C15.9102 22.91 15.6702 23 15.4102 23H14.4102C14.1202 23 13.8802 22.91 13.6802 22.71C13.4702 22.5 13.3702 22.27 13.3702 22V21H5.45016V22C5.45016 22.27 5.35016 22.5 5.14016 22.71C4.94016 22.91 4.70016 23 4.41016 23H3.41016C3.15016 23 2.91016 22.91 2.73016 22.71C2.54016 22.5 2.45016 22.27 2.45016 22V20.2C1.76016 19.58 1.41016 18.84 1.41016 18V8C1.41016 6.42 2.11016 5.35 3.48016 4.8C4.85016 4.26 6.83016 4 9.41016 4L10.6402 4.03C11.9102 2.2 14.0202 1 16.4102 1ZM16.4102 3C15.0841 3 13.8123 3.52678 12.8746 4.46447C11.9369 5.40215 11.4102 6.67392 11.4102 8C11.4102 9.32608 11.9369 10.5979 12.8746 11.5355C13.8123 12.4732 15.0841 13 16.4102 13C17.7362 13 19.008 12.4732 19.9457 11.5355C20.8834 10.5979 21.4102 9.32608 21.4102 8C21.4102 6.67392 20.8834 5.40215 19.9457 4.46447C19.008 3.52678 17.7362 3 16.4102 3ZM15.4102 10H17.4102V12H15.4102V10ZM15.4102 4H17.4102V9H15.4102V4ZM3.41016 13H11.5002C10.2102 11.72 9.41016 9.96 9.41016 8H3.41016V13ZM4.91016 16C4.10016 16 3.41016 16.67 3.41016 17.5C3.41016 17.8978 3.56819 18.2794 3.8495 18.5607C4.1308 18.842 4.51233 19 4.91016 19C5.76016 19 6.41016 18.33 6.41016 17.5C6.41016 17.1022 6.25212 16.7206 5.97082 16.4393C5.68951 16.158 5.30798 16 4.91016 16ZM13.9102 16C13.0602 16 12.4102 16.67 12.4102 17.5C12.4102 17.8978 12.5682 18.2794 12.8495 18.5607C13.1308 18.842 13.5123 19 13.9102 19C14.7202 19 15.4102 18.33 15.4102 17.5C15.4102 17.1022 15.2521 16.7206 14.9708 16.4393C14.6895 16.158 14.308 16 13.9102 16Z" fill="black"/>
</g>
</svg>
