<svg width="25" height="24" viewBox="0 0 25 24" fill="none" xmlns="http://www.w3.org/2000/svg">
<g id="312">
<path id="Vector" d="M21.9102 6L20.4102 7.5L21.9102 9L20.4102 10.5L21.9102 12L20.4102 13.5L21.9102 15H12.9102C12.9102 15.7956 12.5941 16.5587 12.0315 17.1213C11.4689 17.6839 10.7058 18 9.91016 18C9.11451 18 8.35145 17.6839 7.78884 17.1213C7.22623 16.5587 6.91016 15.7956 6.91016 15H2.91016V8C2.91016 6.89 3.80016 6 4.91016 6H21.9102ZM18.9102 7.5H15.4102V10H18.9102V7.5ZM13.9102 7.5H9.91016V10H13.9102V7.5ZM8.41016 7.5H4.41016V10H8.41016V7.5ZM9.91016 13.5C9.51233 13.5 9.1308 13.658 8.8495 13.9393C8.56819 14.2206 8.41016 14.6022 8.41016 15C8.41016 15.3978 8.56819 15.7794 8.8495 16.0607C9.1308 16.342 9.51233 16.5 9.91016 16.5C10.308 16.5 10.6895 16.342 10.9708 16.0607C11.2521 15.7794 11.4102 15.3978 11.4102 15C11.4102 14.6022 11.2521 14.2206 10.9708 13.9393C10.6895 13.658 10.308 13.5 9.91016 13.5Z" fill="black"/>
</g>
</svg>
