<svg width="25" height="24" viewBox="0 0 25 24" fill="none" xmlns="http://www.w3.org/2000/svg">
<g id="314">
<path id="Vector" d="M16.9102 4V8.25L19.7702 9.94L19.0202 11.16L15.4102 9V4H16.9102ZM16.4102 13C17.7702 13 18.9502 12.5 19.9102 11.53C20.9102 10.56 21.4102 9.39 21.4102 8C21.4102 6.64 20.9102 5.46 19.9102 4.5C18.9502 3.5 17.7702 3 16.4102 3C15.0202 3 13.8502 3.5 12.8802 4.5C11.9102 5.46 11.4102 6.64 11.4102 8C11.4102 9.39 11.9102 10.56 12.8802 11.53C13.8502 12.5 15.0202 13 16.4102 13ZM13.9102 19C14.3502 19 14.7102 18.84 14.9902 18.54C15.2702 18.24 15.4102 17.89 15.4102 17.5C15.4102 17.08 15.2702 16.73 14.9902 16.43C14.7102 16.13 14.3502 16 13.9102 16C13.4702 16 13.1102 16.13 12.8302 16.43C12.5502 16.73 12.4102 17.08 12.4102 17.5C12.4102 17.89 12.5502 18.24 12.8302 18.54C13.1102 18.84 13.4702 19 13.9102 19ZM3.41016 13H11.5202C10.1102 11.64 9.41016 10 9.41016 8H3.41016V13ZM4.91016 19C5.35016 19 5.71016 18.84 5.99016 18.54C6.27016 18.24 6.41016 17.89 6.41016 17.5C6.41016 17.08 6.27016 16.73 5.99016 16.43C5.71016 16.13 5.35016 16 4.91016 16C4.47016 16 4.11016 16.13 3.83016 16.43C3.55016 16.73 3.41016 17.08 3.41016 17.5C3.41016 17.89 3.55016 18.24 3.83016 18.54C4.11016 18.84 4.47016 19 4.91016 19ZM16.4102 1C18.3302 1 19.9902 1.67 21.3602 3.05C22.7402 4.42 23.4102 6.08 23.4102 8C23.4102 9.77 22.8502 11.29 21.6902 12.59C20.5402 13.88 19.1102 14.66 17.4102 14.91V18C17.4102 18.84 17.0802 19.58 16.4102 20.2V22C16.4102 22.27 16.3002 22.5 16.1102 22.71C15.9102 22.91 15.6902 23 15.4102 23H14.4102C14.1402 23 13.9102 22.91 13.7002 22.71C13.5002 22.5 13.4102 22.27 13.4102 22V21H5.41016V22C5.41016 22.27 5.32016 22.5 5.12016 22.71C4.91016 22.91 4.68016 23 4.41016 23H3.41016C3.13016 23 2.91016 22.91 2.71016 22.71C2.52016 22.5 2.41016 22.27 2.41016 22V20.2C1.74016 19.58 1.41016 18.84 1.41016 18V8C1.41016 6.42 2.08016 5.35 3.46016 4.8C4.83016 4.26 6.82016 4 9.41016 4C9.54016 4 9.74016 4 10.0202 4C10.3002 4 10.5002 4.03 10.6302 4.03C12.0402 2 13.9602 1 16.4102 1Z" fill="black"/>
</g>
</svg>
