<svg width="25" height="24" viewBox="0 0 25 24" fill="none" xmlns="http://www.w3.org/2000/svg">
<g id="316">
<path id="Vector" d="M19.4102 3H18.4102V1H16.4102V3H8.41016V1H6.41016V3H5.41016C4.31016 3 3.41016 3.9 3.41016 5V19C3.41016 20.11 4.31016 21 5.41016 21H19.4102C20.5202 21 21.4102 20.11 21.4102 19V5C21.4102 3.9 20.5202 3 19.4102 3ZM19.4102 19H5.41016V9H19.4102V19ZM19.4102 7H5.41016V5H19.4102M12.4102 10C14.4102 10 15.4102 12.42 14.0002 13.84C12.5802 15.26 10.1602 14.25 10.1602 12.25C10.1602 11 11.1602 10 12.4102 10ZM16.9102 17.88V18H7.91016V17.88C7.91016 16.63 9.91016 15.63 12.4102 15.63C14.9102 15.63 16.9102 16.63 16.9102 17.88Z" fill="black"/>
</g>
</svg>
