<svg width="25" height="24" viewBox="0 0 25 24" fill="none" xmlns="http://www.w3.org/2000/svg">
<g id="317">
<path id="Vector" d="M19.9102 16C18.0102 16 16.4102 17.6 16.4102 19.5C16.4102 21.4 18.0102 23 19.9102 23C21.8102 23 23.4102 21.4 23.4102 19.5C23.4102 17.6 21.8102 16 19.9102 16ZM14.6202 21H5.41016C4.31016 21 3.41016 20.11 3.41016 19V5C3.41016 3.89 4.30016 3 5.41016 3H6.41016V1H8.41016V3H16.4102V1H18.4102V3H19.4102C20.5102 3 21.4102 3.89 21.4102 5V14.21C20.9102 14.08 20.4102 14 19.9102 14C19.7402 14 19.5802 14 19.4102 14.03V8H5.41016V19H14.4402C14.4102 19.17 14.4102 19.33 14.4102 19.5C14.4102 20 14.4902 20.5 14.6202 21Z" fill="black"/>
</g>
</svg>
