<svg width="25" height="24" viewBox="0 0 25 24" fill="none" xmlns="http://www.w3.org/2000/svg">
<g id="318">
<path id="Vector" d="M19.9102 16C18.0102 16 16.4102 17.6 16.4102 19.5C16.4102 21.4 18.0102 23 19.9102 23C21.8102 23 23.4102 21.4 23.4102 19.5C23.4102 17.6 21.8102 16 19.9102 16ZM14.4102 19.5C14.4102 19.33 14.4102 19.17 14.4402 19H5.41016V9H19.4102V14.03C19.5802 14 19.7402 14 19.9102 14C20.4102 14 20.9102 14.08 21.4102 14.21V5C21.4102 3.9 20.5202 3 19.4102 3H18.4102V1H16.4102V3H8.41016V1H6.41016V3H5.41016C4.30016 3 3.41016 3.9 3.41016 5V19C3.41016 20.11 4.31016 21 5.41016 21H14.6202C14.4902 20.5 14.4102 20 14.4102 19.5ZM5.41016 5H19.4102V7H5.41016V5Z" fill="black"/>
</g>
</svg>
