<svg width="25" height="24" viewBox="0 0 25 24" fill="none" xmlns="http://www.w3.org/2000/svg">
<g id="324">
<path id="Vector" d="M16.4102 12.2C16.4102 13.71 15.0502 14.94 12.9902 16.81L12.4102 17.34L11.8302 16.81C9.77016 14.94 8.41016 13.71 8.41016 12.2C8.41016 10.97 9.38016 10 10.6102 10C11.3102 10 11.9702 10.32 12.4102 10.83C12.8502 10.32 13.5102 10 14.2102 10C15.4402 10 16.4102 10.97 16.4102 12.2ZM21.4102 5V19C21.4102 20.11 20.5202 21 19.4102 21H5.41016C4.31016 21 3.41016 20.11 3.41016 19V5C3.41016 3.9 4.31016 3 5.41016 3H6.41016V1H8.41016V3H16.4102V1H18.4102V3H19.4102C20.5202 3 21.4102 3.9 21.4102 5ZM5.41016 5V7H19.4102V5H5.41016ZM19.4102 19V9H5.41016V19H19.4102Z" fill="black"/>
</g>
</svg>
