<svg width="25" height="24" viewBox="0 0 25 24" fill="none" xmlns="http://www.w3.org/2000/svg">
<g id="325">
<path id="Vector" d="M19.4102 3H18.4102V1H16.4102V3H8.41016V1H6.41016V3H5.41016C4.31016 3 3.41016 3.9 3.41016 5V19C3.41016 20.1 4.31016 21 5.41016 21H12.4102V19H5.41016V9H19.4102V10.1C20.1102 10.3 20.8102 10.6 21.4102 11V5C21.4102 3.9 20.5102 3 19.4102 3ZM19.4102 7H5.41016V5H19.4102V7ZM22.4102 21.8C22.4102 22.4 21.8102 23 21.1102 23H15.6102C15.0102 23 14.4102 22.4 14.4102 21.7V18.2C14.4102 17.6 15.0102 17 15.6102 17V14.5C15.6102 13.1 17.0102 12 18.4102 12C19.8102 12 21.2102 13.1 21.2102 14.5V15H19.9102V14.5C19.9102 13.7 19.2102 13.2 18.4102 13.2C17.6102 13.2 16.9102 13.7 16.9102 14.5V17H21.2102C21.8102 17 22.4102 17.6 22.4102 18.3V21.8Z" fill="black"/>
</g>
</svg>
