<svg width="25" height="24" viewBox="0 0 25 24" fill="none" xmlns="http://www.w3.org/2000/svg">
<g id="326">
<path id="Vector" d="M19.4102 3H18.4102V1H16.4102V3H8.41016V1H6.41016V3H5.41016C4.31016 3 3.41016 3.9 3.41016 5V19C3.41016 20.1 4.31016 21 5.41016 21H12.4102V19H5.41016V9H19.4102V11C20.1102 11.2 20.8102 11.5 21.4102 11.9V5C21.4102 3.9 20.5102 3 19.4102 3ZM19.4102 7H5.41016V5H19.4102V7ZM21.2102 17V15.5C21.2102 14.1 19.8102 13 18.4102 13C17.0102 13 15.6102 14.1 15.6102 15.5V17C15.0102 17 14.4102 17.6 14.4102 18.2V21.7C14.4102 22.4 15.0102 23 15.6102 23H21.1102C21.8102 23 22.4102 22.4 22.4102 21.8V18.3C22.4102 17.6 21.8102 17 21.2102 17ZM19.9102 17H16.9102V15.5C16.9102 14.7 17.6102 14.2 18.4102 14.2C19.2102 14.2 19.9102 14.7 19.9102 15.5V17Z" fill="black"/>
</g>
</svg>
