<svg width="25" height="24" viewBox="0 0 25 24" fill="none" xmlns="http://www.w3.org/2000/svg">
<g id="328">
<path id="Vector" d="M21.4102 17V8H7.41016V17H21.4102ZM21.4102 3C21.9406 3 22.4493 3.21071 22.8244 3.58579C23.1994 3.96086 23.4102 4.46957 23.4102 5V17C23.4102 17.5304 23.1994 18.0391 22.8244 18.4142C22.4493 18.7893 21.9406 19 21.4102 19H7.41016C6.30016 19 5.41016 18.1 5.41016 17V5C5.41016 4.46957 5.62087 3.96086 5.99594 3.58579C6.37102 3.21071 6.87972 3 7.41016 3H8.41016V1H10.4102V3H18.4102V1H20.4102V3H21.4102ZM17.9402 11.06L13.5002 15.5L10.8202 12.82L11.8802 11.76L13.5002 13.38L16.8802 10L17.9402 11.06ZM3.41016 21H17.4102V23H3.41016C2.30016 23 1.41016 22.1 1.41016 21V9H3.41016V21Z" fill="black"/>
</g>
</svg>
