<svg width="25" height="24" viewBox="0 0 25 24" fill="none" xmlns="http://www.w3.org/2000/svg">
<g id="331">
<path id="Vector" d="M19.4102 19V8H5.41016V19H19.4102ZM16.4102 1H18.4102V3H19.4102C19.9406 3 20.4493 3.21071 20.8244 3.58579C21.1994 3.96086 21.4102 4.46957 21.4102 5V19C21.4102 19.5304 21.1994 20.0391 20.8244 20.4142C20.4493 20.7893 19.9406 21 19.4102 21H5.41016C4.30016 21 3.41016 20.1 3.41016 19V5C3.41016 3.89 4.30016 3 5.41016 3H6.41016V1H8.41016V3H16.4102V1ZM7.41016 10H9.41016V12H7.41016V10ZM15.4102 10H17.4102V12H15.4102V10ZM11.4102 14H13.4102V16H11.4102V14ZM15.4102 14H17.4102V16H15.4102V14Z" fill="black"/>
</g>
</svg>
