<svg width="25" height="24" viewBox="0 0 25 24" fill="none" xmlns="http://www.w3.org/2000/svg">
<g id="332">
<path id="Vector" d="M7.41016 11H9.41016V13H7.41016V11ZM19.4102 3H18.4102V1H16.4102V3H8.41016V1H6.41016V3H5.41016C4.31016 3 3.41016 3.9 3.41016 5V19C3.41016 20.1 4.31016 21 5.41016 21H19.4102C20.5102 21 21.4102 20.1 21.4102 19V5C21.4102 3.9 20.5102 3 19.4102 3ZM19.4102 5V7H5.41016V5H19.4102ZM5.41016 19V9H19.4102V19H5.41016ZM11.4102 15H13.4102V17H11.4102V15ZM15.4102 15H17.4102V17H15.4102V15ZM15.4102 11H17.4102V13H15.4102V11Z" fill="black"/>
</g>
</svg>
