<svg width="25" height="24" viewBox="0 0 25 24" fill="none" xmlns="http://www.w3.org/2000/svg">
<g id="333">
<path id="Vector" d="M9.41016 10V12H7.41016V10H9.41016ZM13.4102 10V12H11.4102V10H13.4102ZM17.4102 10V12H15.4102V10H17.4102ZM19.4102 3C19.9406 3 20.4493 3.21071 20.8244 3.58579C21.1994 3.96086 21.4102 4.46957 21.4102 5V19C21.4102 19.5304 21.1994 20.0391 20.8244 20.4142C20.4493 20.7893 19.9406 21 19.4102 21H5.41016C4.30016 21 3.41016 20.1 3.41016 19V5C3.41016 4.46957 3.62087 3.96086 3.99594 3.58579C4.37102 3.21071 4.87972 3 5.41016 3H6.41016V1H8.41016V3H16.4102V1H18.4102V3H19.4102ZM19.4102 19V8H5.41016V19H19.4102ZM9.41016 14V16H7.41016V14H9.41016ZM13.4102 14V16H11.4102V14H13.4102ZM17.4102 14V16H15.4102V14H17.4102Z" fill="black"/>
</g>
</svg>
