<svg width="25" height="24" viewBox="0 0 25 24" fill="none" xmlns="http://www.w3.org/2000/svg">
<g id="334">
<path id="Vector" d="M22.5117 21.5L9.81172 8.80005L2.81172 1.80005L1.51172 3.00005L3.11172 4.60005C2.61172 5.30005 2.41172 6.10005 2.41172 7.00005V20C2.41172 21.1 3.31172 22 4.41172 22H10.4117C11.5117 22 12.4117 21.1 12.4117 20V13.9L13.4117 14.9V16H14.5117L21.2117 22.7001L22.5117 21.5ZM5.41172 20C4.91172 20 4.41172 19.5 4.41172 19C4.41172 18.5 4.91172 18 5.41172 18C5.91172 18 6.41172 18.5 6.41172 19C6.41172 19.5 5.91172 20 5.41172 20ZM7.41172 10C5.71172 10 4.41172 8.70005 4.41172 7.00005C4.41172 6.70005 4.51172 6.40005 4.61172 6.10005L8.41172 9.90005C8.01172 9.90005 7.71172 10 7.41172 10ZM7.61172 4.00005L5.91172 2.30005C6.41172 2.10005 6.91172 2.00005 7.41172 2.00005C10.2117 2.00005 12.4117 4.20005 12.4117 7.00005V8.80005L10.4117 6.80005C10.3117 5.30005 9.11172 4.10005 7.61172 4.00005ZM20.4117 9.00005H13.4117V7.00005H20.4117C21.5117 7.00005 22.4117 7.90005 22.4117 9.00005V14C22.4117 15.1 21.5117 16 20.4117 16H19.6117L17.6117 14H20.4117V9.00005Z" fill="black"/>
</g>
</svg>
