<svg width="25" height="24" viewBox="0 0 25 24" fill="none" xmlns="http://www.w3.org/2000/svg">
<g id="337">
<path id="Vector" d="M4.41016 4H7.41016L9.41016 2H15.4102L17.4102 4H20.4102C20.9406 4 21.4493 4.21071 21.8244 4.58579C22.1994 4.96086 22.4102 5.46957 22.4102 6V18C22.4102 18.5304 22.1994 19.0391 21.8244 19.4142C21.4493 19.7893 20.9406 20 20.4102 20H4.41016C3.87972 20 3.37102 19.7893 2.99594 19.4142C2.62087 19.0391 2.41016 18.5304 2.41016 18V6C2.41016 5.46957 2.62087 4.96086 2.99594 4.58579C3.37102 4.21071 3.87972 4 4.41016 4ZM12.4102 7C11.0841 7 9.8123 7.52678 8.87462 8.46447C7.93694 9.40215 7.41016 10.6739 7.41016 12C7.41016 13.3261 7.93694 14.5979 8.87462 15.5355C9.8123 16.4732 11.0841 17 12.4102 17C13.7362 17 15.008 16.4732 15.9457 15.5355C16.8834 14.5979 17.4102 13.3261 17.4102 12C17.4102 10.6739 16.8834 9.40215 15.9457 8.46447C15.008 7.52678 13.7362 7 12.4102 7ZM12.4102 9C13.2058 9 13.9689 9.31607 14.5315 9.87868C15.0941 10.4413 15.4102 11.2044 15.4102 12C15.4102 12.7956 15.0941 13.5587 14.5315 14.1213C13.9689 14.6839 13.2058 15 12.4102 15C11.6145 15 10.8514 14.6839 10.2888 14.1213C9.72623 13.5587 9.41016 12.7956 9.41016 12C9.41016 11.2044 9.72623 10.4413 10.2888 9.87868C10.8514 9.31607 11.6145 9 12.4102 9Z" fill="black"/>
</g>
</svg>
