<svg width="25" height="24" viewBox="0 0 25 24" fill="none" xmlns="http://www.w3.org/2000/svg">
<g id="338">
<path id="Vector" d="M4.41016 5H7.41016L9.41016 3H15.4102L17.4102 5H20.4102C20.9406 5 21.4493 5.21071 21.8244 5.58579C22.1994 5.96086 22.4102 6.46957 22.4102 7V19C22.4102 19.5304 22.1994 20.0391 21.8244 20.4142C21.4493 20.7893 20.9406 21 20.4102 21H4.41016C3.87972 21 3.37102 20.7893 2.99594 20.4142C2.62087 20.0391 2.41016 19.5304 2.41016 19V7C2.41016 6.46957 2.62087 5.96086 2.99594 5.58579C3.37102 5.21071 3.87972 5 4.41016 5ZM16.4102 17V16C16.4102 14.67 13.7402 14 12.4102 14C11.0802 14 8.41016 14.67 8.41016 16V17H16.4102ZM12.4102 9C11.8797 9 11.371 9.21071 10.9959 9.58579C10.6209 9.96086 10.4102 10.4696 10.4102 11C10.4102 11.5304 10.6209 12.0391 10.9959 12.4142C11.371 12.7893 11.8797 13 12.4102 13C12.9406 13 13.4493 12.7893 13.8244 12.4142C14.1994 12.0391 14.4102 11.5304 14.4102 11C14.4102 10.4696 14.1994 9.96086 13.8244 9.58579C13.4493 9.21071 12.9406 9 12.4102 9Z" fill="black"/>
</g>
</svg>
