<svg width="25" height="24" viewBox="0 0 25 24" fill="none" xmlns="http://www.w3.org/2000/svg">
<g id="339">
<path id="Vector" d="M1.41016 5H3.41016V19H1.41016V5ZM5.41016 5H7.41016V19H5.41016V5ZM22.4102 5H10.4102C10.1449 5 9.89059 5.10536 9.70305 5.29289C9.51551 5.48043 9.41016 5.73478 9.41016 6V18C9.41016 18.2652 9.51551 18.5196 9.70305 18.7071C9.89059 18.8946 10.1449 19 10.4102 19H22.4102C22.6754 19 22.9297 18.8946 23.1173 18.7071C23.3048 18.5196 23.4102 18.2652 23.4102 18V6C23.4102 5.73478 23.3048 5.48043 23.1173 5.29289C22.9297 5.10536 22.6754 5 22.4102 5ZM11.4102 17L13.9102 13.85L15.7002 16L18.2002 12.78L21.4102 17H11.4102Z" fill="black"/>
</g>
</svg>
