<svg width="25" height="24" viewBox="0 0 25 24" fill="none" xmlns="http://www.w3.org/2000/svg">
<g id="34">
<path id="Vector" d="M23.4102 12L20.9702 14.78L21.3102 18.46L17.7002 19.28L15.8102 22.46L12.4102 21L9.01016 22.47L7.12016 19.29L3.51016 18.47L3.85016 14.78L1.41016 12L3.85016 9.21004L3.51016 5.53004L7.12016 4.72004L9.01016 1.54004L12.4102 3.00004L15.8102 1.54004L17.7002 4.72004L21.3102 5.54004L20.9702 9.22004L23.4102 12ZM20.7402 12L18.9102 9.89004L19.1502 7.10004L16.4102 6.50004L14.9902 4.07004L12.4102 5.18004L9.83016 4.07004L8.41016 6.50004L5.67016 7.09004L5.91016 9.88004L4.08016 12L5.91016 14.1L5.67016 16.9L8.41016 17.5L9.83016 19.93L12.4102 18.81L14.9902 19.92L16.4102 17.5L19.1502 16.89L18.9102 14.1L20.7402 12ZM11.4102 15H13.4102V17H11.4102V15ZM11.4102 7.00004H13.4102V13H11.4102V7.00004Z" fill="black"/>
</g>
</svg>
