<svg width="25" height="24" viewBox="0 0 25 24" fill="none" xmlns="http://www.w3.org/2000/svg">
<g id="340">
<path id="Vector" d="M12.4102 10L11.4702 12.06L9.41016 13L11.4702 13.94L12.4102 16L13.3502 13.94L15.4102 13L13.3502 12.06L12.4102 10ZM20.4102 5H17.2402L15.4102 3H9.41016L7.58016 5H4.41016C3.87972 5 3.37102 5.21071 2.99594 5.58579C2.62087 5.96086 2.41016 6.46957 2.41016 7V19C2.41016 19.5304 2.62087 20.0391 2.99594 20.4142C3.37102 20.7893 3.87972 21 4.41016 21H20.4102C20.9406 21 21.4493 20.7893 21.8244 20.4142C22.1994 20.0391 22.4102 19.5304 22.4102 19V7C22.4102 6.46957 22.1994 5.96086 21.8244 5.58579C21.4493 5.21071 20.9406 5 20.4102 5ZM20.4102 19H4.41016V7H8.46016L9.05016 6.35L10.2902 5H14.5302L15.7702 6.35L16.3602 7H20.4102V19ZM12.4102 8C11.0841 8 9.8123 8.52678 8.87462 9.46447C7.93694 10.4021 7.41016 11.6739 7.41016 13C7.41016 14.3261 7.93694 15.5979 8.87462 16.5355C9.8123 17.4732 11.0841 18 12.4102 18C13.7362 18 15.008 17.4732 15.9457 16.5355C16.8834 15.5979 17.4102 14.3261 17.4102 13C17.4102 11.6739 16.8834 10.4021 15.9457 9.46447C15.008 8.52678 13.7362 8 12.4102 8ZM12.4102 16C11.6145 16 10.8514 15.6839 10.2888 15.1213C9.72623 14.5587 9.41016 13.7956 9.41016 13C9.41016 12.2044 9.72623 11.4413 10.2888 10.8787C10.8514 10.3161 11.6145 10 12.4102 10C13.2058 10 13.9689 10.3161 14.5315 10.8787C15.0941 11.4413 15.4102 12.2044 15.4102 13C15.4102 13.7956 15.0941 14.5587 14.5315 15.1213C13.9689 15.6839 13.2058 16 12.4102 16Z" fill="black"/>
</g>
</svg>
