<svg width="25" height="24" viewBox="0 0 25 24" fill="none" xmlns="http://www.w3.org/2000/svg">
<g id="341">
<path id="Vector" d="M9.41016 3L7.58016 5H4.41016C3.87972 5 3.37102 5.21071 2.99594 5.58579C2.62087 5.96086 2.41016 6.46957 2.41016 7V19C2.41016 19.5304 2.62087 20.0391 2.99594 20.4142C3.37102 20.7893 3.87972 21 4.41016 21H20.4102C20.9406 21 21.4493 20.7893 21.8244 20.4142C22.1994 20.0391 22.4102 19.5304 22.4102 19V7C22.4102 6.46957 22.1994 5.96086 21.8244 5.58579C21.4493 5.21071 20.9406 5 20.4102 5H17.2402L15.4102 3M12.4102 18C11.0841 18 9.8123 17.4732 8.87462 16.5355C7.93694 15.5979 7.41016 14.3261 7.41016 13C7.41016 11.6739 7.93694 10.4021 8.87462 9.46447C9.8123 8.52678 11.0841 8 12.4102 8C13.7362 8 15.008 8.52678 15.9457 9.46447C16.8834 10.4021 17.4102 11.6739 17.4102 13C17.4102 14.3261 16.8834 15.5979 15.9457 16.5355C15.008 17.4732 13.7362 18 12.4102 18ZM12.4102 17L13.6602 14.25L16.4102 13L13.6602 11.75L12.4102 9L11.1602 11.75L8.41016 13L11.1602 14.25" fill="black"/>
</g>
</svg>
