<svg width="25" height="24" viewBox="0 0 25 24" fill="none" xmlns="http://www.w3.org/2000/svg">
<g id="342">
<path id="Vector" d="M21.2495 22.73L20.5195 22H3.40953V20H18.5195L13.2995 14.78L13.4095 15H6.40953L8.40953 11H9.51953L8.51953 9.99998H8.40953C7.30953 9.99998 6.40953 9.09998 6.40953 7.99998V7.88998L1.51953 2.99998L2.79953 1.72998L22.5195 21.46L21.2495 22.73ZM13.4095 7.99998C14.1495 7.99998 14.7895 7.59998 15.1295 6.99998H19.4095V15.8L21.4095 17.8V6.99998C21.4095 5.88998 20.5195 4.99998 19.4095 4.99998H15.1295C14.7895 4.40998 14.1495 3.99998 13.4095 3.99998C13.4095 2.89998 12.5095 1.99998 11.4095 1.99998H8.40953C7.64953 1.99998 6.99953 2.42998 6.65953 3.04998L12.9095 9.29998C13.2195 8.94998 13.4095 8.49998 13.4095 7.99998Z" fill="black"/>
</g>
</svg>
