<svg width="25" height="24" viewBox="0 0 25 24" fill="none" xmlns="http://www.w3.org/2000/svg">
<g id="343">
<path id="Vector" d="M21.4102 7V22H3.41016V20H19.4102V7H15.1302C14.7902 7.6 14.1502 8 13.4102 8C13.4102 9.11 12.5102 10 11.4102 10H8.41016C7.31016 10 6.41016 9.1 6.41016 8V4C6.41016 2.9 7.31016 2 8.41016 2H11.4102C12.5102 2 13.4102 2.9 13.4102 4C14.1502 4 14.7902 4.41 15.1302 5H19.4102C20.5202 5 21.4102 5.89 21.4102 7ZM6.41016 15H13.4102L11.4102 11H8.41016L6.41016 15Z" fill="black"/>
</g>
</svg>
