<svg width="25" height="24" viewBox="0 0 25 24" fill="none" xmlns="http://www.w3.org/2000/svg">
<g id="344">
<path id="Vector" d="M12.4102 2C17.9102 2 22.4102 6.5 22.4102 12C22.4102 17.5 17.9102 22 12.4102 22C6.91016 22 2.41016 17.5 2.41016 12C2.41016 6.5 6.91016 2 12.4102 2ZM12.4102 4C10.5102 4 8.81016 4.6 7.51016 5.7L18.7102 16.9C19.7102 15.5 20.4102 13.8 20.4102 12C20.4102 7.6 16.8102 4 12.4102 4ZM17.3102 18.3L6.11016 7.1C5.01016 8.4 4.41016 10.1 4.41016 12C4.41016 16.4 8.01016 20 12.4102 20C14.3102 20 16.0102 19.4 17.3102 18.3Z" fill="black"/>
</g>
</svg>
