<svg width="25" height="24" viewBox="0 0 25 24" fill="none" xmlns="http://www.w3.org/2000/svg">
<g id="345">
<path id="Vector" d="M22.5117 21.5L2.81172 1.69995L1.51172 2.99995L8.11172 9.59995C7.01172 11.5 7.31172 14 8.91172 15.6C10.5117 17.2 13.0117 17.5 14.9117 16.4L21.3117 22.7999L22.5117 21.5ZM10.3117 14.1C9.51172 13.3 9.21172 12.1 9.61172 11L13.4117 14.8C12.3117 15.2 11.1117 15 10.3117 14.1ZM15.2117 6.29995C14.9117 5.19995 15.0117 3.59995 16.3117 2.39995C17.2117 3.29995 17.7117 4.29995 17.8117 5.29995C18.9117 4.59995 19.8117 4.49995 19.8117 4.49995C19.7117 5.29995 19.4117 5.99995 19.0117 6.49995C20.0117 6.69995 21.1117 7.19995 21.9117 7.99995C20.7117 9.19995 19.1117 9.39995 18.0117 9.09995C17.7117 7.79995 16.6117 6.69995 15.2117 6.29995ZM12.6117 8.99995L10.8117 7.19995C12.5117 6.59995 14.5117 6.99995 15.9117 8.39995C17.3117 9.79995 17.7117 11.7 17.1117 13.5L15.4117 11.8C15.3117 11.1 15.1117 10.4 14.5117 9.89995C13.9117 9.39995 13.3117 9.09995 12.6117 8.99995ZM9.61172 17.7C9.91172 18.8 9.81172 20.4 8.51172 21.6C7.61172 20.7 7.11172 19.7 7.01172 18.7C5.91172 19.4 5.01172 19.5 5.01172 19.5C5.11172 18.7 5.41172 18 5.81172 17.5C4.81172 17.3 3.71172 16.8 2.91172 16C4.11172 14.8 5.71172 14.6 6.81172 14.9C7.11172 16.2 8.21172 17.3 9.61172 17.7Z" fill="black"/>
</g>
</svg>
