<svg width="25" height="24" viewBox="0 0 25 24" fill="none" xmlns="http://www.w3.org/2000/svg">
<g id="346">
<path id="Vector" d="M20.9102 11C20.9102 11.55 20.4602 12 19.9102 12H19.4102V14C19.4102 15.11 18.5202 16 17.4102 16H13.4102V20H14.4102C15.5202 20 16.4102 20.9 16.4102 22H8.41016C8.41016 20.9 9.31016 20 10.4102 20H11.4102V16H7.41016C6.31016 16 5.41016 15.11 5.41016 14V12H4.91016C4.36016 12 3.91016 11.55 3.91016 11C3.91016 10.45 4.36016 10 4.91016 10H5.41016V4L7.41016 5V10H7.91016C8.46016 10 8.91016 10.45 8.91016 11C8.91016 11.55 8.46016 12 7.91016 12H7.41016V14H11.4102V12H10.9102C10.3602 12 9.91016 11.55 9.91016 11C9.91016 10.45 10.3602 10 10.9102 10H11.4102V2L13.4102 3V10H13.9102C14.4602 10 14.9102 10.45 14.9102 11C14.9102 11.55 14.4602 12 13.9102 12H13.4102V14H17.4102V12H16.9102C16.3602 12 15.9102 11.55 15.9102 11C15.9102 10.45 16.3602 10 16.9102 10H17.4102V4L19.4102 5V10H19.9102C20.4602 10 20.9102 10.45 20.9102 11Z" fill="black"/>
</g>
</svg>
