<svg width="25" height="24" viewBox="0 0 25 24" fill="none" xmlns="http://www.w3.org/2000/svg">
<g id="347">
<path id="Vector" d="M18.4102 7C19.2402 7 19.9102 6.33 19.9102 5.5C19.9102 4.67 19.2402 3 18.4102 3C17.5802 3 16.9102 4.67 16.9102 5.5C16.9102 6.33 17.5802 7 18.4102 7ZM18.4102 5.25C18.6902 5.25 18.9102 5.47 18.9102 5.75C18.9102 6.03 18.6902 6.25 18.4102 6.25C18.1302 6.25 17.9102 6.03 17.9102 5.75C17.9102 5.47 18.1302 5.25 18.4102 5.25ZM12.4102 6C13.2402 6 13.9102 5.33 13.9102 4.5C13.9102 3.67 13.2402 2 12.4102 2C11.5802 2 10.9102 3.67 10.9102 4.5C10.9102 5.33 11.5802 6 12.4102 6ZM12.4102 4.25C12.6902 4.25 12.9102 4.47 12.9102 4.75C12.9102 5.03 12.6902 5.25 12.4102 5.25C12.1302 5.25 11.9102 5.03 11.9102 4.75C11.9102 4.47 12.1302 4.25 12.4102 4.25ZM6.41016 7C7.24016 7 7.91016 6.33 7.91016 5.5C7.91016 4.67 7.24016 3 6.41016 3C5.58016 3 4.91016 4.67 4.91016 5.5C4.91016 6.33 5.58016 7 6.41016 7ZM6.41016 5.25C6.69016 5.25 6.91016 5.47 6.91016 5.75C6.91016 6.03 6.69016 6.25 6.41016 6.25C6.13016 6.25 5.91016 6.03 5.91016 5.75C5.91016 5.47 6.13016 5.25 6.41016 5.25ZM20.9102 11C20.9102 11.55 20.4602 12 19.9102 12H19.4102V14C19.4102 15.11 18.5202 16 17.4102 16H13.4102V20H14.4102C15.5202 20 16.4102 20.9 16.4102 22H8.41016C8.41016 20.9 9.31016 20 10.4102 20H11.4102V16H7.41016C6.31016 16 5.41016 15.11 5.41016 14V12H4.91016C4.36016 12 3.91016 11.55 3.91016 11C3.91016 10.45 4.36016 10 4.91016 10V9C4.91016 8.45 5.36016 8 5.91016 8H6.91016C7.46016 8 7.91016 8.45 7.91016 9V10C8.46016 10 8.91016 10.45 8.91016 11C8.91016 11.55 8.46016 12 7.91016 12H7.41016V14H11.4102V12H10.9102C10.3602 12 9.91016 11.55 9.91016 11C9.91016 10.45 10.3602 10 10.9102 10V8C10.9102 7.45 11.3602 7 11.9102 7H12.9102C13.4602 7 13.9102 7.45 13.9102 8V10C14.4602 10 14.9102 10.45 14.9102 11C14.9102 11.55 14.4602 12 13.9102 12H13.4102V14H17.4102V12H16.9102C16.3602 12 15.9102 11.55 15.9102 11C15.9102 10.45 16.3602 10 16.9102 10V9C16.9102 8.45 17.3602 8 17.9102 8H18.9102C19.4602 8 19.9102 8.45 19.9102 9V10C20.4602 10 20.9102 10.45 20.9102 11Z" fill="black"/>
</g>
</svg>
