<svg width="25" height="24" viewBox="0 0 25 24" fill="none" xmlns="http://www.w3.org/2000/svg">
<g id="348">
<path id="Vector" d="M10.292 9.87992C11.462 8.70992 13.362 8.70992 14.532 9.87992C15.702 11.0499 15.702 12.9499 14.532 14.1199C13.362 15.2899 11.462 15.2899 10.292 14.1199C9.12203 12.9499 9.12203 11.0499 10.292 9.87992ZM8.87203 8.45992C6.91203 10.4199 6.91203 13.5799 8.87203 15.5399C10.832 17.4999 13.992 17.4999 15.952 15.5399C17.912 13.5799 17.912 10.4199 15.952 8.45992C13.992 6.49992 10.832 6.49992 8.87203 8.45992ZM19.882 4.54992C19.882 4.54992 18.912 4.66992 17.842 5.36992C17.692 4.31992 17.192 3.26992 16.342 2.41992C15.092 3.66992 14.942 5.21992 15.242 6.33992C16.632 6.69992 17.712 7.77992 18.072 9.16992C19.192 9.46992 20.752 9.31992 21.992 8.06992C21.152 7.22992 20.122 6.73992 19.092 6.57992C19.482 5.99992 19.792 5.32992 19.882 4.54992ZM4.94203 19.4499C4.94203 19.4499 5.91203 19.3299 6.98203 18.6399C7.13203 19.6799 7.63203 20.7299 8.48203 21.5799C9.73203 20.3399 9.88203 18.7799 9.58203 17.6599C8.20203 17.2999 7.11203 16.2199 6.75203 14.8299C5.63203 14.5299 4.08203 14.6799 2.83203 15.9299C3.67203 16.7699 4.70203 17.2699 5.73203 17.4199C5.34203 17.9999 5.03203 18.6799 4.94203 19.4499Z" fill="black"/>
</g>
</svg>
