<svg width="25" height="24" viewBox="0 0 25 24" fill="none" xmlns="http://www.w3.org/2000/svg">
<g id="349">
<path id="Vector" d="M10.4102 10C10.4102 10.5304 10.1994 11.0391 9.82437 11.4142C9.4493 11.7893 8.94059 12 8.41016 12C7.87972 12 7.37102 11.7893 6.99594 11.4142C6.62087 11.0391 6.41016 10.5304 6.41016 10V8C6.41016 7.37 6.51016 6.77 6.68016 6.2L10.4102 9.93V10ZM12.4102 2C13.1502 2 13.8502 2.13 14.5002 2.38L12.3802 6C11.5502 6 10.8502 6.5 10.5602 7.25L7.65016 4.34C8.75016 2.92 10.4702 2 12.4102 2ZM18.1702 6.31L14.4102 10.07V8C14.4102 7.62 14.3102 7.27 14.1302 6.97L16.2402 3.38C17.1502 4.13 17.8302 5.15 18.1702 6.31ZM18.4102 13.09L14.4102 17.09V12.9L18.4102 8.9V13.09ZM18.4102 20C18.4102 20.5304 18.1994 21.0391 17.8244 21.4142C17.4493 21.7893 16.9406 22 16.4102 22C15.8797 22 15.371 21.7893 14.9959 21.4142C14.6209 21.0391 14.4102 20.5304 14.4102 20V19.91L18.4102 15.91V20Z" fill="black"/>
</g>
</svg>
