<svg width="25" height="24" viewBox="0 0 25 24" fill="none" xmlns="http://www.w3.org/2000/svg">
<g id="350">
<path id="Vector" d="M8.41016 16C8.41016 13.6 9.51016 11.5 11.1102 10H3.41016L4.91016 5.5H15.9102L16.7102 8C17.3102 8 17.9102 8.1 18.4102 8.3L17.3102 5C17.1102 4.4 16.5102 4 15.9102 4H4.91016C4.21016 4 3.71016 4.4 3.51016 5L1.41016 11V19C1.41016 19.5 1.91016 20 2.41016 20H3.41016C3.91016 20 4.41016 19.5 4.41016 19V18H8.71016C8.51016 17.4 8.41016 16.7 8.41016 16ZM4.91016 15C4.11016 15 3.41016 14.3 3.41016 13.5C3.41016 12.7 4.11016 12 4.91016 12C5.71016 12 6.41016 12.7 6.41016 13.5C6.41016 14.3 5.71016 15 4.91016 15ZM16.4102 20V18H13.4102V17H14.4102C15.5102 17 16.4102 16.1 16.4102 15V14C16.4102 12.9 15.5102 12 14.4102 12H11.4102V14H14.4102V15H13.4102C12.3102 15 11.4102 15.9 11.4102 17V20M23.4102 17H21.4102V19H19.4102V17H17.4102V15H19.4102V13H21.4102V15H23.4102V17Z" fill="black"/>
</g>
</svg>
