<svg width="25" height="24" viewBox="0 0 25 24" fill="none" xmlns="http://www.w3.org/2000/svg">
<g id="351">
<path id="Vector" d="M5.41016 11L6.91016 6.5H17.9102L19.4102 11M17.9102 16C17.5123 16 17.1308 15.842 16.8495 15.5607C16.5682 15.2794 16.4102 14.8978 16.4102 14.5C16.4102 14.1022 16.5682 13.7206 16.8495 13.4393C17.1308 13.158 17.5123 13 17.9102 13C18.308 13 18.6895 13.158 18.9708 13.4393C19.2521 13.7206 19.4102 14.1022 19.4102 14.5C19.4102 14.8978 19.2521 15.2794 18.9708 15.5607C18.6895 15.842 18.308 16 17.9102 16ZM6.91016 16C6.51233 16 6.1308 15.842 5.8495 15.5607C5.56819 15.2794 5.41016 14.8978 5.41016 14.5C5.41016 14.1022 5.56819 13.7206 5.8495 13.4393C6.1308 13.158 6.51233 13 6.91016 13C7.30798 13 7.68951 13.158 7.97082 13.4393C8.25212 13.7206 8.41016 14.1022 8.41016 14.5C8.41016 14.8978 8.25212 15.2794 7.97082 15.5607C7.68951 15.842 7.30798 16 6.91016 16ZM19.3302 6C19.1302 5.42 18.5702 5 17.9102 5H6.91016C6.25016 5 5.69016 5.42 5.49016 6L3.41016 12V20C3.41016 20.2652 3.51551 20.5196 3.70305 20.7071C3.89059 20.8946 4.14494 21 4.41016 21H5.41016C5.67537 21 5.92973 20.8946 6.11726 20.7071C6.3048 20.5196 6.41016 20.2652 6.41016 20V19H18.4102V20C18.4102 20.2652 18.5155 20.5196 18.703 20.7071C18.8906 20.8946 19.1449 21 19.4102 21H20.4102C20.6754 21 20.9297 20.8946 21.1173 20.7071C21.3048 20.5196 21.4102 20.2652 21.4102 20V12L19.3302 6Z" fill="black"/>
</g>
</svg>
