<svg width="25" height="24" viewBox="0 0 25 24" fill="none" xmlns="http://www.w3.org/2000/svg">
<g id="353">
<path id="Vector" d="M17.0295 13.42L14.9095 11.32C17.2495 8.93998 20.2395 8.10998 20.2395 8.10998C19.2795 10.6 18.1395 12.27 17.0295 13.42ZM12.4095 1.99998C12.4095 1.99998 11.2695 4.29998 10.8195 7.20998L14.1295 10.5C14.3295 8.44998 14.0195 5.62998 12.4095 1.99998ZM21.2495 22.73L22.5195 21.46L2.79953 1.72998L1.51953 2.99998L9.02953 10.5C6.90953 8.74998 4.57953 8.10998 4.57953 8.10998C6.10953 12.08 8.09953 14 9.68953 14.97C6.87953 14.59 4.40953 16 4.40953 16C7.08953 17.19 9.04953 17.23 10.3495 16.95C8.93953 18.1 8.43953 19.81 8.43953 19.81C10.4095 19.09 11.4095 18.13 11.9095 17.35V22H12.9095V17.35C13.4095 18.13 14.4095 19.09 16.3795 19.81C16.3795 19.81 15.8795 18.1 14.4695 16.95C14.7995 17 15.1795 17.07 15.6095 17.09L21.2495 22.73Z" fill="black"/>
</g>
</svg>
