<svg width="25" height="24" viewBox="0 0 25 24" fill="none" xmlns="http://www.w3.org/2000/svg">
<g id="354">
<path id="Vector" d="M16.4102 6H6.41016L1.41016 12V15H3.41016C3.41016 15.7956 3.72623 16.5587 4.28884 17.1213C4.85145 17.6839 5.61451 18 6.41016 18C7.20581 18 7.96887 17.6839 8.53148 17.1213C9.09409 16.5587 9.41016 15.7956 9.41016 15H15.4102C15.4102 15.7956 15.7262 16.5587 16.2888 17.1213C16.8514 17.6839 17.6145 18 18.4102 18C19.2058 18 19.9689 17.6839 20.5315 17.1213C21.0941 16.5587 21.4102 15.7956 21.4102 15H23.4102V12C23.4102 10.89 22.5202 10 21.4102 10H19.4102L16.4102 6ZM6.91016 7.5H10.9102V10H4.91016L6.91016 7.5ZM12.4102 7.5H15.9102L17.8702 10H12.4102V7.5ZM6.41016 13.5C6.80798 13.5 7.18951 13.658 7.47082 13.9393C7.75212 14.2206 7.91016 14.6022 7.91016 15C7.91016 15.3978 7.75212 15.7794 7.47082 16.0607C7.18951 16.342 6.80798 16.5 6.41016 16.5C6.01233 16.5 5.6308 16.342 5.3495 16.0607C5.06819 15.7794 4.91016 15.3978 4.91016 15C4.91016 14.6022 5.06819 14.2206 5.3495 13.9393C5.6308 13.658 6.01233 13.5 6.41016 13.5ZM18.4102 13.5C18.808 13.5 19.1895 13.658 19.4708 13.9393C19.7521 14.2206 19.9102 14.6022 19.9102 15C19.9102 15.3978 19.7521 15.7794 19.4708 16.0607C19.1895 16.342 18.808 16.5 18.4102 16.5C18.0123 16.5 17.6308 16.342 17.3495 16.0607C17.0682 15.7794 16.9102 15.3978 16.9102 15C16.9102 14.6022 17.0682 14.2206 17.3495 13.9393C17.6308 13.658 18.0123 13.5 18.4102 13.5Z" fill="black"/>
</g>
</svg>
