<svg width="25" height="24" viewBox="0 0 25 24" fill="none" xmlns="http://www.w3.org/2000/svg">
<g id="355">
<path id="Vector" d="M19.3302 2C19.1302 1.42 18.5702 1 17.9102 1H6.91016C6.25016 1 5.70016 1.42 5.49016 2L3.41016 8V16C3.41016 16.55 3.86016 17 4.41016 17H5.41016C5.96016 17 6.41016 16.55 6.41016 16V15H18.4102V16C18.4102 16.55 18.8602 17 19.4102 17H20.4102C20.9602 17 21.4102 16.55 21.4102 16V8L19.3302 2ZM6.91016 12C6.08016 12 5.41016 11.33 5.41016 10.5C5.41016 9.67 6.08016 9 6.91016 9C7.74016 9 8.41016 9.67 8.41016 10.5C8.41016 11.33 7.74016 12 6.91016 12ZM17.9102 12C17.0802 12 16.4102 11.33 16.4102 10.5C16.4102 9.67 17.0802 9 17.9102 9C18.7402 9 19.4102 9.67 19.4102 10.5C19.4102 11.33 18.7402 12 17.9102 12ZM5.41016 7L6.91016 2.5H17.9102L19.4102 7H5.41016ZM7.41016 20H11.4102V18L17.4102 21H13.4102V23L7.41016 20Z" fill="black"/>
</g>
</svg>
