<svg width="25" height="24" viewBox="0 0 25 24" fill="none" xmlns="http://www.w3.org/2000/svg">
<g id="356">
<path id="Vector" d="M19.3302 2C19.1302 1.42 18.5702 1 17.9102 1H6.91016C6.25016 1 5.70016 1.42 5.49016 2L3.41016 8V16C3.41016 16.55 3.86016 17 4.41016 17H5.41016C5.96016 17 6.41016 16.55 6.41016 16V15H18.4102V16C18.4102 16.55 18.8602 17 19.4102 17H20.4102C20.9602 17 21.4102 16.55 21.4102 16V8L19.3302 2ZM7.26016 3H17.5502L18.6302 6.11H6.18016L7.26016 3ZM19.4102 13H5.41016V8H19.4102V13ZM7.91016 9C8.74016 9 9.41016 9.67 9.41016 10.5C9.41016 11.33 8.74016 12 7.91016 12C7.08016 12 6.41016 11.33 6.41016 10.5C6.41016 9.67 7.08016 9 7.91016 9ZM16.9102 9C17.7402 9 18.4102 9.67 18.4102 10.5C18.4102 11.33 17.7402 12 16.9102 12C16.0802 12 15.4102 11.33 15.4102 10.5C15.4102 9.67 16.0802 9 16.9102 9ZM7.41016 20H11.4102V18L17.4102 21H13.4102V23L7.41016 20Z" fill="black"/>
</g>
</svg>
