<svg width="25" height="24" viewBox="0 0 25 24" fill="none" xmlns="http://www.w3.org/2000/svg">
<g id="357">
<path id="Vector" d="M19.4102 15H17.4102V13H19.4102M20.4102 20V22H16.4102V20H17.4102V18H16.4102V16H19.4102V20M19.3302 5.00001C19.2264 4.70663 19.034 4.45276 18.7796 4.27359C18.5252 4.09442 18.2213 3.99881 17.9102 4.00001H6.91016C6.59898 3.99881 6.29513 4.09442 6.04071 4.27359C5.78628 4.45276 5.59388 4.70663 5.49016 5.00001L3.41016 11V19C3.41016 19.2652 3.51551 19.5196 3.70305 19.7071C3.89059 19.8947 4.14494 20 4.41016 20H5.41016C5.67537 20 5.92973 19.8947 6.11726 19.7071C6.3048 19.5196 6.41016 19.2652 6.41016 19V18H11.4102C11.4102 16.1435 12.1477 14.363 13.4604 13.0503C14.7732 11.7375 16.5536 11 18.4102 11C19.4488 10.996 20.4748 11.2285 21.4102 11.68V11M6.91016 15C6.61348 15 6.32347 14.912 6.0768 14.7472C5.83013 14.5824 5.63787 14.3481 5.52434 14.074C5.41081 13.7999 5.3811 13.4983 5.43898 13.2074C5.49686 12.9164 5.63972 12.6491 5.8495 12.4394C6.05927 12.2296 6.32655 12.0867 6.61752 12.0288C6.90849 11.971 7.21009 12.0007 7.48418 12.1142C7.75827 12.2277 7.99254 12.42 8.15736 12.6667C8.32218 12.9133 8.41016 13.2033 8.41016 13.5C8.41016 13.8978 8.25212 14.2794 7.97082 14.5607C7.68951 14.842 7.30798 15 6.91016 15ZM5.41016 10L6.91016 5.50001H17.9102L19.4102 10H5.41016Z" fill="black"/>
</g>
</svg>
