<svg width="25" height="24" viewBox="0 0 25 24" fill="none" xmlns="http://www.w3.org/2000/svg">
<g id="358">
<path id="Vector" d="M9.41016 0C7.71016 0 6.41016 1.3 6.41016 3C6.41016 4.7 7.71016 6 9.41016 6C10.7102 6 11.8102 5.2 12.2102 4H14.4102V6H16.4102V4H18.4102V2H12.2102C11.8102 0.8 10.7102 0 9.41016 0ZM9.41016 2C10.0102 2 10.4102 2.4 10.4102 3C10.4102 3.6 10.0102 4 9.41016 4C8.81016 4 8.41016 3.6 8.41016 3C8.41016 2.4 8.81016 2 9.41016 2ZM6.91016 8C6.21016 8 5.71016 8.4 5.51016 9L3.41016 15V23C3.41016 23.6 3.81016 24 4.41016 24H5.41016C6.01016 24 6.41016 23.6 6.41016 23V22H18.4102V23C18.4102 23.6 18.8102 24 19.4102 24H20.4102C21.0102 24 21.4102 23.6 21.4102 23V15L19.3102 9C19.1102 8.4 18.5102 8 17.9102 8H6.91016ZM6.91016 9.5H17.9102L19.4102 14H5.41016L6.91016 9.5ZM6.91016 16C7.71016 16 8.41016 16.7 8.41016 17.5C8.41016 18.3 7.71016 19 6.91016 19C6.11016 19 5.41016 18.3 5.41016 17.5C5.41016 16.7 6.11016 16 6.91016 16ZM17.9102 16C18.7102 16 19.4102 16.7 19.4102 17.5C19.4102 18.3 18.7102 19 17.9102 19C17.1102 19 16.4102 18.3 16.4102 17.5C16.4102 16.7 17.1102 16 17.9102 16Z" fill="black"/>
</g>
</svg>
