<svg width="25" height="24" viewBox="0 0 25 24" fill="none" xmlns="http://www.w3.org/2000/svg">
<g id="359">
<path id="Vector" d="M11.4102 0V3H13.4102V0H11.4102ZM8.29016 1.46L6.87016 2.87L9.00016 5L10.4102 3.58L8.29016 1.46ZM16.5302 1.46L14.4102 3.58L15.8202 5L17.9502 2.88L16.5302 1.46ZM12.4102 5C11.8797 5 11.371 5.21071 10.9959 5.58579C10.6209 5.96086 10.4102 6.46957 10.4102 7V8H6.91016C6.25016 8 5.69016 8.42 5.49016 9L3.41016 15V23C3.41016 23.2652 3.51551 23.5196 3.70305 23.7071C3.89059 23.8946 4.14494 24 4.41016 24H5.41016C5.67537 24 5.92973 23.8946 6.11726 23.7071C6.3048 23.5196 6.41016 23.2652 6.41016 23V22H18.4102V23C18.4102 23.2652 18.5155 23.5196 18.703 23.7071C18.8906 23.8946 19.1449 24 19.4102 24H20.4102C20.6754 24 20.9297 23.8946 21.1173 23.7071C21.3048 23.5196 21.4102 23.2652 21.4102 23V15L19.3302 9C19.1302 8.42 18.5702 8 17.9102 8H14.4102V7C14.4102 6.46957 14.1994 5.96086 13.8244 5.58579C13.4493 5.21071 12.9406 5 12.4102 5ZM6.91016 9.5H17.9102L19.4102 14H5.41016L6.91016 9.5ZM6.91016 16C7.30798 16 7.68951 16.158 7.97082 16.4393C8.25212 16.7206 8.41016 17.1022 8.41016 17.5C8.41016 17.8978 8.25212 18.2794 7.97082 18.5607C7.68951 18.842 7.30798 19 6.91016 19C6.51233 19 6.1308 18.842 5.8495 18.5607C5.56819 18.2794 5.41016 17.8978 5.41016 17.5C5.41016 17.1022 5.56819 16.7206 5.8495 16.4393C6.1308 16.158 6.51233 16 6.91016 16ZM17.9102 16C18.308 16 18.6895 16.158 18.9708 16.4393C19.2521 16.7206 19.4102 17.1022 19.4102 17.5C19.4102 17.8978 19.2521 18.2794 18.9708 18.5607C18.6895 18.842 18.308 19 17.9102 19C17.5123 19 17.1308 18.842 16.8495 18.5607C16.5682 18.2794 16.4102 17.8978 16.4102 17.5C16.4102 17.1022 16.5682 16.7206 16.8495 16.4393C17.1308 16.158 17.5123 16 17.9102 16Z" fill="black"/>
</g>
</svg>
