<svg width="25" height="24" viewBox="0 0 25 24" fill="none" xmlns="http://www.w3.org/2000/svg">
<g id="36">
<path id="Vector" d="M2.61035 16.06L4.29035 12L2.61035 7.93995L6.67035 6.25995L8.35035 2.19995L12.4104 3.87995L16.4704 2.19995L18.1504 6.25995L22.2104 7.93995L20.5304 12L22.2104 16.06L18.1504 17.74L16.4704 21.7999L12.4104 20.12L8.35035 21.7999L6.67035 17.74L2.61035 16.06ZM5.22035 8.99995L6.46035 12L5.22035 15L8.20035 16.21L9.41035 19.19L12.4104 17.95L15.4104 19.19L16.6204 16.21L19.6004 15L18.3604 12L19.6004 8.99995L16.6204 7.78995L15.4104 4.80995L12.4104 6.04995L9.41035 4.80995L8.20035 7.78995L5.22035 8.99995ZM11.4104 15H13.4104V17H11.4104V15ZM11.4104 6.99995H13.4104V13H11.4104V6.99995Z" fill="black"/>
</g>
</svg>
