<svg width="25" height="24" viewBox="0 0 25 24" fill="none" xmlns="http://www.w3.org/2000/svg">
<g id="360">
<g id="Group">
<path id="Vector" d="M5.72016 6C7.36016 4.16 9.75016 3 12.4102 3C15.0702 3 17.4602 4.16 19.1002 6H15.9902C14.9402 5.37 13.7202 5 12.4102 5C11.1002 5 9.88016 5.37 8.83016 6H5.72016ZM14.8102 9.6V8H11.6102C11.1858 8 10.7788 8.16857 10.4788 8.46863C10.1787 8.76869 10.0102 9.17565 10.0102 9.6V11.2C10.0102 12.08 10.7302 12.8 11.6102 12.8H13.2102V14.4H10.0102V16H13.2102C13.6345 16 14.0415 15.8314 14.3415 15.5314C14.6416 15.2313 14.8102 14.8243 14.8102 14.4V12.8C14.8102 11.92 14.0902 11.2 13.2102 11.2H11.6102V9.6H14.8102ZM18.8102 8H15.6102V16H17.2102V12.8H18.8102C19.2345 12.8 19.6415 12.6314 19.9415 12.3314C20.2416 12.0313 20.4102 11.6243 20.4102 11.2V9.6C20.4102 8.72 19.6902 8 18.8102 8ZM18.8102 11.2H17.2102V9.6H18.8102V11.2ZM9.21016 9.6V8H4.41016V16H9.21016V14.4H6.01016V12.8H9.21016V11.2H6.01016V9.6H9.21016ZM15.9902 18C14.9402 18.63 13.7202 19 12.4102 19C11.1002 19 9.88016 18.63 8.83016 18H5.72016C7.36016 19.84 9.75016 21 12.4102 21C15.0702 21 17.4602 19.84 19.1002 18H15.9902ZM20.9102 3.5L19.8302 4.58C21.7302 6.5 22.9102 9.11 22.9102 12C22.9102 14.9 21.7302 17.5 19.8302 19.42L20.9102 20.5C23.0702 18.31 24.4102 15.31 24.4102 12C24.4102 8.69 23.0702 5.69 20.9102 3.5ZM4.99016 4.58L3.91016 3.5C1.75016 5.69 0.410156 8.69 0.410156 12C0.410156 15.31 1.75016 18.31 3.91016 20.5L4.99016 19.42C3.09016 17.5 1.91016 14.9 1.91016 12C1.91016 9.11 3.09016 6.5 4.99016 4.58Z" fill="black"/>
</g>
</g>
</svg>
