<svg width="25" height="24" viewBox="0 0 25 24" fill="none" xmlns="http://www.w3.org/2000/svg">
<g id="361">
<path id="Vector" d="M18.4102 14L19.2002 14.1L19.1802 14.33L19.6502 14.5L19.8002 14.34C20.3002 14.6 20.7302 15 21.0102 15.5L20.8402 15.67L21.0402 16.12L21.2702 16.1C21.3602 16.39 21.4102 16.69 21.4102 17L21.3102 17.78L21.0702 17.77L20.8802 18.24L21.0702 18.39C20.8002 18.9 20.4102 19.32 19.9102 19.6L19.7402 19.42L19.2802 19.62L19.3002 19.86C19.0202 19.95 18.7202 20 18.4102 20L17.6202 19.9L17.6302 19.65L17.1702 19.47L17.0102 19.66C16.5102 19.39 16.0802 19 15.8002 18.5L15.9802 18.32L15.7802 17.86L15.5402 17.88C15.4602 17.6 15.4102 17.31 15.4102 17L15.5202 16.2L15.7502 16.21L15.9402 15.75L15.7602 15.6C16.0302 15.09 16.4102 14.68 16.9102 14.39L17.0802 14.56L17.5402 14.36L17.5202 14.14C17.8002 14.05 18.1002 14 18.4102 14ZM18.4102 15.5C17.5802 15.5 16.9102 16.17 16.9102 17C16.9102 17.83 17.5802 18.5 18.4102 18.5C19.2402 18.5 19.9102 17.83 19.9102 17C19.9102 16.17 19.2402 15.5 18.4102 15.5ZM6.41016 14L7.20016 14.1L7.18016 14.33L7.65016 14.5L7.80016 14.34C8.30016 14.6 8.73016 15 9.01016 15.5L8.84016 15.67L9.04016 16.12L9.27016 16.1C9.36016 16.39 9.41016 16.69 9.41016 17L9.31016 17.78L9.06016 17.77L8.88016 18.24L9.07016 18.39C8.80016 18.9 8.41016 19.32 7.91016 19.6L7.74016 19.42L7.28016 19.62L7.30016 19.86C7.02016 19.95 6.72016 20 6.41016 20L5.62016 19.9L5.63016 19.65L5.17016 19.47L5.01016 19.66C4.51016 19.39 4.08016 19 3.80016 18.5L3.98016 18.32L3.78016 17.86L3.54016 17.88C3.46016 17.6 3.41016 17.31 3.41016 17L3.52016 16.2L3.75016 16.21L3.94016 15.75L3.76016 15.6C4.03016 15.09 4.41016 14.68 4.91016 14.39L5.08016 14.56L5.54016 14.36L5.52016 14.14C5.80016 14.05 6.10016 14 6.41016 14ZM6.41016 15.5C5.58016 15.5 4.91016 16.17 4.91016 17C4.91016 17.83 5.58016 18.5 6.41016 18.5C7.24016 18.5 7.91016 17.83 7.91016 17C7.91016 16.17 7.24016 15.5 6.41016 15.5ZM16.4102 6L19.4102 10H21.4102C22.5202 10 23.4102 10.89 23.4102 12V15H21.4102C21.4102 13.34 20.0702 12 18.4102 12C16.7502 12 15.4102 13.34 15.4102 15H9.41016C9.41016 13.34 8.07016 12 6.41016 12C4.75016 12 3.41016 13.34 3.41016 15H1.41016V10H10.9102V6H16.4102ZM12.4102 7.5V10H17.8702L15.9102 7.5H12.4102Z" fill="black"/>
</g>
</svg>
