<svg width="25" height="24" viewBox="0 0 25 24" fill="none" xmlns="http://www.w3.org/2000/svg">
<g id="362">
<path id="Vector" d="M23.4102 7.00005V13H21.4102V7.00005H23.4102ZM21.4102 17H23.4102V15H21.4102V17ZM1.41016 9.00005V11H5.41016C5.51016 10.3 5.51016 9.60005 5.61016 9.00005H1.41016ZM5.41016 13H1.41016V15H5.61016C5.51016 14.4 5.51016 13.7 5.41016 13ZM6.31016 6.40005C6.41016 5.80005 6.71016 5.40005 6.91016 5.00005H1.41016V7.00005H6.11016C6.21016 6.80005 6.21016 6.60005 6.31016 6.40005ZM1.41016 17V19H7.01016C6.61016 18.4 6.31016 17.8 6.11016 17H1.41016ZM10.4102 4.80005C6.41016 4.80005 6.41016 19.2 10.4102 19.2C14.4102 19.2 19.4102 16.5 19.4102 12C19.4102 7.50005 14.4102 4.80005 10.4102 4.80005ZM10.5102 17.2C10.1102 16.8 9.41016 15 9.41016 12C9.41016 9.00005 10.1102 7.20005 10.5102 6.80005C13.4102 6.90005 17.4102 8.70005 17.4102 12C17.4102 15.3 13.4102 17.1 10.5102 17.2Z" fill="black"/>
</g>
</svg>
