<svg width="25" height="24" viewBox="0 0 25 24" fill="none" xmlns="http://www.w3.org/2000/svg">
<g id="363">
<path id="Vector" d="M8.41016 11L9.91016 6.5H18.9102L20.4102 11M18.9102 16C18.5123 16 18.1308 15.842 17.8495 15.5607C17.5682 15.2794 17.4102 14.8978 17.4102 14.5C17.4102 14.1022 17.5682 13.7206 17.8495 13.4393C18.1308 13.158 18.5123 13 18.9102 13C19.308 13 19.6895 13.158 19.9708 13.4393C20.2521 13.7206 20.4102 14.1022 20.4102 14.5C20.4102 14.8978 20.2521 15.2794 19.9708 15.5607C19.6895 15.842 19.308 16 18.9102 16ZM9.91016 16C9.51233 16 9.1308 15.842 8.8495 15.5607C8.56819 15.2794 8.41016 14.8978 8.41016 14.5C8.41016 14.1022 8.56819 13.7206 8.8495 13.4393C9.1308 13.158 9.51233 13 9.91016 13C10.308 13 10.6895 13.158 10.9708 13.4393C11.2521 13.7206 11.4102 14.1022 11.4102 14.5C11.4102 14.8978 11.2521 15.2794 10.9708 15.5607C10.6895 15.842 10.308 16 9.91016 16ZM20.3302 6C20.1202 5.4 19.5502 5 18.9102 5H9.91016C9.27016 5 8.70016 5.4 8.49016 6L6.41016 12V20C6.41016 20.2652 6.51551 20.5196 6.70305 20.7071C6.89059 20.8946 7.14494 21 7.41016 21H8.41016C8.67537 21 8.92973 20.8946 9.11726 20.7071C9.3048 20.5196 9.41016 20.2652 9.41016 20V19H19.4102V20C19.4102 20.2652 19.5155 20.5196 19.703 20.7071C19.8906 20.8946 20.1449 21 20.4102 21H21.4102C21.6754 21 21.9297 20.8946 22.1173 20.7071C22.3048 20.5196 22.4102 20.2652 22.4102 20V12L20.3302 6ZM15.3302 3C15.1202 2.4 14.5502 2 13.9102 2H4.91016C4.27016 2 3.70016 2.4 3.49016 3L1.41016 9V17C1.41016 17.2652 1.51551 17.5196 1.70305 17.7071C1.89059 17.8946 2.14494 18 2.41016 18H3.41016C3.67537 18 3.92973 17.8946 4.11726 17.7071C4.3048 17.5196 4.41016 17.2652 4.41016 17V12.91C3.63016 12.63 3.23016 11.77 3.51016 11C3.73016 10.4 4.28016 10 4.91016 10H4.98016L5.68016 8H3.41016L4.91016 3.5H15.5002L15.3302 3Z" fill="black"/>
</g>
</svg>
