<svg width="25" height="24" viewBox="0 0 25 24" fill="none" xmlns="http://www.w3.org/2000/svg">
<g id="364">
<path id="Vector" d="M1.41016 6L2.91016 7.5L1.41016 9L2.91016 10.5L1.41016 12L2.91016 13.5L1.41016 15H15.4102C15.4102 15.7956 15.7262 16.5587 16.2888 17.1213C16.8514 17.6839 17.6145 18 18.4102 18C19.2058 18 19.9689 17.6839 20.5315 17.1213C21.0941 16.5587 21.4102 15.7956 21.4102 15H23.4102V12C23.4102 10.89 22.5202 10 21.4102 10H19.4102L16.4102 6H1.41016ZM5.03016 7.5H10.9102V10H4.53016L3.53016 9L5.03016 7.5ZM12.4102 7.5H15.9102L17.8702 10H12.4102V7.5ZM18.4102 13.5C18.808 13.5 19.1895 13.658 19.4708 13.9393C19.7521 14.2206 19.9102 14.6022 19.9102 15C19.9102 15.3978 19.7521 15.7794 19.4708 16.0607C19.1895 16.342 18.808 16.5 18.4102 16.5C18.0123 16.5 17.6308 16.342 17.3495 16.0607C17.0682 15.7794 16.9102 15.3978 16.9102 15C16.9102 14.6022 17.0682 14.2206 17.3495 13.9393C17.6308 13.658 18.0123 13.5 18.4102 13.5Z" fill="black"/>
</g>
</svg>
