<svg width="25" height="24" viewBox="0 0 25 24" fill="none" xmlns="http://www.w3.org/2000/svg">
<g id="365">
<path id="Vector" d="M13.4102 4.80005C9.41016 4.80005 9.41016 19.2 13.4102 19.2C17.4102 19.2 22.4102 16.5 22.4102 12C22.4102 7.50005 17.4102 4.80005 13.4102 4.80005ZM13.5102 17.2C13.1102 16.8 12.4102 15 12.4102 12C12.4102 9.00005 13.1102 7.20005 13.5102 6.80005C16.4102 6.90005 20.4102 8.70005 20.4102 12C20.4102 15.3 16.4102 17.1 13.5102 17.2ZM2.41016 5.00005H9.91016C9.71016 5.40005 9.41016 5.80005 9.31016 6.40005C9.21016 6.60005 9.21016 6.80005 9.11016 7.00005H2.41016V5.00005ZM8.41016 11H2.41016V9.00005H8.61016C8.51016 9.60005 8.51016 10.3 8.41016 11ZM9.11016 17C9.31016 17.8 9.61016 18.4 10.0102 19H2.51016V17H9.11016ZM8.61016 15H2.41016V13H8.41016C8.51016 13.7 8.51016 14.4 8.61016 15Z" fill="black"/>
</g>
</svg>
