<svg width="25" height="24" viewBox="0 0 25 24" fill="none" xmlns="http://www.w3.org/2000/svg">
<g id="367">
<path id="Vector" d="M16.4102 11.9999C16.4102 10.8899 15.9602 9.88993 15.2402 9.16993L16.6502 7.75993C17.7402 8.84993 18.4102 10.3499 18.4102 11.9999C17.6902 11.9999 17.0102 12.1299 16.3702 12.3599C16.3802 12.2399 16.4102 12.1199 16.4102 11.9999ZM6.75016 6.33993L5.34016 4.92993C3.53016 6.73993 2.41016 9.23993 2.41016 11.9999C2.41016 14.7599 3.53016 17.2599 5.34016 19.0699L6.75016 17.6599C5.30016 16.2199 4.41016 14.2199 4.41016 11.9999C4.41016 9.78993 5.30016 7.77993 6.75016 6.33993ZM19.4802 4.92993L18.0702 6.33993C19.5202 7.77993 20.4102 9.78993 20.4102 11.9999C20.4102 12.1199 20.4102 12.2299 20.4102 12.3399C21.0902 12.5899 21.7402 12.9599 22.2902 13.4299C22.3602 12.9599 22.4102 12.4999 22.4102 11.9999C22.4102 9.23993 21.2902 6.73993 19.4802 4.92993ZM12.4102 9.99993C11.3102 9.99993 10.4102 10.8999 10.4102 11.9999C10.4102 13.0999 11.3102 13.9999 12.4102 13.9999C13.5102 13.9999 14.4102 13.0999 14.4102 11.9999C14.4102 10.8999 13.5102 9.99993 12.4102 9.99993ZM8.17016 7.75993C7.08016 8.84993 6.41016 10.3499 6.41016 11.9999C6.41016 13.6499 7.08016 15.1499 8.17016 16.2399L9.58016 14.8299C8.86016 14.1099 8.41016 13.1099 8.41016 11.9999C8.41016 10.8899 8.86016 9.88993 9.58016 9.16993L8.17016 7.75993ZM20.5302 14.4599L18.4102 16.5899L16.2902 14.4699L14.8802 15.8799L17.0002 17.9999L14.8802 20.1199L16.2902 21.5299L18.4102 19.4099L20.5302 21.5299L21.9402 20.1199L19.8202 17.9999L21.9402 15.8799L20.5302 14.4599Z" fill="black"/>
</g>
</svg>
