<svg width="25" height="24" viewBox="0 0 25 24" fill="none" xmlns="http://www.w3.org/2000/svg">
<g id="368">
<path id="Vector" d="M19.9102 2H4.91016C4.24712 2 3.61123 2.26339 3.14239 2.73223C2.67355 3.20107 2.41016 3.83696 2.41016 4.5V19.5C2.41016 20.163 2.67355 20.7989 3.14239 21.2678C3.61123 21.7366 4.24712 22 4.91016 22H19.9102C20.5732 22 21.2091 21.7366 21.6779 21.2678C22.1468 20.7989 22.4102 20.163 22.4102 19.5V4.5C22.4102 3.83696 22.1468 3.20107 21.6779 2.73223C21.2091 2.26339 20.5732 2 19.9102 2ZM11.1102 17.2C11.1102 17.5183 10.9837 17.8235 10.7587 18.0485C10.5336 18.2736 10.2284 18.4 9.91016 18.4H6.21016C5.55016 18.4 5.01016 17.86 5.01016 17.2V5.8C5.01016 5.48174 5.13658 5.17652 5.36163 4.95147C5.58667 4.72643 5.8919 4.6 6.21016 4.6H9.91016C10.5702 4.6 11.1102 5.14 11.1102 5.8V17.2ZM19.8102 12.2C19.8102 12.86 19.2702 13.4 18.6102 13.4H14.9102C14.2502 13.4 13.7102 12.86 13.7102 12.2V5.8C13.7102 5.14 14.2502 4.6 14.9102 4.6H18.6102C19.2702 4.6 19.8102 5.14 19.8102 5.8V12.2Z" fill="black"/>
</g>
</svg>
