<svg width="25" height="24" viewBox="0 0 25 24" fill="none" xmlns="http://www.w3.org/2000/svg">
<g id="369">
<path id="Vector" d="M18.51 9.32L20.06 6L15.91 5.64C16.51 6.15 17.04 6.78 17.46 7.5C17.78 8.05 17.99 8.63 18.14 9.22C17.59 9.08 17.01 9 16.41 9C16.27 9 16.13 9 15.99 9C15.22 7.25 13.47 6 11.41 6C8.65 6 6.41 8.24 6.41 11C6.41 13.06 7.66 14.81 9.41 15.58C9.41 15.72 9.41 15.86 9.41 16C9.41 19.87 12.54 23 16.41 23C20.28 23 23.41 19.87 23.41 16C23.41 12.87 21.35 10.21 18.51 9.32ZM8.41 11C8.41 9.35 9.76 8 11.41 8C12.49 8 13.44 8.58 13.97 9.45C12.07 10.15 10.56 11.66 9.86 13.56C8.99 13.03 8.41 12.08 8.41 11ZM16.41 21C13.65 21 11.41 18.76 11.41 16C11.41 13.24 13.65 11 16.41 11C19.17 11 21.41 13.24 21.41 16C21.41 18.76 19.17 21 16.41 21ZM16.91 16.25L19.77 17.94L19.02 19.16L15.41 17V12H16.91V16.25ZM11.41 4C10.57 4 9.76 4.15 9.02 4.42L11.41 1L13.8 4.42C13.06 4.15 12.25 4 11.41 4ZM5.36 14.5C5.78 15.24 6.32 15.86 6.91 16.37L2.77 16L4.53 12.23C4.67 13 4.94 13.78 5.36 14.5ZM4.52 9.79L2.75 6L6.91 5.65C6.31 6.16 5.77 6.78 5.35 7.5C4.91 8.24 4.66 9 4.52 9.79Z" fill="black"/>
</g>
</svg>
