<svg width="25" height="24" viewBox="0 0 25 24" fill="none" xmlns="http://www.w3.org/2000/svg">
<g id="37">
<path id="Vector" d="M11.4102 15.5H13.4102V17.5H11.4102V15.5ZM14.4102 19C14.4102 18.86 14.4102 18.73 14.4102 18.6H5.81016L12.4102 7.30005L16.5202 14.44C17.0302 14 17.6102 13.65 18.2502 13.41L12.4102 3.30005L2.41016 20.6H14.6302C14.4902 20.09 14.4102 19.56 14.4102 19ZM13.4102 10.5H11.4102V14.5H13.4102V10.5ZM22.5302 15.46L20.4102 17.59L18.2902 15.46L16.8802 16.88L19.0002 19L16.8802 21.1201L18.2902 22.5401L20.4102 20.41L22.5302 22.5401L23.9502 21.1201L21.8202 19L23.9502 16.88L22.5302 15.46Z" fill="black"/>
</g>
</svg>
