<svg width="25" height="24" viewBox="0 0 25 24" fill="none" xmlns="http://www.w3.org/2000/svg">
<g id="370">
<path id="Vector" d="M10.1102 4.3L12.4102 1L14.7102 4.3C14.0102 4.1 13.2102 4 12.4102 4C11.6102 4 10.8102 4.1 10.1102 4.3ZM17.9102 6.2C19.0102 7.3 19.9102 8.7 20.2102 10.3L21.9102 6.6L17.9102 6.2ZM5.41016 8.1C5.51016 8 5.51016 8 5.41016 8.1C5.51016 8 5.51016 8 5.51016 7.9C5.91016 7.3 6.41016 6.7 6.91016 6.2L2.91016 6.5L4.61016 10.2C4.81016 9.5 5.11016 8.7 5.41016 8.1ZM19.6102 15.4C19.6102 15.4 19.6102 15.5 19.6102 15.4C19.5102 15.6 19.4102 15.8 19.3102 15.9V16.1C18.9102 16.8 18.4102 17.3 17.9102 17.9L22.0102 17.6L20.3102 13.9C20.1102 14.4 19.9102 14.9 19.6102 15.4ZM5.61016 16.2C5.61016 16.1 5.51016 16.1 5.51016 16C5.41016 15.9 5.41016 15.9 5.41016 15.8C5.31016 15.6 5.21016 15.5 5.21016 15.3C5.01016 14.8 4.81016 14.3 4.71016 13.8L3.01016 17.5L7.11016 17.8C6.41016 17.3 6.01016 16.8 5.61016 16.2ZM13.0102 20H11.8102C11.2102 20 10.6102 19.8 10.1102 19.7L12.4102 23L14.7102 19.7C14.2102 19.8 13.6102 19.9 13.0102 20ZM16.6102 7.8C14.3102 5.5 10.5102 5.5 8.11016 7.8C5.71016 10.1 5.81016 13.9 8.11016 16.3C10.4102 18.7 14.2102 18.6 16.6102 16.3C19.0102 14 19.0102 10.1 16.6102 7.8ZM8.91016 15.5L11.0102 10.6L16.0102 8.4L13.9102 13.3L8.91016 15.5ZM13.1102 12.7C12.7102 13.1 12.1102 13.1 11.7102 12.7C11.3102 12.3 11.3102 11.7 11.7102 11.3C12.1102 10.9 12.7102 10.9 13.1102 11.3C13.5102 11.7 13.5102 12.3 13.1102 12.7Z" fill="black"/>
</g>
</svg>
