<svg width="25" height="24" viewBox="0 0 25 24" fill="none" xmlns="http://www.w3.org/2000/svg">
<g id="371">
<path id="Vector" d="M12.4116 0.689941L9.10156 3.99994H4.41156V8.68994L1.10156 11.9999L4.41156 15.3099V19.9999H9.10156L12.4116 23.3099L13.4116 22.3099V17.8299L16.6516 21.0699L18.0716 19.6599L13.4116 14.9999V12.9999H15.4116L20.0716 17.6599L21.4816 16.2399L18.2416 12.9999H22.4116V10.9999H18.2416L21.4816 7.75994L20.0716 6.33994L15.4116 10.9999H13.4116V8.99994L18.0716 4.33994L16.6516 2.92994L13.4116 6.16994V1.68994M11.4116 6.08994V8.12994C9.65156 8.58994 8.41156 10.1799 8.41156 11.9999C8.41156 13.8199 9.65156 15.4099 11.4116 15.8699V17.9099C8.53156 17.4199 6.41156 14.9299 6.41156 11.9999C6.41156 9.06994 8.52156 6.56994 11.4116 6.08994Z" fill="black"/>
</g>
</svg>
