<svg width="25" height="24" viewBox="0 0 25 24" fill="none" xmlns="http://www.w3.org/2000/svg">
<g id="372">
<path id="Vector" d="M13.33 1.58008L11.59 2.58008L12.8 4.67008L12.21 6.85008L9.41 7.60008L7.79 6.00008L7.83 3.59008H5.84V5.42008H4L4.01 7.42008H6.41L8.06 9.03008L7.31 11.8201L5.09 12.4001L3 11.2001L2 12.9301L3.58 13.8401L2.67 15.4201L4.41 16.4201L5.6 14.3301L7.83 13.7501L8.33 14.2601L9.73 12.8601L9.19 12.3201L9.94 9.54008L12.73 8.78008L13.26 9.32008L14.67 7.91008L14.14 7.37008L14.73 5.19008L16.82 4.00008L15.82 2.25008L14.24 3.16008L13.33 1.58008ZM21.13 4.00008L4.41 20.7201L5.68 22.0001L10.57 17.1101C11.04 17.4301 11.56 17.6801 12.12 17.8301C14.79 18.5501 17.53 16.9601 18.24 14.2901C18.63 12.8601 18.34 11.3601 17.52 10.1601L22.41 5.27008L21.13 4.00008ZM19.15 9.00008C19.59 9.63008 19.94 10.3801 20.16 11.1901C20.38 12.0001 20.44 12.8101 20.37 13.6101L23.06 10.4101L19.15 9.00008ZM19.73 15.9501C19.41 16.6701 18.91 17.3501 18.34 17.9401C17.75 18.5301 17.07 19.0001 16.37 19.3401L20.46 20.0601L19.73 15.9501ZM9.41 18.7101L10.82 22.6601L14 19.9501C13.22 20.0001 12.41 19.9701 11.6 19.7601C10.77 19.5401 10.03 19.1701 9.41 18.7101Z" fill="black"/>
</g>
</svg>
