<svg width="25" height="24" viewBox="0 0 25 24" fill="none" xmlns="http://www.w3.org/2000/svg">
<g id="373">
<g id="Group">
<path id="Vector" d="M7.41074 17H4.41074C2.79074 17 1.37074 15.74 1.17074 14.14L0.670738 11.15C0.560738 10.3 0.800738 9.5 1.32074 8.92C1.84074 8.34 2.60074 8 3.41074 8H9.41074C10.2407 8 10.9907 8.35 11.4707 8.96C11.5807 9.11 11.6807 9.27 11.7607 9.45C12.1907 9.36 12.6307 9.36 13.0507 9.45C13.1307 9.27 13.2307 9.11 13.3507 8.96C13.8207 8.35 14.5707 8 15.4107 8H21.4107C22.2207 8 22.9807 8.34 23.5007 8.92C24.0107 9.5 24.2507 10.3 24.1507 11.11L23.6407 14.18C23.4507 15.74 22.0207 17 20.4107 17H17.4107C15.8507 17 14.3307 15.81 13.9507 14.3L13.0507 11.59C12.6707 11.31 12.1407 11.31 11.7607 11.59L10.8407 14.37C10.4807 15.82 8.97074 17 7.41074 17Z" fill="black"/>
</g>
</g>
</svg>
