<svg width="25" height="24" viewBox="0 0 25 24" fill="none" xmlns="http://www.w3.org/2000/svg">
<g id="375">
<path id="Vector" d="M5.54016 10.71H9.28016L6.63016 8.06C5.62016 8.06 4.80016 7.24 4.80016 6.22C4.80016 5.73465 4.99296 5.26919 5.33615 4.92599C5.67934 4.5828 6.14481 4.39 6.63016 4.39C7.65016 4.39 8.47016 5.21 8.47016 6.22L11.1202 8.87V5.13C10.4102 4.41 10.4102 3.25 11.1202 2.54C11.8302 1.82 12.9902 1.82 13.7002 2.54C14.4102 3.25 14.4102 4.41 13.7002 5.13V8.87L16.3602 6.22C16.3602 5.21 17.1702 4.39 18.1902 4.39C19.2002 4.39 20.0202 5.21 20.0202 6.22C20.0202 7.24 19.2002 8.06 18.1902 8.06L15.5402 10.71H19.2802C20.0002 10 21.1602 10 21.8702 10.71C22.5902 11.42 22.5902 12.58 21.8702 13.29C21.1602 14 20.0002 14 19.2802 13.29H15.5402L18.1902 15.95C19.2002 15.95 20.0202 16.76 20.0202 17.78C20.0202 18.2653 19.8274 18.7308 19.4842 19.074C19.141 19.4172 18.6755 19.61 18.1902 19.61C17.1702 19.61 16.3602 18.79 16.3602 17.78L13.7002 15.13V18.87C14.4102 19.59 14.4102 20.75 13.7002 21.46C12.9902 22.18 11.8302 22.18 11.1202 21.46C10.4102 20.75 10.4102 19.59 11.1202 18.87V15.13L8.47016 17.78C8.47016 18.79 7.65016 19.61 6.63016 19.61C5.62016 19.61 4.80016 18.79 4.80016 17.78C4.80016 16.76 5.62016 15.95 6.63016 15.95L9.28016 13.29H5.54016C4.82016 14 3.66016 14 2.95016 13.29C2.23016 12.58 2.23016 11.42 2.95016 10.71C3.66016 10 4.82016 10 5.54016 10.71Z" fill="black"/>
</g>
</svg>
