<svg width="25" height="24" viewBox="0 0 25 24" fill="none" xmlns="http://www.w3.org/2000/svg">
<g id="378">
<path id="Vector" d="M3.41016 7V9H7.41016V11H5.41016C4.31016 11 3.41016 11.9 3.41016 13V17H9.41016V15H5.41016V13H7.41016C8.51016 13 9.41016 12.1 9.41016 11V9C9.41016 7.9 8.51016 7 7.41016 7H3.41016ZM13.4102 17H11.4102V15H13.4102V17ZM17.4102 7C16.3102 7 15.4102 7.9 15.4102 9V15C15.4102 16.1 16.3102 17 17.4102 17H19.4102C20.5102 17 21.4102 16.1 21.4102 15V9C21.4102 7.9 20.5102 7 19.4102 7H17.4102ZM17.4102 9H19.4102V15H17.4102V9Z" fill="black"/>
</g>
</svg>
