<svg width="25" height="24" viewBox="0 0 25 24" fill="none" xmlns="http://www.w3.org/2000/svg">
<g id="379">
<path id="Vector" d="M11.41 6C14.17 6 16.41 8.24 16.41 11C16.41 13.76 14.17 16 11.41 16C8.65 16 6.41 13.76 6.41 11C6.41 8.24 8.65 6 11.41 6ZM11.41 1L13.8 4.42C13.06 4.15 12.25 4 11.41 4C10.57 4 9.76 4.15 9.02 4.42L11.41 1ZM2.75 6L6.91 5.65C6.31 6.16 5.77 6.78 5.35 7.5C4.91 8.24 4.66 9 4.52 9.79L2.75 6ZM2.77 16L4.53 12.23C4.67 13 4.94 13.78 5.36 14.5C5.78 15.24 6.32 15.86 6.91 16.37L2.77 16ZM20.06 6L18.29 9.79C18.15 9 17.88 8.23 17.46 7.5C17.04 6.78 16.51 6.15 15.91 5.64L20.06 6ZM23.41 13H21.41C21.41 15.05 20.63 17.1 19.07 18.66C17.5 20.23 15.46 21 13.41 21V23C15.97 23 18.53 22 20.48 20.07C22.43 18.14 23.41 15.56 23.41 13ZM19.41 13H17.41C17.41 14 17.02 15.05 16.24 15.83C15.46 16.61 14.41 17 13.41 17V19C14.95 19 16.49 18.41 17.66 17.24C18.82 16.08 19.41 14.54 19.41 13Z" fill="black"/>
</g>
</svg>
