<svg width="25" height="24" viewBox="0 0 25 24" fill="none" xmlns="http://www.w3.org/2000/svg">
<g id="380">
<path id="Vector" d="M10.4109 2L8.01094 5.4C8.81094 5.2 9.61094 5 10.4109 5C11.2109 5 12.0109 5.2 12.8109 5.4L10.4109 2ZM21.4109 13.8V7C21.4109 5.9 20.5109 5 19.4109 5C18.3109 5 17.4109 5.9 17.4109 7V13.8C16.8109 14.4 16.4109 15.2 16.4109 16C16.4109 17.7 17.7109 19 19.4109 19C21.1109 19 22.4109 17.7 22.4109 16C22.4109 15.1 22.0109 14.3 21.4109 13.8ZM20.4109 8H18.4109V7C18.4109 6.4 18.8109 6 19.4109 6C20.0109 6 20.4109 6.4 20.4109 7V8ZM5.91094 6.7L1.71094 7L3.51094 10.8C3.61094 10 3.91094 9.2 4.31094 8.5C4.81094 7.8 5.31094 7.2 5.91094 6.7ZM10.4109 7C7.61094 7 5.41094 9.2 5.41094 12C5.41094 14.8 7.61094 17 10.4109 17C13.2109 17 15.4109 14.8 15.4109 12C15.4109 9.2 13.2109 7 10.4109 7ZM10.4109 15C8.71094 15 7.41094 13.7 7.41094 12C7.41094 10.3 8.71094 9 10.4109 9C12.1109 9 13.4109 10.3 13.4109 12C13.4109 13.7 12.1109 15 10.4109 15ZM3.61094 13.2L1.81094 17L5.91094 17.4C5.41094 16.9 4.81094 16.2 4.41094 15.5C3.91094 14.8 3.71094 14 3.61094 13.2ZM8.01094 18.6L10.4109 22L12.8109 18.6C12.0109 18.8 11.2109 19 10.4109 19C9.51094 19 8.71094 18.8 8.01094 18.6Z" fill="black"/>
</g>
</svg>
