<svg width="25" height="24" viewBox="0 0 25 24" fill="none" xmlns="http://www.w3.org/2000/svg">
<g id="381">
<path id="Vector" d="M20.4102 4H4.41016C3.87972 4 3.37102 4.21071 2.99594 4.58579C2.62087 4.96086 2.41016 5.46957 2.41016 6V18C2.41016 18.5304 2.62087 19.0391 2.99594 19.4142C3.37102 19.7893 3.87972 20 4.41016 20H20.4102C20.9406 20 21.4493 19.7893 21.8244 19.4142C22.1994 19.0391 22.4102 18.5304 22.4102 18V6C22.4102 5.46957 22.1994 4.96086 21.8244 4.58579C21.4493 4.21071 20.9406 4 20.4102 4ZM8.17016 16.24L6.76016 17.65C5.19016 16.1 4.41016 14.05 4.41016 12C4.41016 9.95 5.19016 7.9 6.75016 6.34L8.16016 7.75C7.00016 8.93 6.41016 10.46 6.41016 12C6.41016 13.54 7.00016 15.07 8.17016 16.24ZM12.4102 16C11.3493 16 10.3319 15.5786 9.58173 14.8284C8.83158 14.0783 8.41016 13.0609 8.41016 12C8.41016 10.9391 8.83158 9.92172 9.58173 9.17157C10.3319 8.42143 11.3493 8 12.4102 8C13.471 8 14.4884 8.42143 15.2386 9.17157C15.9887 9.92172 16.4102 10.9391 16.4102 12C16.4102 13.0609 15.9887 14.0783 15.2386 14.8284C14.4884 15.5786 13.471 16 12.4102 16ZM18.0702 17.66L16.6602 16.25C17.8202 15.07 18.4102 13.54 18.4102 12C18.4102 10.46 17.8202 8.93 16.6502 7.76L18.0602 6.35C19.6302 7.9 20.4102 9.95 20.4102 12C20.4102 14.05 19.6302 16.1 18.0702 17.66ZM12.4102 10C11.8797 10 11.371 10.2107 10.9959 10.5858C10.6209 10.9609 10.4102 11.4696 10.4102 12C10.4102 12.5304 10.6209 13.0391 10.9959 13.4142C11.371 13.7893 11.8797 14 12.4102 14C12.9406 14 13.4493 13.7893 13.8244 13.4142C14.1994 13.0391 14.4102 12.5304 14.4102 12C14.4102 11.4696 14.1994 10.9609 13.8244 10.5858C13.4493 10.2107 12.9406 10 12.4102 10Z" fill="black"/>
</g>
</svg>
