<svg width="25" height="24" viewBox="0 0 25 24" fill="none" xmlns="http://www.w3.org/2000/svg">
<g id="382">
<g id="Group">
<path id="Vector" d="M18.4102 7V9H22.4102V11H20.4102C19.3102 11 18.4102 11.9 18.4102 13V17H24.4102V15H20.4102V13H22.4102C23.5102 13 24.4102 12.1 24.4102 11V9C24.4102 7.9 23.5102 7 22.4102 7H18.4102ZM9.41016 17H7.41016V15H9.41016V17ZM9.41016 7V9H11.4102V17H13.4102V7H9.41016ZM0.410156 7V13H4.41016V15H0.410156V17H4.41016C5.51016 17 6.41016 16.1 6.41016 15V13C6.41016 11.9 5.51016 11 4.41016 11H2.41016V9H6.41016V7H0.410156ZM17.4102 17H15.4102V15H17.4102V17Z" fill="black"/>
</g>
</g>
</svg>
