<svg width="25" height="24" viewBox="0 0 25 24" fill="none" xmlns="http://www.w3.org/2000/svg">
<g id="384">
<path id="Vector" d="M12.4102 2C6.91016 2 2.41016 6.5 2.41016 12C2.41016 17.5 6.91016 22 12.4102 22C17.9102 22 22.4102 17.5 22.4102 12C22.4102 6.5 17.9102 2 12.4102 2ZM12.4102 20C8.00016 20 4.41016 16.41 4.41016 12C4.41016 7.59 8.00016 4 12.4102 4C16.8202 4 20.4102 7.59 20.4102 12C20.4102 16.41 16.8202 20 12.4102 20ZM15.4102 6.5V9H11.4102V11H15.4102V13.5L18.9102 10L15.4102 6.5ZM9.41016 10.5L5.91016 14L9.41016 17.5V15H13.4102V13H9.41016V10.5Z" fill="black"/>
</g>
</svg>
