<svg width="25" height="24" viewBox="0 0 25 24" fill="none" xmlns="http://www.w3.org/2000/svg">
<g id="387">
<path id="Vector" d="M9.41016 4V6H6.41016V8H9.41016V10C6.66016 10 4.41016 12.27 4.41016 15.03C4.41016 17.8 6.67016 20.06 9.44016 20.06C10.3002 20.06 11.1302 19.77 11.8102 19.26C12.0402 19.54 12.2902 19.82 12.5602 20.09L13.9702 18.67C13.7102 18.42 13.4802 18.15 13.2702 17.89L14.2702 16.89C15.3402 15.82 16.1902 14.23 16.8302 12.59C17.7202 13.11 18.4102 13.9 18.4102 15C18.4102 16.32 17.8802 17.6 16.9502 18.54L18.3602 19.95C19.6702 18.64 20.4102 16.86 20.4102 15C20.4102 13.04 19.2302 11.36 17.5602 10.55L17.9102 9.29L15.9602 8.78L15.6202 10.05C15.5402 10.05 15.4702 10 15.3802 10H11.4102V8H16.4102V6H11.4102V4M11.4102 12H14.9102C14.3502 13.37 13.6002 14.72 12.8502 15.47L12.2002 16.13C11.6602 14.93 11.4102 13.59 11.4102 12ZM9.41016 12C9.41016 14.07 9.82016 15.94 10.7102 17.59C10.3502 17.89 9.91016 18.06 9.44016 18.06C7.74016 18.06 6.41016 16.73 6.41016 15.03C6.41016 13.34 7.73016 12 9.41016 12Z" fill="black"/>
</g>
</svg>
