<svg width="25" height="24" viewBox="0 0 25 24" fill="none" xmlns="http://www.w3.org/2000/svg">
<g id="388">
<path id="Vector" d="M8.41016 4V6H4.41016V8H6.80016C5.96016 8.74 5.41016 9.8 5.41016 11C5.41016 13.2 7.21016 15 9.41016 15C11.6102 15 13.4102 13.2 13.4102 11C13.4102 9.8 12.8602 8.74 12.0202 8H14.4102V6H10.4102V4M15.4102 4V16H17.4102V11H20.4102V9H17.4102V4M9.41016 9C10.5302 9 11.4102 9.88 11.4102 11C11.4102 12.12 10.5302 13 9.41016 13C8.29016 13 7.41016 12.12 7.41016 11C7.41016 9.88 8.29016 9 9.41016 9ZM7.41016 16V20H17.4102V18H9.41016V16H7.41016Z" fill="black"/>
</g>
</svg>
