<svg width="25" height="24" viewBox="0 0 25 24" fill="none" xmlns="http://www.w3.org/2000/svg">
<g id="389">
<path id="Vector" d="M6.60984 2.43994L18.5098 14.3399L20.6298 12.2199L22.0398 13.6299L19.5698 16.0999L22.7498 19.2799C23.1398 19.6699 23.1398 20.2999 22.7498 20.6899L22.0398 21.3999C21.6498 21.7899 21.0198 21.7899 20.6298 21.3999L17.4098 18.2299L14.9698 20.6999L13.5598 19.2899L15.6798 17.1699L3.77984 5.26994V2.43994H6.60984ZM16.2998 9.99994L21.0398 5.25994V2.43994H18.2098L13.4698 7.17994L16.2998 9.99994ZM11.3498 14.9999L8.51984 12.1299L6.30984 14.3399L4.18984 12.2199L2.77984 13.6299L5.24984 16.0999L2.06984 19.2899C1.67984 19.6799 1.67984 20.3099 2.06984 20.6999L2.77984 21.4099C3.16984 21.7999 3.79984 21.7999 4.18984 21.4099L7.40984 18.2299L9.84984 20.6999L11.2598 19.2899L9.13984 17.1699L11.3498 14.9999Z" fill="black"/>
</g>
</svg>
