<svg width="25" height="24" viewBox="0 0 25 24" fill="none" xmlns="http://www.w3.org/2000/svg">
<g id="39">
<path id="Vector" d="M10.7202 10.93C11.7402 12.57 11.5902 14.5 10.3702 15.28C9.15016 16.04 7.33016 15.33 6.30016 13.69C5.28016 12.05 5.44016 10.1 6.66016 9.34C7.88016 8.58 9.70016 9.29 10.7202 10.93ZM12.4102 17.75C14.4102 17.75 14.9102 17 14.9102 17C14.9102 17 14.4102 19 12.4102 19C10.4102 19 9.91016 17.03 9.91016 17C9.91016 17 10.4102 17.75 12.4102 17.75ZM18.1602 9.34C19.3802 10.1 19.5402 12.05 18.5202 13.69C17.4902 15.33 15.6702 16.04 14.4502 15.28C13.2302 14.5 13.0802 12.57 14.1002 10.93C15.1202 9.29 16.9402 8.58 18.1602 9.34ZM12.4102 20C14.9102 20 20.4102 14.86 20.4102 11C20.4102 7.14 16.8202 4 12.4102 4C8.00016 4 4.41016 7.14 4.41016 11C4.41016 14.86 9.91016 20 12.4102 20ZM12.4102 2C17.9102 2 22.4102 6.04 22.4102 11C22.4102 15.08 16.7302 22 12.4102 22C8.09016 22 2.41016 15.08 2.41016 11C2.41016 6.04 6.91016 2 12.4102 2Z" fill="black"/>
</g>
</svg>
