<svg width="25" height="24" viewBox="0 0 25 24" fill="none" xmlns="http://www.w3.org/2000/svg">
<g id="392">
<path id="Vector" d="M13.4102 18H14.4102C14.6754 18 14.9297 18.1054 15.1173 18.2929C15.3048 18.4804 15.4102 18.7348 15.4102 19H22.4102V21H15.4102C15.4102 21.2652 15.3048 21.5196 15.1173 21.7071C14.9297 21.8946 14.6754 22 14.4102 22H10.4102C10.1449 22 9.89059 21.8946 9.70305 21.7071C9.51551 21.5196 9.41016 21.2652 9.41016 21H2.41016V19H9.41016C9.41016 18.7348 9.51551 18.4804 9.70305 18.2929C9.89059 18.1054 10.1449 18 10.4102 18H11.4102V16H8.41016C8.14494 16 7.89059 15.8946 7.70305 15.7071C7.51551 15.5196 7.41016 15.2652 7.41016 15V3C7.41016 2.73478 7.51551 2.48043 7.70305 2.29289C7.89059 2.10536 8.14494 2 8.41016 2H16.4102C16.6754 2 16.9297 2.10536 17.1173 2.29289C17.3048 2.48043 17.4102 2.73478 17.4102 3V15C17.4102 15.2652 17.3048 15.5196 17.1173 15.7071C16.9297 15.8946 16.6754 16 16.4102 16H13.4102V18ZM13.4102 6H14.4102V4H13.4102V6ZM9.41016 4V6H11.4102V4H9.41016ZM9.41016 8V10H11.4102V8H9.41016ZM9.41016 12V14H11.4102V12H9.41016Z" fill="black"/>
</g>
</svg>
