<svg width="25" height="24" viewBox="0 0 25 24" fill="none" xmlns="http://www.w3.org/2000/svg">
<g id="394">
<path id="Vector" d="M2.41016 7V14H4.41016V7H2.41016ZM6.41016 7V9H10.4102V11H8.41016V14H10.4102V13C11.5202 13 12.4102 12.11 12.4102 11V9C12.4102 7.89 11.5202 7 10.4102 7H6.41016ZM16.2102 7L16.0102 9H14.4102V11H15.8102L15.6102 13H14.4102V15H15.4102L15.2102 17H17.2102L17.4102 15H18.8102L18.6102 17H20.6102L20.8102 15H22.4102V13H21.0102L21.2102 11H22.4102V9H21.4102L21.6102 7H19.6102L19.4102 9H18.0102L18.2102 7H16.2102ZM17.8102 11H19.2102L19.0102 13H17.6102L17.8102 11ZM2.41016 15V17H4.41016V15H2.41016ZM8.41016 15V17H10.4102V15H8.41016Z" fill="black"/>
</g>
</svg>
