<svg width="25" height="24" viewBox="0 0 25 24" fill="none" xmlns="http://www.w3.org/2000/svg">
<g id="395">
<path id="Vector" d="M12.4102 2C11.0969 2 9.79658 2.25866 8.58332 2.7612C7.37007 3.26375 6.26767 4.00035 5.33909 4.92893C3.46372 6.8043 2.41016 9.34784 2.41016 12C2.41016 14.6522 3.46372 17.1957 5.33909 19.0711C6.26767 19.9997 7.37007 20.7362 8.58332 21.2388C9.79658 21.7413 11.0969 22 12.4102 22C15.0623 22 17.6059 20.9464 19.4812 19.0711C21.3566 17.1957 22.4102 14.6522 22.4102 12C22.4102 10.6868 22.1515 9.38642 21.649 8.17317C21.1464 6.95991 20.4098 5.85752 19.4812 4.92893C18.5526 4.00035 17.4502 3.26375 16.237 2.7612C15.0237 2.25866 13.7234 2 12.4102 2ZM16.7802 5.7C17.8002 5.67 18.5602 6.13 18.6202 6.84C18.6302 7.15 18.4502 7.75 17.8302 7.77C17.3602 7.79 17.0402 7.5 17.0302 7.09C17.0202 6.93 17.2902 6.42 17.2902 6.33C17.2802 6.06 16.8802 6.05 16.7702 6.06C15.2702 6.11 14.8702 8.13 14.5502 9.78L14.4102 10.65C15.2502 10.78 15.8702 10.62 16.2102 10.4C16.6902 10.09 16.0702 9.77 16.1502 9.41C16.2302 9.04 16.5602 8.87 16.8202 8.86C17.1902 8.85 17.4502 9.23 17.4402 9.62C17.4102 10.26 16.5802 11.14 14.9102 11.1C14.6902 11.1 14.5002 11.08 14.3202 11.06C13.7102 14.16 13.3302 16 11.9702 17.58C10.8002 18.97 9.61016 19.18 9.08016 19.2C8.08016 19.24 7.41016 18.71 7.41016 18C7.38016 17.32 7.98016 16.94 8.38016 16.93C8.91016 16.91 9.28016 17.3 9.29016 17.74C9.31016 18.11 9.11016 18.23 8.98016 18.3C8.91016 18.37 8.76016 18.45 8.77016 18.6C8.77016 18.67 8.84016 18.82 9.06016 18.81C9.48016 18.8 9.75016 18.59 9.95016 18.45C10.9102 17.65 11.2902 16.24 11.7802 13.68C12.0402 12.23 12.2302 11.3 12.5102 10.38C11.8302 9.87 11.4102 9.23 10.5002 9C9.87016 8.81 9.49016 8.96 9.22016 9.3C8.91016 9.71 9.01016 10.23 9.31016 10.54C10.4602 11.82 10.8002 12.38 10.6702 13.14C10.4702 14.35 9.03016 15.27 7.33016 14.75C5.88016 14.3 5.61016 13.28 5.78016 12.71C5.94016 12.22 6.33016 12.12 6.72016 12.24C7.14016 12.37 7.30016 12.87 7.18016 13.26C7.16016 13.3 6.96016 13.67 6.91016 13.79C6.82016 14.1 7.24016 14.31 7.53016 14.4C8.18016 14.6 8.81016 14.26 8.96016 13.73C9.11016 13.25 8.81016 12.91 8.68016 12.78C7.79016 11.8 7.17016 10.93 7.47016 9.95C7.59016 9.58 7.83016 9.18 8.19016 8.91C8.94016 8.36 9.76016 8.26 10.5302 8.5C11.5402 8.77 12.0202 9.44 12.6502 9.95C13.0002 8.93 13.4902 7.92 14.2202 7.07C14.8802 6.3 15.7602 5.74 16.7802 5.7Z" fill="black"/>
</g>
</svg>
