<svg width="25" height="24" viewBox="0 0 25 24" fill="none" xmlns="http://www.w3.org/2000/svg">
<g id="396">
<path id="Vector" d="M6.41016 8V21H10.4102V16C10.4102 14.9 11.3102 14 12.4102 14C13.5102 14 14.4102 14.9 14.4102 16V21H18.4102V8L12.4102 3L6.41016 8ZM13.9102 10C13.9102 10.8 13.2102 11.5 12.4102 11.5C11.6102 11.5 10.9102 10.8 10.9102 10C10.9102 9.2 11.6102 8.5 12.4102 8.5C13.2102 8.5 13.9102 9.2 13.9102 10ZM3.41016 5C2.31016 5 1.41016 5.9 1.41016 7V8H5.41016V7C5.41016 5.9 4.51016 5 3.41016 5ZM1.41016 9H5.41016V21H1.41016V9ZM21.4102 5C20.3102 5 19.4102 5.9 19.4102 7V8H23.4102V7C23.4102 5.9 22.5102 5 21.4102 5ZM19.4102 9H23.4102V21H19.4102V9Z" fill="black"/>
</g>
</svg>
