<svg width="25" height="24" viewBox="0 0 25 24" fill="none" xmlns="http://www.w3.org/2000/svg">
<g id="397">
<path id="Vector" d="M2.41016 12C2.41016 13.9778 2.99665 15.9112 4.09546 17.5557C5.19427 19.2002 6.75606 20.4819 8.58332 21.2388C10.4106 21.9957 12.4212 22.1937 14.3611 21.8079C16.3009 21.422 18.0827 20.4696 19.4812 19.0711C20.8797 17.6725 21.8322 15.8907 22.218 13.9509C22.6039 12.0111 22.4058 10.0004 21.649 8.17317C20.8921 6.3459 19.6104 4.78412 17.9659 3.6853C16.3214 2.58649 14.388 2 12.4102 2C11.0969 2 9.79658 2.25866 8.58332 2.7612C7.37007 3.26375 6.26767 4.00035 5.33909 4.92893C3.46372 6.8043 2.41016 9.34784 2.41016 12ZM16.0102 13.72C16.27 13.1836 16.4066 12.596 16.4102 12C16.4102 10.9391 15.9887 9.92172 15.2386 9.17157C14.4884 8.42143 13.471 8 12.4102 8V10L9.29016 7L12.4102 4V6C14.0015 6 15.5276 6.63214 16.6528 7.75736C17.778 8.88258 18.4102 10.4087 18.4102 12C18.4122 13.1305 18.0894 14.2377 17.4802 15.19M6.41016 12C6.40814 10.8695 6.73095 9.76228 7.34016 8.81L8.81016 10.28C8.55035 10.8164 8.41369 11.404 8.41016 12C8.41016 13.0609 8.83158 14.0783 9.58173 14.8284C10.3319 15.5786 11.3493 16 12.4102 16V14L15.4102 17L12.4102 20V18C10.8189 18 9.29273 17.3679 8.16752 16.2426C7.0423 15.1174 6.41016 13.5913 6.41016 12Z" fill="black"/>
</g>
</svg>
