<svg width="25" height="24" viewBox="0 0 25 24" fill="none" xmlns="http://www.w3.org/2000/svg">
<g id="398">
<path id="Vector" d="M20.4095 4H14.4095V10L16.6495 7.76C17.7295 8.85 18.4095 10.34 18.4095 12C18.4095 13 18.1595 13.94 17.7295 14.77L19.1895 16.23C19.9595 15 20.4095 13.56 20.4095 12C20.4095 9.79 19.4995 7.8 18.0495 6.36L20.4095 4ZM3.26953 5.41L5.62953 7.77C4.85953 9 4.40953 10.44 4.40953 12C4.40953 14.21 5.31953 16.2 6.76953 17.64L4.40953 20H10.4095V14L8.16953 16.24C7.08953 15.15 6.40953 13.66 6.40953 12C6.40953 11 6.65953 10.06 7.08953 9.23L15.1695 17.31C14.9095 17.44 14.6695 17.56 14.4095 17.65V19.74C15.1995 19.53 15.9495 19.2 16.6295 18.78L18.9895 21.14L20.2595 19.87L4.54953 4.14L3.26953 5.41ZM10.4095 6.35V4.26C9.60953 4.47 8.85953 4.8 8.17953 5.22L9.63953 6.68C9.90953 6.56 10.1395 6.44 10.4095 6.35Z" fill="black"/>
</g>
</svg>
