<svg width="25" height="24" viewBox="0 0 25 24" fill="none" xmlns="http://www.w3.org/2000/svg">
<g id="399">
<path id="Vector" d="M11.4102 13H13.4102V7H11.4102M21.4102 4H15.4102V10L17.6502 7.76C18.7302 8.85 19.4102 10.34 19.4102 12C19.4102 14.61 17.7402 16.83 15.4102 17.65V19.74C18.8602 18.85 21.4102 15.73 21.4102 12C21.4102 9.79 20.5002 7.8 19.0502 6.36M11.4102 17H13.4102V15H11.4102M3.41016 12C3.41016 14.21 4.32016 16.2 5.77016 17.64L3.41016 20H9.41016V14L7.17016 16.24C6.09016 15.15 5.41016 13.66 5.41016 12C5.41016 9.39 7.08016 7.17 9.41016 6.35V4.26C5.96016 5.15 3.41016 8.27 3.41016 12Z" fill="black"/>
</g>
</svg>
