<svg width="25" height="24" viewBox="0 0 25 24" fill="none" xmlns="http://www.w3.org/2000/svg">
<g id="4">
<path id="Vector" d="M18.4102 16H14.4102V18H18.4102V20L21.4102 17L18.4102 14V16ZM11.4102 4C9.21016 4 7.41016 5.8 7.41016 8C7.41016 10.2 9.21016 12 11.4102 12C13.6102 12 15.4102 10.2 15.4102 8C15.4102 5.8 13.6102 4 11.4102 4ZM11.4102 6C12.5102 6 13.4102 6.9 13.4102 8C13.4102 9.1 12.5102 10 11.4102 10C10.3102 10 9.41016 9.1 9.41016 8C9.41016 6.9 10.3102 6 11.4102 6ZM11.4102 13C8.71016 13 3.41016 14.3 3.41016 17V20H12.9102C12.6102 19.4 12.5102 18.8 12.4102 18.1H5.31016V17C5.31016 16.4 8.41016 14.9 11.4102 14.9C11.9102 14.9 12.4102 15 12.9102 15C13.2102 14.4 13.5102 13.8 14.0102 13.3C13.0102 13.1 12.1102 13 11.4102 13Z" fill="black"/>
</g>
</svg>
