<svg width="25" height="24" viewBox="0 0 25 24" fill="none" xmlns="http://www.w3.org/2000/svg">
<g id="40">
<path id="Vector" d="M12.4102 3C17.3802 3 21.4102 6.58 21.4102 11C21.4102 15.42 15.4102 21 12.4102 21C9.41016 21 3.41016 15.42 3.41016 11C3.41016 6.58 7.44016 3 12.4102 3ZM10.7202 10.93C9.70016 9.29 7.88016 8.58 6.66016 9.34C5.44016 10.1 5.28016 12.05 6.30016 13.69C7.33016 15.33 9.15016 16.04 10.3702 15.28C11.5902 14.5 11.7402 12.57 10.7202 10.93ZM14.1002 10.93C13.0802 12.57 13.2302 14.5 14.4502 15.28C15.6702 16.04 17.4902 15.33 18.5202 13.69C19.5402 12.05 19.3802 10.1 18.1602 9.34C16.9402 8.58 15.1202 9.29 14.1002 10.93ZM12.4102 17.75C10.4102 17.75 9.91016 17 9.91016 17C9.91016 17.03 10.4102 19 12.4102 19C14.4102 19 14.9102 17 14.9102 17C14.9102 17 14.4102 17.75 12.4102 17.75Z" fill="black"/>
</g>
</svg>
