<svg width="25" height="24" viewBox="0 0 25 24" fill="none" xmlns="http://www.w3.org/2000/svg">
<g id="400">
<path id="Vector" d="M12.4102 18C10.8189 18 9.29273 17.3679 8.16752 16.2426C7.0423 15.1174 6.41016 13.5913 6.41016 12C6.41016 11 6.66016 10.03 7.11016 9.2L5.65016 7.74C4.87016 8.97 4.41016 10.43 4.41016 12C4.41016 14.1217 5.25301 16.1566 6.7533 17.6569C8.25359 19.1571 10.2884 20 12.4102 20V23L16.4102 19L12.4102 15M12.4102 4V1L8.41016 5L12.4102 9V6C14.0015 6 15.5276 6.63214 16.6528 7.75736C17.778 8.88258 18.4102 10.4087 18.4102 12C18.4102 13 18.1602 13.97 17.7102 14.8L19.1702 16.26C19.9502 15.03 20.4102 13.57 20.4102 12C20.4102 9.87827 19.5673 7.84344 18.067 6.34315C16.5667 4.84285 14.5319 4 12.4102 4Z" fill="black"/>
</g>
</svg>
