<svg width="25" height="24" viewBox="0 0 25 24" fill="none" xmlns="http://www.w3.org/2000/svg">
<g id="401">
<path id="Vector" d="M20.4102 4C18.7102 4 17.4102 5.3 17.4102 7V7.3L12.4102 3L7.41016 7.3V7C7.41016 5.3 6.11016 4 4.41016 4C2.71016 4 1.41016 5.3 1.41016 7V21H11.4102V16C11.4102 15.4 11.8102 15 12.4102 15C13.0102 15 13.4102 15.4 13.4102 16V21H23.4102V7C23.4102 5.3 22.1102 4 20.4102 4ZM20.4102 6C20.9102 6 21.4102 6.4 21.4102 7V8H19.4102V7C19.4102 6.4 19.9102 6 20.4102 6ZM4.41016 6C5.01016 6 5.41016 6.4 5.41016 7V8H3.41016V7C3.41016 6.4 3.91016 6 4.41016 6ZM3.41016 19V10H5.41016V19H3.41016ZM17.4102 19H15.4102V16C15.4102 14.4 14.0102 13 12.4102 13C10.8102 13 9.41016 14.4 9.41016 16V19H7.41016V9.9L12.4102 5.6L17.4102 9.9V19ZM19.4102 19V10H21.4102V19H19.4102ZM12.4102 8.5C13.2102 8.5 13.9102 9.2 13.9102 10C13.9102 10.8 13.2102 11.5 12.4102 11.5C11.6102 11.5 10.9102 10.8 10.9102 10C10.9102 9.2 11.6102 8.5 12.4102 8.5Z" fill="black"/>
</g>
</svg>
