<svg width="25" height="24" viewBox="0 0 25 24" fill="none" xmlns="http://www.w3.org/2000/svg">
<g id="402">
<path id="Vector" d="M21.4102 3H3.41016C2.87972 3 2.37102 3.21071 1.99594 3.58579C1.62087 3.96086 1.41016 4.46957 1.41016 5V19C1.41016 19.5304 1.62087 20.0391 1.99594 20.4142C2.37102 20.7893 2.87972 21 3.41016 21H21.4102C21.9406 21 22.4493 20.7893 22.8244 20.4142C23.1994 20.0391 23.4102 19.5304 23.4102 19V5C23.4102 4.46957 23.1994 3.96086 22.8244 3.58579C22.4493 3.21071 21.9406 3 21.4102 3ZM21.4102 19H3.41016V5H13.4102V9H21.4102V19Z" fill="black"/>
</g>
</svg>
