<svg width="25" height="24" viewBox="0 0 25 24" fill="none" xmlns="http://www.w3.org/2000/svg">
<g id="405">
<path id="Vector" d="M7.87016 11.88L9.29016 10.46L11.4102 12.59L13.5302 10.46L14.9502 11.88L12.8202 14L14.9502 16.12L13.5302 17.54L11.4102 15.41L9.29016 17.54L7.87016 16.12L10.0002 14L7.87016 11.88ZM3.41016 3H21.4102C21.9406 3 22.4493 3.21071 22.8244 3.58579C23.1994 3.96086 23.4102 4.46957 23.4102 5V19C23.4102 19.5304 23.1994 20.0391 22.8244 20.4142C22.4493 20.7893 21.9406 21 21.4102 21H3.41016C2.87972 21 2.37102 20.7893 1.99594 20.4142C1.62087 20.0391 1.41016 19.5304 1.41016 19V5C1.41016 4.46957 1.62087 3.96086 1.99594 3.58579C2.37102 3.21071 2.87972 3 3.41016 3ZM3.41016 5V19H21.4102V9H13.4102V5H3.41016Z" fill="black"/>
</g>
</svg>
