<svg width="25" height="24" viewBox="0 0 25 24" fill="none" xmlns="http://www.w3.org/2000/svg">
<g id="406">
<path id="Vector" d="M7.90953 11C5.40953 11 3.40953 13 3.40953 15.5C3.40953 16.38 3.65953 17.21 4.09953 17.9L1.01953 21L2.40953 22.39L5.52953 19.32C6.21953 19.75 7.03953 20 7.90953 20C10.4095 20 12.4095 18 12.4095 15.5C12.4095 13 10.4095 11 7.90953 11ZM7.90953 18C6.52953 18 5.40953 16.88 5.40953 15.5C5.40953 14.12 6.52953 13 7.90953 13C9.28953 13 10.4095 14.12 10.4095 15.5C10.4095 16.88 9.28953 18 7.90953 18ZM23.4095 5V19C23.4095 20.11 22.5195 21 21.4095 21H11.3595C12.1695 20.5 12.8595 19.81 13.3795 19H21.4095V9H13.4095V5H3.40953V10.82C2.17953 12 1.40953 13.66 1.40953 15.5V5C1.40953 3.9 2.30953 3 3.40953 3H21.4095C22.5195 3 23.4095 3.9 23.4095 5Z" fill="black"/>
</g>
</svg>
