<svg width="25" height="24" viewBox="0 0 25 24" fill="none" xmlns="http://www.w3.org/2000/svg">
<g id="408">
<path id="Vector" d="M3.41016 4H17.4102C18.5202 4 19.4102 4.89 19.4102 6V18C19.4102 19.11 18.5202 20 17.4102 20H3.41016C2.31016 20 1.41016 19.11 1.41016 18V6C1.41016 4.89 2.31016 4 3.41016 4ZM3.41016 8V12H9.41016V8H3.41016ZM11.4102 8V12H17.4102V8H11.4102ZM3.41016 14V18H9.41016V14H3.41016ZM11.4102 14V18H17.4102V14H11.4102ZM23.4102 7H21.4102V13H23.4102V7ZM23.4102 15H21.4102V17H23.4102V15Z" fill="black"/>
</g>
</svg>
