<svg width="25" height="24" viewBox="0 0 25 24" fill="none" xmlns="http://www.w3.org/2000/svg">
<g id="409">
<path id="Vector" d="M4.41016 3H18.4102C19.5202 3 20.4102 3.9 20.4102 5V12.08C18.8602 11.82 17.3302 12.18 16.0902 13H12.4102V17H13.4902C13.3802 17.68 13.3802 18.35 13.4902 19H4.41016C3.31016 19 2.41016 18.11 2.41016 17V5C2.41016 3.9 3.31016 3 4.41016 3ZM4.41016 7V11H10.4102V7H4.41016ZM12.4102 7V11H18.4102V7H12.4102ZM4.41016 13V17H10.4102V13H4.41016ZM23.4102 22V21C23.4102 19.67 20.7402 19 19.4102 19C18.0802 19 15.4102 19.67 15.4102 21V22H23.4102ZM19.4102 14C18.3102 14 17.4102 14.9 17.4102 16C17.4102 17.1 18.3102 18 19.4102 18C20.5102 18 21.4102 17.11 21.4102 16C21.4102 14.89 20.5202 14 19.4102 14Z" fill="black"/>
</g>
</svg>
