<svg width="25" height="24" viewBox="0 0 25 24" fill="none" xmlns="http://www.w3.org/2000/svg">
<g id="41">
<path id="Vector" d="M12.4097 2C11.9097 2 11.4097 2.19 10.9997 2.59L2.99973 10.59C2.20973 11.37 2.20973 12.63 2.99973 13.41L10.9997 21.41C11.7797 22.2 13.0397 22.2 13.8197 21.41L21.8197 13.41C22.6097 12.63 22.6097 11.37 21.8197 10.59L13.8197 2.59C13.4097 2.19 12.9097 2 12.4097 2ZM12.4097 4L20.4097 12L12.4097 20L4.40973 12M11.4097 7V13H13.4097V7M11.4097 15V17H13.4097V15H11.4097Z" fill="black"/>
</g>
</svg>
