<svg width="25" height="24" viewBox="0 0 25 24" fill="none" xmlns="http://www.w3.org/2000/svg">
<g id="410">
<path id="Vector" d="M1.41016 9H3.41016V7H1.41016V9ZM1.41016 13H3.41016V11H1.41016V13ZM1.41016 5H3.41016V3C2.87972 3 2.37102 3.21071 1.99594 3.58579C1.62087 3.96086 1.41016 4.46957 1.41016 5ZM9.41016 21H11.4102V19H9.41016V21ZM1.41016 17H3.41016V15H1.41016V17ZM3.41016 21V19H1.41016C1.41016 19.5304 1.62087 20.0391 1.99594 20.4142C2.37102 20.7893 2.87972 21 3.41016 21ZM21.4102 3H13.4102V9H23.4102V5C23.4102 4.46957 23.1994 3.96086 22.8244 3.58579C22.4493 3.21071 21.9406 3 21.4102 3ZM21.4102 17H23.4102V15H21.4102V17ZM9.41016 5H11.4102V3H9.41016V5ZM5.41016 21H7.41016V19H5.41016V21ZM5.41016 5H7.41016V3H5.41016V5ZM21.4102 21C21.9406 21 22.4493 20.7893 22.8244 20.4142C23.1994 20.0391 23.4102 19.5304 23.4102 19H21.4102V21ZM21.4102 13H23.4102V11H21.4102V13ZM13.4102 21H15.4102V19H13.4102V21ZM17.4102 21H19.4102V19H17.4102V21Z" fill="black"/>
</g>
</svg>
