<svg width="25" height="24" viewBox="0 0 25 24" fill="none" xmlns="http://www.w3.org/2000/svg">
<g id="411">
<path id="Vector" d="M5.41016 4H19.4102C19.9406 4 20.4493 4.21071 20.8244 4.58579C21.1994 4.96086 21.4102 5.46957 21.4102 6V18C21.4102 18.5304 21.1994 19.0391 20.8244 19.4142C20.4493 19.7893 19.9406 20 19.4102 20H5.41016C4.87972 20 4.37102 19.7893 3.99594 19.4142C3.62087 19.0391 3.41016 18.5304 3.41016 18V6C3.41016 5.46957 3.62087 4.96086 3.99594 4.58579C4.37102 4.21071 4.87972 4 5.41016 4ZM5.41016 8V12H11.4102V8H5.41016ZM13.4102 8V12H19.4102V8H13.4102ZM5.41016 14V18H11.4102V14H5.41016ZM13.4102 14V18H19.4102V14H13.4102Z" fill="black"/>
</g>
</svg>
