<svg width="25" height="24" viewBox="0 0 25 24" fill="none" xmlns="http://www.w3.org/2000/svg">
<g id="412">
<path id="Vector" d="M4.41016 3H18.4102C19.5202 3 20.4102 3.9 20.4102 5V12.08C18.8602 11.82 17.3302 12.18 16.0902 13H12.4102V17H13.4902C13.3802 17.68 13.3802 18.35 13.4902 19H4.41016C3.31016 19 2.41016 18.11 2.41016 17V5C2.41016 3.9 3.31016 3 4.41016 3ZM4.41016 7V11H10.4102V7H4.41016ZM12.4102 7V11H18.4102V7H12.4102ZM4.41016 13V17H10.4102V13H4.41016ZM18.8502 15V17H22.8502V19H18.8502V21L15.8502 18L18.8502 15Z" fill="black"/>
</g>
</svg>
