<svg width="25" height="24" viewBox="0 0 25 24" fill="none" xmlns="http://www.w3.org/2000/svg">
<g id="413">
<path id="Vector" d="M11.4102 2C11.9406 2 12.4493 2.21071 12.8244 2.58579C13.1994 2.96086 13.4102 3.46957 13.4102 4V20C13.4102 20.5304 13.1994 21.0391 12.8244 21.4142C12.4493 21.7893 11.9406 22 11.4102 22H2.41016V2H11.4102ZM4.41016 10V14H11.4102V10H4.41016ZM4.41016 16V20H11.4102V16H4.41016ZM4.41016 4V8H11.4102V4H4.41016ZM15.4102 11H18.4102V8H20.4102V11H23.4102V13H20.4102V16H18.4102V13H15.4102V11Z" fill="black"/>
</g>
</svg>
