<svg width="25" height="24" viewBox="0 0 25 24" fill="none" xmlns="http://www.w3.org/2000/svg">
<g id="414">
<path id="Vector" d="M12.4102 22H6.41016C6.41016 21.4696 6.62087 20.9609 6.99594 20.5858C7.37102 20.2107 7.87972 20 8.41016 20V8H2.41016V5H16.4102V8H10.4102V20C10.9406 20 11.4493 20.2107 11.8244 20.5858C12.1994 20.9609 12.4102 21.4696 12.4102 22ZM22.4102 2V22H20.4102V15H15.4102V22H13.4102V14C13.4102 13.4696 13.6209 12.9609 13.9959 12.5858C14.371 12.2107 14.8797 12 15.4102 12H20.4102V2H22.4102Z" fill="black"/>
</g>
</svg>
