<svg width="25" height="24" viewBox="0 0 25 24" fill="none" xmlns="http://www.w3.org/2000/svg">
<g id="415">
<path id="Vector" d="M13.4102 2C12.8797 2 12.371 2.21071 11.9959 2.58579C11.6209 2.96086 11.4102 3.46957 11.4102 4V20C11.4102 20.5304 11.6209 21.0391 11.9959 21.4142C12.371 21.7893 12.8797 22 13.4102 22H22.4102V2H13.4102ZM20.4102 10V14H13.4102V10H20.4102ZM20.4102 16V20H13.4102V16H20.4102ZM20.4102 4V8H13.4102V4H20.4102ZM9.41016 11H6.41016V8H4.41016V11H1.41016V13H4.41016V16H6.41016V13H9.41016V11Z" fill="black"/>
</g>
</svg>
