<svg width="25" height="24" viewBox="0 0 25 24" fill="none" xmlns="http://www.w3.org/2000/svg">
<g id="419">
<path id="Vector" d="M16.9102 15.82L19.3502 17.23L18.6002 18.53L15.4102 16.69V13H16.9102V15.82ZM20.4102 10.26V5C20.4102 3.9 19.5202 3 18.4102 3H4.41016C3.31016 3 2.41016 3.9 2.41016 5V17C2.41016 18.11 3.31016 19 4.41016 19H10.0902C11.2202 21.36 13.6202 23 16.4102 23C20.2802 23 23.4102 19.87 23.4102 16C23.4102 13.62 22.2202 11.53 20.4102 10.26ZM18.4102 7V9.29C17.7802 9.11 17.1102 9 16.4102 9C14.9102 9 13.5402 9.47 12.4102 10.26V7H18.4102ZM4.41016 7H10.4102V11H4.41016V7ZM4.41016 17V13H10.0902C9.66016 13.91 9.41016 14.93 9.41016 16C9.41016 16.34 9.44016 16.67 9.49016 17H4.41016ZM16.4102 21C13.6502 21 11.4102 18.76 11.4102 16C11.4102 13.24 13.6502 11 16.4102 11C19.1702 11 21.4102 13.24 21.4102 16C21.4102 18.76 19.1702 21 16.4102 21Z" fill="black"/>
</g>
</svg>
