<svg width="25" height="24" viewBox="0 0 25 24" fill="none" xmlns="http://www.w3.org/2000/svg">
<g id="420">
<path id="Vector" d="M4.41016 2H11.4102C11.9406 2 12.4493 2.21071 12.8244 2.58579C13.1994 2.96086 13.4102 3.46957 13.4102 4V20C13.4102 20.5304 13.1994 21.0391 12.8244 21.4142C12.4493 21.7893 11.9406 22 11.4102 22H4.41016C3.87972 22 3.37102 21.7893 2.99594 21.4142C2.62087 21.0391 2.41016 20.5304 2.41016 20V4C2.41016 3.46957 2.62087 2.96086 2.99594 2.58579C3.37102 2.21071 3.87972 2 4.41016 2ZM4.41016 10V14H11.4102V10H4.41016ZM4.41016 16V20H11.4102V16H4.41016ZM4.41016 4V8H11.4102V4H4.41016ZM18.0002 12L15.4102 9.41L16.8202 8L19.4102 10.59L22.0002 8L23.4102 9.41L20.8202 12L23.4102 14.59L22.0002 16L19.4102 13.41L16.8202 16L15.4102 14.59L18.0002 12Z" fill="black"/>
</g>
</svg>
