<svg width="25" height="24" viewBox="0 0 25 24" fill="none" xmlns="http://www.w3.org/2000/svg">
<g id="421">
<path id="Vector" d="M5.41016 8H19.4102C19.9406 8 20.4493 8.21071 20.8244 8.58579C21.1994 8.96086 21.4102 9.46957 21.4102 10V20C21.4102 20.5304 21.1994 21.0391 20.8244 21.4142C20.4493 21.7893 19.9406 22 19.4102 22H5.41016C4.87972 22 4.37102 21.7893 3.99594 21.4142C3.62087 21.0391 3.41016 20.5304 3.41016 20V10C3.41016 9.46957 3.62087 8.96086 3.99594 8.58579C4.37102 8.21071 4.87972 8 5.41016 8ZM5.41016 12V15H11.4102V12H5.41016ZM13.4102 12V15H19.4102V12H13.4102ZM5.41016 17V20H11.4102V17H5.41016ZM13.4102 17V20H19.4102V17H13.4102ZM11.4102 2H21.4102V6H19.4102V4H13.4102V6H11.4102V2Z" fill="black"/>
</g>
</svg>
