<svg width="25" height="24" viewBox="0 0 25 24" fill="none" xmlns="http://www.w3.org/2000/svg">
<g id="422">
<path id="Vector" d="M3.41016 3H17.4102C18.5202 3 19.4102 3.9 19.4102 5V12.08C17.8602 11.82 16.3302 12.18 15.0902 13H11.4102V17H12.4902C12.3802 17.68 12.3802 18.35 12.4902 19H3.41016C2.31016 19 1.41016 18.11 1.41016 17V5C1.41016 3.9 2.31016 3 3.41016 3ZM3.41016 7V11H9.41016V7H3.41016ZM11.4102 7V11H17.4102V7H11.4102ZM3.41016 13V17H9.41016V13H3.41016ZM23.1902 19.32L22.1202 18.5C22.1402 18.33 22.1602 18.17 22.1602 18C22.1602 17.83 22.1502 17.67 22.1202 17.5L23.1802 16.68C23.2702 16.6 23.3002 16.47 23.2402 16.36L22.2402 14.63C22.1802 14.5 22.0502 14.5 21.9102 14.5L20.6902 15C20.4102 14.82 20.1502 14.65 19.8402 14.53L19.6502 13.21C19.6402 13.09 19.5302 13 19.4102 13H17.4102C17.2902 13 17.1802 13.09 17.1602 13.21L16.9702 14.53C16.6702 14.66 16.3802 14.82 16.1202 15L14.8802 14.5C14.7702 14.5 14.6402 14.5 14.5702 14.63L13.5702 16.36C13.5102 16.47 13.5302 16.6 13.6302 16.68L14.6902 17.5C14.6702 17.67 14.6602 17.83 14.6602 18C14.6602 18.17 14.6702 18.33 14.6902 18.5L13.6302 19.32C13.5402 19.4 13.5102 19.53 13.5702 19.64L14.5702 21.37C14.6302 21.5 14.7602 21.5 14.8802 21.5L16.1202 21C16.3802 21.18 16.6602 21.35 16.9702 21.47L17.1602 22.79C17.1802 22.91 17.2802 23 17.4102 23H19.4102C19.5302 23 19.6402 22.91 19.6602 22.79L19.8502 21.47C20.1502 21.34 20.4102 21.18 20.6902 21L21.9102 21.5C22.0502 21.5 22.1802 21.5 22.2502 21.37L23.2502 19.64C23.3102 19.53 23.2802 19.4 23.1902 19.32ZM18.4102 19.5C17.5802 19.5 16.9102 18.83 16.9102 18C16.9102 17.17 17.5902 16.5 18.4102 16.5C19.2302 16.5 19.9102 17.17 19.9102 18C19.9102 18.83 19.2502 19.5 18.4102 19.5Z" fill="black"/>
</g>
</svg>
