<svg width="25" height="24" viewBox="0 0 25 24" fill="none" xmlns="http://www.w3.org/2000/svg">
<g id="423">
<path id="Vector" d="M21.4102 19C21.4102 19.2652 21.3048 19.5196 21.1173 19.7071C20.9297 19.8946 20.6754 20 20.4102 20H19.4102V18H21.4102V19ZM15.4102 20V18H17.4102V20H15.4102ZM11.4102 20V18H13.4102V20H11.4102ZM7.41016 20V18H9.41016V20H7.41016ZM4.41016 20C4.14494 20 3.89059 19.8946 3.70305 19.7071C3.51551 19.5196 3.41016 19.2652 3.41016 19V18H5.41016V20H4.41016ZM19.4102 4H5.41016C4.87972 4 4.37102 4.21071 3.99594 4.58579C3.62087 4.96086 3.41016 5.46957 3.41016 6V8H5.41016H11.4102H13.4102H19.4102H21.4102V6C21.4102 4.89 20.5202 4 19.4102 4ZM5.41016 14H3.41016V16H5.41016V14ZM5.41016 10H3.41016V12H5.41016V10ZM21.4102 10H19.4102V12H21.4102V10ZM21.4102 14H19.4102V16H21.4102V14ZM11.4102 16V14H13.4102V16H11.4102ZM11.4102 12V10H13.4102V12H11.4102Z" fill="black"/>
</g>
</svg>
