<svg width="25" height="24" viewBox="0 0 25 24" fill="none" xmlns="http://www.w3.org/2000/svg">
<g id="424">
<path id="Vector" d="M3.41016 3H17.4102C18.5202 3 19.4102 3.9 19.4102 5V12.08C17.8602 11.82 16.3302 12.18 15.0902 13H11.4102V17H12.4902C12.3802 17.68 12.3802 18.35 12.4902 19H3.41016C2.31016 19 1.41016 18.11 1.41016 17V5C1.41016 3.9 2.31016 3 3.41016 3ZM3.41016 7V11H9.41016V7H3.41016ZM11.4102 7V11H17.4102V7H11.4102ZM3.41016 13V17H9.41016V13H3.41016ZM18.9102 14C16.4102 14 14.4102 16 14.4102 18.5C14.4102 21 16.4102 23 18.9102 23C21.4102 23 23.4102 21 23.4102 18.5C23.4102 16 21.4102 14 18.9102 14ZM18.9102 21.5C17.2502 21.5 15.9102 20.16 15.9102 18.5C15.9102 17.94 16.0602 17.42 16.3302 17L20.4102 21.08C19.9902 21.35 19.4702 21.5 18.9102 21.5ZM21.4902 20L17.4102 15.92C17.8302 15.65 18.3502 15.5 18.9102 15.5C20.5702 15.5 21.9102 16.84 21.9102 18.5C21.9102 19.06 21.7602 19.58 21.4902 20Z" fill="black"/>
</g>
</svg>
