<svg width="25" height="24" viewBox="0 0 25 24" fill="none" xmlns="http://www.w3.org/2000/svg">
<g id="425">
<path id="Vector" d="M22.1102 13.35L21.1102 14.35L19.0602 12.3L20.0602 11.3C20.2702 11.08 20.6202 11.08 20.8302 11.3L22.1102 12.58C22.3302 12.79 22.3302 13.14 22.1102 13.35ZM12.4102 18.94L18.4802 12.88L20.5302 14.93L14.4702 21H12.4102V18.94ZM4.41016 2H18.4102C18.9406 2 19.4493 2.21071 19.8244 2.58579C20.1994 2.96086 20.4102 3.46957 20.4102 4V8.17L16.5802 12H12.4102V16.17L10.5802 18H4.41016C3.87972 18 3.37102 17.7893 2.99594 17.4142C2.62087 17.0391 2.41016 16.5304 2.41016 16V4C2.41016 3.46957 2.62087 2.96086 2.99594 2.58579C3.37102 2.21071 3.87972 2 4.41016 2ZM4.41016 6V10H10.4102V6H4.41016ZM12.4102 6V10H18.4102V6H12.4102ZM4.41016 12V16H10.4102V12H4.41016Z" fill="black"/>
</g>
</svg>
