<svg width="25" height="24" viewBox="0 0 25 24" fill="none" xmlns="http://www.w3.org/2000/svg">
<g id="426">
<path id="Vector" d="M8.41016 2H16.4102C16.9406 2 17.4493 2.21071 17.8244 2.58579C18.1994 2.96086 18.4102 3.46957 18.4102 4V20C18.4102 20.5304 18.1994 21.0391 17.8244 21.4142C17.4493 21.7893 16.9406 22 16.4102 22H8.41016C7.87972 22 7.37102 21.7893 6.99594 21.4142C6.62087 21.0391 6.41016 20.5304 6.41016 20V4C6.41016 3.46957 6.62087 2.96086 6.99594 2.58579C7.37102 2.21071 7.87972 2 8.41016 2ZM8.41016 10V14H16.4102V10H8.41016ZM8.41016 16V20H16.4102V16H8.41016ZM8.41016 4V8H16.4102V4H8.41016Z" fill="black"/>
</g>
</svg>
