<svg width="25" height="24" viewBox="0 0 25 24" fill="none" xmlns="http://www.w3.org/2000/svg">
<g id="427">
<path id="Vector" d="M1.41016 6V19C1.41016 19.5304 1.62087 20.0391 1.99594 20.4142C2.37102 20.7893 2.87972 21 3.41016 21H9.41016V11H21.4102V6C21.4102 5.46957 21.1994 4.96086 20.8244 4.58579C20.4493 4.21071 19.9406 4 19.4102 4H3.41016C2.87972 4 2.37102 4.21071 1.99594 4.58579C1.62087 4.96086 1.41016 5.46957 1.41016 6ZM3.41016 6H7.41016V9H3.41016M7.41016 19H3.41016V16H7.41016M7.41016 14H3.41016V11H7.41016M9.41016 9V6H13.4102V9M19.4102 9H15.4102V6H19.4102M17.4102 16C17.6079 16 17.8013 16.0586 17.9657 16.1685C18.1302 16.2784 18.2583 16.4346 18.334 16.6173C18.4097 16.8 18.4295 17.0011 18.3909 17.1951C18.3524 17.3891 18.2571 17.5673 18.1173 17.7071C17.9774 17.847 17.7992 17.9422 17.6052 17.9808C17.4113 18.0194 17.2102 17.9996 17.0275 17.9239C16.8447 17.8482 16.6886 17.72 16.5787 17.5556C16.4688 17.3911 16.4102 17.1978 16.4102 17C16.4102 16.7348 16.5155 16.4804 16.703 16.2929C16.8906 16.1054 17.1449 16 17.4102 16ZM17.4102 13C18.6949 12.9933 19.9524 13.3705 21.0214 14.0832C22.0904 14.7958 22.9222 15.8115 23.4102 17C22.9166 18.1845 22.0834 19.1965 21.0157 19.9083C19.948 20.6202 18.6934 21 17.4102 21C16.1269 21 14.8723 20.6202 13.8046 19.9083C12.7369 19.1965 11.9037 18.1845 11.4102 17C11.8982 15.8115 12.73 14.7958 13.7989 14.0832C14.8679 13.3705 16.1254 12.9933 17.4102 13ZM17.4102 14.5C16.9157 14.5 16.4324 14.6466 16.0212 14.9213C15.6101 15.196 15.2897 15.5865 15.1005 16.0433C14.9112 16.5001 14.8617 17.0028 14.9582 17.4877C15.0547 17.9727 15.2928 18.4181 15.6424 18.7678C15.992 19.1174 16.4375 19.3555 16.9224 19.452C17.4074 19.5484 17.91 19.4989 18.3669 19.3097C18.8237 19.1205 19.2141 18.8 19.4888 18.3889C19.7635 17.9778 19.9102 17.4945 19.9102 17C19.9102 16.337 19.6468 15.7011 19.1779 15.2322C18.7091 14.7634 18.0732 14.5 17.4102 14.5Z" fill="black"/>
</g>
</svg>
