<svg width="25" height="24" viewBox="0 0 25 24" fill="none" xmlns="http://www.w3.org/2000/svg">
<g id="429">
<path id="Vector" d="M4.41016 3H20.4102C20.9406 3 21.4493 3.21071 21.8244 3.58579C22.1994 3.96086 22.4102 4.46957 22.4102 5V20C22.4102 20.5304 22.1994 21.0391 21.8244 21.4142C21.4493 21.7893 20.9406 22 20.4102 22H4.41016C3.87972 22 3.37102 21.7893 2.99594 21.4142C2.62087 21.0391 2.41016 20.5304 2.41016 20V5C2.41016 4.46957 2.62087 3.96086 2.99594 3.58579C3.37102 3.21071 3.87972 3 4.41016 3ZM4.41016 7V10H8.41016V7H4.41016ZM10.4102 7V10H14.4102V7H10.4102ZM20.4102 10V7H16.4102V10H20.4102ZM4.41016 12V15H8.41016V12H4.41016ZM4.41016 20H8.41016V17H4.41016V20ZM10.4102 12V15H14.4102V12H10.4102ZM10.4102 20H14.4102V17H10.4102V20ZM20.4102 20V17H16.4102V20H20.4102ZM20.4102 12H16.4102V15H20.4102V12Z" fill="black"/>
</g>
</svg>
