<svg width="25" height="24" viewBox="0 0 25 24" fill="none" xmlns="http://www.w3.org/2000/svg">
<g id="431">
<path id="Vector" d="M17.2102 17C16.8102 15.8 15.7102 15 14.4102 15C12.7102 15 11.4102 16.3 11.4102 18C11.4102 19.7 12.7102 21 14.4102 21C15.7102 21 16.8102 20.2 17.2102 19H19.4102V21H21.4102V19H23.4102V17H17.2102ZM14.4102 19C13.8102 19 13.4102 18.5 13.4102 18C13.4102 17.5 13.8102 17 14.4102 17C15.0102 17 15.4102 17.5 15.4102 18C15.4102 18.5 15.0102 19 14.4102 19ZM9.41016 18H4.41016V14H10.4102V15C11.3102 13.8 12.8102 13 14.4102 13C15.5102 13 16.5102 13.4 17.4102 14H18.4102V15H20.4102V6C20.4102 4.9 19.5102 4 18.4102 4H4.41016C3.31016 4 2.41016 4.9 2.41016 6V18C2.41016 19.1 3.31016 20 4.41016 20H9.81016C9.51016 19.4 9.41016 18.7 9.41016 18ZM12.4102 8H18.4102V12H12.4102V8ZM4.41016 8H10.4102V12H4.41016V8Z" fill="black"/>
</g>
</svg>
