<svg width="25" height="24" viewBox="0 0 25 24" fill="none" xmlns="http://www.w3.org/2000/svg">
<g id="432">
<path id="Vector" d="M17.4102 21L19.2102 22.77C19.7102 23.27 20.4102 22.87 20.4102 22.28V18L23.2102 14.6C23.7102 13.9 23.2102 13 22.4102 13H15.4102C14.6102 13 14.1102 14 14.6102 14.6L17.4102 18V21ZM12.4102 11H20.4102V3C20.4102 1.9 19.5202 1 18.4102 1H4.41016C3.31016 1 2.41016 1.9 2.41016 3V15C2.41016 16.11 3.31016 17 4.41016 17H13.8302L12.4102 15V11ZM12.4102 5H18.4102V9H12.4102V5ZM10.4102 15H4.41016V11H10.4102V15ZM10.4102 9H4.41016V5H10.4102V9Z" fill="black"/>
</g>
</svg>
