<svg width="25" height="24" viewBox="0 0 25 24" fill="none" xmlns="http://www.w3.org/2000/svg">
<g id="433">
<path id="Vector" d="M4.41016 3H18.4102C19.5202 3 20.4102 3.9 20.4102 5V12.08C18.8602 11.82 17.3302 12.18 16.0902 13H12.4102V17H13.4902C13.3802 17.68 13.3802 18.35 13.4902 19H4.41016C3.31016 19 2.41016 18.11 2.41016 17V5C2.41016 3.9 3.31016 3 4.41016 3ZM4.41016 7V11H10.4102V7H4.41016ZM12.4102 7V11H18.4102V7H12.4102ZM4.41016 13V17H10.4102V13H4.41016ZM19.4102 22.3L18.8102 21.8C16.8102 19.9 15.4102 18.7 15.4102 17.2C15.4102 16 16.4102 15 17.6102 15C18.3102 15 19.0102 15.3 19.4102 15.8C19.8102 15.3 20.5102 15 21.2102 15C22.4102 15 23.4102 15.9 23.4102 17.2C23.4102 18.7 22.0102 19.9 20.0102 21.8L19.4102 22.3Z" fill="black"/>
</g>
</svg>
