<svg width="25" height="24" viewBox="0 0 25 24" fill="none" xmlns="http://www.w3.org/2000/svg">
<g id="434">
<path id="Vector" d="M12.4095 8.79998L6.60953 2.99998H18.4095C19.5095 2.99998 20.4095 3.89998 20.4095 4.99998V12.59C19.4795 12.21 18.4695 12 17.4095 12C16.8595 12 16.3195 12.07 15.7895 12.18L14.6095 11H18.4095V6.99998H12.4095V8.79998ZM17.4995 13.89L22.7195 19.11C22.9895 18.73 23.2295 18.32 23.4095 17.88C22.4795 15.57 20.1895 13.92 17.4995 13.89ZM22.5195 21.46L21.2495 22.73L19.9095 21.37C19.1195 21.69 18.2895 21.88 17.4095 21.88C14.6795 21.88 12.3495 20.22 11.4095 17.88C11.8595 16.76 12.6395 15.8 13.6195 15.1L12.3395 13.82C11.5995 14.42 10.9395 15.14 10.4095 15.97V13H4.40953V17H9.82953C9.66953 17.32 9.52953 17.66 9.40953 18C9.52953 18.34 9.66953 18.68 9.82953 19H4.40953C3.30953 19 2.40953 18.1 2.40953 17V4.99998C2.40953 4.67998 2.48953 4.37998 2.62953 4.10998L1.51953 2.99998L2.79953 1.72998L22.5195 21.46ZM9.51953 11L5.51953 6.99998H4.40953V11H9.51953ZM18.5895 20.07L15.2195 16.7C15.0195 17.05 14.9095 17.45 14.9095 17.88C14.9095 19.26 16.0295 20.38 17.4095 20.38C17.8395 20.38 18.2395 20.27 18.5895 20.07Z" fill="black"/>
</g>
</svg>
