<svg width="25" height="24" viewBox="0 0 25 24" fill="none" xmlns="http://www.w3.org/2000/svg">
<g id="435">
<path id="Vector" d="M2.79016 1.72998L1.52016 2.99998L2.67016 4.14998C2.29961 4.29755 1.98164 4.55255 1.75712 4.88221C1.53259 5.21187 1.41177 5.60113 1.41016 5.99998V19C1.41016 19.5304 1.62087 20.0391 1.99594 20.4142C2.37102 20.7893 2.87972 21 3.41016 21H9.41016V11H9.52016L13.1302 14.61C12.3735 15.2572 11.7836 16.0769 11.4102 17C11.8982 18.1885 12.73 19.2041 13.7989 19.9168C14.8679 20.6295 16.1254 21.0066 17.4102 21C18.0332 20.998 18.6528 20.907 19.2502 20.73L21.2502 22.73L22.5202 21.46L20.9902 19.93M7.41016 19H3.41016V16H7.41016M7.41016 14H3.41016V11H7.41016M7.41016 8.99998H3.41016V5.99998H4.52016L7.41016 8.88998M17.4102 19.5C17.035 19.5002 16.6647 19.4159 16.3265 19.2535C15.9883 19.0911 15.6911 18.8547 15.4567 18.5617C15.2224 18.2688 15.057 17.9269 14.9727 17.5613C14.8885 17.1958 14.8876 16.8159 14.9702 16.45L17.9702 19.45C17.786 19.4877 17.5981 19.5044 17.4102 19.5ZM16.6502 13L18.2602 14.61C18.6049 14.7347 18.9179 14.9338 19.1771 15.193C19.4364 15.4522 19.6354 15.7653 19.7602 16.11L22.3502 18.7C22.79 18.1921 23.1477 17.6185 23.4102 17C22.9222 15.8115 22.0904 14.7958 21.0214 14.0832C19.9524 13.3705 18.6949 12.9933 17.4102 13H16.6502ZM13.4102 5.99998V8.99998H12.6102L14.6102 11H21.4102V5.99998C21.4102 5.46955 21.1994 4.96084 20.8244 4.58577C20.4493 4.21069 19.9406 3.99998 19.4102 3.99998H7.61016L9.61016 5.99998M15.4102 5.99998H19.4102V8.99998H15.4102V5.99998Z" fill="black"/>
</g>
</svg>
