<svg width="25" height="24" viewBox="0 0 25 24" fill="none" xmlns="http://www.w3.org/2000/svg">
<g id="436">
<path id="Vector" d="M7.41016 2H21.4102C22.5202 2 23.4102 2.9 23.4102 4V16C23.4102 17.11 22.5202 18 21.4102 18H7.41016C6.31016 18 5.41016 17.11 5.41016 16V4C5.41016 2.9 6.31016 2 7.41016 2ZM7.41016 6V10H13.4102V6H7.41016ZM15.4102 6V10H21.4102V6H15.4102ZM7.41016 12V16H13.4102V12H7.41016ZM15.4102 12V16H21.4102V12H15.4102ZM3.41016 20V6H1.41016V20C1.41016 21.11 2.30016 22 3.41016 22H19.4102V20H3.41016Z" fill="black"/>
</g>
</svg>
