<svg width="25" height="24" viewBox="0 0 25 24" fill="none" xmlns="http://www.w3.org/2000/svg">
<g id="438">
<path id="Vector" d="M21.4102 16V15.5C21.4102 14.12 20.2902 13 18.9102 13C17.5302 13 16.4102 14.12 16.4102 15.5V16C15.8602 16 15.4102 16.45 15.4102 17V21C15.4102 21.55 15.8602 22 16.4102 22H21.4102C21.9602 22 22.4102 21.55 22.4102 21V17C22.4102 16.45 21.9602 16 21.4102 16ZM20.4102 16H17.4102V15.5C17.4102 14.67 18.0802 14 18.9102 14C19.7402 14 20.4102 14.67 20.4102 15.5V16ZM13.4102 18H12.4102V14H14.6702C14.9502 13.21 15.4502 12.5 16.1002 12H12.4102V8H18.4102V11.05C18.5802 11.03 18.7402 11 18.9102 11C19.4402 11 19.9402 11.1 20.4102 11.26V6C20.4102 4.89 19.5202 4 18.4102 4H4.41016C3.31016 4 2.41016 4.89 2.41016 6V18C2.41016 19.11 3.31016 20 4.41016 20H13.4102V18ZM10.4102 18H4.41016V14H10.4102V18ZM10.4102 12H4.41016V8H10.4102V12Z" fill="black"/>
</g>
</svg>
