<svg width="25" height="24" viewBox="0 0 25 24" fill="none" xmlns="http://www.w3.org/2000/svg">
<g id="439">
<path id="Vector" d="M12.7602 20H10.4102V17H12.5002C12.6202 16.28 12.8702 15.61 13.2202 15H10.4102V12H14.4102V13.54C14.9902 13 15.6602 12.61 16.4102 12.35V12H20.4102V12.35C21.1602 12.61 21.8302 13 22.4102 13.54V5C22.4102 3.9 21.5102 3 20.4102 3H4.41016C3.31016 3 2.41016 3.9 2.41016 5V20C2.41016 21.1 3.31016 22 4.41016 22H13.9502C13.4102 21.42 13.0202 20.75 12.7602 20ZM16.4102 7H20.4102V10H16.4102V7ZM10.4102 7H14.4102V10H10.4102V7ZM8.41016 20H4.41016V17H8.41016V20ZM8.41016 15H4.41016V12H8.41016V15ZM8.41016 10H4.41016V7H8.41016V10ZM14.8702 15.88L16.2902 14.46L18.4102 16.59L20.5302 14.46L21.9502 15.88L19.8202 18L21.9502 20.12L20.5302 21.54L18.4102 19.41L16.2902 21.54L14.8702 20.12L17.0002 18L14.8702 15.88Z" fill="black"/>
</g>
</svg>
