<svg width="25" height="24" viewBox="0 0 25 24" fill="none" xmlns="http://www.w3.org/2000/svg">
<g id="44">
<path id="Vector" d="M11.4102 7C10.8797 7 10.371 7.21071 9.99594 7.58579C9.62087 7.96086 9.41016 8.46957 9.41016 9V15C9.41016 15.5304 9.62087 16.0391 9.99594 16.4142C10.371 16.7893 10.8797 17 11.4102 17H13.4102C13.9406 17 14.4493 16.7893 14.8244 16.4142C15.1994 16.0391 15.4102 15.5304 15.4102 15V14H13.4102V15H11.4102V9H13.4102V10H15.4102V9C15.4102 8.46957 15.1994 7.96086 14.8244 7.58579C14.4493 7.21071 13.9406 7 13.4102 7H11.4102Z" fill="black"/>
</g>
</svg>
