<svg width="25" height="24" viewBox="0 0 25 24" fill="none" xmlns="http://www.w3.org/2000/svg">
<g id="440">
<path id="Vector" d="M15.4102 20C15.4102 19.45 14.9602 19 14.4102 19H13.4102V17H19.4102C20.5202 17 21.4102 16.11 21.4102 15V3C21.4102 1.9 20.5202 1 19.4102 1H5.41016C4.31016 1 3.41016 1.9 3.41016 3V15C3.41016 16.11 4.31016 17 5.41016 17H11.4102V19H10.4102C9.86016 19 9.41016 19.45 9.41016 20H2.41016V22H9.41016C9.41016 22.55 9.86016 23 10.4102 23H14.4102C14.9602 23 15.4102 22.55 15.4102 22H22.4102V20H15.4102ZM13.4102 5H19.4102V9H13.4102V5ZM13.4102 11H19.4102V15H13.4102V11ZM5.41016 5H11.4102V9H5.41016V5ZM5.41016 15V11H11.4102V15H5.41016Z" fill="black"/>
</g>
</svg>
