<svg width="25" height="24" viewBox="0 0 25 24" fill="none" xmlns="http://www.w3.org/2000/svg">
<g id="442">
<path id="Vector" d="M22.5195 21.46L2.79953 1.72998L1.51953 2.99998L3.62953 5.10998C3.48953 5.37998 3.40953 5.67998 3.40953 5.99998V18C3.40953 19.11 4.30953 20 5.40953 20H18.5195L21.2495 22.73L22.5195 21.46ZM10.5195 12H5.40953V7.99998H6.51953L10.5195 12ZM11.4095 18H5.40953V14H11.4095V18ZM13.4095 18V14.89L16.5195 18H13.4095ZM13.4095 9.79998L7.60953 3.99998H19.4095C20.5195 3.99998 21.4095 4.88998 21.4095 5.99998V17.8L19.4095 15.8V14H17.6095L15.6095 12H19.4095V7.99998H13.4095V9.79998Z" fill="black"/>
</g>
</svg>
