<svg width="25" height="24" viewBox="0 0 25 24" fill="none" xmlns="http://www.w3.org/2000/svg">
<g id="444">
<path id="Vector" d="M22.4102 15H20.4102V18C20.4102 19.11 19.5202 20 18.4102 20H15.4102V22L12.4102 19L15.4102 16V18H18.4102V15H16.4102L19.4102 12L22.4102 15ZM22.4102 4V8C22.4102 9.1 21.5102 10 20.4102 10H10.4102V20C10.4102 21.1 9.51016 22 8.41016 22H4.41016C3.31016 22 2.41016 21.1 2.41016 20V4C2.41016 2.9 3.31016 2 4.41016 2H20.4102C21.5102 2 22.4102 2.9 22.4102 4ZM4.41016 8H8.41016V4H4.41016V8ZM4.41016 10V14H8.41016V10H4.41016ZM8.41016 20V16H4.41016V20H8.41016ZM14.4102 8V4H10.4102V8H14.4102ZM20.4102 4H16.4102V8H20.4102V4Z" fill="black"/>
</g>
</svg>
