<svg width="25" height="24" viewBox="0 0 25 24" fill="none" xmlns="http://www.w3.org/2000/svg">
<g id="445">
<path id="Vector" d="M22.4102 14C22.4102 14.5304 22.1994 15.0391 21.8244 15.4142C21.4493 15.7893 20.9406 16 20.4102 16H4.41016C3.87972 16 3.37102 15.7893 2.99594 15.4142C2.62087 15.0391 2.41016 14.5304 2.41016 14V10C2.41016 9.46957 2.62087 8.96086 2.99594 8.58579C3.37102 8.21071 3.87972 8 4.41016 8H20.4102C20.9406 8 21.4493 8.21071 21.8244 8.58579C22.1994 8.96086 22.4102 9.46957 22.4102 10V14ZM4.41016 14H8.41016V10H4.41016V14ZM10.4102 14H14.4102V10H10.4102V14ZM16.4102 14H20.4102V10H16.4102V14Z" fill="black"/>
</g>
</svg>
