<svg width="25" height="24" viewBox="0 0 25 24" fill="none" xmlns="http://www.w3.org/2000/svg">
<g id="446">
<path id="Vector" d="M15.8702 15.88L17.2902 14.46L19.4102 16.59L21.5302 14.46L22.9502 15.88L20.8202 18L22.9502 20.12L21.5302 21.54L19.4102 19.41L17.2902 21.54L15.8702 20.12L18.0002 18L15.8702 15.88ZM4.41016 3H18.4102C18.9406 3 19.4493 3.21071 19.8244 3.58579C20.1994 3.96086 20.4102 4.46957 20.4102 5V12.08C18.8602 11.82 17.3302 12.18 16.0902 13H12.4102V17H13.4902C13.3802 17.68 13.3802 18.35 13.4902 19H4.41016C3.87972 19 3.37102 18.7893 2.99594 18.4142C2.62087 18.0391 2.41016 17.5304 2.41016 17V5C2.41016 4.46957 2.62087 3.96086 2.99594 3.58579C3.37102 3.21071 3.87972 3 4.41016 3ZM4.41016 7V11H10.4102V7H4.41016ZM12.4102 7V11H18.4102V7H12.4102ZM4.41016 13V17H10.4102V13H4.41016Z" fill="black"/>
</g>
</svg>
