<svg width="25" height="24" viewBox="0 0 25 24" fill="none" xmlns="http://www.w3.org/2000/svg">
<g id="447">
<path id="Vector" d="M18.4102 14.5C19.5202 14.5 20.5202 14.95 21.2402 15.67L22.4102 14.5V18.5H18.4102L20.1802 16.73C19.7302 16.28 19.1002 16 18.4102 16C17.0302 16 15.9102 17.12 15.9102 18.5C15.9102 19.88 17.0302 21 18.4102 21C19.2302 21 19.9602 20.61 20.4102 20H22.1202C21.5302 21.47 20.0902 22.5 18.4102 22.5C16.2002 22.5 14.4102 20.71 14.4102 18.5C14.4102 16.29 16.2002 14.5 18.4102 14.5ZM4.41016 3H18.4102C19.5202 3 20.4102 3.9 20.4102 5V12.17C19.9102 12.06 19.4102 12 18.9102 12C17.6402 12 16.4502 12.37 15.4502 13H12.4102V17H12.5902C12.4702 17.5 12.4102 18 12.4102 18.5V19H4.41016C3.31016 19 2.41016 18.11 2.41016 17V5C2.41016 3.9 3.31016 3 4.41016 3ZM4.41016 7V11H10.4102V7H4.41016ZM12.4102 7V11H18.4102V7H12.4102ZM4.41016 13V17H10.4102V13H4.41016Z" fill="black"/>
</g>
</svg>
