<svg width="25" height="24" viewBox="0 0 25 24" fill="none" xmlns="http://www.w3.org/2000/svg">
<g id="448">
<path id="Vector" d="M19.9102 20.5V22H18.4102V20.5H19.9102ZM17.9102 15.5H16.4102V15C16.4102 13.34 17.7502 12 19.4102 12C21.0702 12 22.4102 13.34 22.4102 15C22.4102 15.97 21.9102 16.88 21.1202 17.41L20.8202 17.6C20.2502 18 19.9102 18.61 19.9102 19.3V19.5H18.4102V19.3C18.4102 18.11 19.0102 17 20.0002 16.35L20.2902 16.16C20.6802 15.9 20.9102 15.47 20.9102 15C20.9102 14.17 20.2402 13.5 19.4102 13.5C18.5802 13.5 17.9102 14.17 17.9102 15V15.5ZM18.4102 3H4.41016C3.31016 3 2.41016 3.9 2.41016 5V17C2.41016 18.1 3.31016 19 4.41016 19H14.4102V17H12.4102V13H14.8302C15.1902 12.2 15.7502 11.5 16.4402 11H12.4102V7H18.4102V10.1C18.7302 10.04 19.0702 10 19.4102 10C19.7502 10 20.0902 10.04 20.4102 10.1V5C20.4102 3.9 19.5202 3 18.4102 3ZM10.4102 17H4.41016V13H10.4102V17ZM10.4102 11H4.41016V7H10.4102V11Z" fill="black"/>
</g>
</svg>
