<svg width="25" height="24" viewBox="0 0 25 24" fill="none" xmlns="http://www.w3.org/2000/svg">
<g id="45">
<path id="Vector" d="M5.41016 3H19.4102C19.9406 3 20.4493 3.21071 20.8244 3.58579C21.1994 3.96086 21.4102 4.46957 21.4102 5V19C21.4102 19.5304 21.1994 20.0391 20.8244 20.4142C20.4493 20.7893 19.9406 21 19.4102 21H5.41016C4.87972 21 4.37102 20.7893 3.99594 20.4142C3.62087 20.0391 3.41016 19.5304 3.41016 19V5C3.41016 4.46957 3.62087 3.96086 3.99594 3.58579C4.37102 3.21071 4.87972 3 5.41016 3ZM11.4102 7C10.8797 7 10.371 7.21071 9.99594 7.58579C9.62087 7.96086 9.41016 8.46957 9.41016 9V15C9.41016 15.5304 9.62087 16.0391 9.99594 16.4142C10.371 16.7893 10.8797 17 11.4102 17H13.4102C13.9406 17 14.4493 16.7893 14.8244 16.4142C15.1994 16.0391 15.4102 15.5304 15.4102 15V14H13.4102V15H11.4102V9H13.4102V10H15.4102V9C15.4102 8.46957 15.1994 7.96086 14.8244 7.58579C14.4493 7.21071 13.9406 7 13.4102 7H11.4102Z" fill="black"/>
</g>
</svg>
