<svg width="25" height="24" viewBox="0 0 25 24" fill="none" xmlns="http://www.w3.org/2000/svg">
<g id="450">
<path id="Vector" d="M22.4102 14C22.4102 13.4696 22.1994 12.9609 21.8244 12.5858C21.4493 12.2107 20.9406 12 20.4102 12H4.41016C3.87972 12 3.37102 12.2107 2.99594 12.5858C2.62087 12.9609 2.41016 13.4696 2.41016 14V21H4.41016V19H8.41016V21H10.4102V19H14.4102V21H16.4102V19H20.4102V21H22.4102V14ZM4.41016 14H8.41016V17H4.41016V14ZM10.4102 14H14.4102V17H10.4102V14ZM20.4102 14V17H16.4102V14H20.4102ZM11.4102 10H13.4102V7H16.4102V5H13.4102V2H11.4102V5H8.41016V7H11.4102V10Z" fill="black"/>
</g>
</svg>
