<svg width="25" height="24" viewBox="0 0 25 24" fill="none" xmlns="http://www.w3.org/2000/svg">
<g id="451">
<path id="Vector" d="M9.82016 13L12.4102 15.59L15.0002 13L16.4102 14.41L13.8202 17L16.4102 19.59L15.0002 21L12.4102 18.41L9.82016 21L8.41016 19.59L11.0002 17L8.41016 14.41L9.82016 13ZM22.4102 9C22.4102 9.53043 22.1994 10.0391 21.8244 10.4142C21.4493 10.7893 20.9406 11 20.4102 11H4.41016C3.87972 11 3.37102 10.7893 2.99594 10.4142C2.62087 10.0391 2.41016 9.53043 2.41016 9V6C2.41016 5.46957 2.62087 4.96086 2.99594 4.58579C3.37102 4.21071 3.87972 4 4.41016 4H20.4102C20.9406 4 21.4493 4.21071 21.8244 4.58579C22.1994 4.96086 22.4102 5.46957 22.4102 6V9ZM4.41016 9H8.41016V6H4.41016V9ZM10.4102 9H14.4102V6H10.4102V9ZM16.4102 9H20.4102V6H16.4102V9Z" fill="black"/>
</g>
</svg>
