<svg width="25" height="24" viewBox="0 0 25 24" fill="none" xmlns="http://www.w3.org/2000/svg">
<g id="452">
<path id="Vector" d="M19.7102 17.89C21.0302 15.79 20.4102 13 18.3002 11.68C16.2002 10.36 13.4102 11 12.0902 13.09C10.7702 15.2 11.4102 18 13.5002 19.3C14.9702 20.22 16.8302 20.22 18.3002 19.3L21.4102 22.39L22.8002 21L19.7102 17.89ZM17.7102 17.27C16.7302 18.25 15.1502 18.24 14.1702 17.27C13.2002 16.29 13.2002 14.71 14.1802 13.73C15.1502 12.76 16.7302 12.76 17.7102 13.73C18.6702 14.72 18.6602 16.3 17.6802 17.27H17.7102ZM19.4102 4H5.41016C4.87972 4 4.37102 4.21071 3.99594 4.58579C3.62087 4.96086 3.41016 5.46957 3.41016 6V18C3.41016 18.5304 3.62087 19.0391 3.99594 19.4142C4.37102 19.7893 4.87972 20 5.41016 20H11.2202C10.6602 19.42 10.2102 18.74 9.91016 18H5.41016V14H9.59016C9.75016 13.29 10.0202 12.61 10.4102 12H5.41016V8H11.4102V10.81C11.9902 10.25 12.6702 9.8 13.4102 9.5V8H19.4102V10C19.8102 10.25 20.1802 10.55 20.5102 10.88C20.8502 11.22 21.1502 11.59 21.4102 12V6C21.4102 5.46957 21.1994 4.96086 20.8244 4.58579C20.4493 4.21071 19.9406 4 19.4102 4Z" fill="black"/>
</g>
</svg>
