<svg width="25" height="24" viewBox="0 0 25 24" fill="none" xmlns="http://www.w3.org/2000/svg">
<g id="453">
<path id="Vector" d="M18.9102 14C20.3102 14 21.4102 15.1 21.4102 16.5C21.4102 17.9 20.3102 19 18.9102 19C17.5102 19 16.4102 17.9 16.4102 16.5C16.4102 15.1 17.5102 14 18.9102 14ZM7.41016 15C7.41016 15 8.41016 16 8.41016 17V20.5C8.41016 21.3 9.11016 22 9.91016 22C10.7102 22 11.4102 21.3 11.4102 20.5V17C11.4102 16 12.4102 15 12.4102 15H7.41016ZM8.41016 14H11.4102C11.4102 14 16.4102 14 16.4102 9C16.4102 4 12.4102 2 9.91016 2C7.41016 2 3.41016 4 3.41016 9C3.41016 14 8.41016 14 8.41016 14Z" fill="black"/>
</g>
</svg>
