<svg width="25" height="24" viewBox="0 0 25 24" fill="none" xmlns="http://www.w3.org/2000/svg">
<g id="454">
<path id="Vector" d="M19.4102 12V13.5C21.6202 13.5 23.4102 15.29 23.4102 17.5C23.4102 18.32 23.1702 19.08 22.7402 19.71L21.6502 18.62C21.8202 18.28 21.9102 17.9 21.9102 17.5C21.9102 16.12 20.7902 15 19.4102 15V16.5L17.1602 14.25L19.4102 12ZM19.4102 23V21.5C17.2002 21.5 15.4102 19.71 15.4102 17.5C15.4102 16.68 15.6602 15.92 16.0802 15.29L17.1702 16.38C17.0002 16.72 16.9102 17.1 16.9102 17.5C16.9102 18.88 18.0302 20 19.4102 20V18.5L21.6602 20.75L19.4102 23ZM4.41016 3H18.4102C19.5202 3 20.4102 3.9 20.4102 5V11H19.9102C18.0702 11 16.4102 11.77 15.2202 13H12.4102V17H13.4102V17.5C13.4102 18 13.4702 18.5 13.5802 19H4.41016C3.31016 19 2.41016 18.11 2.41016 17V5C2.41016 3.9 3.31016 3 4.41016 3ZM4.41016 7V11H10.4102V7H4.41016ZM12.4102 7V11H18.4102V7H12.4102ZM4.41016 13V17H10.4102V13H4.41016Z" fill="black"/>
</g>
</svg>
