<svg width="25" height="24" viewBox="0 0 25 24" fill="none" xmlns="http://www.w3.org/2000/svg">
<g id="455">
<path id="Vector" d="M4.41016 3H18.4102C19.5202 3 20.4102 3.9 20.4102 5V12.08C18.8602 11.82 17.3302 12.18 16.0902 13H12.4102V17H13.4902C13.3802 17.68 13.3802 18.35 13.4902 19H4.41016C3.31016 19 2.41016 18.11 2.41016 17V5C2.41016 3.9 3.31016 3 4.41016 3ZM4.41016 7V11H10.4102V7H4.41016ZM12.4102 7V11H18.4102V7H12.4102ZM4.41016 13V17H10.4102V13H4.41016ZM16.9102 21.6L17.6102 18.8L15.4102 16.9L18.3102 16.7L19.4102 14L20.5102 16.6L23.4102 16.8L21.2102 18.7L21.9102 21.5L19.4102 20.1L16.9102 21.6Z" fill="black"/>
</g>
</svg>
