<svg width="25" height="24" viewBox="0 0 25 24" fill="none" xmlns="http://www.w3.org/2000/svg">
<g id="459">
<g id="Group">
<path id="Vector" d="M3.41016 4H20.4102C20.9406 4 21.4493 4.21071 21.8244 4.58579C22.1994 4.96086 22.4102 5.46957 22.4102 6V8H18.4102V6H5.41016V18H14.4102V20H3.41016C2.87972 20 2.37102 19.7893 1.99594 19.4142C1.62087 19.0391 1.41016 18.5304 1.41016 18V6C1.41016 5.46957 1.62087 4.96086 1.99594 4.58579C2.37102 4.21071 2.87972 4 3.41016 4ZM17.4102 10H23.4102C23.6754 10 23.9297 10.1054 24.1173 10.2929C24.3048 10.4804 24.4102 10.7348 24.4102 11V21C24.4102 21.2652 24.3048 21.5196 24.1173 21.7071C23.9297 21.8946 23.6754 22 23.4102 22H17.4102C17.1449 22 16.8906 21.8946 16.703 21.7071C16.5155 21.5196 16.4102 21.2652 16.4102 21V11C16.4102 10.7348 16.5155 10.4804 16.703 10.2929C16.8906 10.1054 17.1449 10 17.4102 10ZM18.4102 12V19H22.4102V12H18.4102Z" fill="black"/>
</g>
</g>
</svg>
