<svg width="25" height="24" viewBox="0 0 25 24" fill="none" xmlns="http://www.w3.org/2000/svg">
<g id="461">
<path id="Vector" d="M19.4102 18H5.41016C4.34929 18 3.33187 17.5786 2.58173 16.8284C1.83158 16.0783 1.41016 15.0609 1.41016 14C1.41016 11.8783 2.25301 9.84344 3.7533 8.34315C5.25359 6.84285 7.28842 6 9.41016 6C10.4702 6 11.4802 6.21 12.4102 6.58C13.3402 6.21 14.3502 6 15.4102 6C17.5319 6 19.5667 6.84285 21.067 8.34315C22.5673 9.84344 23.4102 11.8783 23.4102 14C23.4102 15.0609 22.9887 16.0783 22.2386 16.8284C21.4884 17.5786 20.471 18 19.4102 18ZM3.41016 14C3.41016 14.5304 3.62087 15.0391 3.99594 15.4142C4.37102 15.7893 4.87972 16 5.41016 16C5.94059 16 6.4493 15.7893 6.82437 15.4142C7.19944 15.0391 7.41016 14.5304 7.41016 14C7.41016 11.63 8.44016 9.5 10.0802 8.04L9.41016 8C7.81886 8 6.29273 8.63214 5.16752 9.75736C4.0423 10.8826 3.41016 12.4087 3.41016 14ZM19.4102 16C19.9406 16 20.4493 15.7893 20.8244 15.4142C21.1994 15.0391 21.4102 14.5304 21.4102 14C21.4102 12.4087 20.778 10.8826 19.6528 9.75736C18.5276 8.63214 17.0015 8 15.4102 8C13.8189 8 12.2927 8.63214 11.1675 9.75736C10.0423 10.8826 9.41016 12.4087 9.41016 14C9.41016 14.73 9.22016 15.41 8.87016 16H19.4102Z" fill="black"/>
</g>
</svg>
