<svg width="25" height="24" viewBox="0 0 25 24" fill="none" xmlns="http://www.w3.org/2000/svg">
<g id="462">
<path id="Vector" d="M5.91016 7C5.51233 7 5.1308 6.84196 4.8495 6.56066C4.56819 6.27936 4.41016 5.89782 4.41016 5.5C4.41016 5.10218 4.56819 4.72064 4.8495 4.43934C5.1308 4.15804 5.51233 4 5.91016 4C6.30798 4 6.68951 4.15804 6.97082 4.43934C7.25212 4.72064 7.41016 5.10218 7.41016 5.5C7.41016 5.89782 7.25212 6.27936 6.97082 6.56066C6.68951 6.84196 6.30798 7 5.91016 7ZM21.8202 11.58L12.8202 2.58C12.4602 2.22 11.9602 2 11.4102 2H4.41016C3.30016 2 2.41016 2.89 2.41016 4V11C2.41016 11.55 2.63016 12.05 3.00016 12.41L11.9902 21.41C12.3602 21.77 12.8602 22 13.4102 22C13.9602 22 14.4602 21.77 14.8202 21.41L21.8202 14.41C22.1902 14.05 22.4102 13.55 22.4102 13C22.4102 12.44 22.1802 11.94 21.8202 11.58Z" fill="black"/>
</g>
</svg>
