<svg width="25" height="24" viewBox="0 0 25 24" fill="none" xmlns="http://www.w3.org/2000/svg">
<g id="470">
<path id="Vector" d="M6.91016 5C6.08016 5 5.41016 5.67 5.41016 6.5C5.41016 7.33 6.08016 8 6.91016 8C7.74016 8 8.41016 7.33 8.41016 6.5C8.41016 5.67 7.74016 5 6.91016 5ZM6.91016 5C6.08016 5 5.41016 5.67 5.41016 6.5C5.41016 7.33 6.08016 8 6.91016 8C7.74016 8 8.41016 7.33 8.41016 6.5C8.41016 5.67 7.74016 5 6.91016 5ZM21.8202 11.58L12.8202 2.58C12.4502 2.21 11.9402 2 11.4102 2H4.41016C3.31016 2 2.41016 2.9 2.41016 4V11C2.41016 11.53 2.62016 12.04 3.00016 12.42L3.41016 12.82C4.05016 12.44 4.76016 12.19 5.49016 12.08L4.41016 11V4H11.4102L20.4102 13L13.4102 20L12.3302 18.92C12.2302 19.66 11.9702 20.36 11.5902 21L12.0002 21.41C12.3702 21.79 12.8802 22 13.4102 22C13.9402 22 14.4502 21.79 14.8202 21.41L21.8202 14.41C22.2002 14.04 22.4102 13.53 22.4102 13C22.4102 12.47 22.2002 11.96 21.8202 11.58ZM6.91016 5C6.08016 5 5.41016 5.67 5.41016 6.5C5.41016 7.33 6.08016 8 6.91016 8C7.74016 8 8.41016 7.33 8.41016 6.5C8.41016 5.67 7.74016 5 6.91016 5ZM6.41016 17V21H8.41016V17H10.4102L7.41016 14L4.41016 17H6.41016Z" fill="black"/>
</g>
</svg>
