<svg width="25" height="24" viewBox="0 0 25 24" fill="none" xmlns="http://www.w3.org/2000/svg">
<g id="471">
<path id="Vector" d="M21.8202 11.58L12.8202 2.58C12.4502 2.21 11.9402 2 11.4102 2H4.41016C3.31016 2 2.41016 2.9 2.41016 4V11C2.41016 11.53 2.62016 12.04 3.00016 12.41L3.41016 12.81C4.31016 12.27 5.35016 12 6.41016 12C9.72016 12 12.4102 14.69 12.4102 18C12.4102 19.06 12.1302 20.09 11.5902 21L11.9902 21.4C12.3602 21.78 12.8802 22 13.4102 22C13.9402 22 14.4502 21.79 14.8202 21.41L21.8202 14.41C22.2002 14.04 22.4102 13.53 22.4102 13C22.4102 12.47 22.2002 11.96 21.8202 11.58ZM5.91016 7C5.08016 7 4.41016 6.33 4.41016 5.5C4.41016 4.67 5.08016 4 5.91016 4C6.74016 4 7.41016 4.67 7.41016 5.5C7.41016 6.33 6.74016 7 5.91016 7ZM9.04016 14.27L5.17016 18.17L3.82016 16.8L2.41016 18.22L5.16016 21L10.4402 15.68L9.04016 14.27Z" fill="black"/>
</g>
</svg>
