<svg width="25" height="24" viewBox="0 0 25 24" fill="none" xmlns="http://www.w3.org/2000/svg">
<g id="475">
<path id="Vector" d="M4.41016 2C3.87972 2 3.37102 2.21071 2.99594 2.58579C2.62087 2.96086 2.41016 3.46957 2.41016 4V11C2.41016 11.55 2.63016 12.05 3.00016 12.42L12.0002 21.42C12.3602 21.78 12.8602 22 13.4102 22C13.9602 22 14.4602 21.78 14.8202 21.41L21.8202 14.41C22.1902 14.05 22.4102 13.55 22.4102 13C22.4102 12.45 22.1802 11.94 21.8202 11.58L12.8202 2.58C12.4602 2.22 11.9602 2 11.4102 2H4.41016ZM11.4102 4L20.4102 13L13.4102 20L4.41016 11V4H11.4102ZM6.91016 5C6.51233 5 6.1308 5.15804 5.8495 5.43934C5.56819 5.72064 5.41016 6.10218 5.41016 6.5C5.41016 6.89782 5.56819 7.27936 5.8495 7.56066C6.1308 7.84196 6.51233 8 6.91016 8C7.30798 8 7.68951 7.84196 7.97082 7.56066C8.25212 7.27936 8.41016 6.89782 8.41016 6.5C8.41016 6.10218 8.25212 5.72064 7.97082 5.43934C7.68951 5.15804 7.30798 5 6.91016 5ZM11.3602 10.5C10.2302 10.5 9.31016 11.42 9.31016 12.55C9.31016 13.12 9.54016 13.62 9.91016 14L13.4102 17.5L16.9102 14C17.2802 13.63 17.5102 13.11 17.5102 12.55C17.5102 12.2808 17.4571 12.0142 17.3541 11.7655C17.2511 11.5168 17.1001 11.2908 16.9097 11.1004C16.7194 10.9101 16.4934 10.7591 16.2447 10.656C15.9959 10.553 15.7294 10.5 15.4602 10.5C14.9102 10.5 14.3802 10.73 14.0102 11.1L13.4102 11.7L12.8102 11.11C12.4402 10.73 11.9102 10.5 11.3602 10.5Z" fill="black"/>
</g>
</svg>
