<svg width="25" height="24" viewBox="0 0 25 24" fill="none" xmlns="http://www.w3.org/2000/svg">
<g id="476">
<path id="Vector" d="M21.8202 11.58L12.8202 2.58C12.4602 2.22 11.9602 2 11.4102 2H4.41016C3.87972 2 3.37102 2.21071 2.99594 2.58579C2.62087 2.96086 2.41016 3.46957 2.41016 4V11C2.41016 11.55 2.63016 12.05 3.00016 12.42L12.0002 21.42C12.3602 21.78 12.8602 22 13.4102 22C13.9602 22 14.4602 21.78 14.8202 21.41L21.8202 14.41C22.1902 14.05 22.4102 13.55 22.4102 13C22.4102 12.45 22.1802 11.94 21.8202 11.58ZM5.91016 7C5.51233 7 5.1308 6.84196 4.8495 6.56066C4.56819 6.27936 4.41016 5.89782 4.41016 5.5C4.41016 5.10218 4.56819 4.72064 4.8495 4.43934C5.1308 4.15804 5.51233 4 5.91016 4C6.30798 4 6.68951 4.15804 6.97082 4.43934C7.25212 4.72064 7.41016 5.10218 7.41016 5.5C7.41016 5.89782 7.25212 6.27936 6.97082 6.56066C6.68951 6.84196 6.30798 7 5.91016 7ZM17.6802 15.27L13.4102 19.54L9.14016 15.27C8.69016 14.81 8.41016 14.19 8.41016 13.5C8.41016 12.837 8.67355 12.2011 9.14239 11.7322C9.61123 11.2634 10.2471 11 10.9102 11C11.6002 11 12.2302 11.28 12.6802 11.74L13.4102 12.46L14.1402 11.73C14.5902 11.28 15.2202 11 15.9102 11C16.5732 11 17.2091 11.2634 17.6779 11.7322C18.1468 12.2011 18.4102 12.837 18.4102 13.5C18.4102 14.19 18.1302 14.82 17.6802 15.27Z" fill="black"/>
</g>
</svg>
