<svg width="25" height="24" viewBox="0 0 25 24" fill="none" xmlns="http://www.w3.org/2000/svg">
<g id="477">
<g id="Group">
<path id="Vector" d="M15.4102 18C12.0902 18 9.41016 15.31 9.41016 12C9.41016 8.68 12.0902 6 15.4102 6C17.0015 6 18.5276 6.63214 19.6528 7.75736C20.778 8.88258 21.4102 10.4087 21.4102 12C21.4102 13.5913 20.778 15.1174 19.6528 16.2426C18.5276 17.3679 17.0015 18 15.4102 18ZM4.41016 13C4.14494 13 3.89059 12.8946 3.70305 12.7071C3.51551 12.5196 3.41016 12.2652 3.41016 12C3.41016 11.7348 3.51551 11.4804 3.70305 11.2929C3.89059 11.1054 4.14494 11 4.41016 11C4.67537 11 4.92973 11.1054 5.11726 11.2929C5.3048 11.4804 5.41016 11.7348 5.41016 12C5.41016 12.2652 5.3048 12.5196 5.11726 12.7071C4.92973 12.8946 4.67537 13 4.41016 13ZM22.4102 3H8.04016C7.38016 3 6.79016 3.32 6.41016 3.81L0.410156 12L6.41016 20.18C6.79016 20.68 7.38016 21 8.04016 21H22.4102C22.9406 21 23.4493 20.7893 23.8244 20.4142C24.1994 20.0391 24.4102 19.5304 24.4102 19V5C24.4102 3.89 23.5102 3 22.4102 3ZM13.4102 11C13.6754 11 13.9297 10.8946 14.1173 10.7071C14.3048 10.5196 14.4102 10.2652 14.4102 10C14.4102 9.73478 14.3048 9.48043 14.1173 9.29289C13.9297 9.10536 13.6754 9 13.4102 9C13.1449 9 12.8906 9.10536 12.703 9.29289C12.5155 9.48043 12.4102 9.73478 12.4102 10C12.4102 10.2652 12.5155 10.5196 12.703 10.7071C12.8906 10.8946 13.1449 11 13.4102 11ZM15.4102 16C17.2702 16 18.7602 14.72 19.2102 13H11.6102C12.0602 14.72 13.5502 16 15.4102 16ZM17.4102 11C17.6754 11 17.9297 10.8946 18.1173 10.7071C18.3048 10.5196 18.4102 10.2652 18.4102 10C18.4102 9.73478 18.3048 9.48043 18.1173 9.29289C17.9297 9.10536 17.6754 9 17.4102 9C17.1449 9 16.8906 9.10536 16.703 9.29289C16.5155 9.48043 16.4102 9.73478 16.4102 10C16.4102 10.2652 16.5155 10.5196 16.703 10.7071C16.8906 10.8946 17.1449 11 17.4102 11Z" fill="black"/>
</g>
</g>
</svg>
