<svg width="25" height="24" viewBox="0 0 25 24" fill="none" xmlns="http://www.w3.org/2000/svg">
<g id="478">
<path id="Vector" d="M5.91016 9C6.30798 9 6.68951 8.84196 6.97082 8.56066C7.25212 8.27936 7.41016 7.89782 7.41016 7.5C7.41016 7.10218 7.25212 6.72064 6.97082 6.43934C6.68951 6.15804 6.30798 6 5.91016 6C5.51233 6 5.1308 6.15804 4.8495 6.43934C4.56819 6.72064 4.41016 7.10218 4.41016 7.5C4.41016 7.89782 4.56819 8.27936 4.8495 8.56066C5.1308 8.84196 5.51233 9 5.91016 9ZM17.8202 11.58C18.1802 11.94 18.4102 12.44 18.4102 13C18.4102 13.55 18.1902 14.05 17.8202 14.41L12.8202 19.41C12.4602 19.77 11.9602 20 11.4102 20C10.8602 20 10.3602 19.78 9.99016 19.41L3.00016 12.42C2.63016 12.05 2.41016 11.55 2.41016 11V6C2.41016 4.89 3.30016 4 4.41016 4H9.41016C9.96016 4 10.4602 4.22 10.8202 4.58L17.8202 11.58ZM13.9502 5.71L14.9502 4.71L21.8202 11.58C22.1902 11.94 22.4102 12.45 22.4102 13C22.4102 13.55 22.1902 14.05 21.8302 14.41L16.4502 19.79L15.4502 18.79L21.1602 13L13.9502 5.71Z" fill="black"/>
</g>
</svg>
