<svg width="25" height="24" viewBox="0 0 25 24" fill="none" xmlns="http://www.w3.org/2000/svg">
<g id="479">
<path id="Vector" d="M6.91016 10C7.71016 10 8.41016 9.3 8.41016 8.5C8.41016 7.7 7.71016 7 6.91016 7C6.11016 7 5.41016 7.7 5.41016 8.5C5.41016 9.3 6.11016 10 6.91016 10ZM9.41016 6L16.4102 13L11.4102 18L4.41016 11V6H9.41016ZM9.41016 4H4.41016C3.31016 4 2.41016 4.9 2.41016 6V11C2.41016 11.6 2.61016 12.1 3.01016 12.4L10.0102 19.4C10.3102 19.8 10.8102 20 11.4102 20C12.0102 20 12.5102 19.8 12.8102 19.4L17.8102 14.4C18.2102 14 18.4102 13.5 18.4102 13C18.4102 12.4 18.2102 11.9 17.8102 11.6L10.8102 4.6C10.5102 4.2 10.0102 4 9.41016 4ZM13.9102 5.7L14.9102 4.7L21.8102 11.6C22.2102 12 22.4102 12.5 22.4102 13C22.4102 13.5 22.2102 14.1 21.8102 14.4L16.4102 19.8L15.4102 18.8L21.1102 13L13.9102 5.7Z" fill="black"/>
</g>
</svg>
