<svg width="25" height="24" viewBox="0 0 25 24" fill="none" xmlns="http://www.w3.org/2000/svg">
<g id="480">
<path id="Vector" d="M18.7402 8.5L23.3302 3.92L21.9102 2.5L2.91016 21.5L4.33016 22.92L8.91016 18.33L11.9902 21.41C12.1762 21.5972 12.3975 21.7457 12.6412 21.8469C12.8849 21.9482 13.1462 22.0002 13.4102 22C13.9397 21.9978 14.4468 21.7856 14.8202 21.41L21.8202 14.41C22.1957 14.0367 22.4079 13.5296 22.4102 13C22.4104 12.7361 22.3583 12.4747 22.2571 12.231C22.1558 11.9873 22.0073 11.7661 21.8202 11.58M6.02016 15.43L15.8802 5.65L12.8202 2.58C12.4452 2.20808 11.9383 1.99958 11.4102 2H4.41016C3.87972 2 3.37102 2.21071 2.99594 2.58579C2.62087 2.96086 2.41016 3.46957 2.41016 4V11C2.41239 11.5296 2.62457 12.0367 3.00016 12.41M5.91016 4C6.20683 4 6.49684 4.08797 6.74351 4.2528C6.99019 4.41762 7.18244 4.65189 7.29598 4.92598C7.40951 5.20006 7.43921 5.50166 7.38133 5.79264C7.32346 6.08361 7.1806 6.35088 6.97082 6.56066C6.76104 6.77044 6.49376 6.9133 6.20279 6.97118C5.91182 7.02906 5.61022 6.99935 5.33613 6.88582C5.06204 6.77229 4.82777 6.58003 4.66295 6.33336C4.49813 6.08668 4.41016 5.79667 4.41016 5.5C4.41016 5.10218 4.56819 4.72064 4.8495 4.43934C5.1308 4.15804 5.51233 4 5.91016 4Z" fill="black"/>
</g>
</svg>
