<svg width="25" height="24" viewBox="0 0 25 24" fill="none" xmlns="http://www.w3.org/2000/svg">
<g id="481">
<path id="Vector" d="M6.91016 5C6.61348 5 6.32348 5.08797 6.0768 5.2528C5.83013 5.41762 5.63787 5.65189 5.52434 5.92598C5.41081 6.20006 5.3811 6.50166 5.43898 6.79264C5.49686 7.08361 5.63972 7.35088 5.8495 7.56066C6.05928 7.77044 6.32655 7.9133 6.61752 7.97118C6.90849 8.02906 7.21009 7.99935 7.48418 7.88582C7.75827 7.77229 7.99254 7.58003 8.15736 7.33336C8.32218 7.08668 8.41016 6.79667 8.41016 6.5C8.41016 6.10218 8.25212 5.72064 7.97082 5.43934C7.68951 5.15804 7.30798 5 6.91016 5ZM6.91016 5C6.61348 5 6.32348 5.08797 6.0768 5.2528C5.83013 5.41762 5.63787 5.65189 5.52434 5.92598C5.41081 6.20006 5.3811 6.50166 5.43898 6.79264C5.49686 7.08361 5.63972 7.35088 5.8495 7.56066C6.05928 7.77044 6.32655 7.9133 6.61752 7.97118C6.90849 8.02906 7.21009 7.99935 7.48418 7.88582C7.75827 7.77229 7.99254 7.58003 8.15736 7.33336C8.32218 7.08668 8.41016 6.79667 8.41016 6.5C8.41016 6.10218 8.25212 5.72064 7.97082 5.43934C7.68951 5.15804 7.30798 5 6.91016 5ZM18.7402 8.5L23.3302 3.92L21.9102 2.5L2.91016 21.5L4.33016 22.92L8.91016 18.33L12.0002 21.42C12.3751 21.7919 12.882 22.0004 13.4102 22C13.9397 21.9978 14.4468 21.7856 14.8202 21.41L21.8202 14.41C22.1957 14.0367 22.4079 13.5296 22.4102 13C22.4104 12.7361 22.3583 12.4747 22.2571 12.231C22.1558 11.9873 22.0073 11.7661 21.8202 11.58M13.4102 20L10.3302 16.92L17.3302 9.92L20.4102 13M6.02016 15.43L7.41016 14L4.41016 11V4H11.4102L14.4702 7.06L15.8802 5.66L12.8202 2.58C12.4452 2.20808 11.9383 1.99958 11.4102 2H4.41016C3.87972 2 3.37102 2.21071 2.99594 2.58579C2.62087 2.96086 2.41016 3.46957 2.41016 4V11C2.40995 11.2639 2.46197 11.5253 2.56323 11.769C2.66449 12.0127 2.81299 12.2339 3.00016 12.42M5.41016 6.5C5.41016 6.79667 5.49813 7.08668 5.66295 7.33336C5.82777 7.58003 6.06204 7.77229 6.33613 7.88582C6.61022 7.99935 6.91182 8.02906 7.20279 7.97118C7.49376 7.9133 7.76104 7.77044 7.97082 7.56066C8.1806 7.35088 8.32346 7.08361 8.38133 6.79264C8.43921 6.50166 8.40951 6.20006 8.29598 5.92598C8.18244 5.65189 7.99019 5.41762 7.74351 5.2528C7.49684 5.08797 7.20683 5 6.91016 5C6.51233 5 6.1308 5.15804 5.8495 5.43934C5.56819 5.72064 5.41016 6.10218 5.41016 6.5Z" fill="black"/>
</g>
</svg>
