<svg width="25" height="24" viewBox="0 0 25 24" fill="none" xmlns="http://www.w3.org/2000/svg">
<g id="482">
<path id="Vector" d="M21.8202 11.58L12.8202 2.58C12.4602 2.22 11.9602 2 11.4102 2H4.41016C3.30016 2 2.41016 2.89 2.41016 4V11C2.41016 11.55 2.63016 12.05 3.00016 12.41L11.9902 21.41C12.3602 21.77 12.8602 22 13.4102 22C13.9602 22 14.4602 21.77 14.8202 21.41L15.2402 21C12.0102 20.9 9.41016 18.26 9.41016 15C9.41016 11.69 12.1002 9 15.4102 9C18.6702 9 21.3102 11.6 21.4102 14.83L21.8202 14.41C22.1902 14.05 22.4102 13.55 22.4102 13C22.4102 12.44 22.1802 11.94 21.8202 11.58ZM5.91016 7C5.08016 7 4.41016 6.33 4.41016 5.5C4.41016 4.67 5.08016 4 5.91016 4C6.74016 4 7.41016 4.67 7.41016 5.5C7.41016 6.33 6.74016 7 5.91016 7ZM15.5202 10.61C18.0202 10.61 20.0202 12.61 20.0202 15.11C20.0202 16 19.7702 16.82 19.3302 17.5L22.4102 20.61L21.0202 22L17.9102 18.93C17.2102 19.36 16.4102 19.61 15.5202 19.61C13.0202 19.61 11.0202 17.61 11.0202 15.11C11.0202 12.61 13.0202 10.61 15.5202 10.61ZM15.5202 12.61C14.1402 12.61 13.0202 13.73 13.0202 15.11C13.0202 16.49 14.1402 17.61 15.5202 17.61C16.9002 17.61 18.0202 16.5 18.0202 15.11C18.0202 13.72 16.9102 12.61 15.5202 12.61Z" fill="black"/>
</g>
</svg>
