<svg width="25" height="24" viewBox="0 0 25 24" fill="none" xmlns="http://www.w3.org/2000/svg">
<g id="483">
<path id="Vector" d="M21.8202 11.58L12.8202 2.58C12.4452 2.20808 11.9383 1.99958 11.4102 2H4.41016C3.87972 2 3.37102 2.21071 2.99594 2.58579C2.62087 2.96086 2.41016 3.46957 2.41016 4V11C2.40995 11.2639 2.46197 11.5253 2.56323 11.769C2.66449 12.0127 2.81299 12.2339 3.00016 12.42L12.0002 21.42C12.3751 21.7919 12.882 22.0004 13.4102 22C13.9397 21.9978 14.4468 21.7856 14.8202 21.41L21.8202 14.41C22.1957 14.0367 22.4079 13.5296 22.4102 13C22.4104 12.7361 22.3583 12.4747 22.2571 12.231C22.1558 11.9873 22.0073 11.7661 21.8202 11.58ZM13.4102 20L4.41016 11V4H11.4102L20.4102 13M6.91016 5C7.20683 5 7.49684 5.08797 7.74351 5.2528C7.99019 5.41762 8.18244 5.65189 8.29598 5.92598C8.40951 6.20006 8.43921 6.50166 8.38133 6.79264C8.32346 7.08361 8.1806 7.35088 7.97082 7.56066C7.76104 7.77044 7.49376 7.9133 7.20279 7.97118C6.91182 8.02906 6.61022 7.99935 6.33613 7.88582C6.06204 7.77229 5.82777 7.58003 5.66295 7.33336C5.49813 7.08668 5.41016 6.79667 5.41016 6.5C5.41016 6.10218 5.56819 5.72064 5.8495 5.43934C6.1308 5.15804 6.51233 5 6.91016 5Z" fill="black"/>
</g>
</svg>
