<svg width="25" height="24" viewBox="0 0 25 24" fill="none" xmlns="http://www.w3.org/2000/svg">
<g id="484">
<path id="Vector" d="M6.91016 5C6.61348 5 6.32348 5.08797 6.0768 5.2528C5.83013 5.41762 5.63787 5.65189 5.52434 5.92598C5.41081 6.20006 5.3811 6.50166 5.43898 6.79264C5.49686 7.08361 5.63972 7.35088 5.8495 7.56066C6.05928 7.77044 6.32655 7.9133 6.61752 7.97118C6.90849 8.02906 7.21009 7.99935 7.48418 7.88582C7.75827 7.77229 7.99254 7.58003 8.15736 7.33336C8.32218 7.08668 8.41016 6.79667 8.41016 6.5C8.41016 6.10218 8.25212 5.72064 7.97082 5.43934C7.68951 5.15804 7.30798 5 6.91016 5ZM6.91016 5C6.61348 5 6.32348 5.08797 6.0768 5.2528C5.83013 5.41762 5.63787 5.65189 5.52434 5.92598C5.41081 6.20006 5.3811 6.50166 5.43898 6.79264C5.49686 7.08361 5.63972 7.35088 5.8495 7.56066C6.05928 7.77044 6.32655 7.9133 6.61752 7.97118C6.90849 8.02906 7.21009 7.99935 7.48418 7.88582C7.75827 7.77229 7.99254 7.58003 8.15736 7.33336C8.32218 7.08668 8.41016 6.79667 8.41016 6.5C8.41016 6.10218 8.25212 5.72064 7.97082 5.43934C7.68951 5.15804 7.30798 5 6.91016 5ZM21.8202 11.58L12.8202 2.58C12.4452 2.20808 11.9383 1.99958 11.4102 2H4.41016C3.87972 2 3.37102 2.21071 2.99594 2.58579C2.62087 2.96086 2.41016 3.46957 2.41016 4V11C2.40995 11.2639 2.46197 11.5253 2.56323 11.769C2.66449 12.0127 2.81299 12.2339 3.00016 12.42L3.41016 12.82C4.04775 12.4382 4.75472 12.1867 5.49016 12.08L4.41016 11V4H11.4102L20.4102 13L13.4102 20L12.3302 18.92C12.2247 19.6558 11.9731 20.363 11.5902 21L12.0002 21.41C12.3735 21.7856 12.8806 21.9978 13.4102 22C13.9397 21.9978 14.4468 21.7856 14.8202 21.41L21.8202 14.41C22.1957 14.0367 22.4079 13.5296 22.4102 13C22.4104 12.7361 22.3583 12.4747 22.2571 12.231C22.1558 11.9873 22.0073 11.7661 21.8202 11.58ZM6.91016 5C6.61348 5 6.32348 5.08797 6.0768 5.2528C5.83013 5.41762 5.63787 5.65189 5.52434 5.92598C5.41081 6.20006 5.3811 6.50166 5.43898 6.79264C5.49686 7.08361 5.63972 7.35088 5.8495 7.56066C6.05928 7.77044 6.32655 7.9133 6.61752 7.97118C6.90849 8.02906 7.21009 7.99935 7.48418 7.88582C7.75827 7.77229 7.99254 7.58003 8.15736 7.33336C8.32218 7.08668 8.41016 6.79667 8.41016 6.5C8.41016 6.10218 8.25212 5.72064 7.97082 5.43934C7.68951 5.15804 7.30798 5 6.91016 5ZM8.53016 21.54L6.41016 19.41L4.29016 21.54L2.87016 20.12L5.00016 18L2.87016 15.88L4.29016 14.46L6.41016 16.59L8.53016 14.46L9.95016 15.88L7.82016 18L9.95016 20.12L8.53016 21.54Z" fill="black"/>
</g>
</svg>
