<svg width="25" height="24" viewBox="0 0 25 24" fill="none" xmlns="http://www.w3.org/2000/svg">
<g id="485">
<path id="Vector" d="M21.8202 11.58L12.8202 2.58C12.4502 2.21 11.9402 2 11.4102 2H4.41016C3.87972 2 3.37102 2.21071 2.99594 2.58579C2.62087 2.96086 2.41016 3.46957 2.41016 4V11C2.41016 11.53 2.62016 12.04 3.00016 12.41L3.41016 12.81C4.31016 12.27 5.35016 12 6.41016 12C8.00146 12 9.52758 12.6321 10.6528 13.7574C11.778 14.8826 12.4102 16.4087 12.4102 18C12.4102 19.06 12.1302 20.09 11.5902 21L11.9902 21.4C12.3602 21.78 12.8802 22 13.4102 22C13.9402 22 14.4502 21.79 14.8202 21.41L21.8202 14.41C22.2002 14.04 22.4102 13.53 22.4102 13C22.4102 12.47 22.2002 11.96 21.8202 11.58ZM5.91016 7C5.51233 7 5.1308 6.84196 4.8495 6.56066C4.56819 6.27936 4.41016 5.89782 4.41016 5.5C4.41016 5.10218 4.56819 4.72064 4.8495 4.43934C5.1308 4.15804 5.51233 4 5.91016 4C6.30798 4 6.68951 4.15804 6.97082 4.43934C7.25212 4.72064 7.41016 5.10218 7.41016 5.5C7.41016 5.89782 7.25212 6.27936 6.97082 6.56066C6.68951 6.84196 6.30798 7 5.91016 7ZM8.53016 21.54L6.41016 19.41L4.29016 21.54L2.87016 20.12L5.00016 18L2.87016 15.88L4.28016 14.47L6.41016 16.59L8.53016 14.47L9.94016 15.88L7.82016 18L9.94016 20.12L8.53016 21.54Z" fill="black"/>
</g>
</svg>
