<svg width="25" height="24" viewBox="0 0 25 24" fill="none" xmlns="http://www.w3.org/2000/svg">
<g id="486">
<path id="Vector" d="M6.91406 5C6.61739 5 6.32738 5.08797 6.08071 5.2528C5.83403 5.41762 5.64178 5.65189 5.52824 5.92598C5.41471 6.20006 5.38501 6.50166 5.44289 6.79264C5.50076 7.08361 5.64362 7.35088 5.8534 7.56066C6.06318 7.77044 6.33046 7.9133 6.62143 7.97118C6.9124 8.02906 7.214 7.99935 7.48809 7.88582C7.76218 7.77229 7.99645 7.58003 8.16127 7.33336C8.32609 7.08668 8.41406 6.79667 8.41406 6.5C8.41406 6.10218 8.25603 5.72064 7.97472 5.43934C7.69342 5.15804 7.31189 5 6.91406 5ZM6.91406 5C6.61739 5 6.32738 5.08797 6.08071 5.2528C5.83403 5.41762 5.64178 5.65189 5.52824 5.92598C5.41471 6.20006 5.38501 6.50166 5.44289 6.79264C5.50076 7.08361 5.64362 7.35088 5.8534 7.56066C6.06318 7.77044 6.33046 7.9133 6.62143 7.97118C6.9124 8.02906 7.214 7.99935 7.48809 7.88582C7.76218 7.77229 7.99645 7.58003 8.16127 7.33336C8.32609 7.08668 8.41406 6.79667 8.41406 6.5C8.41406 6.10218 8.25603 5.72064 7.97472 5.43934C7.69342 5.15804 7.31189 5 6.91406 5ZM21.8241 11.58L12.8241 2.58C12.4491 2.20808 11.9422 1.99958 11.4141 2H4.41406C3.88363 2 3.37492 2.21071 2.99985 2.58579C2.62478 2.96086 2.41406 3.46957 2.41406 4V11C2.41385 11.2639 2.46588 11.5253 2.56714 11.769C2.6684 12.0127 2.81689 12.2339 3.00406 12.42L3.41406 12.82C4.05165 12.4382 4.75862 12.1867 5.49406 12.08L4.41406 11V4H11.4141L20.4141 13L13.4141 20L12.3341 18.92C12.2286 19.6558 11.977 20.363 11.5941 21L12.0041 21.41C12.3774 21.7856 12.8845 21.9978 13.4141 22C13.9436 21.9978 14.4507 21.7856 14.8241 21.41L21.8241 14.41C22.1997 14.0367 22.4118 13.5296 22.4141 13C22.4143 12.7361 22.3622 12.4747 22.261 12.231C22.1597 11.9873 22.0112 11.7661 21.8241 11.58ZM6.91406 5C6.61739 5 6.32738 5.08797 6.08071 5.2528C5.83403 5.41762 5.64178 5.65189 5.52824 5.92598C5.41471 6.20006 5.38501 6.50166 5.44289 6.79264C5.50076 7.08361 5.64362 7.35088 5.8534 7.56066C6.06318 7.77044 6.33046 7.9133 6.62143 7.97118C6.9124 8.02906 7.214 7.99935 7.48809 7.88582C7.76218 7.77229 7.99645 7.58003 8.16127 7.33336C8.32609 7.08668 8.41406 6.79667 8.41406 6.5C8.41406 6.10218 8.25603 5.72064 7.97472 5.43934C7.69342 5.15804 7.31189 5 6.91406 5ZM10.4141 19H7.41406V22H5.41406V19H2.41406V17H5.41406V14H7.41406V17H10.4141V19Z" fill="black"/>
</g>
</svg>
