<svg width="25" height="24" viewBox="0 0 25 24" fill="none" xmlns="http://www.w3.org/2000/svg">
<g id="487">
<path id="Vector" d="M21.8241 11.58L12.8241 2.58C12.4541 2.21 11.9441 2 11.4141 2H4.41406C3.88363 2 3.37492 2.21071 2.99985 2.58579C2.62478 2.96086 2.41406 3.46957 2.41406 4V11C2.41406 11.53 2.62406 12.04 3.00406 12.41L3.41406 12.81C4.31406 12.27 5.35406 12 6.41406 12C8.00536 12 9.53148 12.6321 10.6567 13.7574C11.7819 14.8826 12.4141 16.4087 12.4141 18C12.4141 19.06 12.1341 20.09 11.5941 21L11.9941 21.4C12.3641 21.78 12.8841 22 13.4141 22C13.9441 22 14.4541 21.79 14.8241 21.41L21.8241 14.41C22.2041 14.04 22.4141 13.53 22.4141 13C22.4141 12.47 22.2041 11.96 21.8241 11.58ZM5.91406 7C5.51624 7 5.13471 6.84196 4.8534 6.56066C4.5721 6.27936 4.41406 5.89782 4.41406 5.5C4.41406 5.10218 4.5721 4.72064 4.8534 4.43934C5.13471 4.15804 5.51624 4 5.91406 4C6.31189 4 6.69342 4.15804 6.97472 4.43934C7.25603 4.72064 7.41406 5.10218 7.41406 5.5C7.41406 5.89782 7.25603 6.27936 6.97472 6.56066C6.69342 6.84196 6.31189 7 5.91406 7ZM10.4141 19H7.41406V22H5.41406V19H2.41406V17H5.41406V14H7.41406V17H10.4141V19Z" fill="black"/>
</g>
</svg>
