<svg width="25" height="24" viewBox="0 0 25 24" fill="none" xmlns="http://www.w3.org/2000/svg">
<g id="488">
<path id="Vector" d="M22.4141 13C22.4141 13.53 22.2041 14.04 21.8241 14.41L21.4141 14.83C21.3241 11.97 19.2541 9.62 16.5241 9.11L11.4141 4H4.41406V11L9.52406 16.11C10.0341 18.84 12.3841 20.91 15.2441 21L14.8241 21.41C14.4541 21.79 13.9441 22 13.4141 22C12.8841 22 12.3841 21.79 12.0041 21.42L3.00406 12.42C2.62406 12.04 2.41406 11.53 2.41406 11V4C2.41406 2.9 3.31406 2 4.41406 2H11.4141C11.9441 2 12.4541 2.21 12.8241 2.58L21.8241 11.58C22.2041 11.96 22.4141 12.47 22.4141 13ZM5.41406 6.5C5.41406 7.33 6.08406 8 6.91406 8C7.74406 8 8.41406 7.33 8.41406 6.5C8.41406 5.67 7.74406 5 6.91406 5C6.08406 5 5.41406 5.67 5.41406 6.5ZM15.5241 10.61C13.0241 10.61 11.0241 12.61 11.0241 15.11C11.0241 17.61 13.0241 19.61 15.5241 19.61C16.4141 19.61 17.2141 19.36 17.9141 18.93L21.0241 22L22.4141 20.61L19.3341 17.5C19.7741 16.82 20.0241 16 20.0241 15.11C20.0241 12.61 18.0241 10.61 15.5241 10.61ZM15.5241 12.61C16.9141 12.61 18.0241 13.73 18.0241 15.11C18.0241 16.49 16.9141 17.61 15.5241 17.61C14.1341 17.61 13.0241 16.5 13.0241 15.11C13.0241 13.72 14.1441 12.61 15.5241 12.61Z" fill="black"/>
</g>
</svg>
