<svg width="25" height="24" viewBox="0 0 25 24" fill="none" xmlns="http://www.w3.org/2000/svg">
<g id="489">
<path id="Vector" d="M21.8241 11.58L12.8241 2.58C12.4491 2.20808 11.9422 1.99958 11.4141 2H4.41406C3.88363 2 3.37492 2.21071 2.99985 2.58579C2.62478 2.96086 2.41406 3.46957 2.41406 4V11C2.4163 11.5296 2.62847 12.0367 3.00406 12.41L12.0041 21.41C12.3774 21.7856 12.8845 21.9978 13.4141 22C13.9436 21.9978 14.4507 21.7856 14.8241 21.41L21.8241 14.41C22.1997 14.0367 22.4118 13.5296 22.4141 13C22.4143 12.7361 22.3622 12.4747 22.261 12.231C22.1597 11.9873 22.0112 11.7661 21.8241 11.58ZM6.91406 8C6.61739 8 6.32738 7.91203 6.08071 7.7472C5.83403 7.58238 5.64177 7.34811 5.52824 7.07403C5.41471 6.79994 5.38501 6.49834 5.44288 6.20737C5.50076 5.91639 5.64362 5.64912 5.8534 5.43934C6.06318 5.22956 6.33046 5.0867 6.62143 5.02882C6.9124 4.97094 7.214 5.00065 7.48809 5.11418C7.76218 5.22771 7.99644 5.41997 8.16127 5.66665C8.32609 5.91332 8.41406 6.20333 8.41406 6.5C8.41406 6.89783 8.25603 7.27936 7.97472 7.56066C7.69342 7.84197 7.31189 8 6.91406 8ZM12.0041 15.41L8.00406 11.41L9.41406 10L13.4141 14M16.0041 14.41L10.5041 8.91L11.9141 7.5L17.4141 13L16.0041 14.41Z" fill="black"/>
</g>
</svg>
