<svg width="25" height="24" viewBox="0 0 25 24" fill="none" xmlns="http://www.w3.org/2000/svg">
<g id="490">
<path id="Vector" d="M21.8141 11.6L12.8141 2.6C12.4141 2.2 11.9141 2 11.4141 2H4.41406C3.31406 2 2.41406 2.9 2.41406 4V11C2.41406 11.5 2.61406 12 3.01406 12.4L12.0141 21.4C12.4141 21.8 12.9141 22 13.4141 22C13.9141 22 14.4141 21.8 14.8141 21.4L21.8141 14.4C22.2141 14 22.4141 13.5 22.4141 13C22.4141 12.5 22.2141 12 21.8141 11.6ZM13.4141 20L4.41406 11V4H11.4141L20.4141 13M6.91406 5C7.71406 5 8.41406 5.7 8.41406 6.5C8.41406 7.3 7.71406 8 6.91406 8C6.11406 8 5.41406 7.3 5.41406 6.5C5.41406 5.7 6.11406 5 6.91406 5ZM10.5141 8.9L11.9141 7.5L17.4141 13L16.0141 14.4L10.5141 8.9ZM8.01406 11.4L9.41406 10L13.4141 14L12.0141 15.4L8.01406 11.4Z" fill="black"/>
</g>
</svg>
