<svg width="25" height="24" viewBox="0 0 25 24" fill="none" xmlns="http://www.w3.org/2000/svg">
<g id="491">
<path id="Vector" d="M12.4141 6C9.74406 6 8.08406 7.33 7.41406 10C8.41406 8.67 9.58406 8.17 10.9141 8.5C11.6741 8.69 12.2241 9.24 12.8241 9.85C13.8041 10.85 14.9141 12 17.4141 12C20.0841 12 21.7441 10.67 22.4141 8C21.4141 9.33 20.2441 9.83 18.9141 9.5C18.1541 9.31 17.6141 8.76 17.0041 8.15C16.0241 7.15 14.9141 6 12.4141 6ZM7.41406 12C4.74406 12 3.08406 13.33 2.41406 16C3.41406 14.67 4.58406 14.17 5.91406 14.5C6.67406 14.69 7.21406 15.24 7.82406 15.85C8.80406 16.85 9.91406 18 12.4141 18C15.0841 18 16.7441 16.67 17.4141 14C16.4141 15.33 15.2441 15.83 13.9141 15.5C13.1541 15.31 12.6141 14.76 12.0041 14.15C11.0241 13.15 9.91406 12 7.41406 12Z" fill="black"/>
</g>
</svg>
