<svg width="25" height="24" viewBox="0 0 25 24" fill="none" xmlns="http://www.w3.org/2000/svg">
<g id="493">
<path id="Vector" d="M20.4141 2H4.41406C3.31406 2 2.41406 2.9 2.41406 4V20C2.41406 21.1 3.31406 22 4.41406 22H20.4141C21.5141 22 22.4141 21.1 22.4141 20V4C22.4141 2.9 21.5141 2 20.4141 2ZM19.0041 4L12.4141 10.59L5.82406 4H19.0041ZM13.8241 12L16.9141 8.91L20.0041 12L16.9141 15.09L13.8241 12ZM15.0041 16H9.82406L12.4141 13.41L15.0041 16ZM4.41406 5.41L11.0041 12L4.41406 18.59V5.41ZM12.0041 20H5.82406L7.82406 18H14.0041L12.0041 20ZM20.4141 20H14.8241L20.4141 14.41V20ZM20.4141 9.59L18.3241 7.5L20.4141 5.41V9.59Z" fill="black"/>
</g>
</svg>
