<svg width="25" height="24" viewBox="0 0 25 24" fill="none" xmlns="http://www.w3.org/2000/svg">
<g id="498">
<path id="Vector" d="M20.4141 12H4.41406V11H6.41406L7.41406 6H12.4141L13.4141 11H20.4141V12ZM13.6341 7L14.0341 9H22.4141V7H13.6341ZM22.4141 16C22.4141 16.7956 22.098 17.5587 21.5354 18.1213C20.9728 18.6839 20.2097 19 19.4141 19H5.41406C4.61841 19 3.85535 18.6839 3.29274 18.1213C2.73013 17.5587 2.41406 16.7956 2.41406 16C2.41406 15.2044 2.73013 14.4413 3.29274 13.8787C3.85535 13.3161 4.61841 13 5.41406 13H19.4141C20.2097 13 20.9728 13.3161 21.5354 13.8787C22.098 14.4413 22.4141 15.2044 22.4141 16ZM6.41406 16C6.41406 15.7348 6.30871 15.4804 6.12117 15.2929C5.93363 15.1054 5.67928 15 5.41406 15C5.14885 15 4.89449 15.1054 4.70696 15.2929C4.51942 15.4804 4.41406 15.7348 4.41406 16C4.41406 16.2652 4.51942 16.5196 4.70696 16.7071C4.89449 16.8946 5.14885 17 5.41406 17C5.67928 17 5.93363 16.8946 6.12117 16.7071C6.30871 16.5196 6.41406 16.2652 6.41406 16ZM13.4141 16C13.4141 15.7348 13.3087 15.4804 13.1212 15.2929C12.9336 15.1054 12.6793 15 12.4141 15C12.1488 15 11.8945 15.1054 11.707 15.2929C11.5194 15.4804 11.4141 15.7348 11.4141 16C11.4141 16.2652 11.5194 16.5196 11.707 16.7071C11.8945 16.8946 12.1488 17 12.4141 17C12.6793 17 12.9336 16.8946 13.1212 16.7071C13.3087 16.5196 13.4141 16.2652 13.4141 16ZM20.4141 16C20.4141 15.7348 20.3087 15.4804 20.1212 15.2929C19.9336 15.1054 19.6793 15 19.4141 15C19.1488 15 18.8945 15.1054 18.707 15.2929C18.5194 15.4804 18.4141 15.7348 18.4141 16C18.4141 16.2652 18.5194 16.5196 18.707 16.7071C18.8945 16.8946 19.1488 17 19.4141 17C19.6793 17 19.9336 16.8946 20.1212 16.7071C20.3087 16.5196 20.4141 16.2652 20.4141 16Z" fill="black"/>
</g>
</svg>
