<svg width="25" height="24" viewBox="0 0 25 24" fill="none" xmlns="http://www.w3.org/2000/svg">
<g id="499">
<path id="Vector" d="M20.4141 8H15.4141V14H2.41406V17H3.41406C3.41406 18.7 4.71406 20 6.41406 20C8.11406 20 9.41406 18.7 9.41406 17H15.4141C15.4141 18.7 16.7141 20 18.4141 20C20.1141 20 21.4141 18.7 21.4141 17H23.4141V12L20.4141 8ZM6.41406 18.5C5.61406 18.5 4.91406 17.8 4.91406 17C4.91406 16.2 5.61406 15.5 6.41406 15.5C7.21406 15.5 7.91406 16.2 7.91406 17C7.91406 17.8 7.21406 18.5 6.41406 18.5ZM18.4141 18.5C17.6141 18.5 16.9141 17.8 16.9141 17C16.9141 16.2 17.6141 15.5 18.4141 15.5C19.2141 15.5 19.9141 16.2 19.9141 17C19.9141 17.8 19.2141 18.5 18.4141 18.5ZM17.4141 12V9.5H19.9141L21.9141 12H17.4141ZM14.4141 9.5C14.4141 11.4 12.8141 13 10.9141 13H4.91406C3.01406 13 1.41406 11.4 1.41406 9.5C1.41406 7.6 3.01406 6 4.91406 6H5.41406V5H4.41406V4H8.41406V5H7.41406V6H10.9141C12.8141 6 14.4141 7.6 14.4141 9.5Z" fill="black"/>
</g>
</svg>
