<svg width="25" height="24" viewBox="0 0 25 24" fill="none" xmlns="http://www.w3.org/2000/svg">
<g id="500">
<path id="Vector" d="M12.4141 10C13.5241 10 14.4141 10.9 14.4141 12C14.4141 13.11 13.5241 14 12.4141 14C11.3141 14 10.4141 13.11 10.4141 12C10.4141 10.9 11.3141 10 12.4141 10ZM5.41406 3H19.4141C20.5241 3 21.4141 3.9 21.4141 5V17H17.3141C18.6141 15.73 19.4141 13.96 19.4141 12C19.4141 8.13 16.2841 5 12.4141 5C8.54406 5 5.41406 8.13 5.41406 12C5.41406 15.87 8.54406 19 12.4141 19H21.4141C21.4141 20.11 20.5241 21 19.4141 21H5.41406C4.31406 21 3.41406 20.11 3.41406 19V5C3.41406 3.9 4.31406 3 5.41406 3Z" fill="black"/>
</g>
</svg>
