<svg width="25" height="24" viewBox="0 0 25 24" fill="none" xmlns="http://www.w3.org/2000/svg">
<g id="501">
<path id="Vector" d="M9.41406 5C11.2706 5 13.0511 5.7375 14.3638 7.05025C15.6766 8.36301 16.4141 10.1435 16.4141 12H17.4141V15H16.4141V19H9.41406C7.55755 19 5.77707 18.2625 4.46431 16.9497C3.15156 15.637 2.41406 13.8565 2.41406 12C2.41406 10.1435 3.15156 8.36301 4.46431 7.05025C5.77707 5.7375 7.55755 5 9.41406 5ZM9.41406 8C8.3532 8 7.33578 8.42143 6.58564 9.17157C5.83549 9.92172 5.41406 10.9391 5.41406 12C5.41406 13.0609 5.83549 14.0783 6.58564 14.8284C7.33578 15.5786 8.3532 16 9.41406 16C10.4749 16 11.4923 15.5786 12.2425 14.8284C12.9926 14.0783 13.4141 13.0609 13.4141 12C13.4141 10.9391 12.9926 9.92172 12.2425 9.17157C11.4923 8.42143 10.4749 8 9.41406 8ZM17.4141 17H22.4141V19V21H20.4141V19H17.4141V17Z" fill="black"/>
</g>
</svg>
