<svg width="25" height="24" viewBox="0 0 25 24" fill="none" xmlns="http://www.w3.org/2000/svg">
<g id="502">
<path id="Vector" d="M11.4141 2V4.07C7.79406 4.53 4.94406 7.38 4.48406 11H2.41406V13H4.48406C4.94406 16.62 7.79406 19.47 11.4141 19.93V22H13.4141V19.93C17.0341 19.47 19.8841 16.62 20.3441 13H22.4141V11H20.3441C19.8841 7.38 17.0341 4.53 13.4141 4.07V2M11.4141 6.08V8H13.4141V6.09C15.9141 6.5 17.9141 8.5 18.3341 11H16.4141V13H18.3241C17.9141 15.5 15.9141 17.5 13.4141 17.92V16H11.4141V17.91C8.91406 17.5 6.91406 15.5 6.49406 13H8.41406V11H6.50406C6.91406 8.5 8.91406 6.5 11.4141 6.08ZM12.4141 11C12.1488 11 11.8945 11.1054 11.707 11.2929C11.5194 11.4804 11.4141 11.7348 11.4141 12C11.4141 12.2652 11.5194 12.5196 11.707 12.7071C11.8945 12.8946 12.1488 13 12.4141 13C12.6793 13 12.9336 12.8946 13.1212 12.7071C13.3087 12.5196 13.4141 12.2652 13.4141 12C13.4141 11.7348 13.3087 11.4804 13.1212 11.2929C12.9336 11.1054 12.6793 11 12.4141 11Z" fill="black"/>
</g>
</svg>
