<svg width="25" height="24" viewBox="0 0 25 24" fill="none" xmlns="http://www.w3.org/2000/svg">
<g id="503">
<path id="Vector" d="M4.41406 19H20.4141V21H4.41406V19ZM21.8141 3.6C21.4141 3.2 21.0141 3 20.4141 3H4.41406V13C4.41406 14.1 4.81406 15 5.61406 15.8C6.41406 16.6 7.31406 17 8.41406 17H14.4141C15.5141 17 16.4141 16.6 17.2141 15.8C18.0141 15 18.4141 14.1 18.4141 13V10H20.4141C21.0141 10 21.4141 9.8 21.8141 9.4C22.2141 9 22.4141 8.6 22.4141 8V5C22.4141 4.5 22.2141 4 21.8141 3.6ZM16.4141 5V8V10V13C16.4141 13.6 16.2141 14 15.8141 14.4C15.4141 14.8 15.0141 15 14.4141 15H8.41406C7.81406 15 7.41406 14.8 7.01406 14.4C6.61406 14 6.41406 13.5 6.41406 13V5H10.4141V6.4L8.61406 7.8C8.41406 7.9 8.41406 8.1 8.41406 8.2V12.5C8.41406 12.8 8.61406 13 8.91406 13H12.9141C13.2141 13 13.4141 12.8 13.4141 12.5V8.2C13.4141 8 13.3141 7.9 13.2141 7.8L11.4141 6.4V5H16.4141ZM20.4141 8H18.4141V5H20.4141V8Z" fill="black"/>
</g>
</svg>
