<svg width="25" height="24" viewBox="0 0 25 24" fill="none" xmlns="http://www.w3.org/2000/svg">
<g id="504">
<path id="Vector" d="M4.41406 19H20.4141V21H4.41406V19ZM20.4141 8V5H18.4141V8H20.4141ZM20.4141 3C21.0141 3 21.4141 3.2 21.8141 3.6C22.2141 4 22.4141 4.5 22.4141 5V8C22.4141 8.6 22.2141 9 21.8141 9.4C21.4141 9.8 21.0141 10 20.4141 10H18.4141V13C18.4141 14.1 18.0141 15 17.2141 15.8C16.4141 16.6 15.5141 17 14.4141 17H8.41406C7.31406 17 6.41406 16.6 5.61406 15.8C4.81406 15 4.41406 14.1 4.41406 13V3H9.41406V5.4L7.61406 6.8C7.51406 6.9 7.41406 7.1 7.41406 7.2V11.5C7.41406 11.8 7.61406 12 7.91406 12H11.9141C12.2141 12 12.4141 11.8 12.4141 11.5V7.2C12.4141 7 12.3141 6.9 12.2141 6.8L10.4141 5.4V3H20.4141Z" fill="black"/>
</g>
</svg>
