<svg width="25" height="24" viewBox="0 0 25 24" fill="none" xmlns="http://www.w3.org/2000/svg">
<g id="505">
<path id="Vector" d="M5.41406 11L6.91406 6.5H17.9141L19.4141 11M17.9141 16C17.5162 16 17.1347 15.842 16.8534 15.5607C16.5721 15.2794 16.4141 14.8978 16.4141 14.5C16.4141 14.1022 16.5721 13.7206 16.8534 13.4393C17.1347 13.158 17.5162 13 17.9141 13C18.3119 13 18.6934 13.158 18.9747 13.4393C19.256 13.7206 19.4141 14.1022 19.4141 14.5C19.4141 14.8978 19.256 15.2794 18.9747 15.5607C18.6934 15.842 18.3119 16 17.9141 16ZM6.91406 16C6.51624 16 6.13471 15.842 5.8534 15.5607C5.5721 15.2794 5.41406 14.8978 5.41406 14.5C5.41406 14.1022 5.5721 13.7206 5.8534 13.4393C6.13471 13.158 6.51624 13 6.91406 13C7.31189 13 7.69342 13.158 7.97472 13.4393C8.25603 13.7206 8.41406 14.1022 8.41406 14.5C8.41406 14.8978 8.25603 15.2794 7.97472 15.5607C7.69342 15.842 7.31189 16 6.91406 16ZM19.3341 6C19.1341 5.42 18.5741 5 17.9141 5H15.4141V3H9.41406V5H6.91406C6.25406 5 5.69406 5.42 5.49406 6L3.41406 12V20C3.41406 20.2652 3.51942 20.5196 3.70696 20.7071C3.89449 20.8946 4.14885 21 4.41406 21H5.41406C5.67928 21 5.93363 20.8946 6.12117 20.7071C6.30871 20.5196 6.41406 20.2652 6.41406 20V19H18.4141V20C18.4141 20.2652 18.5194 20.5196 18.707 20.7071C18.8945 20.8946 19.1488 21 19.4141 21H20.4141C20.6793 21 20.9336 20.8946 21.1212 20.7071C21.3087 20.5196 21.4141 20.2652 21.4141 20V12L19.3341 6Z" fill="black"/>
</g>
</svg>
