<svg width="25" height="24" viewBox="0 0 25 24" fill="none" xmlns="http://www.w3.org/2000/svg">
<g id="506">
<path id="Vector" d="M22.4941 11.04H20.4941V4H13.4641V2H11.4541V4H4.41406V11.04H2.41406V13.05H4.41406V20.08H11.4541V22.08H13.4641V20.08H20.4941V13.05H22.4941V11.04ZM18.4841 18.07H13.4641V16.06H11.4541V18.07H6.41406V13.05H8.44406V11.04H6.41406V6H11.4541V8.03H13.4641V6H18.4841V11.04H16.4741V13.05H18.4841V18.07ZM13.4641 12.05C13.4641 12.3152 13.3587 12.5696 13.1712 12.7571C12.9836 12.9446 12.7293 13.05 12.4641 13.05C11.9141 13.05 11.4541 12.6 11.4541 12.05C11.4541 11.5 11.9141 11.04 12.4641 11.04C13.0141 11.04 13.4641 11.5 13.4641 12.05Z" fill="black"/>
</g>
</svg>
