<svg width="25" height="24" viewBox="0 0 25 24" fill="none" xmlns="http://www.w3.org/2000/svg">
<g id="507">
<path id="Vector" d="M21.3641 11H22.9141V13H21.3641C20.9141 17.17 17.5841 20.5 13.4141 20.95V22.5H11.4141V20.95C7.24406 20.5 3.91406 17.17 3.46406 13H1.91406V11H3.46406C3.91406 6.83 7.24406 3.5 11.4141 3.05V1.5H13.4141V3.05C17.5841 3.5 20.9141 6.83 21.3641 11ZM5.48406 11H6.91406V13H5.48406C5.91406 16.07 8.34406 18.5 11.4141 18.93V17.5H13.4141V18.93C16.4841 18.5 18.9141 16.07 19.3441 13H17.9141V11H19.3441C18.9141 7.93 16.4841 5.5 13.4141 5.07V6.5H11.4141V5.07C8.34406 5.5 5.91406 7.93 5.48406 11ZM16.4141 16H8.41406V15C8.41406 13.67 11.0841 13 12.4141 13C13.7441 13 16.4141 13.67 16.4141 15V16ZM12.4141 8C12.9445 8 13.4532 8.21071 13.8283 8.58579C14.2033 8.96086 14.4141 9.46957 14.4141 10C14.4141 10.5304 14.2033 11.0391 13.8283 11.4142C13.4532 11.7893 12.9445 12 12.4141 12C11.8836 12 11.3749 11.7893 10.9998 11.4142C10.6248 11.0391 10.4141 10.5304 10.4141 10C10.4141 9.46957 10.6248 8.96086 10.9998 8.58579C11.3749 8.21071 11.8836 8 12.4141 8Z" fill="black"/>
</g>
</svg>
