<svg width="25" height="24" viewBox="0 0 25 24" fill="none" xmlns="http://www.w3.org/2000/svg">
<g id="508">
<path id="Vector" d="M10.4541 9.2L9.71406 11H15.1641L14.4141 9.2L19.9641 12L14.4141 14.8L15.1641 13H9.71406L10.4541 14.8L4.91406 12L10.4541 9.2ZM21.2441 22H3.58406C2.94406 22 2.41406 21.5 2.41406 20.83V3.17C2.41406 2.53 2.94406 2 3.58406 2H21.2441C21.9141 2 22.4141 2.53 22.4141 3.17V20.83C22.4141 21.47 21.9141 22 21.2441 22ZM12.3441 3.76C7.82406 3.82 4.19406 7.5 4.17406 12C4.13406 16.5 7.76406 20.2 12.2741 20.24H12.4141C16.9441 20.18 20.5941 16.53 20.6541 12C20.7241 7.5 17.1541 3.83 12.6741 3.76C12.5641 3.75 12.4541 3.76 12.3441 3.76Z" fill="black"/>
</g>
</svg>
