<svg width="25" height="24" viewBox="0 0 25 24" fill="none" xmlns="http://www.w3.org/2000/svg">
<g id="509">
<path id="Vector" d="M16.1641 19.13C15.3341 19.13 14.6641 18.29 14.6641 17.25C14.6641 16.22 15.3341 15.38 16.1641 15.38C16.9941 15.38 17.6641 16.22 17.6641 17.25C17.6641 18.29 16.9941 19.13 16.1641 19.13ZM12.4141 11.25C11.1741 11.25 10.1641 10.41 10.1641 9.38C10.1641 8.34 11.1741 7.5 12.4141 7.5C13.6541 7.5 14.6641 8.34 14.6641 9.38C14.6641 10.41 13.6541 11.25 12.4141 11.25ZM8.66406 19.13C7.83406 19.13 7.16406 18.29 7.16406 17.25C7.16406 16.22 7.83406 15.38 8.66406 15.38C9.49406 15.38 10.1641 16.22 10.1641 17.25C10.1641 18.29 9.49406 19.13 8.66406 19.13ZM12.4141 8.25C12.8241 8.25 13.1641 8.59 13.1641 9C13.1641 9.41 12.8241 9.75 12.4141 9.75C12.0041 9.75 11.6641 9.41 11.6641 9C11.6641 8.59 12.0041 8.25 12.4141 8.25ZM19.1641 12C18.8441 12 18.5341 12.07 18.2541 12.2C17.7741 11.59 17.1241 11.07 16.3441 10.67C16.9141 9.87 17.2541 8.9 17.2541 7.85C17.2541 7.83 17.2541 7.81 17.2541 7.79C18.3441 7.56 19.1641 6.59 19.1641 5.42C19.1641 4.09 18.0741 3 16.7441 3C16.0541 3 15.4141 3.29 14.9941 3.75C14.2441 3.28 13.3641 3 12.4141 3C11.4641 3 10.5741 3.28 9.83406 3.75C9.41406 3.29 8.77406 3 8.08406 3C6.75406 3 5.66406 4.09 5.66406 5.42C5.66406 6.58 6.48406 7.55 7.56406 7.79C7.56406 7.81 7.56406 7.83 7.56406 7.85C7.56406 8.9 7.91406 9.88 8.47406 10.67C7.70406 11.07 7.05406 11.59 6.57406 12.2C6.29406 12.07 5.98406 12 5.66406 12C4.41406 12 3.41406 13 3.41406 14.25C3.41406 15.5 4.41406 16.5 5.66406 16.5C5.68406 16.5 5.70406 16.5 5.72406 16.5C5.68406 16.74 5.66406 17 5.66406 17.25C5.66406 19.32 7.00406 21 8.66406 21C9.67406 21 10.5641 20.37 11.1141 19.41C11.5341 19.47 11.9641 19.5 12.4141 19.5C12.8641 19.5 13.2941 19.47 13.7141 19.41C14.2641 20.37 15.1541 21 16.1641 21C17.8241 21 19.1641 19.32 19.1641 17.25C19.1641 17 19.1441 16.74 19.1041 16.5C19.1241 16.5 19.1441 16.5 19.1641 16.5C20.4141 16.5 21.4141 15.5 21.4141 14.25C21.4141 13 20.4141 12 19.1641 12Z" fill="black"/>
</g>
</svg>
