<svg width="25" height="24" viewBox="0 0 25 24" fill="none" xmlns="http://www.w3.org/2000/svg">
<g id="510">
<path id="Vector" d="M22.3156 8.9L20.6156 9.9L16.6156 3L18.3156 2L22.3156 8.9ZM10.2156 7.9L13.2156 13.1L19.3156 9.6L16.3156 4.4L10.2156 7.9ZM11.8156 12.7L9.81563 9.2L5.51563 11.7L7.51562 15.2L11.8156 12.7ZM2.51562 14.6L3.51562 16.3L6.11563 14.8L5.11563 13.1L2.51562 14.6ZM12.5156 14L12.2156 13.6L7.91564 16.1L8.21563 16.5C8.41563 16.8 8.71563 17.1 9.01563 17.3L7.41564 22H9.41564L10.8156 17.7H10.9156L12.4156 22H14.4156L12.5156 16.4C13.0156 15.7 13.0156 14.8 12.5156 14Z" fill="black"/>
</g>
</svg>
