<svg width="25" height="24" viewBox="0 0 25 24" fill="none" xmlns="http://www.w3.org/2000/svg">
<g id="511">
<path id="Vector" d="M21.4141 17H3.41406V5H21.4141M21.4141 3H3.41406C2.88363 3 2.37492 3.21071 1.99985 3.58579C1.62478 3.96086 1.41406 4.46957 1.41406 5V17C1.41406 17.5304 1.62478 18.0391 1.99985 18.4142C2.37492 18.7893 2.88363 19 3.41406 19H8.41406V21H16.4141V19H21.4141C21.9445 19 22.4532 18.7893 22.8283 18.4142C23.2033 18.0391 23.4141 17.5304 23.4141 17V5C23.4141 4.46957 23.2033 3.96086 22.8283 3.58579C22.4532 3.21071 21.9445 3 21.4141 3Z" fill="black"/>
</g>
</svg>
