<svg width="25" height="24" viewBox="0 0 25 24" fill="none" xmlns="http://www.w3.org/2000/svg">
<g id="512">
<g id="Group">
<path id="Vector" d="M3.41406 11H0.414062V9H3.41406V11ZM3.41406 14H0.414062V16H3.41406V14ZM5.41406 5.12L3.29406 3L1.87406 4.41L4.00406 6.54L5.41406 5.12ZM10.4141 5V2H8.41406V5H10.4141ZM24.4141 9H21.4141V11H24.4141V9ZM16.4141 5V2H14.4141V5H16.4141ZM20.8241 6.54L22.9541 4.42L21.5341 3L19.4141 5.12L20.8241 6.54ZM24.4141 14H21.4141V16H24.4141V14ZM19.4141 9V16C19.4141 17.1 18.5141 18 17.4141 18H15.4141V20H9.41406V18H7.41406C6.31406 18 5.41406 17.1 5.41406 16V9C5.41406 7.9 6.31406 7 7.41406 7H17.4141C18.5141 7 19.4141 7.9 19.4141 9ZM17.4141 9H7.41406V16H17.4141V9ZM19.4141 19.88L21.5341 22L22.9541 20.59L20.8241 18.47L19.4141 19.88ZM4.00406 18.46L1.88406 20.59L3.29406 22L5.41406 19.88L4.00406 18.46Z" fill="black"/>
</g>
</g>
</svg>
