<svg width="25" height="24" viewBox="0 0 25 24" fill="none" xmlns="http://www.w3.org/2000/svg">
<g id="513">
<g id="Group">
<path id="Vector" d="M0.914062 2.77L2.19406 1.5L21.4141 20.72L20.1441 22L17.1441 19H16.4141V21H8.41406V19H3.41406C2.88363 19 2.37492 18.7893 1.99985 18.4142C1.62478 18.0391 1.41406 17.5304 1.41406 17V5C1.41406 4.5 1.58406 4.07 1.87406 3.73L0.914062 2.77ZM21.4141 17V5H8.23406L6.23406 3H21.4141C21.9445 3 22.4532 3.21071 22.8283 3.58579C23.2033 3.96086 23.4141 4.46957 23.4141 5V17C23.4141 17.85 22.8641 18.59 22.1141 18.87L20.2341 17H21.4141ZM3.41406 17H15.1441L3.41406 5.27V17Z" fill="black"/>
</g>
</g>
</svg>
