<svg width="25" height="24" viewBox="0 0 25 24" fill="none" xmlns="http://www.w3.org/2000/svg">
<g id="514">
<path id="Vector" d="M21.4141 17V5H3.41406V17H21.4141ZM21.4141 3C21.9445 3 22.4532 3.21071 22.8283 3.58579C23.2033 3.96086 23.4141 4.46957 23.4141 5V17C23.4141 17.5304 23.2033 18.0391 22.8283 18.4142C22.4532 18.7893 21.9445 19 21.4141 19H16.4141V21H8.41406V19H3.41406C2.88363 19 2.37492 18.7893 1.99985 18.4142C1.62478 18.0391 1.41406 17.5304 1.41406 17V5C1.41406 4.46957 1.62478 3.96086 1.99985 3.58579C2.37492 3.21071 2.88363 3 3.41406 3H21.4141ZM5.41406 7H11.4141V11H5.41406V7ZM5.41406 13H11.4141V15H5.41406V13ZM13.4141 7H19.4141V9H13.4141V7ZM13.4141 11H19.4141V15H13.4141V11Z" fill="black"/>
</g>
</svg>
