<svg width="25" height="24" viewBox="0 0 25 24" fill="none" xmlns="http://www.w3.org/2000/svg">
<g id="515">
<path id="Vector" d="M2.41406 5.27L3.69406 4L21.4141 21.72L20.1441 23L18.1441 21H4.41406C3.30406 21 2.41406 20.11 2.41406 19V9C2.41406 8 3.17406 7.14 4.16406 7L2.41406 5.27ZM8.57406 3L12.4141 6.84L16.2541 3L17.6641 4.41L15.0741 7H20.4141C21.5241 7 22.4141 7.89 22.4141 9V19C22.4141 19.34 22.3341 19.66 22.1841 19.94L17.4141 15.18V9H11.2341L9.23406 7H9.75406L7.16406 4.41L8.57406 3ZM4.41406 9V19H16.1441L6.14406 9H4.41406ZM19.9141 9C19.6488 9 19.3945 9.10536 19.207 9.29289C19.0194 9.48043 18.9141 9.73478 18.9141 10C18.9141 10.2652 19.0194 10.5196 19.207 10.7071C19.3945 10.8946 19.6488 11 19.9141 11C20.1793 11 20.4336 10.8946 20.6212 10.7071C20.8087 10.5196 20.9141 10.2652 20.9141 10C20.9141 9.73478 20.8087 9.48043 20.6212 9.29289C20.4336 9.10536 20.1793 9 19.9141 9ZM19.9141 12C19.6488 12 19.3945 12.1054 19.207 12.2929C19.0194 12.4804 18.9141 12.7348 18.9141 13C18.9141 13.2652 19.0194 13.5196 19.207 13.7071C19.3945 13.8946 19.6488 14 19.9141 14C20.1793 14 20.4336 13.8946 20.6212 13.7071C20.8087 13.5196 20.9141 13.2652 20.9141 13C20.9141 12.7348 20.8087 12.4804 20.6212 12.2929C20.4336 12.1054 20.1793 12 19.9141 12Z" fill="black"/>
</g>
</svg>
