<svg width="25" height="24" viewBox="0 0 25 24" fill="none" xmlns="http://www.w3.org/2000/svg">
<g id="516">
<path id="Vector" d="M8.57406 3L7.16406 4.41L9.75406 7H4.41406C3.30406 7 2.41406 7.89 2.41406 9V19C2.41406 20.11 3.30406 21 4.41406 21H20.4141C21.5241 21 22.4141 20.11 22.4141 19V9C22.4141 7.89 21.5241 7 20.4141 7H15.0741L17.6641 4.41L16.2541 3L12.4141 6.84L8.57406 3ZM4.41406 9H17.4141V19H4.41406V9ZM19.9141 9C20.1793 9 20.4336 9.10536 20.6212 9.29289C20.8087 9.48043 20.9141 9.73478 20.9141 10C20.9141 10.2652 20.8087 10.5196 20.6212 10.7071C20.4336 10.8946 20.1793 11 19.9141 11C19.6488 11 19.3945 10.8946 19.207 10.7071C19.0194 10.5196 18.9141 10.2652 18.9141 10C18.9141 9.73478 19.0194 9.48043 19.207 9.29289C19.3945 9.10536 19.6488 9 19.9141 9ZM19.9141 12C20.1793 12 20.4336 12.1054 20.6212 12.2929C20.8087 12.4804 20.9141 12.7348 20.9141 13C20.9141 13.2652 20.8087 13.5196 20.6212 13.7071C20.4336 13.8946 20.1793 14 19.9141 14C19.6488 14 19.3945 13.8946 19.207 13.7071C19.0194 13.5196 18.9141 13.2652 18.9141 13C18.9141 12.7348 19.0194 12.4804 19.207 12.2929C19.3945 12.1054 19.6488 12 19.9141 12Z" fill="black"/>
</g>
</svg>
