<svg width="25" height="24" viewBox="0 0 25 24" fill="none" xmlns="http://www.w3.org/2000/svg">
<g id="517">
<path id="Vector" d="M5.41406 3H19.4141C19.9445 3 20.4532 3.21071 20.8283 3.58579C21.2033 3.96086 21.4141 4.46957 21.4141 5V19C21.4141 19.5304 21.2033 20.0391 20.8283 20.4142C20.4532 20.7893 19.9445 21 19.4141 21H5.41406C4.88363 21 4.37492 20.7893 3.99985 20.4142C3.62478 20.0391 3.41406 19.5304 3.41406 19V5C3.41406 4.46957 3.62478 3.96086 3.99985 3.58579C4.37492 3.21071 4.88363 3 5.41406 3ZM16.4141 16L19.4141 8H16.9141L15.4141 12.5L13.9141 8H5.41406V10H8.41406V16H10.4141V10H12.1841L14.4141 16H16.4141Z" fill="black"/>
</g>
</svg>
