<svg width="25" height="24" viewBox="0 0 25 24" fill="none" xmlns="http://www.w3.org/2000/svg">
<g id="520">
<path id="Vector" d="M21.4141 17H3.41406V5H21.4141M21.4141 3H3.41406C2.31406 3 1.41406 3.9 1.41406 5V17C1.41406 18.11 2.31406 19 3.41406 19H8.41406V21H16.4141V19H21.4141C22.5241 19 23.4141 18.11 23.4141 17V5C23.4141 3.9 22.5241 3 21.4141 3ZM15.4141 6.5L14.7941 7.87L13.4141 8.5L14.7941 9.13L15.4141 10.5L16.0441 9.13L17.4141 8.5L16.0441 7.87L15.4141 6.5ZM10.9141 8.5L9.82406 10.91L7.41406 12L9.82406 13.09L10.9141 15.5L12.0141 13.09L14.4141 12L12.0141 10.91L10.9141 8.5Z" fill="black"/>
</g>
</svg>
