<svg width="25" height="24" viewBox="0 0 25 24" fill="none" xmlns="http://www.w3.org/2000/svg">
<g id="521">
<path id="Vector" d="M3.41406 3C2.31406 3 1.41406 3.9 1.41406 5V17C1.41406 18.1 2.31406 19 3.41406 19H8.41406V21H12.4141V17H3.41406V5H21.4141V7H23.4141V5C23.4141 3.9 22.5141 3 21.4141 3H3.41406ZM21.4141 9H16.4141C15.3141 9 14.4141 9.9 14.4141 11V20C14.4141 21.1 15.3141 22 16.4141 22H21.4141C22.5141 22 23.4141 21.1 23.4141 20V11C23.4141 9.9 22.5141 9 21.4141 9ZM18.9141 10.5C19.7141 10.5 20.4141 11.2 20.4141 12C20.4141 12.8 19.7141 13.5 18.9141 13.5C18.1141 13.5 17.4141 12.8 17.4141 12C17.4141 11.2 18.1141 10.5 18.9141 10.5ZM18.9141 20.5C17.2141 20.5 15.9141 19.2 15.9141 17.5C15.9141 15.9 17.2141 14.5 18.8141 14.5H18.9141C20.6141 14.5 21.9141 15.8 21.9141 17.5C21.9141 19.2 20.6141 20.5 18.9141 20.5ZM18.9141 16C18.1141 16 17.4141 16.7 17.4141 17.5C17.4141 18.3 18.1141 19 18.9141 19C19.7141 19 20.4141 18.3 20.4141 17.5C20.4141 16.7 19.7141 16 18.9141 16Z" fill="black"/>
</g>
</svg>
