<svg width="25" height="24" viewBox="0 0 25 24" fill="none" xmlns="http://www.w3.org/2000/svg">
<g id="522">
<path id="Vector" d="M21.4141 8.99995H16.4141C15.4141 8.99995 14.5141 9.79995 14.4141 10.8L18.2141 14.6C18.4141 14.5 18.6141 14.5 18.9141 14.5H19.0141C20.7141 14.5 22.0141 15.8 22.0141 17.5C22.0141 17.7 22.0141 18 21.9141 18.2L23.5141 19.7999V11C23.4141 9.89995 22.5141 8.99995 21.4141 8.99995ZM18.9141 13.5C18.1141 13.5 17.4141 12.8 17.4141 12C17.4141 11.2 18.1141 10.5 18.9141 10.5C19.7141 10.5 20.4141 11.2 20.4141 12C20.4141 12.8 19.7141 13.5 18.9141 13.5ZM23.4141 4.99995V6.99995H21.4141V4.99995H8.61406L6.61406 2.99995H21.4141C22.5141 2.99995 23.4141 3.89995 23.4141 4.99995ZM2.81406 1.69995L1.51406 2.99995L2.01406 3.49995C1.71406 3.89995 1.41406 4.39995 1.41406 4.99995V17C1.41406 18.1 2.31406 19 3.41406 19H8.41406V21H12.4141V17H3.41406V4.99995H3.51406L14.4141 15.9V20C14.4141 21.1 15.3141 22 16.4141 22H20.5141L21.2141 22.7L22.6141 21.5L2.81406 1.69995ZM18.9141 20.5C17.2141 20.5 15.9141 19.2 15.9141 17.5V17.4L19.0141 20.5H18.9141Z" fill="black"/>
</g>
</svg>
