<svg width="25" height="24" viewBox="0 0 25 24" fill="none" xmlns="http://www.w3.org/2000/svg">
<g id="523">
<path id="Vector" d="M21.4141 9C21.4141 10.1 20.5141 11 19.4141 11H5.41406C4.31406 11 3.41406 10.1 3.41406 9H1.41406C1.41406 10.9 2.71406 12.4 4.41406 12.8V22H10.4141V19C10.4141 17.9 11.3141 17 12.4141 17C13.5141 17 14.4141 17.9 14.4141 19V22H20.4141V12.9C20.9141 12.8 23.4141 11.9 23.4141 9H21.4141ZM6.41406 8.9V10H18.4141V8.9C18.9141 8.8 21.4141 7.9 21.4141 5H19.4141C19.4141 6.1 18.5141 7 17.4141 7H7.41406C6.31406 7 5.41406 6.1 5.41406 5H3.41406C3.41406 6.9 4.71406 8.4 6.41406 8.9ZM12.4141 1L8.61406 6H16.1141L12.4141 1Z" fill="black"/>
</g>
</svg>
