<svg width="25" height="24" viewBox="0 0 25 24" fill="none" xmlns="http://www.w3.org/2000/svg">
<g id="525">
<path id="Vector" d="M11.4141 20V5H20.4141V8H14.4141V11H19.4141V14H14.4141V20H11.4141ZM6.41406 3C7.20971 3 7.97277 3.31607 8.53538 3.87868C9.09799 4.44129 9.41406 5.20435 9.41406 6C9.41406 6.79565 9.09799 7.55871 8.53538 8.12132C7.97277 8.68393 7.20971 9 6.41406 9C5.61841 9 4.85535 8.68393 4.29274 8.12132C3.73013 7.55871 3.41406 6.79565 3.41406 6C3.41406 5.20435 3.73013 4.44129 4.29274 3.87868C4.85535 3.31607 5.61841 3 6.41406 3ZM6.41406 5C6.14885 5 5.89449 5.10536 5.70696 5.29289C5.51942 5.48043 5.41406 5.73478 5.41406 6C5.41406 6.26522 5.51942 6.51957 5.70696 6.70711C5.89449 6.89464 6.14885 7 6.41406 7C6.67928 7 6.93363 6.89464 7.12117 6.70711C7.30871 6.51957 7.41406 6.26522 7.41406 6C7.41406 5.73478 7.30871 5.48043 7.12117 5.29289C6.93363 5.10536 6.67928 5 6.41406 5Z" fill="black"/>
</g>
</svg>
