<svg width="25" height="24" viewBox="0 0 25 24" fill="none" xmlns="http://www.w3.org/2000/svg">
<g id="526">
<path id="Vector" d="M16.9141 5C18.4641 5 19.9141 5.47 21.1041 6.28L19.9441 9.17C19.1441 8.44 18.0841 8 16.9141 8C14.4141 8 12.4141 10 12.4141 12.5C12.4141 15 14.4141 17 16.9141 17C17.9441 17 18.8841 16.66 19.6441 16.08L20.7841 18.93C19.6541 19.61 18.3341 20 16.9141 20C14.9249 20 13.0173 19.2098 11.6108 17.8033C10.2042 16.3968 9.41406 14.4891 9.41406 12.5C9.41406 10.5109 10.2042 8.60322 11.6108 7.1967C13.0173 5.79018 14.9249 5 16.9141 5ZM6.41406 3C7.20971 3 7.97277 3.31607 8.53538 3.87868C9.09799 4.44129 9.41406 5.20435 9.41406 6C9.41406 6.79565 9.09799 7.55871 8.53538 8.12132C7.97277 8.68393 7.20971 9 6.41406 9C5.61841 9 4.85535 8.68393 4.29274 8.12132C3.73013 7.55871 3.41406 6.79565 3.41406 6C3.41406 5.20435 3.73013 4.44129 4.29274 3.87868C4.85535 3.31607 5.61841 3 6.41406 3ZM6.41406 5C6.14885 5 5.89449 5.10536 5.70696 5.29289C5.51942 5.48043 5.41406 5.73478 5.41406 6C5.41406 6.26522 5.51942 6.51957 5.70696 6.70711C5.89449 6.89464 6.14885 7 6.41406 7C6.67928 7 6.93363 6.89464 7.12117 6.70711C7.30871 6.51957 7.41406 6.26522 7.41406 6C7.41406 5.73478 7.30871 5.48043 7.12117 5.29289C6.93363 5.10536 6.67928 5 6.41406 5Z" fill="black"/>
</g>
</svg>
