<svg width="25" height="24" viewBox="0 0 25 24" fill="none" xmlns="http://www.w3.org/2000/svg">
<g id="528">
<path id="Vector" d="M7.41406 2H17.4141V4H16.4141V18C16.4141 19.0609 15.9926 20.0783 15.2425 20.8284C14.4923 21.5786 13.4749 22 12.4141 22C11.3532 22 10.3358 21.5786 9.58564 20.8284C8.83549 20.0783 8.41406 19.0609 8.41406 18V4H7.41406V2ZM14.4141 4H10.4141V18C10.4141 18.5304 10.6248 19.0391 10.9998 19.4142C11.3749 19.7893 11.8836 20 12.4141 20C12.9445 20 13.4532 19.7893 13.8283 19.4142C14.2033 19.0391 14.4141 18.5304 14.4141 18V4Z" fill="black"/>
</g>
</svg>
