<svg width="25" height="24" viewBox="0 0 25 24" fill="none" xmlns="http://www.w3.org/2000/svg">
<g id="529">
<path id="Vector" d="M7.41406 2V4H8.41406V18C8.41406 19.0609 8.83549 20.0783 9.58564 20.8284C10.3358 21.5786 11.3532 22 12.4141 22C13.4749 22 14.4923 21.5786 15.2425 20.8284C15.9926 20.0783 16.4141 19.0609 16.4141 18V4H17.4141V2H7.41406ZM11.4141 16C10.8141 16 10.4141 15.6 10.4141 15C10.4141 14.4 10.8141 14 11.4141 14C12.0141 14 12.4141 14.4 12.4141 15C12.4141 15.6 12.0141 16 11.4141 16ZM13.4141 12C12.8141 12 12.4141 11.6 12.4141 11C12.4141 10.4 12.8141 10 13.4141 10C14.0141 10 14.4141 10.4 14.4141 11C14.4141 11.6 14.0141 12 13.4141 12ZM14.4141 7H10.4141V4H14.4141V7Z" fill="black"/>
</g>
</svg>
