<svg width="25" height="24" viewBox="0 0 25 24" fill="none" xmlns="http://www.w3.org/2000/svg">
<g id="53">
<path id="Vector" d="M22.4102 15.0399C22.4102 17.2299 20.6502 18.9999 18.4802 18.9999H6.34016C4.17016 18.9999 2.41016 17.2299 2.41016 15.0399C2.41016 13.0699 3.84016 11.4399 5.72016 11.1399C5.69016 10.9999 5.68016 10.8599 5.68016 10.7099C5.68016 9.32994 6.79016 8.19994 8.17016 8.19994C8.78016 8.19994 9.35016 8.42994 9.78016 8.79994C10.5502 7.04994 11.5402 5.43994 14.3202 5.43994C17.6902 5.43994 19.2802 8.05994 19.2802 10.8299C19.2802 10.9399 19.2802 11.0599 19.2702 11.1699C21.0602 11.5399 22.4102 13.1299 22.4102 15.0399Z" fill="black"/>
</g>
</svg>
