<svg width="25" height="24" viewBox="0 0 25 24" fill="none" xmlns="http://www.w3.org/2000/svg">
<g id="533">
<path id="Vector" d="M2.41406 5.27L3.69406 4L20.4141 20.72L19.1441 22L16.2541 19.11C15.7741 20.77 14.2341 22 12.4141 22C11.3532 22 10.3358 21.5786 9.58564 20.8284C8.83549 20.0783 8.41406 19.0609 8.41406 18V11.27L2.41406 5.27ZM7.41406 2H17.4141V4H16.4141V14.18L14.0441 11.81C14.2741 11.63 14.4141 11.35 14.4141 11C14.4141 10.4 14.0141 10 13.4141 10C13.0641 10 12.7841 10.14 12.6041 10.37L8.41406 6.18V4H7.41406V2ZM11.4141 16C11.9141 16 12.2941 15.71 12.4141 15.24L11.1741 14C10.7041 14.12 10.4141 14.5 10.4141 15C10.4141 15.6 10.8141 16 11.4141 16ZM14.4141 7V4H10.4141V7H14.4141Z" fill="black"/>
</g>
</svg>
