<svg width="25" height="24" viewBox="0 0 25 24" fill="none" xmlns="http://www.w3.org/2000/svg">
<g id="535">
<path id="Vector" d="M21.4141 5V7H3.41406V5H21.4141ZM3.41406 17H12.4141V15H3.41406V17ZM3.41406 12H21.4141V10H3.41406V12ZM18.4141 14C19.5241 14 20.4141 14.9 20.4141 16C20.4141 17.1 19.5241 18 18.4141 18C17.3041 18 16.4141 17.11 16.4141 16C16.4141 14.89 17.3141 14 18.4141 14ZM14.4141 22V21C14.4141 19.9 16.2041 19 18.4141 19C20.6241 19 22.4141 19.9 22.4141 21V22H14.4141Z" fill="black"/>
</g>
</svg>
