<svg width="25" height="24" viewBox="0 0 25 24" fill="none" xmlns="http://www.w3.org/2000/svg">
<g id="537">
<path id="Vector" d="M17.4141 21L14.6641 18L15.8241 16.84L17.4141 18.43L21.0041 14.84L22.1641 16.25M13.2141 21H5.41406C4.30406 21 3.41406 20.1 3.41406 19V5C3.41406 3.89 4.30406 3 5.41406 3H19.4141C19.9445 3 20.4532 3.21071 20.8283 3.58579C21.2033 3.96086 21.4141 4.46957 21.4141 5V12.8C20.5341 12.29 19.5041 12 18.4141 12L17.4141 12.08V11H7.41406V13H15.1041C13.4841 14.07 12.4141 15.91 12.4141 18C12.4141 19.09 12.7041 20.12 13.2141 21ZM12.4141 15H7.41406V17H12.4141M17.4141 7H7.41406V9H17.4141" fill="black"/>
</g>
</svg>
