<svg width="25" height="24" viewBox="0 0 25 24" fill="none" xmlns="http://www.w3.org/2000/svg">
<g id="54">
<path id="Vector" d="M2.50016 16.8H4.16016V9.76004H2.50016M3.33016 8.84004C3.85016 8.84004 4.25016 8.44004 4.25016 7.94004C4.25016 7.44004 3.85016 7.04004 3.33016 7.04004C2.81016 7.04004 2.41016 7.44004 2.41016 7.94004C2.41016 8.44004 2.81016 8.84004 3.33016 8.84004ZM9.66016 7.06004C6.87016 7.06004 5.11016 8.96004 5.11016 12C5.11016 15.06 6.87016 16.96 9.66016 16.96C12.4502 16.96 14.2102 15.06 14.2102 12C14.2102 8.96004 12.4502 7.06004 9.66016 7.06004ZM9.66016 8.50004C11.3702 8.50004 12.4602 9.87004 12.4602 12C12.4602 14.15 11.3702 15.5 9.66016 15.5C7.95016 15.5 6.87016 14.15 6.87016 12C6.87016 9.87004 7.95016 8.50004 9.66016 8.50004ZM14.9102 14.11C14.9802 15.87 16.4102 16.96 18.6302 16.96C20.9502 16.96 22.4102 15.82 22.4102 14C22.4102 12.57 21.5902 11.77 19.6402 11.32L18.5402 11.07C17.3602 10.79 16.8802 10.42 16.8802 9.78004C16.8802 9.00004 17.6102 8.45004 18.6902 8.45004C19.7902 8.45004 20.5402 9.00004 20.6202 9.89004H22.2502C22.2102 8.20004 20.8202 7.06004 18.7002 7.06004C16.6202 7.06004 15.1402 8.21004 15.1402 9.91004C15.1402 11.28 15.9702 12.13 17.7402 12.53L18.9802 12.82C20.1902 13.11 20.6802 13.5 20.6802 14.2C20.6802 15 19.8802 15.57 18.7202 15.57C17.5602 15.57 16.6702 15 16.5702 14.11H14.9102Z" fill="black"/>
</g>
</svg>
