<svg width="25" height="24" viewBox="0 0 25 24" fill="none" xmlns="http://www.w3.org/2000/svg">
<g id="540">
<path id="Vector" d="M10.4141 21H5.41406C4.30406 21 3.41406 20.11 3.41406 19V5C3.41406 3.89 4.30406 3 5.41406 3H19.4141C20.5241 3 21.4141 3.89 21.4141 5V10.33C21.1141 10.21 20.7841 10.14 20.4541 10.14C20.0841 10.14 19.7341 10.22 19.4141 10.37V5H5.41406V19H10.5241L10.4141 19.11V21ZM7.41406 9H17.4141V7H7.41406V9ZM7.41406 17H12.5241L14.4141 15.12V15H7.41406V17ZM7.41406 13H16.5341L17.4141 12.12V11H7.41406V13ZM22.1141 13.58L20.8341 12.3C20.6241 12.09 20.2741 12.09 20.0641 12.3L19.0641 13.3L21.1141 15.35L22.1141 14.35C22.3241 14.14 22.3241 13.79 22.1141 13.58ZM12.4141 22H14.4741L20.5241 15.93L18.4741 13.88L12.4141 19.94V22Z" fill="black"/>
</g>
</svg>
