<svg width="25" height="24" viewBox="0 0 25 24" fill="none" xmlns="http://www.w3.org/2000/svg">
<g id="541">
<path id="Vector" d="M10.4141 19.11L12.5241 17H7.41406V15H14.4141V15.12L16.5341 13H7.41406V11H17.4141V12.12L18.6541 10.89C19.1341 10.41 19.7641 10.14 20.4541 10.14C20.7841 10.14 21.1141 10.21 21.4141 10.33V5C21.4141 3.89 20.5141 3 19.4141 3H5.41406C4.30406 3 3.41406 3.89 3.41406 5V19C3.41406 20.11 4.31406 21 5.41406 21H10.4141V19.11ZM7.41406 7H17.4141V9H7.41406V7ZM22.1141 14.35L21.1141 15.35L19.0641 13.3L20.0641 12.3C20.2741 12.09 20.6241 12.09 20.8341 12.3L22.1141 13.58C22.3241 13.79 22.3241 14.14 22.1141 14.35ZM12.4141 19.94L18.4741 13.88L20.5241 15.93L14.4741 22H12.4141V19.94Z" fill="black"/>
</g>
</svg>
