<svg width="25" height="24" viewBox="0 0 25 24" fill="none" xmlns="http://www.w3.org/2000/svg">
<g id="542">
<path id="Vector" d="M17.4141 21L14.6641 18L15.8241 16.84L17.4141 18.43L21.0041 14.84L22.1641 16.25M13.2141 21H5.41406C4.30406 21 3.41406 20.11 3.41406 19V5C3.41406 3.89 4.30406 3 5.41406 3H19.4141C20.5241 3 21.4141 3.89 21.4141 5V12.8C20.8041 12.45 20.1341 12.2 19.4141 12.08V5H5.41406V19H12.4941C12.6141 19.72 12.8641 20.39 13.2141 21ZM12.4141 17H7.41406V15H12.4141M15.0941 13H7.41406V11H17.4141V12.08C16.5641 12.22 15.7841 12.54 15.0941 13ZM17.4141 9H7.41406V7H17.4141" fill="black"/>
</g>
</svg>
