<svg width="25" height="24" viewBox="0 0 25 24" fill="none" xmlns="http://www.w3.org/2000/svg">
<g id="543">
<path id="Vector" d="M16.4141 15H9.41406V13H16.4141M19.4141 11H9.41406V9H19.4141M19.4141 7H9.41406V5H19.4141M21.4141 1H7.41406C6.30406 1 5.41406 1.89 5.41406 3V17C5.41406 18.11 6.31406 19 7.41406 19H21.4141C22.5241 19 23.4141 18.11 23.4141 17V3C23.4141 1.89 22.5141 1 21.4141 1ZM3.41406 5V21H19.4141V23H3.41406C2.88363 23 2.37492 22.7893 1.99985 22.4142C1.62478 22.0391 1.41406 21.5304 1.41406 21V5H3.41406Z" fill="black"/>
</g>
</svg>
