<svg width="25" height="24" viewBox="0 0 25 24" fill="none" xmlns="http://www.w3.org/2000/svg">
<g id="544">
<path id="Vector" d="M16.4141 15H9.41406V13H16.4141V15ZM19.4141 11H9.41406V9H19.4141V11ZM19.4141 7H9.41406V5H19.4141V7ZM3.41406 5V21H19.4141V23H3.41406C2.88363 23 2.37492 22.7893 1.99985 22.4142C1.62478 22.0391 1.41406 21.5304 1.41406 21V5H3.41406ZM21.4141 1C21.9445 1 22.4532 1.21071 22.8283 1.58579C23.2033 1.96086 23.4141 2.46957 23.4141 3V17C23.4141 18.11 22.5241 19 21.4141 19H7.41406C6.88363 19 6.37492 18.7893 5.99985 18.4142C5.62478 18.0391 5.41406 17.5304 5.41406 17V3C5.41406 1.89 6.30406 1 7.41406 1H21.4141ZM7.41406 3V17H21.4141V3H7.41406Z" fill="black"/>
</g>
</svg>
