<svg width="25" height="24" viewBox="0 0 25 24" fill="none" xmlns="http://www.w3.org/2000/svg">
<g id="546">
<path id="Vector" d="M17.4141 14H19.4141V17H22.4141V19H19.4141V22H17.4141V19H14.4141V17H17.4141V14ZM12.4141 17V15H7.41406V17H12.4141ZM17.4141 11H7.41406V13H15.1041C13.4841 14.07 12.4141 15.91 12.4141 18C12.4141 19.09 12.7041 20.12 13.2141 21H5.41406C4.30406 21 3.41406 20.1 3.41406 19V5C3.41406 3.89 4.30406 3 5.41406 3H19.4141C19.9445 3 20.4532 3.21071 20.8283 3.58579C21.2033 3.96086 21.4141 4.46957 21.4141 5V12.8C20.5341 12.29 19.5041 12 18.4141 12L17.4141 12.08V11ZM17.4141 9V7H7.41406V9H17.4141Z" fill="black"/>
</g>
</svg>
