<svg width="25" height="24" viewBox="0 0 25 24" fill="none" xmlns="http://www.w3.org/2000/svg">
<g id="547">
<path id="Vector" d="M17.4141 14H19.4141V17H22.4141V19H19.4141V22H17.4141V19H14.4141V17H17.4141V14ZM5.41406 3H19.4141C20.5241 3 21.4141 3.89 21.4141 5V12.8C20.8041 12.45 20.1341 12.2 19.4141 12.08V5H5.41406V19H12.4941C12.6141 19.72 12.8641 20.39 13.2141 21H5.41406C4.30406 21 3.41406 20.11 3.41406 19V5C3.41406 3.89 4.30406 3 5.41406 3ZM7.41406 7H17.4141V9H7.41406V7ZM7.41406 11H17.4141V12.08C16.5641 12.22 15.7841 12.54 15.0941 13H7.41406V11ZM7.41406 15H12.4141V17H7.41406V15Z" fill="black"/>
</g>
</svg>
