<svg width="25" height="24" viewBox="0 0 25 24" fill="none" xmlns="http://www.w3.org/2000/svg">
<g id="549">
<path id="Vector" d="M15.9141 12C18.4141 12 20.4141 14 20.4141 16.5C20.4141 17.38 20.1641 18.21 19.7241 18.9L22.8041 22L21.4141 23.39L18.2941 20.32C17.6041 20.75 16.7841 21 15.9141 21C13.4141 21 11.4141 19 11.4141 16.5C11.4141 14 13.4141 12 15.9141 12ZM15.9141 14C15.251 14 14.6151 14.2634 14.1463 14.7322C13.6775 15.2011 13.4141 15.837 13.4141 16.5C13.4141 17.163 13.6775 17.7989 14.1463 18.2678C14.6151 18.7366 15.251 19 15.9141 19C16.5771 19 17.213 18.7366 17.6818 18.2678C18.1507 17.7989 18.4141 17.163 18.4141 16.5C18.4141 15.837 18.1507 15.2011 17.6818 14.7322C17.213 14.2634 16.5771 14 15.9141 14ZM5.41406 3H19.4141C20.5241 3 21.4141 3.89 21.4141 5V13.03C20.9141 12.23 20.2241 11.54 19.4141 11V5H5.41406V19H9.91406C10.2241 19.75 10.6741 20.42 11.2241 21H5.41406C4.30406 21 3.41406 20.11 3.41406 19V5C3.41406 3.89 4.30406 3 5.41406 3ZM7.41406 7H17.4141V9H7.41406V7ZM7.41406 11H12.4441C11.6441 11.5 10.9541 12.19 10.4141 13H7.41406V11ZM7.41406 15H9.58406C9.47406 15.5 9.41406 16 9.41406 16.5V17H7.41406V15Z" fill="black"/>
</g>
</svg>
