<svg width="25" height="24" viewBox="0 0 25 24" fill="none" xmlns="http://www.w3.org/2000/svg">
<g id="55">
<path id="Vector" d="M21.4102 2H3.41016C2.31016 2 1.41016 2.9 1.41016 4V20C1.41016 21.1 2.31016 22 3.41016 22H21.4102C22.5102 22 23.4102 21.1 23.4102 20V4C23.4102 2.9 22.5102 2 21.4102 2ZM11.4102 11H9.41016V12.5C9.41016 13.6 8.51016 14.5 7.41016 14.5C8.51016 14.5 9.41016 15.4 9.41016 16.5V18H11.4102V20H9.41016C8.31016 20 7.41016 19.1 7.41016 18V17.5C7.41016 16.4 6.51016 15.5 5.41016 15.5V13.5C6.51016 13.5 7.41016 12.6 7.41016 11.5V11C7.41016 9.9 8.31016 9 9.41016 9H11.4102V11ZM19.4102 15.5C18.3102 15.5 17.4102 16.4 17.4102 17.5V18C17.4102 19.1 16.5102 20 15.4102 20H13.4102V18H15.4102V16.5C15.4102 15.4 16.3102 14.5 17.4102 14.5C16.3102 14.5 15.4102 13.6 15.4102 12.5V11H13.4102V9H15.4102C16.5102 9 17.4102 9.9 17.4102 11V11.5C17.4102 12.6 18.3102 13.5 19.4102 13.5V15.5ZM21.4102 7H3.41016V4H21.4102V7Z" fill="black"/>
</g>
</svg>
