<svg width="25" height="24" viewBox="0 0 25 24" fill="none" xmlns="http://www.w3.org/2000/svg">
<g id="550">
<path id="Vector" d="M15.9141 12C18.4141 12 20.4141 14 20.4141 16.5C20.4141 17.38 20.1641 18.21 19.7241 18.9L22.8041 22L21.4141 23.39L18.2941 20.32C17.6041 20.75 16.7841 21 15.9141 21C13.4141 21 11.4141 19 11.4141 16.5C11.4141 14 13.4141 12 15.9141 12ZM15.9141 14C15.251 14 14.6151 14.2634 14.1463 14.7322C13.6775 15.2011 13.4141 15.837 13.4141 16.5C13.4141 17.163 13.6775 17.7989 14.1463 18.2678C14.6151 18.7366 15.251 19 15.9141 19C16.5771 19 17.213 18.7366 17.6818 18.2678C18.1507 17.7989 18.4141 17.163 18.4141 16.5C18.4141 15.837 18.1507 15.2011 17.6818 14.7322C17.213 14.2634 16.5771 14 15.9141 14ZM7.41406 15V17H9.41406C9.55406 18.55 10.2141 19.94 11.2241 21H5.41406C4.30406 21 3.41406 20.1 3.41406 19V5C3.41406 3.89 4.30406 3 5.41406 3H19.4141C19.9445 3 20.4532 3.21071 20.8283 3.58579C21.2033 3.96086 21.4141 4.46957 21.4141 5V13.03C20.2641 11.21 18.2341 10 15.9141 10C14.6441 10 13.4541 10.37 12.4541 11H7.41406V13H10.4141C10.0541 13.6 9.75406 14.28 9.58406 15H7.41406ZM17.4141 9V7H7.41406V9H17.4141Z" fill="black"/>
</g>
</svg>
