<svg width="25" height="24" viewBox="0 0 25 24" fill="none" xmlns="http://www.w3.org/2000/svg">
<g id="553">
<path id="Vector" d="M2.41406 4C2.41406 2.9 3.31406 2 4.41406 2H8.41406V4H4.41406V8H2.41406V4ZM22.4141 20C22.4141 21.11 21.5241 22 20.4141 22H16.4141V20H20.4141V16H22.4141V20ZM4.41406 22C3.31406 22 2.41406 21.11 2.41406 20V16H4.41406V20H8.41406V22H4.41406ZM20.4141 2C21.5241 2 22.4141 2.9 22.4141 4V8H20.4141V4H16.4141V2H20.4141ZM9.41406 7V9H11.4141V17H13.4141V9H15.4141V7H9.41406Z" fill="black"/>
</g>
</svg>
