<svg width="25" height="24" viewBox="0 0 25 24" fill="none" xmlns="http://www.w3.org/2000/svg">
<g id="554">
<path id="Vector" d="M19.7241 18.9L22.8041 22L21.4141 23.39L18.2941 20.32C17.6041 20.75 16.7841 21 15.9141 21C13.4141 21 11.4141 19 11.4141 16.5C11.4141 14 13.4141 12 15.9141 12C18.4141 12 20.4141 14 20.4141 16.5C20.4141 17.38 20.1641 18.21 19.7241 18.9ZM15.9141 19C17.2941 19 18.4141 17.88 18.4141 16.5C18.4141 15.12 17.2941 14 15.9141 14C14.5341 14 13.4141 15.12 13.4141 16.5C13.4141 17.88 14.5341 19 15.9141 19ZM21.4141 4V6H3.41406V4H21.4141ZM3.41406 16V14H9.41406V16H3.41406ZM3.41406 11V9H21.4141V11H19.3841C18.3741 10.37 17.1841 10 15.9141 10C14.6441 10 13.4541 10.37 12.4441 11H3.41406Z" fill="black"/>
</g>
</svg>
