<svg width="25" height="24" viewBox="0 0 25 24" fill="none" xmlns="http://www.w3.org/2000/svg">
<g id="555">
<path id="Vector" d="M9.41406 6.00011V8.00011H2.41406V6.00011H9.41406ZM9.41406 11.0001V13.0001H2.41406V11.0001H9.41406ZM18.4141 16.0001V18.0001H2.41406V16.0001H18.4141ZM19.7241 11.5001C20.1641 10.8201 20.4141 10.0001 20.4141 9.11011C20.4141 6.61011 18.4141 4.61011 15.9141 4.61011C13.4141 4.61011 11.4141 6.61011 11.4141 9.11011C11.4141 11.6101 13.4141 13.6101 15.9141 13.6101C16.7841 13.6101 17.6041 13.3601 18.2941 12.9301L21.4141 16.0001L22.8041 14.6101L19.7241 11.5001ZM15.9141 11.6101C14.5341 11.6101 13.4141 10.5001 13.4141 9.11011C13.4141 7.72011 14.5341 6.61011 15.9141 6.61011C17.2941 6.61011 18.4141 7.73011 18.4141 9.11011C18.4141 10.4901 17.2941 11.6101 15.9141 11.6101Z" fill="black"/>
</g>
</svg>
