<svg width="25" height="24" viewBox="0 0 25 24" fill="none" xmlns="http://www.w3.org/2000/svg">
<g id="559">
<path id="Vector" d="M7.91406 1.99997C6.12406 3.14997 4.91406 5.17997 4.91406 7.49997C4.91406 9.81997 6.12406 11.85 7.94406 13C4.87406 13 2.41406 10.54 2.41406 7.49997C2.41406 6.04128 2.99353 4.64233 4.02498 3.61088C5.05643 2.57943 6.45537 1.99997 7.91406 1.99997ZM19.4841 3.49997L20.9141 4.92997L5.34406 20.5L3.91406 19.07L19.4841 3.49997ZM13.3041 5.92997L11.8241 4.99997L10.3841 5.99997L10.8041 4.29997L9.41406 3.23997L11.1641 3.11997L11.7441 1.46997L12.4141 3.09997L14.1441 3.12997L12.7941 4.25997L13.3041 5.92997ZM10.0041 9.53997L8.84406 8.80997L7.72406 9.58997L8.06406 8.26997L6.97406 7.43997L8.33406 7.34997L8.78406 6.05997L9.29406 7.32997L10.6541 7.35997L9.60406 8.22997L10.0041 9.53997ZM19.4141 13.5C19.4141 14.9587 18.8346 16.3576 17.8032 17.3891C16.7717 18.4205 15.3728 19 13.9141 19C12.6941 19 11.5641 18.6 10.6541 17.93L18.3441 10.24C19.0141 11.15 19.4141 12.28 19.4141 13.5ZM15.0141 20.08L17.7841 18.93L17.5441 22.28L15.0141 20.08ZM19.3441 17.38L20.4941 14.61L22.6941 17.15L19.3441 17.38ZM20.4941 12.42L19.3541 9.63997L22.6941 9.87997L20.4941 12.42ZM10.0441 18.93L12.8141 20.08L10.2841 22.27L10.0441 18.93Z" fill="black"/>
</g>
</svg>
