<svg width="25" height="24" viewBox="0 0 25 24" fill="none" xmlns="http://www.w3.org/2000/svg">
<g id="56">
<path id="Vector" d="M22.1102 18.6V17.6L23.2102 16.8C23.3102 16.7 23.4102 16.6 23.3102 16.5L22.3102 14.8C22.3102 14.7 22.1102 14.7 22.0102 14.7L20.8102 15.2C20.5102 15 20.2102 14.8 19.9102 14.7L19.7102 13.4C19.7102 13.3 19.6102 13.2 19.5102 13.2H17.5102C17.3102 13.2 17.2102 13.3 17.2102 13.4L17.0102 14.7C16.7102 14.9 16.5102 15 16.2102 15.2L15.0102 14.7C14.9102 14.7 14.8102 14.7 14.7102 14.8L13.7102 16.5C13.7102 16.6 13.7102 16.7 13.8102 16.8L14.9102 17.6V18.6L13.8102 19.4C13.7102 19.5 13.6102 19.6 13.7102 19.7L14.7102 21.4C14.8102 21.5 14.9102 21.5 15.0102 21.5L16.2102 21C16.4102 21.2 16.7102 21.4 17.0102 21.5L17.2102 22.8C17.3102 22.9 17.4102 23 17.5102 23H19.5102C19.6102 23 19.7102 22.9 19.7102 22.8L19.9102 21.5C20.2102 21.3 20.4102 21.2 20.7102 21L21.9102 21.4C22.0102 21.4 22.1102 21.4 22.2102 21.3L23.2102 19.6C23.3102 19.5 23.3102 19.4 23.2102 19.4L22.1102 18.6ZM18.4102 19.5C17.6102 19.5 16.9102 18.8 16.9102 18C16.9102 17.2 17.6102 16.5 18.4102 16.5C19.2102 16.5 19.9102 17.2 19.9102 18C19.9102 18.8 19.2102 19.5 18.4102 19.5ZM12.7102 22H3.41016C2.31016 22 1.41016 21.1 1.41016 20V4C1.41016 2.9 2.31016 2 3.41016 2H21.4102C22.5102 2 23.4102 2.9 23.4102 4V13.1C22.8102 12.5 22.1102 12 21.4102 11.7V6H3.41016V20H11.7102C11.9102 20.7 12.2102 21.4 12.7102 22Z" fill="black"/>
</g>
</svg>
