<svg width="25" height="24" viewBox="0 0 25 24" fill="none" xmlns="http://www.w3.org/2000/svg">
<g id="560">
<path id="Vector" d="M4.41406 15H6.41406C6.9445 15 7.4532 15.2107 7.82828 15.5858C8.20335 15.9609 8.41406 16.4696 8.41406 17V19H9.41406V17C9.41406 16.4696 9.62478 15.9609 9.99985 15.5858C10.3749 15.2107 10.8836 15 11.4141 15H13.4141C13.9445 15 14.4532 15.2107 14.8283 15.5858C15.2033 15.9609 15.4141 16.4696 15.4141 17V19H16.4141V17C16.4141 16.4696 16.6248 15.9609 16.9998 15.5858C17.3749 15.2107 17.8836 15 18.4141 15H20.4141C20.9445 15 21.4532 15.2107 21.8283 15.5858C22.2033 15.9609 22.4141 16.4696 22.4141 17V19H23.4141V22H1.41406V19H2.41406V17C2.41406 16.4696 2.62478 15.9609 2.99985 15.5858C3.37492 15.2107 3.88363 15 4.41406 15ZM11.4141 7L15.4141 10L11.4141 13V7ZM4.41406 2H20.4141C20.9445 2 21.4532 2.21071 21.8283 2.58579C22.2033 2.96086 22.4141 3.46957 22.4141 4V13.54C21.8241 13.19 21.1441 13 20.4141 13V4H4.41406V13C3.68406 13 3.00406 13.19 2.41406 13.54V4C2.41406 3.46957 2.62478 2.96086 2.99985 2.58579C3.37492 2.21071 3.88363 2 4.41406 2Z" fill="black"/>
</g>
</svg>
