<svg width="25" height="24" viewBox="0 0 25 24" fill="none" xmlns="http://www.w3.org/2000/svg">
<g id="561">
<path id="Vector" d="M20.4141 2H4.41406C3.31406 2 2.41406 2.9 2.41406 4V20C2.41406 21.11 3.31406 22 4.41406 22H20.4141C21.5241 22 22.4141 21.11 22.4141 20V4C22.4141 2.9 21.5241 2 20.4141 2ZM4.41406 6L6.41406 4H11.3141L4.41406 10.9V6ZM4.41406 13.7L14.1141 4H19.0141L4.41406 18.6V13.7ZM20.4141 18L18.4141 20H13.5141L20.4141 13.1V18ZM20.4141 10.3L10.7141 20H5.81406L20.4141 5.4V10.3Z" fill="black"/>
</g>
</svg>
