<svg width="25" height="24" viewBox="0 0 25 24" fill="none" xmlns="http://www.w3.org/2000/svg">
<g id="562">
<path id="Vector" d="M9.70406 21H12.5341L21.4141 12.12V9.29M19.4141 21C19.9641 21 20.4641 20.78 20.8241 20.41C21.1941 20.05 21.4141 19.55 21.4141 19V17L17.4141 21M5.41406 3C4.88363 3 4.37492 3.21071 3.99985 3.58579C3.62478 3.96086 3.41406 4.46957 3.41406 5V7L7.41406 3M12.2941 3L3.41406 11.88V14.71L15.1241 3M19.9141 3.08L3.49406 19.5C3.58406 19.85 3.76406 20.16 4.00406 20.41C4.25406 20.65 4.56406 20.83 4.91406 20.92L21.3441 4.5C21.1541 3.8 20.6141 3.26 19.9141 3.08Z" fill="black"/>
</g>
</svg>
