<svg width="25" height="24" viewBox="0 0 25 24" fill="none" xmlns="http://www.w3.org/2000/svg">
<g id="563">
<path id="Vector" d="M17.4146 13V7H19.4146V13H17.4146ZM17.4146 17V15H19.4146V17H17.4146ZM13.4146 13V5C13.4146 3.3 12.1146 2 10.4146 2C8.71459 2 7.41459 3.3 7.41459 5V13C5.21459 14.7 4.71459 17.8 6.41459 20C8.11459 22.2 11.2146 22.7 13.4146 21C15.6146 19.3 16.1146 16.2 14.4146 14C14.1146 13.6 13.8146 13.3 13.4146 13ZM10.4146 4C11.0146 4 11.4146 4.4 11.4146 5V8H9.41459V5C9.41459 4.4 9.81459 4 10.4146 4Z" fill="black"/>
</g>
</svg>
