<svg width="25" height="24" viewBox="0 0 25 24" fill="none" xmlns="http://www.w3.org/2000/svg">
<g id="564">
<path id="Vector" d="M12.4146 14C12.1146 13.6 11.8146 13.3 11.4146 13V5C11.4146 3.3 10.1146 2 8.41459 2C6.71459 2 5.41459 3.3 5.41459 5V13C3.21459 14.7 2.71459 17.8 4.41459 20C6.11459 22.2 9.21459 22.7 11.4146 21C13.6146 19.3 14.1146 16.2 12.4146 14ZM9.41459 8H7.41459V5C7.41459 4.5 7.91459 4 8.41459 4C8.91459 4 9.41459 4.5 9.41459 5V8ZM18.4146 3H16.4146L13.2146 12H15.1146L15.8146 10H19.0146L19.7146 12H21.6146L18.4146 3ZM16.2146 8.7L17.4146 5L18.6146 8.7H16.2146Z" fill="black"/>
</g>
</svg>
