<svg width="25" height="24" viewBox="0 0 25 24" fill="none" xmlns="http://www.w3.org/2000/svg">
<g id="566">
<path id="Vector" d="M10.416 13V5C10.416 3.34 9.07596 2 7.41596 2C5.75596 2 4.41596 3.34 4.41596 5V13C2.20596 14.66 1.75596 17.79 3.41596 20C5.07596 22.21 8.20596 22.66 10.416 21C12.626 19.34 13.076 16.21 11.416 14C11.136 13.62 10.796 13.28 10.416 13ZM7.41596 4C7.96596 4 8.41596 4.45 8.41596 5V8H6.41596V5C6.41596 4.45 6.86596 4 7.41596 4ZM16.666 15.16L13.916 12.16L15.076 11L16.666 12.59L20.256 9L21.416 10.41L16.666 15.16Z" fill="black"/>
</g>
</svg>
