<svg width="25" height="24" viewBox="0 0 25 24" fill="none" xmlns="http://www.w3.org/2000/svg">
<g id="568">
<path id="Vector" d="M22.416 11H14.416V13H22.416V11ZM11.416 13V5C11.416 3.34 10.076 2 8.41596 2C6.75596 2 5.41596 3.34 5.41596 5V13C3.20596 14.66 2.75596 17.79 4.41596 20C6.07596 22.21 9.20596 22.66 11.416 21C13.626 19.34 14.076 16.21 12.416 14C12.136 13.62 11.796 13.28 11.416 13ZM8.41596 4C8.96596 4 9.41596 4.45 9.41596 5V8H7.41596V5C7.41596 4.45 7.86596 4 8.41596 4Z" fill="black"/>
</g>
</svg>
