<svg width="25" height="24" viewBox="0 0 25 24" fill="none" xmlns="http://www.w3.org/2000/svg">
<g id="570">
<path id="Vector" d="M2.41406 3.64L9.65406 10.88L3.22406 17.31C2.15406 18.38 2.15406 20.12 3.22406 21.2C4.29406 22.27 6.03406 22.27 7.11406 21.2L13.5441 14.77L21.1441 22.37L22.4141 21.1L3.68406 2.37L2.41406 3.64ZM10.6441 11.86L12.5541 13.77C12.3041 14.14 11.8841 14.38 11.4141 14.38C10.6541 14.38 10.0341 13.76 10.0341 13C10.0341 12.53 10.2741 12.11 10.6441 11.86ZM14.8741 11L13.4141 9.55L13.8841 9.47L19.8841 3.47L22.4141 2L20.9541 4.54L14.9541 10.54L14.8741 11Z" fill="black"/>
</g>
</svg>
