<svg width="25" height="24" viewBox="0 0 25 24" fill="none" xmlns="http://www.w3.org/2000/svg">
<g id="572">
<path id="Vector" d="M17.4141 3H21.4141V5H17.4141V3ZM17.4141 7H21.4141V9H17.4141V7ZM17.4141 11H21.4141V13H18.1641L17.4141 12.1V11ZM21.4141 15V17H19.4141C19.4141 16.31 19.3141 15.63 19.1241 15H21.4141ZM7.41406 3V5H3.41406V3H7.41406ZM7.41406 7V9H3.41406V7H7.41406ZM7.41406 11V12.1L6.66406 13H3.41406V11H7.41406ZM3.41406 15H5.70406C5.51406 15.63 5.41406 16.31 5.41406 17H3.41406V15ZM15.4141 13V5C15.4141 3.34 14.0741 2 12.4141 2C10.7541 2 9.41406 3.34 9.41406 5V13C7.20406 14.66 6.75406 17.79 8.41406 20C10.0741 22.21 13.2041 22.66 15.4141 21C17.6241 19.34 18.0741 16.21 16.4141 14C16.1341 13.62 15.7941 13.28 15.4141 13ZM12.4141 4C12.9641 4 13.4141 4.45 13.4141 5V8H11.4141V5C11.4141 4.45 11.8641 4 12.4141 4Z" fill="black"/>
</g>
</svg>
