<svg width="25" height="24" viewBox="0 0 25 24" fill="none" xmlns="http://www.w3.org/2000/svg">
<g id="575">
<path id="Vector" d="M15.4141 13V5C15.4141 4.20435 15.098 3.44129 14.5354 2.87868C13.9728 2.31607 13.2097 2 12.4141 2C11.6184 2 10.8554 2.31607 10.2927 2.87868C9.73013 3.44129 9.41406 4.20435 9.41406 5V13C8.57453 13.6296 7.9544 14.5075 7.64149 15.5092C7.32859 16.5108 7.33879 17.5856 7.67065 18.5811C8.0025 19.5767 8.63918 20.4426 9.49051 21.0562C10.3418 21.6698 11.3647 22 12.4141 22C13.4635 22 14.4863 21.6698 15.3376 21.0562C16.1889 20.4426 16.8256 19.5767 17.1575 18.5811C17.4893 17.5856 17.4995 16.5108 17.1866 15.5092C16.8737 14.5075 16.2536 13.6296 15.4141 13ZM12.4141 4C12.6793 4 12.9336 4.10536 13.1212 4.29289C13.3087 4.48043 13.4141 4.73478 13.4141 5H11.4141C11.4141 4.73478 11.5194 4.48043 11.707 4.29289C11.8945 4.10536 12.1488 4 12.4141 4Z" fill="black"/>
</g>
</svg>
