<svg width="25" height="24" viewBox="0 0 25 24" fill="none" xmlns="http://www.w3.org/2000/svg">
<g id="576">
<path id="Vector" d="M17.826 11.83L20.996 15L22.416 13.59L17.826 9L13.236 13.59L14.656 15L17.826 11.83ZM10.416 13V5C10.416 3.34 9.07596 2 7.41596 2C5.75596 2 4.41596 3.34 4.41596 5V13C2.20596 14.66 1.75596 17.79 3.41596 20C5.07596 22.21 8.20596 22.66 10.416 21C12.626 19.34 13.076 16.21 11.416 14C11.136 13.62 10.796 13.28 10.416 13ZM7.41596 4C7.96596 4 8.41596 4.45 8.41596 5V8H6.41596V5C6.41596 4.45 6.86596 4 7.41596 4Z" fill="black"/>
</g>
</svg>
