<svg width="25" height="24" viewBox="0 0 25 24" fill="none" xmlns="http://www.w3.org/2000/svg">
<g id="577">
<path id="Vector" d="M11.4134 7.79998L9.41344 5.79998V4.99998C9.41344 3.33998 10.7534 1.99998 12.4134 1.99998C14.0734 1.99998 15.4134 3.33998 15.4134 4.99998V11.8L11.6134 7.99998H13.4134V4.99998C13.4134 4.44998 12.9634 3.99998 12.4134 3.99998C11.8634 3.99998 11.4134 4.44998 11.4134 4.99998V7.79998ZM22.5234 21.46L2.80344 1.72998L1.52344 2.99998L9.41344 10.89V13C7.20344 14.66 6.75344 17.79 8.41344 20C10.0734 22.21 13.2034 22.66 15.4134 21C16.2534 20.37 16.8134 19.5 17.1234 18.6L21.2534 22.73L22.5234 21.46Z" fill="black"/>
</g>
</svg>
