<svg width="25" height="24" viewBox="0 0 25 24" fill="none" xmlns="http://www.w3.org/2000/svg">
<g id="578">
<path id="Vector" d="M19.8844 3.47L13.8844 9.47L10.9444 10C10.6344 10.03 10.3544 10.18 10.1344 10.4L3.22438 17.31C2.15437 18.38 2.15437 20.12 3.22438 21.2C4.29438 22.27 6.03438 22.27 7.11438 21.2L14.0244 14.29C14.2444 14.07 14.4144 13.79 14.4444 13.5L14.9544 10.54L20.9544 4.54L22.4144 2L19.8844 3.47ZM11.4144 14.38C10.6544 14.38 10.0344 13.76 10.0344 13C10.0344 12.24 10.6544 11.62 11.4144 11.62C12.1744 11.62 12.7944 12.24 12.7944 13C12.7844 13.76 12.1744 14.38 11.4144 14.38Z" fill="black"/>
</g>
</svg>
