<svg width="25" height="24" viewBox="0 0 25 24" fill="none" xmlns="http://www.w3.org/2000/svg">
<g id="58">
<path id="Vector" d="M9.91016 8.5L11.4102 10L8.41016 13L11.4102 16L9.91016 17.5L5.41016 13L9.91016 8.5ZM14.9102 17.5L13.4102 16L16.4102 13L13.4102 10L14.9102 8.5L19.4102 13L14.9102 17.5ZM21.4102 2H3.41016C2.87972 2 2.37102 2.21071 1.99594 2.58579C1.62087 2.96086 1.41016 3.46957 1.41016 4V20C1.41016 20.5304 1.62087 21.0391 1.99594 21.4142C2.37102 21.7893 2.87972 22 3.41016 22H21.4102C21.9406 22 22.4493 21.7893 22.8244 21.4142C23.1994 21.0391 23.4102 20.5304 23.4102 20V4C23.4102 3.46957 23.1994 2.96086 22.8244 2.58579C22.4493 2.21071 21.9406 2 21.4102 2ZM21.4102 20H3.41016V6H21.4102V20Z" fill="black"/>
</g>
</svg>
