<svg width="25" height="24" viewBox="0 0 25 24" fill="none" xmlns="http://www.w3.org/2000/svg">
<g id="581">
<path id="Vector" d="M3.91406 19C4.31189 19 4.69342 19.158 4.97472 19.4393C5.25603 19.7206 5.41406 20.1022 5.41406 20.5C5.41406 20.8978 5.25603 21.2794 4.97472 21.5607C4.69342 21.842 4.31189 22 3.91406 22C3.51624 22 3.13471 21.842 2.8534 21.5607C2.5721 21.2794 2.41406 20.8978 2.41406 20.5C2.41406 20.1022 2.5721 19.7206 2.8534 19.4393C3.13471 19.158 3.51624 19 3.91406 19ZM8.91406 16C9.5771 16 10.213 16.2634 10.6818 16.7322C11.1507 17.2011 11.4141 17.837 11.4141 18.5C11.4141 19.163 11.1507 19.7989 10.6818 20.2678C10.213 20.7366 9.5771 21 8.91406 21C8.25102 21 7.61514 20.7366 7.1463 20.2678C6.67745 19.7989 6.41406 19.163 6.41406 18.5C6.41406 17.837 6.67745 17.2011 7.1463 16.7322C7.61514 16.2634 8.25102 16 8.91406 16ZM14.9141 15C13.7241 15 12.6441 14.5 11.9141 13.65C11.1841 14.5 10.1041 15 8.91406 15C6.95406 15 5.32406 13.59 4.98406 11.74C3.48406 11.16 2.41406 9.7 2.41406 8C2.41406 6.93913 2.83549 5.92172 3.58564 5.17157C4.33578 4.42143 5.3532 4 6.41406 4C6.67406 4 6.91406 4.03 7.18406 4.07C7.91406 3.41 8.86406 3 9.91406 3C11.1041 3 12.1841 3.5 12.9141 4.35C13.6441 3.5 14.7241 3 15.9141 3C17.8741 3 19.5041 4.41 19.8441 6.26C21.3441 6.84 22.4141 8.3 22.4141 10C22.4141 11.0609 21.9926 12.0783 21.2425 12.8284C20.4923 13.5786 19.4749 14 18.4141 14L17.6441 13.93C16.9141 14.59 15.9641 15 14.9141 15Z" fill="black"/>
</g>
</svg>
