<svg width="25" height="24" viewBox="0 0 25 24" fill="none" xmlns="http://www.w3.org/2000/svg">
<g id="582">
<path id="Vector" d="M20.4141 14H18.4141L15.2141 23H17.1141L17.8141 21H21.0141L21.7141 23H23.6141L20.4141 14ZM18.2141 19.7L19.4141 16L20.6141 19.7H18.2141ZM15.8141 15.4L15.2141 14.8C15.9141 14.1 16.4141 13.1 16.4141 12C16.4141 11.3 16.2141 10.6 15.8141 10L18.0141 7.8C18.9141 9 19.4141 10.4 19.4141 12H21.4141V5C21.4141 3.9 20.5141 3 19.4141 3H5.41406C4.31406 3 3.41406 3.9 3.41406 5V19C3.41406 20.1 4.31406 21 5.41406 21H13.8141L15.8141 15.4ZM9.61406 14.8L7.41406 17C6.11406 15.7 5.41406 14 5.41406 12C5.41406 8.1 8.51406 5 12.4141 5C14.0141 5 15.4141 5.5 16.6141 6.4L14.4141 8.6C13.8141 8.2 13.1141 8 12.4141 8C10.2141 8 8.41406 9.8 8.41406 12C8.41406 13.1 8.91406 14.1 9.61406 14.8Z" fill="black"/>
</g>
</svg>
