<svg width="25" height="24" viewBox="0 0 25 24" fill="none" xmlns="http://www.w3.org/2000/svg">
<g id="584">
<path id="Vector" d="M5.41406 3C4.88363 3 4.37492 3.21071 3.99985 3.58579C3.62478 3.96086 3.41406 4.46957 3.41406 5V19C3.41406 19.5304 3.62478 20.0391 3.99985 20.4142C4.37492 20.7893 4.88363 21 5.41406 21H19.4141C19.9445 21 20.4532 20.7893 20.8283 20.4142C21.2033 20.0391 21.4141 19.5304 21.4141 19V5C21.4141 3.89 20.5141 3 19.4141 3H5.41406ZM12.4141 5C13.9841 5 15.4141 5.5 16.6041 6.4L14.4141 8.56C13.8441 8.21 13.1541 8 12.4141 8C11.3532 8 10.3358 8.42143 9.58564 9.17157C8.83549 9.92172 8.41406 10.9391 8.41406 12C8.41406 13.1 8.86406 14.1 9.58406 14.83L7.46406 16.95C6.19406 15.68 5.41406 13.93 5.41406 12C5.41406 10.1435 6.15156 8.36301 7.46431 7.05025C8.77707 5.7375 10.5575 5 12.4141 5ZM18.0141 7.81C18.9141 9 19.4141 10.43 19.4141 12C19.4141 13.93 18.6341 15.68 17.3641 16.95L15.2441 14.83C15.9641 14.1 16.4141 13.1 16.4141 12C16.4141 11.26 16.2041 10.57 15.8441 10L18.0141 7.81Z" fill="black"/>
</g>
</svg>
