<svg width="25" height="24" viewBox="0 0 25 24" fill="none" xmlns="http://www.w3.org/2000/svg">
<g id="585">
<path id="Vector" d="M12.4141 2C6.91406 2 2.41406 6.5 2.41406 12C2.41406 17.5 6.91406 22 12.4141 22C12.8141 22 13.1141 22 13.5141 21.9L15.8141 15.3L15.2141 14.7C15.9141 14 16.4141 13 16.4141 11.9C16.4141 11.2 16.2141 10.5 15.8141 9.9L18.0141 7.7C18.9141 9 19.4141 10.4 19.4141 12H20.4141C20.7141 12 21.0141 12.1 21.2141 12.2C21.2141 12.2 21.3141 12.2 21.3141 12.3C21.7141 12.5 22.1141 12.9 22.3141 13.4C22.4141 12.9 22.4141 12.5 22.4141 12C22.4141 6.5 17.9141 2 12.4141 2ZM14.4141 8.6C13.8141 8.2 13.1141 8 12.4141 8C10.2141 8 8.41406 9.8 8.41406 12C8.41406 13.1 8.81406 14.1 9.61406 14.8L7.51406 16.9C6.21406 15.7 5.41406 13.9 5.41406 12C5.41406 8.1 8.51406 5 12.4141 5C14.0141 5 15.4141 5.5 16.6141 6.4L14.4141 8.6ZM20.4141 14H18.4141L15.2141 23H17.1141L17.8141 21H21.0141L21.7141 23H23.6141L20.4141 14ZM18.2141 19.7L19.4141 16L20.6141 19.7H18.2141Z" fill="black"/>
</g>
</svg>
