<svg width="25" height="24" viewBox="0 0 25 24" fill="none" xmlns="http://www.w3.org/2000/svg">
<g id="586">
<path id="Vector" d="M17.3641 16.95L15.2441 14.83C15.9641 14.1 16.4141 13.1 16.4141 12C16.4141 11.26 16.2041 10.57 15.8441 10L18.0141 7.81C18.9141 9 19.4141 10.43 19.4141 12C19.4141 13.93 18.6341 15.68 17.3641 16.95ZM12.4141 5C13.9841 5 15.4141 5.5 16.6041 6.4L14.4141 8.56C13.8441 8.21 13.1541 8 12.4141 8C11.3532 8 10.3358 8.42143 9.58564 9.17157C8.83549 9.92172 8.41406 10.9391 8.41406 12C8.41406 13.1 8.86406 14.1 9.58406 14.83L7.46406 16.95C6.19406 15.68 5.41406 13.93 5.41406 12C5.41406 10.1435 6.15156 8.36301 7.46431 7.05025C8.77707 5.7375 10.5575 5 12.4141 5ZM12.4141 2C11.1008 2 9.80048 2.25866 8.58723 2.7612C7.37397 3.26375 6.27158 4.00035 5.34299 4.92893C3.46763 6.8043 2.41406 9.34784 2.41406 12C2.41406 14.6522 3.46763 17.1957 5.34299 19.0711C6.27158 19.9997 7.37397 20.7362 8.58723 21.2388C9.80048 21.7413 11.1008 22 12.4141 22C15.0662 22 17.6098 20.9464 19.4851 19.0711C21.3605 17.1957 22.4141 14.6522 22.4141 12C22.4141 6.47 17.9141 2 12.4141 2Z" fill="black"/>
</g>
</svg>
