<svg width="25" height="24" viewBox="0 0 25 24" fill="none" xmlns="http://www.w3.org/2000/svg">
<g id="587">
<path id="Vector" d="M3.91406 19C4.31189 19 4.69342 19.158 4.97472 19.4393C5.25603 19.7206 5.41406 20.1022 5.41406 20.5C5.41406 20.8978 5.25603 21.2794 4.97472 21.5607C4.69342 21.842 4.31189 22 3.91406 22C3.51624 22 3.13471 21.842 2.8534 21.5607C2.5721 21.2794 2.41406 20.8978 2.41406 20.5C2.41406 20.1022 2.5721 19.7206 2.8534 19.4393C3.13471 19.158 3.51624 19 3.91406 19ZM8.91406 16C9.5771 16 10.213 16.2634 10.6818 16.7322C11.1507 17.2011 11.4141 17.837 11.4141 18.5C11.4141 19.163 11.1507 19.7989 10.6818 20.2678C10.213 20.7366 9.5771 21 8.91406 21C8.25102 21 7.61514 20.7366 7.1463 20.2678C6.67745 19.7989 6.41406 19.163 6.41406 18.5C6.41406 17.837 6.67745 17.2011 7.1463 16.7322C7.61514 16.2634 8.25102 16 8.91406 16ZM14.9141 15C13.7241 15 12.6441 14.5 11.9141 13.65C11.1841 14.5 10.1041 15 8.91406 15C6.95406 15 5.32406 13.59 4.98406 11.74C3.48406 11.16 2.41406 9.7 2.41406 8C2.41406 6.93913 2.83549 5.92172 3.58564 5.17157C4.33578 4.42143 5.3532 4 6.41406 4L7.18406 4.07C7.91406 3.41 8.86406 3 9.91406 3C11.1041 3 12.1841 3.5 12.9141 4.35C13.6441 3.5 14.7241 3 15.9141 3C17.8741 3 19.5041 4.41 19.8441 6.26C21.3441 6.84 22.4141 8.3 22.4141 10C22.4141 11.0609 21.9926 12.0783 21.2425 12.8284C20.4923 13.5786 19.4749 14 18.4141 14L17.6441 13.93C16.9141 14.59 15.9641 15 14.9141 15ZM6.41406 6C5.88363 6 5.37492 6.21071 4.99985 6.58579C4.62478 6.96086 4.41406 7.46957 4.41406 8C4.41406 8.53043 4.62478 9.03914 4.99985 9.41421C5.37492 9.78929 5.88363 10 6.41406 10C6.74406 10 7.05406 9.92 7.33406 9.78C7.07406 10.12 6.91406 10.54 6.91406 11C6.91406 11.5304 7.12478 12.0391 7.49985 12.4142C7.87492 12.7893 8.38363 13 8.91406 13C9.51406 13 10.0541 12.73 10.4141 12.31L11.8841 10.63L13.4141 12.34C13.7941 12.74 14.3241 13 14.9141 13C15.9141 13 16.7441 12.26 16.9141 11.3C17.2541 11.73 17.8041 12 18.4141 12C18.9445 12 19.4532 11.7893 19.8283 11.4142C20.2033 11.0391 20.4141 10.5304 20.4141 10C20.4141 9.46957 20.2033 8.96086 19.8283 8.58579C19.4532 8.21071 18.9445 8 18.4141 8C18.0841 8 17.7741 8.08 17.4941 8.22C17.7541 7.88 17.9141 7.46 17.9141 7C17.9141 6.46957 17.7033 5.96086 17.3283 5.58579C16.9532 5.21071 16.4445 5 15.9141 5C15.3241 5 14.7941 5.26 14.4141 5.66L12.8841 7.37L11.4141 5.69C11.0541 5.27 10.5141 5 9.91406 5C8.91406 5 8.08406 5.74 7.91406 6.7C7.57406 6.27 7.02406 6 6.41406 6ZM8.91406 17.5C8.64885 17.5 8.39449 17.6054 8.20696 17.7929C8.01942 17.9804 7.91406 18.2348 7.91406 18.5C7.91406 18.7652 8.01942 19.0196 8.20696 19.2071C8.39449 19.3946 8.64885 19.5 8.91406 19.5C9.17928 19.5 9.43363 19.3946 9.62117 19.2071C9.80871 19.0196 9.91406 18.7652 9.91406 18.5C9.91406 18.2348 9.80871 17.9804 9.62117 17.7929C9.43363 17.6054 9.17928 17.5 8.91406 17.5Z" fill="black"/>
</g>
</svg>
