<svg width="25" height="24" viewBox="0 0 25 24" fill="none" xmlns="http://www.w3.org/2000/svg">
<g id="588">
<path id="Vector" d="M19.4141 15H23.4141V3H19.4141M15.4141 3H6.41406C5.58406 3 4.87406 3.5 4.57406 4.22L1.55406 11.27C1.46406 11.5 1.41406 11.74 1.41406 12V14C1.41406 14.5304 1.62478 15.0391 1.99985 15.4142C2.37492 15.7893 2.88363 16 3.41406 16H9.72406L8.77406 20.57C8.75406 20.67 8.74406 20.77 8.74406 20.88C8.74406 21.3 8.91406 21.67 9.18406 21.94L10.2441 23L16.8241 16.41C17.1941 16.05 17.4141 15.55 17.4141 15V5C17.4141 3.89 16.5141 3 15.4141 3Z" fill="black"/>
</g>
</svg>
