<svg width="25" height="24" viewBox="0 0 25 24" fill="none" xmlns="http://www.w3.org/2000/svg">
<g id="589">
<path id="Vector" d="M19.4141 15V3H23.4141V15H19.4141ZM15.4141 3C15.9445 3 16.4532 3.21071 16.8283 3.58579C17.2033 3.96086 17.4141 4.46957 17.4141 5V15C17.4141 15.55 17.1941 16.05 16.8241 16.41L10.2441 23L9.18406 21.94C8.91406 21.67 8.74406 21.3 8.74406 20.88L8.77406 20.57L9.72406 16H3.41406C2.30406 16 1.41406 15.1 1.41406 14V12C1.41406 11.74 1.46406 11.5 1.55406 11.27L4.57406 4.22C4.87406 3.5 5.58406 3 6.41406 3H15.4141ZM15.4141 5H6.38406L3.41406 12V14H12.1941L11.0641 19.32L15.4141 14.97V5Z" fill="black"/>
</g>
</svg>
