<svg width="25" height="24" viewBox="0 0 25 24" fill="none" xmlns="http://www.w3.org/2000/svg">
<g id="590">
<path id="Vector" d="M23.4141 10C23.4141 8.89 22.5141 8 21.4141 8H15.0941L16.0541 3.43C16.0741 3.33 16.0841 3.22 16.0841 3.11C16.0841 2.7 15.9141 2.32 15.6441 2.05L14.5841 1L8.00406 7.58C7.63406 7.95 7.41406 8.45 7.41406 9V19C7.41406 19.5304 7.62478 20.0391 7.99985 20.4142C8.37492 20.7893 8.88363 21 9.41406 21H18.4141C19.2441 21 19.9541 20.5 20.2541 19.78L23.2741 12.73C23.3641 12.5 23.4141 12.26 23.4141 12V10ZM1.41406 21H5.41406V9H1.41406V21Z" fill="black"/>
</g>
</svg>
