<svg width="25" height="24" viewBox="0 0 25 24" fill="none" xmlns="http://www.w3.org/2000/svg">
<g id="591">
<path id="Vector" d="M5.41406 9V21H1.41406V9H5.41406ZM9.41406 21C8.88363 21 8.37492 20.7893 7.99985 20.4142C7.62478 20.0391 7.41406 19.5304 7.41406 19V9C7.41406 8.45 7.63406 7.95 8.00406 7.59L14.5841 1L15.6441 2.06C15.9141 2.33 16.0841 2.7 16.0841 3.11L16.0541 3.43L15.1041 8H21.4141C22.5241 8 23.4141 8.9 23.4141 10V12C23.4141 12.26 23.3641 12.5 23.2741 12.73L20.2541 19.78C19.9541 20.5 19.2441 21 18.4141 21H9.41406ZM9.41406 19H18.4441L21.4141 12V10H12.6241L13.7541 4.68L9.41406 9.03V19Z" fill="black"/>
</g>
</svg>
