<svg width="25" height="24" viewBox="0 0 25 24" fill="none" xmlns="http://www.w3.org/2000/svg">
<g id="592">
<path id="Vector" d="M13.4141 8.5H11.4141V6.5H13.4141V8.5ZM13.4141 13H11.4141V11H13.4141V13ZM13.4141 17.5H11.4141V15.5H13.4141V17.5ZM22.4141 10V6C22.4141 4.89 21.5141 4 20.4141 4H4.41406C3.88363 4 3.37492 4.21071 2.99985 4.58579C2.62478 4.96086 2.41406 5.46957 2.41406 6V10C3.52406 10 4.41406 10.9 4.41406 12C4.41406 12.5304 4.20335 13.0391 3.82828 13.4142C3.4532 13.7893 2.9445 14 2.41406 14V18C2.41406 18.5304 2.62478 19.0391 2.99985 19.4142C3.37492 19.7893 3.88363 20 4.41406 20H20.4141C20.9445 20 21.4532 19.7893 21.8283 19.4142C22.2033 19.0391 22.4141 18.5304 22.4141 18V14C21.8836 14 21.3749 13.7893 20.9998 13.4142C20.6248 13.0391 20.4141 12.5304 20.4141 12C20.4141 11.4696 20.6248 10.9609 20.9998 10.5858C21.3749 10.2107 21.8836 10 22.4141 10Z" fill="black"/>
</g>
</svg>
