<svg width="25" height="24" viewBox="0 0 25 24" fill="none" xmlns="http://www.w3.org/2000/svg">
<g id="593">
<path id="Vector" d="M20.4141 12C20.4141 12.5304 20.6248 13.0391 20.9998 13.4142C21.3749 13.7893 21.8836 14 22.4141 14V18C22.4141 18.5304 22.2033 19.0391 21.8283 19.4142C21.4532 19.7893 20.9445 20 20.4141 20H4.41406C3.88363 20 3.37492 19.7893 2.99985 19.4142C2.62478 19.0391 2.41406 18.5304 2.41406 18V14C3.52406 14 4.41406 13.1 4.41406 12C4.41406 11.4696 4.20335 10.9609 3.82828 10.5858C3.4532 10.2107 2.9445 10 2.41406 10V6C2.41406 4.89 3.31406 4 4.41406 4H20.4141C20.9445 4 21.4532 4.21071 21.8283 4.58579C22.2033 4.96086 22.4141 5.46957 22.4141 6V10C21.8836 10 21.3749 10.2107 20.9998 10.5858C20.6248 10.9609 20.4141 11.4696 20.4141 12ZM16.9141 16.25C16.9141 14.75 13.9141 14 12.4141 14C10.9141 14 7.91406 14.75 7.91406 16.25V17H16.9141V16.25ZM12.4141 12.25C13.0108 12.25 13.5831 12.0129 14.0051 11.591C14.427 11.169 14.6641 10.5967 14.6641 10C14.6641 9.40326 14.427 8.83097 14.0051 8.40901C13.5831 7.98705 13.0108 7.75 12.4141 7.75C11.8173 7.75 11.245 7.98705 10.8231 8.40901C10.4011 8.83097 10.1641 9.40326 10.1641 10C10.1641 10.5967 10.4011 11.169 10.8231 11.591C11.245 12.0129 11.8173 12.25 12.4141 12.25Z" fill="black"/>
</g>
</svg>
