<svg width="25" height="24" viewBox="0 0 25 24" fill="none" xmlns="http://www.w3.org/2000/svg">
<g id="595" clip-path="url(#clip0_5605_221764)">
<g id="Group">
<path id="Vector" d="M12.4141 6C12.4141 5.45 11.9641 5 11.4141 5H6.23406L6.91406 1.82V1.59C6.91406 1.28 6.78406 1 6.58406 0.79L5.79406 0L0.854063 4.94C0.584063 5.21 0.414062 5.59 0.414062 6V12.5C0.414062 13.33 1.08406 14 1.91406 14H8.66406C9.28406 14 9.81406 13.62 10.0441 13.09L12.3041 7.8C12.3741 7.63 12.4141 7.44 12.4141 7.25V6ZM10.4141 7.13L8.33406 12H2.41406V6.21L4.34406 4.28L3.77406 7H10.4141V7.13ZM22.9141 10H16.1641C15.5441 10 15.0141 10.38 14.7841 10.91L12.5241 16.2C12.4541 16.37 12.4141 16.56 12.4141 16.75V18C12.4141 18.55 12.8641 19 13.4141 19H18.5941L17.9141 22.18V22.42C17.9141 22.73 18.0441 23 18.2441 23.22L19.0341 24L23.9741 19.06C24.2441 18.79 24.4141 18.41 24.4141 18V11.5C24.4141 10.67 23.7441 10 22.9141 10ZM22.4141 17.79L20.4841 19.72L21.0541 17H14.4141V16.87L16.4941 12H22.4141V17.79Z" fill="black"/>
</g>
</g>
<defs>
<clipPath id="clip0_5605_221764">
<rect width="25" height="24" fill="white"/>
</clipPath>
</defs>
</svg>
