<svg width="25" height="24" viewBox="0 0 25 24" fill="none" xmlns="http://www.w3.org/2000/svg">
<g id="596" clip-path="url(#clip0_5605_221767)">
<g id="Group">
<path id="Vector" d="M22.9141 10H16.1641C15.5441 10 15.0141 10.38 14.7841 10.91L12.5241 16.2C12.4541 16.37 12.4141 16.56 12.4141 16.75V18C12.4141 18.2652 12.5194 18.5196 12.707 18.7071C12.8945 18.8946 13.1488 19 13.4141 19H18.5941L17.9141 22.18V22.42C17.9141 22.73 18.0441 23 18.2441 23.22L19.0341 24L23.9741 19.06C24.2441 18.79 24.4141 18.41 24.4141 18V11.5C24.4141 11.1022 24.256 10.7206 23.9747 10.4393C23.6934 10.158 23.3119 10 22.9141 10ZM12.4141 6C12.4141 5.73478 12.3087 5.48043 12.1212 5.29289C11.9336 5.10536 11.6793 5 11.4141 5H6.23406L6.91406 1.82V1.59C6.91406 1.28 6.78406 1 6.58406 0.79L5.79406 0L0.854063 4.94C0.584063 5.21 0.414062 5.59 0.414062 6V12.5C0.414063 12.8978 0.572099 13.2794 0.853403 13.5607C1.13471 13.842 1.51624 14 1.91406 14H8.66406C9.28406 14 9.81406 13.62 10.0441 13.09L12.3041 7.8C12.3741 7.63 12.4141 7.44 12.4141 7.25V6Z" fill="black"/>
</g>
</g>
<defs>
<clipPath id="clip0_5605_221767">
<rect width="25" height="24" fill="white"/>
</clipPath>
</defs>
</svg>
