<svg width="25" height="24" viewBox="0 0 25 24" fill="none" xmlns="http://www.w3.org/2000/svg">
<g id="597">
<path id="Vector" d="M22.4141 10V6C22.4141 4.89 21.5141 4 20.4141 4H4.41406C3.31406 4 2.41406 4.89 2.41406 6V10C3.52406 10 4.41406 10.9 4.41406 12C4.41406 13.1 3.52406 14 2.41406 14V18C2.41406 19.1 3.31406 20 4.41406 20H20.4141C21.5141 20 22.4141 19.1 22.4141 18V14C21.3141 14 20.4141 13.1 20.4141 12C20.4141 10.9 21.3141 10 22.4141 10ZM20.4141 8.54C19.2241 9.23 18.4141 10.53 18.4141 12C18.4141 13.47 19.2241 14.77 20.4141 15.46V18H4.41406V15.46C5.60406 14.77 6.41406 13.47 6.41406 12C6.41406 10.5 5.61406 9.23 4.41406 8.54V6H20.4141V8.54ZM11.4141 15H13.4141V17H11.4141M11.4141 11H13.4141V13H11.4141M11.4141 7H13.4141V9H11.4141V7Z" fill="black"/>
</g>
</svg>
