<svg width="25" height="24" viewBox="0 0 25 24" fill="none" xmlns="http://www.w3.org/2000/svg">
<g id="598">
<path id="Vector" d="M4.41406 4C3.88363 4 3.37492 4.21071 2.99985 4.58579C2.62478 4.96086 2.41406 5.46957 2.41406 6V10C2.9445 10 3.4532 10.2107 3.82828 10.5858C4.20335 10.9609 4.41406 11.4696 4.41406 12C4.41406 12.5304 4.20335 13.0391 3.82828 13.4142C3.4532 13.7893 2.9445 14 2.41406 14V18C2.41406 18.5304 2.62478 19.0391 2.99985 19.4142C3.37492 19.7893 3.88363 20 4.41406 20H20.4141C20.9445 20 21.4532 19.7893 21.8283 19.4142C22.2033 19.0391 22.4141 18.5304 22.4141 18V14C21.8836 14 21.3749 13.7893 20.9998 13.4142C20.6248 13.0391 20.4141 12.5304 20.4141 12C20.4141 11.4696 20.6248 10.9609 20.9998 10.5858C21.3749 10.2107 21.8836 10 22.4141 10V6C22.4141 5.46957 22.2033 4.96086 21.8283 4.58579C21.4532 4.21071 20.9445 4 20.4141 4H4.41406ZM4.41406 6H20.4141V8.54C19.1741 9.25 18.4141 10.57 18.4141 12C18.4141 13.43 19.1741 14.75 20.4141 15.46V18H4.41406V15.46C5.65406 14.75 6.41406 13.43 6.41406 12C6.41406 10.57 5.65406 9.25 4.41406 8.54V6Z" fill="black"/>
</g>
</svg>
