<svg width="25" height="24" viewBox="0 0 25 24" fill="none" xmlns="http://www.w3.org/2000/svg">
<g id="599">
<path id="Vector" d="M4.41406 4C3.88363 4 3.37492 4.21071 2.99985 4.58579C2.62478 4.96086 2.41406 5.46957 2.41406 6V10C3.52406 10 4.41406 10.9 4.41406 12C4.41406 12.5304 4.20335 13.0391 3.82828 13.4142C3.4532 13.7893 2.9445 14 2.41406 14V18C2.41406 18.5304 2.62478 19.0391 2.99985 19.4142C3.37492 19.7893 3.88363 20 4.41406 20H20.4141C20.9445 20 21.4532 19.7893 21.8283 19.4142C22.2033 19.0391 22.4141 18.5304 22.4141 18V14C21.8836 14 21.3749 13.7893 20.9998 13.4142C20.6248 13.0391 20.4141 12.5304 20.4141 12C20.4141 10.89 21.3141 10 22.4141 10V6C22.4141 4.89 21.5141 4 20.4141 4H4.41406ZM15.9141 7L17.4141 8.5L8.91406 17L7.41406 15.5L15.9141 7ZM9.22406 7.04C10.2041 7.04 10.9941 7.83 10.9941 8.81C10.9941 9.27943 10.8076 9.72964 10.4756 10.0616C10.1437 10.3935 9.6935 10.58 9.22406 10.58C8.24406 10.58 7.45406 9.79 7.45406 8.81C7.45406 8.34057 7.64054 7.89036 7.97248 7.55842C8.30442 7.22648 8.75463 7.04 9.22406 7.04ZM15.6041 13.42C16.5841 13.42 17.3741 14.21 17.3741 15.19C17.3741 15.6594 17.1876 16.1096 16.8556 16.4416C16.5237 16.7735 16.0735 16.96 15.6041 16.96C14.6241 16.96 13.8341 16.17 13.8341 15.19C13.8341 14.7206 14.0205 14.2704 14.3525 13.9384C14.6844 13.6065 15.1346 13.42 15.6041 13.42Z" fill="black"/>
</g>
</svg>
