<svg width="25" height="24" viewBox="0 0 25 24" fill="none" xmlns="http://www.w3.org/2000/svg">
<g id="6">
<path id="Vector" d="M10.4102 4C11.471 4 12.4884 4.42143 13.2386 5.17157C13.9887 5.92172 14.4102 6.93913 14.4102 8C14.4102 9.06087 13.9887 10.0783 13.2386 10.8284C12.4884 11.5786 11.471 12 10.4102 12C9.34929 12 8.33187 11.5786 7.58173 10.8284C6.83158 10.0783 6.41016 9.06087 6.41016 8C6.41016 6.93913 6.83158 5.92172 7.58173 5.17157C8.33187 4.42143 9.34929 4 10.4102 4ZM10.4102 14C14.8302 14 18.4102 15.79 18.4102 18V20H2.41016V18C2.41016 15.79 5.99016 14 10.4102 14ZM20.4102 12V7H22.4102V13H20.4102M20.4102 17V15H22.4102V17H20.4102Z" fill="black"/>
</g>
</svg>
