<svg width="25" height="24" viewBox="0 0 25 24" fill="none" xmlns="http://www.w3.org/2000/svg">
<g id="60">
<path id="Vector" d="M21.4102 3H3.41016V9H21.4102V3ZM19.4102 7H5.41016V5H19.4102V7ZM14.9102 11C15.1902 11 15.4102 11.22 15.4102 11.5V13H9.41016V11.5C9.41016 11.22 9.63016 11 9.91016 11H14.9102ZM18.4102 13.09V10H20.4102V13.09C20.0802 13.04 19.7502 13 19.4102 13C19.0702 13 18.7402 13.04 18.4102 13.09ZM13.4102 19C13.4102 19.7 13.5402 20.37 13.7602 21H4.41016V10H6.41016V19H13.4102ZM22.9102 17.25L18.1602 22L15.4102 19L16.5702 17.84L18.1602 19.43L21.7502 15.84L22.9102 17.25Z" fill="black"/>
</g>
</svg>
