<svg width="25" height="24" viewBox="0 0 25 24" fill="none" xmlns="http://www.w3.org/2000/svg">
<g id="600">
<path id="Vector" d="M15.2141 8L16.4141 9.2L9.61406 16L8.41406 14.8L15.2141 8ZM4.41406 4H20.4141C21.5241 4 22.4141 4.89 22.4141 6V10C21.3141 10 20.4141 10.9 20.4141 12C20.4141 13.11 21.3141 14 22.4141 14V18C22.4141 19.11 21.5241 20 20.4141 20H4.41406C3.31406 20 2.41406 19.11 2.41406 18V14C3.52406 14 4.41406 13.11 4.41406 12C4.41406 10.9 3.52406 10 2.41406 10V6C2.41406 4.89 3.31406 4 4.41406 4ZM4.41406 6V8.54C5.65406 9.26 6.41406 10.57 6.41406 12C6.41406 13.43 5.65406 14.75 4.41406 15.46V18H20.4141V15.46C19.1741 14.75 18.4141 13.43 18.4141 12C18.4141 10.57 19.1741 9.26 20.4141 8.54V6H4.41406ZM9.91406 8C10.7441 8 11.4141 8.67 11.4141 9.5C11.4141 10.33 10.7441 11 9.91406 11C9.08406 11 8.41406 10.33 8.41406 9.5C8.41406 8.67 9.08406 8 9.91406 8ZM14.9141 13C15.7441 13 16.4141 13.67 16.4141 14.5C16.4141 15.33 15.7441 16 14.9141 16C14.0841 16 13.4141 15.33 13.4141 14.5C13.4141 13.67 14.0841 13 14.9141 13Z" fill="black"/>
</g>
</svg>
