<svg width="25" height="24" viewBox="0 0 25 24" fill="none" xmlns="http://www.w3.org/2000/svg">
<g id="604">
<path id="Vector" d="M12.4141 20C10.2923 20 8.2575 19.1571 6.75721 17.6569C5.25692 16.1566 4.41406 14.1217 4.41406 12C4.41406 9.87827 5.25692 7.84344 6.75721 6.34315C8.2575 4.84285 10.2923 4 12.4141 4C14.5358 4 16.5706 4.84285 18.0709 6.34315C19.5712 7.84344 20.4141 9.87827 20.4141 12C20.4141 14.1217 19.5712 16.1566 18.0709 17.6569C16.5706 19.1571 14.5358 20 12.4141 20ZM12.4141 2C11.1008 2 9.80048 2.25866 8.58723 2.7612C7.37397 3.26375 6.27158 4.00035 5.34299 4.92893C3.46763 6.8043 2.41406 9.34784 2.41406 12C2.41406 14.6522 3.46763 17.1957 5.34299 19.0711C6.27158 19.9997 7.37397 20.7362 8.58723 21.2388C9.80048 21.7413 11.1008 22 12.4141 22C15.0662 22 17.6098 20.9464 19.4851 19.0711C21.3605 17.1957 22.4141 14.6522 22.4141 12C22.4141 10.6868 22.1554 9.38642 21.6529 8.17317C21.1503 6.95991 20.4137 5.85752 19.4851 4.92893C18.5565 4.00035 17.4542 3.26375 16.2409 2.7612C15.0276 2.25866 13.7273 2 12.4141 2ZM16.6541 7.76C15.4841 6.58 13.9441 6 12.4141 6V12L8.17406 16.24C10.5141 18.58 14.3141 18.58 16.6541 16.24C19.0041 13.9 19.0041 10.1 16.6541 7.76Z" fill="black"/>
</g>
</svg>
