<svg width="25" height="24" viewBox="0 0 25 24" fill="none" xmlns="http://www.w3.org/2000/svg">
<g id="609">
<g id="Group">
<path id="Vector" d="M22.4141 4H10.4141C9.31406 4 8.41406 4.89 8.41406 6V10L6.41406 12L8.41406 14V18C8.41406 19.11 9.31406 20 10.4141 20H22.4141C23.5241 20 24.4141 19.11 24.4141 18V6C24.4141 4.89 23.5241 4 22.4141 4ZM22.4141 18H10.4141V6H22.4141V18ZM4.41406 8H2.41406V2H4.41406V8ZM2.41406 16H4.41406V22H2.41406V16ZM5.41406 12C5.41406 13.11 4.52406 14 3.41406 14C2.31406 14 1.41406 13.11 1.41406 12C1.41406 10.9 2.31406 10 3.41406 10C4.52406 10 5.41406 10.9 5.41406 12ZM15.4141 15.08L12.6641 12.08L13.8241 10.92L15.4141 12.5L19.0041 8.92L20.1641 10.33L15.4141 15.08Z" fill="black"/>
</g>
</g>
</svg>
