<svg width="25" height="24" viewBox="0 0 25 24" fill="none" xmlns="http://www.w3.org/2000/svg">
<g id="61">
<path id="Vector" d="M20.4102 6H2.41016V2H20.4102V6ZM16.9102 12H15.4102V17L19.0202 19.16L19.7702 17.94L16.9102 16.25V12ZM23.4102 16C23.4102 19.87 20.2802 23 16.4102 23C14.0302 23 11.9402 21.81 10.6702 20H3.41016V7H19.4102V9.68C21.7702 10.81 23.4102 13.21 23.4102 16ZM8.41016 12H10.6702C11.2402 11.19 11.9702 10.5 12.8202 10H8.91016C8.63016 10 8.41016 10.22 8.41016 10.5V12ZM21.4102 16C21.4102 13.24 19.1702 11 16.4102 11C13.6502 11 11.4102 13.24 11.4102 16C11.4102 18.76 13.6502 21 16.4102 21C19.1702 21 21.4102 18.76 21.4102 16Z" fill="black"/>
</g>
</svg>
