<svg width="25" height="24" viewBox="0 0 25 24" fill="none" xmlns="http://www.w3.org/2000/svg">
<g id="611">
<g id="Group">
<path id="Vector" d="M4.41406 2V8H2.41406V2H4.41406ZM2.41406 22V16H4.41406V22H2.41406ZM5.41406 12C5.41406 13.11 4.52406 14 3.41406 14C2.31406 14 1.41406 13.11 1.41406 12C1.41406 10.9 2.31406 10 3.41406 10C4.52406 10 5.41406 10.9 5.41406 12ZM16.4141 4C20.8341 4 24.4141 7.58 24.4141 12C24.4141 16.42 20.8341 20 16.4141 20C12.8141 20 9.77406 17.62 8.76406 14.35L6.41406 12L8.76406 9.65C9.77406 6.38 12.8141 4 16.4141 4ZM16.4141 6C13.1041 6 10.4141 8.69 10.4141 12C10.4141 15.31 13.1041 18 16.4141 18C19.7241 18 22.4141 15.31 22.4141 12C22.4141 8.69 19.7241 6 16.4141 6ZM15.4141 13V8H16.9141V12.2L19.9141 14L19.0941 15.26L15.4141 13Z" fill="black"/>
</g>
</g>
</svg>
