<svg width="25" height="24" viewBox="0 0 25 24" fill="none" xmlns="http://www.w3.org/2000/svg">
<g id="618">
<g id="Group">
<path id="Vector" d="M5.41406 12C5.41406 13.11 4.52406 14 3.41406 14C2.31406 14 1.41406 13.11 1.41406 12C1.41406 10.9 2.31406 10 3.41406 10C4.52406 10 5.41406 10.9 5.41406 12ZM4.41406 2V8H2.41406V2H4.41406ZM2.41406 22V16H4.41406V22H2.41406ZM24.4141 6V18C24.4141 19.11 23.5241 20 22.4141 20H10.4141C9.31406 20 8.41406 19.11 8.41406 18V14L6.41406 12L8.41406 10V6C8.41406 4.89 9.31406 4 10.4141 4H22.4141C23.5241 4 24.4141 4.89 24.4141 6ZM22.4141 6H10.4141V10.83L9.24406 12L10.4141 13.17V18H22.4141V6ZM16.9141 15.5V17H15.4141V15.5H16.9141ZM14.9141 10.5H13.4141V10C13.4141 8.34 14.7541 7 16.4141 7C18.0741 7 19.4141 8.34 19.4141 10C19.4141 10.97 18.9141 11.88 18.1241 12.41L17.8241 12.6C17.2541 13 16.9141 13.62 16.9141 14.3V14.5H15.4141V14.3C15.4141 13.11 16.0141 12 17.0041 11.35L17.2941 11.16C17.6841 10.9 17.9141 10.47 17.9141 10C17.9141 9.18 17.2441 8.5 16.4141 8.5C15.5841 8.5 14.9141 9.17 14.9141 10V10.5Z" fill="black"/>
</g>
</g>
</svg>
