<svg width="25" height="24" viewBox="0 0 25 24" fill="none" xmlns="http://www.w3.org/2000/svg">
<g id="619">
<g id="Group">
<path id="Vector" d="M4.41406 8H2.41406V2H4.41406V8ZM2.41406 22H4.41406V16H2.41406V22ZM3.41406 10C2.31406 10 1.41406 10.9 1.41406 12C1.41406 13.11 2.31406 14 3.41406 14C4.52406 14 5.41406 13.11 5.41406 12C5.41406 10.9 4.52406 10 3.41406 10ZM24.4141 6V18C24.4141 19.11 23.5241 20 22.4141 20H10.4141C9.31406 20 8.41406 19.11 8.41406 18V14L6.41406 12L8.41406 10V6C8.41406 4.89 9.31406 4 10.4141 4H22.4141C23.5241 4 24.4141 4.89 24.4141 6ZM17.8241 12L19.9441 9.88L18.5341 8.47L16.4141 10.59L14.2941 8.47L12.8841 9.88L15.0041 12L12.8841 14.12L14.2941 15.53L16.4141 13.41L18.5341 15.53L19.9441 14.12L17.8241 12Z" fill="black"/>
</g>
</g>
</svg>
