<svg width="25" height="24" viewBox="0 0 25 24" fill="none" xmlns="http://www.w3.org/2000/svg">
<g id="62">
<path id="Vector" d="M20.4102 2H2.41016V8H20.4102V2ZM18.4102 6H4.41016V4H18.4102V6ZM16.4102 9C15.1002 9 13.8702 9.37 12.8202 10H8.91016C8.63016 10 8.41016 10.22 8.41016 10.5V12H10.6702C9.88016 13.13 9.41016 14.5 9.41016 16C9.41016 16.7 9.52016 17.37 9.70016 18H5.41016V9H3.41016V20H10.6702C11.9402 21.81 14.0302 23 16.4102 23C20.2802 23 23.4102 19.87 23.4102 16C23.4102 12.13 20.2802 9 16.4102 9ZM16.4102 21C13.6502 21 11.4102 18.76 11.4102 16C11.4102 13.24 13.6502 11 16.4102 11C19.1702 11 21.4102 13.24 21.4102 16C21.4102 18.76 19.1702 21 16.4102 21ZM16.9102 16.25L19.7702 17.94L19.0202 19.16L15.4102 17V12H16.9102V16.25Z" fill="black"/>
</g>
</svg>
