<svg width="25" height="24" viewBox="0 0 25 24" fill="none" xmlns="http://www.w3.org/2000/svg">
<g id="622">
<path id="Vector" d="M18.8641 5.97C18.4141 5.46 17.9641 5 17.4541 4.56L16.0341 6C14.4841 4.74 12.5341 4 10.4141 4C5.44406 4 1.41406 8.03 1.41406 13C1.41406 17.97 5.44406 22 10.4141 22C15.4141 22 19.4141 17.97 19.4141 13C19.4141 10.88 18.6741 8.93 17.4441 7.39L18.8641 5.97ZM11.4141 14H9.41406V7H11.4141V14ZM13.4141 3H7.41406V1H13.4141V3ZM23.4141 7V13H21.4141V7H23.4141ZM21.4141 15H23.4141V17H21.4141V15Z" fill="black"/>
</g>
</svg>
