<svg width="25" height="24" viewBox="0 0 25 24" fill="none" xmlns="http://www.w3.org/2000/svg">
<g id="623">
<path id="Vector" d="M21.2816 14.3699C21.1416 14.0899 20.9116 13.8399 20.6516 13.6299C20.3716 13.4199 20.0416 13.2399 19.6416 13.0999C19.2416 12.9599 18.7916 12.8299 18.2916 12.7199C17.9416 12.6499 17.6516 12.5699 17.4116 12.4999C17.1916 12.4099 17.0116 12.3299 16.8716 12.2399C16.7316 12.1499 16.6416 12.0499 16.5916 11.9399C16.5416 11.8299 16.5116 11.6999 16.5116 11.5499C16.5116 11.3999 16.5416 11.2699 16.6016 11.1399C16.6616 10.9999 16.7516 10.8899 16.8716 10.7999C16.9916 10.6999 17.1416 10.6199 17.3216 10.5599C17.5016 10.4999 17.7216 10.4699 17.9616 10.4699C18.2116 10.4699 18.4116 10.4999 18.6216 10.5799C18.8116 10.6499 18.9716 10.7499 19.1016 10.8699C19.2316 10.9999 19.3216 11.1299 19.4116 11.2899C19.4516 11.4499 19.4916 11.6099 19.4916 11.7799H21.4416C21.4416 11.3899 21.3616 11.0299 21.2016 10.6899C21.0416 10.3499 20.8116 10.0599 20.5116 9.8099C20.2116 9.5599 19.8516 9.3699 19.4116 9.2199C18.9916 9.0699 18.5016 8.9999 17.9616 8.9999C17.4516 8.9999 16.9816 9.0699 16.5716 9.2099C16.1616 9.3499 15.8016 9.5399 15.5116 9.7799C15.2216 9.9999 15.0016 10.2999 14.8416 10.6199C14.6816 10.9399 14.6116 11.2699 14.6116 11.6299C14.6116 11.9999 14.6916 12.3099 14.8416 12.5899C14.9916 12.8699 15.2116 13.1099 15.4816 13.3199C15.7516 13.5299 16.0816 13.6999 16.4616 13.8499C16.8416 13.9999 17.2716 14.1099 17.7316 14.2099C18.1216 14.2899 18.4416 14.3799 18.6816 14.4699C18.9116 14.5599 19.1116 14.6599 19.2516 14.7599C19.3816 14.8599 19.4716 14.9999 19.5216 15.0999C19.5716 15.2199 19.5916 15.3499 19.5916 15.4999C19.5916 15.8099 19.4616 16.0599 19.1916 16.2599C18.9116 16.4599 18.5316 16.5499 18.0216 16.5499C17.8016 16.5499 17.5916 16.5299 17.3816 16.4699C17.1716 16.4199 16.9816 16.3399 16.8216 16.2299C16.6516 16.1199 16.5216 15.9699 16.4116 15.7899C16.3016 15.6099 16.2416 15.3799 16.2316 15.1199H14.3416C14.3416 15.4999 14.4116 15.8299 14.5816 16.1699C14.7416 16.4999 14.9716 16.8199 15.2816 17.0999C15.5916 17.3699 15.9716 17.5899 16.4116 17.7599C16.9116 17.9299 17.4116 17.9999 18.0116 17.9999C18.5416 17.9999 19.0216 17.9499 19.4516 17.8199C19.8816 17.6899 20.2516 17.4999 20.5616 17.2799C20.8716 17.0499 21.1016 16.7699 21.2716 16.4499C21.4416 16.1299 21.5216 15.7799 21.5216 15.3899C21.5016 14.9999 21.4116 14.6499 21.2816 14.3699ZM12.0216 12.9699C11.8616 12.7299 11.6616 12.4999 11.4116 12.3199C11.1516 12.1299 10.8416 11.9699 10.4716 11.8399C10.7716 11.6999 11.0416 11.5399 11.2716 11.3399C11.5016 11.1399 11.6916 10.9299 11.8416 10.6999C11.9916 10.4699 12.1116 10.2399 12.1816 9.9999C12.2616 9.7499 12.2916 9.4999 12.2916 9.2599C12.2916 8.7099 12.2016 8.2199 12.0116 7.7999C11.8316 7.3799 11.5716 7.0299 11.2316 6.7399C10.9116 6.4599 10.5016 6.2399 10.0316 6.0999C9.58156 5.9699 9.06156 5.8999 8.50156 5.8999C7.95156 5.8999 7.44156 5.9999 6.98156 6.1399C6.51156 6.3099 6.11156 6.5399 5.78156 6.8299C5.45156 7.1199 5.18156 7.4599 5.00156 7.8599C4.80156 8.2499 4.71156 8.6899 4.71156 9.1499H6.69156C6.69156 8.8899 6.74156 8.6599 6.83156 8.4599C6.91156 8.2599 7.05156 8.0799 7.21156 7.9399C7.38156 7.7999 7.57156 7.6899 7.79156 7.6099C8.01156 7.5299 8.25156 7.4999 8.52156 7.4999C9.13156 7.4999 9.58156 7.6499 9.88156 7.9599C10.1816 8.2699 10.3216 8.7099 10.3216 9.2799C10.3216 9.5499 10.2816 9.7999 10.2016 9.9999C10.1216 10.2399 9.99156 10.4299 9.82156 10.5899C9.65156 10.7499 9.44156 10.8699 9.19156 10.9599C8.94156 11.0499 8.64156 11.0899 8.30156 11.0899H7.13156V12.6599H8.31156C8.65156 12.6599 8.95156 12.6999 9.22156 12.7699C9.49156 12.8499 9.72156 12.9599 9.91156 13.1199C10.1016 13.2799 10.2516 13.4999 10.3516 13.7299C10.4516 13.9699 10.5116 14.2699 10.5116 14.5999C10.5116 15.2199 10.3316 15.6899 9.98156 15.9999C9.63156 16.3499 9.14156 16.4999 8.53156 16.4999C8.24156 16.4999 7.97156 16.4699 7.73156 16.3799C7.49156 16.2999 7.29156 16.1799 7.12156 15.9999C6.95156 15.8599 6.82156 15.6799 6.73156 15.4599C6.64156 15.2399 6.59156 14.9999 6.59156 14.7399H4.60156C4.60156 15.2899 4.71156 15.7699 4.91156 16.1899C5.13156 16.6099 5.41156 16.9599 5.78156 17.2399C6.14156 17.4999 6.55156 17.7299 7.02156 17.8699C7.49156 17.9999 7.98156 18.0799 8.50156 18.0799C9.07156 18.0799 9.59156 17.9999 10.0816 17.8499C10.5716 17.6999 10.9916 17.4699 11.3416 17.1699C11.7016 16.8699 11.9816 16.4999 12.1816 16.0699C12.3816 15.6399 12.4816 15.1399 12.4816 14.5899C12.4816 14.2999 12.4416 13.9999 12.3716 13.7299C12.2916 13.4999 12.1816 13.2199 12.0216 12.9699Z" fill="black"/>
</g>
</svg>
