<svg width="25" height="24" viewBox="0 0 25 24" fill="none" xmlns="http://www.w3.org/2000/svg">
<g id="624">
<g id="Group">
<path id="Vector" d="M13.3141 13.2199C13.3141 13.8199 13.2741 14.3299 13.1941 14.7499C13.1141 15.1699 12.9941 15.4999 12.8341 15.7699C12.6741 16.0299 12.4741 16.2199 12.2441 16.3399C12.0141 16.4599 11.7341 16.4999 11.4141 16.4999C11.1241 16.4999 10.8441 16.4599 10.6041 16.3399C10.3641 16.2199 10.1641 16.0299 10.0041 15.7699C9.84406 15.4999 9.71406 15.1699 9.62406 14.7499C9.53406 14.3299 9.49406 13.8199 9.49406 13.2199V10.7199C9.49406 10.1199 9.53406 9.6099 9.62406 9.1999C9.71406 8.7899 9.83406 8.4599 10.0041 8.1999C10.1641 7.9499 10.3641 7.7699 10.6041 7.6499C10.8441 7.5399 11.1141 7.4999 11.4141 7.4999C11.7241 7.4999 11.9941 7.5399 12.2241 7.6499C12.4641 7.7599 12.6641 7.9399 12.8241 8.1999C12.9841 8.4499 13.1141 8.7799 13.1941 9.1899C13.2741 9.5999 13.3241 10.1099 13.3241 10.7099V13.2199M14.2341 7.0499C13.9141 6.6499 13.4841 6.3499 13.0041 6.1699C12.5341 5.9999 11.9941 5.8999 11.4141 5.8999C10.8341 5.8999 10.3041 5.9999 9.82406 6.1699C9.34406 6.3499 8.91406 6.6399 8.59406 7.0499C8.25406 7.4599 7.99406 7.9999 7.80406 8.6399C7.62406 9.2899 7.52406 10.0899 7.52406 11.0299V12.9499C7.52406 13.8899 7.61406 14.6899 7.80406 15.3399C7.99406 15.9999 8.25406 16.5299 8.60406 16.9399C8.94406 17.3499 9.35406 17.6499 9.83406 17.8299C10.3141 17.9999 10.8441 18.1099 11.4141 18.1099C12.0141 18.1099 12.5441 17.9999 13.0141 17.8299C13.4941 17.6499 13.9141 17.3499 14.2341 16.9399C14.5741 16.5299 14.8341 15.9999 15.0141 15.3399C15.1941 14.6899 15.2941 13.8899 15.2941 12.9499V11.0299C15.2941 10.0899 15.2041 9.2899 15.0141 8.6399C14.8341 7.9999 14.5741 7.4499 14.2341 7.0499ZM24.1941 14.3699C24.0541 14.0899 23.8441 13.8399 23.5641 13.6299C23.2841 13.4199 22.9541 13.2399 22.5541 13.0999C22.1541 12.9599 21.7041 12.8299 21.2041 12.7199C20.8541 12.6499 20.5641 12.5699 20.3341 12.4999C20.1041 12.4099 19.9141 12.3299 19.7841 12.2399C19.6441 12.1499 19.5541 12.0499 19.5041 11.9399C19.4541 11.8299 19.4141 11.6999 19.4141 11.5499C19.4141 11.4099 19.4541 11.2699 19.5141 11.1399C19.5741 10.9999 19.6641 10.8899 19.7841 10.7999C19.9141 10.6999 20.0541 10.6199 20.2341 10.5599C20.4141 10.4999 20.6341 10.4699 20.8741 10.4699C21.1241 10.4699 21.3441 10.4999 21.5341 10.5799C21.7241 10.6499 21.8841 10.7499 22.0141 10.8699C22.1441 10.9999 22.2341 11.1299 22.3041 11.2899C22.3641 11.4499 22.4141 11.6099 22.4141 11.7799H24.3541C24.3541 11.3899 24.2741 11.0299 24.1141 10.6899C23.9541 10.3499 23.7241 10.0599 23.4141 9.8099C23.1241 9.5599 22.7641 9.3699 22.3341 9.2199C21.9141 9.0699 21.4141 8.9999 20.8741 8.9999C20.3641 8.9999 19.9141 9.0699 19.4841 9.2099C19.0741 9.3499 18.7141 9.5399 18.4141 9.7799C18.1341 9.9999 17.9141 10.2999 17.7541 10.6199C17.5941 10.9399 17.5241 11.2699 17.5241 11.6299C17.5241 11.9999 17.6041 12.3199 17.7541 12.5899C17.9141 12.8699 18.1141 13.1099 18.4141 13.3199C18.6641 13.5299 18.9941 13.6999 19.3741 13.8499C19.7541 13.9999 20.1841 14.1099 20.6441 14.2099C21.0341 14.2899 21.3541 14.3799 21.5941 14.4699C21.8341 14.5599 22.0241 14.6599 22.1641 14.7599C22.2941 14.8599 22.3841 14.9999 22.4141 15.0999C22.4841 15.2199 22.5041 15.3499 22.5041 15.4999C22.5041 15.8099 22.3741 16.0599 22.1041 16.2599C21.8341 16.4599 21.4441 16.5499 20.9141 16.5499C20.7141 16.5499 20.5041 16.5299 20.2941 16.4699C20.0841 16.4199 19.9141 16.3399 19.7341 16.2299C19.5641 16.1199 19.4141 15.9699 19.3241 15.7899C19.2141 15.6099 19.1541 15.3799 19.1441 15.1199H17.2541C17.2541 15.4999 17.3341 15.8299 17.4941 16.1699C17.6541 16.4999 17.8841 16.8199 18.1941 17.0999C18.5041 17.3699 18.8841 17.5899 19.3441 17.7599C19.8041 17.9299 20.3241 17.9999 20.9141 17.9999C21.4541 17.9999 21.9141 17.9499 22.3641 17.8199C22.7941 17.6899 23.1641 17.4999 23.4741 17.2799C23.7841 17.0499 24.0141 16.7699 24.1841 16.4499C24.3541 16.1299 24.4141 15.7799 24.4141 15.3899C24.4141 14.9999 24.3441 14.6499 24.1941 14.3699ZM0.414062 7.7199V9.3999L3.41406 8.3999V17.9999H5.41406V5.9999H5.16406L0.414062 7.7199Z" fill="black"/>
</g>
</g>
</svg>
