<svg width="25" height="24" viewBox="0 0 25 24" fill="none" xmlns="http://www.w3.org/2000/svg">
<g id="627">
<path id="Vector" d="M9.41406 8H11.4141V14H9.41406V8ZM13.4141 1H7.41406V3H13.4141V1ZM17.4441 7.39C18.6741 8.93 19.4141 10.88 19.4141 13C19.4141 17.97 15.4141 22 10.4141 22C5.44406 22 1.41406 17.97 1.41406 13C1.41406 8.03 5.44406 4 10.4141 4C12.5341 4 14.4841 4.74 16.0341 6L17.4541 4.56C17.9641 5 18.4141 5.46 18.8641 5.97L17.4441 7.39ZM17.4141 13C17.4141 9.13 14.2841 6 10.4141 6C6.54406 6 3.41406 9.13 3.41406 13C3.41406 16.87 6.54406 20 10.4141 20C14.2841 20 17.4141 16.87 17.4141 13ZM21.4141 7V13H23.4141V7H21.4141ZM21.4141 17H23.4141V15H21.4141V17Z" fill="black"/>
</g>
</svg>
