<svg width="25" height="24" viewBox="0 0 25 24" fill="none" xmlns="http://www.w3.org/2000/svg">
<g id="628">
<path id="Vector" d="M23.2141 19.4C23.3141 19.4 23.3141 19.5 23.2141 19.6L22.2141 21.3C22.1141 21.4 22.0141 21.4 21.9141 21.4L20.7141 21C20.4141 21.2 20.2141 21.3 19.9141 21.5L19.7141 22.8C19.7141 22.9 19.6141 23 19.5141 23H17.5141C17.4141 23 17.3141 22.9 17.2141 22.8L17.0141 21.5C16.7141 21.4 16.4141 21.2 16.2141 21L15.0141 21.5C14.9141 21.5 14.8141 21.5 14.7141 21.4L13.7141 19.7C13.6141 19.6 13.7141 19.5 13.8141 19.4L14.9141 18.6V17.6L13.8141 16.8C13.7141 16.7 13.7141 16.6 13.7141 16.5L14.7141 14.8C14.8141 14.7 14.9141 14.7 15.0141 14.7L16.2141 15.2C16.5141 15 16.7141 14.9 17.0141 14.7L17.2141 13.4C17.2141 13.3 17.3141 13.2 17.5141 13.2H19.5141C19.6141 13.2 19.7141 13.3 19.7141 13.4L19.9141 14.7C20.2141 14.8 20.5141 15 20.8141 15.2L22.0141 14.7C22.1141 14.7 22.3141 14.7 22.3141 14.8L23.3141 16.5C23.4141 16.6 23.3141 16.7 23.2141 16.8L22.1141 17.6V18.6L23.2141 19.4ZM19.9141 18C19.9141 17.2 19.2141 16.5 18.4141 16.5C17.6141 16.5 16.9141 17.2 16.9141 18C16.9141 18.8 17.6141 19.5 18.4141 19.5C19.2141 19.5 19.9141 18.8 19.9141 18ZM11.4141 18C11.4141 16.5 11.9141 15.1 12.7141 14H11.4141V7H13.4141V13.1C14.7141 11.8 16.4141 11 18.4141 11C19.4141 11 20.4141 11.2 21.3141 11.6C21.0141 10 20.4141 8.6 19.4141 7.4L20.9141 6C20.4141 5.5 19.9141 5 19.4141 4.6L18.0141 6C16.5141 4.7 14.5141 4 12.4141 4C7.41406 4 3.41406 8 3.41406 13C3.41406 18 7.41406 22 12.4141 22H12.7141C11.9141 20.9 11.4141 19.5 11.4141 18ZM15.4141 1H9.41406V3H15.4141V1Z" fill="black"/>
</g>
</svg>
