<svg width="25" height="24" viewBox="0 0 25 24" fill="none" xmlns="http://www.w3.org/2000/svg">
<g id="630">
<path id="Vector" d="M15.4141 3H9.41406V1H15.4141V3ZM19.8041 10.74L11.4141 19.13V21.94C6.91406 21.44 3.41406 17.63 3.41406 13C3.41406 8.03 7.44406 4 12.4141 4C14.5341 4 16.4841 4.74 18.0341 6L19.4541 4.56C19.9641 5 20.4141 5.46 20.8641 5.97L19.4441 7.39C20.0841 8.19 20.5841 9.11 20.9141 10.1C20.5141 10.21 20.1241 10.42 19.8041 10.74ZM13.4141 7H11.4141V14H13.4141V7ZM13.4141 19.96V22H15.4541L21.5841 15.88L19.5441 13.83L13.4141 19.96ZM23.2641 13.47L21.9441 12.15C21.7441 11.95 21.4141 11.95 21.2241 12.15L20.2441 13.13L22.2841 15.17L23.2641 14.19C23.4641 14 23.4641 13.67 23.2641 13.47Z" fill="black"/>
</g>
</svg>
