<svg width="25" height="24" viewBox="0 0 25 24" fill="none" xmlns="http://www.w3.org/2000/svg">
<g id="631">
<path id="Vector" d="M13.4141 14H11.4141V8H13.4141V14ZM15.4141 1H9.41406V3H15.4141V1ZM5.41406 13C5.41406 9.13 8.54406 6 12.4141 6C15.7041 6 18.4641 8.28 19.2041 11.34L19.8041 10.74C20.1241 10.42 20.5141 10.21 20.9141 10.1C20.5941 9.11 20.0841 8.19 19.4441 7.39L20.8641 5.97C20.4141 5.46 19.9641 5 19.4541 4.56L18.0341 6C16.4841 4.74 14.5341 4 12.4141 4C7.44406 4 3.41406 8.03 3.41406 13C3.41406 17.63 6.91406 21.44 11.4141 21.94V19.92C8.02406 19.43 5.41406 16.53 5.41406 13ZM13.4141 19.96V22H15.4541L21.5841 15.88L19.5441 13.83L13.4141 19.96ZM23.2641 13.47L21.9441 12.15C21.7441 11.95 21.4141 11.95 21.2241 12.15L20.2441 13.13L22.2841 15.17L23.2641 14.19C23.4641 14 23.4641 13.67 23.2641 13.47Z" fill="black"/>
</g>
</svg>
