<svg width="25" height="24" viewBox="0 0 25 24" fill="none" xmlns="http://www.w3.org/2000/svg">
<g id="632">
<path id="Vector" d="M15.4141 3H9.41406V1H15.4141V3ZM14.6141 14.5V14.74C13.9141 15.34 13.4141 16.24 13.4141 17.2V20.7C13.4141 21.12 13.5041 21.53 13.6541 21.91C13.2441 21.96 12.8341 22 12.4141 22C7.44406 22 3.41406 17.97 3.41406 13C3.41406 8.03 7.44406 4 12.4141 4C14.5341 4 16.4841 4.74 18.0341 6L19.4541 4.56C19.9641 5 20.4141 5.46 20.8641 5.97L19.4441 7.39C20.1241 8.24 20.6441 9.22 20.9841 10.28C20.4841 10.11 19.9641 10 19.4141 10C16.8141 10 14.6141 12.06 14.6141 14.5ZM13.4141 7H11.4141V14H13.4141V7ZM23.4141 17.3V20.8C23.4141 21.4 22.8141 22 22.1141 22H16.6141C16.0141 22 15.4141 21.4 15.4141 20.7V17.2C15.4141 16.6 16.0141 16 16.6141 16V14.5C16.6141 13.1 18.0141 12 19.4141 12C20.8141 12 22.2141 13.1 22.2141 14.5V16C22.8141 16 23.4141 16.6 23.4141 17.3ZM20.9141 14.5C20.9141 13.7 20.2141 13.2 19.4141 13.2C18.6141 13.2 17.9141 13.7 17.9141 14.5V16H20.9141V14.5Z" fill="black"/>
</g>
</svg>
