<svg width="25" height="24" viewBox="0 0 25 24" fill="none" xmlns="http://www.w3.org/2000/svg">
<g id="633">
<path id="Vector" d="M11.4141 8H13.4141V14H11.4141V8ZM15.4141 1H9.41406V3H15.4141V1ZM12.4141 20C8.54406 20 5.41406 16.87 5.41406 13C5.41406 9.13 8.54406 6 12.4141 6C15.2041 6 17.6141 7.64 18.7341 10C18.7941 10 18.8541 10 18.9141 10C19.6641 10 20.3841 10.16 21.0341 10.44C20.7041 9.32 20.1541 8.28 19.4441 7.39L20.8641 5.97C20.4141 5.46 19.9641 5 19.4541 4.56L18.0341 6C16.4841 4.74 14.5341 4 12.4141 4C7.44406 4 3.41406 8.03 3.41406 13C3.41406 17.97 7.44406 22 12.4141 22C13.6241 22 14.7841 21.76 15.8341 21.33C15.4641 20.81 15.0841 20.22 14.7341 19.6C14.0041 19.85 13.2241 20 12.4141 20ZM22.4141 15.5C22.4141 18.1 18.9141 22 18.9141 22C18.9141 22 15.4141 18.1 15.4141 15.5C15.4141 13.6 17.0141 12 18.9141 12C20.8141 12 22.4141 13.6 22.4141 15.5ZM20.1141 15.6C20.1141 15 19.5141 14.4 18.9141 14.4C18.3141 14.4 17.7141 14.9 17.7141 15.6C17.7141 16.2 18.2141 16.8 18.9141 16.8C19.6141 16.8 20.2141 16.2 20.1141 15.6Z" fill="black"/>
</g>
</svg>
