<svg width="25" height="24" viewBox="0 0 25 24" fill="none" xmlns="http://www.w3.org/2000/svg">
<g id="634">
<path id="Vector" d="M15.4141 3H9.41406V1H15.4141V3ZM13.4141 15.5C13.4141 17.5 14.6941 19.73 15.8341 21.33C14.7841 21.76 13.6241 22 12.4141 22C7.44406 22 3.41406 17.97 3.41406 13C3.41406 8.03 7.44406 4 12.4141 4C14.5341 4 16.4841 4.74 18.0341 6L19.4541 4.56C19.9641 5 20.4141 5.46 20.8641 5.97L19.4441 7.39C20.1541 8.28 20.7041 9.32 21.0341 10.44C20.3841 10.16 19.6641 10 18.9141 10C15.9141 10 13.4141 12.5 13.4141 15.5ZM13.4141 14V7H11.4141V14H13.4141ZM22.4141 15.5C22.4141 18.1 18.9141 22 18.9141 22C18.9141 22 15.4141 18.1 15.4141 15.5C15.4141 13.6 17.0141 12 18.9141 12C20.8141 12 22.4141 13.6 22.4141 15.5ZM20.1141 15.6C20.1141 15 19.5141 14.4 18.9141 14.4C18.3141 14.4 17.7141 14.9 17.7141 15.6C17.7141 16.2 18.2141 16.8 18.9141 16.8C19.6141 16.8 20.2141 16.2 20.1141 15.6Z" fill="black"/>
</g>
</svg>
