<svg width="25" height="24" viewBox="0 0 25 24" fill="none" xmlns="http://www.w3.org/2000/svg">
<g id="635">
<path id="Vector" d="M11.4141 8H13.4141V14H11.4141V8ZM13.4141 19.92C13.0841 19.97 12.7541 20 12.4141 20C8.54406 20 5.41406 16.87 5.41406 13C5.41406 9.13 8.54406 6 12.4141 6C15.2341 6 17.6541 7.67 18.7641 10.06C18.9741 10.04 19.1941 10 19.4141 10C19.9641 10 20.4841 10.11 20.9841 10.28C20.6441 9.22 20.1241 8.24 19.4441 7.39L20.8641 5.97C20.4141 5.46 19.9641 5 19.4541 4.56L18.0341 6C16.4841 4.74 14.5341 4 12.4141 4C7.44406 4 3.41406 8.03 3.41406 13C3.41406 17.97 7.44406 22 12.4141 22C12.8341 22 13.2441 21.96 13.6541 21.91C13.5041 21.53 13.4141 21.12 13.4141 20.7V19.92ZM15.4141 1H9.41406V3H15.4141V1ZM23.4141 17.3V20.8C23.4141 21.4 22.8141 22 22.1141 22H16.6141C16.0141 22 15.4141 21.4 15.4141 20.7V17.2C15.4141 16.6 16.0141 16 16.6141 16V14.5C16.6141 13.1 18.0141 12 19.4141 12C20.8141 12 22.2141 13.1 22.2141 14.5V16C22.8141 16 23.4141 16.6 23.4141 17.3ZM20.9141 14.5C20.9141 13.7 20.2141 13.2 19.4141 13.2C18.6141 13.2 17.9141 13.7 17.9141 14.5V16H20.9141V14.5Z" fill="black"/>
</g>
</svg>
