<svg width="25" height="24" viewBox="0 0 25 24" fill="none" xmlns="http://www.w3.org/2000/svg">
<g id="636">
<path id="Vector" d="M11.4141 8H13.4141V14H11.4141V8ZM13.4141 19.92C13.0841 19.97 12.7541 20 12.4141 20C8.54406 20 5.41406 16.87 5.41406 13C5.41406 9.13 8.54406 6 12.4141 6C14.8541 6 17.0041 7.26 18.2641 9.15C18.6341 9.06 19.0141 9 19.4141 9C19.8041 9 20.1741 9.06 20.5341 9.14C20.2341 8.5 19.8741 7.93 19.4441 7.39L20.8641 5.97C20.4141 5.46 19.9641 5 19.4541 4.56L18.0341 6C16.4841 4.74 14.5341 4 12.4141 4C7.44406 4 3.41406 8.03 3.41406 13C3.41406 17.97 7.44406 22 12.4141 22C12.8341 22 13.2441 21.96 13.6541 21.91C13.5041 21.53 13.4141 21.12 13.4141 20.7V19.92ZM15.4141 1H9.41406V3H15.4141V1ZM22.2141 16H17.9141V13.5C17.9141 12.7 18.6141 12.2 19.4141 12.2C20.2141 12.2 20.9141 12.7 20.9141 13.5V14H22.2141V13.5C22.2141 12.1 20.8141 11 19.4141 11C18.0141 11 16.6141 12.1 16.6141 13.5V16C16.0141 16 15.4141 16.6 15.4141 17.2V20.7C15.4141 21.4 16.0141 22 16.6141 22H22.1141C22.8141 22 23.4141 21.4 23.4141 20.8V17.3C23.4141 16.6 22.8141 16 22.2141 16Z" fill="black"/>
</g>
</svg>
