<svg width="25" height="24" viewBox="0 0 25 24" fill="none" xmlns="http://www.w3.org/2000/svg">
<g id="637">
<path id="Vector" d="M15.4141 3H9.41406V1H15.4141V3ZM14.6141 13.5V14.74C13.9141 15.34 13.4141 16.24 13.4141 17.2V20.7C13.4141 21.12 13.5041 21.53 13.6541 21.91C13.2441 21.96 12.8341 22 12.4141 22C7.44406 22 3.41406 17.97 3.41406 13C3.41406 8.03 7.44406 4 12.4141 4C14.5341 4 16.4841 4.74 18.0341 6L19.4541 4.56C19.9641 5 20.4141 5.46 20.8641 5.97L19.4441 7.39C19.8741 7.93 20.2341 8.5 20.5341 9.14C20.1741 9.06 19.8041 9 19.4141 9C16.8141 9 14.6141 11.06 14.6141 13.5ZM13.4141 7H11.4141V14H13.4141V7ZM22.2141 16H17.9141V13.5C17.9141 12.7 18.6141 12.2 19.4141 12.2C20.2141 12.2 20.9141 12.7 20.9141 13.5V14H22.2141V13.5C22.2141 12.1 20.8141 11 19.4141 11C18.0141 11 16.6141 12.1 16.6141 13.5V16C16.0141 16 15.4141 16.6 15.4141 17.2V20.7C15.4141 21.4 16.0141 22 16.6141 22H22.1141C22.8141 22 23.4141 21.4 23.4141 20.8V17.3C23.4141 16.6 22.8141 16 22.2141 16Z" fill="black"/>
</g>
</svg>
