<svg width="25" height="24" viewBox="0 0 25 24" fill="none" xmlns="http://www.w3.org/2000/svg">
<g id="640">
<path id="Vector" d="M16.9141 16.11V11H21.1841C20.8741 9.66 20.2741 8.43 19.4441 7.39L20.8641 5.97C20.4141 5.46 19.9641 5 19.4541 4.56L18.0341 6C16.4841 4.74 14.5341 4 12.4141 4C7.44406 4 3.41406 8.03 3.41406 13C3.41406 17.97 7.44406 22 12.4141 22C12.8341 22 13.2441 21.96 13.6541 21.91C13.5041 21.46 13.4141 21 13.4141 20.5C13.4141 18.36 14.9141 16.57 16.9141 16.11ZM13.4141 14H11.4141V7H13.4141V14ZM15.4141 3H9.41406V1H15.4141V3ZM22.4141 13V15H20.4141V20.5C20.4141 21.88 19.2941 23 17.9141 23C16.5341 23 15.4141 21.88 15.4141 20.5C15.4141 19.12 16.5341 18 17.9141 18C18.2741 18 18.6041 18.07 18.9141 18.21V13H22.4141Z" fill="black"/>
</g>
</svg>
