<svg width="25" height="24" viewBox="0 0 25 24" fill="none" xmlns="http://www.w3.org/2000/svg">
<g id="641">
<path id="Vector" d="M15.4141 3H9.41406V1H15.4141V3ZM11.4141 14H13.4141V8H11.4141V14ZM13.4641 19.91C13.1241 19.97 12.7741 20 12.4141 20C8.54406 20 5.41406 16.87 5.41406 13C5.41406 9.13 8.54406 6 12.4141 6C15.5841 6 18.2641 8.11 19.1241 11H21.1841C20.8741 9.66 20.2741 8.43 19.4441 7.39L20.8641 5.97C20.4141 5.46 19.9641 5 19.4541 4.56L18.0341 6C16.4841 4.74 14.5341 4 12.4141 4C7.44406 4 3.41406 8.03 3.41406 13C3.41406 17.97 7.44406 22 12.4141 22C12.8341 22 13.2441 21.96 13.6541 21.91C13.5041 21.46 13.4141 21 13.4141 20.5C13.4141 20.3 13.4441 20.11 13.4641 19.91ZM18.9141 13V18.21C18.6041 18.07 18.2741 18 17.9141 18C16.5341 18 15.4141 19.12 15.4141 20.5C15.4141 21.88 16.5341 23 17.9141 23C19.2941 23 20.4141 21.88 20.4141 20.5V15H22.4141V13H18.9141Z" fill="black"/>
</g>
</svg>
