<svg width="25" height="24" viewBox="0 0 25 24" fill="none" xmlns="http://www.w3.org/2000/svg">
<g id="642">
<path id="Vector" d="M3.41406 4L2.16406 5.27L4.91406 8.03C3.96406 9.45 3.41406 11.16 3.41406 13C3.41406 17.97 7.44406 22 12.4141 22C14.2541 22 15.9641 21.45 17.4141 20.5L19.9141 23L21.1641 21.73L13.4541 14L3.41406 4ZM15.4141 1H9.41406V3H15.4141M21.4141 13C21.4141 14.83 20.8641 16.53 19.9141 17.94L13.4141 11.45V7H11.4141V9.45L7.46406 5.5C8.88406 4.55 10.5841 4 12.4141 4C14.5341 4 16.4841 4.74 18.0341 5.97L19.4541 4.55L20.8641 5.97L19.4441 7.39C20.6741 8.93 21.4141 10.88 21.4141 13Z" fill="black"/>
</g>
</svg>
