<svg width="25" height="24" viewBox="0 0 25 24" fill="none" xmlns="http://www.w3.org/2000/svg">
<g id="646">
<path id="Vector" d="M6.41406 8H7.14406L14.4141 15.27V16H6.41406M2.68406 1L1.41406 2.27L3.41406 4.28C2.82406 4.62 2.41406 5.26 2.41406 6V18C2.41406 18.5304 2.62478 19.0391 2.99985 19.4142C3.37492 19.7893 3.88363 20 4.41406 20H19.1441L21.1441 22L22.4141 20.73M20.4141 4H8.23406L12.2341 8H14.4141V10.18L14.9841 10.75L18.4141 8V14.18L22.4141 18.17C22.4141 18.11 22.4141 18.06 22.4141 18V6C22.4141 5.46957 22.2033 4.96086 21.8283 4.58579C21.4532 4.21071 20.9445 4 20.4141 4Z" fill="black"/>
</g>
</svg>
