<svg width="25" height="24" viewBox="0 0 25 24" fill="none" xmlns="http://www.w3.org/2000/svg">
<g id="647">
<path id="Vector" d="M18.4141 16L14.4141 12.8V16H6.41406V8H14.4141V11.2L18.4141 8M20.4141 4H4.41406C3.88363 4 3.37492 4.21071 2.99985 4.58579C2.62478 4.96086 2.41406 5.46957 2.41406 6V18C2.41406 18.5304 2.62478 19.0391 2.99985 19.4142C3.37492 19.7893 3.88363 20 4.41406 20H20.4141C20.9445 20 21.4532 19.7893 21.8283 19.4142C22.2033 19.0391 22.4141 18.5304 22.4141 18V6C22.4141 4.89 21.5141 4 20.4141 4Z" fill="black"/>
</g>
</svg>
