<svg width="25" height="24" viewBox="0 0 25 24" fill="none" xmlns="http://www.w3.org/2000/svg">
<g id="648">
<path id="Vector" d="M5.41406 7H9.41406C9.9445 7 10.4532 7.21071 10.8283 7.58579C11.2033 7.96086 11.4141 8.46957 11.4141 9V15C11.4141 15.5304 11.2033 16.0391 10.8283 16.4142C10.4532 16.7893 9.9445 17 9.41406 17H5.41406V15H9.41406V13H6.41406V11H9.41406V9H5.41406V7ZM13.4141 7H16.4141C17.2097 7 17.9728 7.31607 18.5354 7.87868C19.098 8.44129 19.4141 9.20435 19.4141 10V14C19.4141 14.7956 19.098 15.5587 18.5354 16.1213C17.9728 16.6839 17.2097 17 16.4141 17H13.4141V7ZM16.4141 15C16.6793 15 16.9336 14.8946 17.1212 14.7071C17.3087 14.5196 17.4141 14.2652 17.4141 14V10C17.4141 9.73478 17.3087 9.48043 17.1212 9.29289C16.9336 9.10536 16.6793 9 16.4141 9H15.4141V15H16.4141Z" fill="black"/>
</g>
</svg>
