<svg width="25" height="24" viewBox="0 0 25 24" fill="none" xmlns="http://www.w3.org/2000/svg">
<g id="649">
<path id="Vector" d="M3.02719 2L21.7672 20.74L20.3572 22.15L15.2172 17H13.4172V15.2L11.4172 13.23V15.21C11.3472 15.68 11.1572 16.08 10.8272 16.41C10.4972 16.73 10.0972 16.93 9.62719 17H5.41719V15H9.41719V13H6.41719V11H9.21719L7.20719 9H5.41719V7.23L1.61719 3.41L3.02719 2ZM16.4172 7H16.6372C17.4172 7.07 18.0472 7.36 18.5572 7.88C19.0672 8.39 19.3472 9 19.4172 9.76V14.24C19.3672 14.63 19.2872 15 19.1372 15.3L17.4172 13.6V9.85C17.3672 9.63 17.2572 9.44 17.1072 9.28C16.9472 9.13 16.7572 9.03 16.5372 9H15.4172V11.59L13.4172 9.57V7H16.4172Z" fill="black"/>
</g>
</svg>
