<svg width="25" height="24" viewBox="0 0 25 24" fill="none" xmlns="http://www.w3.org/2000/svg">
<g id="650">
<path id="Vector" d="M14.4141 10V14C14.4141 14.1326 14.3614 14.2598 14.2676 14.3536C14.1738 14.4473 14.0467 14.5 13.9141 14.5H12.9141V9.5H13.9141C14.0467 9.5 14.1738 9.55268 14.2676 9.64645C14.3614 9.74021 14.4141 9.86739 14.4141 10ZM21.4141 6.5V17.5L17.4141 13.5V17C17.4141 17.2652 17.3087 17.5196 17.1212 17.7071C16.9336 17.8946 16.6793 18 16.4141 18H4.41406C4.14885 18 3.89449 17.8946 3.70696 17.7071C3.51942 17.5196 3.41406 17.2652 3.41406 17V7C3.41406 6.73478 3.51942 6.48043 3.70696 6.29289C3.89449 6.10536 4.14885 6 4.41406 6H16.4141C16.6793 6 16.9336 6.10536 17.1212 6.29289C17.3087 6.48043 17.4141 6.73478 17.4141 7V10.5M9.91406 9.5C9.91406 9.10218 9.75603 8.72064 9.47472 8.43934C9.19342 8.15804 8.81189 8 8.41406 8H4.91406V9.5H8.41406V11.25H5.91406V12.75H8.41406V14.5H4.91406V16H8.41406C8.81189 16 9.19342 15.842 9.47472 15.5607C9.75603 15.2794 9.91406 14.8978 9.91406 14.5M15.9141 9.5C15.9141 9.10218 15.756 8.72064 15.4747 8.43934C15.1934 8.15804 14.8119 8 14.4141 8H11.4141V16H14.4141C14.8119 16 15.1934 15.842 15.4747 15.5607C15.756 15.2794 15.9141 14.8978 15.9141 14.5" fill="black"/>
</g>
</svg>
