<svg width="25" height="24" viewBox="0 0 25 24" fill="none" xmlns="http://www.w3.org/2000/svg">
<g id="651">
<path id="Vector" d="M19.4141 3H5.41406C4.88363 3 4.37492 3.21071 3.99985 3.58579C3.62478 3.96086 3.41406 4.46957 3.41406 5V19C3.41406 19.5304 3.62478 20.0391 3.99985 20.4142C4.37492 20.7893 4.88363 21 5.41406 21H19.4141C19.9445 21 20.4532 20.7893 20.8283 20.4142C21.2033 20.0391 21.4141 19.5304 21.4141 19V5C21.4141 4.46957 21.2033 3.96086 20.8283 3.58579C20.4532 3.21071 19.9445 3 19.4141 3ZM12.4141 13.5H11.4141V15H9.91406V13.5H6.91406V9H8.41406V12H9.91406V9H11.4141V12H12.4141V13.5ZM18.4141 15H16.6141L14.8141 12.8V15H13.4141V9H14.9141V11.2L16.6141 9H18.4141L16.2141 12L18.4141 15Z" fill="black"/>
</g>
</svg>
