<svg width="25" height="24" viewBox="0 0 25 24" fill="none" xmlns="http://www.w3.org/2000/svg">
<g id="652">
<path id="Vector" d="M17.4141 10.5L21.4141 6.5V17.5L17.4141 13.5V17C17.4141 17.2652 17.3087 17.5196 17.1212 17.7071C16.9336 17.8946 16.6793 18 16.4141 18H4.41406C4.14885 18 3.89449 17.8946 3.70696 17.7071C3.51942 17.5196 3.41406 17.2652 3.41406 17V7C3.41406 6.73478 3.51942 6.48043 3.70696 6.29289C3.89449 6.10536 4.14885 6 4.41406 6H16.4141C16.6793 6 16.9336 6.10536 17.1212 6.29289C17.3087 6.48043 17.4141 6.73478 17.4141 7V10.5ZM14.4141 16V15C14.4141 13.67 11.7441 13 10.4141 13C9.08406 13 6.41406 13.67 6.41406 15V16H14.4141ZM10.4141 8C9.88363 8 9.37492 8.21071 8.99985 8.58579C8.62478 8.96086 8.41406 9.46957 8.41406 10C8.41406 10.5304 8.62478 11.0391 8.99985 11.4142C9.37492 11.7893 9.88363 12 10.4141 12C10.9445 12 11.4532 11.7893 11.8283 11.4142C12.2033 11.0391 12.4141 10.5304 12.4141 10C12.4141 9.46957 12.2033 8.96086 11.8283 8.58579C11.4532 8.21071 10.9445 8 10.4141 8Z" fill="black"/>
</g>
</svg>
