<svg width="25" height="24" viewBox="0 0 25 24" fill="none" xmlns="http://www.w3.org/2000/svg">
<g id="653">
<path id="Vector" d="M13.4141 7H16.4141C18.0741 7 19.4141 8.34 19.4141 10V14C19.4141 15.66 18.0741 17 16.4141 17H13.4141V7ZM16.4141 15C16.9641 15 17.4141 14.55 17.4141 14V10C17.4141 9.45 16.9641 9 16.4141 9H15.4141V15H16.4141ZM5.41406 7H9.41406C10.5241 7 11.4141 7.9 11.4141 9V11C11.4141 12.11 10.5241 13 9.41406 13H7.41406V15H11.4141V17H5.41406V13C5.41406 11.9 6.31406 11 7.41406 11H9.41406V9H5.41406V7Z" fill="black"/>
</g>
</svg>
