<svg width="25" height="24" viewBox="0 0 25 24" fill="none" xmlns="http://www.w3.org/2000/svg">
<g id="655">
<g id="Group">
<path id="Vector" d="M8.61406 4.99998L6.96406 3.34998C7.22406 3.11998 7.56406 2.99998 7.91406 2.99998H16.9141C17.3119 2.99998 17.6934 3.15802 17.9747 3.43932C18.256 3.72062 18.4141 4.10216 18.4141 4.49998V14.8L16.4141 12.8V4.99998H8.61406ZM0.414062 15H2.41406V8.99998H0.414062V15ZM21.4141 17V6.99998H19.4141V15.8L20.6141 17H21.4141ZM3.41406 17H5.41406V6.99998H3.41406V17ZM18.4141 17.35L22.5241 21.46L21.2541 22.73L18.4141 19.85C18.2441 20.54 17.6241 21 16.9141 21H7.91406C7.51624 21 7.13471 20.8419 6.8534 20.5606C6.5721 20.2793 6.41406 19.8978 6.41406 19.5V7.88998L1.52406 2.99998L2.80406 1.72998L6.50406 5.43998L8.41406 7.33998L16.4141 15.34L18.4141 17.34V17.35ZM16.4141 17.89L8.41406 9.88998V19H16.4141V17.89ZM22.4141 8.99998V15H24.4141V8.99998H22.4141Z" fill="black"/>
</g>
</g>
</svg>
