<svg width="25" height="24" viewBox="0 0 25 24" fill="none" xmlns="http://www.w3.org/2000/svg">
<g id="656">
<g id="Group">
<path id="Vector" d="M16.4141 19H8.41406V5H16.4141M16.9141 3H7.91406C7.51624 3 7.13471 3.15804 6.8534 3.43934C6.5721 3.72064 6.41406 4.10218 6.41406 4.5V19.5C6.41406 19.8978 6.5721 20.2794 6.8534 20.5607C7.13471 20.842 7.51624 21 7.91406 21H16.9141C17.3119 21 17.6934 20.842 17.9747 20.5607C18.256 20.2794 18.4141 19.8978 18.4141 19.5V4.5C18.4141 4.10218 18.256 3.72064 17.9747 3.43934C17.6934 3.15804 17.3119 3 16.9141 3ZM19.4141 17H21.4141V7H19.4141M22.4141 9V15H24.4141V9M3.41406 17H5.41406V7H3.41406M0.414062 15H2.41406V9H0.414062V15Z" fill="black"/>
</g>
</g>
</svg>
