<svg width="25" height="24" viewBox="0 0 25 24" fill="none" xmlns="http://www.w3.org/2000/svg">
<g id="657">
<path id="Vector" d="M4.41406 6C3.88363 6 3.37492 6.21071 2.99985 6.58579C2.62478 6.96086 2.41406 7.46957 2.41406 8V16C2.41406 16.5304 2.62478 17.0391 2.99985 17.4142C3.37492 17.7893 3.88363 18 4.41406 18H20.4141C20.9445 18 21.4532 17.7893 21.8283 17.4142C22.2033 17.0391 22.4141 16.5304 22.4141 16V8C22.4141 7.46957 22.2033 6.96086 21.8283 6.58579C21.4532 6.21071 20.9445 6 20.4141 6H4.41406ZM4.95406 10H7.41406V14H4.95406C4.60406 13.39 4.41406 12.7 4.41406 12C4.41406 11.3 4.60406 10.61 4.95406 10ZM9.41406 10H15.4141V14H9.41406V10ZM17.4141 10H19.8741C20.2241 10.61 20.4141 11.3 20.4141 12C20.4141 12.7 20.2241 13.39 19.8741 14H17.4141V10Z" fill="black"/>
</g>
</svg>
