<svg width="25" height="24" viewBox="0 0 25 24" fill="none" xmlns="http://www.w3.org/2000/svg">
<g id="660">
<path id="Vector" d="M13.4141 19C13.4141 18.7 13.4141 18.3 13.5141 18H8.41406V16H6.41406V8H8.41406V6H16.4141V8H18.4141V13.1C18.7141 13 19.1141 13 19.4141 13C19.7141 13 20.1141 13 20.4141 13.1V8H22.4141V2H16.4141V4H8.41406V2H2.41406V8H4.41406V16H2.41406V22H8.41406V20H13.5141C13.4141 19.7 13.4141 19.3 13.4141 19ZM18.4141 4H20.4141V6H18.4141V4ZM4.41406 4H6.41406V6H4.41406V4ZM6.41406 20H4.41406V18H6.41406V20ZM22.9141 16.9L20.8141 19L22.9141 21.1L21.5141 22.5L19.4141 20.4L17.3141 22.5L15.9141 21.1L18.0141 19L15.9141 16.9L17.3141 15.5L19.4141 17.6L21.5141 15.5L22.9141 16.9Z" fill="black"/>
</g>
</svg>
