<svg width="25" height="24" viewBox="0 0 25 24" fill="none" xmlns="http://www.w3.org/2000/svg">
<g id="664">
<path id="Vector" d="M23.1141 14.4L22.1141 15.4L20.0141 13.3L21.0141 12.3C21.2141 12.1 21.6141 12.1 21.8141 12.3L23.1141 13.6C23.3141 13.8 23.3141 14.1 23.1141 14.4ZM13.4141 19.9L19.5141 13.8L21.6141 15.9L15.5141 22H13.4141V19.9ZM11.4141 19.9V19.1L12.0141 18.5L12.5141 18H8.41406V16H6.41406V8H8.41406V6H16.4141V8H18.4141V12.1L19.5141 11L19.7141 10.8C19.9141 10.6 20.2141 10.4 20.5141 10.3V8H22.5141V2H16.5141V4H8.41406V2H2.41406V8H4.41406V16H2.41406V22H8.41406V20L11.4141 19.9ZM18.4141 4H20.4141V6H18.4141V4ZM4.41406 4H6.41406V6H4.41406V4ZM6.41406 20H4.41406V18H6.41406V20Z" fill="black"/>
</g>
</svg>
