<svg width="25" height="24" viewBox="0 0 25 24" fill="none" xmlns="http://www.w3.org/2000/svg">
<g id="667">
<path id="Vector" d="M3.41406 1H5.41406V3H3.41406V5H1.41406V3C1.41406 2.46957 1.62478 1.96086 1.99985 1.58579C2.37492 1.21071 2.88363 1 3.41406 1ZM14.4141 1C14.9445 1 15.4532 1.21071 15.8283 1.58579C16.2033 1.96086 16.4141 2.46957 16.4141 3V5H14.4141V3H12.4141V1H14.4141ZM20.4141 7C20.9445 7 21.4532 7.21071 21.8283 7.58579C22.2033 7.96086 22.4141 8.46957 22.4141 9V11H20.4141V9H18.4141V7H20.4141ZM22.4141 20C22.4141 20.5304 22.2033 21.0391 21.8283 21.4142C21.4532 21.7893 20.9445 22 20.4141 22H18.4141V20H20.4141V18H22.4141V20ZM20.4141 13H22.4141V16H20.4141V13ZM13.4141 9V7H16.4141V10H14.4141V9H13.4141ZM13.4141 22V20H16.4141V22H13.4141ZM9.41406 22C8.88363 22 8.37492 21.7893 7.99985 21.4142C7.62478 21.0391 7.41406 20.5304 7.41406 20V18H9.41406V20H11.4141V22H9.41406ZM7.41406 16V13H9.41406V14H10.4141V16H7.41406ZM7.41406 3V1H10.4141V3H7.41406ZM3.41406 16C2.88363 16 2.37492 15.7893 1.99985 15.4142C1.62478 15.0391 1.41406 14.5304 1.41406 14V12H3.41406V14H5.41406V16H3.41406ZM1.41406 7H3.41406V10H1.41406V7ZM9.41406 7H11.4141V9H9.41406V11H7.41406V9C7.41406 8.46957 7.62478 7.96086 7.99985 7.58579C8.37492 7.21071 8.88363 7 9.41406 7ZM16.4141 14C16.4141 14.5304 16.2033 15.0391 15.8283 15.4142C15.4532 15.7893 14.9445 16 14.4141 16H12.4141V14H14.4141V12H16.4141V14Z" fill="black"/>
</g>
</svg>
