<svg width="25" height="24" viewBox="0 0 25 24" fill="none" xmlns="http://www.w3.org/2000/svg">
<g id="67">
<path id="Vector" d="M21.4102 7H3.41016V3H21.4102V7ZM9.55016 19.75C9.73016 20.19 9.95016 20.61 10.1902 21H4.41016V8H20.4102V13.55C19.4702 13.19 18.4602 13 17.4102 13C13.9102 13 10.8402 15.06 9.55016 18.25L9.26016 19L9.55016 19.75ZM9.41016 13H15.4102V11.5C15.4102 11.22 15.1902 11 14.9102 11H9.91016C9.63016 11 9.41016 11.22 9.41016 11.5V13ZM17.4102 18C16.8502 18 16.4102 18.44 16.4102 19C16.4102 19.56 16.8502 20 17.4102 20C17.9702 20 18.4102 19.56 18.4102 19C18.4102 18.44 17.9702 18 17.4102 18ZM23.4102 19C22.4702 21.34 20.1402 23 17.4102 23C14.6802 23 12.3502 21.34 11.4102 19C12.3502 16.66 14.6802 15 17.4102 15C20.1402 15 22.4702 16.66 23.4102 19ZM19.9102 19C19.9102 17.62 18.7902 16.5 17.4102 16.5C16.0302 16.5 14.9102 17.62 14.9102 19C14.9102 20.38 16.0302 21.5 17.4102 21.5C18.7902 21.5 19.9102 20.38 19.9102 19Z" fill="black"/>
</g>
</svg>
