<svg width="25" height="24" viewBox="0 0 25 24" fill="none" xmlns="http://www.w3.org/2000/svg">
<g id="670">
<path id="Vector" d="M21.5141 15.5L19.4141 17.6L17.3141 15.5L15.9141 16.9L18.0141 19L15.9141 21.1L17.3141 22.5L19.4141 20.4L21.5141 22.5L22.9141 21.1L20.8141 19L22.9141 16.9L21.5141 15.5ZM16.4141 5V9.6L11.0141 15H9.51406L7.51406 9H8.41406V3H2.41406V9H5.41406L7.41406 15H6.41406V21H12.4141V16.4L17.8141 11H22.4141V5H16.4141ZM6.41406 7H4.41406V5H6.41406V7ZM10.4141 19H8.41406V17H10.4141V19ZM20.4141 9H18.4141V7H20.4141V9Z" fill="black"/>
</g>
</svg>
