<svg width="25" height="24" viewBox="0 0 25 24" fill="none" xmlns="http://www.w3.org/2000/svg">
<g id="673">
<path id="Vector" d="M2.41406 3V9H5.36406L7.36406 15H6.41406V21H12.4141V16.41L17.8241 11H22.4141V5H16.4141V9.57L11.0041 15H9.47406L7.47406 9H8.41406V3H2.41406ZM4.41406 5H6.41406V7H4.41406V5ZM18.4141 7H20.4141V9H18.4141V7ZM21.5641 13C21.4141 13 21.2841 13.05 21.1741 13.16L20.1641 14.18L22.2341 16.25L23.2541 15.24C23.4641 15.03 23.4641 14.67 23.2541 14.46L21.9541 13.16C21.8441 13.05 21.7041 13 21.5641 13ZM19.5641 14.76L13.4141 20.91V23H15.5041L21.6441 16.84L19.5641 14.76ZM8.41406 17H10.4141V19H8.41406V17Z" fill="black"/>
</g>
</svg>
