<svg width="25" height="24" viewBox="0 0 25 24" fill="none" xmlns="http://www.w3.org/2000/svg">
<g id="675">
<path id="Vector" d="M22.4141 8V2H16.4141V5.8L14.8141 8H10.0141L8.41406 5.8V2H2.41406V8H4.41406V16H2.41406V22H8.41406V20H16.4141V22H22.4141V16H20.4141V8H22.4141ZM11.4141 10H13.4141V12H11.4141V10ZM4.41406 4H6.41406V6H4.41406V4ZM6.41406 20H4.41406V18H6.41406V20ZM16.4141 18H8.41406V16H6.41406V8H7.51406L9.41406 10.6V14H15.4141V10.6L17.3141 8H18.4141V16H16.4141V18ZM20.4141 20H18.4141V18H20.4141V20ZM18.4141 6V4H20.4141V6H18.4141Z" fill="black"/>
</g>
</svg>
