<svg width="25" height="24" viewBox="0 0 25 24" fill="none" xmlns="http://www.w3.org/2000/svg">
<g id="676">
<path id="Vector" d="M2.41406 2V8H4.69406L5.98406 16H4.41406V22H10.4141V20.06L15.4141 20.05V22H21.4141V16H19.5841L20.4141 9H22.4141V3H16.4141V6.53L15.2141 8H10.0041L8.41406 5.82V2M4.41406 4H6.41406V6H4.41406M18.4141 5H20.4141V7H18.4141M6.72406 8H7.52406L9.41406 10.59V14H15.4141V10.91L16.9841 9H18.4141L17.5741 16H15.4141V18.06H10.4141V16H8.01406M11.4141 10H13.4141V12H11.4141M6.41406 18H8.41406V20H6.41406M17.4141 18H19.4141V20H17.4141" fill="black"/>
</g>
</svg>
