<svg width="25" height="24" viewBox="0 0 25 24" fill="none" xmlns="http://www.w3.org/2000/svg">
<g id="68">
<path id="Vector" d="M18.4102 12.13V10H20.4102V10.3C20.1902 10.42 19.9802 10.56 19.8002 10.74L18.4102 12.13ZM9.91016 11C9.63016 11 9.41016 11.22 9.41016 11.5V13H15.4102V11.5C15.4102 11.22 15.1902 11 14.9102 11H9.91016ZM6.41016 10H4.41016V21H11.4102V19.13L11.5402 19H6.41016V10ZM21.4102 9H3.41016V3H21.4102V9ZM19.4102 5H5.41016V7H19.4102V5ZM13.4102 19.96V22H15.4502L21.5802 15.88L19.5402 13.83L13.4102 19.96ZM23.2602 13.47L21.9402 12.15C21.7402 11.95 21.4102 11.95 21.2202 12.15L20.2402 13.13L22.2802 15.17L23.2602 14.19C23.4602 14 23.4602 13.67 23.2602 13.47Z" fill="black"/>
</g>
</svg>
