<svg width="25" height="24" viewBox="0 0 25 24" fill="none" xmlns="http://www.w3.org/2000/svg">
<g id="684">
<path id="Vector" d="M3.55406 1C2.9865 1 2.44218 1.22546 2.04085 1.62679C1.63953 2.02812 1.41406 2.57244 1.41406 3.14V5H3.41406V3H5.41406V1H3.55406ZM7.41406 1V3H10.4141V1H7.41406ZM12.4141 1V3H14.4141V5H16.4141V3.14C16.4141 1.96 15.4541 1 14.2741 1H12.4141ZM1.41406 7V10H3.41406V7H1.41406ZM9.41406 7C8.30406 7 7.41406 7.89 7.41406 9C7.41406 11.33 7.41406 16 7.41406 16C7.41406 16 11.9841 16 14.2741 16C14.8416 16 15.3859 15.7745 15.7873 15.3732C16.1886 14.9719 16.4141 14.4276 16.4141 13.86C16.4141 11.57 16.4141 7 16.4141 7C16.4141 7 11.7441 7 9.41406 7ZM18.4141 7V9H20.4141V11H22.4141V9C22.4141 7.89 21.5241 7 20.4141 7H18.4141ZM9.41406 9H14.4141V14H9.41406V9ZM1.41406 12V13.86C1.41406 15.04 2.37406 16 3.55406 16H5.41406V14H3.41406V12H1.41406ZM20.4141 13V16H22.4141V13H20.4141ZM7.41406 18V20C7.41406 21.11 8.30406 22 9.41406 22H11.4141V20H9.41406V18H7.41406ZM20.4141 18V20H18.4141V22H20.4141C21.5241 22 22.4141 21.11 22.4141 20V18H20.4141ZM13.4141 20V22H16.4141V20H13.4141Z" fill="black"/>
</g>
</svg>
