<svg width="25" height="24" viewBox="0 0 25 24" fill="none" xmlns="http://www.w3.org/2000/svg">
<g id="685">
<path id="Vector" d="M23.4141 9V15H20.7641C19.7941 17.12 17.8441 18.78 15.4141 19.54V22H9.41406V19.54C5.91406 18.45 3.41406 15.5 3.41406 12C3.41406 7.58 7.44406 4 12.4141 4C16.1941 4 19.4141 6.07 20.7641 9H23.4141ZM17.4141 15V9H18.4741C17.2641 7.21 15.0041 6 12.4141 6C8.54406 6 5.41406 8.69 5.41406 12C5.41406 14.39 7.05406 16.46 9.41406 17.42V16H15.4141V17.42C16.7041 16.9 17.7641 16.05 18.4741 15H17.4141ZM19.4141 13H21.4141V11H19.4141V13ZM11.4141 20H13.4141V18H11.4141V20Z" fill="black"/>
</g>
</svg>
