<svg width="25" height="24" viewBox="0 0 25 24" fill="none" xmlns="http://www.w3.org/2000/svg">
<g id="686">
<path id="Vector" d="M20.4141 22C21.5241 22 22.4141 21.11 22.4141 20V18H20.4141V20H18.4141V22H20.4141ZM16.4141 22V20H13.4141V22H16.4141ZM11.4141 22V20H9.41406V18H7.41406V20C7.41406 21.11 8.30406 22 9.41406 22H11.4141ZM22.4141 16V13H20.4141V16H22.4141ZM9.41406 16C9.41406 16 9.41406 11.33 9.41406 9C11.7441 9 16.4141 9 16.4141 9C16.4141 9 16.4141 5 16.4141 3C16.4141 1.89 15.5241 1 14.4141 1H3.41406C2.30406 1 1.41406 1.89 1.41406 3V14C1.41406 15.11 2.30406 16 3.41406 16C5.41406 16 9.41406 16 9.41406 16ZM7.41406 14H3.41406V3H14.4141V7H9.41406C8.30406 7 7.41406 7.89 7.41406 9V14ZM22.4141 11V9C22.4141 7.89 21.5241 7 20.4141 7H18.4141V9H20.4141V11H22.4141Z" fill="black"/>
</g>
</svg>
