<svg width="25" height="24" viewBox="0 0 25 24" fill="none" xmlns="http://www.w3.org/2000/svg">
<g id="687">
<path id="Vector" d="M9.41406 2V4.06C7.13406 4.92 5.33406 6.72 4.46406 9H2.41406V15H4.47406C5.33406 17.28 7.13406 19.09 9.41406 19.95V22H15.4141V19.94C17.6941 19.08 19.5041 17.28 20.3641 15H22.4141V9H20.3541C19.4941 6.72 17.6941 4.92 15.4141 4.05V2M11.4141 4H13.4141V6H11.4141M9.41406 6.25V8H15.4141V6.25C16.5941 6.86 17.5541 7.82 18.1641 9H16.4141V15H18.1641C17.5541 16.18 16.5941 17.14 15.4141 17.75V16H9.41406V17.75C8.23406 17.14 7.27406 16.18 6.66406 15H8.41406V9H6.66406C7.27406 7.82 8.23406 6.86 9.41406 6.25ZM4.41406 11H6.41406V13H4.41406M18.4141 11H20.4141V13H18.4141M11.4141 18H13.4141V20H11.4141" fill="black"/>
</g>
</svg>
