<svg width="25" height="24" viewBox="0 0 25 24" fill="none" xmlns="http://www.w3.org/2000/svg">
<g id="688">
<path id="Vector" d="M3.41406 1C2.30406 1 1.41406 1.89 1.41406 3V5H3.41406V3H5.41406V1H3.41406ZM7.41406 1V3H10.4141V1H7.41406ZM12.4141 1V3H14.4141V5H16.4141V3C16.4141 1.89 15.5241 1 14.4141 1H12.4141ZM1.41406 7V10H3.41406V7H1.41406ZM14.4141 7C14.4141 7 14.4141 11.67 14.4141 14C12.0841 14 7.41406 14 7.41406 14C7.41406 14 7.41406 18 7.41406 20C7.41406 21.11 8.30406 22 9.41406 22H20.4141C21.5241 22 22.4141 21.11 22.4141 20V9C22.4141 7.89 21.5241 7 20.4141 7C18.4141 7 14.4141 7 14.4141 7ZM16.4141 9H20.4141V20H9.41406V16H14.4141C15.5241 16 16.4141 15.11 16.4141 14V9ZM1.41406 12V14C1.41406 15.11 2.30406 16 3.41406 16H5.41406V14H3.41406V12H1.41406Z" fill="black"/>
</g>
</svg>
