<svg width="25" height="24" viewBox="0 0 25 24" fill="none" xmlns="http://www.w3.org/2000/svg">
<g id="689">
<path id="Vector" d="M22.4141 9H20.3841C19.1141 5.41 15.7241 3 11.9141 3C9.52711 3 7.23793 3.94821 5.5501 5.63604C3.86227 7.32387 2.91406 9.61305 2.91406 12C2.91406 17 6.94406 21 11.9141 21C15.7241 21 19.1141 18.6 20.4141 15H22.4141M20.4141 11V13H18.4141V11M18.2341 15C17.0741 17.44 14.6141 19 11.9141 19C8.05406 19 4.91406 15.87 4.91406 12C4.91406 8.14 8.05406 5 11.9141 5C14.6141 5 17.0741 6.57 18.2241 9H16.4141V15" fill="black"/>
</g>
</svg>
