<svg width="25" height="24" viewBox="0 0 25 24" fill="none" xmlns="http://www.w3.org/2000/svg">
<g id="69">
<path id="Vector" d="M20.4102 10.3V8H4.41016V21H11.4102V19.13L19.8002 10.74C19.9802 10.56 20.1902 10.42 20.4102 10.3ZM15.4102 13H9.41016V11.5C9.41016 11.22 9.63016 11 9.91016 11H14.9102C15.1902 11 15.4102 11.22 15.4102 11.5V13ZM21.4102 7H3.41016V3H21.4102V7ZM23.2602 14.19L22.2802 15.17L20.2402 13.13L21.2202 12.15C21.4102 11.95 21.7402 11.95 21.9402 12.15L23.2602 13.47C23.4602 13.67 23.4602 14 23.2602 14.19ZM19.5402 13.83L21.5802 15.87L15.4502 22H13.4102V19.96L19.5402 13.83Z" fill="black"/>
</g>
</svg>
