<svg width="25" height="24" viewBox="0 0 25 24" fill="none" xmlns="http://www.w3.org/2000/svg">
<g id="690">
<path id="Vector" d="M3.41406 1C2.30406 1 1.41406 1.89 1.41406 3V14C1.41406 15.11 2.30406 16 3.41406 16C4.74406 16 7.41406 16 7.41406 16C7.41406 16 7.41406 18.67 7.41406 20C7.41406 21.11 8.30406 22 9.41406 22H20.4141C21.5241 22 22.4141 21.11 22.4141 20V9C22.4141 7.89 21.5241 7 20.4141 7C19.0841 7 16.4141 7 16.4141 7C16.4141 7 16.4141 4.33 16.4141 3C16.4141 1.89 15.5241 1 14.4141 1H3.41406ZM3.41406 3H14.4141C14.4141 4.33 14.4141 7 14.4141 7H9.41406C8.30406 7 7.41406 7.89 7.41406 9V14C7.41406 14 4.74406 14 3.41406 14V3ZM9.41406 9H14.4141V14H9.41406V9ZM16.4141 9C16.4141 9 19.0841 9 20.4141 9V20H9.41406C9.41406 18.67 9.41406 16 9.41406 16H14.4141C15.5241 16 16.4141 15.11 16.4141 14V9Z" fill="black"/>
</g>
</svg>
