<svg width="25" height="24" viewBox="0 0 25 24" fill="none" xmlns="http://www.w3.org/2000/svg">
<g id="691">
<path id="Vector" d="M18.9141 2C19.3119 2 19.6934 2.15804 19.9747 2.43934C20.256 2.72064 20.4141 3.10218 20.4141 3.5C20.4141 3.89782 20.256 4.27936 19.9747 4.56066C19.6934 4.84196 19.3119 5 18.9141 5C18.6841 5 18.4641 4.95 18.2641 4.85L14.5741 8.55L14.9141 9C17.1041 7.74 19.6741 7 22.4141 7L23.4141 7.03V9.04L22.4141 9C19.8341 9 17.4141 9.75 15.4141 11.04C15.4141 11.56 15.3116 12.075 15.1126 12.5554C14.9136 13.0359 14.6219 13.4724 14.2542 13.8401C13.8865 14.2079 13.4499 14.4996 12.9695 14.6986C12.489 14.8976 11.9741 15 11.4541 15C10.1641 17 9.41406 19.42 9.41406 22L9.45406 23H7.44406L7.41406 22C7.41406 19.26 8.15406 16.69 9.41406 14.5L8.96406 14.16L5.26406 17.85C5.36406 18.05 5.41406 18.27 5.41406 18.5C5.41406 18.8978 5.25603 19.2794 4.97472 19.5607C4.69342 19.842 4.31189 20 3.91406 20C3.51624 20 3.13471 19.842 2.8534 19.5607C2.5721 19.2794 2.41406 18.8978 2.41406 18.5C2.41406 18.1022 2.5721 17.7206 2.8534 17.4393C3.13471 17.158 3.51624 17 3.91406 17C4.14406 17 4.36406 17.05 4.56406 17.15L8.25406 13.45C7.72406 12.78 7.41406 11.92 7.41406 11C7.41406 9.93913 7.83549 8.92172 8.58564 8.17157C9.33578 7.42143 10.3532 7 11.4141 7C12.3341 7 13.1941 7.31 13.8641 7.84L17.5641 4.15C17.4641 3.95 17.4141 3.73 17.4141 3.5C17.4141 3.10218 17.5721 2.72064 17.8534 2.43934C18.1347 2.15804 18.5162 2 18.9141 2ZM11.4141 9C10.8836 9 10.3749 9.21071 9.99985 9.58579C9.62478 9.96086 9.41406 10.4696 9.41406 11C9.41406 11.5304 9.62478 12.0391 9.99985 12.4142C10.3749 12.7893 10.8836 13 11.4141 13C11.9445 13 12.4532 12.7893 12.8283 12.4142C13.2033 12.0391 13.4141 11.5304 13.4141 11C13.4141 10.4696 13.2033 9.96086 12.8283 9.58579C12.4532 9.21071 11.9445 9 11.4141 9Z" fill="black"/>
</g>
</svg>
