<svg width="25" height="24" viewBox="0 0 25 24" fill="none" xmlns="http://www.w3.org/2000/svg">
<g id="692">
<path id="Vector" d="M3.41406 1C2.30406 1 1.41406 1.89 1.41406 3V14C1.41406 15.11 2.30406 16 3.41406 16H5.41406V14H3.41406V3H14.4141V5H16.4141V3C16.4141 1.89 15.5241 1 14.4141 1H3.41406ZM9.41406 7C8.30406 7 7.41406 7.89 7.41406 9V11H9.41406V9H11.4141V7H9.41406ZM13.4141 7V9H14.4141V10H16.4141V7H13.4141ZM18.4141 7V9H20.4141V20H9.41406V18H7.41406V20C7.41406 21.11 8.30406 22 9.41406 22H20.4141C21.5241 22 22.4141 21.11 22.4141 20V9C22.4141 7.89 21.5241 7 20.4141 7H18.4141ZM14.4141 12V14H12.4141V16H14.4141C15.5241 16 16.4141 15.11 16.4141 14V12H14.4141ZM7.41406 13V16H10.4141V14H9.41406V13H7.41406Z" fill="black"/>
</g>
</svg>
