<svg width="25" height="24" viewBox="0 0 25 24" fill="none" xmlns="http://www.w3.org/2000/svg">
<g id="693">
<path id="Vector" d="M7.91406 4C7.51624 4 7.13471 4.15804 6.8534 4.43934C6.5721 4.72064 6.41406 5.10218 6.41406 5.5C6.41406 5.89782 6.5721 6.27936 6.8534 6.56066C7.13471 6.84196 7.51624 7 7.91406 7C8.54406 7 9.11406 6.6 9.32406 6H13.4141C14.0841 5.33 14.7441 5 15.4141 5H9.32406C9.11406 4.4 8.54406 4 7.91406 4ZM19.4141 5C8.41406 5 14.4141 17 5.41406 17V19C16.4141 19 10.4141 7 19.4141 7V5ZM16.9141 17C16.2841 17 15.7141 17.4 15.5041 18H11.4141C10.7441 18.67 10.0841 19 9.41406 19H15.5041C15.7141 19.6 16.2841 20 16.9141 20C17.3119 20 17.6934 19.842 17.9747 19.5607C18.256 19.2794 18.4141 18.8978 18.4141 18.5C18.4141 18.1022 18.256 17.7206 17.9747 17.4393C17.6934 17.158 17.3119 17 16.9141 17Z" fill="black"/>
</g>
</svg>
