<svg width="25" height="24" viewBox="0 0 25 24" fill="none" xmlns="http://www.w3.org/2000/svg">
<g id="694">
<path id="Vector" d="M20.4141 22C21.5241 22 22.4141 21.11 22.4141 20V9C22.4141 7.89 21.5241 7 20.4141 7C16.7441 7 13.0841 7 9.41406 7C8.30406 7 7.41406 7.89 7.41406 9C7.41406 12.67 7.41406 16.33 7.41406 20C7.41406 21.11 8.30406 22 9.41406 22H20.4141ZM20.4141 20H9.41406V9H20.4141V20ZM5.41406 16V14H3.41406V3H14.4141V5H16.4141V3C16.4141 1.89 15.5241 1 14.4141 1H3.41406C2.30406 1 1.41406 1.89 1.41406 3V14C1.41406 15.11 2.30406 16 3.41406 16H5.41406Z" fill="black"/>
</g>
</svg>
