<svg width="25" height="24" viewBox="0 0 25 24" fill="none" xmlns="http://www.w3.org/2000/svg">
<g id="696">
<path id="Vector" d="M19.4141 3H5.41406C4.31406 3 3.41406 3.9 3.41406 5V19C3.41406 20.1 4.31406 21 5.41406 21H19.4141C20.5141 21 21.4141 20.1 21.4141 19V5C21.4141 3.9 20.5141 3 19.4141 3ZM7.81406 18C6.31406 16.5 5.41406 14.3 5.41406 12C5.41406 9.7 6.31406 7.5 7.81406 6L9.41406 6.7C8.11406 7.9 7.41406 9.9 7.41406 12C7.41406 14.1 8.11406 16.1 9.41406 17.3L7.81406 18ZM13.1141 15L12.3141 13L10.9141 15H9.41406L11.7141 11.9L10.4141 9H11.7141L12.5141 11L13.9141 9H15.4141L13.2141 12L14.5141 15H13.1141ZM17.0141 18L15.4141 17.3C16.7141 16 17.4141 14.1 17.4141 12C17.4141 9.9 16.7141 7.9 15.4141 6.7L17.0141 6C18.5141 7.5 19.4141 9.7 19.4141 12C19.4141 14.3 18.5141 16.5 17.0141 18Z" fill="black"/>
</g>
</svg>
