<svg width="25" height="24" viewBox="0 0 25 24" fill="none" xmlns="http://www.w3.org/2000/svg">
<g id="697">
<path id="Vector" d="M20.824 3C22.214 5.71 22.764 8.84 22.414 12C22.214 15.16 21.114 18.29 19.244 21L17.714 20C19.324 17.57 20.264 14.8 20.414 12C20.754 9.2 20.304 6.43 19.114 4L20.824 3ZM5.58398 3L7.11397 4C5.50397 6.43 4.56396 9.2 4.41396 12C4.07396 14.8 4.53398 17.57 5.71398 20L4.02397 21C2.62397 18.29 2.06396 15.17 2.41396 12C2.61396 8.84 3.71398 5.71 5.58398 3ZM12.494 10.68L14.814 7.45H17.344L13.564 12.45L15.764 17.37H13.504L12.124 14L9.69396 17.33H7.17397L11.074 12.21L8.94396 7.45H11.214L12.494 10.68Z" fill="black"/>
</g>
</svg>
