<svg width="25" height="24" viewBox="0 0 25 24" fill="none" xmlns="http://www.w3.org/2000/svg">
<g id="698">
<path id="Vector" d="M3.41406 7C2.30406 7 1.41406 7.89 1.41406 9V17H3.41406C3.41406 17.7956 3.73013 18.5587 4.29274 19.1213C4.85535 19.6839 5.61841 20 6.41406 20C7.20971 20 7.97277 19.6839 8.53538 19.1213C9.09799 18.5587 9.41406 17.7956 9.41406 17H15.4141C15.4141 17.7956 15.7301 18.5587 16.2927 19.1213C16.8554 19.6839 17.6184 20 18.4141 20C19.2097 20 19.9728 19.6839 20.5354 19.1213C21.098 18.5587 21.4141 17.7956 21.4141 17H23.4141V13C23.4141 11.89 22.5241 11 21.4141 11L18.4141 7H3.41406ZM3.41406 8.5H7.41406V11H3.41406V8.5ZM9.41406 8.5H13.4141V11H9.41406V8.5ZM15.4141 8.5H17.9141L19.8741 11H15.4141V8.5ZM6.41406 15.5C6.81189 15.5 7.19342 15.658 7.47472 15.9393C7.75603 16.2206 7.91406 16.6022 7.91406 17C7.91406 17.3978 7.75603 17.7794 7.47472 18.0607C7.19342 18.342 6.81189 18.5 6.41406 18.5C6.01624 18.5 5.63471 18.342 5.3534 18.0607C5.0721 17.7794 4.91406 17.3978 4.91406 17C4.91406 16.6022 5.0721 16.2206 5.3534 15.9393C5.63471 15.658 6.01624 15.5 6.41406 15.5ZM18.4141 15.5C18.8119 15.5 19.1934 15.658 19.4747 15.9393C19.756 16.2206 19.9141 16.6022 19.9141 17C19.9141 17.3978 19.756 17.7794 19.4747 18.0607C19.1934 18.342 18.8119 18.5 18.4141 18.5C18.0162 18.5 17.6347 18.342 17.3534 18.0607C17.0721 17.7794 16.9141 17.3978 16.9141 17C16.9141 16.6022 17.0721 16.2206 17.3534 15.9393C17.6347 15.658 18.0162 15.5 18.4141 15.5Z" fill="black"/>
</g>
</svg>
