<svg width="25" height="24" viewBox="0 0 25 24" fill="none" xmlns="http://www.w3.org/2000/svg">
<g id="7">
<path id="Vector" d="M10.4102 4C9.34929 4 8.33187 4.42143 7.58173 5.17157C6.83158 5.92172 6.41016 6.93913 6.41016 8C6.41016 9.06087 6.83158 10.0783 7.58173 10.8284C8.33187 11.5786 9.34929 12 10.4102 12C11.471 12 12.4884 11.5786 13.2386 10.8284C13.9887 10.0783 14.4102 9.06087 14.4102 8C14.4102 6.93913 13.9887 5.92172 13.2386 5.17157C12.4884 4.42143 11.471 4 10.4102 4ZM10.4102 6C10.9406 6 11.4493 6.21071 11.8244 6.58579C12.1994 6.96086 12.4102 7.46957 12.4102 8C12.4102 8.53043 12.1994 9.03914 11.8244 9.41421C11.4493 9.78929 10.9406 10 10.4102 10C9.87972 10 9.37102 9.78929 8.99594 9.41421C8.62087 9.03914 8.41016 8.53043 8.41016 8C8.41016 7.46957 8.62087 6.96086 8.99594 6.58579C9.37102 6.21071 9.87972 6 10.4102 6ZM10.4102 13C7.74016 13 2.41016 14.33 2.41016 17V20H11.9102C11.6585 19.394 11.5 18.7534 11.4402 18.1H4.31016V17C4.31016 16.36 7.44016 14.9 10.4102 14.9C10.9102 14.9 11.4102 14.95 11.9102 15.03C12.1668 14.3985 12.5211 13.8114 12.9602 13.29C12.0202 13.1 11.1202 13 10.4102 13ZM17.9102 13C15.4102 13 13.4102 15 13.4102 17.5C13.4102 20 15.4102 22 17.9102 22C20.4102 22 22.4102 20 22.4102 17.5C22.4102 15 20.4102 13 17.9102 13ZM17.9102 14.5C19.5702 14.5 20.9102 15.84 20.9102 17.5C20.9102 18.06 20.7602 18.58 20.4902 19L16.4102 14.92C16.8302 14.65 17.3502 14.5 17.9102 14.5ZM15.3302 16L19.4102 20.08C18.9902 20.35 18.4702 20.5 17.9102 20.5C16.2502 20.5 14.9102 19.16 14.9102 17.5C14.9102 16.94 15.0602 16.42 15.3302 16Z" fill="black"/>
</g>
</svg>
