<svg width="25" height="24" viewBox="0 0 25 24" fill="none" xmlns="http://www.w3.org/2000/svg">
<g id="700">
<path id="Vector" d="M16.4141 13V11H21.4141V13H16.4141ZM15.2441 7.76L18.0741 4.93L19.4841 6.34L16.6541 9.17L15.2441 7.76ZM11.4141 16H13.4141V21H11.4141V16ZM11.4141 3H13.4141V8H11.4141V3ZM5.34406 17.66L8.17406 14.83L9.58406 16.24L6.75406 19.07L5.34406 17.66ZM5.34406 6.34L6.75406 4.93L9.58406 7.76L8.17406 9.17L5.34406 6.34ZM8.41406 13H3.41406V11H8.41406V13ZM19.4841 17.66L18.0741 19.07L15.2441 16.24L16.6541 14.83L19.4841 17.66Z" fill="black"/>
</g>
</svg>
