<svg width="25" height="24" viewBox="0 0 25 24" fill="none" xmlns="http://www.w3.org/2000/svg">
<g id="702">
<path id="Vector" d="M22.4141 20.0001H16.4141C16.4141 18.3401 17.7541 13.0001 19.4141 13.0001C21.0741 13.0001 22.4141 18.3401 22.4141 20.0001ZM12.4141 13.0001C10.7541 13.0001 9.41406 18.3401 9.41406 20.0001H15.4141C15.4141 18.3401 14.0741 13.0001 12.4141 13.0001ZM5.41406 13.0001C3.75406 13.0001 2.41406 18.3401 2.41406 20.0001H8.41406C8.41406 18.3401 7.07406 13.0001 5.41406 13.0001ZM15.2341 6.00005C14.6741 4.44005 12.9441 3.64005 11.4141 4.20005C10.5541 4.50005 9.91406 5.17005 9.59406 6.00005H2.41406V8.00005H4.41406V12.0001H6.41406V8.00005H9.59406C9.91406 8.85005 10.5641 9.50006 11.4141 9.82006V12.0001H13.4141V9.82006C14.2641 9.50006 14.9141 8.85005 15.2341 8.00005H18.4141V12.0001H20.4141V8.00005H22.4141V6.00005H15.2341Z" fill="black"/>
</g>
</svg>
