<svg width="25" height="24" viewBox="0 0 25 24" fill="none" xmlns="http://www.w3.org/2000/svg">
<g id="703">
<path id="Vector" d="M4.41406 22H2.41406V2H4.41406M22.4141 2H20.4141V22H22.4141M11.4141 4V9.18C10.8349 9.3902 10.3345 9.77363 9.9809 10.2782C9.62729 10.7827 9.43759 11.3839 9.43759 12C9.43759 12.6161 9.62729 13.2173 9.9809 13.7218C10.3345 14.2264 10.8349 14.6098 11.4141 14.82V20H13.4141V14.82C13.9932 14.6098 14.4936 14.2264 14.8472 13.7218C15.2008 13.2173 15.3905 12.6161 15.3905 12C15.3905 11.3839 15.2008 10.7827 14.8472 10.2782C14.4936 9.77363 13.9932 9.3902 13.4141 9.18V4H11.4141Z" fill="black"/>
</g>
</svg>
