<svg width="25" height="24" viewBox="0 0 25 24" fill="none" xmlns="http://www.w3.org/2000/svg">
<g id="704">
<path id="Vector" d="M22.4141 2V22H20.4141V13H15.2341C15.0239 13.5792 14.6404 14.0795 14.1359 14.4332C13.6314 14.7868 13.0302 14.9765 12.4141 14.9765C11.7979 14.9765 11.1968 14.7868 10.6922 14.4332C10.1877 14.0795 9.80427 13.5792 9.59406 13H4.41406V22H2.41406V2H4.41406V11H9.59406C9.80427 10.4208 10.1877 9.92046 10.6922 9.56684C11.1968 9.21322 11.7979 9.02352 12.4141 9.02352C13.0302 9.02352 13.6314 9.21322 14.1359 9.56684C14.6404 9.92046 15.0239 10.4208 15.2341 11H20.4141V2H22.4141Z" fill="black"/>
</g>
</svg>
