<svg width="25" height="24" viewBox="0 0 25 24" fill="none" xmlns="http://www.w3.org/2000/svg">
<g id="705">
<path id="Vector" d="M4.41406 22H2.41406V2H4.41406M22.4141 2H20.4141V22H22.4141M17.6541 5.34L13.6541 9.34C13.0942 9.07264 12.4653 8.9854 11.8539 9.09031C11.2424 9.19522 10.6785 9.48711 10.2398 9.92579C9.80117 10.3645 9.50928 10.9284 9.40437 11.5398C9.29947 12.1512 9.3867 12.7802 9.65406 13.34L5.65406 17.34L7.07406 18.76L11.0741 14.76C11.6339 15.0274 12.2628 15.1146 12.8743 15.0097C13.4857 14.9048 14.0496 14.6129 14.4883 14.1742C14.927 13.7355 15.2188 13.1716 15.3238 12.5602C15.4287 11.9487 15.3414 11.3198 15.0741 10.76L19.0741 6.76L17.6541 5.34Z" fill="black"/>
</g>
</svg>
