<svg width="25" height="24" viewBox="0 0 25 24" fill="none" xmlns="http://www.w3.org/2000/svg">
<g id="706">
<path id="Vector" d="M21.0741 20L14.2841 3.81C13.9141 2.97 13.3441 2.29 12.5741 1.77C11.8141 1.26 10.9641 1 10.0241 1C9.18406 1 8.41406 1.21 7.71406 1.63C7.01406 2.05 6.45406 2.62 6.04406 3.32C5.63406 4.02 5.41406 4.8 5.41406 5.64L5.44406 9H2.44406V14.45C3.06406 14.17 3.72406 14.03 4.41406 14.03V11.03H9.41406C9.98406 11.03 10.4541 11.23 10.8441 11.62C11.2341 12 11.4141 12.47 11.4141 13V20.03H9.32406C9.17406 20.75 8.85406 21.41 8.38406 22H13.4141V13C13.4141 12.28 13.2141 11.62 12.8641 11C12.5141 10.38 12.0241 9.91 11.4141 9.56C10.8341 9.2 10.1641 9 9.41406 9H7.41406V5.64C7.41406 4.92 7.66406 4.31 8.17406 3.79C8.68406 3.27 9.30406 3 10.0241 3C10.5541 3 11.0441 3.16 11.4741 3.46C11.9041 3.76 12.2241 4.14 12.4141 4.61L18.8741 20L16.4141 20.03V22H23.4141V20.03L21.0741 20ZM4.41406 18C4.96406 18 5.41406 18.45 5.41406 19C5.41406 19.55 4.96406 20 4.41406 20C3.86406 20 3.41406 19.55 3.41406 19C3.41406 18.45 3.86406 18 4.41406 18ZM4.41406 16C2.75406 16 1.41406 17.34 1.41406 19C1.41406 20.66 2.75406 22 4.41406 22C6.07406 22 7.41406 20.66 7.41406 19C7.41406 17.34 6.07406 16 4.41406 16Z" fill="black"/>
</g>
</svg>
