<svg width="25" height="24" viewBox="0 0 25 24" fill="none" xmlns="http://www.w3.org/2000/svg">
<g id="707">
<path id="Vector" d="M23.4141 20V22H16.4141V20H18.8741L12.4141 4.61C12.2241 4.14 11.9141 3.76 11.4741 3.46C11.0341 3.16 10.5541 3 10.0241 3C9.31406 3 8.69406 3.27 8.17406 3.79C7.65406 4.31 7.41406 4.92 7.41406 5.64V9H8.41406C10.6241 9 12.4141 10.79 12.4141 13V22H8.41406C9.02406 21.16 9.41406 20.13 9.41406 19C9.41406 16.24 7.17406 14 4.41406 14C3.70406 14 3.02406 14.15 2.41406 14.42V9H5.41406V5.64C5.41406 4.8 5.64406 4 6.04406 3.32C6.45406 2.62 7.00406 2.06 7.71406 1.63C8.41406 1.21 9.18406 1 10.0241 1C10.9641 1 11.8141 1.26 12.5741 1.77C13.3341 2.28 13.9141 2.97 14.2841 3.81L21.0741 20H23.4141ZM7.41406 19C7.41406 20.66 6.07406 22 4.41406 22C2.75406 22 1.41406 20.66 1.41406 19C1.41406 17.34 2.75406 16 4.41406 16C6.07406 16 7.41406 17.34 7.41406 19ZM5.41406 19C5.41406 18.45 4.96406 18 4.41406 18C3.86406 18 3.41406 18.45 3.41406 19C3.41406 19.55 3.86406 20 4.41406 20C4.96406 20 5.41406 19.55 5.41406 19Z" fill="black"/>
</g>
</svg>
