<svg width="25" height="24" viewBox="0 0 25 24" fill="none" xmlns="http://www.w3.org/2000/svg">
<g id="709">
<path id="Vector" d="M15.4109 7V11H16.4109V13H13.4109V5H15.4109L12.4109 1L9.41094 5H11.4109V13H8.41094V10.93C9.11094 10.56 9.61094 9.85 9.61094 9C9.61094 7.78 8.62094 6.8 7.41094 6.8C6.19094 6.8 5.21094 7.78 5.21094 9C5.21094 9.85 5.71094 10.56 6.41094 10.93V13C6.41094 13.5304 6.62165 14.0391 6.99672 14.4142C7.3718 14.7893 7.8805 15 8.41094 15H11.4109V18.05C10.7009 18.41 10.2109 19.15 10.2109 20C10.2109 20.5835 10.4427 21.1431 10.8553 21.5556C11.2679 21.9682 11.8275 22.2 12.4109 22.2C12.9944 22.2 13.554 21.9682 13.9666 21.5556C14.3792 21.1431 14.6109 20.5835 14.6109 20C14.6109 19.15 14.1209 18.41 13.4109 18.05V15H16.4109C16.9414 15 17.4501 14.7893 17.8252 14.4142C18.2002 14.0391 18.4109 13.5304 18.4109 13V11H19.4109V7H15.4109Z" fill="black"/>
</g>
</svg>
