<svg width="25" height="24" viewBox="0 0 25 24" fill="none" xmlns="http://www.w3.org/2000/svg">
<g id="71">
<path id="Vector" d="M14.9102 11C15.0802 11 15.2302 11.09 15.3202 11.22C14.9702 11.76 14.7502 12.36 14.6702 13H9.41016V11.5C9.41016 11.22 9.63016 11 9.91016 11H14.9102ZM13.4102 19H6.41016V10H4.41016V21H13.4402C13.4102 20.9 13.4102 20.8 13.4102 20.7V19ZM21.4102 9H3.41016V3H21.4102V9ZM19.4102 5H5.41016V7H19.4102V5ZM22.2102 16H17.9102V13.5C17.9102 12.7 18.6102 12.2 19.4102 12.2C20.2102 12.2 20.9102 12.7 20.9102 13.5V14H22.2102V13.5C22.2102 12.1 20.8102 11 19.4102 11C18.0102 11 16.6102 12.1 16.6102 13.5V16C16.0102 16 15.4102 16.6 15.4102 17.2V20.7C15.4102 21.4 16.0102 22 16.6102 22H22.1102C22.8102 22 23.4102 21.4 23.4102 20.8V17.3C23.4102 16.6 22.8102 16 22.2102 16Z" fill="black"/>
</g>
</svg>
