<svg width="25" height="24" viewBox="0 0 25 24" fill="none" xmlns="http://www.w3.org/2000/svg">
<g id="711">
<path id="Vector" d="M8.41406 13C10.0741 13 11.4141 14.34 11.4141 16C11.4141 17.66 10.0741 19 8.41406 19C6.75406 19 5.41406 17.66 5.41406 16C5.41406 14.34 6.75406 13 8.41406 13ZM8.41406 15C7.86406 15 7.41406 15.45 7.41406 16C7.41406 16.55 7.86406 17 8.41406 17C8.96406 17 9.41406 16.55 9.41406 16C9.41406 15.45 8.96406 15 8.41406 15ZM10.1841 4.33L10.9141 5.08L14.7041 1.29C14.8841 1.11 15.1341 1 15.4141 1C15.6941 1 15.9441 1.11 16.1241 1.29L23.1941 8.36V8.37C23.3341 8.54 23.4141 8.76 23.4141 9C23.4141 9.3 23.2841 9.57 23.0741 9.76L19.3441 13.5L20.0841 14.23L13.3641 20.95C12.0941 22.22 10.3441 23 8.41406 23C4.54406 23 1.41406 19.87 1.41406 16C1.41406 14.07 2.19406 12.32 3.46406 11.05L10.1841 4.33ZM11.9541 19.54L17.2541 14.23L10.1841 7.16L4.87406 12.46C3.97406 13.37 3.41406 14.62 3.41406 16C3.41406 18.76 5.65406 21 8.41406 21C9.79406 21 11.0441 20.44 11.9541 19.54ZM15.4841 4.69L16.9141 6.1L15.4841 7.5L14.0741 6.1L15.4841 4.69ZM18.3141 7.5L19.7241 8.93L18.3141 10.34L16.9141 8.93L18.3141 7.5ZM21.0041 9L15.4141 3.41L12.3441 6.5L17.9141 12.08L21.0041 9Z" fill="black"/>
</g>
</svg>
