<svg width="25" height="24" viewBox="0 0 25 24" fill="none" xmlns="http://www.w3.org/2000/svg">
<g id="715">
<path id="Vector" d="M15.4141 20C15.4141 19.7348 15.3087 19.4804 15.1212 19.2929C14.9336 19.1054 14.6793 19 14.4141 19H13.4141V17H17.4141C17.9445 17 18.4532 16.7893 18.8283 16.4142C19.2033 16.0391 19.4141 15.5304 19.4141 15V5C19.4141 4.46957 19.2033 3.96086 18.8283 3.58579C18.4532 3.21071 17.9445 3 17.4141 3H7.41406C6.88363 3 6.37492 3.21071 5.99985 3.58579C5.62478 3.96086 5.41406 4.46957 5.41406 5V15C5.41406 15.5304 5.62478 16.0391 5.99985 16.4142C6.37492 16.7893 6.88363 17 7.41406 17H11.4141V19H10.4141C10.1488 19 9.89449 19.1054 9.70696 19.2929C9.51942 19.4804 9.41406 19.7348 9.41406 20H2.41406V22H9.41406C9.41406 22.2652 9.51942 22.5196 9.70696 22.7071C9.89449 22.8946 10.1488 23 10.4141 23H14.4141C14.6793 23 14.9336 22.8946 15.1212 22.7071C15.3087 22.5196 15.4141 22.2652 15.4141 22H22.4141V20H15.4141ZM7.41406 15V5H17.4141V15H7.41406ZM12.4141 6L8.41406 10H11.4141V14H13.4141V10H16.4141L12.4141 6Z" fill="black"/>
</g>
</svg>
