<svg width="25" height="24" viewBox="0 0 25 24" fill="none" xmlns="http://www.w3.org/2000/svg">
<g id="717">
<path id="Vector" d="M17.4141 3C17.9445 3 18.4532 3.21071 18.8283 3.58579C19.2033 3.96086 19.4141 4.46957 19.4141 5V15C19.4141 15.5304 19.2033 16.0391 18.8283 16.4142C18.4532 16.7893 17.9445 17 17.4141 17H13.4141V19H14.4141C14.6793 19 14.9336 19.1054 15.1212 19.2929C15.3087 19.4804 15.4141 19.7348 15.4141 20H22.4141V22H15.4141C15.4141 22.2652 15.3087 22.5196 15.1212 22.7071C14.9336 22.8946 14.6793 23 14.4141 23H10.4141C10.1488 23 9.89449 22.8946 9.70696 22.7071C9.51942 22.5196 9.41406 22.2652 9.41406 22H2.41406V20H9.41406C9.41406 19.7348 9.51942 19.4804 9.70696 19.2929C9.89449 19.1054 10.1488 19 10.4141 19H11.4141V17H7.41406C6.30406 17 5.41406 16.1 5.41406 15V5C5.41406 4.46957 5.62478 3.96086 5.99985 3.58579C6.37492 3.21071 6.88363 3 7.41406 3H17.4141ZM12.4141 5.5L7.91406 10H11.4141V14H13.4141V10H16.9141L12.4141 5.5Z" fill="black"/>
</g>
</svg>
