<svg width="25" height="24" viewBox="0 0 25 24" fill="none" xmlns="http://www.w3.org/2000/svg">
<g id="718">
<path id="Vector" d="M2.41406 12C2.41406 14.6522 3.46763 17.1957 5.34299 19.0711C6.27158 19.9997 7.37397 20.7362 8.58723 21.2388C9.80048 21.7413 11.1008 22 12.4141 22C15.0662 22 17.6098 20.9464 19.4851 19.0711C21.3605 17.1957 22.4141 14.6522 22.4141 12C22.4141 10.6868 22.1554 9.38642 21.6529 8.17317C21.1503 6.95991 20.4137 5.85752 19.4851 4.92893C18.5565 4.00035 17.4542 3.26375 16.2409 2.7612C15.0276 2.25866 13.7273 2 12.4141 2C11.1008 2 9.80048 2.25866 8.58723 2.7612C7.37397 3.26375 6.27158 4.00035 5.34299 4.92893C3.46763 6.8043 2.41406 9.34784 2.41406 12ZM5.65406 18.76C3.84406 16.95 2.85406 14.55 2.85406 12C2.85406 9.45 3.84406 7.05 5.65406 5.24C7.46406 3.43 9.86406 2.44 12.4141 2.44C14.9641 2.44 17.3641 3.43 19.1741 5.24C20.9841 7.05 21.9741 9.45 21.9741 12C21.9741 14.55 20.9841 16.95 19.1741 18.76C17.3641 20.57 14.9641 21.56 12.4141 21.56C9.86406 21.56 7.46406 20.57 5.65406 18.76ZM6.76406 9.5C4.75406 11.79 5.14406 13.68 5.14406 13.68C5.14406 13.68 5.69406 12.38 7.02406 11C7.66406 10.37 8.13406 10.15 8.45406 10.15C8.81406 10.15 8.98406 10.41 8.98406 10.65V15.29C8.98406 15.75 8.68406 15.85 8.41406 15.84C8.18406 15.84 7.96406 15.76 7.96406 15.76C9.33406 17.73 12.6041 18 12.6041 18L14.0441 16.5H14.0841L15.4141 17.63C17.8041 16.21 18.9641 13.58 18.9641 13.58C17.9141 14.7 17.2041 14.97 16.8041 14.96C16.4441 14.96 16.2941 14.75 16.2941 14.75C16.2841 14.65 16.2341 8.9 16.3041 8.9C16.7241 8.13 18.0441 6.56 18.0441 6.56C15.5741 7.05 14.2241 8.66 14.2241 8.66C13.8241 8.35 13.0041 8.4 13.0041 8.4C13.3841 8.61 13.7641 9.21 13.7641 9.72V14.65C13.7641 14.65 12.9141 15.38 12.2941 15.38C11.9141 15.38 11.6841 15.17 11.5541 15C11.4641 14.88 11.4141 14.79 11.4141 14.79V8.69C11.3441 8.75 11.2341 8.8 11.1241 8.8C10.9841 8.79 10.8441 8.73 10.7541 8.53C10.6741 8.38 10.6341 8.15 10.6341 7.83C10.6341 6.7 11.9141 5.96 11.9141 5.96C10.2841 6.39 8.77406 7.22 6.76406 9.5Z" fill="black"/>
</g>
</svg>
