<svg width="25" height="24" viewBox="0 0 25 24" fill="none" xmlns="http://www.w3.org/2000/svg">
<g id="719">
<path id="Vector" d="M21.4128 10.12H14.6328L17.3728 7.3C14.6428 4.6 10.2228 4.5 7.49285 7.2C4.76285 9.91 4.76285 14.28 7.49285 17C10.2228 19.7 14.6428 19.7 17.3728 17C18.7328 15.65 19.4128 14.08 19.4128 12.1H21.4128C21.4128 14.08 20.5328 16.65 18.7728 18.39C15.2628 21.87 9.56285 21.87 6.05285 18.39C2.55285 14.92 2.52285 9.28 6.03285 5.81C9.54285 2.34 15.1728 2.34 18.6828 5.81L21.4128 3V10.12ZM12.9128 8V12.25L16.4128 14.33L15.6928 15.54L11.4128 13V8H12.9128Z" fill="black"/>
</g>
</svg>
