<svg width="25" height="24" viewBox="0 0 25 24" fill="none" xmlns="http://www.w3.org/2000/svg">
<g id="72">
<path id="Vector" d="M15.4102 12.06C15.2002 12.35 15.0502 12.67 14.9102 13H9.41016V11.5C9.41016 11.22 9.63016 11 9.91016 11H14.9102C15.1902 11 15.4102 11.22 15.4102 11.5V12.06ZM21.4102 9H3.41016V3H21.4102V9ZM19.4102 5H5.41016V7H19.4102V5ZM13.4102 19H6.41016V10H4.41016V21H13.4402C13.4102 20.9 13.4102 20.8 13.4102 20.7V19ZM23.4102 17.3V20.8C23.4102 21.4 22.8102 22 22.1102 22H16.6102C16.0102 22 15.4102 21.4 15.4102 20.7V17.2C15.4102 16.6 16.0102 16 16.6102 16V14.5C16.6102 13.1 18.0102 12 19.4102 12C20.8102 12 22.2102 13.1 22.2102 14.5V16C22.8102 16 23.4102 16.6 23.4102 17.3ZM20.9102 14.5C20.9102 13.7 20.2102 13.2 19.4102 13.2C18.6102 13.2 17.9102 13.7 17.9102 14.5V16H20.9102V14.5Z" fill="black"/>
</g>
</svg>
