<svg width="25" height="24" viewBox="0 0 25 24" fill="none" xmlns="http://www.w3.org/2000/svg">
<g id="723">
<path id="Vector" d="M22.4141 22H17.4141C16.9141 22 16.4141 21.5 16.4141 21V17C16.4141 16.5 16.9141 16 17.4141 16V14.5C17.4141 13.1 18.5141 12 19.9141 12C21.3141 12 22.4141 13.1 22.4141 14.5V16C22.9141 16 23.4141 16.5 23.4141 17V21C23.4141 21.5 22.9141 22 22.4141 22ZM5.41406 18H14.4141V20H5.41406V18ZM21.4141 16V14.5C21.4141 13.7 20.7141 13 19.9141 13C19.1141 13 18.4141 13.7 18.4141 14.5V16H21.4141ZM9.41406 16V10H5.41406L12.4141 3L19.4141 10H15.4141V16H9.41406ZM10.2441 8H11.4141V14H13.4141V8H14.5841L12.4141 5.83L10.2441 8Z" fill="black"/>
</g>
</svg>
