<svg width="25" height="24" viewBox="0 0 25 24" fill="none" xmlns="http://www.w3.org/2000/svg">
<g id="724">
<path id="Vector" d="M13.4141 9.09V5H14.4141C14.9641 5 15.4141 4.55 15.4141 4C15.4141 3.45 14.9641 3 14.4141 3H10.4141C9.86406 3 9.41406 3.45 9.41406 4C9.41406 4.55 9.86406 5 10.4141 5H11.4141V9.09C8.57406 9.57 6.41406 12.03 6.41406 15C6.41406 18.31 9.10406 21 12.4141 21C15.7241 21 18.4141 18.31 18.4141 15C18.4141 12.03 16.2541 9.57 13.4141 9.09ZM12.4141 19C10.2041 19 8.41406 17.21 8.41406 15C8.41406 13.14 9.69406 11.59 11.4141 11.14V16H13.4141V11.14C15.1341 11.59 16.4141 13.14 16.4141 15C16.4141 17.21 14.6241 19 12.4141 19Z" fill="black"/>
</g>
</svg>
