<svg width="25" height="24" viewBox="0 0 25 24" fill="none" xmlns="http://www.w3.org/2000/svg">
<g id="726">
<path id="Vector" d="M22.4125 5L21.5225 6.34C22.0625 6.7 22.4125 7.31 22.4125 8V11.5L20.9125 12L19.3725 9.54C19.2425 9.33 18.9125 9.42 18.9125 9.67V13.25C18.9125 14.23 18.5225 15.11 17.9125 15.78V22H15.4125V17C15.3325 17 15.2525 17 15.1625 17C14.9525 17 14.7425 16.97 14.5425 16.94L9.8625 16.16L8.9825 18.12L9.9525 22H7.3725L6.4525 18.3C6.3825 18.03 6.4125 17.74 6.5225 17.5L7.4125 15.5C6.5325 14.92 5.9425 13.94 5.9125 12.81C5.8725 12.96 5.8525 13.18 5.8825 13.5C5.9125 13.94 6.0225 14.59 5.9525 15.31C5.9125 16.03 5.5925 16.77 5.1725 17.26C4.7325 17.75 4.2625 18.09 3.7625 18.35L3.0625 17.65C3.2525 17.18 3.4425 16.76 3.4825 16.37C3.5425 16 3.4725 15.7 3.3625 15.43L2.8325 14.3C2.6225 13.79 2.3625 13.05 2.4125 12.18C2.4425 11.33 2.9125 10.22 3.8025 9.61C4.7025 9 5.6725 8.91 6.4625 9.08C6.9625 9.18 7.4725 9.42 7.9125 9.76C8.2825 9.59 8.7125 9.5 9.1625 9.5H14.9125V9C14.9125 6.79 16.7025 5 18.9125 5L22.4125 2L21.4125 5H22.4125Z" fill="black"/>
</g>
</svg>
