<svg width="25" height="24" viewBox="0 0 25 24" fill="none" xmlns="http://www.w3.org/2000/svg">
<g id="727">
<path id="Vector" d="M22.4141 6C22.4088 6.38374 22.2527 6.74998 21.9794 7.01947C21.7062 7.28896 21.3378 7.44004 20.9541 7.44C20.572 7.43742 20.2062 7.28519 19.9351 7.01598C19.664 6.74676 19.5093 6.38201 19.5041 6C19.4987 5.80577 19.5322 5.61243 19.6026 5.43131C19.6729 5.25019 19.7787 5.08494 19.9138 4.94524C20.0488 4.80554 20.2104 4.69419 20.389 4.61774C20.5677 4.54129 20.7598 4.50126 20.9541 4.5C21.1492 4.49993 21.3424 4.53897 21.5222 4.61483C21.702 4.6907 21.8647 4.80183 22.0008 4.94167C22.137 5.08151 22.2436 5.24721 22.3146 5.42899C22.3856 5.61077 22.4194 5.80493 22.4141 6ZM21.9741 8.86H19.9441C19.8141 8.85 19.7541 8.91 19.7541 9V12.59C19.7541 13.08 19.7541 13.5 19.7641 13.86L19.7841 14.76C19.7941 15 19.8041 15.21 19.8041 15.39C19.8141 15.56 19.8141 15.72 19.8141 15.86H19.7941C19.6741 15.6 19.4841 15.22 19.2341 14.74C18.9941 14.27 18.7041 13.72 18.3841 13.11C18.0541 12.5 17.7041 11.84 17.3341 11.15C16.9641 10.47 16.5941 9.78 16.2241 9.11C15.8641 8.43 15.5041 7.78 15.1641 7.16C14.8141 6.54 14.5141 6 14.2641 5.54C14.2341 5.5 14.2041 5.44 14.1841 5.42C14.1541 5.4 14.0941 5.39 14.0141 5.39H11.0341C10.9141 5.39 10.8841 5.44 10.8841 5.54H10.9141C10.8841 5.56 10.8841 5.57 10.8841 5.58V13.84C10.8841 14.5 10.8141 15 10.6641 15.45C10.5141 15.88 10.3141 16.23 10.0541 16.5C9.79406 16.75 9.48406 16.93 9.13406 17.05C8.77406 17.16 8.41406 17.22 7.97406 17.22C6.95406 17.22 6.20406 16.91 5.71406 16.31C5.21406 15.7 4.97406 14.89 4.97406 13.88V5.56C4.97406 5.45 4.91406 5.39 4.80406 5.39H2.58406C2.47406 5.39 2.41406 5.45 2.41406 5.58V14.07C2.41406 15 2.54406 15.78 2.79406 16.46C3.04406 17.13 3.41406 17.69 3.91406 18.14C4.37406 18.58 4.94406 18.92 5.62406 19.14C6.30406 19.36 7.05406 19.5 7.88406 19.5C8.65406 19.5 9.38406 19.38 10.0641 19.17C10.7541 18.97 11.3441 18.64 11.8341 18.2C12.3241 17.75 12.7141 17.18 13.0041 16.5C13.2941 15.79 13.4441 14.95 13.4441 13.96V8.62C13.5541 8.86 13.6941 9.15 13.8541 9.47C14.1441 10.05 14.4641 10.68 14.8341 11.38C15.2041 12.08 15.5841 12.8 15.9941 13.56C16.4141 14.32 16.8041 15.06 17.1841 15.76C17.5741 16.46 17.9141 17.11 18.2441 17.7C18.5641 18.29 18.8141 18.76 18.9941 19.12C19.0441 19.22 19.1441 19.27 19.2641 19.27H21.9541C22.0941 19.27 22.1641 19.2 22.1641 19.08V9.05C22.1641 8.92 22.0941 8.85 21.9741 8.85V8.86Z" fill="black"/>
</g>
</svg>
