<svg width="25" height="24" viewBox="0 0 25 24" fill="none" xmlns="http://www.w3.org/2000/svg">
<g id="732">
<path id="Vector" d="M2.41406 2H6.41406V3H13.4141V2H17.4141V6H16.4141V9H18.4141V8H22.4141V12H21.4141V18H22.4141V22H18.4141V21H12.4141V22H8.41406V18H9.41406V16H6.41406V17H2.41406V13H3.41406V6H2.41406V2ZM18.4141 12V11H16.4141V13H17.4141V17H13.4141V16H11.4141V18H12.4141V19H18.4141V18H19.4141V12H18.4141ZM13.4141 6V5H6.41406V6H5.41406V13H6.41406V14H9.41406V12H8.41406V8H12.4141V9H14.4141V6H13.4141ZM12.4141 12H11.4141V14H13.4141V13H14.4141V11H12.4141V12Z" fill="black"/>
</g>
</svg>
