<svg width="25" height="24" viewBox="0 0 25 24" fill="none" xmlns="http://www.w3.org/2000/svg">
<g id="733">
<path id="Vector" d="M13.9141 7C15.638 7 17.2913 7.68482 18.5103 8.90381C19.7292 10.1228 20.4141 11.7761 20.4141 13.5C20.4141 15.2239 19.7292 16.8772 18.5103 18.0962C17.2913 19.3152 15.638 20 13.9141 20H10.4141V18H13.9141C16.4141 18 18.4141 16 18.4141 13.5C18.4141 11 16.4141 9 13.9141 9H8.24406L11.3241 12.09L9.91406 13.5L4.41406 8L9.91406 2.5L11.3341 3.91L8.24406 7H13.9141ZM6.41406 18H8.41406V20H6.41406V18Z" fill="black"/>
</g>
</svg>
