<svg width="25" height="24" viewBox="0 0 25 24" fill="none" xmlns="http://www.w3.org/2000/svg">
<g id="735">
<path id="Vector" d="M12.4141 4C9.31406 4 6.59406 6.03 5.71406 9H19.1141C18.2341 6.04 15.5041 4 12.4141 4ZM12.4141 2C14.801 2 17.0902 2.94821 18.778 4.63604C20.4659 6.32387 21.4141 8.61305 21.4141 11H13.4141V19C13.4141 19.7956 13.098 20.5587 12.5354 21.1213C11.9728 21.6839 11.2097 22 10.4141 22C9.61841 22 8.85535 21.6839 8.29274 21.1213C7.73013 20.5587 7.41406 19.7956 7.41406 19V18H9.41406V19C9.41406 19.2652 9.51942 19.5196 9.70696 19.7071C9.89449 19.8946 10.1488 20 10.4141 20C10.6793 20 10.9336 19.8946 11.1212 19.7071C11.3087 19.5196 11.4141 19.2652 11.4141 19V11H3.41406C3.41406 8.61305 4.36227 6.32387 6.0501 4.63604C7.73793 2.94821 10.0271 2 12.4141 2Z" fill="black"/>
</g>
</svg>
