<svg width="25" height="24" viewBox="0 0 25 24" fill="none" xmlns="http://www.w3.org/2000/svg">
<g id="736">
<path id="Vector" d="M15.4141 7L13.4141 6V3.5C13.4141 3.2 13.6141 3 13.9141 3C14.2141 3 14.4141 3.2 14.4141 3.5V4H16.4141V3.5C16.4141 2.1 15.3141 1 13.9141 1C12.5141 1 11.4141 2.1 11.4141 3.5V6L9.41406 7L6.41406 6L11.5141 21.3C11.8141 22.2 13.1141 22.2 13.4141 21.3C15.0141 16.2 18.4141 6 18.4141 6L15.4141 7ZM11.4141 15L9.41406 8.9L10.1141 9.1L11.4141 8.1V15ZM13.4141 8.1L14.7141 9.1L15.4141 8.9L13.4141 15V8.1Z" fill="black"/>
</g>
</svg>
