<svg width="25" height="24" viewBox="0 0 25 24" fill="none" xmlns="http://www.w3.org/2000/svg">
<g id="738">
<path id="Vector" d="M11.8259 2C5.62592 2 2.94592 7.53 2.94592 7.53L3.73592 8.09C3.73592 8.09 2.74592 10 2.76592 12.4C2.76592 17.34 6.70592 22 12.4859 22C17.7459 22 22.0859 17.71 22.0859 12.41C22.0859 5.5 16.7259 2 11.8259 2ZM11.8859 3.69C16.7259 3.69 20.4859 7.6 20.4859 12.14C20.4859 16.95 16.8659 20.3 12.6459 20.3C9.54592 20.3 6.74592 17.94 6.74592 14.7C6.74592 12.82 7.73592 11.5 8.85592 10.82L9.01592 11C8.71592 11.24 7.84592 12.64 7.84592 14C7.84592 16.56 9.84592 18.33 12.3659 18.33C15.5759 18.33 17.7159 15.59 17.7159 12.41C17.7159 8.71 14.4459 5.57 10.5159 5.57C8.34592 5.57 6.50592 6.5 5.44592 7.33L5.27592 7.18C6.66592 5.04 9.06592 3.69 11.8859 3.69ZM10.4159 7.23C12.9459 7.23 15.3859 8.89 16.0059 11.25L15.7759 11.33C14.6859 9.88 12.8859 8.68 10.7659 8.68C6.85592 8.68 4.80592 12.23 5.10592 15.19L4.87592 15.28C4.87592 15.28 4.44592 14.33 4.44592 13.2C4.44592 9.93 7.12592 7.23 10.4159 7.23ZM12.0959 11.33C13.2759 11.33 14.2259 12.3 14.2259 13.44C14.2259 14.38 13.6259 14.94 13.6259 14.94L14.3359 15.45C14.3359 15.45 13.6259 16.57 12.1759 16.57C10.7859 16.57 9.54592 15.44 9.54592 13.93C9.54592 12.38 10.8859 11.33 12.0959 11.33Z" fill="black"/>
</g>
</svg>
