<svg width="25" height="24" viewBox="0 0 25 24" fill="none" xmlns="http://www.w3.org/2000/svg">
<g id="739">
<path id="Vector" d="M22.4141 12C22.4141 14.6522 21.3605 17.1957 19.4851 19.0711C17.6098 20.9464 15.0662 22 12.4141 22C11.1008 22 9.80048 21.7413 8.58723 21.2388C7.37397 20.7362 6.27158 19.9997 5.34299 19.0711C3.46763 17.1957 2.41406 14.6522 2.41406 12C2.41406 9.34784 3.46763 6.8043 5.34299 4.92893C7.21836 3.05357 9.7619 2 12.4141 2C13.7273 2 15.0276 2.25866 16.2409 2.7612C17.4542 3.26375 18.5565 4.00035 19.4851 4.92893C20.4137 5.85752 21.1503 6.95991 21.6529 8.17317C22.1554 9.38642 22.4141 10.6868 22.4141 12ZM14.7541 7.74C15.3341 8.07 16.0641 7.87 16.4141 7.3C16.7241 6.73 16.5341 6 15.9541 5.66C15.3841 5.33 14.6441 5.5 14.3141 6.1C13.9841 6.67 14.1841 7.41 14.7541 7.74ZM12.2941 15.5C11.7641 15.5 11.2641 15.39 10.8241 15.18L9.98406 16.68C10.6841 17 11.4641 17.22 12.2941 17.22C12.7841 17.22 13.2441 17.15 13.6941 17.03C13.7741 16.54 14.0541 16.1 14.5141 15.84C14.9741 15.57 15.4941 15.55 15.9541 15.72C16.8441 14.85 17.4141 13.66 17.5041 12.33L15.7941 12.31C15.6341 14.1 14.1341 15.5 12.2941 15.5ZM12.2941 8.5C14.1341 8.5 15.6341 9.89 15.7941 11.69L17.5041 11.66C17.4141 10.34 16.8441 9.15 15.9541 8.28C15.4941 8.45 14.9641 8.42 14.5141 8.16C14.0541 7.9 13.7741 7.45 13.6941 6.97C13.2441 6.85 12.7841 6.78 12.2941 6.78C11.4641 6.78 10.6841 6.97 9.98406 7.32L10.8241 8.82C11.2641 8.61 11.7641 8.5 12.2941 8.5ZM8.78406 12C8.78406 10.81 9.37406 9.76 10.2741 9.13L9.41406 7.65C8.35406 8.36 7.56406 9.43 7.24406 10.69C7.62406 11 7.86406 11.47 7.86406 12C7.86406 12.53 7.62406 13 7.24406 13.31C7.56406 14.56 8.35406 15.64 9.41406 16.34L10.2741 14.87C9.37406 14.24 8.78406 13.19 8.78406 12ZM14.7541 16.26C14.1841 16.59 13.9841 17.32 14.3141 17.9C14.6441 18.47 15.3841 18.67 15.9541 18.34C16.5341 18 16.7241 17.27 16.4141 16.7C16.0641 16.12 15.3341 15.93 14.7541 16.26ZM6.17406 10.8C5.51406 10.8 4.97406 11.34 4.97406 12C4.97406 12.66 5.51406 13.2 6.17406 13.2C6.84406 13.2 7.37406 12.66 7.37406 12C7.37406 11.34 6.84406 10.8 6.17406 10.8Z" fill="black"/>
</g>
</svg>
