<svg width="25" height="24" viewBox="0 0 25 24" fill="none" xmlns="http://www.w3.org/2000/svg">
<g id="74">
<path id="Vector" d="M14.9102 11C15.1302 11 15.3102 11.14 15.3802 11.33C14.8302 11.79 14.3702 12.36 14.0402 13H9.41016V11.5C9.41016 11.22 9.63016 11 9.91016 11H14.9102ZM21.4102 9H3.41016V3H21.4102V9ZM19.4102 5H5.41016V7H19.4102V5ZM6.41016 19V10H4.41016V21H15.6002C15.1902 20.4 14.7702 19.72 14.4102 19H6.41016ZM22.4102 15.5C22.4102 18.1 18.9102 22 18.9102 22C18.9102 22 15.4102 18.1 15.4102 15.5C15.4102 13.6 17.0102 12 18.9102 12C20.8102 12 22.4102 13.6 22.4102 15.5ZM20.1102 15.6C20.1102 15 19.5102 14.4 18.9102 14.4C18.3102 14.4 17.7102 14.9 17.7102 15.6C17.7102 16.2 18.2102 16.8 18.9102 16.8C19.6102 16.8 20.2102 16.2 20.1102 15.6Z" fill="black"/>
</g>
</svg>
