<svg width="25" height="24" viewBox="0 0 25 24" fill="none" xmlns="http://www.w3.org/2000/svg">
<g id="741">
<path id="Vector" d="M17.4141 10.54C17.1941 7.44 15.0441 5 12.4141 5C9.78406 5 7.63406 7.44 7.41406 10.54C4.41406 11.23 2.41406 12.5 2.41406 14C2.41406 16.21 6.91406 18 12.4141 18C17.9141 18 22.4141 16.21 22.4141 14C22.4141 12.5 20.4141 11.23 17.4141 10.54ZM15.3441 11.84C13.4441 12.05 11.3841 12.05 9.48406 11.84C9.44406 11.56 9.41406 11.28 9.41406 11C9.41406 8.8 10.7641 7 12.4141 7C14.0641 7 15.4141 8.8 15.4141 11C15.4141 11.28 15.4141 11.56 15.3441 11.84Z" fill="black"/>
</g>
</svg>
