<svg width="25" height="24" viewBox="0 0 25 24" fill="none" xmlns="http://www.w3.org/2000/svg">
<g id="742">
<path id="Vector" d="M9.41406 7H11.4141V11H13.4141V7H15.4141V17H13.4141V13H11.4141V17H9.41406V7ZM17.4141 7H20.4141C21.2097 7 21.9728 7.31607 22.5354 7.87868C23.098 8.44129 23.4141 9.20435 23.4141 10V14C23.4141 14.7956 23.098 15.5587 22.5354 16.1213C21.9728 16.6839 21.2097 17 20.4141 17H17.4141V7ZM20.4141 15C20.6793 15 20.9336 14.8946 21.1212 14.7071C21.3087 14.5196 21.4141 14.2652 21.4141 14V10C21.4141 9.73478 21.3087 9.48043 21.1212 9.29289C20.9336 9.10536 20.6793 9 20.4141 9H19.4141V15H20.4141ZM7.41406 14C7.41406 14.7956 7.09799 15.5587 6.53538 16.1213C5.97277 16.6839 5.20971 17 4.41406 17C3.61841 17 2.85535 16.6839 2.29274 16.1213C1.73013 15.5587 1.41406 14.7956 1.41406 14V7H3.41406V14C3.41406 14.2652 3.51942 14.5196 3.70696 14.7071C3.89449 14.8946 4.14885 15 4.41406 15C4.67928 15 4.93363 14.8946 5.12117 14.7071C5.30871 14.5196 5.41406 14.2652 5.41406 14V7H7.41406V14Z" fill="black"/>
</g>
</svg>
