<svg width="25" height="24" viewBox="0 0 25 24" fill="none" xmlns="http://www.w3.org/2000/svg">
<g id="743">
<path id="Vector" d="M20.4141 13H16.4141C16.4141 14.1 15.5141 15 14.4141 15H10.4141C9.31406 15 8.41406 14.1 8.41406 13H4.41406L2.41406 18V20C2.41406 21.1 3.31406 22 4.41406 22H20.4141C21.5141 22 22.4141 21.1 22.4141 20V18M6.41406 20C5.52406 20 5.07406 18.92 5.70406 18.29C6.33406 17.66 7.41406 18.11 7.41406 19C7.41406 19.55 6.96406 20 6.41406 20ZM10.4141 20C9.52406 20 9.07406 18.92 9.70406 18.29C10.3341 17.66 11.4141 18.11 11.4141 19C11.4141 19.55 10.9641 20 10.4141 20ZM14.4141 20C13.5241 20 13.0741 18.92 13.7041 18.29C14.3341 17.66 15.4141 18.11 15.4141 19C15.4141 19.55 14.9641 20 14.4141 20ZM18.4141 20C17.5241 20 17.0741 18.92 17.7041 18.29C18.3341 17.66 19.4141 18.11 19.4141 19C19.4141 19.55 18.9641 20 18.4141 20ZM18.4141 10V3H6.41406V10H3.41406V12H21.4141V10M8.41406 5H16.4141V6H8.41406M8.41406 7H14.4141V8H8.41406" fill="black"/>
</g>
</svg>
