<svg width="25" height="24" viewBox="0 0 25 24" fill="none" xmlns="http://www.w3.org/2000/svg">
<g id="744">
<path id="Vector" d="M2.41406 7V9H6.41406V11H4.41406C3.88363 11 3.37492 11.2107 2.99985 11.5858C2.62478 11.9609 2.41406 12.4696 2.41406 13V17H8.41406V15H4.41406V13H6.41406C6.9445 13 7.4532 12.7893 7.82828 12.4142C8.20335 12.0391 8.41406 11.5304 8.41406 11V9C8.41406 7.89 7.51406 7 6.41406 7H2.41406ZM9.41406 7V17H11.4141V13H14.4141V11H11.4141V9H15.4141V7H9.41406ZM18.4141 7C17.8836 7 17.3749 7.21071 16.9998 7.58579C16.6248 7.96086 16.4141 8.46957 16.4141 9V17H18.4141V14H20.4141V17H22.4141V9C22.4141 8.46957 22.2033 7.96086 21.8283 7.58579C21.4532 7.21071 20.9445 7 20.4141 7H18.4141ZM18.4141 9H20.4141V12H18.4141V9Z" fill="black"/>
</g>
</svg>
