<svg width="25" height="24" viewBox="0 0 25 24" fill="none" xmlns="http://www.w3.org/2000/svg">
<g id="745">
<path id="Vector" d="M22.8731 6C22.1031 6.35 21.2731 6.58 20.4131 6.69C21.2931 6.16 21.9731 5.32 22.2931 4.31C21.4631 4.81 20.5431 5.16 19.5731 5.36C18.7831 4.5 17.6731 4 16.4131 4C14.0631 4 12.1431 5.92 12.1431 8.29C12.1431 8.63 12.1831 8.96 12.2531 9.27C8.69314 9.09 5.52312 7.38 3.41314 4.79C3.04314 5.42 2.83313 6.16 2.83313 6.94C2.83313 8.43 3.58313 9.75 4.74313 10.5C4.03313 10.5 3.37313 10.3 2.79313 10C2.79313 10 2.79313 10 2.79313 10.03C2.79313 12.11 4.27314 13.85 6.23314 14.24C5.87314 14.34 5.49313 14.39 5.10313 14.39C4.83313 14.39 4.56314 14.36 4.30314 14.31C4.84314 16 6.41312 17.26 8.30312 17.29C6.84312 18.45 4.99312 19.13 2.97312 19.13C2.63312 19.13 2.29313 19.11 1.95312 19.07C3.85312 20.29 6.11312 21 8.53312 21C16.4131 21 20.7431 14.46 20.7431 8.79C20.7431 8.6 20.7431 8.42 20.7331 8.23C21.5731 7.63 22.2931 6.87 22.8731 6Z" fill="black"/>
</g>
</svg>
