<svg width="25" height="24" viewBox="0 0 25 24" fill="none" xmlns="http://www.w3.org/2000/svg">
<g id="747">
<path id="Vector" d="M12.4141 2C6.91406 2 2.41406 6.5 2.41406 12V22H22.4141V12C22.4141 6.5 17.9141 2 12.4141 2ZM15.8841 7.11C15.1641 6.6 14.3241 6.24 13.4141 6.09V4.07C14.8741 4.25 16.2041 4.83 17.3141 5.69L15.8841 7.11ZM8.94406 7.11L7.51406 5.69C8.62406 4.83 9.95406 4.25 11.4141 4.07V6.09C10.5041 6.24 9.66406 6.6 8.94406 7.11ZM6.10406 7.1L7.52406 8.53C7.01406 9.25 6.65406 10.09 6.50406 11H4.48406C4.66406 9.54 5.24406 8.21 6.10406 7.1ZM6.41406 13V15.5H4.41406V13H6.41406ZM4.41406 20V17.5H6.41406V20H4.41406ZM16.4141 20H8.41406V12C8.41406 9.79 10.2041 8 12.4141 8C14.6241 8 16.4141 9.79 16.4141 12V20ZM17.3041 8.53L18.7241 7.1C19.5841 8.21 20.1641 9.54 20.3441 11H18.3241C18.1741 10.09 17.8141 9.25 17.3041 8.53ZM18.4141 13H20.4141V15.5H18.4141V13ZM18.4141 20V17.5H20.4141V20H18.4141Z" fill="black"/>
</g>
</svg>
