<svg width="25" height="24" viewBox="0 0 25 24" fill="none" xmlns="http://www.w3.org/2000/svg">
<g id="748">
<path id="Vector" d="M8.88406 5.94997C9.36406 5.66997 9.88406 5.43997 10.4141 5.27997V3.99997C10.4141 2.89997 11.2841 1.99997 12.3841 1.96997C13.5441 1.99997 14.4141 2.89997 14.4141 3.99997V5.27997C14.9441 5.44997 15.4641 5.66997 15.9441 5.94997L14.3441 8.06997H10.4841L8.88406 5.94997ZM19.4141 12C19.4141 12.5 19.3641 12.95 19.2741 13.4L16.7441 12.62L15.5541 8.95997L17.1541 6.84997C17.5841 7.24997 17.9641 7.69997 18.2941 8.19997C19.0841 8.12997 19.8441 8.24997 20.5241 8.58997C21.5541 9.11997 22.2541 10.13 22.4141 11.28L19.4141 11.64C19.4141 11.76 19.4141 11.88 19.4141 12ZM5.41406 12C5.41406 11.88 5.41406 11.76 5.41406 11.65L2.41406 11.28C2.57406 10.13 3.27406 9.11997 4.30406 8.58997C4.98406 8.24997 5.75406 8.12997 6.49406 8.25997C6.82406 7.74997 7.20406 7.27997 7.65406 6.86997L9.27406 8.94997L8.08406 12.62L5.55406 13.4C5.46406 12.95 5.41406 12.5 5.41406 12ZM10.6541 9.56997H14.1741L15.2641 12.93L12.4141 15L9.56406 12.93L10.6541 9.56997ZM8.54406 14.05L11.6641 16.31V18.96C11.0941 18.9 10.5441 18.77 10.0341 18.58L8.80406 21.34C7.74406 20.87 6.98406 19.9 6.78406 18.76C6.64406 18 6.76406 17.24 7.10406 16.56C6.65406 16.04 6.28406 15.46 6.00406 14.82L8.54406 14.05ZM16.2841 14.05L18.8241 14.82C18.5441 15.46 18.1741 16.04 17.7241 16.56C18.0641 17.24 18.1841 18 18.0541 18.76C17.8441 19.9 17.0841 20.87 16.0241 21.34L14.8041 18.58C14.2741 18.77 13.7441 18.94 13.1641 19V16.31L16.2841 14.05Z" fill="black"/>
</g>
</svg>
