<svg width="25" height="24" viewBox="0 0 25 24" fill="none" xmlns="http://www.w3.org/2000/svg">
<g id="749">
<path id="Vector" d="M12.4141 2C6.88406 2 2.41406 6.5 2.41406 12C2.41406 17.5 6.91406 22 12.4141 22C17.9141 22 22.4141 17.5 22.4141 12C22.4141 6.5 17.9141 2 12.4141 2ZM12.4141 20C7.99406 20 4.41406 16.42 4.41406 12C4.41406 7.58 7.99406 4 12.4141 4C16.8341 4 20.4141 7.58 20.4141 12C20.4141 16.42 16.8341 20 12.4141 20ZM17.6241 12.55L16.2741 12.19L17.7141 11.81L19.6441 11.29C19.3641 10.22 18.2641 9.59 17.2041 9.87L15.8541 10.23L16.9141 9.18L18.3241 7.77C17.5441 7 16.2741 7 15.4941 7.76V7.77L14.5141 8.75L14.9141 7.31L15.4141 5.38C14.3441 5.09 13.2541 5.72 12.9641 6.79L12.6041 8.14L12.2241 6.7L11.7041 4.77C10.6341 5.05 10.0041 6.15 10.2841 7.22L10.6441 8.56L9.59406 7.5L8.18406 6.09C7.41406 6.87 7.41406 8.14 8.17406 8.92H8.18406L9.16406 9.9L7.72406 9.5L5.79406 9C5.50406 10.07 6.13406 11.16 7.20406 11.45L8.55406 11.81L7.11406 12.2L5.18406 12.71C5.46406 13.78 6.56406 14.41 7.63406 14.13L8.97406 13.77L7.91406 14.82L6.50406 16.23C7.28406 17 8.55406 17 9.33406 16.24V16.23L10.3141 15.25L9.91406 16.69L9.41406 18.62C10.4841 18.91 11.5741 18.28 11.8641 17.21L12.2241 15.86L12.6141 17.3L13.1241 19.23C14.1941 18.95 14.8241 17.85 14.5441 16.79L14.1841 15.44L15.2341 16.5L16.6541 17.91C17.4141 17.13 17.4141 15.86 16.6541 15.08L15.6641 14.1L17.1041 14.5L19.0341 15C19.3241 13.93 18.6941 12.84 17.6241 12.55ZM12.4141 13.5C11.5841 13.5 10.9141 12.83 10.9141 12C10.9141 11.17 11.5841 10.5 12.4141 10.5C13.2441 10.5 13.9141 11.17 13.9141 12C13.9141 12.83 13.2441 13.5 12.4141 13.5Z" fill="black"/>
</g>
</svg>
