<svg width="25" height="24" viewBox="0 0 25 24" fill="none" xmlns="http://www.w3.org/2000/svg">
<g id="750">
<path id="Vector" d="M10.9141 19.44C10.1641 19.8 9.31406 20 8.41406 20C5.10406 20 2.41406 17.31 2.41406 14V9C2.41406 5.69 5.10406 3 8.41406 3L10.9141 7.58C8.51406 8.81 6.91406 11 6.91406 13.5C6.91406 16 8.52406 18.2 10.9141 19.44ZM16.4141 18.94V20H17.4141C17.9641 20 18.4141 20.45 18.4141 21C18.4141 21.55 17.9641 22 17.4141 22H14.4141C13.8641 22 13.4141 21.55 13.4141 21C13.4141 20.45 13.8641 20 14.4141 20V18.94C11.0241 18.56 8.41406 16.27 8.41406 13.5C8.41406 10.46 11.5441 8 15.4141 8C15.6041 8 15.7841 8 15.9741 8C15.2541 6.63 14.4141 5.23 14.4141 4C14.4141 2.9 15.3141 2 16.4141 2C18.6241 2 20.4141 3.79 20.4141 6H18.4141C18.4141 6 22.4141 9 22.4141 13.5C22.4141 16.27 19.8041 18.56 16.4141 18.94ZM16.4141 4C16.4141 4.55 16.8641 5 17.4141 5C17.9641 5 18.4141 4.55 18.4141 4C18.4141 3.45 17.9641 3 17.4141 3C16.8641 3 16.4141 3.45 16.4141 4ZM17.4141 12C17.4141 10.9 16.5241 10 15.4141 10C13.2041 10 11.4141 11.79 11.4141 14H15.4141C16.5241 14 17.4141 13.11 17.4141 12Z" fill="black"/>
</g>
</svg>
