<svg width="25" height="24" viewBox="0 0 25 24" fill="none" xmlns="http://www.w3.org/2000/svg">
<g id="752">
<path id="Vector" d="M13.8241 10.41C13.4541 10.79 12.9441 11 12.4141 11C11.8836 11 11.3749 10.7893 10.9998 10.4142C10.6248 10.0391 10.4141 9.53043 10.4141 9C10.4141 8.47 10.6241 7.96 11.0041 7.59L9.58406 6.17C8.83406 6.92 8.41406 7.94 8.41406 9H2.41406V11H8.96406C9.31406 11.6 9.81406 12.1 10.4141 12.45V19H12.4141V13C13.4741 13 14.4941 12.58 15.2441 11.83L13.8241 10.41ZM10.4141 2V5L16.4141 11V22H22.4141V2H10.4141ZM20.4141 20H18.4141V10.17L12.4141 4.17V4H20.4141V20Z" fill="black"/>
</g>
</svg>
