<svg width="25" height="24" viewBox="0 0 25 24" fill="none" xmlns="http://www.w3.org/2000/svg">
<g id="753">
<path id="Vector" d="M8.41406 12.14V2H6.41406V12.14C4.69406 12.59 3.41406 14.14 3.41406 16C3.41406 17.86 4.69406 19.41 6.41406 19.86V22H8.41406V19.86C10.1341 19.41 11.4141 17.86 11.4141 16C11.4141 14.14 10.1341 12.59 8.41406 12.14ZM7.41406 14C8.51406 14 9.41406 14.9 9.41406 16C9.41406 17.1 8.51406 18 7.41406 18C6.31406 18 5.41406 17.1 5.41406 16C5.41406 14.9 6.31406 14 7.41406 14ZM18.4141 2H16.4141V4.14C14.6941 4.59 13.4141 6.14 13.4141 8C13.4141 9.86 14.6941 11.41 16.4141 11.86V22H18.4141V11.86C20.1341 11.41 21.4141 9.86 21.4141 8C21.4141 6.14 20.1341 4.59 18.4141 4.14V2ZM17.4141 6C18.5141 6 19.4141 6.9 19.4141 8C19.4141 9.1 18.5141 10 17.4141 10C16.3141 10 15.4141 9.1 15.4141 8C15.4141 6.9 16.3141 6 17.4141 6Z" fill="black"/>
</g>
</svg>
