<svg width="25" height="24" viewBox="0 0 25 24" fill="none" xmlns="http://www.w3.org/2000/svg">
<g id="756">
<path id="Vector" d="M8.41406 13C6.55406 13 5.00406 14.28 4.55406 16H2.41406V18H4.55406C5.00406 19.72 6.55406 21 8.41406 21C10.2741 21 11.8241 19.72 12.2741 18H22.4141V16H12.2741C11.8241 14.28 10.2741 13 8.41406 13ZM8.41406 19C7.31406 19 6.41406 18.1 6.41406 17C6.41406 15.9 7.31406 15 8.41406 15C9.51406 15 10.4141 15.9 10.4141 17C10.4141 18.1 9.51406 19 8.41406 19ZM20.2741 6C19.8241 4.28 18.2741 3 16.4141 3C14.5541 3 13.0041 4.28 12.5541 6H2.41406V8H12.5541C13.0041 9.72 14.5541 11 16.4141 11C18.2741 11 19.8241 9.72 20.2741 8H22.4141V6H20.2741ZM16.4141 9C15.3141 9 14.4141 8.1 14.4141 7C14.4141 5.9 15.3141 5 16.4141 5C17.5141 5 18.4141 5.9 18.4141 7C18.4141 8.1 17.5141 9 16.4141 9Z" fill="black"/>
</g>
</svg>
