<svg width="25" height="24" viewBox="0 0 25 24" fill="none" xmlns="http://www.w3.org/2000/svg">
<g id="758">
<path id="Vector" d="M16.4106 21H8.41062C8.14541 21 7.89105 20.8946 7.70352 20.7071C7.51598 20.5196 7.41062 20.2652 7.41062 20V12.07L6.11062 13.12C5.72062 13.5 5.09062 13.5 4.70062 13.12L1.87062 10.29C1.48063 9.9 1.48063 9.27 1.87062 8.88L7.75063 3H9.41062C9.41062 4.1 10.4106 6 12.4106 7.25C14.4106 6 15.4106 4.1 15.4106 3H17.0706L22.9506 8.88C23.3406 9.27 23.3406 9.9 22.9506 10.29L20.1206 13.12C19.7306 13.5 19.1006 13.5 18.7106 13.12L17.4106 12.07V20C17.4106 20.2652 17.3053 20.5196 17.1177 20.7071C16.9302 20.8946 16.6758 21 16.4106 21ZM20.8306 9.58L16.5206 5.28C15.4106 7 14.4106 8.25 12.4106 9.25C10.4106 8.25 9.41062 7 8.30062 5.28L3.99062 9.58L5.41062 11L8.41062 9H9.41062V19H15.4106V9H16.4106L19.4106 11L20.8306 9.58Z" fill="black"/>
</g>
</svg>
