<svg width="25" height="24" viewBox="0 0 25 24" fill="none" xmlns="http://www.w3.org/2000/svg">
<g id="759">
<path id="Vector" d="M19.0841 17.63C15.2841 20.43 12.9641 18.03 12.4141 17.63C11.7541 18.12 9.49406 20.39 5.74406 17.63C3.84406 19.03 3.06406 19 2.41406 19V21C3.57406 21 4.71406 20.68 5.74406 20.07C7.80406 21.29 10.3541 21.29 12.4141 20.07C14.4741 21.29 17.0241 21.29 19.0841 20.07C20.1141 20.68 21.2541 21 22.4141 21V19C21.7541 19 20.9141 19 19.0841 17.63ZM19.7441 12H22.4141V10H19.7441C17.9141 10 16.4141 8.5 16.4141 6.67C16.4141 5.65 16.7941 4.93 17.5041 3.33C16.1341 3.12 15.5041 3 14.4141 3C7.77406 3 2.56406 8.03 2.41406 14.5V16.5C3.57406 16.5 4.71406 16.18 5.74406 15.57C7.80406 16.79 10.3541 16.79 12.4141 15.57C14.4741 16.79 17.0241 16.79 19.0841 15.57C20.1141 16.18 21.2541 16.5 22.4141 16.5V14.5C21.7541 14.5 20.9141 14.5 19.0841 13.13C15.2841 15.93 12.9641 13.53 12.4141 13.13C11.5141 13.8 11.8741 13.54 11.5041 13.76C10.8041 12.82 10.4141 11.7 10.4141 10.5C10.4141 7.92 12.1841 5.76 14.6241 5.17C14.4941 5.68 14.4141 6.19 14.4141 6.67C14.4141 9.61 16.8041 12 19.7441 12Z" fill="black"/>
</g>
</svg>
