<svg width="25" height="24" viewBox="0 0 25 24" fill="none" xmlns="http://www.w3.org/2000/svg">
<g id="76">
<path id="Vector" d="M11.4102 5H8.41016L12.4102 1L16.4102 5H13.4102V9.43C12.6602 9.89 11.9902 10.46 11.4102 11.12V5ZM22.4102 11L18.4102 7V10C14.8002 9.85 11.7202 12.57 11.4102 16.17C9.85016 16.72 9.03016 18.44 9.58016 20C10.1302 21.56 11.8502 22.38 13.4102 21.83C14.9702 21.27 15.7902 19.56 15.2402 18C14.9402 17.14 14.2602 16.47 13.4102 16.17C13.8802 12.17 17.8802 11.97 18.3602 11.97V14.97L22.4102 11ZM11.0402 11.59C9.71016 10.57 8.08016 10 6.41016 10V7L2.41016 11L6.41016 15V12C7.75016 12.03 9.04016 12.5 10.0502 13.4C10.3002 12.76 10.6302 12.15 11.0402 11.59Z" fill="black"/>
</g>
</svg>
