<svg width="25" height="24" viewBox="0 0 25 24" fill="none" xmlns="http://www.w3.org/2000/svg">
<g id="760">
<path id="Vector" d="M6.41406 2H18.4141C18.9445 2 19.4532 2.21071 19.8283 2.58579C20.2033 2.96086 20.4141 3.46957 20.4141 4V20C20.4141 20.5304 20.2033 21.0391 19.8283 21.4142C19.4532 21.7893 18.9445 22 18.4141 22H6.41406C5.88363 22 5.37492 21.7893 4.99985 21.4142C4.62478 21.0391 4.41406 20.5304 4.41406 20V4C4.41406 3.46957 4.62478 2.96086 4.99985 2.58579C5.37492 2.21071 5.88363 2 6.41406 2ZM7.41406 4C7.14885 4 6.89449 4.10536 6.70696 4.29289C6.51942 4.48043 6.41406 4.73478 6.41406 5C6.41406 5.26522 6.51942 5.51957 6.70696 5.70711C6.89449 5.89464 7.14885 6 7.41406 6C7.67928 6 7.93363 5.89464 8.12117 5.70711C8.30871 5.51957 8.41406 5.26522 8.41406 5C8.41406 4.73478 8.30871 4.48043 8.12117 4.29289C7.93363 4.10536 7.67928 4 7.41406 4ZM10.4141 4C10.1488 4 9.89449 4.10536 9.70696 4.29289C9.51942 4.48043 9.41406 4.73478 9.41406 5C9.41406 5.26522 9.51942 5.51957 9.70696 5.70711C9.89449 5.89464 10.1488 6 10.4141 6C10.6793 6 10.9336 5.89464 11.1212 5.70711C11.3087 5.51957 11.4141 5.26522 11.4141 5C11.4141 4.73478 11.3087 4.48043 11.1212 4.29289C10.9336 4.10536 10.6793 4 10.4141 4ZM12.4141 8C10.8228 8 9.29664 8.63214 8.17142 9.75736C7.0462 10.8826 6.41406 12.4087 6.41406 14C6.41406 15.5913 7.0462 17.1174 8.17142 18.2426C9.29664 19.3679 10.8228 20 12.4141 20C14.0054 20 15.5315 19.3679 16.6567 18.2426C17.7819 17.1174 18.4141 15.5913 18.4141 14C18.4141 12.4087 17.7819 10.8826 16.6567 9.75736C15.5315 8.63214 14.0054 8 12.4141 8ZM8.52406 10.5H10.4141C10.1741 11.88 10.4141 12.67 10.9941 13.29C12.0941 14.36 12.5741 15.71 12.3041 17.5H10.4141C10.6541 16.12 10.4141 15.33 9.83406 14.71C8.73406 13.64 8.26406 12.29 8.52406 10.5ZM12.5241 10.5H14.4141C14.1741 11.88 14.4141 12.67 14.9941 13.29C16.0941 14.36 16.5741 15.71 16.3041 17.5H14.4141C14.6541 16.12 14.4141 15.33 13.8341 14.71C12.7341 13.64 12.2641 12.29 12.5241 10.5Z" fill="black"/>
</g>
</svg>
