<svg width="25" height="24" viewBox="0 0 25 24" fill="none" xmlns="http://www.w3.org/2000/svg">
<g id="761">
<path id="Vector" d="M4.41406 2H16.4141C17.5241 2 18.4141 2.9 18.4141 4V20C18.4141 21.11 17.5241 22 16.4141 22H4.41406C3.31406 22 2.41406 21.11 2.41406 20V4C2.41406 2.9 3.31406 2 4.41406 2ZM5.41406 4C4.86406 4 4.41406 4.45 4.41406 5C4.41406 5.55 4.86406 6 5.41406 6C5.96406 6 6.41406 5.55 6.41406 5C6.41406 4.45 5.96406 4 5.41406 4ZM8.41406 4C7.86406 4 7.41406 4.45 7.41406 5C7.41406 5.55 7.86406 6 8.41406 6C8.96406 6 9.41406 5.55 9.41406 5C9.41406 4.45 8.96406 4 8.41406 4ZM10.4141 8C7.10406 8 4.41406 10.69 4.41406 14C4.41406 17.31 7.10406 20 10.4141 20C13.7241 20 16.4141 17.31 16.4141 14C16.4141 10.69 13.7241 8 10.4141 8ZM6.52406 10.5H8.41406C8.17406 11.88 8.41406 12.67 8.99406 13.29C10.0941 14.36 10.5741 15.71 10.3041 17.5H8.41406C8.65406 16.12 8.41406 15.33 7.83406 14.71C6.73406 13.64 6.26406 12.29 6.52406 10.5ZM10.5241 10.5H12.4141C12.1741 11.88 12.4141 12.67 12.9941 13.29C14.0941 14.36 14.5741 15.71 14.3041 17.5H12.4141C12.6541 16.12 12.4141 15.33 11.8341 14.71C10.7341 13.64 10.2641 12.29 10.5241 10.5ZM20.4141 15H22.4141V17H20.4141V15ZM20.4141 7H22.4141V13H20.4141V7Z" fill="black"/>
</g>
</svg>
