<svg width="25" height="24" viewBox="0 0 25 24" fill="none" xmlns="http://www.w3.org/2000/svg">
<g id="762">
<path id="Vector" d="M22.5234 21.46L2.80344 1.72998L1.52344 2.99998L4.41344 5.88998V20C4.41344 21.11 5.30344 22 6.41344 22H18.4134C18.9934 22 19.5134 21.75 19.8734 21.35L21.2534 22.73L22.5234 21.46ZM12.4134 20C9.10344 20 6.41344 17.31 6.41344 14C6.41344 12.32 7.11344 10.8 8.23344 9.70998L9.02344 10.5H8.52344C8.26344 12.29 8.73344 13.64 9.83344 14.71C10.4134 15.33 10.6534 16.12 10.4134 17.5H12.3034C12.5734 15.71 12.0934 14.36 10.9934 13.29C10.6334 12.91 10.4134 12.44 10.3634 11.84L14.4434 15.92C14.5234 16.35 14.5234 16.86 14.4134 17.5H16.0234L16.7034 18.18C15.6134 19.3 14.1034 20 12.4134 20ZM11.6634 8.04998C11.9134 7.99998 12.1634 7.99998 12.4134 7.99998C15.7234 7.99998 18.4134 10.69 18.4134 14C18.4134 14.25 18.4134 14.5 18.3634 14.75L20.4134 16.8V3.99998C20.4134 2.89998 19.5234 1.99998 18.4134 1.99998H6.41344C6.17344 1.99998 5.95344 2.04998 5.74344 2.12998L11.6634 8.04998ZM10.4134 3.99998C10.9634 3.99998 11.4134 4.44998 11.4134 4.99998C11.4134 5.54998 10.9634 5.99998 10.4134 5.99998C9.86344 5.99998 9.41344 5.54998 9.41344 4.99998C9.41344 4.44998 9.86344 3.99998 10.4134 3.99998Z" fill="black"/>
</g>
</svg>
