<svg width="25" height="24" viewBox="0 0 25 24" fill="none" xmlns="http://www.w3.org/2000/svg">
<g id="765">
<path id="Vector" d="M16.4106 21H8.41062C8.14541 21 7.89105 20.8946 7.70352 20.7071C7.51598 20.5196 7.41062 20.2652 7.41062 20V12.07L6.11062 13.07C5.72062 13.46 5.09062 13.46 4.70062 13.07L1.87062 10.29C1.48063 9.9 1.48063 9.27 1.87062 8.88L7.75063 3H9.41062C9.41062 4.1 10.7506 5 12.4106 5C14.0706 5 15.4106 4.1 15.4106 3H17.0706L22.9506 8.88C23.3406 9.27 23.3406 9.9 22.9506 10.29L20.1206 13.12C19.7306 13.5 19.1006 13.5 18.7106 13.12L17.4106 12.12V20C17.4106 20.2652 17.3053 20.5196 17.1177 20.7071C16.9302 20.8946 16.6758 21 16.4106 21Z" fill="black"/>
</g>
</svg>
