<svg width="25" height="24" viewBox="0 0 25 24" fill="none" xmlns="http://www.w3.org/2000/svg">
<g id="766">
<path id="Vector" d="M22.4141 6C21.4141 11 15.4141 11 15.4141 11H4.41406C3.41406 11 2.41406 10 2.41406 10H1.41406V14H2.41406C2.41406 14 3.41406 13 4.41406 13H4.71406C4.51406 13.3 4.41406 13.6 4.41406 14V16C4.41406 17.1 5.31406 18 6.41406 18H7.41406V19H9.41406V18H10.4141V19H12.4141V18H13.4141V19H15.4141V18H16.4141C17.5141 18 18.4141 17.1 18.4141 16V14C18.4141 13.9 18.4141 13.7 18.3141 13.6C20.0141 14.2 21.8141 15.4 22.4141 18H23.4141V6H22.4141ZM6.41406 16.5C6.11406 16.5 5.91406 16.3 5.91406 16V14C5.91406 13.7 6.11406 13.5 6.41406 13.5H7.41406V16.5H6.41406ZM9.41406 16.5V13.5H10.4141V16.5H9.41406ZM12.4141 16.5V13.5H13.4141V16.5H12.4141ZM16.9141 16C16.9141 16.3 16.7141 16.5 16.4141 16.5H15.4141V13.5H16.4141C16.7141 13.5 16.9141 13.7 16.9141 14V16ZM9.41406 10H7.41406V9H9.41406V10ZM12.4141 10H10.4141V9H12.4141V10ZM15.4141 10H13.4141V9H15.4141V10Z" fill="black"/>
</g>
</svg>
