<svg width="25" height="24" viewBox="0 0 25 24" fill="none" xmlns="http://www.w3.org/2000/svg">
<g id="767">
<path id="Vector" d="M22.4141 15V17H10.4141C10.4141 17.7956 10.098 18.5587 9.53538 19.1213C8.97277 19.6839 8.20971 20 7.41406 20C6.61841 20 5.85535 19.6839 5.29274 19.1213C4.73013 18.5587 4.41406 17.7956 4.41406 17H2.41406V6C2.41406 5.46957 2.62478 4.96086 2.99985 4.58579C3.37492 4.21071 3.88363 4 4.41406 4H17.4141C17.9445 4 18.4532 4.21071 18.8283 4.58579C19.2033 4.96086 19.4141 5.46957 19.4141 6V15H22.4141ZM7.41406 16C7.14885 16 6.89449 16.1054 6.70696 16.2929C6.51942 16.4804 6.41406 16.7348 6.41406 17C6.41406 17.2652 6.51942 17.5196 6.70696 17.7071C6.89449 17.8946 7.14885 18 7.41406 18C7.67928 18 7.93363 17.8946 8.12117 17.7071C8.30871 17.5196 8.41406 17.2652 8.41406 17C8.41406 16.7348 8.30871 16.4804 8.12117 16.2929C7.93363 16.1054 7.67928 16 7.41406 16Z" fill="black"/>
</g>
</svg>
