<svg width="25" height="24" viewBox="0 0 25 24" fill="none" xmlns="http://www.w3.org/2000/svg">
<g id="77">
<path id="Vector" d="M5.41016 3H19.4102C19.9406 3 20.4493 3.21071 20.8244 3.58579C21.1994 3.96086 21.4102 4.46957 21.4102 5V19C21.4102 19.5304 21.1994 20.0391 20.8244 20.4142C20.4493 20.7893 19.9406 21 19.4102 21H5.41016C4.87972 21 4.37102 20.7893 3.99594 20.4142C3.62087 20.0391 3.41016 19.5304 3.41016 19V5C3.41016 4.46957 3.62087 3.96086 3.99594 3.58579C4.37102 3.21071 4.87972 3 5.41016 3ZM12.4102 17L17.4102 12H14.4102V8H10.4102V12H7.41016L12.4102 17Z" fill="black"/>
</g>
</svg>
