<svg width="25" height="24" viewBox="0 0 25 24" fill="none" xmlns="http://www.w3.org/2000/svg">
<g id="772">
<path id="Vector" d="M17.4141 4H3.41406C2.31406 4 1.41406 4.9 1.41406 6V17H3.41406C3.41406 18.7 4.71406 20 6.41406 20C8.11406 20 9.41406 18.7 9.41406 17H15.4141C15.4141 18.7 16.7141 20 18.4141 20C20.1141 20 21.4141 18.7 21.4141 17H23.4141V12L20.4141 8H17.4141V4ZM10.6141 5.3H10.9141C11.4141 5.4 11.7141 5.9 11.6141 6.4L11.1141 8.4L13.1141 7.9C13.6141 7.8 14.1141 8.1 14.2141 8.6C14.3141 9.1 14.0141 9.6 13.6141 9.7L11.6141 10.2L13.0141 11.6C13.4141 11.9 13.4141 12.5 13.0141 12.9C12.7141 13.3 12.1141 13.3 11.7141 12.9L10.2141 11.5L9.71406 13.5C9.61406 14 9.11406 14.3 8.61406 14.1C8.11406 14 7.81406 13.5 8.01406 13L8.51406 11L6.51406 11.5C6.01406 11.6 5.51406 11.3 5.41406 10.9C5.31406 10.4 5.61406 9.9 6.01406 9.8L8.01406 9.3L6.61406 7.7C6.31406 7.4 6.31406 6.8 6.61406 6.4C6.91406 6.1 7.51406 6.1 7.91406 6.4L9.31406 7.8L9.81406 5.8C9.91406 5.6 10.2141 5.3 10.6141 5.3ZM17.4141 9.5H19.9141L21.9141 12H17.4141V9.5ZM6.41406 15.5C7.21406 15.5 7.91406 16.2 7.91406 17C7.91406 17.8 7.21406 18.5 6.41406 18.5C5.61406 18.5 4.91406 17.8 4.91406 17C4.91406 16.2 5.61406 15.5 6.41406 15.5ZM18.4141 15.5C19.2141 15.5 19.9141 16.2 19.9141 17C19.9141 17.8 19.2141 18.5 18.4141 18.5C17.6141 18.5 16.9141 17.8 16.9141 17C16.9141 16.2 17.6141 15.5 18.4141 15.5Z" fill="black"/>
</g>
</svg>
