<svg width="25" height="24" viewBox="0 0 25 24" fill="none" xmlns="http://www.w3.org/2000/svg">
<g id="773">
<path id="Vector" d="M18.4141 18.5C19.2441 18.5 19.9141 17.83 19.9141 17C19.9141 16.17 19.2441 15.5 18.4141 15.5C17.5841 15.5 16.9141 16.17 16.9141 17C16.9141 17.83 17.5841 18.5 18.4141 18.5ZM19.9141 9.5H17.4141V12H21.8741L19.9141 9.5ZM6.41406 18.5C7.24406 18.5 7.91406 17.83 7.91406 17C7.91406 16.17 7.24406 15.5 6.41406 15.5C5.58406 15.5 4.91406 16.17 4.91406 17C4.91406 17.83 5.58406 18.5 6.41406 18.5ZM20.4141 8L23.4141 12V17H21.4141C21.4141 18.66 20.0741 20 18.4141 20C16.7541 20 15.4141 18.66 15.4141 17H9.41406C9.41406 18.66 8.07406 20 6.41406 20C4.75406 20 3.41406 18.66 3.41406 17H1.41406V6C1.41406 4.89 2.30406 4 3.41406 4H17.4141V8H20.4141ZM3.41406 6V15H4.17406C4.72406 14.39 5.52406 14 6.41406 14C7.30406 14 8.10406 14.39 8.65406 15H15.4141V6H3.41406Z" fill="black"/>
</g>
</svg>
