<svg width="25" height="24" viewBox="0 0 25 24" fill="none" xmlns="http://www.w3.org/2000/svg">
<g id="776">
<path id="Vector" d="M18.4141 4H13.4141V13H1.41406V17H3.41406C3.41406 17.83 3.71406 18.53 4.30406 19.13C4.91406 19.72 5.60406 20 6.41406 20C7.22406 20 7.91406 19.72 8.52406 19.13C9.11406 18.53 9.41406 17.83 9.41406 17H14.9141C14.9141 17.83 15.1941 18.53 15.7941 19.13C16.3841 19.72 17.0841 20 17.9141 20C18.7141 20 19.4141 19.72 20.0041 19.13C20.6041 18.53 20.9141 17.83 20.9141 17H23.4141V10L18.4141 4ZM7.49406 18.07C7.21406 18.37 6.85406 18.5 6.41406 18.5C5.97406 18.5 5.61406 18.37 5.33406 18.07C5.05406 17.77 4.91406 17.42 4.91406 17C4.91406 16.61 5.05406 16.26 5.33406 15.96C5.61406 15.66 5.97406 15.5 6.41406 15.5C6.85406 15.5 7.21406 15.66 7.49406 15.96C7.77406 16.26 7.91406 16.61 7.91406 17C7.91406 17.42 7.77406 17.77 7.49406 18.07ZM18.9541 18.07C18.6541 18.37 18.3041 18.5 17.9141 18.5C17.4941 18.5 17.1441 18.37 16.8441 18.07C16.5441 17.77 16.4141 17.42 16.4141 17C16.4141 16.61 16.5441 16.26 16.8441 15.96C17.1441 15.66 17.4941 15.5 17.9141 15.5C18.3041 15.5 18.6541 15.66 18.9541 15.96C19.2541 16.26 19.4141 16.61 19.4141 17C19.4141 17.42 19.2541 17.77 18.9541 18.07ZM15.4141 10V6H17.4741L20.8041 10H15.4141Z" fill="black"/>
</g>
</svg>
