<svg width="25" height="24" viewBox="0 0 25 24" fill="none" xmlns="http://www.w3.org/2000/svg">
<g id="777">
<path id="Vector" d="M1.16406 7.5H10.9141L11.6641 9H1.91406L1.16406 7.5ZM2.16406 10.5H11.9141L12.6641 12H2.91406L2.16406 10.5ZM18.4141 18.5C19.2441 18.5 19.9141 17.83 19.9141 17C19.9141 16.17 19.2441 15.5 18.4141 15.5C17.5841 15.5 16.9141 16.17 16.9141 17C16.9141 17.83 17.5841 18.5 18.4141 18.5ZM19.9141 9.5H17.4141V12H21.8741L19.9141 9.5ZM8.41406 18.5C9.24406 18.5 9.91406 17.83 9.91406 17C9.91406 16.17 9.24406 15.5 8.41406 15.5C7.58406 15.5 6.91406 16.17 6.91406 17C6.91406 17.83 7.58406 18.5 8.41406 18.5ZM20.4141 8L23.4141 12V17H21.4141C21.4141 18.66 20.0741 20 18.4141 20C16.7541 20 15.4141 18.66 15.4141 17H11.4141C11.4141 18.66 10.0641 20 8.41406 20C6.75406 20 5.41406 18.66 5.41406 17H3.41406V13.5H5.41406V15H6.17406C6.72406 14.39 7.52406 14 8.41406 14C9.30406 14 10.1041 14.39 10.6541 15H15.4141V6H3.41406C3.41406 4.89 4.30406 4 5.41406 4H17.4141V8H20.4141Z" fill="black"/>
</g>
</svg>
