<svg width="25" height="24" viewBox="0 0 25 24" fill="none" xmlns="http://www.w3.org/2000/svg">
<g id="778">
<path id="Vector" d="M3.41406 4H17.4141V8H20.4141L23.4141 12V17H21.4141C21.4141 17.7956 21.098 18.5587 20.5354 19.1213C19.9728 19.6839 19.2097 20 18.4141 20C17.6184 20 16.8554 19.6839 16.2927 19.1213C15.7301 18.5587 15.4141 17.7956 15.4141 17H9.41406C9.41406 17.7956 9.09799 18.5587 8.53538 19.1213C7.97277 19.6839 7.20971 20 6.41406 20C5.61841 20 4.85535 19.6839 4.29274 19.1213C3.73013 18.5587 3.41406 17.7956 3.41406 17H1.41406V6C1.41406 4.89 2.31406 4 3.41406 4ZM17.4141 9.5V12H21.8841L19.9141 9.5H17.4141ZM6.41406 15.5C6.01624 15.5 5.63471 15.658 5.3534 15.9393C5.0721 16.2206 4.91406 16.6022 4.91406 17C4.91406 17.3978 5.0721 17.7794 5.3534 18.0607C5.63471 18.342 6.01624 18.5 6.41406 18.5C6.81189 18.5 7.19342 18.342 7.47472 18.0607C7.75603 17.7794 7.91406 17.3978 7.91406 17C7.91406 16.6022 7.75603 16.2206 7.47472 15.9393C7.19342 15.658 6.81189 15.5 6.41406 15.5ZM18.4141 15.5C18.0162 15.5 17.6347 15.658 17.3534 15.9393C17.0721 16.2206 16.9141 16.6022 16.9141 17C16.9141 17.3978 17.0721 17.7794 17.3534 18.0607C17.6347 18.342 18.0162 18.5 18.4141 18.5C18.8119 18.5 19.1934 18.342 19.4747 18.0607C19.756 17.7794 19.9141 17.3978 19.9141 17C19.9141 16.6022 19.756 16.2206 19.4747 15.9393C19.1934 15.658 18.8119 15.5 18.4141 15.5ZM8.41406 14L14.4141 8L13.0041 6.58L8.41406 11.17L6.32406 9.08L4.91406 10.5L8.41406 14Z" fill="black"/>
</g>
</svg>
