<svg width="25" height="24" viewBox="0 0 25 24" fill="none" xmlns="http://www.w3.org/2000/svg">
<g id="78">
<path id="Vector" d="M3.41016 5C3.41016 4.46957 3.62087 3.96086 3.99594 3.58579C4.37102 3.21071 4.87972 3 5.41016 3H19.4102C19.9406 3 20.4493 3.21071 20.8244 3.58579C21.1994 3.96086 21.4102 4.46957 21.4102 5V19C21.4102 19.5304 21.1994 20.0391 20.8244 20.4142C20.4493 20.7893 19.9406 21 19.4102 21H5.41016C4.30016 21 3.41016 20.1 3.41016 19V5ZM11.4102 6V14.5L7.91016 11L6.49016 12.42L12.4102 18.34L18.3302 12.42L16.9102 11L13.4102 14.5V6H11.4102Z" fill="black"/>
</g>
</svg>
