<svg width="25" height="24" viewBox="0 0 25 24" fill="none" xmlns="http://www.w3.org/2000/svg">
<g id="782">
<g id="Group">
<path id="Vector" d="M3.41406 13.5L2.66406 12H7.91406L7.31406 10.5H2.41406L1.66406 9H9.46406L8.86406 7.5H1.52406L0.664062 6H4.41406C4.41406 5.46957 4.62478 4.96086 4.99985 4.58579C5.37492 4.21071 5.88363 4 6.41406 4H18.4141V8H21.4141L24.4141 12V17H22.4141C22.4141 17.7956 22.098 18.5587 21.5354 19.1213C20.9728 19.6839 20.2097 20 19.4141 20C18.6184 20 17.8554 19.6839 17.2927 19.1213C16.7301 18.5587 16.4141 17.7956 16.4141 17H12.4141C12.4141 17.7956 12.098 18.5587 11.5354 19.1213C10.9728 19.6839 10.2097 20 9.41406 20C8.61841 20 7.85535 19.6839 7.29274 19.1213C6.73013 18.5587 6.41406 17.7956 6.41406 17H4.41406V13.5H3.41406ZM19.4141 18.5C19.8119 18.5 20.1934 18.342 20.4747 18.0607C20.756 17.7794 20.9141 17.3978 20.9141 17C20.9141 16.6022 20.756 16.2206 20.4747 15.9393C20.1934 15.658 19.8119 15.5 19.4141 15.5C19.0162 15.5 18.6347 15.658 18.3534 15.9393C18.0721 16.2206 17.9141 16.6022 17.9141 17C17.9141 17.3978 18.0721 17.7794 18.3534 18.0607C18.6347 18.342 19.0162 18.5 19.4141 18.5ZM20.9141 9.5H18.4141V12H22.8741L20.9141 9.5ZM9.41406 18.5C9.81189 18.5 10.1934 18.342 10.4747 18.0607C10.756 17.7794 10.9141 17.3978 10.9141 17C10.9141 16.6022 10.756 16.2206 10.4747 15.9393C10.1934 15.658 9.81189 15.5 9.41406 15.5C9.01624 15.5 8.63471 15.658 8.3534 15.9393C8.0721 16.2206 7.91406 16.6022 7.91406 17C7.91406 17.3978 8.0721 17.7794 8.3534 18.0607C8.63471 18.342 9.01624 18.5 9.41406 18.5Z" fill="black"/>
</g>
</g>
</svg>
