<svg width="25" height="24" viewBox="0 0 25 24" fill="none" xmlns="http://www.w3.org/2000/svg">
<g id="783">
<path id="Vector" d="M20.4141 8H17.4141V4H1.41406V17H3.41406C3.41406 18.66 4.75406 20 6.41406 20C8.07406 20 9.41406 18.66 9.41406 17H15.4141C15.4141 18.66 16.7541 20 18.4141 20C20.0741 20 21.4141 18.66 21.4141 17H23.4141V12L20.4141 8ZM6.41406 18.5C5.58406 18.5 4.91406 17.83 4.91406 17C4.91406 16.17 5.58406 15.5 6.41406 15.5C7.24406 15.5 7.91406 16.17 7.91406 17C7.91406 17.83 7.24406 18.5 6.41406 18.5ZM15.4141 7H13.4141V14H11.4141V7H9.41406V14H7.41406V7H5.41406V14H3.41406V6H15.4141V7ZM18.4141 18.5C17.5841 18.5 16.9141 17.83 16.9141 17C16.9141 16.17 17.5841 15.5 18.4141 15.5C19.2441 15.5 19.9141 16.17 19.9141 17C19.9141 17.83 19.2441 18.5 18.4141 18.5ZM17.4141 12V9.5H19.9141L21.8741 12H17.4141Z" fill="black"/>
</g>
</svg>
