<svg width="25" height="24" viewBox="0 0 25 24" fill="none" xmlns="http://www.w3.org/2000/svg">
<g id="784">
<path id="Vector" d="M8.41406 12H10.4141V14H8.41406V12ZM8.41406 7H10.4141V11H8.41406V7ZM18.4141 18.5C19.2141 18.5 19.9141 17.8 19.9141 17C19.9141 16.2 19.2141 15.5 18.4141 15.5C17.6141 15.5 16.9141 16.2 16.9141 17C16.9141 17.8 17.6141 18.5 18.4141 18.5ZM19.9141 9.5H17.4141V12H21.9141L19.9141 9.5ZM6.41406 18.5C7.21406 18.5 7.91406 17.8 7.91406 17C7.91406 16.2 7.21406 15.5 6.41406 15.5C5.61406 15.5 4.91406 16.2 4.91406 17C4.91406 17.8 5.61406 18.5 6.41406 18.5ZM20.4141 8L23.4141 12V17H21.4141C21.4141 18.7 20.1141 20 18.4141 20C16.7141 20 15.4141 18.7 15.4141 17H9.41406C9.41406 18.7 8.11406 20 6.41406 20C4.71406 20 3.41406 18.7 3.41406 17H1.41406V6C1.41406 4.9 2.31406 4 3.41406 4H17.4141V8H20.4141ZM3.41406 6V15H4.21406C4.71406 14.4 5.61406 14 6.41406 14C7.21406 14 8.11406 14.4 8.61406 15H15.4141V6H3.41406Z" fill="black"/>
</g>
</svg>
