<svg width="25" height="24" viewBox="0 0 25 24" fill="none" xmlns="http://www.w3.org/2000/svg">
<g id="785">
<path id="Vector" d="M3.41406 4C2.31406 4 1.41406 4.9 1.41406 6V17H3.41406C3.41406 18.7 4.71406 20 6.41406 20C8.11406 20 9.41406 18.7 9.41406 17H15.4141C15.4141 18.7 16.7141 20 18.4141 20C20.1141 20 21.4141 18.7 21.4141 17H23.4141V12L20.4141 8H17.4141V4H3.41406ZM8.41406 6H10.4141V10H8.41406V6ZM17.4141 9.5H19.9141L21.9141 12H17.4141V9.5ZM8.41406 12H10.4141V14H8.41406V12ZM6.41406 15.5C7.21406 15.5 7.91406 16.2 7.91406 17C7.91406 17.8 7.21406 18.5 6.41406 18.5C5.61406 18.5 4.91406 17.8 4.91406 17C4.91406 16.2 5.61406 15.5 6.41406 15.5ZM18.4141 15.5C19.2141 15.5 19.9141 16.2 19.9141 17C19.9141 17.8 19.2141 18.5 18.4141 18.5C17.6141 18.5 16.9141 17.8 16.9141 17C16.9141 16.2 17.6141 15.5 18.4141 15.5Z" fill="black"/>
</g>
</svg>
