<svg width="25" height="24" viewBox="0 0 25 24" fill="none" xmlns="http://www.w3.org/2000/svg">
<g id="79">
<path id="Vector" d="M11.4102 6V14L7.91016 10.5L6.49016 11.92L12.4102 17.84L18.3302 11.92L16.9102 10.5L13.4102 14V6H11.4102ZM12.4102 22C11.0969 22 9.79658 21.7413 8.58332 21.2388C7.37007 20.7362 6.26767 19.9997 5.33909 19.0711C3.46372 17.1957 2.41016 14.6522 2.41016 12C2.41016 9.34784 3.46372 6.8043 5.33909 4.92893C7.21445 3.05357 9.75799 2 12.4102 2C13.7234 2 15.0237 2.25866 16.237 2.7612C17.4502 3.26375 18.5526 4.00035 19.4812 4.92893C20.4098 5.85752 21.1464 6.95991 21.649 8.17317C22.1515 9.38642 22.4102 10.6868 22.4102 12C22.4102 14.6522 21.3566 17.1957 19.4812 19.0711C17.6059 20.9464 15.0623 22 12.4102 22Z" fill="black"/>
</g>
</svg>
