<svg width="25" height="24" viewBox="0 0 25 24" fill="none" xmlns="http://www.w3.org/2000/svg">
<g id="790">
<path id="Vector" d="M18.4141 2C17.5141 2 16.4141 3 16.4141 4H8.41406C8.41406 3 7.31406 2 6.41406 2H2.41406V11C2.41406 12 3.41406 13 4.41406 13H6.61406C7.01406 15 8.31406 16.7 11.4141 17V19.08C8.41406 19.54 8.41406 22 8.41406 22H16.4141C16.4141 22 16.4141 19.54 13.4141 19.08V17C16.5141 16.7 17.8141 15 18.2141 13H20.4141C21.4141 13 22.4141 12 22.4141 11V2H18.4141ZM6.41406 11H4.41406V4H6.41406V11ZM16.4141 11.5C16.4141 13.43 15.8341 15 12.4141 15C9.00406 15 8.41406 13.43 8.41406 11.5V6H16.4141V11.5ZM20.4141 11H18.4141V4H20.4141V11Z" fill="black"/>
</g>
</svg>
