<svg width="25" height="24" viewBox="0 0 25 24" fill="none" xmlns="http://www.w3.org/2000/svg">
<g id="791">
<path id="Vector" d="M6.61406 13C7.01406 14.8 8.01406 16.3 10.4141 16.8V19.34C8.41406 20.12 8.41406 22 8.41406 22H13.6141L10.6141 15L14.6141 10L11.1141 4H8.41406C8.41406 3 7.31406 2 6.41406 2H2.41406V11C2.41406 12 3.41406 13 4.41406 13H6.61406ZM6.41406 11H4.41406V4H6.41406V11ZM18.2141 13H20.4141C21.4141 13 22.4141 12 22.4141 11V2H18.4141C17.5141 2 16.4141 3 16.4141 4H14.3141L17.1141 10L12.6141 15L13.6141 22H16.4141C16.4141 22 16.4141 20.12 14.4141 19.34V16.85C16.8041 16.35 17.9141 14.7 18.2141 13ZM20.4141 11H18.4141V4H20.4141V11Z" fill="black"/>
</g>
</svg>
