<svg width="25" height="24" viewBox="0 0 25 24" fill="none" xmlns="http://www.w3.org/2000/svg">
<g id="792">
<path id="Vector" d="M17.4141 4V2H7.41406V4H2.41406V11C2.41406 12.1 3.31406 13 4.41406 13H7.51406C7.91406 14.96 9.45406 16.5 11.4141 16.9V19.08C8.41406 19.54 8.41406 22 8.41406 22H16.4141C16.4141 22 16.4141 19.54 13.4141 19.08V16.9C15.3741 16.5 16.9141 14.96 17.3141 13H20.4141C21.5141 13 22.4141 12.1 22.4141 11V4H17.4141ZM4.41406 11V6H7.41406V11H4.41406ZM20.4141 11H17.4141V6H20.4141V11Z" fill="black"/>
</g>
</svg>
