<svg width="25" height="24" viewBox="0 0 25 24" fill="none" xmlns="http://www.w3.org/2000/svg">
<g id="798">
<path id="Vector" d="M18.5109 9.3L20.0109 6L15.9109 5.6C16.5109 6.1 17.0109 6.7 17.4109 7.5C17.7109 8.1 17.9109 8.6 18.1109 9.2C17.6109 9.1 17.0109 9 16.4109 9H16.0109C15.2109 7.2 13.5109 6 11.4109 6C8.61094 6 6.41094 8.2 6.41094 11C6.41094 13.1 7.61094 14.8 9.41094 15.6V16C9.41094 19.9 12.5109 23 16.4109 23C20.3109 23 23.4109 19.9 23.4109 16C23.4109 12.9 21.3109 10.2 18.5109 9.3ZM16.4109 21C13.6109 21 11.4109 18.8 11.4109 16C11.4109 13.2 13.6109 11 16.4109 11C19.2109 11 21.4109 13.2 21.4109 16C21.4109 18.8 19.2109 21 16.4109 21ZM16.9109 16.2L19.8109 17.9L19.0109 19.1L15.4109 17V12H16.9109V16.2ZM11.4109 4C10.6109 4 9.81094 4.2 9.01094 4.4L11.4109 1L13.8109 4.4C13.0109 4.2 12.2109 4 11.4109 4ZM5.31094 14.5C5.71094 15.2 6.31094 15.9 6.91094 16.4L2.81094 16L4.61094 12.2C4.71094 13 4.91094 13.8 5.31094 14.5ZM4.51094 9.8L2.71094 6L6.91094 5.7C6.31094 6.2 5.81094 6.8 5.31094 7.5C4.91094 8.2 4.61094 9 4.51094 9.8Z" fill="black"/>
</g>
</svg>
