<svg width="25" height="24" viewBox="0 0 25 24" fill="none" xmlns="http://www.w3.org/2000/svg">
<g id="8">
<path id="Vector" d="M12.4102 17C11.3102 17 10.4102 16.1 10.4102 15C10.4102 13.9 11.3102 13 12.4102 13C13.5102 13 14.4102 13.9 14.4102 15C14.4102 16.1 13.5102 17 12.4102 17ZM12.4102 10C14.7502 10 19.4102 11.16 19.4102 13.5V18.63C19.4102 19.5 18.7202 20.24 17.7502 20.79V13.38C17.7502 12.82 15.0102 11.54 12.4102 11.54C9.81016 11.54 7.07016 12.82 7.07016 13.38V18.75C7.07016 19 7.72016 19.46 8.69016 19.85C9.41016 19 11.3402 18.56 12.4102 18.56C13.7402 18.56 16.4102 19.22 16.4102 20.56V21.39C15.0402 21.88 13.4802 22.13 12.4102 22.13C11.3402 22.13 9.79016 21.88 8.41016 21.39C6.78016 20.81 5.41016 19.89 5.41016 18.63V13.5C5.41016 11.16 10.0702 10 12.4102 10ZM12.4102 3.75C11.4402 3.75 10.6602 4.53 10.6602 5.5C10.6602 6.47 11.4402 7.25 12.4102 7.25C13.3802 7.25 14.1602 6.47 14.1602 5.5C14.1602 4.53 13.3802 3.75 12.4102 3.75ZM12.4102 9C10.4802 9 8.91016 7.43 8.91016 5.5C8.91016 3.57 10.4802 2 12.4102 2C14.3402 2 15.9102 3.57 15.9102 5.5C15.9102 7.43 14.3402 9 12.4102 9Z" fill="black"/>
</g>
</svg>
