<svg width="25" height="24" viewBox="0 0 25 24" fill="none" xmlns="http://www.w3.org/2000/svg">
<g id="803">
<path id="Vector" d="M10.9141 3C8.41406 3 6.41406 5 6.41406 7.5C6.41406 8.11 6.54406 8.71 6.78406 9.27C5.91406 10.12 5.41406 11.28 5.41406 12.5C5.41406 15 7.41406 17 9.91406 17C10.4141 17 10.9141 16.89 11.4141 16.72V21H13.4141V15.77C13.9141 15.91 14.4141 16 14.9141 16C15.6363 16 16.3515 15.8577 17.0188 15.5813C17.6861 15.3049 18.2924 14.8998 18.8032 14.3891C19.3139 13.8784 19.719 13.272 19.9954 12.6048C20.2718 11.9375 20.4141 11.2223 20.4141 10.5C20.4141 9.77773 20.2718 9.06253 19.9954 8.39524C19.719 7.72795 19.3139 7.12164 18.8032 6.61091C18.2924 6.10019 17.6861 5.69506 17.0188 5.41866C16.3515 5.14226 15.6363 5 14.9141 5C14.8241 5 14.7441 5 14.6541 5C13.8241 3.76 12.4141 3 10.9141 3ZM10.9141 5C12.2341 5 13.3241 6.03 13.4141 7.35C13.8741 7.12 14.4141 7 14.9141 7C15.8423 7 16.7326 7.36875 17.3889 8.02513C18.0453 8.6815 18.4141 9.57174 18.4141 10.5C18.4141 11.4283 18.0453 12.3185 17.3889 12.9749C16.7326 13.6313 15.8423 14 14.9141 14C13.9541 14 13.0441 13.61 12.3741 12.91C12.1741 14.12 11.1341 15 9.91406 15C9.25102 15 8.61514 14.7366 8.1463 14.2678C7.67745 13.7989 7.41406 13.163 7.41406 12.5C7.41406 11.12 8.21406 10.54 9.41406 9.79C8.61406 8.76 8.41406 8.16 8.41406 7.5C8.41406 6.83696 8.67745 6.20107 9.1463 5.73223C9.61514 5.26339 10.251 5 10.9141 5Z" fill="black"/>
</g>
</svg>
