<svg width="25" height="24" viewBox="0 0 25 24" fill="none" xmlns="http://www.w3.org/2000/svg">
<g id="804">
<path id="Vector" d="M11.4141 21V16.74C10.9441 16.91 10.4441 17 9.91406 17C7.41406 17 5.41406 15 5.41406 12.5C5.41406 11.23 5.91406 10.09 6.77406 9.27C6.54406 8.73 6.41406 8.13 6.41406 7.5C6.41406 5 8.41406 3 10.9141 3C12.4741 3 13.8541 3.8 14.6641 5C14.7441 5 14.8241 5 14.9141 5C15.6363 5 16.3515 5.14226 17.0188 5.41866C17.6861 5.69506 18.2924 6.10019 18.8032 6.61091C19.3139 7.12164 19.719 7.72795 19.9954 8.39524C20.2718 9.06253 20.4141 9.77773 20.4141 10.5C20.4141 11.2223 20.2718 11.9375 19.9954 12.6048C19.719 13.272 19.3139 13.8784 18.8032 14.3891C18.2924 14.8998 17.6861 15.3049 17.0188 15.5813C16.3515 15.8577 15.6363 16 14.9141 16C14.4141 16 13.9141 15.93 13.4141 15.79V21H11.4141Z" fill="black"/>
</g>
</svg>
