<svg width="25" height="24" viewBox="0 0 25 24" fill="none" xmlns="http://www.w3.org/2000/svg">
<g id="806">
<path id="Vector" d="M2.41406 17C2.41406 17.5304 2.62478 18.0391 2.99985 18.4142C3.37492 18.7892 3.88363 19 4.41406 19H20.4141C20.9445 19 21.4532 18.7892 21.8283 18.4142C22.2033 18.0391 22.4141 17.5304 22.4141 17V12H20.4141V17H4.41406V12H2.41406M14.5341 5.45996L15.9541 6.87996L13.8241 8.99996L15.9541 11.12L14.5341 12.54L12.4141 10.41L10.2941 12.54L8.87406 11.12L11.0041 8.99996L8.87406 6.87996L10.2941 5.45996L12.4141 7.58996L14.5341 5.45996Z" fill="black"/>
</g>
</svg>
