<svg width="25" height="24" viewBox="0 0 25 24" fill="none" xmlns="http://www.w3.org/2000/svg">
<g id="816">
<path id="Vector" d="M22.5156 21.5L2.81563 1.69995L1.51562 2.99995L6.51562 7.99995H5.81563L4.51563 10.5L6.31563 11.4L7.01562 9.99995H8.51563L9.51562 11L6.61563 22H8.71563L8.91564 21.1L12.4156 15.9L15.9156 21.1L16.1156 22H18.2156L17.4156 18.7999L21.3156 22.7L22.5156 21.5ZM9.71562 18.1L10.9156 13.6L11.8156 14.9L9.71562 18.1ZM15.1156 18.1L13.0156 15L13.2156 14.7L14.5156 16L15.1156 18.1ZM14.6156 11H15.3156L15.5156 11.9L14.6156 11ZM14.5156 7.99995H19.0156L20.3156 10.6L18.5156 11.5L17.8156 9.99995H13.6156L10.6156 6.99995L11.1156 4.99995H13.7156L14.5156 7.99995ZM8.81563 5.19995L7.31563 3.69995L8.21563 1.99995H16.7156L18.0156 4.49995L16.2156 5.39995L15.4156 3.99995H9.41564L8.81563 5.19995Z" fill="black"/>
</g>
</svg>
