<svg width="25" height="24" viewBox="0 0 25 24" fill="none" xmlns="http://www.w3.org/2000/svg">
<g id="817">
<path id="Vector" d="M11.8041 5.45L10.0241 4.55L11.2841 2H19.7541L21.0241 4.55L19.2441 5.44L18.5241 4H12.5241L11.8041 5.45ZM22.1441 8H17.6141L16.8241 5H14.2241L13.4141 8H8.91406L7.62406 10.55L9.41406 11.44L10.1441 10H20.9141L21.6241 11.45L23.4141 10.56L22.1441 8ZM21.2941 22H19.2241L18.9841 21.1L15.5241 15.9L12.0541 21.1L11.8241 22H9.75406L12.6441 11H14.7141L14.3541 12.35L15.5241 14.1L16.6841 12.35L16.3341 11H18.4141L21.2941 22ZM14.9141 15L14.0241 13.65L12.8441 18.13L14.9141 15ZM18.2041 18.12L17.0241 13.64L16.1241 15L18.2041 18.12ZM9.41406 16L5.41406 12V15H1.41406V17H5.41406V20L9.41406 16Z" fill="black"/>
</g>
</svg>
