<svg width="25" height="24" viewBox="0 0 25 24" fill="none" xmlns="http://www.w3.org/2000/svg">
<g id="818">
<path id="Vector" d="M13.2841 15.07L10.7441 12.56L10.7741 12.53C12.5141 10.59 13.7541 8.36 14.4841 6H17.4141V4H10.4141V2H8.41406V4H1.41406V6H12.5841C11.9141 7.92 10.8541 9.75 9.41406 11.35C8.48406 10.32 7.71406 9.19 7.10406 8H5.10406C5.83406 9.63 6.83406 11.17 8.08406 12.56L2.99406 17.58L4.41406 19L9.41406 14L12.5241 17.11L13.2841 15.07ZM18.9141 10H16.9141L12.4141 22H14.4141L15.5341 19H20.2841L21.4141 22H23.4141L18.9141 10ZM16.2941 17L17.9141 12.67L19.5341 17H16.2941Z" fill="black"/>
</g>
</svg>
