<svg width="25" height="24" viewBox="0 0 25 24" fill="none" xmlns="http://www.w3.org/2000/svg">
<g id="819" clip-path="url(#clip0_5605_222236)">
<g id="Group">
<path id="Vector" d="M12.5841 5.81006C12.2841 6.69006 11.8841 7.55006 11.4141 8.39006L12.7641 9.74006C13.5241 8.50006 14.1241 7.18006 14.5441 5.81006H17.5741V3.75006H10.3541V1.69006H8.28406V3.75006H6.78406L8.84406 5.81006H12.5841ZM15.9441 12.9101L17.4441 14.4101L18.0841 12.6901L19.4941 16.4701L22.8041 19.7701L19.1141 9.94006H17.0541L15.9441 12.9101ZM1.72406 1.31006L0.414062 2.62006L1.54406 3.75006H1.06406V5.81006H3.60406L5.67406 7.88006H4.87406C5.62406 9.56006 6.65406 11.1501 7.94406 12.5801L2.69406 17.7601L4.16406 19.2201L9.32406 14.0701L12.5241 17.2701L13.2141 15.4301L14.5141 16.7201L12.4141 22.3101H14.4741L15.6341 19.2201H17.0141L21.7941 24.0001L23.1041 22.6901L1.72406 1.31006Z" fill="black"/>
</g>
</g>
<defs>
<clipPath id="clip0_5605_222236">
<rect width="25" height="24" fill="white"/>
</clipPath>
</defs>
</svg>
