<svg width="25" height="24" viewBox="0 0 25 24" fill="none" xmlns="http://www.w3.org/2000/svg">
<g id="82">
<path id="Vector" d="M12.4102 2C11.0969 2 9.79658 2.25866 8.58332 2.7612C7.37007 3.26375 6.26767 4.00035 5.33909 4.92893C3.46372 6.8043 2.41016 9.34784 2.41016 12C2.41016 14.6522 3.46372 17.1957 5.33909 19.0711C6.26767 19.9997 7.37007 20.7362 8.58332 21.2388C9.79658 21.7413 11.0969 22 12.4102 22C15.0623 22 17.6059 20.9464 19.4812 19.0711C21.3566 17.1957 22.4102 14.6522 22.4102 12C22.4102 10.6868 22.1515 9.38642 21.649 8.17317C21.1464 6.95991 20.4098 5.85752 19.4812 4.92893C18.5526 4.00035 17.4502 3.26375 16.237 2.7612C15.0237 2.25866 13.7234 2 12.4102 2ZM12.4102 4C14.5319 4 16.5667 4.84285 18.067 6.34315C19.5673 7.84344 20.4102 9.87827 20.4102 12C20.4102 14.1217 19.5673 16.1566 18.067 17.6569C16.5667 19.1571 14.5319 20 12.4102 20C10.2884 20 8.25359 19.1571 6.7533 17.6569C5.25301 16.1566 4.41016 14.1217 4.41016 12C4.41016 9.87827 5.25301 7.84344 6.7533 6.34315C8.25359 4.84285 10.2884 4 12.4102 4ZM7.41016 10L12.4102 15L17.4102 10H7.41016Z" fill="black"/>
</g>
</svg>
