<svg width="25" height="24" viewBox="0 0 25 24" fill="none" xmlns="http://www.w3.org/2000/svg">
<g id="820">
<path id="Vector" d="M11.4141 1H3.41406C2.31406 1 1.41406 1.9 1.41406 3V15L4.41406 12H9.41406V11C9.41406 8.8 11.2041 7 13.4141 7V3C13.4141 1.9 12.5141 1 11.4141 1ZM11.4141 4H9.91406C9.57406 5.19 8.95406 6.3 8.09406 7.26L8.07406 7.28L9.33406 8.53L8.96406 9.54L7.41406 8L4.91406 10.5L4.22406 9.77L6.75406 7.28C6.13406 6.59 5.63406 5.82 5.27406 5H6.26406C6.57406 5.6 6.95406 6.17 7.41406 6.68C8.13406 5.88 8.65406 4.97 8.98406 4H3.41406V3H6.91406V2H7.91406V3H11.4141V4ZM21.4141 9H13.4141C12.3141 9 11.4141 9.9 11.4141 11V18C11.4141 19.1 12.3141 20 13.4141 20H20.4141L23.4141 23V11C23.4141 9.9 22.5141 9 21.4141 9ZM20.0441 19L19.1941 16.75H15.6341L14.7941 19H13.2941L16.6641 10H18.1641L21.5441 19H20.0441ZM17.4141 12L18.6341 15.25H16.2041L17.4141 12Z" fill="black"/>
</g>
</svg>
