<svg width="25" height="24" viewBox="0 0 25 24" fill="none" xmlns="http://www.w3.org/2000/svg">
<g id="821">
<path id="Vector" d="M8.69562 5.45L6.91563 4.55L8.17563 2H16.6456L17.9156 4.55L16.1356 5.44L15.4156 4H9.41564L8.69562 5.45ZM19.0356 8H14.5056L13.7156 5H11.1156L10.3256 8H5.79563L4.51562 10.55L6.30562 11.44L7.03562 10H17.7956L18.5156 11.45L20.3056 10.56L19.0356 8ZM18.1856 22H16.1156L15.8756 21.1L12.4156 15.9L8.94562 21.1L8.71563 22H6.64563L9.53562 11H11.6056L11.2456 12.35L12.4156 14.1L13.5756 12.35L13.2256 11H15.2956L18.1856 22ZM11.8156 15L10.9156 13.65L9.73562 18.13L11.8156 15ZM15.0956 18.12L13.9156 13.64L13.0156 15L15.0956 18.12Z" fill="black"/>
</g>
</svg>
