<svg width="25" height="24" viewBox="0 0 25 24" fill="none" xmlns="http://www.w3.org/2000/svg">
<g id="822">
<path id="Vector" d="M5.59406 5.45L3.81406 4.55L5.07406 2H13.5441L14.8141 4.55L13.0341 5.44L12.3141 4H6.31406L5.59406 5.45ZM15.9141 8H11.4141L10.6141 5H8.01406L7.22406 8H2.69406L1.41406 10.55L3.20406 11.44L3.91406 10H14.6941L15.4141 11.45L17.2041 10.56L15.9141 8ZM15.0841 22H13.0141L12.7741 21.1L9.31406 15.9L5.84406 21.1L5.61406 22H3.54406L6.41406 11H8.50406L8.14406 12.35L9.31406 14.1L10.4741 12.35L10.1241 11H12.1941L15.0841 22ZM8.71406 15L7.81406 13.65L6.63406 18.13L8.71406 15ZM11.9941 18.12L10.8141 13.64L9.91406 15L11.9941 18.12ZM23.4141 16L19.4141 12V15H15.4141V17H19.4141V20L23.4141 16Z" fill="black"/>
</g>
</svg>
