<svg width="25" height="24" viewBox="0 0 25 24" fill="none" xmlns="http://www.w3.org/2000/svg">
<g id="823">
<path id="Vector" d="M15.4141 2C17.3541 2 19.0041 2.7 20.3641 4.05C21.7141 5.41 22.4141 7.06 22.4141 9C22.4141 10.56 21.9141 11.96 20.9941 13.2C20.0541 14.43 18.8541 15.27 17.3841 15.7L17.4141 15.38V15C17.4141 12.81 16.6441 10.93 15.0641 9.35C13.4841 7.77 11.6041 7 9.41406 7H9.04406L8.71406 7.03C9.14406 5.56 9.98406 4.36 11.2141 3.42C12.4541 2.5 13.8541 2 15.4141 2ZM9.41406 8C11.2706 8 13.0511 8.7375 14.3638 10.0503C15.6766 11.363 16.4141 13.1435 16.4141 15C16.4141 16.8565 15.6766 18.637 14.3638 19.9497C13.0511 21.2625 11.2706 22 9.41406 22C7.55755 22 5.77707 21.2625 4.46431 19.9497C3.15156 18.637 2.41406 16.8565 2.41406 15C2.41406 13.1435 3.15156 11.363 4.46431 10.0503C5.77707 8.7375 7.55755 8 9.41406 8ZM9.41406 10C8.08798 10 6.81621 10.5268 5.87853 11.4645C4.94085 12.4021 4.41406 13.6739 4.41406 15C4.41406 16.3261 4.94085 17.5979 5.87853 18.5355C6.81621 19.4732 8.08798 20 9.41406 20C10.0707 20 10.7209 19.8707 11.3275 19.6194C11.9341 19.3681 12.4853 18.9998 12.9496 18.5355C13.4139 18.0712 13.7822 17.52 14.0335 16.9134C14.2847 16.3068 14.4141 15.6566 14.4141 15C14.4141 14.3434 14.2847 13.6932 14.0335 13.0866C13.7822 12.48 13.4139 11.9288 12.9496 11.4645C12.4853 11.0002 11.9341 10.6319 11.3275 10.3806C10.7209 10.1293 10.0707 10 9.41406 10Z" fill="black"/>
</g>
</svg>
