<svg width="25" height="24" viewBox="0 0 25 24" fill="none" xmlns="http://www.w3.org/2000/svg">
<g id="824">
<path id="Vector" d="M15.4141 2C17.2706 2 19.0511 2.7375 20.3638 4.05025C21.6766 5.36301 22.4141 7.14348 22.4141 9C22.4141 11.71 20.8741 14.05 18.6341 15.22C17.9641 16.5 16.9141 17.55 15.6341 18.22C14.4641 20.46 12.1241 22 9.41406 22C7.55755 22 5.77707 21.2625 4.46431 19.9497C3.15156 18.637 2.41406 16.8565 2.41406 15C2.41406 12.29 3.95406 9.95 6.19406 8.78C6.86406 7.5 7.91406 6.45 9.19406 5.78C10.3641 3.54 12.7041 2 15.4141 2ZM12.4141 19C10.5575 19 8.77707 18.2625 7.46431 16.9497C6.15156 15.637 5.41406 13.8565 5.41406 12C4.78406 12.84 4.41406 13.87 4.41406 15C4.41406 16.3261 4.94085 17.5979 5.87853 18.5355C6.81621 19.4732 8.08798 20 9.41406 20C10.5441 20 11.5741 19.63 12.4141 19ZM15.4141 16C13.5575 16 11.7771 15.2625 10.4643 13.9497C9.15156 12.637 8.41406 10.8565 8.41406 9C7.78406 9.84 7.41406 10.87 7.41406 12C7.41406 13.3261 7.94085 14.5979 8.87853 15.5355C9.81621 16.4732 11.088 17 12.4141 17C13.5441 17 14.5741 16.63 15.4141 16ZM15.4141 4C14.2841 4 13.2541 4.37 12.4141 5C14.2706 5 16.0511 5.7375 17.3638 7.05025C18.6766 8.36301 19.4141 10.1435 19.4141 12C20.0441 11.16 20.4141 10.13 20.4141 9C20.4141 7.67392 19.8873 6.40215 18.9496 5.46447C18.0119 4.52678 16.7401 4 15.4141 4ZM10.4141 9C10.4141 10.3261 10.9408 11.5979 11.8785 12.5355C12.8162 13.4732 14.088 14 15.4141 14C16.0141 14 16.5841 13.9 17.1141 13.7C17.3141 13.17 17.4141 12.6 17.4141 12C17.4141 10.6739 16.8873 9.40215 15.9496 8.46447C15.0119 7.52678 13.7401 7 12.4141 7C11.8141 7 11.2441 7.1 10.7141 7.3C10.5141 7.83 10.4141 8.4 10.4141 9Z" fill="black"/>
</g>
</svg>
