<svg width="25" height="24" viewBox="0 0 25 24" fill="none" xmlns="http://www.w3.org/2000/svg">
<g id="825">
<path id="Vector" d="M16.9141 15.5H22.4141V17H16.9141V18.75L14.4141 16.25L16.9141 13.75V15.5ZM19.9141 19.75V18L22.4141 20.5L19.9141 23V21.25H14.4141V19.75H19.9141ZM9.91406 5.5C9.38363 5.5 8.87492 5.28929 8.49985 4.91421C8.12478 4.53914 7.91406 4.03043 7.91406 3.5C7.91406 2.96957 8.12478 2.46086 8.49985 2.08579C8.87492 1.71071 9.38363 1.5 9.91406 1.5C10.4445 1.5 10.9532 1.71071 11.3283 2.08579C11.7033 2.46086 11.9141 2.96957 11.9141 3.5C11.9141 4.03043 11.7033 4.53914 11.3283 4.91421C10.9532 5.28929 10.4445 5.5 9.91406 5.5ZM6.16406 8.9L4.41406 9.65V13H2.41406V8.3L7.66406 6.15C7.91406 6.05 8.16406 6 8.41406 6C9.11406 6 9.76406 6.35 10.1141 6.95L11.0641 8.55C11.9641 10 13.5641 11 15.4141 11V13C13.2141 13 11.2641 12 9.96406 10.4L9.36406 13.4L11.4141 15.45V23H9.41406V17L7.26406 15L5.51406 23H3.41406L6.16406 8.9Z" fill="black"/>
</g>
</svg>
