<svg width="25" height="24" viewBox="0 0 25 24" fill="none" xmlns="http://www.w3.org/2000/svg">
<g id="826">
<path id="Vector" d="M21.4141 12C21.4141 8 18.9141 4.7 15.4141 3.5C15.1141 2.1 13.9141 1 12.4141 1C10.7141 1 9.41406 2.3 9.41406 4C9.41406 5.7 10.7141 7 12.4141 7C13.5141 7 14.5141 6.4 15.0141 5.5C17.6141 6.5 19.4141 9 19.4141 12C19.4141 14.9 17.6141 17.5 15.0141 18.5C14.5141 17.6 13.5141 17 12.4141 17C10.7141 17 9.41406 18.3 9.41406 20C9.41406 21.7 10.7141 23 12.4141 23C13.9141 23 15.1141 21.9 15.4141 20.5C18.9141 19.3 21.4141 15.9 21.4141 12ZM12.4141 5C11.8141 5 11.4141 4.6 11.4141 4C11.4141 3.4 11.8141 3 12.4141 3C13.0141 3 13.4141 3.4 13.4141 4C13.4141 4.6 13.0141 5 12.4141 5ZM12.4141 21C11.8141 21 11.4141 20.6 11.4141 20C11.4141 19.4 11.8141 19 12.4141 19C13.0141 19 13.4141 19.4 13.4141 20C13.4141 20.6 13.0141 21 12.4141 21ZM12.4141 9C14.1141 9 15.4141 10.3 15.4141 12C15.4141 13.7 14.1141 15 12.4141 15C10.7141 15 9.41406 13.7 9.41406 12C9.41406 10.3 10.7141 9 12.4141 9Z" fill="black"/>
</g>
</svg>
