<svg width="25" height="24" viewBox="0 0 25 24" fill="none" xmlns="http://www.w3.org/2000/svg">
<g id="827">
<path id="Vector" d="M19.4172 3C18.9523 3.00271 18.4944 3.11343 18.0796 3.32342C17.6648 3.53341 17.3046 3.83692 17.0272 4.21C16.0863 4.02094 15.1255 3.9504 14.1672 4L14.2972 6C15.0065 5.9637 15.7176 6.00731 16.4172 6.13C16.4426 6.71714 16.64 7.28386 16.9847 7.75981C17.3295 8.23577 17.8064 8.59998 18.3563 8.80724C18.9063 9.0145 19.505 9.05568 20.0781 8.92565C20.6512 8.79563 21.1735 8.50014 21.5802 8.07586C21.9868 7.65159 22.2599 7.11722 22.3655 6.5391C22.4711 5.96098 22.4046 5.36457 22.1742 4.82392C21.9438 4.28328 21.5597 3.82221 21.0696 3.49796C20.5794 3.1737 20.0049 3.00055 19.4172 3ZM19.4172 7C19.2194 7 19.0261 6.94135 18.8616 6.83147C18.6972 6.72159 18.569 6.56541 18.4933 6.38268C18.4176 6.19996 18.3978 5.99889 18.4364 5.80491C18.475 5.61093 18.5702 5.43275 18.7101 5.29289C18.8499 5.15304 19.0281 5.0578 19.2221 5.01921C19.4161 4.98063 19.6171 5.00043 19.7999 5.07612C19.9826 5.15181 20.1388 5.27998 20.2486 5.44443C20.3585 5.60888 20.4172 5.80222 20.4172 6C20.4172 6.26522 20.3118 6.51957 20.1243 6.70711C19.9367 6.89464 19.6824 7 19.4172 7ZM9.27717 7.86L8.08717 6.25C9.26542 5.37866 10.5994 4.74054 12.0172 4.37L12.5172 6.31C11.3484 6.61595 10.2488 7.14202 9.27717 7.86ZM21.4172 18C21.421 18.4825 21.3085 18.9588 21.089 19.3885C20.8695 19.8182 20.5497 20.1887 20.1565 20.4684C19.7634 20.7481 19.3086 20.9289 18.8307 20.9954C18.3528 21.0619 17.8659 21.0121 17.4113 20.8503C16.9567 20.6885 16.5479 20.4195 16.2195 20.066C15.891 19.7125 15.6527 19.285 15.5247 18.8198C15.3967 18.3546 15.3829 17.8653 15.4843 17.3936C15.5856 16.9219 15.7993 16.4815 16.1072 16.11C15.17 15.2032 14.0556 14.4998 12.8338 14.0438C11.6121 13.5878 10.3093 13.3891 9.00717 13.46C8.78717 13.47 8.57717 13.5 8.35717 13.54C8.25907 14.0757 8.01699 14.5746 7.6569 14.9832C7.29681 15.3917 6.8323 15.6946 6.31317 15.8592C5.79405 16.0238 5.2399 16.0441 4.71016 15.9177C4.18042 15.7913 3.69507 15.5232 3.30616 15.1419C2.91725 14.7607 2.63945 14.2808 2.50256 13.7536C2.36568 13.2265 2.37486 12.6721 2.52913 12.1498C2.68339 11.6275 2.97693 11.157 3.37825 10.7889C3.77957 10.4207 4.27354 10.1688 4.80717 10.06C5.25648 9.20753 5.81079 8.41469 6.45717 7.7L7.91717 9.06C7.54396 9.47905 7.20927 9.93087 6.91717 10.41C7.3868 10.6861 7.77362 11.0832 8.03717 11.56C8.32717 11.5 8.60717 11.5 8.91717 11.46C10.5818 11.3713 12.2458 11.6466 13.7932 12.2666C15.3406 12.8866 16.7343 13.8364 17.8772 15.05C18.0553 15.0168 18.236 15.0001 18.4172 15C19.2128 15 19.9759 15.3161 20.5385 15.8787C21.1011 16.4413 21.4172 17.2044 21.4172 18Z" fill="black"/>
</g>
</svg>
