<svg width="25" height="24" viewBox="0 0 25 24" fill="none" xmlns="http://www.w3.org/2000/svg">
<g id="830">
<path id="Vector" d="M15.4141 12C15.4141 10.7 14.5741 9.6 13.4141 9.18V6.82C14.5741 6.4 15.4141 5.3 15.4141 4C15.4141 3.20435 15.098 2.44129 14.5354 1.87868C13.9728 1.31607 13.2097 1 12.4141 1C11.6184 1 10.8554 1.31607 10.2927 1.87868C9.73013 2.44129 9.41406 3.20435 9.41406 4C9.41406 5.3 10.2541 6.4 11.4141 6.82V9.19C10.2541 9.6 9.41406 10.7 9.41406 12C9.41406 13.3 10.2541 14.4 11.4141 14.82V17.18C10.2541 17.6 9.41406 18.7 9.41406 20C9.41406 20.7956 9.73013 21.5587 10.2927 22.1213C10.8554 22.6839 11.6184 23 12.4141 23C13.2097 23 13.9728 22.6839 14.5354 22.1213C15.098 21.5587 15.4141 20.7956 15.4141 20C15.4141 18.7 14.5741 17.6 13.4141 17.18V14.82C14.5741 14.4 15.4141 13.3 15.4141 12ZM12.4141 3C12.6793 3 12.9336 3.10536 13.1212 3.29289C13.3087 3.48043 13.4141 3.73478 13.4141 4C13.4141 4.26522 13.3087 4.51957 13.1212 4.70711C12.9336 4.89464 12.6793 5 12.4141 5C12.1488 5 11.8945 4.89464 11.707 4.70711C11.5194 4.51957 11.4141 4.26522 11.4141 4C11.4141 3.73478 11.5194 3.48043 11.707 3.29289C11.8945 3.10536 12.1488 3 12.4141 3ZM12.4141 21C12.1488 21 11.8945 20.8946 11.707 20.7071C11.5194 20.5196 11.4141 20.2652 11.4141 20C11.4141 19.7348 11.5194 19.4804 11.707 19.2929C11.8945 19.1054 12.1488 19 12.4141 19C12.6793 19 12.9336 19.1054 13.1212 19.2929C13.3087 19.4804 13.4141 19.7348 13.4141 20C13.4141 20.2652 13.3087 20.5196 13.1212 20.7071C12.9336 20.8946 12.6793 21 12.4141 21Z" fill="black"/>
</g>
</svg>
