<svg width="25" height="24" viewBox="0 0 25 24" fill="none" xmlns="http://www.w3.org/2000/svg">
<g id="831">
<path id="Vector" d="M12.4141 9C11.1141 9 10.0141 9.8 9.61406 11H7.21406C6.81406 9.8 5.71406 9 4.41406 9C2.71406 9 1.41406 10.3 1.41406 12C1.41406 13.7 2.71406 15 4.41406 15C5.71406 15 6.81406 14.2 7.21406 13H9.61406C10.0141 14.2 11.1141 15 12.4141 15C13.7141 15 14.8141 14.2 15.2141 13H17.6141C18.0141 14.2 19.1141 15 20.4141 15C22.1141 15 23.4141 13.7 23.4141 12C23.4141 10.3 22.1141 9 20.4141 9C19.1141 9 18.0141 9.8 17.6141 11H15.2141C14.8141 9.8 13.7141 9 12.4141 9ZM3.41406 12C3.41406 11.4 3.81406 11 4.41406 11C5.01406 11 5.41406 11.4 5.41406 12C5.41406 12.6 5.01406 13 4.41406 13C3.81406 13 3.41406 12.6 3.41406 12ZM21.4141 12C21.4141 12.6 21.0141 13 20.4141 13C19.8141 13 19.4141 12.6 19.4141 12C19.4141 11.4 19.8141 11 20.4141 11C21.0141 11 21.4141 11.4 21.4141 12Z" fill="black"/>
</g>
</svg>
