<svg width="25" height="24" viewBox="0 0 25 24" fill="none" xmlns="http://www.w3.org/2000/svg">
<g id="832">
<path id="Vector" d="M18.4141 11H15.2341C14.8141 9.84 13.7141 9 12.4141 9C11.1141 9 10.0141 9.84 9.59406 11H6.41406C6.08406 11 4.41406 10.9 4.41406 9V8C4.41406 6.17 5.95406 6 6.41406 6H16.5941C17.0141 7.16 18.1141 8 19.4141 8C20.2097 8 20.9728 7.68393 21.5354 7.12132C22.098 6.55871 22.4141 5.79565 22.4141 5C22.4141 4.20435 22.098 3.44129 21.5354 2.87868C20.9728 2.31607 20.2097 2 19.4141 2C18.1141 2 17.0141 2.84 16.5941 4H6.41406C4.80406 4 2.41406 5.06 2.41406 8V9C2.41406 11.94 4.80406 13 6.41406 13H9.59406C10.0141 14.16 11.1141 15 12.4141 15C13.7141 15 14.8141 14.16 15.2341 13H18.4141C18.7441 13 20.4141 13.1 20.4141 15V16C20.4141 17.83 18.8741 18 18.4141 18H8.23406C7.81406 16.84 6.71406 16 5.41406 16C4.61841 16 3.85535 16.3161 3.29274 16.8787C2.73013 17.4413 2.41406 18.2044 2.41406 19C2.41406 19.7956 2.73013 20.5587 3.29274 21.1213C3.85535 21.6839 4.61841 22 5.41406 22C6.71406 22 7.81406 21.16 8.23406 20H18.4141C20.0241 20 22.4141 18.93 22.4141 16V15C22.4141 12.07 20.0241 11 18.4141 11ZM19.4141 4C19.6793 4 19.9336 4.10536 20.1212 4.29289C20.3087 4.48043 20.4141 4.73478 20.4141 5C20.4141 5.26522 20.3087 5.51957 20.1212 5.70711C19.9336 5.89464 19.6793 6 19.4141 6C19.1488 6 18.8945 5.89464 18.707 5.70711C18.5194 5.51957 18.4141 5.26522 18.4141 5C18.4141 4.73478 18.5194 4.48043 18.707 4.29289C18.8945 4.10536 19.1488 4 19.4141 4ZM5.41406 20C5.14885 20 4.89449 19.8946 4.70696 19.7071C4.51942 19.5196 4.41406 19.2652 4.41406 19C4.41406 18.7348 4.51942 18.4804 4.70696 18.2929C4.89449 18.1054 5.14885 18 5.41406 18C5.67928 18 5.93363 18.1054 6.12117 18.2929C6.30871 18.4804 6.41406 18.7348 6.41406 19C6.41406 19.2652 6.30871 19.5196 6.12117 19.7071C5.93363 19.8946 5.67928 20 5.41406 20Z" fill="black"/>
</g>
</svg>
