<svg width="25" height="24" viewBox="0 0 25 24" fill="none" xmlns="http://www.w3.org/2000/svg">
<g id="835">
<path id="Vector" d="M8.41406 4C7.88363 4 7.37492 4.21071 6.99985 4.58579C6.62478 4.96086 6.41406 5.46957 6.41406 6V10H8.41406V6H16.4141V9H13.9141L17.4141 12.5L20.9141 9H18.4141V6C18.4141 5.46957 18.2033 4.96086 17.8283 4.58579C17.4532 4.21071 16.9445 4 16.4141 4H8.41406ZM3.41406 12V14H11.4141V12H3.41406ZM3.41406 15V17H11.4141V15H3.41406ZM13.4141 15V17H21.4141V15H13.4141ZM3.41406 18V20H11.4141V18H3.41406ZM13.4141 18V20H21.4141V18H13.4141Z" fill="black"/>
</g>
</svg>
