<svg width="25" height="24" viewBox="0 0 25 24" fill="none" xmlns="http://www.w3.org/2000/svg">
<g id="836">
<path id="Vector" d="M12.4141 23L8.41406 19H16.4141L12.4141 23ZM20.4141 3C20.9445 3 21.4532 3.21071 21.8283 3.58579C22.2033 3.96086 22.4141 4.46957 22.4141 5V15C22.4141 15.5304 22.2033 16.0391 21.8283 16.4142C21.4532 16.7893 20.9445 17 20.4141 17H4.41406C3.88363 17 3.37492 16.7893 2.99985 16.4142C2.62478 16.0391 2.41406 15.5304 2.41406 15V5C2.41406 4.46957 2.62478 3.96086 2.99985 3.58579C3.37492 3.21071 3.88363 3 4.41406 3H20.4141ZM18.4141 15V13H12.9141L10.9141 15H18.4141ZM6.41406 15H8.91406L15.7641 8.12C15.9641 7.93 15.9641 7.61 15.7641 7.42L14.0041 5.65C13.8041 5.45 13.4841 5.45 13.2941 5.65L6.41406 12.53V15Z" fill="black"/>
</g>
</svg>
