<svg width="25" height="24" viewBox="0 0 25 24" fill="none" xmlns="http://www.w3.org/2000/svg">
<g id="837">
<path id="Vector" d="M20.4141 5C20.9445 5 21.4532 5.21071 21.8283 5.58579C22.2033 5.96086 22.4141 6.46957 22.4141 7V17C22.4141 17.5304 22.2033 18.0391 21.8283 18.4142C21.4532 18.7893 20.9445 19 20.4141 19H4.41406C3.30406 19 2.41406 18.1 2.41406 17V7C2.41406 5.89 3.30406 5 4.41406 5H20.4141ZM18.4141 17V15H12.9141L10.9141 17H18.4141ZM6.41406 17H8.91406L15.7641 10.12C15.9641 9.93 15.9641 9.61 15.7641 9.41L14.0041 7.65C13.8041 7.45 13.4841 7.45 13.2941 7.65L6.41406 14.53V17Z" fill="black"/>
</g>
</svg>
