<svg width="25" height="24" viewBox="0 0 25 24" fill="none" xmlns="http://www.w3.org/2000/svg">
<g id="839">
<path id="Vector" d="M23.4141 15V17H22.4141C22.4141 18.11 21.5241 19 20.4141 19C19.3041 19 18.4141 18.11 18.4141 17H6.41406C6.41406 18.11 5.52406 19 4.41406 19C3.30406 19 2.41406 18.11 2.41406 17H1.41406V15H23.4141ZM21.4141 8H15.4141V7H9.41406V8H3.41406C2.31406 8 1.41406 8.9 1.41406 10V12C1.41406 13.11 2.31406 14 3.41406 14H21.4141C22.5241 14 23.4141 13.11 23.4141 12V10C23.4141 8.9 22.5241 8 21.4141 8Z" fill="black"/>
</g>
</svg>
