<svg width="25" height="24" viewBox="0 0 25 24" fill="none" xmlns="http://www.w3.org/2000/svg">
<g id="840">
<path id="Vector" d="M18.4141 10H6.41406V5H18.4141M12.4141 17C11.3041 17 10.4141 16.1 10.4141 15C10.4141 13.89 11.3041 13 12.4141 13C12.9445 13 13.4532 13.2107 13.8283 13.5858C14.2033 13.9609 14.4141 14.4696 14.4141 15C14.4141 15.5304 14.2033 16.0391 13.8283 16.4142C13.4532 16.7893 12.9445 17 12.4141 17ZM4.41406 15.5C4.41406 16.4283 4.78281 17.3185 5.43919 17.9749C6.09557 18.6313 6.9858 19 7.91406 19L6.41406 20.5V21H18.4141V20.5L16.9141 19C17.8423 19 18.7326 18.6313 19.3889 17.9749C20.0453 17.3185 20.4141 16.4283 20.4141 15.5V5C20.4141 1.5 16.8341 1 12.4141 1C7.99406 1 4.41406 1.5 4.41406 5V15.5Z" fill="black"/>
</g>
</svg>
