<svg width="25" height="24" viewBox="0 0 25 24" fill="none" xmlns="http://www.w3.org/2000/svg">
<g id="841">
<path id="Vector" d="M19.4141 16.94V8.5C19.4141 5.71 16.8041 5.1 13.4141 5L14.1641 3.5H17.4141V2H7.41406V3.5H12.1641L11.4141 5C8.27406 5.11 5.41406 5.73 5.41406 8.5V16.94C5.41406 18.39 6.60406 19.6 8.00406 19.91L6.41406 21.5V22H8.64406L10.6441 20H14.4141L16.4141 22H18.4141V21.5L16.9141 20H16.8341C18.5241 20 19.4141 18.63 19.4141 16.94ZM12.4141 18.5C12.0162 18.5 11.6347 18.342 11.3534 18.0607C11.0721 17.7794 10.9141 17.3978 10.9141 17C10.9141 16.6022 11.0721 16.2206 11.3534 15.9393C11.6347 15.658 12.0162 15.5 12.4141 15.5C12.8119 15.5 13.1934 15.658 13.4747 15.9393C13.756 16.2206 13.9141 16.6022 13.9141 17C13.9141 17.3978 13.756 17.7794 13.4747 18.0607C13.1934 18.342 12.8119 18.5 12.4141 18.5ZM17.4141 14H7.41406V9H17.4141V14Z" fill="black"/>
</g>
</svg>
