<svg width="25" height="24" viewBox="0 0 25 24" fill="none" xmlns="http://www.w3.org/2000/svg">
<g id="842">
<path id="Vector" d="M9.41406 1L5.41406 4L7.91406 6H5.41406C5.41406 6 2.41406 6 2.41406 9V19H7.41406C7.41406 19 7.41406 17 9.41406 17H22.4141V14H18.4141V8H22.4141V6H10.9141L13.4141 4L9.41406 1ZM4.41406 8H9.41406V14H4.41406V8ZM11.4141 8H16.4141V14H11.4141V8ZM4.41406 16H5.41406V18H4.41406V16ZM9.41406 19V19.5C9.41406 20.88 10.5341 22 11.9141 22C12.9141 22 13.8041 21.41 14.2041 20.5H15.6241C16.0241 21.41 16.9141 22 17.9141 22C19.2941 22 20.4141 20.88 20.4141 19.5V19H9.41406Z" fill="black"/>
</g>
</svg>
