<svg width="25" height="24" viewBox="0 0 25 24" fill="none" xmlns="http://www.w3.org/2000/svg">
<g id="843">
<path id="Vector" d="M21.4141 7H3.41406C2.31406 7 1.41406 7.9 1.41406 9V17H2.41406C2.41406 18.11 3.31406 19 4.41406 19C5.51406 19 6.41406 18.11 6.41406 17H18.4141C18.4141 18.11 19.3141 19 20.4141 19C21.5141 19 22.4141 18.11 22.4141 17H23.4141V9C23.4141 7.9 22.5241 7 21.4141 7ZM8.41406 12H3.41406V9H8.41406V12ZM14.4141 16H10.4141V9H14.4141V16ZM21.4141 12H16.4141V9H21.4141V12Z" fill="black"/>
</g>
</svg>
