<svg width="25" height="24" viewBox="0 0 25 24" fill="none" xmlns="http://www.w3.org/2000/svg">
<g id="847">
<path id="Vector" d="M21.4141 8C19.4541 6.19 16.1541 5 12.4141 5C8.67406 5 5.37406 6.19 3.41406 8H1.41406V17H2.41406C2.41406 18.11 3.31406 19 4.41406 19C5.51406 19 6.41406 18.11 6.41406 17H18.4141C18.4141 18.11 19.3141 19 20.4141 19C21.5141 19 22.4141 18.11 22.4141 17H23.4141V8H21.4141ZM13.4141 15V11H11.4141V15H8.41406V11H6.41406V15H3.41406V10H21.4141V15H18.4141V11H16.4141V15H13.4141Z" fill="black"/>
</g>
</svg>
