<svg width="25" height="24" viewBox="0 0 25 24" fill="none" xmlns="http://www.w3.org/2000/svg">
<g id="848">
<path id="Vector" d="M21.6341 15C22.1141 14.47 22.4141 13.77 22.4141 13C22.4141 11.34 21.0741 10 19.4141 10H5.41406C3.75406 10 2.41406 11.34 2.41406 13C2.41406 13.77 2.71406 14.47 3.19406 15H1.41406V17H2.41406C2.41406 18.11 3.31406 19 4.41406 19C5.51406 19 6.41406 18.11 6.41406 17H18.4141C18.4141 18.11 19.3141 19 20.4141 19C21.5141 19 22.4141 18.11 22.4141 17H23.4141V15H21.6341ZM19.4141 12C19.9641 12 20.4141 12.45 20.4141 13C20.4141 13.55 19.9641 14 19.4141 14C18.8641 14 18.4141 13.55 18.4141 13C18.4141 12.45 18.8641 12 19.4141 12ZM12.4141 12C12.9641 12 13.4141 12.45 13.4141 13C13.4141 13.55 12.9641 14 12.4141 14C11.8641 14 11.4141 13.55 11.4141 13C11.4141 12.45 11.8641 12 12.4141 12ZM5.41406 12C5.96406 12 6.41406 12.45 6.41406 13C6.41406 13.55 5.96406 14 5.41406 14C4.86406 14 4.41406 13.55 4.41406 13C4.41406 12.45 4.86406 12 5.41406 12ZM14.0341 6L13.6341 4H22.4141V6H14.0341ZM20.4141 9H4.41406V8H6.41406L7.41406 3H12.4141L13.4141 8H20.4141V9Z" fill="black"/>
</g>
</svg>
