<svg width="25" height="24" viewBox="0 0 25 24" fill="none" xmlns="http://www.w3.org/2000/svg">
<g id="852">
<path id="Vector" d="M23.4141 9V7H1.41406V9L2.41406 10.33V15H1.41406V17H2.41406C2.41406 18.11 3.31406 19 4.41406 19C5.51406 19 6.41406 18.11 6.41406 17H10.4141L11.4141 18H13.4141L14.4141 17H18.4141C18.4141 18.11 19.3141 19 20.4141 19C21.5141 19 22.4141 18.11 22.4141 17H23.4141V15H22.4141V10.33L23.4141 9ZM4.41406 15V13L5.91406 15H4.41406ZM5.41406 10V9H19.4141V10H5.41406ZM20.4141 15H18.9141L20.4141 13V15Z" fill="black"/>
</g>
</svg>
