<svg width="25" height="24" viewBox="0 0 25 24" fill="none" xmlns="http://www.w3.org/2000/svg">
<g id="853">
<path id="Vector" d="M23.4141 13V10C23.4141 8.89 22.5241 8 21.4141 8H19.4141L16.4141 4H6.41406L3.41406 8C2.30406 8 1.41406 8.89 1.41406 10V13H3.41406C3.41406 13.77 3.71406 14.47 4.19406 15H1.41406V17H2.41406C2.41406 18.11 3.31406 19 4.41406 19C5.51406 19 6.41406 18.11 6.41406 17H18.4141C18.4141 18.11 19.3141 19 20.4141 19C21.5141 19 22.4141 18.11 22.4141 17H23.4141V15H20.6341C21.1141 14.47 21.4141 13.77 21.4141 13H23.4141ZM19.9141 13C19.9141 13.83 19.2441 14.5 18.4141 14.5C17.5841 14.5 16.9141 13.83 16.9141 13C16.9141 12.17 17.5841 11.5 18.4141 11.5C19.2441 11.5 19.9141 12.17 19.9141 13ZM12.4141 5.5H15.6641L17.5541 8H12.4141V5.5ZM16.1941 15H8.63406C9.11406 14.47 9.41406 13.77 9.41406 13H15.4141C15.4141 13.77 15.7141 14.47 16.1941 15ZM7.16406 5.5H10.9141V8H5.27406L7.16406 5.5ZM6.41406 11.5C7.24406 11.5 7.91406 12.17 7.91406 13C7.91406 13.83 7.24406 14.5 6.41406 14.5C5.58406 14.5 4.91406 13.83 4.91406 13C4.91406 12.17 5.58406 11.5 6.41406 11.5Z" fill="black"/>
</g>
</svg>
