<svg width="25" height="24" viewBox="0 0 25 24" fill="none" xmlns="http://www.w3.org/2000/svg">
<g id="856">
<path id="Vector" d="M23.4141 6V17H22.4141C22.4141 18.11 21.5241 19 20.4141 19C19.3041 19 18.4141 18.11 18.4141 17H6.41406C6.41406 18.11 5.52406 19 4.41406 19C3.30406 19 2.41406 18.11 2.41406 17H1.41406V6H3.41406V15H21.4141V6H23.4141ZM8.41406 12H4.41406V14H8.41406V12ZM15.4141 12H9.41406V14H15.4141V12ZM20.4141 12H16.4141V14H20.4141V12ZM8.41406 9H4.41406V11H8.41406V9ZM15.4141 9H9.41406V11H15.4141V9ZM20.4141 9H16.4141V11H20.4141V9ZM8.41406 6H4.41406V8H8.41406V6ZM15.4141 6H9.41406V8H15.4141V6ZM20.4141 6H16.4141V8H20.4141V6Z" fill="black"/>
</g>
</svg>
