<svg width="25" height="24" viewBox="0 0 25 24" fill="none" xmlns="http://www.w3.org/2000/svg">
<g id="859">
<path id="Vector" d="M21.4141 6H3.41406C2.31406 6 1.41406 6.9 1.41406 8V17H2.41406C2.41406 18.11 3.31406 19 4.41406 19C5.51406 19 6.41406 18.11 6.41406 17H18.4141C18.4141 18.11 19.3141 19 20.4141 19C21.5141 19 22.4141 18.11 22.4141 17H23.4141V8C23.4141 6.9 22.5241 6 21.4141 6ZM7.99406 12.18C8.60406 12.18 9.09406 12.68 9.09406 13.29C9.09406 13.9 8.60406 14.39 7.99406 14.39C7.38406 14.39 6.88406 13.9 6.88406 13.29C6.88406 12.68 7.38406 12.18 7.99406 12.18ZM7.44406 11.08L9.09406 9.61H12.0441L14.9941 11.08H7.44406ZM10.0741 14.03H14.7541C14.9141 14.42 15.1541 14.75 15.4641 15H9.36406C9.67406 14.75 9.91406 14.42 10.0741 14.03ZM15.7341 13.29C15.7341 12.68 16.2241 12.18 16.8341 12.18C17.4441 12.18 17.9441 12.68 17.9441 13.29C17.9441 13.9 17.4441 14.39 16.8341 14.39C16.2241 14.4 15.7341 13.9 15.7341 13.29ZM18.2041 15C18.5241 14.75 18.7741 14.42 18.9141 14.03H20.5241V13.29C20.5241 12.47 19.7641 12.21 19.0441 11.82L12.4141 8.5H8.73406L6.52406 10.34H5.78406C4.96406 10.34 4.30406 11 4.30406 11.82V14.03H5.91406C6.05406 14.42 6.30406 14.75 6.62406 15H3.41406V8H21.4141V15H18.2041Z" fill="black"/>
</g>
</svg>
