<svg width="25" height="24" viewBox="0 0 25 24" fill="none" xmlns="http://www.w3.org/2000/svg">
<g id="862">
<path id="Vector" d="M23.4141 9V7H15.4141V6H16.4141V4H8.41406V6H9.41406V7H1.41406V9H2.41406V15H1.41406V17H2.41406C2.41406 18.11 3.31406 19 4.41406 19C5.51406 19 6.41406 18.11 6.41406 17H18.4141C18.4141 18.11 19.3141 19 20.4141 19C21.5141 19 22.4141 18.11 22.4141 17H23.4141V15H22.4141V9H23.4141ZM4.41406 15H3.41406V9H4.41406V15ZM11.4141 12H6.41406V9H11.4141V12ZM18.4141 12H13.4141V9H18.4141V12ZM21.4141 15H20.4141V9H21.4141V15Z" fill="black"/>
</g>
</svg>
