<svg width="25" height="24" viewBox="0 0 25 24" fill="none" xmlns="http://www.w3.org/2000/svg">
<g id="863">
<path id="Vector" d="M12.4141 4H5.41406C4.61841 4 3.85535 4.31607 3.29274 4.87868C2.73013 5.44129 2.41406 6.20435 2.41406 7V15C2.41406 15.7956 2.73013 16.5587 3.29274 17.1213C3.85535 17.6839 4.61841 18 5.41406 18L4.41406 19V20H5.41406L7.41406 17.97L9.41406 18V13H4.41406V6H13.4141V8H15.4141V7C15.4141 6.20435 15.098 5.44129 14.5354 4.87868C13.9728 4.31607 13.2097 4 12.4141 4ZM5.41406 14C5.67928 14 5.93363 14.1054 6.12117 14.2929C6.30871 14.4804 6.41406 14.7348 6.41406 15C6.41406 15.2652 6.30871 15.5196 6.12117 15.7071C5.93363 15.8946 5.67928 16 5.41406 16C5.14885 16 4.89449 15.8946 4.70696 15.7071C4.51942 15.5196 4.41406 15.2652 4.41406 15C4.41406 14.7348 4.51942 14.4804 4.70696 14.2929C4.89449 14.1054 5.14885 14 5.41406 14ZM20.9841 9.66C20.8441 9.26 20.4641 9 20.0141 9H12.8241C12.3641 9 11.9941 9.26 11.8441 9.66L10.4141 13.77V19.28C10.4141 19.66 10.7341 20 11.1141 20H11.7341C12.1141 20 12.4141 19.62 12.4141 19.24V18H20.4141V19.24C20.4141 19.62 20.7241 20 21.1041 20H21.7141C22.0941 20 22.4141 19.66 22.4141 19.28V17.91V13.77L20.9841 9.66ZM12.8241 10H20.0141L21.0441 13H11.7941L12.8241 10ZM12.4141 16C12.1488 16 11.8945 15.8946 11.707 15.7071C11.5194 15.5196 11.4141 15.2652 11.4141 15C11.4141 14.7348 11.5194 14.4804 11.707 14.2929C11.8945 14.1054 12.1488 14 12.4141 14C12.6793 14 12.9336 14.1054 13.1212 14.2929C13.3087 14.4804 13.4141 14.7348 13.4141 15C13.4141 15.2652 13.3087 15.5196 13.1212 15.7071C12.9336 15.8946 12.6793 16 12.4141 16ZM20.4141 16C20.1488 16 19.8945 15.8946 19.707 15.7071C19.5194 15.5196 19.4141 15.2652 19.4141 15C19.4141 14.7348 19.5194 14.4804 19.707 14.2929C19.8945 14.1054 20.1488 14 20.4141 14C20.6793 14 20.9336 14.1054 21.1212 14.2929C21.3087 14.4804 21.4141 14.7348 21.4141 15C21.4141 15.2652 21.3087 15.5196 21.1212 15.7071C20.9336 15.8946 20.6793 16 20.4141 16Z" fill="black"/>
</g>
</svg>
