<svg width="25" height="24" viewBox="0 0 25 24" fill="none" xmlns="http://www.w3.org/2000/svg">
<g id="864">
<path id="Vector" d="M12.4141 2C8.41406 2 4.41406 2.5 4.41406 6V15.5C4.41406 16.4283 4.78281 17.3185 5.43919 17.9749C6.09557 18.6313 6.9858 19 7.91406 19L6.41406 20.5V21H8.64406L10.6441 19H14.4141L16.4141 21H18.4141V20.5L16.9141 19C17.8423 19 18.7326 18.6313 19.3889 17.9749C20.0453 17.3185 20.4141 16.4283 20.4141 15.5V6C20.4141 2.5 16.8341 2 12.4141 2ZM7.91406 17C7.51624 17 7.13471 16.842 6.8534 16.5607C6.5721 16.2794 6.41406 15.8978 6.41406 15.5C6.41406 15.1022 6.5721 14.7206 6.8534 14.4393C7.13471 14.158 7.51624 14 7.91406 14C8.31189 14 8.69342 14.158 8.97472 14.4393C9.25603 14.7206 9.41406 15.1022 9.41406 15.5C9.41406 15.8978 9.25603 16.2794 8.97472 16.5607C8.69342 16.842 8.31189 17 7.91406 17ZM11.4141 10H6.41406V6H11.4141V10ZM13.4141 10V6H18.4141V10H13.4141ZM16.9141 17C16.5162 17 16.1347 16.842 15.8534 16.5607C15.5721 16.2794 15.4141 15.8978 15.4141 15.5C15.4141 15.1022 15.5721 14.7206 15.8534 14.4393C16.1347 14.158 16.5162 14 16.9141 14C17.3119 14 17.6934 14.158 17.9747 14.4393C18.256 14.7206 18.4141 15.1022 18.4141 15.5C18.4141 15.8978 18.256 16.2794 17.9747 16.5607C17.6934 16.842 17.3119 17 16.9141 17Z" fill="black"/>
</g>
</svg>
