<svg width="25" height="24" viewBox="0 0 25 24" fill="none" xmlns="http://www.w3.org/2000/svg">
<g id="865">
<path id="Vector" d="M20.4141 10H17.4141V8.86C19.1341 8.41 20.4141 6.86 20.4141 5H17.4141V4C17.4141 3.45 16.9641 3 16.4141 3H8.41406C7.86406 3 7.41406 3.45 7.41406 4V5H4.41406C4.41406 6.86 5.69406 8.41 7.41406 8.86V10H4.41406C4.41406 11.86 5.69406 13.41 7.41406 13.86V15H4.41406C4.41406 16.86 5.69406 18.41 7.41406 18.86V20C7.41406 20.55 7.86406 21 8.41406 21H16.4141C16.9641 21 17.4141 20.55 17.4141 20V18.86C19.1341 18.41 20.4141 16.86 20.4141 15H17.4141V13.86C19.1341 13.41 20.4141 11.86 20.4141 10ZM15.4141 19H9.41406V5H15.4141V19ZM12.4141 18C13.2441 18 13.9141 17.33 13.9141 16.5C13.9141 15.67 13.2441 15 12.4141 15C11.5841 15 10.9141 15.67 10.9141 16.5C10.9141 17.33 11.5841 18 12.4141 18ZM12.4141 13.5C13.2441 13.5 13.9141 12.83 13.9141 12C13.9141 11.17 13.2441 10.5 12.4141 10.5C11.5841 10.5 10.9141 11.17 10.9141 12C10.9141 12.83 11.5841 13.5 12.4141 13.5ZM12.4141 9C13.2441 9 13.9141 8.33 13.9141 7.5C13.9141 6.67 13.2441 6 12.4141 6C11.5841 6 10.9141 6.67 10.9141 7.5C10.9141 8.33 11.5841 9 12.4141 9Z" fill="black"/>
</g>
</svg>
