<svg width="25" height="24" viewBox="0 0 25 24" fill="none" xmlns="http://www.w3.org/2000/svg">
<g id="866">
<path id="Vector" d="M12.4141 9C11.8836 9 11.3749 8.78929 10.9998 8.41421C10.6248 8.03914 10.4141 7.53043 10.4141 7C10.4141 5.89 11.3141 5 12.4141 5C13.5241 5 14.4141 5.89 14.4141 7C14.4141 7.53043 14.2033 8.03914 13.8283 8.41421C13.4532 8.78929 12.9445 9 12.4141 9ZM12.4141 14C11.8836 14 11.3749 13.7893 10.9998 13.4142C10.6248 13.0391 10.4141 12.5304 10.4141 12C10.4141 10.89 11.3141 10 12.4141 10C13.5241 10 14.4141 10.89 14.4141 12C14.4141 12.5304 14.2033 13.0391 13.8283 13.4142C13.4532 13.7893 12.9445 14 12.4141 14ZM12.4141 19C11.8836 19 11.3749 18.7893 10.9998 18.4142C10.6248 18.0391 10.4141 17.5304 10.4141 17C10.4141 15.89 11.3141 15 12.4141 15C13.5241 15 14.4141 15.89 14.4141 17C14.4141 17.5304 14.2033 18.0391 13.8283 18.4142C13.4532 18.7893 12.9445 19 12.4141 19ZM20.4141 10H17.4141V8.86C19.1341 8.41 20.4141 6.86 20.4141 5H17.4141V4C17.4141 3.73478 17.3087 3.48043 17.1212 3.29289C16.9336 3.10536 16.6793 3 16.4141 3H8.41406C8.14885 3 7.89449 3.10536 7.70696 3.29289C7.51942 3.48043 7.41406 3.73478 7.41406 4V5H4.41406C4.41406 6.86 5.69406 8.41 7.41406 8.86V10H4.41406C4.41406 11.86 5.69406 13.41 7.41406 13.86V15H4.41406C4.41406 16.86 5.69406 18.41 7.41406 18.86V20C7.41406 20.2652 7.51942 20.5196 7.70696 20.7071C7.89449 20.8946 8.14885 21 8.41406 21H16.4141C16.6793 21 16.9336 20.8946 17.1212 20.7071C17.3087 20.5196 17.4141 20.2652 17.4141 20V18.86C19.1341 18.41 20.4141 16.86 20.4141 15H17.4141V13.86C19.1341 13.41 20.4141 11.86 20.4141 10Z" fill="black"/>
</g>
</svg>
