<svg width="25" height="24" viewBox="0 0 25 24" fill="none" xmlns="http://www.w3.org/2000/svg">
<g id="868">
<path id="Vector" d="M4.41406 3H20.4141C20.9445 3 21.4532 3.21071 21.8283 3.58579C22.2033 3.96086 22.4141 4.46957 22.4141 5V19C22.4141 19.5304 22.2033 20.0391 21.8283 20.4142C21.4532 20.7893 20.9445 21 20.4141 21H4.41406C3.88363 21 3.37492 20.7893 2.99985 20.4142C2.62478 20.0391 2.41406 19.5304 2.41406 19V5C2.41406 4.46957 2.62478 3.96086 2.99985 3.58579C3.37492 3.21071 3.88363 3 4.41406 3ZM4.41406 5V13H20.4141V5H4.41406ZM4.41406 19H11.4141V15H4.41406V19ZM20.4141 19V15H13.4141V19H20.4141Z" fill="black"/>
</g>
</svg>
