<svg width="25" height="24" viewBox="0 0 25 24" fill="none" xmlns="http://www.w3.org/2000/svg">
<g id="869">
<path id="Vector" d="M3.41406 1C2.30406 1 1.41406 1.89 1.41406 3V17C1.41406 18.11 2.30406 19 3.41406 19H14.4141V17H12.4141V13H17.0941C17.9141 12.35 18.8841 12 19.9141 12C20.4141 12 20.9141 12.09 21.4141 12.26V3C21.4141 1.89 20.5241 1 19.4141 1H3.41406ZM3.41406 3H19.4141V11H3.41406V3ZM3.41406 13H10.4141V17H3.41406V13ZM19.9141 14C19.251 14 18.6151 14.2634 18.1463 14.7322C17.6775 15.2011 17.4141 15.837 17.4141 16.5V17C17.1488 17 16.8945 17.1054 16.707 17.2929C16.5194 17.4804 16.4141 17.7348 16.4141 18V22C16.4141 22.2652 16.5194 22.5196 16.707 22.7071C16.8945 22.8946 17.1488 23 17.4141 23H22.4141C22.6793 23 22.9336 22.8946 23.1212 22.7071C23.3087 22.5196 23.4141 22.2652 23.4141 22V18C23.4141 17.7348 23.3087 17.4804 23.1212 17.2929C22.9336 17.1054 22.6793 17 22.4141 17V16.5C22.4141 15.837 22.1507 15.2011 21.6818 14.7322C21.213 14.2634 20.5771 14 19.9141 14ZM19.9141 15C20.3119 15 20.6934 15.158 20.9747 15.4393C21.256 15.7206 21.4141 16.1022 21.4141 16.5V17H18.4141V16.5C18.4141 16.1022 18.5721 15.7206 18.8534 15.4393C19.1347 15.158 19.5162 15 19.9141 15Z" fill="black"/>
</g>
</svg>
