<svg width="25" height="24" viewBox="0 0 25 24" fill="none" xmlns="http://www.w3.org/2000/svg">
<g id="870">
<path id="Vector" d="M5.41406 4V11.26C3.61406 11.9 2.41406 13.6 2.41406 15.5C2.41406 18 4.41406 20 6.91406 20C9.20406 20 11.1241 18.28 11.3841 16H15.5841C15.4741 16.32 15.4141 16.66 15.4141 17C15.4141 17.7956 15.7301 18.5587 16.2927 19.1213C16.8554 19.6839 17.6184 20 18.4141 20C19.2097 20 19.9728 19.6839 20.5354 19.1213C21.098 18.5587 21.4141 17.7956 21.4141 17C21.4141 16.66 21.3541 16.32 21.2341 16H22.4141V13C22.4141 11.89 21.5241 11 20.4141 11H15.4541L14.0641 4H5.41406ZM7.41406 6H12.4141L13.4141 11V14H11.1541C10.5741 12.38 9.12406 11.23 7.41406 11.03V6ZM6.91406 13.25C7.5108 13.25 8.0831 13.4871 8.50505 13.909C8.92701 14.331 9.16406 14.9033 9.16406 15.5C9.16406 16.0967 8.92701 16.669 8.50505 17.091C8.0831 17.5129 7.5108 17.75 6.91406 17.75C6.31733 17.75 5.74503 17.5129 5.32307 17.091C4.90112 16.669 4.66406 16.0967 4.66406 15.5C4.66406 14.9033 4.90112 14.331 5.32307 13.909C5.74503 13.4871 6.31733 13.25 6.91406 13.25ZM18.4141 15.5C18.8119 15.5 19.1934 15.658 19.4747 15.9393C19.756 16.2206 19.9141 16.6022 19.9141 17C19.9141 17.3978 19.756 17.7794 19.4747 18.0607C19.1934 18.342 18.8119 18.5 18.4141 18.5C18.0162 18.5 17.6347 18.342 17.3534 18.0607C17.0721 17.7794 16.9141 17.3978 16.9141 17C16.9141 16.6022 17.0721 16.2206 17.3534 15.9393C17.6347 15.658 18.0162 15.5 18.4141 15.5Z" fill="black"/>
</g>
</svg>
