<svg width="25" height="24" viewBox="0 0 25 24" fill="none" xmlns="http://www.w3.org/2000/svg">
<g id="871">
<path id="Vector" d="M13.7141 2.79004L10.2141 6.29004L10.9141 7.00004L12.3141 5.61004L13.4141 6.71004V9.00004C13.4141 10.11 12.5241 11 11.4141 11H10.8741C11.8624 12.0983 12.4107 13.5226 12.4141 15C12.4121 15.3353 12.3819 15.6698 12.3241 16H15.4441C15.567 14.9004 16.0908 13.8845 16.9154 13.1466C17.74 12.4088 18.8075 12.0006 19.9141 12C20.8042 12.0005 21.6742 12.265 22.4141 12.76V8.00004C22.4141 6.89004 21.5241 6.00004 20.4141 6.00004H14.1241L13.0241 4.90004L14.4141 3.50004L13.7141 2.79004ZM4.41406 7.00004C3.86406 7.00004 3.41406 7.45004 3.41406 8.00004C3.41406 8.55004 3.86406 9.00004 4.41406 9.00004H9.41406C9.41406 7.90004 8.52406 7.00004 7.41406 7.00004H4.41406ZM6.41406 10C5.8841 10.0002 5.35753 10.0846 4.85406 10.25L5.21406 11.18L4.74406 11.36L4.41406 10.43C3.35115 10.8917 2.48159 11.7082 1.95406 12.74L2.86406 13.15L2.65406 13.6L1.75406 13.2C1.53085 13.774 1.41558 14.3842 1.41406 15C1.41419 15.53 1.49858 16.0566 1.66406 16.56L2.59406 16.2L2.77406 16.67L1.84406 17C2.30572 18.063 3.12225 18.9325 4.15406 19.46L4.55406 18.55L5.01406 18.76L4.61406 19.66C5.188 19.8833 5.79824 19.9985 6.41406 20C6.94403 19.9999 7.4706 19.9155 7.97406 19.75L7.61406 18.82L8.08406 18.64L8.41406 19.57C9.47698 19.1084 10.3465 18.2918 10.8741 17.26L9.96406 16.86L10.1741 16.4L11.0741 16.8C11.2973 16.2261 11.4125 15.6159 11.4141 15C11.4139 14.4701 11.3295 13.9435 11.1641 13.44L10.2341 13.8L10.0541 13.33L10.9841 13C10.5224 11.9371 9.70587 11.0676 8.67406 10.54L8.27406 11.45L7.81406 11.24L8.21406 10.34C7.64012 10.1168 7.02988 10.0016 6.41406 10ZM6.41406 12C7.20971 12 7.97277 12.3161 8.53538 12.8787C9.09799 13.4413 9.41406 14.2044 9.41406 15C9.41406 15.7957 9.09799 16.5588 8.53538 17.1214C7.97277 17.684 7.20971 18 6.41406 18C5.61841 18 4.85535 17.684 4.29274 17.1214C3.73013 16.5588 3.41406 15.7957 3.41406 15C3.41406 14.2044 3.73013 13.4413 4.29274 12.8787C4.85535 12.3161 5.61841 12 6.41406 12ZM19.9141 13C18.9858 13 18.0956 13.3688 17.4392 14.0252C16.7828 14.6815 16.4141 15.5718 16.4141 16.5C16.4141 17.4283 16.7828 18.3185 17.4392 18.9749C18.0956 19.6313 18.9858 20 19.9141 20C20.8423 20 21.7326 19.6313 22.3889 18.9749C23.0453 18.3185 23.4141 17.4283 23.4141 16.5C23.4141 15.5718 23.0453 14.6815 22.3889 14.0252C21.7326 13.3688 20.8423 13 19.9141 13ZM19.9141 15C20.3119 15 20.6934 15.1581 20.9747 15.4394C21.256 15.7207 21.4141 16.1022 21.4141 16.5C21.4141 16.8979 21.256 17.2794 20.9747 17.5607C20.6934 17.842 20.3119 18 19.9141 18C19.5162 18 19.1347 17.842 18.8534 17.5607C18.5721 17.2794 18.4141 16.8979 18.4141 16.5C18.4141 16.1022 18.5721 15.7207 18.8534 15.4394C19.1347 15.1581 19.5162 15 19.9141 15Z" fill="black"/>
</g>
</svg>
