<svg width="25" height="24" viewBox="0 0 25 24" fill="none" xmlns="http://www.w3.org/2000/svg">
<g id="873">
<path id="Vector" d="M20.1934 13.57L22.9634 14.72L22.2034 16.57L19.4134 15.42L20.1934 13.57ZM22.9834 8.14L22.2234 6.29L19.9134 7.25L20.6734 9.1L22.9834 8.14ZM14.7534 19.69L15.7134 22L17.5634 21.23L16.6034 18.93L14.7534 19.69ZM2.80344 1.73L1.52344 3L4.05344 5.53L1.84344 10.84L7.38344 13.14L12.3534 16.82L14.2034 17.59L14.7634 16.24L21.2534 22.73L22.5234 21.46L2.80344 1.73ZM6.61344 3L6.41344 2.8V1H14.4134V3H11.4134V6.87L16.1834 7.58L18.0334 8.35L16.2534 12.64L9.41344 5.8V3H6.61344Z" fill="black"/>
</g>
</svg>
