<svg width="25" height="24" viewBox="0 0 25 24" fill="none" xmlns="http://www.w3.org/2000/svg">
<g id="876">
<path id="Vector" d="M19.4141 6V5C19.4141 3.9 18.5141 3 17.4141 3H15.4141C14.3141 3 13.4141 3.9 13.4141 5V6H11.4141V5C11.4141 3.9 10.5141 3 9.41406 3H7.41406C6.31406 3 5.41406 3.9 5.41406 5V6H3.41406V20H14.4141V18H5.41406V8H19.4141V13H21.4141V6M18.2941 15.46L20.4141 17.59L22.5341 15.47L23.9541 16.88L21.8241 19L23.9541 21.12L22.5341 22.54L20.4141 20.41L18.2941 22.54L16.8741 21.12L19.0041 19L16.8841 16.88" fill="black"/>
</g>
</svg>
