<svg width="25" height="24" viewBox="0 0 25 24" fill="none" xmlns="http://www.w3.org/2000/svg">
<g id="877">
<path id="Vector" d="M19.4141 6V5C19.4141 4.46957 19.2033 3.96086 18.8283 3.58579C18.4532 3.21071 17.9445 3 17.4141 3H15.4141C14.8836 3 14.3749 3.21071 13.9998 3.58579C13.6248 3.96086 13.4141 4.46957 13.4141 5V6H11.4141V5C11.4141 4.46957 11.2033 3.96086 10.8283 3.58579C10.4532 3.21071 9.9445 3 9.41406 3H7.41406C6.88363 3 6.37492 3.21071 5.99985 3.58579C5.62478 3.96086 5.41406 4.46957 5.41406 5V6H3.41406V20H12.2241C11.0509 18.7721 10.4049 17.1338 10.4242 15.4357C10.4436 13.7375 11.1268 12.1144 12.3276 10.9136C13.5285 9.71272 15.1516 9.02954 16.8497 9.01018C18.5479 8.99083 20.1862 9.63684 21.4141 10.81V6M20.7241 17.9C21.3143 16.965 21.5396 15.8455 21.357 14.755C21.1745 13.6645 20.5968 12.6793 19.7343 11.9876C18.8718 11.2958 17.7847 10.9457 16.6806 11.0043C15.5765 11.0628 14.5326 11.5257 13.748 12.3048C12.9634 13.0839 12.4931 14.1246 12.4269 15.2283C12.3606 16.332 12.703 17.4214 13.3887 18.2888C14.0744 19.1561 15.0555 19.7407 16.1447 19.9309C17.2339 20.1211 18.355 19.9036 19.2941 19.32L22.4141 22.39L23.8041 21M16.9141 18C16.4196 18 15.9363 17.8534 15.5251 17.5787C15.114 17.304 14.7936 16.9135 14.6044 16.4567C14.4151 15.9999 14.3656 15.4972 14.4621 15.0123C14.5586 14.5273 14.7967 14.0819 15.1463 13.7322C15.4959 13.3826 15.9414 13.1445 16.4263 13.048C16.9113 12.9516 17.414 13.0011 17.8708 13.1903C18.3276 13.3795 18.718 13.7 18.9927 14.1111C19.2674 14.5222 19.4141 15.0055 19.4141 15.5C19.4141 16.163 19.1507 16.7989 18.6818 17.2678C18.213 17.7366 17.5771 18 16.9141 18Z" fill="black"/>
</g>
</svg>
