<svg width="25" height="24" viewBox="0 0 25 24" fill="none" xmlns="http://www.w3.org/2000/svg">
<g id="878">
<path id="Vector" d="M13.5041 20H3.41406V6H5.41406V5C5.41406 3.9 6.31406 3 7.41406 3H9.41406C10.5241 3 11.4141 3.9 11.4141 5V6H13.4141V5C13.4141 3.9 14.3141 3 15.4141 3H17.4141C18.5241 3 19.4141 3.9 19.4141 5V6H21.4141V13.35C20.7841 13.13 20.1141 13 19.4141 13V8H5.41406V18H13.5041C13.4541 18.33 13.4141 18.66 13.4141 19C13.4141 19.34 13.4541 19.67 13.5041 20ZM23.4141 18H15.4141V20H23.4141V18Z" fill="black"/>
</g>
</svg>
