<svg width="25" height="24" viewBox="0 0 25 24" fill="none" xmlns="http://www.w3.org/2000/svg">
<g id="882">
<path id="Vector" d="M19.4141 6V5C19.4141 4.46957 19.2033 3.96086 18.8283 3.58579C18.4532 3.21071 17.9445 3 17.4141 3H15.4141C14.8836 3 14.3749 3.21071 13.9998 3.58579C13.6248 3.96086 13.4141 4.46957 13.4141 5V6H11.4141V5C11.4141 4.46957 11.2033 3.96086 10.8283 3.58579C10.4532 3.21071 9.9445 3 9.41406 3H7.41406C6.88363 3 6.37492 3.21071 5.99985 3.58579C5.62478 3.96086 5.41406 4.46957 5.41406 5V6H3.41406V20H13.5041C13.4435 19.6701 13.4133 19.3354 13.4141 19C13.4136 18.0399 13.6435 17.0936 14.0845 16.2407C14.5256 15.3879 15.1649 14.6533 15.9487 14.0988C16.7325 13.5442 17.6379 13.1859 18.589 13.0539C19.54 12.9218 20.5088 13.02 21.4141 13.34V6M22.9541 16.88L20.8241 19L22.9541 21.12L21.5341 22.54L19.4141 20.41L17.2941 22.54L15.8741 21.12L18.0041 19L15.8741 16.88L17.2941 15.46L19.4141 17.59L21.5341 15.46L22.9541 16.88Z" fill="black"/>
</g>
</svg>
