<svg width="25" height="24" viewBox="0 0 25 24" fill="none" xmlns="http://www.w3.org/2000/svg">
<g id="883">
<path id="Vector" d="M23.4141 20H15.4141V18H23.4141V20ZM13.4141 19C13.4141 15.69 16.1041 13 19.4141 13C20.1141 13 20.7841 13.13 21.4141 13.35V6H19.4141V5C19.4141 3.9 18.5241 3 17.4141 3H15.4141C14.3141 3 13.4141 3.9 13.4141 5V6H11.4141V5C11.4141 3.9 10.5241 3 9.41406 3H7.41406C6.31406 3 5.41406 3.9 5.41406 5V6H3.41406V20H13.5041C13.4541 19.67 13.4141 19.34 13.4141 19Z" fill="black"/>
</g>
</svg>
