<svg width="25" height="24" viewBox="0 0 25 24" fill="none" xmlns="http://www.w3.org/2000/svg">
<g id="884">
<path id="Vector" d="M18.9141 12C17.989 12.0104 17.1048 12.3825 16.4507 13.0366C15.7965 13.6908 15.4245 14.575 15.4141 15.5C15.4141 18.1 18.9141 22 18.9141 22C18.9141 22 22.4141 18.1 22.4141 15.5C22.4037 14.575 22.0316 13.6908 21.3774 13.0366C20.7233 12.3825 19.8391 12.0104 18.9141 12ZM18.9141 16.8C18.5958 16.8 18.2906 16.6736 18.0655 16.4485C17.8405 16.2235 17.7141 15.9183 17.7141 15.6C17.7141 15.2817 17.8405 14.9765 18.0655 14.7515C18.2906 14.5264 18.5958 14.4 18.9141 14.4C19.2254 14.4211 19.5185 14.5542 19.7392 14.7749C19.9598 14.9955 20.093 15.2887 20.1141 15.6C20.1212 15.7595 20.095 15.9187 20.0372 16.0675C19.9794 16.2163 19.8913 16.3514 19.7784 16.4643C19.6655 16.5772 19.5304 16.6653 19.3815 16.7231C19.2327 16.7809 19.0735 16.8071 18.9141 16.8ZM19.4141 6V5C19.4141 4.46957 19.2033 3.96086 18.8283 3.58579C18.4532 3.21071 17.9445 3 17.4141 3H15.4141C14.8836 3 14.3749 3.21071 13.9998 3.58579C13.6248 3.96086 13.4141 4.46957 13.4141 5V6H11.4141V5C11.4141 4.46957 11.2033 3.96086 10.8283 3.58579C10.4532 3.21071 9.9445 3 9.41406 3H7.41406C6.88363 3 6.37492 3.21071 5.99985 3.58579C5.62478 3.96086 5.41406 4.46957 5.41406 5V6H3.41406V20H14.9541C14.5732 19.3582 14.239 18.6898 13.9541 18H5.41406V8H19.4141V10C20.1149 10.0602 20.7958 10.2645 21.4141 10.6V6H19.4141Z" fill="black"/>
</g>
</svg>
