<svg width="25" height="24" viewBox="0 0 25 24" fill="none" xmlns="http://www.w3.org/2000/svg">
<g id="886">
<path id="Vector" d="M19.4141 6V5C19.4141 4.46957 19.2033 3.96086 18.8283 3.58579C18.4532 3.21071 17.9445 3 17.4141 3H15.4141C14.8836 3 14.3749 3.21071 13.9998 3.58579C13.6248 3.96086 13.4141 4.46957 13.4141 5V6H11.4141V5C11.4141 4.46957 11.2033 3.96086 10.8283 3.58579C10.4532 3.21071 9.9445 3 9.41406 3H7.41406C6.88363 3 6.37492 3.21071 5.99985 3.58579C5.62478 3.96086 5.41406 4.46957 5.41406 5V6H3.41406V20H21.4141V6H19.4141Z" fill="black"/>
</g>
</svg>
