<svg width="25" height="24" viewBox="0 0 25 24" fill="none" xmlns="http://www.w3.org/2000/svg">
<g id="887">
<path id="Vector" d="M21.4141 10H17.4141V8L12.9141 6.2V4H15.4141V2H11.9141V6.2L7.41406 8V10H3.41406C2.86406 10 2.41406 10.45 2.41406 11V22H10.4141V17H14.4141V22H22.4141V11C22.4141 10.45 21.9641 10 21.4141 10ZM8.41406 20H4.41406V17H8.41406V20ZM8.41406 15H4.41406V12H8.41406V15ZM12.4141 8C12.9641 8 13.4141 8.45 13.4141 9C13.4141 9.55 12.9641 10 12.4141 10C11.8641 10 11.4141 9.55 11.4141 9C11.4141 8.45 11.8641 8 12.4141 8ZM14.4141 15H10.4141V12H14.4141V15ZM20.4141 20H16.4141V17H20.4141V20ZM20.4141 15H16.4141V12H20.4141V15Z" fill="black"/>
</g>
</svg>
