<svg width="25" height="24" viewBox="0 0 25 24" fill="none" xmlns="http://www.w3.org/2000/svg">
<g id="888">
<path id="Vector" d="M20.4141 10V7L17.4141 4H7.41406L4.41406 7V10C3.31406 10 2.41406 10.9 2.41406 12C2.41406 13.1 3.31406 14 4.41406 14V18C4.41406 19.1 5.31406 20 6.41406 20H18.4141C19.5141 20 20.4141 19.1 20.4141 18V14C21.5241 14 22.4141 13.11 22.4141 12C22.4141 10.89 21.5241 10 20.4141 10ZM12.4141 16C10.2041 16 8.41406 14.21 8.41406 12C8.41406 9.79 10.2041 8 12.4141 8C14.6241 8 16.4141 9.79 16.4141 12C16.4141 14.21 14.6241 16 12.4141 16ZM14.4141 12C14.4141 13.11 13.5241 14 12.4141 14C11.3041 14 10.4141 13.11 10.4141 12C10.4141 10.89 11.3141 10 12.4141 10C13.5141 10 14.4141 10.9 14.4141 12Z" fill="black"/>
</g>
</svg>
