<svg width="25" height="24" viewBox="0 0 25 24" fill="none" xmlns="http://www.w3.org/2000/svg">
<g id="889">
<path id="Vector" d="M2.41406 2V4H7.41406V8H2.41406V10H7.41406C8.52406 10 9.41406 9.11 9.41406 8V7H14.4141V17H9.41406V16C9.41406 14.89 8.52406 14 7.41406 14H2.41406V16H7.41406V20H2.41406V22H7.41406C8.52406 22 9.41406 21.11 9.41406 20V19H14.4141C15.5241 19 16.4141 18.11 16.4141 17V13H22.4141V11H16.4141V7C16.4141 5.89 15.5241 5 14.4141 5H9.41406V4C9.41406 2.89 8.52406 2 7.41406 2H2.41406Z" fill="black"/>
</g>
</svg>
