<svg width="25" height="24" viewBox="0 0 25 24" fill="none" xmlns="http://www.w3.org/2000/svg">
<g id="89">
<path id="Vector" d="M17.4102 12L12.4102 17V14H8.41016V10H12.4102V7L17.4102 12ZM21.4102 16.5C21.4102 16.88 21.2002 17.21 20.8802 17.38L12.9802 21.82C12.8202 21.94 12.6202 22 12.4102 22C12.2002 22 12.0002 21.94 11.8402 21.82L3.94016 17.38C3.62016 17.21 3.41016 16.88 3.41016 16.5V7.5C3.41016 7.12 3.62016 6.79 3.94016 6.62L11.8402 2.18C12.0002 2.06 12.2002 2 12.4102 2C12.6202 2 12.8202 2.06 12.9802 2.18L20.8802 6.62C21.2002 6.79 21.4102 7.12 21.4102 7.5V16.5ZM12.4102 4.15L5.41016 8.09V15.91L12.4102 19.85L19.4102 15.91V8.09L12.4102 4.15Z" fill="black"/>
</g>
</svg>
