<svg width="25" height="24" viewBox="0 0 25 24" fill="none" xmlns="http://www.w3.org/2000/svg">
<g id="890">
<path id="Vector" d="M15.4141 10H20.8041L17.4741 6H15.4141V10ZM17.9141 18.5C18.3041 18.5 18.6541 18.37 18.9541 18.07C19.2541 17.77 19.4141 17.42 19.4141 17C19.4141 16.61 19.2541 16.26 18.9541 15.96C18.6541 15.66 18.3041 15.5 17.9141 15.5C17.4941 15.5 17.1441 15.66 16.8441 15.96C16.5441 16.26 16.4141 16.61 16.4141 17C16.4141 17.42 16.5441 17.77 16.8441 18.07C17.1441 18.37 17.4941 18.5 17.9141 18.5ZM6.41406 18.5C6.85406 18.5 7.21406 18.37 7.49406 18.07C7.77406 17.77 7.91406 17.42 7.91406 17C7.91406 16.61 7.77406 16.26 7.49406 15.96C7.21406 15.66 6.85406 15.5 6.41406 15.5C5.97406 15.5 5.61406 15.66 5.33406 15.96C5.05406 16.26 4.91406 16.61 4.91406 17C4.91406 17.42 5.05406 17.77 5.33406 18.07C5.61406 18.37 5.97406 18.5 6.41406 18.5ZM18.4141 4L23.4141 10V17H20.9141C20.9141 17.83 20.6041 18.53 20.0041 19.13C19.4141 19.72 18.7141 20 17.9141 20C17.0841 20 16.3841 19.72 15.7941 19.13C15.1941 18.53 14.9141 17.83 14.9141 17H9.41406C9.41406 17.83 9.11406 18.53 8.52406 19.13C7.91406 19.72 7.22406 20 6.41406 20C5.60406 20 4.91406 19.72 4.30406 19.13C3.71406 18.53 3.41406 17.83 3.41406 17H1.41406V13H9.60406L3.41406 8.11V11H1.41406V5H2.41406L13.4141 11.06V4H18.4141Z" fill="black"/>
</g>
</svg>
