<svg width="25" height="24" viewBox="0 0 25 24" fill="none" xmlns="http://www.w3.org/2000/svg">
<g id="893">
<path id="Vector" d="M19.7241 5.60011C18.5041 5.56011 17.2941 6.5001 16.9141 8.0001C16.4141 10.0001 16.4141 10.0001 15.4141 11.0001C13.4141 13.0001 10.4141 14.0001 4.41406 15.0001C3.41406 15.1601 2.91406 15.5001 2.41406 16.0001C4.41406 16.0001 6.41406 16.0001 4.91406 17.5001L3.41406 19.0001H6.41406L8.41406 17.0001C10.4141 18.0001 11.7441 18.0001 13.7441 17.0001L14.4141 19.0001H17.4141L16.4141 16.0001C16.4141 16.0001 17.4141 12.0001 18.4141 11.0001C19.4141 10.0001 19.4141 11.0001 20.4141 11.0001C21.4141 11.0001 22.4141 10.0001 22.4141 8.5001C22.4141 8.0001 22.4141 7.00011 20.9141 6.00011C20.5641 5.76011 20.1541 5.62011 19.7241 5.60011ZM9.41406 6.00011C7.82276 6.00011 6.29664 6.63225 5.17142 7.75746C4.0462 8.88268 3.41406 10.4088 3.41406 12.0001C3.41406 12.6001 3.54406 13.0801 3.64406 13.6001C9.56406 12.6201 12.7041 11.5901 14.3441 9.94009L14.8441 9.44009C13.8541 7.34009 11.7341 6.00011 9.41406 6.00011Z" fill="black"/>
</g>
</svg>
