<svg width="25" height="24" viewBox="0 0 25 24" fill="none" xmlns="http://www.w3.org/2000/svg">
<g id="894">
<path id="Vector" d="M18.2766 1.5L13.3266 6.43L15.4466 8.55L16.5066 7.5L15.4466 6.43L18.2766 3.6L19.3366 4.66L20.4166 3.6M21.8166 3.6L15.9766 9.44L13.8466 10.15L3.41656 20.57L4.84656 22L10.4966 16.33L14.7466 20.57L18.9866 16.33L14.7466 12.09L14.9166 11.9L17.0466 11.19L21.8166 6.43C22.5966 5.65 22.5966 4.38 21.8166 3.6ZM6.96656 4.31L2.72656 8.55L7.67656 13.5L11.9166 9.26M18.6366 18.1L16.5066 20.22L17.9166 21.63L20.0466 19.5L18.6366 18.1Z" fill="black"/>
</g>
</svg>
