<svg width="25" height="24" viewBox="0 0 25 24" fill="none" xmlns="http://www.w3.org/2000/svg">
<g id="895">
<path id="Vector" d="M9.01106 9.6C9.41106 10.2 9.91106 10.7 10.6111 11H14.6111C14.9111 10.9 15.1111 10.7 15.3111 10.5C16.3111 9.5 16.7111 8 16.2111 6.7L16.1111 6.5C16.0111 6.2 15.8111 6 15.6111 5.8C15.5111 5.6 15.3111 5.5 15.2111 5.3C14.8111 5 14.4111 4.7 14.0111 4.3C13.1111 3.4 13.0111 2 13.5111 1C13.0111 1.1 12.5111 1.4 12.1111 1.8C10.6111 3 10.0111 5.1 10.7111 7V7.2C10.7111 7.3 10.6111 7.4 10.5111 7.5C10.4111 7.6 10.2111 7.5 10.1111 7.4L10.0111 7.3C9.41106 6.5 9.31105 5.3 9.71105 4.3C8.81105 5.1 8.31106 6.4 8.41106 7.7C8.41106 8 8.51106 8.3 8.61106 8.6C8.61106 8.9 8.81106 9.3 9.01106 9.6ZM12.7111 8.1C12.8111 7.6 12.6111 7.2 12.5111 6.8C12.4111 6.4 12.4111 6 12.6111 5.6L12.9111 6.2C13.3111 6.8 14.0111 7 14.2111 7.8V8.1C14.2111 8.6 14.0111 9.1 13.7111 9.4C13.5111 9.5 13.3111 9.7 13.1111 9.7C12.5111 9.9 11.8111 9.6 11.4111 9.2C12.2111 9.2 12.6111 8.6 12.7111 8.1ZM15.4111 12V14H14.4111L13.4111 22H11.4111L10.4111 14H9.41106V12H15.4111Z" fill="black"/>
</g>
</svg>
