<svg width="25" height="24" viewBox="0 0 25 24" fill="none" xmlns="http://www.w3.org/2000/svg">
<g id="897">
<path id="Vector" d="M12.4141 1.5V14C10.7541 14 9.41406 15.34 9.41406 17V22H17.4141V17C17.4141 15.34 16.0741 14 14.4141 14V3.5C14.4141 2.4 13.5241 1.5 12.4141 1.5ZM7.91406 2V9H11.4141V7.5H9.41406V3.5H11.4141V2H7.91406ZM13.4141 17.5C14.2441 17.5 14.9141 18.17 14.9141 19C14.9141 19.83 14.2441 20.5 13.4141 20.5C12.5841 20.5 11.9141 19.83 11.9141 19C11.9141 18.17 12.5841 17.5 13.4141 17.5Z" fill="black"/>
</g>
</svg>
