<svg width="25" height="24" viewBox="0 0 25 24" fill="none" xmlns="http://www.w3.org/2000/svg">
<g id="9">
<path id="Vector" d="M17.4102 21L19.2102 22.77C19.7102 23.27 20.4102 22.87 20.4102 22.28V18L23.2102 14.6C23.7102 13.9 23.2102 13 22.4102 13H15.4102C14.6102 13 14.1102 14 14.6102 14.6L17.4102 18V21ZM15.4102 20H2.41016V17C2.41016 14.3 7.71016 13 10.4102 13C11.0102 13 11.7102 13.1 12.5102 13.2C12.3102 13.8 12.4102 14.5 12.6102 15.1C11.9102 15 11.1102 14.9 10.4102 14.9C7.41016 14.9 4.31016 16.4 4.31016 17V18.1H14.9102L15.4102 18.7V20ZM10.4102 4C8.21016 4 6.41016 5.8 6.41016 8C6.41016 10.2 8.21016 12 10.4102 12C12.6102 12 14.4102 10.2 14.4102 8C14.4102 5.8 12.6102 4 10.4102 4ZM10.4102 10C9.31016 10 8.41016 9.1 8.41016 8C8.41016 6.9 9.31016 6 10.4102 6C11.5102 6 12.4102 6.9 12.4102 8C12.4102 9.1 11.5102 10 10.4102 10Z" fill="black"/>
</g>
</svg>
