<svg width="25" height="24" viewBox="0 0 25 24" fill="none" xmlns="http://www.w3.org/2000/svg">
<g id="902">
<path id="Vector" d="M7.41406 2C4.41406 2 2.41406 5 2.41406 8C2.41406 10.11 3.41406 13 4.41406 14C5.41406 15 6.41406 22 8.41406 22C12.9541 22 10.4141 15 12.4141 15C14.4141 15 11.8741 22 16.4141 22C18.4141 22 19.4141 15 20.4141 14C21.4141 13 22.4141 10.11 22.4141 8C22.4141 5 20.4141 2 17.4141 2C14.4141 2 14.4141 3 12.4141 3C10.4141 3 10.4141 2 7.41406 2ZM7.41406 4C9.41406 4 10.4141 5 12.4141 5C14.4141 5 15.4141 4 17.4141 4C19.0841 4 20.4141 6 20.4141 8C20.4141 9.75 19.5541 12.11 18.6041 13.06C17.7441 13.92 16.4741 19.94 15.9141 19.94C15.7041 19.94 15.4141 18.88 15.4141 17.59C15.4141 15.55 14.8441 13 12.4141 13C9.98406 13 9.41406 15.55 9.41406 17.59C9.41406 18.88 9.12406 19.94 8.91406 19.94C8.35406 19.94 7.08406 13.92 6.22406 13.06C5.27406 12.11 4.41406 9.75 4.41406 8C4.41406 6 5.74406 4 7.41406 4Z" fill="black"/>
</g>
</svg>
