<svg width="25" height="24" viewBox="0 0 25 24" fill="none" xmlns="http://www.w3.org/2000/svg">
<g id="903">
<path id="Vector" d="M20.4141 2H4.41406C3.31406 2 2.41406 2.9 2.41406 4V16C2.41406 17.11 3.31406 18 4.41406 18H8.41406L12.4141 22L16.4141 18H20.4141C21.5241 18 22.4141 17.11 22.4141 16V4C22.4141 2.9 21.5241 2 20.4141 2ZM15.9541 12.12L14.5341 13.54L12.4141 11.41L10.2941 13.54L8.88406 12.12L11.0041 10L8.87406 7.88L10.2941 6.47L12.4141 8.59L14.5341 6.47L15.9541 7.88L13.8241 10L15.9541 12.12Z" fill="black"/>
</g>
</svg>
