<svg width="25" height="24" viewBox="0 0 25 24" fill="none" xmlns="http://www.w3.org/2000/svg">
<g id="904">
<path id="Vector" d="M4.41406 2H20.4141C20.9445 2 21.4532 2.21071 21.8283 2.58579C22.2033 2.96086 22.4141 3.46957 22.4141 4V16C22.4141 16.5304 22.2033 17.0391 21.8283 17.4142C21.4532 17.7893 20.9445 18 20.4141 18H16.4141L12.4141 22L8.41406 18H4.41406C3.88363 18 3.37492 17.7893 2.99985 17.4142C2.62478 17.0391 2.41406 16.5304 2.41406 16V4C2.41406 3.46957 2.62478 2.96086 2.99985 2.58579C3.37492 2.21071 3.88363 2 4.41406 2ZM4.41406 4V16H9.24406L12.4141 19.17L15.5841 16H20.4141V4H4.41406ZM11.4141 6H13.4141V9H16.4141V11H13.4141V14H11.4141V11H8.41406V9H11.4141V6Z" fill="black"/>
</g>
</svg>
