<svg width="25" height="24" viewBox="0 0 25 24" fill="none" xmlns="http://www.w3.org/2000/svg">
<g id="909">
<path id="Vector" d="M20.4141 2H4.41406C3.88363 2 3.37492 2.21071 2.99985 2.58579C2.62478 2.96086 2.41406 3.46957 2.41406 4V16C2.41406 16.5304 2.62478 17.0391 2.99985 17.4142C3.37492 17.7893 3.88363 18 4.41406 18H8.41406L12.4141 22L16.4141 18H20.4141C20.9445 18 21.4532 17.7893 21.8283 17.4142C22.2033 17.0391 22.4141 16.5304 22.4141 16V4C22.4141 3.46957 22.2033 2.96086 21.8283 2.58579C21.4532 2.21071 20.9445 2 20.4141 2ZM12.4141 4.3C13.9141 4.3 15.1141 5.5 15.1141 7C15.1141 8.5 13.9141 9.7 12.4141 9.7C10.9141 9.7 9.71406 8.5 9.71406 7C9.71406 5.5 10.9141 4.3 12.4141 4.3ZM18.4141 15H6.41406V14.1C6.41406 12.1 10.4141 11 12.4141 11C14.4141 11 18.4141 12.1 18.4141 14.1V15Z" fill="black"/>
</g>
</svg>
