<svg width="25" height="24" viewBox="0 0 25 24" fill="none" xmlns="http://www.w3.org/2000/svg">
<g id="910">
<path id="Vector" d="M9.41406 6H15.4141V14H9.41406V6ZM22.4141 4V16C22.4141 17.11 21.5241 18 20.4141 18H16.4141L12.4141 22L8.41406 18H4.41406C3.31406 18 2.41406 17.11 2.41406 16V4C2.41406 2.9 3.31406 2 4.41406 2H20.4141C21.5241 2 22.4141 2.9 22.4141 4ZM16.4141 5.09C16.4141 4.5 15.9141 4 15.2741 4H9.55406C8.91406 4 8.41406 4.5 8.41406 5.09V14.91C8.41406 15.5 8.91406 16 9.55406 16H15.2741C15.9141 16 16.4141 15.5 16.4141 14.91V5.09Z" fill="black"/>
</g>
</svg>
