<svg width="25" height="24" viewBox="0 0 25 24" fill="none" xmlns="http://www.w3.org/2000/svg">
<g id="912">
<path id="Vector" d="M20.4141 2H4.41406C3.31406 2 2.41406 2.9 2.41406 4V16C2.41406 17.11 3.31406 18 4.41406 18H8.41406L12.4141 22L16.4141 18H20.4141C21.5241 18 22.4141 17.11 22.4141 16V4C22.4141 2.9 21.5241 2 20.4141 2ZM20.4141 16H15.5841L12.4141 19.17L9.24406 16H4.41406V4H20.4141V16ZM11.1641 13.71L7.66406 10.21L9.07406 8.79L11.1641 10.88L15.7541 6.3L17.1641 7.71L11.1641 13.71Z" fill="black"/>
</g>
</svg>
