<svg width="25" height="24" viewBox="0 0 25 24" fill="none" xmlns="http://www.w3.org/2000/svg">
<g id="913">
<path id="Vector" d="M22.1249 20.29L20.7049 21.71C20.5175 21.8963 20.264 22.0008 19.9999 22.0008C19.7357 22.0008 19.4822 21.8963 19.2949 21.71L7.41486 9.85C7.08967 9.94421 6.75337 9.99465 6.41486 10C5.77816 9.99955 5.15077 9.84711 4.58485 9.55536C4.01892 9.26362 3.53082 8.84099 3.16112 8.32263C2.79141 7.80426 2.55079 7.20513 2.45926 6.57505C2.36773 5.94496 2.42793 5.30213 2.63486 4.7L5.17486 7.24L5.70486 6.71L7.12486 5.29L7.65485 4.76L5.11486 2.22C5.71699 2.01307 6.35982 1.95287 6.9899 2.04441C7.61999 2.13594 8.21912 2.37656 8.73748 2.74626C9.25585 3.11596 9.67847 3.60407 9.97022 4.16999C10.262 4.73591 10.4144 5.3633 10.4149 6C10.4095 6.33852 10.3591 6.67481 10.2649 7L22.1249 18.88C22.3111 19.0674 22.4156 19.3208 22.4156 19.585C22.4156 19.8492 22.3111 20.1026 22.1249 20.29ZM2.70486 18.88C2.5186 19.0674 2.41406 19.3208 2.41406 19.585C2.41406 19.8492 2.5186 20.1026 2.70486 20.29L4.12486 21.71C4.31222 21.8963 4.56567 22.0008 4.82986 22.0008C5.09404 22.0008 5.34749 21.8963 5.53486 21.71L11.0049 16.25L8.17486 13.42M20.4149 2L16.4149 4V6L14.2449 8.17L16.2449 10.17L18.4149 8H20.4149L22.4149 4L20.4149 2Z" fill="black"/>
</g>
</svg>
