<svg width="25" height="24" viewBox="0 0 25 24" fill="none" xmlns="http://www.w3.org/2000/svg">
<g id="915">
<path id="Vector" d="M20.4141 8H17.4141V6C17.4141 4.9 16.5141 4 15.4141 4H9.41406C8.31406 4 7.41406 4.9 7.41406 6V8H4.41406C3.31406 8 2.41406 8.9 2.41406 10V20H22.4141V10C22.4141 8.9 21.5141 8 20.4141 8ZM9.41406 6H15.4141V8H9.41406V6ZM20.4141 18H4.41406V15H6.41406V16H8.41406V15H16.4141V16H18.4141V15H20.4141V18ZM18.4141 13V12H16.4141V13H8.41406V12H6.41406V13H4.41406V10H20.4141V13H18.4141Z" fill="black"/>
</g>
</svg>
