<svg width="25" height="24" viewBox="0 0 25 24" fill="none" xmlns="http://www.w3.org/2000/svg">
<g id="916">
<path id="Vector" d="M9.41406 22H17.4141V19.5C19.8241 17.87 21.4141 15.12 21.4141 12V4C21.4141 3.46957 21.2033 2.96086 20.8283 2.58579C20.4532 2.21071 19.9445 2 19.4141 2H15.4141C14.3041 2 13.4141 2.9 13.4141 4V12H3.41406C3.41406 15.09 5.41406 18 9.41406 19.5V22ZM5.70406 14H19.1241C18.5541 15.91 17.1841 17.5 15.4141 18.33V20H11.4141V18.33C9.41406 18 6.27406 15.91 5.70406 14ZM15.4141 4H19.4141V12H15.4141V4ZM16.4141 5V8H18.4141V5H16.4141Z" fill="black"/>
</g>
</svg>
