<svg width="25" height="24" viewBox="0 0 25 24" fill="none" xmlns="http://www.w3.org/2000/svg">
<g id="917">
<path id="Vector" d="M6.01406 1.6C6.41406 1.2 6.91406 1 7.41406 1H17.4141C17.9141 1 18.4141 1.2 18.8141 1.6C19.2141 2 19.4141 2.5 19.4141 3V21C19.4141 21.5 19.2141 22 18.8141 22.4C18.4141 22.8 17.9141 23 17.4141 23H7.41406C6.91406 23 6.41406 22.8 6.01406 22.4C5.61406 22 5.41406 21.5 5.41406 21V3C5.41406 2.5 5.61406 2 6.01406 1.6ZM8.41406 3C7.81406 3 7.41406 3.4 7.41406 4V20C7.41406 20.6 7.81406 21 8.41406 21H16.4141C17.0141 21 17.4141 20.6 17.4141 20V4C17.4141 3.4 17.0141 3 16.4141 3H8.41406ZM8.41406 17C8.41406 16.4 8.81406 16 9.41406 16H15.4141C16.0141 16 16.4141 16.4 16.4141 17V19C16.4141 19.6 16.0141 20 15.4141 20H9.41406C8.81406 20 8.41406 19.6 8.41406 19V17Z" fill="black"/>
</g>
</svg>
