<svg width="25" height="24" viewBox="0 0 25 24" fill="none" xmlns="http://www.w3.org/2000/svg">
<g id="918">
<path id="Vector" d="M17.4141 7H7.41406C6.08798 7 4.81621 7.52678 3.87853 8.46447C2.94085 9.40215 2.41406 10.6739 2.41406 12C2.41406 13.3261 2.94085 14.5979 3.87853 15.5355C4.81621 16.4732 6.08798 17 7.41406 17H17.4141C18.7401 17 20.0119 16.4732 20.9496 15.5355C21.8873 14.5979 22.4141 13.3261 22.4141 12C22.4141 10.6739 21.8873 9.40215 20.9496 8.46447C20.0119 7.52678 18.7401 7 17.4141 7ZM17.4141 15C16.6184 15 15.8554 14.6839 15.2927 14.1213C14.7301 13.5587 14.4141 12.7956 14.4141 12C14.4141 11.2044 14.7301 10.4413 15.2927 9.87868C15.8554 9.31607 16.6184 9 17.4141 9C18.2097 9 18.9728 9.31607 19.5354 9.87868C20.098 10.4413 20.4141 11.2044 20.4141 12C20.4141 12.7956 20.098 13.5587 19.5354 14.1213C18.9728 14.6839 18.2097 15 17.4141 15Z" fill="black"/>
</g>
</svg>
