<svg width="25" height="24" viewBox="0 0 25 24" fill="none" xmlns="http://www.w3.org/2000/svg">
<g id="919">
<path id="Vector" d="M17.4141 7H7.41406C6.08798 7 4.81621 7.52678 3.87853 8.46447C2.94085 9.40215 2.41406 10.6739 2.41406 12C2.41406 13.3261 2.94085 14.5979 3.87853 15.5355C4.81621 16.4732 6.08798 17 7.41406 17H17.4141C18.7401 17 20.0119 16.4732 20.9496 15.5355C21.8873 14.5979 22.4141 13.3261 22.4141 12C22.4141 10.6739 21.8873 9.40215 20.9496 8.46447C20.0119 7.52678 18.7401 7 17.4141 7ZM7.41406 15C6.61841 15 5.85535 14.6839 5.29274 14.1213C4.73013 13.5587 4.41406 12.7956 4.41406 12C4.41406 11.2044 4.73013 10.4413 5.29274 9.87868C5.85535 9.31607 6.61841 9 7.41406 9C8.20971 9 8.97277 9.31607 9.53538 9.87868C10.098 10.4413 10.4141 11.2044 10.4141 12C10.4141 12.7956 10.098 13.5587 9.53538 14.1213C8.97277 14.6839 8.20971 15 7.41406 15Z" fill="black"/>
</g>
</svg>
