<svg width="25" height="24" viewBox="0 0 25 24" fill="none" xmlns="http://www.w3.org/2000/svg">
<g id="920">
<path id="Vector" d="M17.4141 6H7.41406C4.10406 6 1.41406 8.69 1.41406 12C1.41406 15.31 4.10406 18 7.41406 18H17.4141C20.7241 18 23.4141 15.31 23.4141 12C23.4141 8.69 20.7241 6 17.4141 6ZM17.4141 16H7.41406C5.20406 16 3.41406 14.21 3.41406 12C3.41406 9.79 5.20406 8 7.41406 8H17.4141C19.6241 8 21.4141 9.79 21.4141 12C21.4141 14.21 19.6241 16 17.4141 16ZM7.41406 9C5.75406 9 4.41406 10.34 4.41406 12C4.41406 13.66 5.75406 15 7.41406 15C9.07406 15 10.4141 13.66 10.4141 12C10.4141 10.34 9.07406 9 7.41406 9Z" fill="black"/>
</g>
</svg>
