<svg width="25" height="24" viewBox="0 0 25 24" fill="none" xmlns="http://www.w3.org/2000/svg">
<g id="922">
<path id="Vector" d="M18.8141 1.6C18.4141 1.2 17.9141 1 17.4141 1H7.41406C6.91406 1 6.41406 1.2 6.01406 1.6C5.61406 2 5.41406 2.5 5.41406 3V21C5.41406 21.5 5.61406 22 6.01406 22.4C6.41406 22.8 6.91406 23 7.41406 23H17.4141C17.9141 23 18.4141 22.8 18.8141 22.4C19.2141 22 19.4141 21.5 19.4141 21V3C19.4141 2.5 19.2141 2 18.8141 1.6ZM16.4141 7C16.4141 7.6 16.0141 8 15.4141 8H9.41406C8.81406 8 8.41406 7.6 8.41406 7V5C8.41406 4.4 8.81406 4 9.41406 4H15.4141C16.0141 4 16.4141 4.4 16.4141 5V7Z" fill="black"/>
</g>
</svg>
