<svg width="25" height="24" viewBox="0 0 25 24" fill="none" xmlns="http://www.w3.org/2000/svg">
<g id="923">
<path id="Vector" d="M4.41406 5C3.88363 5 3.37492 5.21071 2.99985 5.58579C2.62478 5.96086 2.41406 6.46957 2.41406 7V17C2.41406 17.5304 2.62478 18.0391 2.99985 18.4142C3.37492 18.7893 3.88363 19 4.41406 19H20.4141C20.9445 19 21.4532 18.7893 21.8283 18.4142C22.2033 18.0391 22.4141 17.5304 22.4141 17V7C22.4141 6.46957 22.2033 5.96086 21.8283 5.58579C21.4532 5.21071 20.9445 5 20.4141 5H4.41406ZM4.41406 7H16.4141V17H4.41406V7ZM19.4141 7C19.6793 7 19.9336 7.10536 20.1212 7.29289C20.3087 7.48043 20.4141 7.73478 20.4141 8C20.4141 8.26522 20.3087 8.51957 20.1212 8.70711C19.9336 8.89464 19.6793 9 19.4141 9C19.1488 9 18.8945 8.89464 18.707 8.70711C18.5194 8.51957 18.4141 8.26522 18.4141 8C18.4141 7.73478 18.5194 7.48043 18.707 7.29289C18.8945 7.10536 19.1488 7 19.4141 7ZM6.41406 9V11H14.4141V9H6.41406ZM19.4141 11C19.6793 11 19.9336 11.1054 20.1212 11.2929C20.3087 11.4804 20.4141 11.7348 20.4141 12C20.4141 12.2652 20.3087 12.5196 20.1212 12.7071C19.9336 12.8946 19.6793 13 19.4141 13C19.1488 13 18.8945 12.8946 18.707 12.7071C18.5194 12.5196 18.4141 12.2652 18.4141 12C18.4141 11.7348 18.5194 11.4804 18.707 11.2929C18.8945 11.1054 19.1488 11 19.4141 11Z" fill="black"/>
</g>
</svg>
