<svg width="25" height="24" viewBox="0 0 25 24" fill="none" xmlns="http://www.w3.org/2000/svg">
<g id="924">
<path id="Vector" d="M21.2156 22.7L18.5156 20H3.41563V13H2.41563V11H3.41563C3.41563 9.89995 4.31563 8.99995 5.41563 8.99995H7.51562L1.51562 2.99995L2.81563 1.69995L22.5156 21.4L21.2156 22.7ZM15.7156 12.1C16.0156 11.5 16.7156 11 17.4156 11C18.5156 11 19.4156 11.9 19.4156 13C19.4156 13.8 19.0156 14.4 18.3156 14.7L21.4156 17.7999V13H22.4156V11H21.4156C21.4156 9.89995 20.5156 8.99995 19.4156 8.99995H12.6156L15.7156 12.1ZM18.4156 7.99995C18.0156 5.79995 15.5156 3.99995 12.4156 3.99995C11.0156 3.99995 9.61562 4.39995 8.61562 4.99995L11.6156 7.99995H18.4156Z" fill="black"/>
</g>
</svg>
