<svg width="25" height="24" viewBox="0 0 25 24" fill="none" xmlns="http://www.w3.org/2000/svg">
<g id="925">
<path id="Vector" d="M21.4141 11C21.4141 10.4696 21.2033 9.96086 20.8283 9.58579C20.4532 9.21071 19.9445 9 19.4141 9H5.41406C4.88363 9 4.37492 9.21071 3.99985 9.58579C3.62478 9.96086 3.41406 10.4696 3.41406 11H2.41406V13H3.41406V20H21.4141V13H22.4141V11M17.4141 15C17.0185 15 16.6318 14.8827 16.3029 14.6629C15.974 14.4432 15.7177 14.1308 15.5663 13.7654C15.4149 13.3999 15.3753 12.9978 15.4525 12.6098C15.5297 12.2219 15.7201 11.8655 15.9998 11.5858C16.2796 11.3061 16.6359 11.1156 17.0239 11.0384C17.4118 10.9613 17.814 11.0009 18.1794 11.1522C18.5449 11.3036 18.8572 11.56 19.077 11.8889C19.2968 12.2178 19.4141 12.6044 19.4141 13C19.4141 13.5304 19.2033 14.0391 18.8283 14.4142C18.4532 14.7893 17.9445 15 17.4141 15ZM18.4141 8H6.41406C6.74406 5.75 9.29406 4 12.4141 4C15.5341 4 18.0441 5.75 18.4141 8Z" fill="black"/>
</g>
</svg>
