<svg width="25" height="24" viewBox="0 0 25 24" fill="none" xmlns="http://www.w3.org/2000/svg">
<g id="926">
<path id="Vector" d="M20.0741 9.64L19.7141 8.7L21.5741 8C20.6541 5.88 19.0141 4.18 16.9541 3.14L16.1541 4.92L15.2341 4.5L16.0341 2.7C14.9141 2.26 13.6941 2 12.4141 2C11.3541 2 10.3341 2.22 9.37406 2.5L10.0541 4.34L9.11406 4.7L8.41406 2.84C6.29406 3.76 4.59406 5.4 3.55406 7.46L5.33406 8.26L4.91406 9.18L3.11406 8.38C2.67406 9.5 2.41406 10.72 2.41406 12C2.41406 13.06 2.63406 14.08 2.91406 15.04L4.75406 14.36L5.11406 15.3L3.25406 16C4.17406 18.12 5.81406 19.82 7.87406 20.86L8.67406 19.08L9.59406 19.5L8.79406 21.3C9.91406 21.74 11.1341 22 12.4141 22C13.4741 22 14.4941 21.78 15.4541 21.5L14.7741 19.66L15.7141 19.3L16.4141 21.16C18.5341 20.24 20.2341 18.6 21.2741 16.54L19.4941 15.74L19.9141 14.82L21.7141 15.62C22.1541 14.5 22.4141 13.28 22.4141 12C22.4141 10.94 22.1941 9.92 21.9141 8.96L20.0741 9.64ZM14.7141 17.54C11.6541 18.8 8.13406 17.36 6.87406 14.3C5.61406 11.24 7.05406 7.72 10.1141 6.46C13.1741 5.2 16.6941 6.64 17.9541 9.7C19.2341 12.76 17.7741 16.28 14.7141 17.54Z" fill="black"/>
</g>
</svg>
