<svg width="25" height="24" viewBox="0 0 25 24" fill="none" xmlns="http://www.w3.org/2000/svg">
<g id="927">
<path id="Vector" d="M14.4141 12H15.9141V14.82L18.3541 16.23L17.6041 17.53L14.4141 15.69V12ZM4.41406 2H18.4141C18.9445 2 19.4532 2.21071 19.8283 2.58579C20.2033 2.96086 20.4141 3.46957 20.4141 4V10.1C21.6541 11.36 22.4141 13.09 22.4141 15C22.4141 16.8565 21.6766 18.637 20.3638 19.9497C19.0511 21.2625 17.2706 22 15.4141 22C13.5041 22 11.7741 21.24 10.5141 20H4.41406C3.88363 20 3.37492 19.7893 2.99985 19.4142C2.62478 19.0391 2.41406 18.5304 2.41406 18V4C2.41406 3.46957 2.62478 2.96086 2.99985 2.58579C3.37492 2.21071 3.88363 2 4.41406 2ZM4.41406 15V18H9.08406C8.65406 17.09 8.41406 16.07 8.41406 15H4.41406ZM4.41406 8H10.4141V5H4.41406V8ZM18.4141 8V5H12.4141V8H18.4141ZM4.41406 13H8.70406C9.04406 11.85 9.67406 10.82 10.5141 10H4.41406V13ZM15.4141 10.15C14.1278 10.15 12.8941 10.661 11.9846 11.5705C11.075 12.4801 10.5641 13.7137 10.5641 15C10.5641 17.68 12.7341 19.85 15.4141 19.85C16.051 19.85 16.6816 19.7246 17.2701 19.4808C17.8585 19.2371 18.3932 18.8798 18.8435 18.4295C19.2939 17.9791 19.6511 17.4444 19.8949 16.856C20.1386 16.2676 20.2641 15.6369 20.2641 15C20.2641 12.32 18.0941 10.15 15.4141 10.15Z" fill="black"/>
</g>
</svg>
