<svg width="25" height="24" viewBox="0 0 25 24" fill="none" xmlns="http://www.w3.org/2000/svg">
<g id="929">
<path id="Vector" d="M19.4141 13C20.1141 13 20.7741 13.13 21.4141 13.35C21.4141 13.23 21.4141 13.12 21.4141 13C21.4141 10.88 20.6741 8.93 19.4441 7.39L20.8641 5.97C20.4141 5.46 19.9641 5 19.4541 4.56L18.0341 6C16.4841 4.74 14.5341 4 12.4141 4C7.44406 4 3.41406 8.03 3.41406 13C3.41406 17.97 7.44406 22 12.4141 22C13.0041 22 13.5741 21.94 14.1241 21.83C13.6741 21 13.4141 20.03 13.4141 19C13.4141 15.69 16.1041 13 19.4141 13ZM13.4141 14H11.4141V7H13.4141V14ZM15.4141 3H9.41406V1H15.4141V3ZM21.9141 16.5V21.5H16.9141V16.5H21.9141Z" fill="black"/>
</g>
</svg>
