<svg width="25" height="24" viewBox="0 0 25 24" fill="none" xmlns="http://www.w3.org/2000/svg">
<g id="931">
<path id="Vector" d="M15.4141 3H9.41406V1H15.4141V3ZM13.4141 17.5C13.4141 19.08 13.9741 20.5 14.9141 21.65C14.1141 21.87 13.2841 22 12.4141 22C7.44406 22 3.41406 17.97 3.41406 13C3.41406 8.03 7.44406 4 12.4141 4C14.5341 4 16.4841 4.74 18.0341 6L19.4541 4.56C19.9641 5 20.4141 5.46 20.8641 5.97L19.4441 7.39C20.3041 8.46 20.9141 9.74 21.2141 11.13C20.7941 11.05 20.3541 11 19.9141 11C16.3241 11 13.4141 13.91 13.4141 17.5ZM13.4141 7H11.4141V14H13.4141V7ZM19.4141 13.5V12L17.1641 14.25L19.4141 16.5V15C20.7941 15 21.9141 16.12 21.9141 17.5C21.9141 17.9 21.8241 18.28 21.6541 18.62L22.7441 19.71C23.1641 19.08 23.4141 18.32 23.4141 17.5C23.4141 15.29 21.6241 13.5 19.4141 13.5ZM19.4141 20C18.0341 20 16.9141 18.88 16.9141 17.5C16.9141 17.1 17.0041 16.72 17.1741 16.38L16.0841 15.29C15.6641 15.92 15.4141 16.68 15.4141 17.5C15.4141 19.71 17.2041 21.5 19.4141 21.5V23L21.6641 20.75L19.4141 18.5V20Z" fill="black"/>
</g>
</svg>
