<svg width="25" height="24" viewBox="0 0 25 24" fill="none" xmlns="http://www.w3.org/2000/svg">
<g id="934">
<path id="Vector" d="M12.4141 19C8.51406 19 5.41406 15.9 5.41406 12C5.41406 8.1 8.51406 5 12.4141 5C16.3141 5 19.4141 8.1 19.4141 12C19.4141 15.9 16.3141 19 12.4141 19ZM19.4141 6.4L20.9141 5C20.4141 4.5 19.9141 4 19.4141 3.6L18.0141 5C16.4141 3.7 14.5141 3 12.4141 3C7.41406 3 3.41406 7 3.41406 12C3.41406 17 7.41406 21 12.4141 21C17.4141 21 21.4141 17 21.4141 12C21.4141 9.9 20.7141 7.9 19.4141 6.4ZM11.4141 13H13.4141V7H11.4141M15.4141 0H9.41406V2H15.4141V0ZM13.4141 22H11.4141V24H13.4141V22ZM17.4141 22H15.4141V24H17.4141V22ZM9.41406 22H7.41406V24H9.41406V22Z" fill="black"/>
</g>
</svg>
