<svg width="25" height="24" viewBox="0 0 25 24" fill="none" xmlns="http://www.w3.org/2000/svg">
<g id="935">
<path id="Vector" d="M19.4141 6.4L20.9141 5C20.4141 4.5 19.9141 4 19.4141 3.6L18.0141 5C16.4141 3.7 14.5141 3 12.4141 3C7.41406 3 3.41406 7 3.41406 12C3.41406 17 7.41406 21 12.4141 21C17.4141 21 21.4141 17 21.4141 12C21.4141 9.9 20.7141 7.9 19.4141 6.4ZM13.4141 13H11.4141V6H13.4141V13ZM15.4141 0H9.41406V2H15.4141V0ZM13.4141 24H11.4141V22H13.4141V24ZM17.4141 24H15.4141V22H17.4141V24ZM9.41406 24H7.41406V22H9.41406V24Z" fill="black"/>
</g>
</svg>
