<svg width="25" height="24" viewBox="0 0 25 24" fill="none" xmlns="http://www.w3.org/2000/svg">
<g id="938">
<path id="Vector" d="M15.4141 3H9.41406V1H15.4141V3ZM13.4141 19C13.4141 20.03 13.6741 21 14.1241 21.83C13.5741 21.94 13.0041 22 12.4141 22C7.44406 22 3.41406 17.97 3.41406 13C3.41406 8.03 7.44406 4 12.4141 4C14.5341 4 16.4841 4.74 18.0341 6L19.4541 4.56C19.9641 5 20.4141 5.46 20.8641 5.97L19.4441 7.39C20.6741 8.93 21.4141 10.88 21.4141 13C21.4141 13.12 21.4141 13.23 21.4141 13.35C20.7741 13.13 20.1141 13 19.4141 13C16.1041 13 13.4141 15.69 13.4141 19ZM13.4141 7H11.4141V14H13.4141V7ZM22.9541 16.88L21.5341 15.47L19.4141 17.59L17.2941 15.47L15.8841 16.88L18.0041 19L15.8841 21.12L17.2941 22.54L19.4141 20.41L21.5341 22.54L22.9541 21.12L20.8241 19L22.9541 16.88Z" fill="black"/>
</g>
</svg>
