<svg width="25" height="24" viewBox="0 0 25 24" fill="none" xmlns="http://www.w3.org/2000/svg">
<g id="939">
<path id="Vector" d="M13.4941 19.91C13.5941 20.6 13.8141 21.25 14.1241 21.83C13.5741 21.94 13.0041 22 12.4141 22C7.44406 22 3.41406 17.97 3.41406 13C3.41406 8.03 7.44406 4 12.4141 4C14.5341 4 16.4841 4.74 18.0341 6L19.4541 4.56C19.9641 5 20.4141 5.46 20.8641 5.97L19.4441 7.39C20.6741 8.93 21.4141 10.88 21.4141 13C21.4141 13.12 21.4141 13.23 21.4141 13.35C20.7741 13.13 20.1141 13 19.4141 13C19.4141 9.13 16.2841 6 12.4141 6C8.54406 6 5.41406 9.13 5.41406 13C5.41406 16.87 8.54406 20 12.4141 20C12.7841 20 13.1341 19.96 13.4941 19.91ZM11.4141 14H13.4141V8H11.4141V14ZM15.4141 1H9.41406V3H15.4141V1ZM22.9541 16.88L21.5341 15.47L19.4141 17.59L17.2941 15.47L15.8841 16.88L18.0041 19L15.8841 21.12L17.2941 22.54L19.4141 20.41L21.5341 22.54L22.9541 21.12L20.8241 19L22.9541 16.88Z" fill="black"/>
</g>
</svg>
