<svg width="25" height="24" viewBox="0 0 25 24" fill="none" xmlns="http://www.w3.org/2000/svg">
<g id="943">
<path id="Vector" d="M11.4141 8H13.4141V14H11.4141V8ZM15.4141 1H9.41406V3H15.4141V1ZM12.4141 20C8.54406 20 5.41406 16.87 5.41406 13C5.41406 9.13 8.54406 6 12.4141 6C15.9541 6 18.8641 8.62 19.3441 12.03C20.0641 12.08 20.7541 12.23 21.4141 12.5C21.2841 10.57 20.5741 8.81 19.4441 7.39L20.8641 5.97C20.4141 5.46 19.9641 5 19.4541 4.56L18.0341 6C16.4841 4.74 14.5341 4 12.4141 4C7.44406 4 3.41406 8.03 3.41406 13C3.41406 17.97 7.44406 22 12.4141 22C12.7541 22 13.0841 22 13.4141 21.94C13.0441 21.35 12.7641 20.69 12.5941 20C12.5341 20 12.4741 20 12.4141 20ZM22.4141 18.5V14.5L21.2441 15.67C20.5241 14.95 19.5241 14.5 18.4141 14.5C16.2041 14.5 14.4141 16.29 14.4141 18.5C14.4141 20.71 16.2041 22.5 18.4141 22.5C20.0941 22.5 21.5341 21.47 22.1241 20H20.4141C19.9541 20.61 19.2341 21 18.4141 21C17.0341 21 15.9141 19.88 15.9141 18.5C15.9141 17.12 17.0341 16 18.4141 16C19.1041 16 19.7341 16.28 20.1841 16.73L18.4141 18.5H22.4141Z" fill="black"/>
</g>
</svg>
