<svg width="25" height="24" viewBox="0 0 25 24" fill="none" xmlns="http://www.w3.org/2000/svg">
<g id="944">
<path id="Vector" d="M15.4141 3H9.41406V1H15.4141V3ZM12.4141 18.5C12.4141 19.77 12.7841 20.94 13.4141 21.94C13.0841 22 12.7541 22 12.4141 22C7.44406 22 3.41406 17.97 3.41406 13C3.41406 8.03 7.44406 4 12.4141 4C14.5341 4 16.4841 4.74 18.0341 6L19.4541 4.56C19.9641 5 20.4141 5.46 20.8641 5.97L19.4441 7.39C20.5741 8.81 21.2841 10.57 21.4141 12.5C20.6341 12.18 19.7941 12 18.9141 12C15.3241 12 12.4141 14.91 12.4141 18.5ZM13.4141 7H11.4141V14H13.4141V7ZM22.4141 18.5V14.5L21.2441 15.67C20.5241 14.95 19.5241 14.5 18.4141 14.5C16.2041 14.5 14.4141 16.29 14.4141 18.5C14.4141 20.71 16.2041 22.5 18.4141 22.5C20.0941 22.5 21.5341 21.47 22.1241 20H20.4141C19.9541 20.61 19.2341 21 18.4141 21C17.0341 21 15.9141 19.88 15.9141 18.5C15.9141 17.12 17.0341 16 18.4141 16C19.1041 16 19.7341 16.28 20.1841 16.73L18.4141 18.5H22.4141Z" fill="black"/>
</g>
</svg>
