<svg width="25" height="24" viewBox="0 0 25 24" fill="none" xmlns="http://www.w3.org/2000/svg">
<g id="947">
<path id="Vector" d="M15.4141 3H9.41406V1H15.4141V3ZM11.4141 14H13.4141V8H11.4141V14ZM19.4141 13C20.1141 13 20.7741 13.13 21.4141 13.35C21.4141 13.23 21.4141 13.12 21.4141 13C21.4141 10.88 20.6741 8.93 19.4441 7.39L20.8641 5.97C20.4141 5.46 19.9641 5 19.4541 4.56L18.0341 6C16.4841 4.74 14.5341 4 12.4141 4C7.44406 4 3.41406 8.03 3.41406 13C3.41406 17.97 7.44406 22 12.4141 22C13.0041 22 13.5741 21.94 14.1241 21.83C13.8141 21.25 13.5941 20.6 13.4941 19.91C13.1341 19.96 12.7841 20 12.4141 20C8.54406 20 5.41406 16.87 5.41406 13C5.41406 9.13 8.54406 6 12.4141 6C16.2841 6 19.4141 9.13 19.4141 13ZM17.4141 16V22L22.4141 19L17.4141 16Z" fill="black"/>
</g>
</svg>
