<svg width="25" height="24" viewBox="0 0 25 24" fill="none" xmlns="http://www.w3.org/2000/svg">
<g id="948">
<path id="Vector" d="M12.4141 20C10.5575 20 8.77707 19.2625 7.46431 17.9497C6.15156 16.637 5.41406 14.8565 5.41406 13C5.41406 11.72 5.76406 10.5 6.36406 9.5L15.9141 19.04C14.9141 19.65 13.6941 20 12.4141 20ZM3.41406 4L2.16406 5.27L4.91406 8.03C3.96406 9.45 3.41406 11.16 3.41406 13C3.41406 15.3869 4.36227 17.6761 6.0501 19.364C7.73793 21.0518 10.0271 22 12.4141 22C14.2541 22 15.9641 21.45 17.4141 20.5L19.9141 23L21.1641 21.73L13.4541 14L3.41406 4ZM11.4141 9.44L13.4141 11.44V8H11.4141M15.4141 1H9.41406V3H15.4141M19.4541 4.55L18.0341 5.97C16.4841 4.74 14.5341 4 12.4141 4C10.5841 4 8.88406 4.55 7.46406 5.5L8.91406 6.94C9.94406 6.35 11.1441 6 12.4141 6C14.2706 6 16.0511 6.7375 17.3638 8.05025C18.6766 9.36301 19.4141 11.1435 19.4141 13C19.4141 14.27 19.0641 15.47 18.4741 16.5L19.9141 17.94C20.8641 16.53 21.4141 14.83 21.4141 13C21.4141 10.88 20.6741 8.93 19.4441 7.39L20.8641 5.97L19.4541 4.55Z" fill="black"/>
</g>
</svg>
