<svg width="25" height="24" viewBox="0 0 25 24" fill="none" xmlns="http://www.w3.org/2000/svg">
<g id="949">
<path id="Vector" d="M12.4141 20C10.5575 20 8.77707 19.2625 7.46431 17.9497C6.15156 16.637 5.41406 14.8565 5.41406 13C5.41406 11.1435 6.15156 9.36301 7.46431 8.05025C8.77707 6.7375 10.5575 6 12.4141 6C14.2706 6 16.0511 6.7375 17.3638 8.05025C18.6766 9.36301 19.4141 11.1435 19.4141 13C19.4141 14.8565 18.6766 16.637 17.3638 17.9497C16.0511 19.2625 14.2706 20 12.4141 20ZM19.4441 7.39L20.8641 5.97C20.4141 5.46 19.9641 5 19.4541 4.56L18.0341 6C16.4841 4.74 14.5341 4 12.4141 4C10.0271 4 7.73793 4.94821 6.0501 6.63604C4.36227 8.32387 3.41406 10.6131 3.41406 13C3.41406 15.3869 4.36227 17.6761 6.0501 19.364C7.73793 21.0518 10.0271 22 12.4141 22C17.4141 22 21.4141 17.97 21.4141 13C21.4141 10.88 20.6741 8.93 19.4441 7.39ZM11.4141 14H13.4141V8H11.4141M15.4141 1H9.41406V3H15.4141V1Z" fill="black"/>
</g>
</svg>
