<svg width="25" height="24" viewBox="0 0 25 24" fill="none" xmlns="http://www.w3.org/2000/svg">
<g id="952">
<path id="Vector" d="M14.4141 10V14C14.4141 14.3 14.2141 14.5 13.9141 14.5H12.9141V9.5H13.9141C14.2141 9.5 14.4141 9.7 14.4141 10ZM17.4141 10.5V7C17.4141 6.4 17.0141 6 16.4141 6H4.41406C3.81406 6 3.41406 6.4 3.41406 7V17C3.41406 17.6 3.81406 18 4.41406 18H16.4141C17.0141 18 17.4141 17.6 17.4141 17V13.5L21.4141 17.5V6.5L17.4141 10.5ZM9.91406 16H8.41406V12.8H6.41406V16H4.91406V8H6.41406V11.2H8.41406V8H9.91406V16ZM15.9141 14.5C15.9141 15.3 15.2141 16 14.4141 16H11.4141V8H14.4141C15.2141 8 15.9141 8.7 15.9141 9.5V14.5Z" fill="black"/>
</g>
</svg>
