<svg width="25" height="24" viewBox="0 0 25 24" fill="none" xmlns="http://www.w3.org/2000/svg">
<g id="955">
<path id="Vector" d="M5.41406 2C5.41406 1.73478 5.30871 1.48043 5.12117 1.29289C4.93363 1.10536 4.67928 1 4.41406 1C4.14885 1 3.89449 1.10536 3.70696 1.29289C3.51942 1.48043 3.41406 1.73478 3.41406 2V6H1.41406V12H7.41406V6H5.41406V2ZM9.41406 16C9.41406 17.3 10.2541 18.4 11.4141 18.82V23H13.4141V18.82C14.5741 18.41 15.4141 17.31 15.4141 16V14H9.41406V16ZM1.41406 16C1.41406 17.3 2.25406 18.4 3.41406 18.82V23H5.41406V18.82C6.57406 18.4 7.41406 17.3 7.41406 16V14H1.41406V16ZM21.4141 6V2C21.4141 1.73478 21.3087 1.48043 21.1212 1.29289C20.9336 1.10536 20.6793 1 20.4141 1C20.1488 1 19.8945 1.10536 19.707 1.29289C19.5194 1.48043 19.4141 1.73478 19.4141 2V6H17.4141V12H23.4141V6H21.4141ZM13.4141 2C13.4141 1.73478 13.3087 1.48043 13.1212 1.29289C12.9336 1.10536 12.6793 1 12.4141 1C12.1488 1 11.8945 1.10536 11.707 1.29289C11.5194 1.48043 11.4141 1.73478 11.4141 2V6H9.41406V12H15.4141V6H13.4141V2ZM17.4141 16C17.4141 17.3 18.2541 18.4 19.4141 18.82V23H21.4141V18.82C22.5741 18.41 23.4141 17.31 23.4141 16V14H17.4141V16Z" fill="black"/>
</g>
</svg>
