<svg width="25" height="24" viewBox="0 0 25 24" fill="none" xmlns="http://www.w3.org/2000/svg">
<g id="956">
<path id="Vector" d="M12.4141 5C10.5575 5 8.77707 5.7375 7.46431 7.05025C6.15156 8.36301 5.41406 10.1435 5.41406 12H7.41406C7.41406 10.6739 7.94085 9.40215 8.87853 8.46447C9.81621 7.52678 11.088 7 12.4141 7C13.7401 7 15.0119 7.52678 15.9496 8.46447C16.8873 9.40215 17.4141 10.6739 17.4141 12H19.4141C19.4141 10.1435 18.6766 8.36301 17.3638 7.05025C16.0511 5.7375 14.2706 5 12.4141 5ZM13.4141 14.29C14.2941 13.9 14.9141 13.03 14.9141 12C14.9141 11.337 14.6507 10.7011 14.1818 10.2322C13.713 9.76339 13.0771 9.5 12.4141 9.5C11.751 9.5 11.1151 9.76339 10.6463 10.2322C10.1775 10.7011 9.91406 11.337 9.91406 12C9.91406 13 10.5341 13.9 11.4141 14.29V17.59L8.00406 21L9.41406 22.41L12.4141 19.41L15.4141 22.41L16.8241 21L13.4141 17.59V14.29ZM12.4141 1C9.49668 1 6.69879 2.15893 4.63589 4.22183C2.57299 6.28473 1.41406 9.08262 1.41406 12H3.41406C3.41406 9.61305 4.36227 7.32387 6.0501 5.63604C7.73793 3.94821 10.0271 3 12.4141 3C14.801 3 17.0902 3.94821 18.778 5.63604C20.4659 7.32387 21.4141 9.61305 21.4141 12H23.4141C23.4141 9.08262 22.2551 6.28473 20.1922 4.22183C18.1293 2.15893 15.3314 1 12.4141 1Z" fill="black"/>
</g>
</svg>
