<svg width="25" height="24" viewBox="0 0 25 24" fill="none" xmlns="http://www.w3.org/2000/svg">
<g id="957">
<path id="Vector" d="M17.4141 10.5L21.4141 6.5V17.5L17.4141 13.5V17C17.4141 17.2652 17.3087 17.5196 17.1212 17.7071C16.9336 17.8946 16.6793 18 16.4141 18H4.41406C4.14885 18 3.89449 17.8946 3.70696 17.7071C3.51942 17.5196 3.41406 17.2652 3.41406 17V7C3.41406 6.73478 3.51942 6.48043 3.70696 6.29289C3.89449 6.10536 4.14885 6 4.41406 6H16.4141C16.6793 6 16.9336 6.10536 17.1212 6.29289C17.3087 6.48043 17.4141 6.73478 17.4141 7V10.5ZM11.3241 9.55L9.61406 11.82L10.9141 13.55L10.1841 14.09L8.14406 11.36L5.41406 15H15.4141L11.3241 9.55Z" fill="black"/>
</g>
</svg>
