<svg width="25" height="24" viewBox="0 0 25 24" fill="none" xmlns="http://www.w3.org/2000/svg">
<g id="958">
<path id="Vector" d="M8.41406 11.5C8.41406 11.1022 8.25603 10.7206 7.97472 10.4393C7.69342 10.158 7.31189 10 6.91406 10C6.51624 10 6.13471 10.158 5.8534 10.4393C5.5721 10.7206 5.41406 11.1022 5.41406 11.5C5.41406 11.8978 5.5721 12.2794 5.8534 12.5607C6.13471 12.842 6.51624 13 6.91406 13C7.31189 13 7.69342 12.842 7.97472 12.5607C8.25603 12.2794 8.41406 11.8978 8.41406 11.5ZM15.4141 6.5C15.4141 6.10218 15.256 5.72064 14.9747 5.43934C14.6934 5.15804 14.3119 5 13.9141 5H10.9141C10.5162 5 10.1347 5.15804 9.8534 5.43934C9.5721 5.72064 9.41406 6.10218 9.41406 6.5C9.41406 6.89782 9.5721 7.27936 9.8534 7.56066C10.1347 7.84196 10.5162 8 10.9141 8H13.9141C14.3119 8 14.6934 7.84196 14.9747 7.56066C15.256 7.27936 15.4141 6.89782 15.4141 6.5ZM8.91406 15C8.51624 15 8.13471 15.158 7.8534 15.4393C7.5721 15.7206 7.41406 16.1022 7.41406 16.5C7.41406 16.8978 7.5721 17.2794 7.8534 17.5607C8.13471 17.842 8.51624 18 8.91406 18C9.31189 18 9.69342 17.842 9.97472 17.5607C10.256 17.2794 10.4141 16.8978 10.4141 16.5C10.4141 16.1022 10.256 15.7206 9.97472 15.4393C9.69342 15.158 9.31189 15 8.91406 15ZM12.4141 1C9.49668 1 6.69879 2.15893 4.63589 4.22183C2.57299 6.28473 1.41406 9.08262 1.41406 12C1.41406 14.9174 2.57299 17.7153 4.63589 19.7782C6.69879 21.8411 9.49668 23 12.4141 23C15.3314 23 18.1293 21.8411 20.1922 19.7782C22.2551 17.7153 23.4141 14.9174 23.4141 12C23.4141 9.08262 22.2551 6.28473 20.1922 4.22183C18.1293 2.15893 15.3314 1 12.4141 1ZM12.4141 21C7.45406 21 3.41406 16.96 3.41406 12C3.41406 7.04 7.45406 3 12.4141 3C17.3741 3 21.4141 7.04 21.4141 12C21.4141 16.96 17.3741 21 12.4141 21ZM17.9141 10C17.5162 10 17.1347 10.158 16.8534 10.4393C16.5721 10.7206 16.4141 11.1022 16.4141 11.5C16.4141 11.8978 16.5721 12.2794 16.8534 12.5607C17.1347 12.842 17.5162 13 17.9141 13C18.3119 13 18.6934 12.842 18.9747 12.5607C19.256 12.2794 19.4141 11.8978 19.4141 11.5C19.4141 11.1022 19.256 10.7206 18.9747 10.4393C18.6934 10.158 18.3119 10 17.9141 10ZM15.9141 15C15.5162 15 15.1347 15.158 14.8534 15.4393C14.5721 15.7206 14.4141 16.1022 14.4141 16.5C14.4141 16.8978 14.5721 17.2794 14.8534 17.5607C15.1347 17.842 15.5162 18 15.9141 18C16.3119 18 16.6934 17.842 16.9747 17.5607C17.256 17.2794 17.4141 16.8978 17.4141 16.5C17.4141 16.1022 17.256 15.7206 16.9747 15.4393C16.6934 15.158 16.3119 15 15.9141 15Z" fill="black"/>
</g>
</svg>
