<svg width="25" height="24" viewBox="0 0 25 24" fill="none" xmlns="http://www.w3.org/2000/svg">
<g id="960">
<path id="Vector" d="M5.91406 16.8C5.21406 16.8 4.71406 16.2 4.71406 15.6C4.71406 14.9 5.31406 14.4 5.91406 14.4C6.51406 14.4 7.11406 15 7.11406 15.6C7.21406 16.2 6.61406 16.8 5.91406 16.8ZM5.91406 12C4.01406 12 2.41406 13.6 2.41406 15.5C2.41406 18.1 5.91406 22 5.91406 22C5.91406 22 9.41406 18.1 9.41406 15.5C9.41406 13.6 7.81406 12 5.91406 12ZM4.41406 6C3.81406 6 3.41406 6.4 3.41406 7V10.6C4.01406 10.3 4.71406 10.1 5.41406 10V8H15.4141V16H11.4141C11.3141 16.7 11.2141 17.4 10.9141 18H16.4141C17.0141 18 17.4141 17.6 17.4141 17V13.5L21.4141 17.5V6.5L17.4141 10.5V7C17.4141 6.4 17.0141 6 16.4141 6H4.41406Z" fill="black"/>
</g>
</svg>
