<svg width="25" height="24" viewBox="0 0 25 24" fill="none" xmlns="http://www.w3.org/2000/svg">
<g id="965">
<path id="Vector" d="M3.82406 1.86011L2.41406 3.27011L5.14406 6.00011H4.41406C4.14885 6.00011 3.89449 6.10546 3.70696 6.293C3.51942 6.48054 3.41406 6.73489 3.41406 7.00011V17.0001C3.41406 17.2653 3.51942 17.5197 3.70696 17.7072C3.89449 17.8948 4.14885 18.0001 4.41406 18.0001H16.4141C16.6241 18.0001 16.8041 17.9201 16.9641 17.8201L20.1441 21.0001L21.5541 19.5901L12.6941 10.7301L3.82406 1.86011ZM5.41406 16.0001V8.00011H7.14406L15.1441 16.0001H5.41406ZM15.4141 8.00011V10.6101L21.4141 16.6101V6.50011L17.4141 10.5001V7.00011C17.4141 6.73489 17.3087 6.48054 17.1212 6.293C16.9336 6.10546 16.6793 6.00011 16.4141 6.00011H10.8041L12.8041 8.00011H15.4141Z" fill="black"/>
</g>
</svg>
