<svg width="25" height="24" viewBox="0 0 25 24" fill="none" xmlns="http://www.w3.org/2000/svg">
<g id="966">
<path id="Vector" d="M15.4141 8V16H5.41406V8H15.4141ZM16.4141 6H4.41406C4.14885 6 3.89449 6.10536 3.70696 6.29289C3.51942 6.48043 3.41406 6.73478 3.41406 7V17C3.41406 17.2652 3.51942 17.5196 3.70696 17.7071C3.89449 17.8946 4.14885 18 4.41406 18H16.4141C16.6793 18 16.9336 17.8946 17.1212 17.7071C17.3087 17.5196 17.4141 17.2652 17.4141 17V13.5L21.4141 17.5V6.5L17.4141 10.5V7C17.4141 6.73478 17.3087 6.48043 17.1212 6.29289C16.9336 6.10536 16.6793 6 16.4141 6Z" fill="black"/>
</g>
</svg>
