<svg width="25" height="24" viewBox="0 0 25 24" fill="none" xmlns="http://www.w3.org/2000/svg">
<g id="968">
<path id="Vector" d="M4.41406 4H20.4141C20.9445 4 21.4532 4.21071 21.8283 4.58579C22.2033 4.96086 22.4141 5.46957 22.4141 6V18C22.4141 18.5304 22.2033 19.0391 21.8283 19.4142C21.4532 19.7893 20.9445 20 20.4141 20H4.41406C3.88363 20 3.37492 19.7893 2.99985 19.4142C2.62478 19.0391 2.41406 18.5304 2.41406 18V6C2.41406 5.46957 2.62478 4.96086 2.99985 4.58579C3.37492 4.21071 3.88363 4 4.41406 4ZM4.41406 6V18H20.4141V6H4.41406ZM7.65406 6.58L19.2441 9.69L17.1741 17.42L5.58406 14.31L7.65406 6.58Z" fill="black"/>
</g>
</svg>
