<svg width="25" height="24" viewBox="0 0 25 24" fill="none" xmlns="http://www.w3.org/2000/svg">
<g id="969">
<path id="Vector" d="M13.4141 15.5V13H7.41406V15.5L3.91406 12L7.41406 8.5V11H13.4141V8.5L16.9141 12M18.4141 9.5V6C18.4141 5.73478 18.3087 5.48043 18.1212 5.29289C17.9336 5.10536 17.6793 5 17.4141 5H3.41406C3.14885 5 2.89449 5.10536 2.70696 5.29289C2.51942 5.48043 2.41406 5.73478 2.41406 6V18C2.41406 18.2652 2.51942 18.5196 2.70696 18.7071C2.89449 18.8946 3.14885 19 3.41406 19H17.4141C17.6793 19 17.9336 18.8946 18.1212 18.7071C18.3087 18.5196 18.4141 18.2652 18.4141 18V14.5L22.4141 18.5V5.5L18.4141 9.5Z" fill="black"/>
</g>
</svg>
