<svg width="25" height="24" viewBox="0 0 25 24" fill="none" xmlns="http://www.w3.org/2000/svg">
<g id="971">
<path id="Vector" d="M18.4111 14.5V11C18.4111 10.7348 18.3058 10.4804 18.1183 10.2929C17.9307 10.1053 17.6764 9.99998 17.4111 9.99998H16.4111C18.6511 8.38998 19.1711 5.26998 17.5611 2.99998C15.9511 0.77998 12.8311 0.25998 10.5811 1.86998C9.91115 2.34998 9.37115 2.99998 9.01115 3.72998C6.66115 2.27998 3.58115 2.99998 2.13115 5.36998C0.691144 7.71998 1.41115 10.8 3.77115 12.25C3.98115 12.37 4.19115 12.5 4.41115 12.58V21C4.41115 21.2652 4.5165 21.5196 4.70404 21.7071C4.89158 21.8946 5.14593 22 5.41115 22H17.4111C17.6764 22 17.9307 21.8946 18.1183 21.7071C18.3058 21.5196 18.4111 21.2652 18.4111 21V17.5L22.4111 21.5V10.5L18.4111 14.5ZM13.4111 3.99998C13.9416 3.99998 14.4503 4.21069 14.8254 4.58577C15.2004 4.96084 15.4111 5.46955 15.4111 5.99998C15.4111 6.53041 15.2004 7.03912 14.8254 7.41419C14.4503 7.78927 13.9416 7.99998 13.4111 7.99998C12.8807 7.99998 12.372 7.78927 11.9969 7.41419C11.6219 7.03912 11.4111 6.53041 11.4111 5.99998C11.4111 5.46955 11.6219 4.96084 11.9969 4.58577C12.372 4.21069 12.8807 3.99998 13.4111 3.99998ZM6.41115 5.99998C6.94158 5.99998 7.45029 6.21069 7.82536 6.58577C8.20043 6.96084 8.41115 7.46955 8.41115 7.99998C8.41115 8.53041 8.20043 9.03912 7.82536 9.41419C7.45029 9.78927 6.94158 9.99998 6.41115 9.99998C5.88071 9.99998 5.37201 9.78927 4.99693 9.41419C4.62186 9.03912 4.41115 8.53041 4.41115 7.99998C4.41115 7.46955 4.62186 6.96084 4.99693 6.58577C5.37201 6.21069 5.88071 5.99998 6.41115 5.99998Z" fill="black"/>
</g>
</svg>
