<svg width="25" height="24" viewBox="0 0 25 24" fill="none" xmlns="http://www.w3.org/2000/svg">
<g id="972">
<path id="Vector" d="M17.4141 14.4999V10.9999C17.4141 10.7347 17.3087 10.4804 17.1212 10.2928C16.9336 10.1053 16.6793 9.99994 16.4141 9.99994H4.41406C4.14885 9.99994 3.89449 10.1053 3.70696 10.2928C3.51942 10.4804 3.41406 10.7347 3.41406 10.9999V20.9999C3.41406 21.2652 3.51942 21.5195 3.70696 21.707C3.89449 21.8946 4.14885 21.9999 4.41406 21.9999H16.4141C16.6793 21.9999 16.9336 21.8946 17.1212 21.707C17.3087 21.5195 17.4141 21.2652 17.4141 20.9999V17.4999L21.4141 21.4999V10.4999M3.41406 3.85994L4.81406 5.23994C7.91406 2.18994 12.9141 2.18994 16.0141 5.23994L17.4141 3.85994C13.5541 0.0499418 7.28406 0.0499418 3.41406 3.85994ZM6.21406 6.61994L7.61406 7.99994C9.16406 6.49994 11.6641 6.49994 13.2141 7.99994L14.6141 6.61994C12.2941 4.33994 8.53406 4.33994 6.21406 6.61994Z" fill="black"/>
</g>
</svg>
