<svg width="25" height="24" viewBox="0 0 25 24" fill="none" xmlns="http://www.w3.org/2000/svg">
<g id="975">
<path id="Vector" d="M21.4141 13H3.41406C3.14885 13 2.89449 13.1054 2.70696 13.2929C2.51942 13.4804 2.41406 13.7348 2.41406 14V20C2.41406 20.2652 2.51942 20.5196 2.70696 20.7071C2.89449 20.8946 3.14885 21 3.41406 21H21.4141C21.6793 21 21.9336 20.8946 22.1212 20.7071C22.3087 20.5196 22.4141 20.2652 22.4141 20V14C22.4141 13.7348 22.3087 13.4804 22.1212 13.2929C21.9336 13.1054 21.6793 13 21.4141 13ZM20.4141 19H4.41406V15H20.4141M21.4141 3H3.41406C3.14885 3 2.89449 3.10536 2.70696 3.29289C2.51942 3.48043 2.41406 3.73478 2.41406 4V10C2.41406 10.2652 2.51942 10.5196 2.70696 10.7071C2.89449 10.8946 3.14885 11 3.41406 11H21.4141C21.6793 11 21.9336 10.8946 22.1212 10.7071C22.3087 10.5196 22.4141 10.2652 22.4141 10V4C22.4141 3.73478 22.3087 3.48043 22.1212 3.29289C21.9336 3.10536 21.6793 3 21.4141 3ZM20.4141 9H4.41406V5H20.4141V9Z" fill="black"/>
</g>
</svg>
