<svg width="25" height="24" viewBox="0 0 25 24" fill="none" xmlns="http://www.w3.org/2000/svg">
<g id="982">
<path id="Vector" d="M3.41406 9H7.41406V5H3.41406V9ZM3.41406 14H7.41406V10H3.41406V14ZM8.41406 14H12.4141V10H8.41406V14ZM13.4141 14H17.4141V10H13.4141V14ZM8.41406 9H12.4141V5H8.41406V9ZM13.4141 5V9H17.4141V5H13.4141ZM18.4141 14H22.4141V10H18.4141V14ZM3.41406 19H7.41406V15H3.41406V19ZM8.41406 19H12.4141V15H8.41406V19ZM13.4141 19H17.4141V15H13.4141V19ZM18.4141 19H22.4141V15H18.4141V19ZM18.4141 5V9H22.4141V5H18.4141Z" fill="black"/>
</g>
</svg>
