<svg width="25" height="24" viewBox="0 0 25 24" fill="none" xmlns="http://www.w3.org/2000/svg">
<g id="983">
<path id="Vector" d="M21.4141 13.1C21.3141 13.1 21.1141 13.2 21.0141 13.3L20.0141 14.3L22.1141 16.4L23.1141 15.4C23.3141 15.2 23.3141 14.8 23.1141 14.6L21.8141 13.3C21.7141 13.2 21.6141 13.1 21.4141 13.1ZM19.5141 14.9L13.4141 20.9V23H15.5141L21.6141 16.9L19.5141 14.9ZM21.4141 9H13.4141V3H21.4141V9ZM13.4141 18.06V11H21.4141V11.1C20.6541 11.1 19.9841 11.5 19.6041 11.89L13.4141 18.06ZM11.4141 13H3.41406V3H11.4141V13ZM11.4141 21H3.41406V15H11.4141V21Z" fill="black"/>
</g>
</svg>
