<svg width="25" height="24" viewBox="0 0 25 24" fill="none" xmlns="http://www.w3.org/2000/svg">
<g id="987">
<path id="Vector" d="M3.41406 5V19H22.4141V5H3.41406ZM20.4141 9H18.1641V7H20.4141V9ZM9.66406 11H11.9141V13H9.66406V11ZM7.66406 13H5.41406V11H7.66406V13ZM11.9141 9H9.66406V7H11.9141V9ZM13.9141 7H16.1641V9H13.9141V7ZM11.9141 15V17H9.66406V15H11.9141ZM13.9141 15H16.1641V17H13.9141V15ZM13.9141 13V11H16.1641V13H13.9141ZM18.1641 11H20.4141V13H18.1641V11ZM7.66406 7V9H5.41406V7H7.66406ZM5.41406 15H7.66406V17H5.41406V15ZM18.1641 17V15H20.4141V17H18.1641Z" fill="black"/>
</g>
</svg>
