<svg width="25" height="24" viewBox="0 0 25 24" fill="none" xmlns="http://www.w3.org/2000/svg">
<g id="99">
<path id="Vector" d="M21.4102 19C21.4102 19.5304 21.1994 20.0391 20.8244 20.4142C20.4493 20.7893 19.9406 21 19.4102 21H5.41016C4.87972 21 4.37102 20.7893 3.99594 20.4142C3.62087 20.0391 3.41016 19.5304 3.41016 19V5C3.41016 4.46957 3.62087 3.96086 3.99594 3.58579C4.37102 3.21071 4.87972 3 5.41016 3H19.4102C20.5202 3 21.4102 3.9 21.4102 5V19ZM13.4102 18V9.5L16.9102 13L18.3302 11.58L12.4102 5.66L6.49016 11.58L7.91016 13L11.4102 9.5V18H13.4102Z" fill="black"/>
</g>
</svg>
