<svg width="25" height="24" viewBox="0 0 25 24" fill="none" xmlns="http://www.w3.org/2000/svg">
<g id="992">
<path id="Vector" d="M2.41406 3V6H21.4141V3M20.4141 8H3.41406C3.14885 8 2.89449 8.10536 2.70696 8.29289C2.51942 8.48043 2.41406 8.73478 2.41406 9V15C2.41406 15.2652 2.51942 15.5196 2.70696 15.7071C2.89449 15.8946 3.14885 16 3.41406 16H20.4141C20.6793 16 20.9336 15.8946 21.1212 15.7071C21.3087 15.5196 21.4141 15.2652 21.4141 15V9C21.4141 8.73478 21.3087 8.48043 21.1212 8.29289C20.9336 8.10536 20.6793 8 20.4141 8ZM2.41406 21H21.4141V18H2.41406V21Z" fill="black"/>
</g>
</svg>
